# https://github.com/mikedh/trimesh
mtllib material.mtl
usemtl material_0
v -76.07282257 -32.89779282 25.57125092
v -75.59091187 -32.89779282 26.05316162
v -75.59091187 -32.41588211 25.57125092
v 75.59091187 -32.41588211 25.57125092
v 75.59091187 -32.89779282 26.05316162
v 76.07282257 -32.89779282 25.57125092
v 75.59091187 -32.41588211 -25.57125092
v 76.07282257 -32.89779282 -25.57125092
v 75.59091187 -32.89779282 -26.05316162
v -75.59091187 -32.41588211 -25.57125092
v -75.59091187 -32.89779282 -26.05316162
v -76.07282257 -32.89779282 -25.57125092
v -76.07282257 7.10220575 25.57125092
v -75.59091187 7.10220575 26.05316162
v -75.59091187 7.58411741 25.57125092
v 75.59091187 7.58411741 25.57125092
v 75.59091187 7.10220575 26.05316162
v 76.07282257 7.10220575 25.57125092
v 75.59091187 7.58411741 -25.57125092
v 76.07282257 7.10220575 -25.57125092
v 75.59091187 7.10220575 -26.05316162
v -75.59091187 7.58411741 -25.57125092
v -75.59091187 7.10220575 -26.05316162
v -76.07282257 7.10220575 -25.57125092
v -76.07282257 47.10220718 25.57125092
v -75.59091187 47.10220718 26.05316162
v -75.59091187 47.58411789 25.57125092
v 75.59091187 47.58411789 25.57125092
v 75.59091187 47.10220718 26.05316162
v 76.07282257 47.10220718 25.57125092
v 75.59091187 47.58411789 -25.57125092
v 76.07282257 47.10220718 -25.57125092
v 75.59091187 47.10220718 -26.05316162
v -75.59091187 47.58411789 -25.57125092
v -75.59091187 47.10220718 -26.05316162
v -76.07282257 47.10220718 -25.57125092
v -76.07282257 87.10220337 25.57125092
v -75.59091187 87.10220337 26.05316162
v -75.59091187 87.58411407 25.57125092
v 75.59091187 87.58411407 25.57125092
v 75.59091187 87.10220337 26.05316162
v 76.07282257 87.10220337 25.57125092
v 75.59091187 87.58411407 -25.57125092
v 76.07282257 87.10220337 -25.57125092
v 75.59091187 87.10220337 -26.05316162
v -75.59091187 87.58411407 -25.57125092
v -75.59091187 87.10220337 -26.05316162
v -76.07282257 87.10220337 -25.57125092
v -76.07282257 127.10220337 25.57125092
v -75.59091187 127.10220337 26.05316162
v -75.59091187 127.58411407 25.57125092
v 75.59091187 127.58411407 25.57125092
v 75.59091187 127.10220337 26.05316162
v 76.07282257 127.10220337 25.57125092
v 75.59091187 127.58411407 -25.57125092
v 76.07282257 127.10220337 -25.57125092
v 75.59091187 127.10220337 -26.05316162
v -75.59091187 127.58411407 -25.57125092
v -75.59091187 127.10220337 -26.05316162
v -76.07282257 127.10220337 -25.57125092
v -75.13689423 -37.22181320 26.24723244
v 75.13689423 -37.22181320 26.24723244
v 75.13689423 -33.35181046 26.24723244
v -75.13689423 -33.35181046 26.24723244
v 76.26689148 -37.22181320 25.11723137
v 76.26689148 -37.22181320 -25.11723137
v 76.26689148 -33.35181046 -25.11723137
v 76.26689148 -33.35181046 25.11723137
v 75.13689423 -37.22181320 -26.24723244
v -75.13689423 -37.22181320 -26.24723244
v -75.13689423 -33.35181046 -26.24723244
v 75.13689423 -33.35181046 -26.24723244
v -76.26689148 -37.22181320 -25.11723137
v -76.26689148 -37.22181320 25.11723137
v -76.26689148 -33.35181046 25.11723137
v -76.26689148 -33.35181046 -25.11723137
v 75.13689423 -32.22181320 25.11723137
v 75.13689423 -32.22181320 -25.11723137
v -75.13689423 -32.22181320 -25.11723137
v -75.13689423 -32.22181320 25.11723137
v -76.12254333 -37.22181320 25.66984940
v -76.12254333 -33.35181046 25.66984940
v -76.26689148 -33.35181046 25.11723137
v -76.26689148 -37.22181320 25.11723137
v -75.13689423 -32.36615753 25.66984940
v 75.13689423 -32.36615753 25.66984940
v 75.13689423 -32.22181320 25.11723137
v -75.13689423 -32.22181320 25.11723137
v 76.12254333 -33.35181046 25.66984940
v 76.12254333 -37.22181320 25.66984940
v 76.26689148 -37.22181320 25.11723137
v 76.26689148 -33.35181046 25.11723137
v 75.68950653 -32.36615753 25.11723137
v 75.68950653 -32.36615753 -25.11723137
v 75.13689423 -32.22181320 -25.11723137
v 75.13689423 -32.22181320 25.11723137
v 75.68950653 -33.35181046 -26.10288620
v 75.68950653 -37.22181320 -26.10288620
v 75.13689423 -37.22181320 -26.24723244
v 75.13689423 -33.35181046 -26.24723244
v 75.13689423 -32.36615753 -25.66984940
v -75.13689423 -32.36615753 -25.66984940
v -75.13689423 -32.22181320 -25.11723137
v 75.13689423 -32.22181320 -25.11723137
v -76.12254333 -33.35181046 -25.66984940
v -76.12254333 -37.22181320 -25.66984940
v -76.26689148 -37.22181320 -25.11723137
v -76.26689148 -33.35181046 -25.11723137
v -75.68950653 -32.36615753 -25.11723137
v -75.68950653 -32.36615753 25.11723137
v -75.13689423 -32.22181320 25.11723137
v -75.13689423 -32.22181320 -25.11723137
v -75.13689423 -32.36615753 25.66984940
v -75.13689423 -32.79919434 26.10288620
v -75.68950653 -33.35181046 26.10288620
v -76.12254333 -32.79919434 25.11723137
v -75.13689423 -33.35181046 26.24723244
v 75.68950653 -33.35181046 26.10288620
v 75.13689423 -32.79919434 26.10288620
v 75.13689423 -32.36615753 25.66984940
v 76.12254333 -32.79919434 25.11723137
v 75.13689423 -33.35181046 26.24723244
v 76.12254333 -33.35181046 -25.66984940
v 76.12254333 -32.79919434 -25.11723137
v 75.13689423 -32.36615753 -25.66984940
v 75.13689423 -32.79919434 -26.10288620
v 76.26689148 -33.35181046 -25.11723137
v -75.68950653 -33.35181046 -26.10288620
v -75.13689423 -32.79919434 -26.10288620
v -75.13689423 -32.36615753 -25.66984940
v -76.12254333 -32.79919434 -25.11723137
v -75.13689423 -33.35181046 -26.24723244
v -75.68950653 -37.22181320 26.10288620
v -75.13689423 -37.22181320 26.24723244
v -75.13689423 -32.79919434 26.10288620
v 75.13689423 -32.79919434 26.10288620
v -75.13689423 -33.35181046 26.24723244
v 75.13689423 -33.35181046 26.24723244
v 75.68950653 -37.22181320 26.10288620
v 75.13689423 -37.22181320 26.24723244
v 76.12254333 -37.22181320 -25.66984940
v 76.26689148 -37.22181320 -25.11723137
v 75.13689423 -32.79919434 -26.10288620
v -75.13689423 -32.79919434 -26.10288620
v 75.13689423 -33.35181046 -26.24723244
v -75.13689423 -33.35181046 -26.24723244
v -75.68950653 -37.22181320 -26.10288620
v -75.13689423 -37.22181320 -26.24723244
v -75.13689423 2.77818823 26.24723244
v 75.13689423 2.77818823 26.24723244
v 75.13689423 6.64818811 26.24723244
v -75.13689423 6.64818811 26.24723244
v 76.26689148 2.77818823 25.11723137
v 76.26689148 2.77818823 -25.11723137
v 76.26689148 6.64818811 -25.11723137
v 76.26689148 6.64818811 25.11723137
v 75.13689423 2.77818823 -26.24723244
v -75.13689423 2.77818823 -26.24723244
v -75.13689423 6.64818811 -26.24723244
v 75.13689423 6.64818811 -26.24723244
v -76.26689148 2.77818823 -25.11723137
v -76.26689148 2.77818823 25.11723137
v -76.26689148 6.64818811 25.11723137
v -76.26689148 6.64818811 -25.11723137
v 75.13689423 7.77818823 25.11723137
v 75.13689423 7.77818823 -25.11723137
v -75.13689423 7.77818823 -25.11723137
v -75.13689423 7.77818823 25.11723137
v -76.12254333 2.77818823 25.66984940
v -76.12254333 6.64818811 25.66984940
v -76.26689148 6.64818811 25.11723137
v -76.26689148 2.77818823 25.11723137
v -75.13689423 7.63384247 25.66984940
v 75.13689423 7.63384247 25.66984940
v 75.13689423 7.77818823 25.11723137
v -75.13689423 7.77818823 25.11723137
v 76.12254333 6.64818811 25.66984940
v 76.12254333 2.77818823 25.66984940
v 76.26689148 2.77818823 25.11723137
v 76.26689148 6.64818811 25.11723137
v 75.68950653 7.63384247 25.11723137
v 75.68950653 7.63384247 -25.11723137
v 75.13689423 7.77818823 -25.11723137
v 75.13689423 7.77818823 25.11723137
v 75.68950653 6.64818811 -26.10288620
v 75.68950653 2.77818823 -26.10288620
v 75.13689423 2.77818823 -26.24723244
v 75.13689423 6.64818811 -26.24723244
v 75.13689423 7.63384247 -25.66984940
v -75.13689423 7.63384247 -25.66984940
v -75.13689423 7.77818823 -25.11723137
v 75.13689423 7.77818823 -25.11723137
v -76.12254333 6.64818811 -25.66984940
v -76.12254333 2.77818823 -25.66984940
v -76.26689148 2.77818823 -25.11723137
v -76.26689148 6.64818811 -25.11723137
v -75.68950653 7.63384247 -25.11723137
v -75.68950653 7.63384247 25.11723137
v -75.13689423 7.77818823 25.11723137
v -75.13689423 7.77818823 -25.11723137
v -75.13689423 7.63384247 25.66984940
v -75.13689423 7.20080519 26.10288620
v -75.68950653 6.64818811 26.10288620
v -76.12254333 7.20080519 25.11723137
v -75.13689423 6.64818811 26.24723244
v 75.68950653 6.64818811 26.10288620
v 75.13689423 7.20080519 26.10288620
v 75.13689423 7.63384247 25.66984940
v 76.12254333 7.20080519 25.11723137
v 75.13689423 6.64818811 26.24723244
v 76.12254333 6.64818811 -25.66984940
v 76.12254333 7.20080519 -25.11723137
v 75.13689423 7.63384247 -25.66984940
v 75.13689423 7.20080519 -26.10288620
v 76.26689148 6.64818811 -25.11723137
v -75.68950653 6.64818811 -26.10288620
v -75.13689423 7.20080519 -26.10288620
v -75.13689423 7.63384247 -25.66984940
v -76.12254333 7.20080519 -25.11723137
v -75.13689423 6.64818811 -26.24723244
v -75.68950653 2.77818823 26.10288620
v -75.13689423 2.77818823 26.24723244
v -75.13689423 7.20080519 26.10288620
v 75.13689423 7.20080519 26.10288620
v -75.13689423 6.64818811 26.24723244
v 75.13689423 6.64818811 26.24723244
v 75.68950653 2.77818823 26.10288620
v 75.13689423 2.77818823 26.24723244
v 76.12254333 2.77818823 -25.66984940
v 76.26689148 2.77818823 -25.11723137
v 75.13689423 7.20080519 -26.10288620
v -75.13689423 7.20080519 -26.10288620
v 75.13689423 6.64818811 -26.24723244
v -75.13689423 6.64818811 -26.24723244
v -75.68950653 2.77818823 -26.10288620
v -75.13689423 2.77818823 -26.24723244
v -75.13689423 42.77818680 26.24723244
v 75.13689423 42.77818680 26.24723244
v 75.13689423 46.64818954 26.24723244
v -75.13689423 46.64818954 26.24723244
v 76.26689148 42.77818680 25.11723137
v 76.26689148 42.77818680 -25.11723137
v 76.26689148 46.64818954 -25.11723137
v 76.26689148 46.64818954 25.11723137
v 75.13689423 42.77818680 -26.24723244
v -75.13689423 42.77818680 -26.24723244
v -75.13689423 46.64818954 -26.24723244
v 75.13689423 46.64818954 -26.24723244
v -76.26689148 42.77818680 -25.11723137
v -76.26689148 42.77818680 25.11723137
v -76.26689148 46.64818954 25.11723137
v -76.26689148 46.64818954 -25.11723137
v 75.13689423 47.77818680 25.11723137
v 75.13689423 47.77818680 -25.11723137
v -75.13689423 47.77818680 -25.11723137
v -75.13689423 47.77818680 25.11723137
v -76.12254333 42.77818680 25.66984940
v -76.12254333 46.64818954 25.66984940
v -76.26689148 46.64818954 25.11723137
v -76.26689148 42.77818680 25.11723137
v -75.13689423 47.63384247 25.66984940
v 75.13689423 47.63384247 25.66984940
v 75.13689423 47.77818680 25.11723137
v -75.13689423 47.77818680 25.11723137
v 76.12254333 46.64818954 25.66984940
v 76.12254333 42.77818680 25.66984940
v 76.26689148 42.77818680 25.11723137
v 76.26689148 46.64818954 25.11723137
v 75.68950653 47.63384247 25.11723137
v 75.68950653 47.63384247 -25.11723137
v 75.13689423 47.77818680 -25.11723137
v 75.13689423 47.77818680 25.11723137
v 75.68950653 46.64818954 -26.10288620
v 75.68950653 42.77818680 -26.10288620
v 75.13689423 42.77818680 -26.24723244
v 75.13689423 46.64818954 -26.24723244
v 75.13689423 47.63384247 -25.66984940
v -75.13689423 47.63384247 -25.66984940
v -75.13689423 47.77818680 -25.11723137
v 75.13689423 47.77818680 -25.11723137
v -76.12254333 46.64818954 -25.66984940
v -76.12254333 42.77818680 -25.66984940
v -76.26689148 42.77818680 -25.11723137
v -76.26689148 46.64818954 -25.11723137
v -75.68950653 47.63384247 -25.11723137
v -75.68950653 47.63384247 25.11723137
v -75.13689423 47.77818680 25.11723137
v -75.13689423 47.77818680 -25.11723137
v -75.13689423 47.63384247 25.66984940
v -75.13689423 47.20080566 26.10288620
v -75.68950653 46.64818954 26.10288620
v -76.12254333 47.20080566 25.11723137
v -75.13689423 46.64818954 26.24723244
v 75.68950653 46.64818954 26.10288620
v 75.13689423 47.20080566 26.10288620
v 75.13689423 47.63384247 25.66984940
v 76.12254333 47.20080566 25.11723137
v 75.13689423 46.64818954 26.24723244
v 76.12254333 46.64818954 -25.66984940
v 76.12254333 47.20080566 -25.11723137
v 75.13689423 47.63384247 -25.66984940
v 75.13689423 47.20080566 -26.10288620
v 76.26689148 46.64818954 -25.11723137
v -75.68950653 46.64818954 -26.10288620
v -75.13689423 47.20080566 -26.10288620
v -75.13689423 47.63384247 -25.66984940
v -76.12254333 47.20080566 -25.11723137
v -75.13689423 46.64818954 -26.24723244
v -75.68950653 42.77818680 26.10288620
v -75.13689423 42.77818680 26.24723244
v -75.13689423 47.20080566 26.10288620
v 75.13689423 47.20080566 26.10288620
v -75.13689423 46.64818954 26.24723244
v 75.13689423 46.64818954 26.24723244
v 75.68950653 42.77818680 26.10288620
v 75.13689423 42.77818680 26.24723244
v 76.12254333 42.77818680 -25.66984940
v 76.26689148 42.77818680 -25.11723137
v 75.13689423 47.20080566 -26.10288620
v -75.13689423 47.20080566 -26.10288620
v 75.13689423 46.64818954 -26.24723244
v -75.13689423 46.64818954 -26.24723244
v -75.68950653 42.77818680 -26.10288620
v -75.13689423 42.77818680 -26.24723244
v -75.13689423 82.77819061 26.24723244
v 75.13689423 82.77819061 26.24723244
v 75.13689423 86.64818573 26.24723244
v -75.13689423 86.64818573 26.24723244
v 76.26689148 82.77819061 25.11723137
v 76.26689148 82.77819061 -25.11723137
v 76.26689148 86.64818573 -25.11723137
v 76.26689148 86.64818573 25.11723137
v 75.13689423 82.77819061 -26.24723244
v -75.13689423 82.77819061 -26.24723244
v -75.13689423 86.64818573 -26.24723244
v 75.13689423 86.64818573 -26.24723244
v -76.26689148 82.77819061 -25.11723137
v -76.26689148 82.77819061 25.11723137
v -76.26689148 86.64818573 25.11723137
v -76.26689148 86.64818573 -25.11723137
v 75.13689423 87.77819061 25.11723137
v 75.13689423 87.77819061 -25.11723137
v -75.13689423 87.77819061 -25.11723137
v -75.13689423 87.77819061 25.11723137
v -76.12254333 82.77819061 25.66984940
v -76.12254333 86.64818573 25.66984940
v -76.26689148 86.64818573 25.11723137
v -76.26689148 82.77819061 25.11723137
v -75.13689423 87.63384247 25.66984940
v 75.13689423 87.63384247 25.66984940
v 75.13689423 87.77819061 25.11723137
v -75.13689423 87.77819061 25.11723137
v 76.12254333 86.64818573 25.66984940
v 76.12254333 82.77819061 25.66984940
v 76.26689148 82.77819061 25.11723137
v 76.26689148 86.64818573 25.11723137
v 75.68950653 87.63384247 25.11723137
v 75.68950653 87.63384247 -25.11723137
v 75.13689423 87.77819061 -25.11723137
v 75.13689423 87.77819061 25.11723137
v 75.68950653 86.64818573 -26.10288620
v 75.68950653 82.77819061 -26.10288620
v 75.13689423 82.77819061 -26.24723244
v 75.13689423 86.64818573 -26.24723244
v 75.13689423 87.63384247 -25.66984940
v -75.13689423 87.63384247 -25.66984940
v -75.13689423 87.77819061 -25.11723137
v 75.13689423 87.77819061 -25.11723137
v -76.12254333 86.64818573 -25.66984940
v -76.12254333 82.77819061 -25.66984940
v -76.26689148 82.77819061 -25.11723137
v -76.26689148 86.64818573 -25.11723137
v -75.68950653 87.63384247 -25.11723137
v -75.68950653 87.63384247 25.11723137
v -75.13689423 87.77819061 25.11723137
v -75.13689423 87.77819061 -25.11723137
v -75.13689423 87.63384247 25.66984940
v -75.13689423 87.20080566 26.10288620
v -75.68950653 86.64818573 26.10288620
v -76.12254333 87.20080566 25.11723137
v -75.13689423 86.64818573 26.24723244
v 75.68950653 86.64818573 26.10288620
v 75.13689423 87.20080566 26.10288620
v 75.13689423 87.63384247 25.66984940
v 76.12254333 87.20080566 25.11723137
v 75.13689423 86.64818573 26.24723244
v 76.12254333 86.64818573 -25.66984940
v 76.12254333 87.20080566 -25.11723137
v 75.13689423 87.63384247 -25.66984940
v 75.13689423 87.20080566 -26.10288620
v 76.26689148 86.64818573 -25.11723137
v -75.68950653 86.64818573 -26.10288620
v -75.13689423 87.20080566 -26.10288620
v -75.13689423 87.63384247 -25.66984940
v -76.12254333 87.20080566 -25.11723137
v -75.13689423 86.64818573 -26.24723244
v -75.68950653 82.77819061 26.10288620
v -75.13689423 82.77819061 26.24723244
v -75.13689423 87.20080566 26.10288620
v 75.13689423 87.20080566 26.10288620
v -75.13689423 86.64818573 26.24723244
v 75.13689423 86.64818573 26.24723244
v 75.68950653 82.77819061 26.10288620
v 75.13689423 82.77819061 26.24723244
v 76.12254333 82.77819061 -25.66984940
v 76.26689148 82.77819061 -25.11723137
v 75.13689423 87.20080566 -26.10288620
v -75.13689423 87.20080566 -26.10288620
v 75.13689423 86.64818573 -26.24723244
v -75.13689423 86.64818573 -26.24723244
v -75.68950653 82.77819061 -26.10288620
v -75.13689423 82.77819061 -26.24723244
v -75.13689423 122.77819061 26.24723244
v 75.13689423 122.77819061 26.24723244
v 75.13689423 126.64818573 26.24723244
v -75.13689423 126.64818573 26.24723244
v 76.26689148 122.77819061 25.11723137
v 76.26689148 122.77819061 -25.11723137
v 76.26689148 126.64818573 -25.11723137
v 76.26689148 126.64818573 25.11723137
v 75.13689423 122.77819061 -26.24723244
v -75.13689423 122.77819061 -26.24723244
v -75.13689423 126.64818573 -26.24723244
v 75.13689423 126.64818573 -26.24723244
v -76.26689148 122.77819061 -25.11723137
v -76.26689148 122.77819061 25.11723137
v -76.26689148 126.64818573 25.11723137
v -76.26689148 126.64818573 -25.11723137
v 75.13689423 127.77819061 25.11723137
v 75.13689423 127.77819061 -25.11723137
v -75.13689423 127.77819061 -25.11723137
v -75.13689423 127.77819061 25.11723137
v -76.12254333 122.77819061 25.66984940
v -76.12254333 126.64818573 25.66984940
v -76.26689148 126.64818573 25.11723137
v -76.26689148 122.77819061 25.11723137
v -75.13689423 127.63384247 25.66984940
v 75.13689423 127.63384247 25.66984940
v 75.13689423 127.77819061 25.11723137
v -75.13689423 127.77819061 25.11723137
v 76.12254333 126.64818573 25.66984940
v 76.12254333 122.77819061 25.66984940
v 76.26689148 122.77819061 25.11723137
v 76.26689148 126.64818573 25.11723137
v 75.68950653 127.63384247 25.11723137
v 75.68950653 127.63384247 -25.11723137
v 75.13689423 127.77819061 -25.11723137
v 75.13689423 127.77819061 25.11723137
v 75.68950653 126.64818573 -26.10288620
v 75.68950653 122.77819061 -26.10288620
v 75.13689423 122.77819061 -26.24723244
v 75.13689423 126.64818573 -26.24723244
v 75.13689423 127.63384247 -25.66984940
v -75.13689423 127.63384247 -25.66984940
v -75.13689423 127.77819061 -25.11723137
v 75.13689423 127.77819061 -25.11723137
v -76.12254333 126.64818573 -25.66984940
v -76.12254333 122.77819061 -25.66984940
v -76.26689148 122.77819061 -25.11723137
v -76.26689148 126.64818573 -25.11723137
v -75.68950653 127.63384247 -25.11723137
v -75.68950653 127.63384247 25.11723137
v -75.13689423 127.77819061 25.11723137
v -75.13689423 127.77819061 -25.11723137
v -75.13689423 127.63384247 25.66984940
v -75.13689423 127.20080566 26.10288620
v -75.68950653 126.64818573 26.10288620
v -76.12254333 127.20080566 25.11723137
v -75.13689423 126.64818573 26.24723244
v 75.68950653 126.64818573 26.10288620
v 75.13689423 127.20080566 26.10288620
v 75.13689423 127.63384247 25.66984940
v 76.12254333 127.20080566 25.11723137
v 75.13689423 126.64818573 26.24723244
v 76.12254333 126.64818573 -25.66984940
v 76.12254333 127.20080566 -25.11723137
v 75.13689423 127.63384247 -25.66984940
v 75.13689423 127.20080566 -26.10288620
v 76.26689148 126.64818573 -25.11723137
v -75.68950653 126.64818573 -26.10288620
v -75.13689423 127.20080566 -26.10288620
v -75.13689423 127.63384247 -25.66984940
v -76.12254333 127.20080566 -25.11723137
v -75.13689423 126.64818573 -26.24723244
v -75.68950653 122.77819061 26.10288620
v -75.13689423 122.77819061 26.24723244
v -75.13689423 127.20080566 26.10288620
v 75.13689423 127.20080566 26.10288620
v -75.13689423 126.64818573 26.24723244
v 75.13689423 126.64818573 26.24723244
v 75.68950653 122.77819061 26.10288620
v 75.13689423 122.77819061 26.24723244
v 76.12254333 122.77819061 -25.66984940
v 76.26689148 122.77819061 -25.11723137
v 75.13689423 127.20080566 -26.10288620
v -75.13689423 127.20080566 -26.10288620
v 75.13689423 126.64818573 -26.24723244
v -75.13689423 126.64818573 -26.24723244
v -75.68950653 122.77819061 -26.10288620
v -75.13689423 122.77819061 -26.24723244
v -77.50000000 -50.00000000 -27.18000031
v -77.50000000 -50.00000000 -22.50000000
v -77.50000000 150.00000000 -22.50000000
v -77.50000000 150.00000000 -27.18000031
v -77.18000031 -50.00000000 -27.50000000
v -77.18000031 150.00000000 -27.50000000
v -72.50000000 150.00000000 -27.50000000
v -72.50000000 -50.00000000 -27.50000000
v -77.33649445 -50.00000000 -27.45912361
v -77.33649445 150.00000000 -27.45912361
v -77.18000031 150.00000000 -27.50000000
v -77.18000031 -50.00000000 -27.50000000
v -77.45912170 -50.00000000 -27.33649254
v -77.45912170 150.00000000 -27.33649254
v -77.50000000 -50.00000000 -27.18000031
v -77.50000000 150.00000000 -27.18000031
v -77.50000000 -50.00000000 -22.50000000
v -76.44000244 -50.00000000 -22.50000000
v -76.44000244 150.00000000 -22.50000000
v -77.50000000 150.00000000 -22.50000000
v -72.50000000 150.00000000 -27.50000000
v -72.50000000 150.00000000 -26.44000053
v -72.50000000 -50.00000000 -26.44000053
v -72.50000000 -50.00000000 -27.50000000
v -76.44000244 -50.00000000 -22.50000000
v -76.44000244 -50.00000000 -23.70000076
v -76.44000244 150.00000000 -23.70000076
v -76.44000244 150.00000000 -22.50000000
v -72.50000000 150.00000000 -26.44000053
v -73.69999695 150.00000000 -26.44000053
v -73.69999695 -50.00000000 -26.44000053
v -72.50000000 -50.00000000 -26.44000053
v -76.44000244 -50.00000000 -23.70000076
v -77.30999756 -50.00000000 -23.70000076
v -77.30999756 150.00000000 -23.70000076
v -76.44000244 150.00000000 -23.70000076
v -73.69999695 150.00000000 -26.44000053
v -73.69999695 150.00000000 -27.30999947
v -73.69999695 -50.00000000 -27.30999947
v -73.69999695 -50.00000000 -26.44000053
v 77.18000031 -50.00000000 -27.50000000
v 72.50000000 -50.00000000 -27.50000000
v 72.50000000 150.00000000 -27.50000000
v 77.18000031 150.00000000 -27.50000000
v 77.50000000 -50.00000000 -27.18000031
v 77.50000000 150.00000000 -27.18000031
v 77.50000000 150.00000000 -22.50000000
v 77.50000000 -50.00000000 -22.50000000
v 77.45912170 -50.00000000 -27.33649254
v 77.45912170 150.00000000 -27.33649254
v 77.50000000 150.00000000 -27.18000031
v 77.50000000 -50.00000000 -27.18000031
v 77.33649445 -50.00000000 -27.45912361
v 77.33649445 150.00000000 -27.45912361
v 77.18000031 -50.00000000 -27.50000000
v 77.18000031 150.00000000 -27.50000000
v 72.50000000 -50.00000000 -27.50000000
v 72.50000000 -50.00000000 -26.44000053
v 72.50000000 150.00000000 -26.44000053
v 72.50000000 150.00000000 -27.50000000
v 77.50000000 150.00000000 -22.50000000
v 76.44000244 150.00000000 -22.50000000
v 76.44000244 -50.00000000 -22.50000000
v 77.50000000 -50.00000000 -22.50000000
v 72.50000000 -50.00000000 -26.44000053
v 73.69999695 -50.00000000 -26.44000053
v 73.69999695 150.00000000 -26.44000053
v 72.50000000 150.00000000 -26.44000053
v 76.44000244 150.00000000 -22.50000000
v 76.44000244 150.00000000 -23.70000076
v 76.44000244 -50.00000000 -23.70000076
v 76.44000244 -50.00000000 -22.50000000
v 73.69999695 -50.00000000 -26.44000053
v 73.69999695 -50.00000000 -27.30999947
v 73.69999695 150.00000000 -27.30999947
v 73.69999695 150.00000000 -26.44000053
v 76.44000244 150.00000000 -23.70000076
v 77.30999756 150.00000000 -23.70000076
v 77.30999756 -50.00000000 -23.70000076
v 76.44000244 -50.00000000 -23.70000076
v -77.18000031 -50.00000000 27.50000000
v -72.50000000 -50.00000000 27.50000000
v -72.50000000 150.00000000 27.50000000
v -77.18000031 150.00000000 27.50000000
v -77.50000000 -50.00000000 27.18000031
v -77.50000000 150.00000000 27.18000031
v -77.50000000 150.00000000 22.50000000
v -77.50000000 -50.00000000 22.50000000
v -77.45912170 -50.00000000 27.33649254
v -77.45912170 150.00000000 27.33649254
v -77.50000000 150.00000000 27.18000031
v -77.50000000 -50.00000000 27.18000031
v -77.33649445 -50.00000000 27.45912361
v -77.33649445 150.00000000 27.45912361
v -77.18000031 -50.00000000 27.50000000
v -77.18000031 150.00000000 27.50000000
v -72.50000000 -50.00000000 27.50000000
v -72.50000000 -50.00000000 26.44000053
v -72.50000000 150.00000000 26.44000053
v -72.50000000 150.00000000 27.50000000
v -77.50000000 150.00000000 22.50000000
v -76.44000244 150.00000000 22.50000000
v -76.44000244 -50.00000000 22.50000000
v -77.50000000 -50.00000000 22.50000000
v -72.50000000 -50.00000000 26.44000053
v -73.69999695 -50.00000000 26.44000053
v -73.69999695 150.00000000 26.44000053
v -72.50000000 150.00000000 26.44000053
v -76.44000244 150.00000000 22.50000000
v -76.44000244 150.00000000 23.70000076
v -76.44000244 -50.00000000 23.70000076
v -76.44000244 -50.00000000 22.50000000
v -73.69999695 -50.00000000 26.44000053
v -73.69999695 -50.00000000 27.30999947
v -73.69999695 150.00000000 27.30999947
v -73.69999695 150.00000000 26.44000053
v -76.44000244 150.00000000 23.70000076
v -77.30999756 150.00000000 23.70000076
v -77.30999756 -50.00000000 23.70000076
v -76.44000244 -50.00000000 23.70000076
v 77.50000000 -50.00000000 27.18000031
v 77.50000000 -50.00000000 22.50000000
v 77.50000000 150.00000000 22.50000000
v 77.50000000 150.00000000 27.18000031
v 77.18000031 -50.00000000 27.50000000
v 77.18000031 150.00000000 27.50000000
v 72.50000000 150.00000000 27.50000000
v 72.50000000 -50.00000000 27.50000000
v 77.33649445 -50.00000000 27.45912361
v 77.33649445 150.00000000 27.45912361
v 77.18000031 150.00000000 27.50000000
v 77.18000031 -50.00000000 27.50000000
v 77.45912170 -50.00000000 27.33649254
v 77.45912170 150.00000000 27.33649254
v 77.50000000 -50.00000000 27.18000031
v 77.50000000 150.00000000 27.18000031
v 77.50000000 -50.00000000 22.50000000
v 76.44000244 -50.00000000 22.50000000
v 76.44000244 150.00000000 22.50000000
v 77.50000000 150.00000000 22.50000000
v 72.50000000 150.00000000 27.50000000
v 72.50000000 150.00000000 26.44000053
v 72.50000000 -50.00000000 26.44000053
v 72.50000000 -50.00000000 27.50000000
v 76.44000244 -50.00000000 22.50000000
v 76.44000244 -50.00000000 23.70000076
v 76.44000244 150.00000000 23.70000076
v 76.44000244 150.00000000 22.50000000
v 72.50000000 150.00000000 26.44000053
v 73.69999695 150.00000000 26.44000053
v 73.69999695 -50.00000000 26.44000053
v 72.50000000 -50.00000000 26.44000053
v 76.44000244 -50.00000000 23.70000076
v 77.30999756 -50.00000000 23.70000076
v 77.30999756 150.00000000 23.70000076
v 76.44000244 150.00000000 23.70000076
v 73.69999695 150.00000000 26.44000053
v 73.69999695 150.00000000 27.30999947
v 73.69999695 -50.00000000 27.30999947
v 73.69999695 -50.00000000 26.44000053
vn -0.77193803 0.44950622 0.44950622
vn -0.44950622 0.44950622 0.77193803
vn -0.44950622 0.77193803 0.44950622
vn 0.44950622 0.77193803 0.44950622
vn 0.44950622 0.44950622 0.77193803
vn 0.77193803 0.44950622 0.44950622
vn 0.44950622 0.77193803 -0.44950622
vn 0.77193803 0.44950622 -0.44950622
vn 0.44950622 0.44950622 -0.77193803
vn -0.44950622 0.77193803 -0.44950622
vn -0.44950622 0.44950622 -0.77193803
vn -0.77193803 0.44950622 -0.44950622
vn -0.77193803 0.44950622 0.44950622
vn -0.44950622 0.44950622 0.77193803
vn -0.44950622 0.77193803 0.44950622
vn 0.44950622 0.77193803 0.44950622
vn 0.44950622 0.44950622 0.77193803
vn 0.77193803 0.44950622 0.44950622
vn 0.44950622 0.77193803 -0.44950622
vn 0.77193803 0.44950622 -0.44950622
vn 0.44950622 0.44950622 -0.77193803
vn -0.44950622 0.77193803 -0.44950622
vn -0.44950622 0.44950622 -0.77193803
vn -0.77193803 0.44950622 -0.44950622
vn -0.77193803 0.44950622 0.44950622
vn -0.44950622 0.44950622 0.77193803
vn -0.44950622 0.77193803 0.44950622
vn 0.44950622 0.77193803 0.44950622
vn 0.44950622 0.44950622 0.77193803
vn 0.77193803 0.44950622 0.44950622
vn 0.44950622 0.77193803 -0.44950622
vn 0.77193803 0.44950622 -0.44950622
vn 0.44950622 0.44950622 -0.77193803
vn -0.44950622 0.77193803 -0.44950622
vn -0.44950622 0.44950622 -0.77193803
vn -0.77193803 0.44950622 -0.44950622
vn -0.77193803 0.44950622 0.44950622
vn -0.44950622 0.44950622 0.77193803
vn -0.44950622 0.77193803 0.44950622
vn 0.44950622 0.77193803 0.44950622
vn 0.44950622 0.44950622 0.77193803
vn 0.77193803 0.44950622 0.44950622
vn 0.44950622 0.77193803 -0.44950622
vn 0.77193803 0.44950622 -0.44950622
vn 0.44950622 0.44950622 -0.77193803
vn -0.44950622 0.77193803 -0.44950622
vn -0.44950622 0.44950622 -0.77193803
vn -0.77193803 0.44950622 -0.44950622
vn -0.77193803 0.44950622 0.44950622
vn -0.44950622 0.44950622 0.77193803
vn -0.44950622 0.77193803 0.44950622
vn 0.44950622 0.77193803 0.44950622
vn 0.44950622 0.44950622 0.77193803
vn 0.77193803 0.44950622 0.44950622
vn 0.44950622 0.77193803 -0.44950622
vn 0.77193803 0.44950622 -0.44950622
vn 0.44950622 0.44950622 -0.77193803
vn -0.44950622 0.77193803 -0.44950622
vn -0.44950622 0.44950622 -0.77193803
vn -0.77193803 0.44950622 -0.44950622
vn -0.00000000 0.00000000 1.00000000
vn -0.00000000 0.00000000 1.00000000
vn -0.00000000 0.00000000 1.00000000
vn -0.00000000 0.00000000 1.00000000
vn 1.00000000 0.00000000 0.00000000
vn 1.00000000 0.00000000 0.00000000
vn 1.00000000 0.00000000 0.00000000
vn 1.00000000 0.00000000 0.00000000
vn 0.00000000 0.00000000 -1.00000000
vn 0.00000000 0.00000000 -1.00000000
vn 0.00000000 0.00000000 -1.00000000
vn 0.00000000 0.00000000 -1.00000000
vn -1.00000000 -0.00000000 -0.00000000
vn -1.00000000 -0.00000000 -0.00000000
vn -1.00000000 -0.00000000 -0.00000000
vn -1.00000000 -0.00000000 -0.00000000
vn 0.00000000 1.00000000 -0.00000000
vn 0.00000000 1.00000000 -0.00000000
vn 0.00000000 1.00000000 -0.00000000
vn 0.00000000 1.00000000 -0.00000000
vn -0.86759710 0.00000000 0.49726784
vn -0.86769003 0.11226553 0.48426294
vn -0.97590047 0.15430206 0.15430206
vn -0.96753824 -0.00000000 0.25272474
vn -0.11226553 0.86769003 0.48426294
vn 0.11226553 0.86769003 0.48426294
vn 0.15430206 0.97590047 0.15430206
vn -0.15430206 0.97590047 0.15430206
vn 0.86769003 0.11226553 0.48426294
vn 0.86759710 0.00000000 0.49726784
vn 0.96753824 0.00000000 0.25272474
vn 0.97590047 0.15430206 0.15430206
vn 0.48426294 0.86769003 0.11226553
vn 0.48426294 0.86769003 -0.11226553
vn 0.15430206 0.97590047 -0.15430206
vn 0.15430206 0.97590047 0.15430206
vn 0.48426294 0.11226553 -0.86769003
vn 0.49726784 0.00000000 -0.86759710
vn 0.25272474 0.00000000 -0.96753824
vn 0.15430206 0.15430206 -0.97590047
vn 0.11226553 0.86769003 -0.48426294
vn -0.11226553 0.86769003 -0.48426294
vn -0.15430206 0.97590047 -0.15430206
vn 0.15430206 0.97590047 -0.15430206
vn -0.86769003 0.11226553 -0.48426294
vn -0.86759710 0.00000000 -0.49726784
vn -0.96753824 0.00000000 -0.25272474
vn -0.97590047 0.15430206 -0.15430206
vn -0.48426294 0.86769003 -0.11226553
vn -0.48426294 0.86769003 0.11226553
vn -0.15430206 0.97590047 0.15430206
vn -0.15430206 0.97590047 -0.15430206
vn -0.11226553 0.86769003 0.48426294
vn -0.11226553 0.48426294 0.86769003
vn -0.48426294 0.11226553 0.86769003
vn -0.86769003 0.48426294 0.11226553
vn -0.15430206 0.15430206 0.97590047
vn 0.48426294 0.11226553 0.86769003
vn 0.11226553 0.48426294 0.86769003
vn 0.11226553 0.86769003 0.48426294
vn 0.86769003 0.48426294 0.11226553
vn 0.15430206 0.15430206 0.97590047
vn 0.86769003 0.11226553 -0.48426294
vn 0.86769003 0.48426294 -0.11226553
vn 0.11226553 0.86769003 -0.48426294
vn 0.11226553 0.48426294 -0.86769003
vn 0.97590047 0.15430206 -0.15430206
vn -0.48426294 0.11226553 -0.86769003
vn -0.11226553 0.48426294 -0.86769003
vn -0.11226553 0.86769003 -0.48426294
vn -0.86769003 0.48426294 -0.11226553
vn -0.15430206 0.15430206 -0.97590047
vn -0.49726784 0.00000000 0.86759710
vn -0.25272474 0.00000000 0.96753824
vn -0.11226553 0.48426294 0.86769003
vn 0.11226553 0.48426294 0.86769003
vn -0.15430206 0.15430206 0.97590047
vn 0.15430206 0.15430206 0.97590047
vn 0.49726784 0.00000000 0.86759710
vn 0.25272474 0.00000000 0.96753824
vn 0.86759710 0.00000000 -0.49726784
vn 0.96753824 0.00000000 -0.25272474
vn 0.11226553 0.48426294 -0.86769003
vn -0.11226553 0.48426294 -0.86769003
vn 0.15430206 0.15430206 -0.97590047
vn -0.15430206 0.15430206 -0.97590047
vn -0.49726784 0.00000000 -0.86759710
vn -0.25272474 0.00000000 -0.96753824
vn -0.00000000 0.00000000 1.00000000
vn -0.00000000 0.00000000 1.00000000
vn -0.00000000 0.00000000 1.00000000
vn -0.00000000 0.00000000 1.00000000
vn 1.00000000 0.00000000 0.00000000
vn 1.00000000 0.00000000 0.00000000
vn 1.00000000 0.00000000 0.00000000
vn 1.00000000 0.00000000 0.00000000
vn 0.00000000 0.00000000 -1.00000000
vn 0.00000000 0.00000000 -1.00000000
vn 0.00000000 0.00000000 -1.00000000
vn 0.00000000 0.00000000 -1.00000000
vn -1.00000000 -0.00000000 -0.00000000
vn -1.00000000 -0.00000000 -0.00000000
vn -1.00000000 -0.00000000 -0.00000000
vn -1.00000000 -0.00000000 -0.00000000
vn 0.00000000 1.00000000 -0.00000000
vn 0.00000000 1.00000000 -0.00000000
vn 0.00000000 1.00000000 -0.00000000
vn 0.00000000 1.00000000 -0.00000000
vn -0.86759710 0.00000000 0.49726784
vn -0.86769003 0.11226553 0.48426294
vn -0.97590047 0.15430206 0.15430206
vn -0.96753824 -0.00000000 0.25272474
vn -0.11226553 0.86769003 0.48426294
vn 0.11226553 0.86769003 0.48426294
vn 0.15430206 0.97590047 0.15430206
vn -0.15430206 0.97590047 0.15430206
vn 0.86769003 0.11226553 0.48426294
vn 0.86759710 0.00000000 0.49726784
vn 0.96753824 0.00000000 0.25272474
vn 0.97590047 0.15430206 0.15430206
vn 0.48426294 0.86769003 0.11226553
vn 0.48426294 0.86769003 -0.11226553
vn 0.15430206 0.97590047 -0.15430206
vn 0.15430206 0.97590047 0.15430206
vn 0.48426294 0.11226553 -0.86769003
vn 0.49726784 0.00000000 -0.86759710
vn 0.25272474 0.00000000 -0.96753824
vn 0.15430206 0.15430206 -0.97590047
vn 0.11226553 0.86769003 -0.48426294
vn -0.11226553 0.86769003 -0.48426294
vn -0.15430206 0.97590047 -0.15430206
vn 0.15430206 0.97590047 -0.15430206
vn -0.86769003 0.11226553 -0.48426294
vn -0.86759710 0.00000000 -0.49726784
vn -0.96753824 0.00000000 -0.25272474
vn -0.97590047 0.15430206 -0.15430206
vn -0.48426294 0.86769003 -0.11226553
vn -0.48426294 0.86769003 0.11226553
vn -0.15430206 0.97590047 0.15430206
vn -0.15430206 0.97590047 -0.15430206
vn -0.11226553 0.86769003 0.48426294
vn -0.11226553 0.48426294 0.86769003
vn -0.48426294 0.11226553 0.86769003
vn -0.86769003 0.48426294 0.11226553
vn -0.15430206 0.15430206 0.97590047
vn 0.48426294 0.11226553 0.86769003
vn 0.11226553 0.48426294 0.86769003
vn 0.11226553 0.86769003 0.48426294
vn 0.86769003 0.48426294 0.11226553
vn 0.15430206 0.15430206 0.97590047
vn 0.86769003 0.11226553 -0.48426294
vn 0.86769003 0.48426294 -0.11226553
vn 0.11226553 0.86769003 -0.48426294
vn 0.11226553 0.48426294 -0.86769003
vn 0.97590047 0.15430206 -0.15430206
vn -0.48426294 0.11226553 -0.86769003
vn -0.11226553 0.48426294 -0.86769003
vn -0.11226553 0.86769003 -0.48426294
vn -0.86769003 0.48426294 -0.11226553
vn -0.15430206 0.15430206 -0.97590047
vn -0.49726784 0.00000000 0.86759710
vn -0.25272474 0.00000000 0.96753824
vn -0.11226553 0.48426294 0.86769003
vn 0.11226553 0.48426294 0.86769003
vn -0.15430206 0.15430206 0.97590047
vn 0.15430206 0.15430206 0.97590047
vn 0.49726784 0.00000000 0.86759710
vn 0.25272474 0.00000000 0.96753824
vn 0.86759710 0.00000000 -0.49726784
vn 0.96753824 0.00000000 -0.25272474
vn 0.11226553 0.48426294 -0.86769003
vn -0.11226553 0.48426294 -0.86769003
vn 0.15430206 0.15430206 -0.97590047
vn -0.15430206 0.15430206 -0.97590047
vn -0.49726784 0.00000000 -0.86759710
vn -0.25272474 0.00000000 -0.96753824
vn -0.00000000 0.00000000 1.00000000
vn -0.00000000 0.00000000 1.00000000
vn -0.00000000 0.00000000 1.00000000
vn -0.00000000 0.00000000 1.00000000
vn 1.00000000 0.00000000 0.00000000
vn 1.00000000 0.00000000 0.00000000
vn 1.00000000 0.00000000 0.00000000
vn 1.00000000 0.00000000 0.00000000
vn 0.00000000 0.00000000 -1.00000000
vn 0.00000000 0.00000000 -1.00000000
vn 0.00000000 0.00000000 -1.00000000
vn 0.00000000 0.00000000 -1.00000000
vn -1.00000000 -0.00000000 -0.00000000
vn -1.00000000 -0.00000000 -0.00000000
vn -1.00000000 -0.00000000 -0.00000000
vn -1.00000000 -0.00000000 -0.00000000
vn 0.00000000 1.00000000 -0.00000000
vn 0.00000000 1.00000000 -0.00000000
vn 0.00000000 1.00000000 -0.00000000
vn 0.00000000 1.00000000 -0.00000000
vn -0.86759710 0.00000000 0.49726784
vn -0.86769003 0.11226553 0.48426294
vn -0.97590047 0.15430206 0.15430206
vn -0.96753824 -0.00000000 0.25272474
vn -0.11226553 0.86769003 0.48426294
vn 0.11226553 0.86769003 0.48426294
vn 0.15430206 0.97590047 0.15430206
vn -0.15430206 0.97590047 0.15430206
vn 0.86769003 0.11226553 0.48426294
vn 0.86759710 0.00000000 0.49726784
vn 0.96753824 0.00000000 0.25272474
vn 0.97590047 0.15430206 0.15430206
vn 0.48426294 0.86769003 0.11226553
vn 0.48426294 0.86769003 -0.11226553
vn 0.15430206 0.97590047 -0.15430206
vn 0.15430206 0.97590047 0.15430206
vn 0.48426294 0.11226553 -0.86769003
vn 0.49726784 0.00000000 -0.86759710
vn 0.25272474 0.00000000 -0.96753824
vn 0.15430206 0.15430206 -0.97590047
vn 0.11226553 0.86769003 -0.48426294
vn -0.11226553 0.86769003 -0.48426294
vn -0.15430206 0.97590047 -0.15430206
vn 0.15430206 0.97590047 -0.15430206
vn -0.86769003 0.11226553 -0.48426294
vn -0.86759710 0.00000000 -0.49726784
vn -0.96753824 0.00000000 -0.25272474
vn -0.97590047 0.15430206 -0.15430206
vn -0.48426294 0.86769003 -0.11226553
vn -0.48426294 0.86769003 0.11226553
vn -0.15430206 0.97590047 0.15430206
vn -0.15430206 0.97590047 -0.15430206
vn -0.11226553 0.86769003 0.48426294
vn -0.11226553 0.48426294 0.86769003
vn -0.48426294 0.11226553 0.86769003
vn -0.86769003 0.48426294 0.11226553
vn -0.15430206 0.15430206 0.97590047
vn 0.48426294 0.11226553 0.86769003
vn 0.11226553 0.48426294 0.86769003
vn 0.11226553 0.86769003 0.48426294
vn 0.86769003 0.48426294 0.11226553
vn 0.15430206 0.15430206 0.97590047
vn 0.86769003 0.11226553 -0.48426294
vn 0.86769003 0.48426294 -0.11226553
vn 0.11226553 0.86769003 -0.48426294
vn 0.11226553 0.48426294 -0.86769003
vn 0.97590047 0.15430206 -0.15430206
vn -0.48426294 0.11226553 -0.86769003
vn -0.11226553 0.48426294 -0.86769003
vn -0.11226553 0.86769003 -0.48426294
vn -0.86769003 0.48426294 -0.11226553
vn -0.15430206 0.15430206 -0.97590047
vn -0.49726784 0.00000000 0.86759710
vn -0.25272474 0.00000000 0.96753824
vn -0.11226553 0.48426294 0.86769003
vn 0.11226553 0.48426294 0.86769003
vn -0.15430206 0.15430206 0.97590047
vn 0.15430206 0.15430206 0.97590047
vn 0.49726784 0.00000000 0.86759710
vn 0.25272474 0.00000000 0.96753824
vn 0.86759710 0.00000000 -0.49726784
vn 0.96753824 0.00000000 -0.25272474
vn 0.11226553 0.48426294 -0.86769003
vn -0.11226553 0.48426294 -0.86769003
vn 0.15430206 0.15430206 -0.97590047
vn -0.15430206 0.15430206 -0.97590047
vn -0.49726784 0.00000000 -0.86759710
vn -0.25272474 0.00000000 -0.96753824
vn -0.00000000 0.00000000 1.00000000
vn -0.00000000 0.00000000 1.00000000
vn -0.00000000 0.00000000 1.00000000
vn -0.00000000 0.00000000 1.00000000
vn 1.00000000 0.00000000 0.00000000
vn 1.00000000 0.00000000 0.00000000
vn 1.00000000 0.00000000 0.00000000
vn 1.00000000 0.00000000 0.00000000
vn 0.00000000 0.00000000 -1.00000000
vn 0.00000000 0.00000000 -1.00000000
vn 0.00000000 0.00000000 -1.00000000
vn 0.00000000 0.00000000 -1.00000000
vn -1.00000000 -0.00000000 -0.00000000
vn -1.00000000 -0.00000000 -0.00000000
vn -1.00000000 -0.00000000 -0.00000000
vn -1.00000000 -0.00000000 -0.00000000
vn 0.00000000 1.00000000 -0.00000000
vn 0.00000000 1.00000000 -0.00000000
vn 0.00000000 1.00000000 -0.00000000
vn 0.00000000 1.00000000 -0.00000000
vn -0.86759710 0.00000000 0.49726784
vn -0.86769003 0.11226553 0.48426294
vn -0.97590047 0.15430206 0.15430206
vn -0.96753824 -0.00000000 0.25272474
vn -0.11226553 0.86769003 0.48426294
vn 0.11226553 0.86769003 0.48426294
vn 0.15430206 0.97590047 0.15430206
vn -0.15430206 0.97590047 0.15430206
vn 0.86769003 0.11226553 0.48426294
vn 0.86759710 0.00000000 0.49726784
vn 0.96753824 0.00000000 0.25272474
vn 0.97590047 0.15430206 0.15430206
vn 0.48426294 0.86769003 0.11226553
vn 0.48426294 0.86769003 -0.11226553
vn 0.15430206 0.97590047 -0.15430206
vn 0.15430206 0.97590047 0.15430206
vn 0.48426294 0.11226553 -0.86769003
vn 0.49726784 0.00000000 -0.86759710
vn 0.25272474 0.00000000 -0.96753824
vn 0.15430206 0.15430206 -0.97590047
vn 0.11226553 0.86769003 -0.48426294
vn -0.11226553 0.86769003 -0.48426294
vn -0.15430206 0.97590047 -0.15430206
vn 0.15430206 0.97590047 -0.15430206
vn -0.86769003 0.11226553 -0.48426294
vn -0.86759710 0.00000000 -0.49726784
vn -0.96753824 0.00000000 -0.25272474
vn -0.97590047 0.15430206 -0.15430206
vn -0.48426294 0.86769003 -0.11226553
vn -0.48426294 0.86769003 0.11226553
vn -0.15430206 0.97590047 0.15430206
vn -0.15430206 0.97590047 -0.15430206
vn -0.11226553 0.86769003 0.48426294
vn -0.11226553 0.48426294 0.86769003
vn -0.48426294 0.11226553 0.86769003
vn -0.86769003 0.48426294 0.11226553
vn -0.15430206 0.15430206 0.97590047
vn 0.48426294 0.11226553 0.86769003
vn 0.11226553 0.48426294 0.86769003
vn 0.11226553 0.86769003 0.48426294
vn 0.86769003 0.48426294 0.11226553
vn 0.15430206 0.15430206 0.97590047
vn 0.86769003 0.11226553 -0.48426294
vn 0.86769003 0.48426294 -0.11226553
vn 0.11226553 0.86769003 -0.48426294
vn 0.11226553 0.48426294 -0.86769003
vn 0.97590047 0.15430206 -0.15430206
vn -0.48426294 0.11226553 -0.86769003
vn -0.11226553 0.48426294 -0.86769003
vn -0.11226553 0.86769003 -0.48426294
vn -0.86769003 0.48426294 -0.11226553
vn -0.15430206 0.15430206 -0.97590047
vn -0.49726784 0.00000000 0.86759710
vn -0.25272474 0.00000000 0.96753824
vn -0.11226553 0.48426294 0.86769003
vn 0.11226553 0.48426294 0.86769003
vn -0.15430206 0.15430206 0.97590047
vn 0.15430206 0.15430206 0.97590047
vn 0.49726784 0.00000000 0.86759710
vn 0.25272474 0.00000000 0.96753824
vn 0.86759710 0.00000000 -0.49726784
vn 0.96753824 0.00000000 -0.25272474
vn 0.11226553 0.48426294 -0.86769003
vn -0.11226553 0.48426294 -0.86769003
vn 0.15430206 0.15430206 -0.97590047
vn -0.15430206 0.15430206 -0.97590047
vn -0.49726784 0.00000000 -0.86759710
vn -0.25272474 0.00000000 -0.96753824
vn -0.00000000 0.00000000 1.00000000
vn -0.00000000 0.00000000 1.00000000
vn -0.00000000 0.00000000 1.00000000
vn -0.00000000 0.00000000 1.00000000
vn 1.00000000 0.00000000 0.00000000
vn 1.00000000 0.00000000 0.00000000
vn 1.00000000 0.00000000 0.00000000
vn 1.00000000 0.00000000 0.00000000
vn 0.00000000 0.00000000 -1.00000000
vn 0.00000000 0.00000000 -1.00000000
vn 0.00000000 0.00000000 -1.00000000
vn 0.00000000 0.00000000 -1.00000000
vn -1.00000000 -0.00000000 -0.00000000
vn -1.00000000 -0.00000000 -0.00000000
vn -1.00000000 -0.00000000 -0.00000000
vn -1.00000000 -0.00000000 -0.00000000
vn 0.00000000 1.00000000 -0.00000000
vn 0.00000000 1.00000000 -0.00000000
vn 0.00000000 1.00000000 -0.00000000
vn 0.00000000 1.00000000 -0.00000000
vn -0.86759710 0.00000000 0.49726784
vn -0.86769003 0.11226553 0.48426294
vn -0.97590047 0.15430206 0.15430206
vn -0.96753824 -0.00000000 0.25272474
vn -0.11226553 0.86769003 0.48426294
vn 0.11226553 0.86769003 0.48426294
vn 0.15430206 0.97590047 0.15430206
vn -0.15430206 0.97590047 0.15430206
vn 0.86769003 0.11226553 0.48426294
vn 0.86759710 0.00000000 0.49726784
vn 0.96753824 0.00000000 0.25272474
vn 0.97590047 0.15430206 0.15430206
vn 0.48426294 0.86769003 0.11226553
vn 0.48426294 0.86769003 -0.11226553
vn 0.15430206 0.97590047 -0.15430206
vn 0.15430206 0.97590047 0.15430206
vn 0.48426294 0.11226553 -0.86769003
vn 0.49726784 0.00000000 -0.86759710
vn 0.25272474 0.00000000 -0.96753824
vn 0.15430206 0.15430206 -0.97590047
vn 0.11226553 0.86769003 -0.48426294
vn -0.11226553 0.86769003 -0.48426294
vn -0.15430206 0.97590047 -0.15430206
vn 0.15430206 0.97590047 -0.15430206
vn -0.86769003 0.11226553 -0.48426294
vn -0.86759710 0.00000000 -0.49726784
vn -0.96753824 0.00000000 -0.25272474
vn -0.97590047 0.15430206 -0.15430206
vn -0.48426294 0.86769003 -0.11226553
vn -0.48426294 0.86769003 0.11226553
vn -0.15430206 0.97590047 0.15430206
vn -0.15430206 0.97590047 -0.15430206
vn -0.11226553 0.86769003 0.48426294
vn -0.11226553 0.48426294 0.86769003
vn -0.48426294 0.11226553 0.86769003
vn -0.86769003 0.48426294 0.11226553
vn -0.15430206 0.15430206 0.97590047
vn 0.48426294 0.11226553 0.86769003
vn 0.11226553 0.48426294 0.86769003
vn 0.11226553 0.86769003 0.48426294
vn 0.86769003 0.48426294 0.11226553
vn 0.15430206 0.15430206 0.97590047
vn 0.86769003 0.11226553 -0.48426294
vn 0.86769003 0.48426294 -0.11226553
vn 0.11226553 0.86769003 -0.48426294
vn 0.11226553 0.48426294 -0.86769003
vn 0.97590047 0.15430206 -0.15430206
vn -0.48426294 0.11226553 -0.86769003
vn -0.11226553 0.48426294 -0.86769003
vn -0.11226553 0.86769003 -0.48426294
vn -0.86769003 0.48426294 -0.11226553
vn -0.15430206 0.15430206 -0.97590047
vn -0.49726784 0.00000000 0.86759710
vn -0.25272474 0.00000000 0.96753824
vn -0.11226553 0.48426294 0.86769003
vn 0.11226553 0.48426294 0.86769003
vn -0.15430206 0.15430206 0.97590047
vn 0.15430206 0.15430206 0.97590047
vn 0.49726784 0.00000000 0.86759710
vn 0.25272474 0.00000000 0.96753824
vn 0.86759710 0.00000000 -0.49726784
vn 0.96753824 0.00000000 -0.25272474
vn 0.11226553 0.48426294 -0.86769003
vn -0.11226553 0.48426294 -0.86769003
vn 0.15430206 0.15430206 -0.97590047
vn -0.15430206 0.15430206 -0.97590047
vn -0.49726784 0.00000000 -0.86759710
vn -0.25272474 0.00000000 -0.96753824
vn -1.00000000 0.00000000 -0.00000000
vn -1.00000000 0.00000000 -0.00000000
vn -1.00000000 0.00000000 -0.00000000
vn -1.00000000 0.00000000 -0.00000000
vn 0.00000000 0.00000000 -1.00000000
vn 0.00000000 0.00000000 -1.00000000
vn 0.00000000 0.00000000 -1.00000000
vn 0.00000000 0.00000000 -1.00000000
vn -0.49726784 0.00000000 -0.86759710
vn -0.49726784 0.00000000 -0.86759710
vn -0.25272474 0.00000000 -0.96753824
vn -0.25272474 0.00000000 -0.96753824
vn -0.86759710 0.00000000 -0.49726784
vn -0.86759710 0.00000000 -0.49726784
vn -0.96753824 0.00000000 -0.25272474
vn -0.96753824 0.00000000 -0.25272474
vn 0.00000000 0.00000000 1.00000000
vn 0.00000000 0.00000000 1.00000000
vn 0.00000000 0.00000000 1.00000000
vn 0.00000000 0.00000000 1.00000000
vn 1.00000000 0.00000000 -0.00000000
vn 1.00000000 0.00000000 -0.00000000
vn 1.00000000 0.00000000 -0.00000000
vn 1.00000000 0.00000000 -0.00000000
vn 1.00000000 0.00000000 -0.00000000
vn 1.00000000 0.00000000 -0.00000000
vn 1.00000000 0.00000000 -0.00000000
vn 1.00000000 0.00000000 -0.00000000
vn 0.00000000 0.00000000 1.00000000
vn 0.00000000 0.00000000 1.00000000
vn 0.00000000 0.00000000 1.00000000
vn 0.00000000 0.00000000 1.00000000
vn 0.00000000 0.00000000 -1.00000000
vn 0.00000000 0.00000000 -1.00000000
vn 0.00000000 0.00000000 -1.00000000
vn 0.00000000 0.00000000 -1.00000000
vn -1.00000000 0.00000000 -0.00000000
vn -1.00000000 0.00000000 -0.00000000
vn -1.00000000 0.00000000 -0.00000000
vn -1.00000000 0.00000000 -0.00000000
vn 0.00000000 0.00000000 -1.00000000
vn 0.00000000 0.00000000 -1.00000000
vn 0.00000000 0.00000000 -1.00000000
vn 0.00000000 0.00000000 -1.00000000
vn 1.00000000 0.00000000 -0.00000000
vn 1.00000000 0.00000000 -0.00000000
vn 1.00000000 0.00000000 -0.00000000
vn 1.00000000 0.00000000 -0.00000000
vn 0.86759710 0.00000000 -0.49726784
vn 0.86759710 0.00000000 -0.49726784
vn 0.96753824 0.00000000 -0.25272474
vn 0.96753824 0.00000000 -0.25272474
vn 0.49726784 0.00000000 -0.86759710
vn 0.49726784 0.00000000 -0.86759710
vn 0.25272474 0.00000000 -0.96753824
vn 0.25272474 0.00000000 -0.96753824
vn -1.00000000 0.00000000 -0.00000000
vn -1.00000000 0.00000000 -0.00000000
vn -1.00000000 0.00000000 -0.00000000
vn -1.00000000 0.00000000 -0.00000000
vn 0.00000000 0.00000000 1.00000000
vn 0.00000000 0.00000000 1.00000000
vn 0.00000000 0.00000000 1.00000000
vn 0.00000000 0.00000000 1.00000000
vn 0.00000000 0.00000000 1.00000000
vn 0.00000000 0.00000000 1.00000000
vn 0.00000000 0.00000000 1.00000000
vn 0.00000000 0.00000000 1.00000000
vn -1.00000000 0.00000000 -0.00000000
vn -1.00000000 0.00000000 -0.00000000
vn -1.00000000 0.00000000 -0.00000000
vn -1.00000000 0.00000000 -0.00000000
vn 1.00000000 0.00000000 -0.00000000
vn 1.00000000 0.00000000 -0.00000000
vn 1.00000000 0.00000000 -0.00000000
vn 1.00000000 0.00000000 -0.00000000
vn 0.00000000 0.00000000 -1.00000000
vn 0.00000000 0.00000000 -1.00000000
vn 0.00000000 0.00000000 -1.00000000
vn 0.00000000 0.00000000 -1.00000000
vn 0.00000000 0.00000000 1.00000000
vn 0.00000000 0.00000000 1.00000000
vn 0.00000000 0.00000000 1.00000000
vn 0.00000000 0.00000000 1.00000000
vn -1.00000000 0.00000000 -0.00000000
vn -1.00000000 0.00000000 -0.00000000
vn -1.00000000 0.00000000 -0.00000000
vn -1.00000000 0.00000000 -0.00000000
vn -0.86759710 0.00000000 0.49726784
vn -0.86759710 0.00000000 0.49726784
vn -0.96753824 0.00000000 0.25272474
vn -0.96753824 0.00000000 0.25272474
vn -0.49726784 0.00000000 0.86759710
vn -0.49726784 0.00000000 0.86759710
vn -0.25272474 0.00000000 0.96753824
vn -0.25272474 0.00000000 0.96753824
vn 1.00000000 0.00000000 -0.00000000
vn 1.00000000 0.00000000 -0.00000000
vn 1.00000000 0.00000000 -0.00000000
vn 1.00000000 0.00000000 -0.00000000
vn 0.00000000 0.00000000 -1.00000000
vn 0.00000000 0.00000000 -1.00000000
vn 0.00000000 0.00000000 -1.00000000
vn 0.00000000 0.00000000 -1.00000000
vn 0.00000000 0.00000000 -1.00000000
vn 0.00000000 0.00000000 -1.00000000
vn 0.00000000 0.00000000 -1.00000000
vn 0.00000000 0.00000000 -1.00000000
vn 1.00000000 0.00000000 -0.00000000
vn 1.00000000 0.00000000 -0.00000000
vn 1.00000000 0.00000000 -0.00000000
vn 1.00000000 0.00000000 -0.00000000
vn -1.00000000 0.00000000 -0.00000000
vn -1.00000000 0.00000000 -0.00000000
vn -1.00000000 0.00000000 -0.00000000
vn -1.00000000 0.00000000 -0.00000000
vn 0.00000000 0.00000000 1.00000000
vn 0.00000000 0.00000000 1.00000000
vn 0.00000000 0.00000000 1.00000000
vn 0.00000000 0.00000000 1.00000000
vn 1.00000000 0.00000000 -0.00000000
vn 1.00000000 0.00000000 -0.00000000
vn 1.00000000 0.00000000 -0.00000000
vn 1.00000000 0.00000000 -0.00000000
vn 0.00000000 0.00000000 1.00000000
vn 0.00000000 0.00000000 1.00000000
vn 0.00000000 0.00000000 1.00000000
vn 0.00000000 0.00000000 1.00000000
vn 0.49726784 0.00000000 0.86759710
vn 0.49726784 0.00000000 0.86759710
vn 0.25272474 0.00000000 0.96753824
vn 0.25272474 0.00000000 0.96753824
vn 0.86759710 0.00000000 0.49726784
vn 0.86759710 0.00000000 0.49726784
vn 0.96753824 0.00000000 0.25272474
vn 0.96753824 0.00000000 0.25272474
vn 0.00000000 0.00000000 -1.00000000
vn 0.00000000 0.00000000 -1.00000000
vn 0.00000000 0.00000000 -1.00000000
vn 0.00000000 0.00000000 -1.00000000
vn -1.00000000 0.00000000 -0.00000000
vn -1.00000000 0.00000000 -0.00000000
vn -1.00000000 0.00000000 -0.00000000
vn -1.00000000 0.00000000 -0.00000000
vn -1.00000000 0.00000000 -0.00000000
vn -1.00000000 0.00000000 -0.00000000
vn -1.00000000 0.00000000 -0.00000000
vn -1.00000000 0.00000000 -0.00000000
vn 0.00000000 0.00000000 -1.00000000
vn 0.00000000 0.00000000 -1.00000000
vn 0.00000000 0.00000000 -1.00000000
vn 0.00000000 0.00000000 -1.00000000
vn -0.00000000 0.00000000 1.00000000
vn -0.00000000 0.00000000 1.00000000
vn -0.00000000 0.00000000 1.00000000
vn -0.00000000 0.00000000 1.00000000
vn 1.00000000 0.00000000 -0.00000000
vn 1.00000000 0.00000000 -0.00000000
vn 1.00000000 0.00000000 -0.00000000
vn 1.00000000 0.00000000 -0.00000000
vt 0.03217399 0.11508203
vt 0.02041993 0.11885703
vt 0.02952286 0.13221514
vt 0.96198642 0.71043384
vt 0.97130132 0.69645476
vt 0.95908755 0.69255078
vt 0.02432466 0.70871711
vt 0.02695729 0.69155264
vt 0.01515293 0.69536436
vt 0.96726716 0.13403988
vt 0.97658354 0.12003767
vt 0.96436852 0.11612666
vt 0.03217399 0.11508203
vt 0.02041993 0.11885703
vt 0.02952286 0.13221514
vt 0.96198642 0.71043384
vt 0.97130132 0.69645476
vt 0.95908755 0.69255078
vt 0.02432466 0.70871711
vt 0.02695729 0.69155264
vt 0.01515293 0.69536436
vt 0.96726716 0.13403988
vt 0.97658354 0.12003767
vt 0.96436852 0.11612666
vt 0.03217399 0.11508203
vt 0.02041993 0.11885703
vt 0.02952286 0.13221514
vt 0.96198642 0.71043384
vt 0.97130132 0.69645476
vt 0.95908755 0.69255078
vt 0.02432466 0.70871711
vt 0.02695729 0.69155264
vt 0.01515293 0.69536436
vt 0.96726716 0.13403988
vt 0.97658354 0.12003767
vt 0.96436852 0.11612666
vt 0.03217399 0.11508203
vt 0.02041993 0.11885703
vt 0.02952286 0.13221514
vt 0.96198642 0.71043384
vt 0.97130132 0.69645476
vt 0.95908755 0.69255078
vt 0.02432466 0.70871711
vt 0.02695729 0.69155264
vt 0.01515293 0.69536436
vt 0.96726716 0.13403988
vt 0.97658354 0.12003767
vt 0.96436852 0.11612666
vt 0.03217399 0.11508203
vt 0.02041993 0.11885703
vt 0.02952286 0.13221514
vt 0.96198642 0.71043384
vt 0.97130132 0.69645476
vt 0.95908755 0.69255078
vt 0.02432466 0.70871711
vt 0.02695729 0.69155264
vt 0.01515293 0.69536436
vt 0.96726716 0.13403988
vt 0.97658354 0.12003767
vt 0.96436852 0.11612666
vt 0.00330256 0.57611775
vt 0.98885423 0.57611775
vt 0.98885423 0.54957652
vt 0.00330256 0.54957652
vt 0.95071822 0.57794809
vt 0.03495939 0.57794809
vt 0.03495939 0.67957687
vt 0.95071822 0.67957687
vt 0.98885423 0.15444887
vt 0.00330256 0.15444887
vt 0.00330256 0.18099016
vt 0.98885423 0.18099016
vt 0.95599872 0.00133783
vt 0.04018141 0.00133783
vt 0.04018141 0.10313070
vt 0.95599872 0.10313070
vt 0.98885423 0.53754234
vt 0.98885423 0.19302440
vt 0.00330256 0.19302440
vt 0.00330256 0.53754234
vt 0.02925061 0.00129551
vt 0.03019453 0.10387534
vt 0.04018141 0.10313070
vt 0.04018141 0.00133783
vt 0.00330256 0.54145944
vt 0.98885423 0.54145944
vt 0.98885423 0.53754234
vt 0.00330256 0.53754234
vt 0.96112037 0.68076634
vt 0.96175998 0.57768404
vt 0.95071822 0.57794809
vt 0.95071822 0.67957687
vt 0.95303851 0.71266556
vt 0.03330963 0.71025658
vt 0.03010589 0.72831285
vt 0.95616806 0.72924531
vt 0.01406655 0.68286419
vt 0.01220330 0.57793319
vt 0.00107310 0.57824183
vt 0.00252499 0.68688047
vt 0.98885423 0.18910730
vt 0.00330256 0.18910730
vt 0.00330256 0.19302440
vt 0.98885423 0.19302440
vt 0.96640182 0.10432273
vt 0.96704143 0.00107312
vt 0.95599872 0.00133783
vt 0.95599872 0.10313070
vt 0.95831805 0.13627476
vt 0.03848615 0.13379538
vt 0.03524518 0.15184951
vt 0.96144754 0.15288275
vt 0.02279530 0.14268851
vt 0.01287622 0.12802374
vt 0.01932791 0.10645181
vt 0.04001354 0.11765969
vt 0.00799089 0.11036122
vt 0.97247863 0.68352425
vt 0.97881317 0.70569885
vt 0.96881890 0.72129941
vt 0.95086074 0.69560444
vt 0.98414767 0.68775380
vt 0.02497442 0.68033552
vt 0.03481419 0.69410861
vt 0.01761233 0.71926093
vt 0.00757648 0.70465374
vt 0.03495939 0.67957687
vt 0.97776115 0.10708570
vt 0.98409629 0.12929738
vt 0.97410053 0.14492404
vt 0.95614058 0.11918485
vt 0.98943132 0.11132246
vt 0.01743010 0.00136679
vt 0.00635635 0.00163245
vt 0.00330256 0.54565942
vt 0.98885423 0.54565942
vt 0.00330256 0.54957652
vt 0.98885423 0.54957652
vt 0.97372091 0.57775462
vt 0.98497248 0.57792997
vt 0.02402241 0.57783031
vt 0.03495939 0.57794809
vt 0.98885423 0.18490720
vt 0.00330256 0.18490720
vt 0.98885423 0.18099016
vt 0.00330256 0.18099016
vt 0.97900325 0.00114375
vt 0.99025577 0.00131935
vt 0.00330256 0.57611775
vt 0.98885423 0.57611775
vt 0.98885423 0.54957652
vt 0.00330256 0.54957652
vt 0.95071822 0.57794809
vt 0.03495939 0.57794809
vt 0.03495939 0.67957687
vt 0.95071822 0.67957687
vt 0.98885423 0.15444887
vt 0.00330256 0.15444887
vt 0.00330256 0.18099016
vt 0.98885423 0.18099016
vt 0.95599872 0.00133783
vt 0.04018141 0.00133783
vt 0.04018141 0.10313070
vt 0.95599872 0.10313070
vt 0.98885423 0.53754234
vt 0.98885423 0.19302440
vt 0.00330256 0.19302440
vt 0.00330256 0.53754234
vt 0.02925061 0.00129551
vt 0.03019453 0.10387534
vt 0.04018141 0.10313070
vt 0.04018141 0.00133783
vt 0.00330256 0.54145944
vt 0.98885423 0.54145944
vt 0.98885423 0.53754234
vt 0.00330256 0.53754234
vt 0.96112037 0.68076634
vt 0.96175998 0.57768404
vt 0.95071822 0.57794809
vt 0.95071822 0.67957687
vt 0.95303851 0.71266556
vt 0.03330963 0.71025658
vt 0.03010589 0.72831285
vt 0.95616806 0.72924531
vt 0.01406655 0.68286419
vt 0.01220330 0.57793319
vt 0.00107310 0.57824183
vt 0.00252499 0.68688047
vt 0.98885423 0.18910730
vt 0.00330256 0.18910730
vt 0.00330256 0.19302440
vt 0.98885423 0.19302440
vt 0.96640182 0.10432273
vt 0.96704143 0.00107312
vt 0.95599872 0.00133783
vt 0.95599872 0.10313070
vt 0.95831805 0.13627476
vt 0.03848615 0.13379538
vt 0.03524518 0.15184951
vt 0.96144754 0.15288275
vt 0.02279530 0.14268851
vt 0.01287622 0.12802374
vt 0.01932791 0.10645181
vt 0.04001354 0.11765969
vt 0.00799089 0.11036122
vt 0.97247863 0.68352425
vt 0.97881317 0.70569885
vt 0.96881890 0.72129941
vt 0.95086074 0.69560444
vt 0.98414767 0.68775380
vt 0.02497442 0.68033552
vt 0.03481419 0.69410861
vt 0.01761233 0.71926093
vt 0.00757648 0.70465374
vt 0.03495939 0.67957687
vt 0.97776115 0.10708570
vt 0.98409629 0.12929738
vt 0.97410053 0.14492404
vt 0.95614058 0.11918485
vt 0.98943132 0.11132246
vt 0.01743010 0.00136679
vt 0.00635635 0.00163245
vt 0.00330256 0.54565942
vt 0.98885423 0.54565942
vt 0.00330256 0.54957652
vt 0.98885423 0.54957652
vt 0.97372091 0.57775462
vt 0.98497248 0.57792997
vt 0.02402241 0.57783031
vt 0.03495939 0.57794809
vt 0.98885423 0.18490720
vt 0.00330256 0.18490720
vt 0.98885423 0.18099016
vt 0.00330256 0.18099016
vt 0.97900325 0.00114375
vt 0.99025577 0.00131935
vt 0.00330256 0.57611775
vt 0.98885423 0.57611775
vt 0.98885423 0.54957652
vt 0.00330256 0.54957652
vt 0.95071822 0.57794809
vt 0.03495939 0.57794809
vt 0.03495939 0.67957687
vt 0.95071822 0.67957687
vt 0.98885423 0.15444887
vt 0.00330256 0.15444887
vt 0.00330256 0.18099016
vt 0.98885423 0.18099016
vt 0.95599872 0.00133783
vt 0.04018141 0.00133783
vt 0.04018141 0.10313070
vt 0.95599872 0.10313070
vt 0.98885423 0.53754234
vt 0.98885423 0.19302440
vt 0.00330256 0.19302440
vt 0.00330256 0.53754234
vt 0.02925061 0.00129551
vt 0.03019453 0.10387534
vt 0.04018141 0.10313070
vt 0.04018141 0.00133783
vt 0.00330256 0.54145944
vt 0.98885423 0.54145944
vt 0.98885423 0.53754234
vt 0.00330256 0.53754234
vt 0.96112037 0.68076634
vt 0.96175998 0.57768404
vt 0.95071822 0.57794809
vt 0.95071822 0.67957687
vt 0.95303851 0.71266556
vt 0.03330963 0.71025658
vt 0.03010589 0.72831285
vt 0.95616806 0.72924531
vt 0.01406655 0.68286419
vt 0.01220330 0.57793319
vt 0.00107310 0.57824183
vt 0.00252499 0.68688047
vt 0.98885423 0.18910730
vt 0.00330256 0.18910730
vt 0.00330256 0.19302440
vt 0.98885423 0.19302440
vt 0.96640182 0.10432273
vt 0.96704143 0.00107312
vt 0.95599872 0.00133783
vt 0.95599872 0.10313070
vt 0.95831805 0.13627476
vt 0.03848615 0.13379538
vt 0.03524518 0.15184951
vt 0.96144754 0.15288275
vt 0.02279530 0.14268851
vt 0.01287622 0.12802374
vt 0.01932791 0.10645181
vt 0.04001354 0.11765969
vt 0.00799089 0.11036122
vt 0.97247863 0.68352425
vt 0.97881317 0.70569885
vt 0.96881890 0.72129941
vt 0.95086074 0.69560444
vt 0.98414767 0.68775380
vt 0.02497442 0.68033552
vt 0.03481419 0.69410861
vt 0.01761233 0.71926093
vt 0.00757648 0.70465374
vt 0.03495939 0.67957687
vt 0.97776115 0.10708570
vt 0.98409629 0.12929738
vt 0.97410053 0.14492404
vt 0.95614058 0.11918485
vt 0.98943132 0.11132246
vt 0.01743010 0.00136679
vt 0.00635635 0.00163245
vt 0.00330256 0.54565942
vt 0.98885423 0.54565942
vt 0.00330256 0.54957652
vt 0.98885423 0.54957652
vt 0.97372091 0.57775462
vt 0.98497248 0.57792997
vt 0.02402241 0.57783031
vt 0.03495939 0.57794809
vt 0.98885423 0.18490720
vt 0.00330256 0.18490720
vt 0.98885423 0.18099016
vt 0.00330256 0.18099016
vt 0.97900325 0.00114375
vt 0.99025577 0.00131935
vt 0.00330256 0.57611775
vt 0.98885423 0.57611775
vt 0.98885423 0.54957652
vt 0.00330256 0.54957652
vt 0.95071822 0.57794809
vt 0.03495939 0.57794809
vt 0.03495939 0.67957687
vt 0.95071822 0.67957687
vt 0.98885423 0.15444887
vt 0.00330256 0.15444887
vt 0.00330256 0.18099016
vt 0.98885423 0.18099016
vt 0.95599872 0.00133783
vt 0.04018141 0.00133783
vt 0.04018141 0.10313070
vt 0.95599872 0.10313070
vt 0.98885423 0.53754234
vt 0.98885423 0.19302440
vt 0.00330256 0.19302440
vt 0.00330256 0.53754234
vt 0.02925061 0.00129551
vt 0.03019453 0.10387534
vt 0.04018141 0.10313070
vt 0.04018141 0.00133783
vt 0.00330256 0.54145944
vt 0.98885423 0.54145944
vt 0.98885423 0.53754234
vt 0.00330256 0.53754234
vt 0.96112037 0.68076634
vt 0.96175998 0.57768404
vt 0.95071822 0.57794809
vt 0.95071822 0.67957687
vt 0.95303851 0.71266556
vt 0.03330963 0.71025658
vt 0.03010589 0.72831285
vt 0.95616806 0.72924531
vt 0.01406655 0.68286419
vt 0.01220330 0.57793319
vt 0.00107310 0.57824183
vt 0.00252499 0.68688047
vt 0.98885423 0.18910730
vt 0.00330256 0.18910730
vt 0.00330256 0.19302440
vt 0.98885423 0.19302440
vt 0.96640182 0.10432273
vt 0.96704143 0.00107312
vt 0.95599872 0.00133783
vt 0.95599872 0.10313070
vt 0.95831805 0.13627476
vt 0.03848615 0.13379538
vt 0.03524518 0.15184951
vt 0.96144754 0.15288275
vt 0.02279530 0.14268851
vt 0.01287622 0.12802374
vt 0.01932791 0.10645181
vt 0.04001354 0.11765969
vt 0.00799089 0.11036122
vt 0.97247863 0.68352425
vt 0.97881317 0.70569885
vt 0.96881890 0.72129941
vt 0.95086074 0.69560444
vt 0.98414767 0.68775380
vt 0.02497442 0.68033552
vt 0.03481419 0.69410861
vt 0.01761233 0.71926093
vt 0.00757648 0.70465374
vt 0.03495939 0.67957687
vt 0.97776115 0.10708570
vt 0.98409629 0.12929738
vt 0.97410053 0.14492404
vt 0.95614058 0.11918485
vt 0.98943132 0.11132246
vt 0.01743010 0.00136679
vt 0.00635635 0.00163245
vt 0.00330256 0.54565942
vt 0.98885423 0.54565942
vt 0.00330256 0.54957652
vt 0.98885423 0.54957652
vt 0.97372091 0.57775462
vt 0.98497248 0.57792997
vt 0.02402241 0.57783031
vt 0.03495939 0.57794809
vt 0.98885423 0.18490720
vt 0.00330256 0.18490720
vt 0.98885423 0.18099016
vt 0.00330256 0.18099016
vt 0.97900325 0.00114375
vt 0.99025577 0.00131935
vt 0.00330256 0.57611775
vt 0.98885423 0.57611775
vt 0.98885423 0.54957652
vt 0.00330256 0.54957652
vt 0.95071822 0.57794809
vt 0.03495939 0.57794809
vt 0.03495939 0.67957687
vt 0.95071822 0.67957687
vt 0.98885423 0.15444887
vt 0.00330256 0.15444887
vt 0.00330256 0.18099016
vt 0.98885423 0.18099016
vt 0.95599872 0.00133783
vt 0.04018141 0.00133783
vt 0.04018141 0.10313070
vt 0.95599872 0.10313070
vt 0.98885423 0.53754234
vt 0.98885423 0.19302440
vt 0.00330256 0.19302440
vt 0.00330256 0.53754234
vt 0.02925061 0.00129551
vt 0.03019453 0.10387534
vt 0.04018141 0.10313070
vt 0.04018141 0.00133783
vt 0.00330256 0.54145944
vt 0.98885423 0.54145944
vt 0.98885423 0.53754234
vt 0.00330256 0.53754234
vt 0.96112037 0.68076634
vt 0.96175998 0.57768404
vt 0.95071822 0.57794809
vt 0.95071822 0.67957687
vt 0.95303851 0.71266556
vt 0.03330963 0.71025658
vt 0.03010589 0.72831285
vt 0.95616806 0.72924531
vt 0.01406655 0.68286419
vt 0.01220330 0.57793319
vt 0.00107310 0.57824183
vt 0.00252499 0.68688047
vt 0.98885423 0.18910730
vt 0.00330256 0.18910730
vt 0.00330256 0.19302440
vt 0.98885423 0.19302440
vt 0.96640182 0.10432273
vt 0.96704143 0.00107312
vt 0.95599872 0.00133783
vt 0.95599872 0.10313070
vt 0.95831805 0.13627476
vt 0.03848615 0.13379538
vt 0.03524518 0.15184951
vt 0.96144754 0.15288275
vt 0.02279530 0.14268851
vt 0.01287622 0.12802374
vt 0.01932791 0.10645181
vt 0.04001354 0.11765969
vt 0.00799089 0.11036122
vt 0.97247863 0.68352425
vt 0.97881317 0.70569885
vt 0.96881890 0.72129941
vt 0.95086074 0.69560444
vt 0.98414767 0.68775380
vt 0.02497442 0.68033552
vt 0.03481419 0.69410861
vt 0.01761233 0.71926093
vt 0.00757648 0.70465374
vt 0.03495939 0.67957687
vt 0.97776115 0.10708570
vt 0.98409629 0.12929738
vt 0.97410053 0.14492404
vt 0.95614058 0.11918485
vt 0.98943132 0.11132246
vt 0.01743010 0.00136679
vt 0.00635635 0.00163245
vt 0.00330256 0.54565942
vt 0.98885423 0.54565942
vt 0.00330256 0.54957652
vt 0.98885423 0.54957652
vt 0.97372091 0.57775462
vt 0.98497248 0.57792997
vt 0.02402241 0.57783031
vt 0.03495939 0.57794809
vt 0.98885423 0.18490720
vt 0.00330256 0.18490720
vt 0.98885423 0.18099016
vt 0.00330256 0.18099016
vt 0.97900325 0.00114375
vt 0.99025577 0.00131935
vt 0.00327487 0.87517333
vt 0.00327487 0.94582069
vt 0.99203444 0.94582069
vt 0.99203444 0.87517333
vt 0.00327487 0.86767209
vt 0.99203444 0.86767209
vt 0.99203444 0.79702461
vt 0.00327487 0.79702461
vt 0.00327487 0.87011361
vt 0.99203444 0.87011361
vt 0.99203444 0.86767209
vt 0.00327487 0.86767209
vt 0.00327487 0.87273169
vt 0.99203444 0.87273169
vt 0.00327487 0.87517333
vt 0.99203444 0.87517333
vt 0.00327487 0.94582069
vt 0.00327487 0.96182203
vt 0.99203444 0.96182203
vt 0.99203444 0.94582069
vt 0.99203444 0.79702461
vt 0.99203444 0.78102326
vt 0.00327487 0.78102326
vt 0.00327487 0.79702461
vt 0.00327487 0.96182203
vt 0.00327487 0.97993684
vt 0.99203444 0.97993684
vt 0.99203444 0.96182203
vt 0.99203444 0.78102326
vt 0.99203444 0.76290858
vt 0.00327487 0.76290858
vt 0.00327487 0.78102326
vt 0.00327487 0.97993684
vt 0.00327487 0.99307001
vt 0.99203444 0.99307001
vt 0.99203444 0.97993684
vt 0.99203444 0.76290858
vt 0.99203444 0.74977529
vt 0.00327487 0.74977529
vt 0.00327487 0.76290858
vt 0.00327487 0.87517333
vt 0.00327487 0.94582069
vt 0.99203444 0.94582069
vt 0.99203444 0.87517333
vt 0.00327487 0.86767209
vt 0.99203444 0.86767209
vt 0.99203444 0.79702461
vt 0.00327487 0.79702461
vt 0.00327487 0.87011361
vt 0.99203444 0.87011361
vt 0.99203444 0.86767209
vt 0.00327487 0.86767209
vt 0.00327487 0.87273169
vt 0.99203444 0.87273169
vt 0.00327487 0.87517333
vt 0.99203444 0.87517333
vt 0.00327487 0.94582069
vt 0.00327487 0.96182203
vt 0.99203444 0.96182203
vt 0.99203444 0.94582069
vt 0.99203444 0.79702461
vt 0.99203444 0.78102326
vt 0.00327487 0.78102326
vt 0.00327487 0.79702461
vt 0.00327487 0.96182203
vt 0.00327487 0.97993684
vt 0.99203444 0.97993684
vt 0.99203444 0.96182203
vt 0.99203444 0.78102326
vt 0.99203444 0.76290858
vt 0.00327487 0.76290858
vt 0.00327487 0.78102326
vt 0.00327487 0.97993684
vt 0.00327487 0.99307001
vt 0.99203444 0.99307001
vt 0.99203444 0.97993684
vt 0.99203444 0.76290858
vt 0.99203444 0.74977529
vt 0.00327487 0.74977529
vt 0.00327487 0.76290858
vt 0.00327487 0.87517333
vt 0.00327487 0.94582069
vt 0.99203444 0.94582069
vt 0.99203444 0.87517333
vt 0.00327487 0.86767209
vt 0.99203444 0.86767209
vt 0.99203444 0.79702461
vt 0.00327487 0.79702461
vt 0.00327487 0.87011361
vt 0.99203444 0.87011361
vt 0.99203444 0.86767209
vt 0.00327487 0.86767209
vt 0.00327487 0.87273169
vt 0.99203444 0.87273169
vt 0.00327487 0.87517333
vt 0.99203444 0.87517333
vt 0.00327487 0.94582069
vt 0.00327487 0.96182203
vt 0.99203444 0.96182203
vt 0.99203444 0.94582069
vt 0.99203444 0.79702461
vt 0.99203444 0.78102326
vt 0.00327487 0.78102326
vt 0.00327487 0.79702461
vt 0.00327487 0.96182203
vt 0.00327487 0.97993684
vt 0.99203444 0.97993684
vt 0.99203444 0.96182203
vt 0.99203444 0.78102326
vt 0.99203444 0.76290858
vt 0.00327487 0.76290858
vt 0.00327487 0.78102326
vt 0.00327487 0.97993684
vt 0.00327487 0.99307001
vt 0.99203444 0.99307001
vt 0.99203444 0.97993684
vt 0.99203444 0.76290858
vt 0.99203444 0.74977529
vt 0.00327487 0.74977529
vt 0.00327487 0.76290858
vt 0.00327487 0.87517333
vt 0.00327487 0.94582069
vt 0.99203444 0.94582069
vt 0.99203444 0.87517333
vt 0.00327487 0.86767209
vt 0.99203444 0.86767209
vt 0.99203444 0.79702461
vt 0.00327487 0.79702461
vt 0.00327487 0.87011361
vt 0.99203444 0.87011361
vt 0.99203444 0.86767209
vt 0.00327487 0.86767209
vt 0.00327487 0.87273169
vt 0.99203444 0.87273169
vt 0.00327487 0.87517333
vt 0.99203444 0.87517333
vt 0.00327487 0.94582069
vt 0.00327487 0.96182203
vt 0.99203444 0.96182203
vt 0.99203444 0.94582069
vt 0.99203444 0.79702461
vt 0.99203444 0.78102326
vt 0.00327487 0.78102326
vt 0.00327487 0.79702461
vt 0.00327487 0.96182203
vt 0.00327487 0.97993684
vt 0.99203444 0.97993684
vt 0.99203444 0.96182203
vt 0.99203444 0.78102326
vt 0.99203444 0.76290858
vt 0.00327487 0.76290858
vt 0.00327487 0.78102326
vt 0.00327487 0.97993684
vt 0.00327487 0.99307001
vt 0.99203444 0.99307001
vt 0.99203444 0.97993684
vt 0.99203444 0.76290858
vt 0.99203444 0.74977529
vt 0.00327487 0.74977529
vt 0.00327487 0.76290858
f 1/1/1 2/2/2 3/3/3
f 4/4/4 5/5/5 6/6/6
f 7/7/7 8/8/8 9/9/9
f 10/10/10 11/11/11 12/12/12
f 13/13/13 14/14/14 15/15/15
f 16/16/16 17/17/17 18/18/18
f 19/19/19 20/20/20 21/21/21
f 22/22/22 23/23/23 24/24/24
f 25/25/25 26/26/26 27/27/27
f 28/28/28 29/29/29 30/30/30
f 31/31/31 32/32/32 33/33/33
f 34/34/34 35/35/35 36/36/36
f 37/37/37 38/38/38 39/39/39
f 40/40/40 41/41/41 42/42/42
f 43/43/43 44/44/44 45/45/45
f 46/46/46 47/47/47 48/48/48
f 49/49/49 50/50/50 51/51/51
f 52/52/52 53/53/53 54/54/54
f 55/55/55 56/56/56 57/57/57
f 58/58/58 59/59/59 60/60/60
f 61/61/61 62/62/62 63/63/63
f 61/61/61 63/63/63 64/64/64
f 65/65/65 66/66/66 67/67/67
f 65/65/65 67/67/67 68/68/68
f 69/69/69 70/70/70 71/71/71
f 69/69/69 71/71/71 72/72/72
f 73/73/73 74/74/74 75/75/75
f 73/73/73 75/75/75 76/76/76
f 77/77/77 78/78/78 79/79/79
f 77/77/77 79/79/79 80/80/80
f 81/81/81 82/82/82 83/83/83
f 81/81/81 83/83/83 84/84/84
f 85/85/85 86/86/86 87/87/87
f 85/85/85 87/87/87 88/88/88
f 89/89/89 90/90/90 91/91/91
f 89/89/89 91/91/91 92/92/92
f 93/93/93 94/94/94 95/95/95
f 93/93/93 95/95/95 96/96/96
f 97/97/97 98/98/98 99/99/99
f 97/97/97 99/99/99 100/100/100
f 101/101/101 102/102/102 103/103/103
f 101/101/101 103/103/103 104/104/104
f 105/105/105 106/106/106 107/107/107
f 105/105/105 107/107/107 108/108/108
f 109/109/109 110/110/110 111/111/111
f 109/109/109 111/111/111 112/112/112
f 113/113/113 3/3/3 2/2/2
f 113/113/113 2/2/2 114/114/114
f 115/115/115 2/2/2 1/1/1
f 115/115/115 1/1/1 82/82/82
f 116/116/116 1/1/1 3/3/3
f 116/116/116 3/3/3 110/110/110
f 113/113/113 111/111/111 110/110/110
f 113/113/113 110/110/110 3/3/3
f 115/115/115 117/117/117 114/114/114
f 115/115/115 114/114/114 2/2/2
f 116/116/116 83/83/83 82/82/82
f 116/116/116 82/82/82 1/1/1
f 89/89/89 6/6/6 5/5/5
f 89/89/89 5/5/5 118/118/118
f 119/119/119 5/5/5 4/4/4
f 119/119/119 4/4/4 120/120/120
f 93/93/93 4/4/4 6/6/6
f 93/93/93 6/6/6 121/121/121
f 89/89/89 92/92/92 121/121/121
f 89/89/89 121/121/121 6/6/6
f 119/119/119 122/122/122 118/118/118
f 119/119/119 118/118/118 5/5/5
f 93/93/93 96/96/96 120/120/120
f 93/93/93 120/120/120 4/4/4
f 97/97/97 9/9/9 8/8/8
f 97/97/97 8/8/8 123/123/123
f 124/124/124 8/8/8 7/7/7
f 124/124/124 7/7/7 94/94/94
f 125/125/125 7/7/7 9/9/9
f 125/125/125 9/9/9 126/126/126
f 97/97/97 100/100/100 126/126/126
f 97/97/97 126/126/126 9/9/9
f 124/124/124 127/127/127 123/123/123
f 124/124/124 123/123/123 8/8/8
f 125/125/125 95/95/95 94/94/94
f 125/125/125 94/94/94 7/7/7
f 105/105/105 12/12/12 11/11/11
f 105/105/105 11/11/11 128/128/128
f 129/129/129 11/11/11 10/10/10
f 129/129/129 10/10/10 130/130/130
f 109/109/109 10/10/10 12/12/12
f 109/109/109 12/12/12 131/131/131
f 105/105/105 108/108/108 131/131/131
f 105/105/105 131/131/131 12/12/12
f 129/129/129 132/132/132 128/128/128
f 129/129/129 128/128/128 11/11/11
f 109/109/109 112/112/112 130/130/130
f 109/109/109 130/130/130 10/10/10
f 81/81/81 133/133/133 115/115/115
f 81/81/81 115/115/115 82/82/82
f 133/133/133 134/134/134 117/117/117
f 133/133/133 117/117/117 115/115/115
f 85/85/85 135/135/135 136/136/136
f 85/85/85 136/136/136 86/86/86
f 135/135/135 137/137/137 138/138/138
f 135/135/135 138/138/138 136/136/136
f 89/89/89 118/118/118 139/139/139
f 89/89/89 139/139/139 90/90/90
f 118/118/118 122/122/122 140/140/140
f 118/118/118 140/140/140 139/139/139
f 93/93/93 121/121/121 124/124/124
f 93/93/93 124/124/124 94/94/94
f 121/121/121 92/92/92 127/127/127
f 121/121/121 127/127/127 124/124/124
f 97/97/97 123/123/123 141/141/141
f 97/97/97 141/141/141 98/98/98
f 123/123/123 127/127/127 142/142/142
f 123/123/123 142/142/142 141/141/141
f 101/101/101 143/143/143 144/144/144
f 101/101/101 144/144/144 102/102/102
f 143/143/143 145/145/145 146/146/146
f 143/143/143 146/146/146 144/144/144
f 105/105/105 128/128/128 147/147/147
f 105/105/105 147/147/147 106/106/106
f 128/128/128 132/132/132 148/148/148
f 128/128/128 148/148/148 147/147/147
f 109/109/109 131/131/131 116/116/116
f 109/109/109 116/116/116 110/110/110
f 131/131/131 108/108/108 83/83/83
f 131/131/131 83/83/83 116/116/116
f 149/149/149 150/150/150 151/151/151
f 149/149/149 151/151/151 152/152/152
f 153/153/153 154/154/154 155/155/155
f 153/153/153 155/155/155 156/156/156
f 157/157/157 158/158/158 159/159/159
f 157/157/157 159/159/159 160/160/160
f 161/161/161 162/162/162 163/163/163
f 161/161/161 163/163/163 164/164/164
f 165/165/165 166/166/166 167/167/167
f 165/165/165 167/167/167 168/168/168
f 169/169/169 170/170/170 171/171/171
f 169/169/169 171/171/171 172/172/172
f 173/173/173 174/174/174 175/175/175
f 173/173/173 175/175/175 176/176/176
f 177/177/177 178/178/178 179/179/179
f 177/177/177 179/179/179 180/180/180
f 181/181/181 182/182/182 183/183/183
f 181/181/181 183/183/183 184/184/184
f 185/185/185 186/186/186 187/187/187
f 185/185/185 187/187/187 188/188/188
f 189/189/189 190/190/190 191/191/191
f 189/189/189 191/191/191 192/192/192
f 193/193/193 194/194/194 195/195/195
f 193/193/193 195/195/195 196/196/196
f 197/197/197 198/198/198 199/199/199
f 197/197/197 199/199/199 200/200/200
f 201/201/201 15/15/15 14/14/14
f 201/201/201 14/14/14 202/202/202
f 203/203/203 14/14/14 13/13/13
f 203/203/203 13/13/13 170/170/170
f 204/204/204 13/13/13 15/15/15
f 204/204/204 15/15/15 198/198/198
f 201/201/201 199/199/199 198/198/198
f 201/201/201 198/198/198 15/15/15
f 203/203/203 205/205/205 202/202/202
f 203/203/203 202/202/202 14/14/14
f 204/204/204 171/171/171 170/170/170
f 204/204/204 170/170/170 13/13/13
f 177/177/177 18/18/18 17/17/17
f 177/177/177 17/17/17 206/206/206
f 207/207/207 17/17/17 16/16/16
f 207/207/207 16/16/16 208/208/208
f 181/181/181 16/16/16 18/18/18
f 181/181/181 18/18/18 209/209/209
f 177/177/177 180/180/180 209/209/209
f 177/177/177 209/209/209 18/18/18
f 207/207/207 210/210/210 206/206/206
f 207/207/207 206/206/206 17/17/17
f 181/181/181 184/184/184 208/208/208
f 181/181/181 208/208/208 16/16/16
f 185/185/185 21/21/21 20/20/20
f 185/185/185 20/20/20 211/211/211
f 212/212/212 20/20/20 19/19/19
f 212/212/212 19/19/19 182/182/182
f 213/213/213 19/19/19 21/21/21
f 213/213/213 21/21/21 214/214/214
f 185/185/185 188/188/188 214/214/214
f 185/185/185 214/214/214 21/21/21
f 212/212/212 215/215/215 211/211/211
f 212/212/212 211/211/211 20/20/20
f 213/213/213 183/183/183 182/182/182
f 213/213/213 182/182/182 19/19/19
f 193/193/193 24/24/24 23/23/23
f 193/193/193 23/23/23 216/216/216
f 217/217/217 23/23/23 22/22/22
f 217/217/217 22/22/22 218/218/218
f 197/197/197 22/22/22 24/24/24
f 197/197/197 24/24/24 219/219/219
f 193/193/193 196/196/196 219/219/219
f 193/193/193 219/219/219 24/24/24
f 217/217/217 220/220/220 216/216/216
f 217/217/217 216/216/216 23/23/23
f 197/197/197 200/200/200 218/218/218
f 197/197/197 218/218/218 22/22/22
f 169/169/169 221/221/221 203/203/203
f 169/169/169 203/203/203 170/170/170
f 221/221/221 222/222/222 205/205/205
f 221/221/221 205/205/205 203/203/203
f 173/173/173 223/223/223 224/224/224
f 173/173/173 224/224/224 174/174/174
f 223/223/223 225/225/225 226/226/226
f 223/223/223 226/226/226 224/224/224
f 177/177/177 206/206/206 227/227/227
f 177/177/177 227/227/227 178/178/178
f 206/206/206 210/210/210 228/228/228
f 206/206/206 228/228/228 227/227/227
f 181/181/181 209/209/209 212/212/212
f 181/181/181 212/212/212 182/182/182
f 209/209/209 180/180/180 215/215/215
f 209/209/209 215/215/215 212/212/212
f 185/185/185 211/211/211 229/229/229
f 185/185/185 229/229/229 186/186/186
f 211/211/211 215/215/215 230/230/230
f 211/211/211 230/230/230 229/229/229
f 189/189/189 231/231/231 232/232/232
f 189/189/189 232/232/232 190/190/190
f 231/231/231 233/233/233 234/234/234
f 231/231/231 234/234/234 232/232/232
f 193/193/193 216/216/216 235/235/235
f 193/193/193 235/235/235 194/194/194
f 216/216/216 220/220/220 236/236/236
f 216/216/216 236/236/236 235/235/235
f 197/197/197 219/219/219 204/204/204
f 197/197/197 204/204/204 198/198/198
f 219/219/219 196/196/196 171/171/171
f 219/219/219 171/171/171 204/204/204
f 237/237/237 238/238/238 239/239/239
f 237/237/237 239/239/239 240/240/240
f 241/241/241 242/242/242 243/243/243
f 241/241/241 243/243/243 244/244/244
f 245/245/245 246/246/246 247/247/247
f 245/245/245 247/247/247 248/248/248
f 249/249/249 250/250/250 251/251/251
f 249/249/249 251/251/251 252/252/252
f 253/253/253 254/254/254 255/255/255
f 253/253/253 255/255/255 256/256/256
f 257/257/257 258/258/258 259/259/259
f 257/257/257 259/259/259 260/260/260
f 261/261/261 262/262/262 263/263/263
f 261/261/261 263/263/263 264/264/264
f 265/265/265 266/266/266 267/267/267
f 265/265/265 267/267/267 268/268/268
f 269/269/269 270/270/270 271/271/271
f 269/269/269 271/271/271 272/272/272
f 273/273/273 274/274/274 275/275/275
f 273/273/273 275/275/275 276/276/276
f 277/277/277 278/278/278 279/279/279
f 277/277/277 279/279/279 280/280/280
f 281/281/281 282/282/282 283/283/283
f 281/281/281 283/283/283 284/284/284
f 285/285/285 286/286/286 287/287/287
f 285/285/285 287/287/287 288/288/288
f 289/289/289 27/27/27 26/26/26
f 289/289/289 26/26/26 290/290/290
f 291/291/291 26/26/26 25/25/25
f 291/291/291 25/25/25 258/258/258
f 292/292/292 25/25/25 27/27/27
f 292/292/292 27/27/27 286/286/286
f 289/289/289 287/287/287 286/286/286
f 289/289/289 286/286/286 27/27/27
f 291/291/291 293/293/293 290/290/290
f 291/291/291 290/290/290 26/26/26
f 292/292/292 259/259/259 258/258/258
f 292/292/292 258/258/258 25/25/25
f 265/265/265 30/30/30 29/29/29
f 265/265/265 29/29/29 294/294/294
f 295/295/295 29/29/29 28/28/28
f 295/295/295 28/28/28 296/296/296
f 269/269/269 28/28/28 30/30/30
f 269/269/269 30/30/30 297/297/297
f 265/265/265 268/268/268 297/297/297
f 265/265/265 297/297/297 30/30/30
f 295/295/295 298/298/298 294/294/294
f 295/295/295 294/294/294 29/29/29
f 269/269/269 272/272/272 296/296/296
f 269/269/269 296/296/296 28/28/28
f 273/273/273 33/33/33 32/32/32
f 273/273/273 32/32/32 299/299/299
f 300/300/300 32/32/32 31/31/31
f 300/300/300 31/31/31 270/270/270
f 301/301/301 31/31/31 33/33/33
f 301/301/301 33/33/33 302/302/302
f 273/273/273 276/276/276 302/302/302
f 273/273/273 302/302/302 33/33/33
f 300/300/300 303/303/303 299/299/299
f 300/300/300 299/299/299 32/32/32
f 301/301/301 271/271/271 270/270/270
f 301/301/301 270/270/270 31/31/31
f 281/281/281 36/36/36 35/35/35
f 281/281/281 35/35/35 304/304/304
f 305/305/305 35/35/35 34/34/34
f 305/305/305 34/34/34 306/306/306
f 285/285/285 34/34/34 36/36/36
f 285/285/285 36/36/36 307/307/307
f 281/281/281 284/284/284 307/307/307
f 281/281/281 307/307/307 36/36/36
f 305/305/305 308/308/308 304/304/304
f 305/305/305 304/304/304 35/35/35
f 285/285/285 288/288/288 306/306/306
f 285/285/285 306/306/306 34/34/34
f 257/257/257 309/309/309 291/291/291
f 257/257/257 291/291/291 258/258/258
f 309/309/309 310/310/310 293/293/293
f 309/309/309 293/293/293 291/291/291
f 261/261/261 311/311/311 312/312/312
f 261/261/261 312/312/312 262/262/262
f 311/311/311 313/313/313 314/314/314
f 311/311/311 314/314/314 312/312/312
f 265/265/265 294/294/294 315/315/315
f 265/265/265 315/315/315 266/266/266
f 294/294/294 298/298/298 316/316/316
f 294/294/294 316/316/316 315/315/315
f 269/269/269 297/297/297 300/300/300
f 269/269/269 300/300/300 270/270/270
f 297/297/297 268/268/268 303/303/303
f 297/297/297 303/303/303 300/300/300
f 273/273/273 299/299/299 317/317/317
f 273/273/273 317/317/317 274/274/274
f 299/299/299 303/303/303 318/318/318
f 299/299/299 318/318/318 317/317/317
f 277/277/277 319/319/319 320/320/320
f 277/277/277 320/320/320 278/278/278
f 319/319/319 321/321/321 322/322/322
f 319/319/319 322/322/322 320/320/320
f 281/281/281 304/304/304 323/323/323
f 281/281/281 323/323/323 282/282/282
f 304/304/304 308/308/308 324/324/324
f 304/304/304 324/324/324 323/323/323
f 285/285/285 307/307/307 292/292/292
f 285/285/285 292/292/292 286/286/286
f 307/307/307 284/284/284 259/259/259
f 307/307/307 259/259/259 292/292/292
f 325/325/325 326/326/326 327/327/327
f 325/325/325 327/327/327 328/328/328
f 329/329/329 330/330/330 331/331/331
f 329/329/329 331/331/331 332/332/332
f 333/333/333 334/334/334 335/335/335
f 333/333/333 335/335/335 336/336/336
f 337/337/337 338/338/338 339/339/339
f 337/337/337 339/339/339 340/340/340
f 341/341/341 342/342/342 343/343/343
f 341/341/341 343/343/343 344/344/344
f 345/345/345 346/346/346 347/347/347
f 345/345/345 347/347/347 348/348/348
f 349/349/349 350/350/350 351/351/351
f 349/349/349 351/351/351 352/352/352
f 353/353/353 354/354/354 355/355/355
f 353/353/353 355/355/355 356/356/356
f 357/357/357 358/358/358 359/359/359
f 357/357/357 359/359/359 360/360/360
f 361/361/361 362/362/362 363/363/363
f 361/361/361 363/363/363 364/364/364
f 365/365/365 366/366/366 367/367/367
f 365/365/365 367/367/367 368/368/368
f 369/369/369 370/370/370 371/371/371
f 369/369/369 371/371/371 372/372/372
f 373/373/373 374/374/374 375/375/375
f 373/373/373 375/375/375 376/376/376
f 377/377/377 39/39/39 38/38/38
f 377/377/377 38/38/38 378/378/378
f 379/379/379 38/38/38 37/37/37
f 379/379/379 37/37/37 346/346/346
f 380/380/380 37/37/37 39/39/39
f 380/380/380 39/39/39 374/374/374
f 377/377/377 375/375/375 374/374/374
f 377/377/377 374/374/374 39/39/39
f 379/379/379 381/381/381 378/378/378
f 379/379/379 378/378/378 38/38/38
f 380/380/380 347/347/347 346/346/346
f 380/380/380 346/346/346 37/37/37
f 353/353/353 42/42/42 41/41/41
f 353/353/353 41/41/41 382/382/382
f 383/383/383 41/41/41 40/40/40
f 383/383/383 40/40/40 384/384/384
f 357/357/357 40/40/40 42/42/42
f 357/357/357 42/42/42 385/385/385
f 353/353/353 356/356/356 385/385/385
f 353/353/353 385/385/385 42/42/42
f 383/383/383 386/386/386 382/382/382
f 383/383/383 382/382/382 41/41/41
f 357/357/357 360/360/360 384/384/384
f 357/357/357 384/384/384 40/40/40
f 361/361/361 45/45/45 44/44/44
f 361/361/361 44/44/44 387/387/387
f 388/388/388 44/44/44 43/43/43
f 388/388/388 43/43/43 358/358/358
f 389/389/389 43/43/43 45/45/45
f 389/389/389 45/45/45 390/390/390
f 361/361/361 364/364/364 390/390/390
f 361/361/361 390/390/390 45/45/45
f 388/388/388 391/391/391 387/387/387
f 388/388/388 387/387/387 44/44/44
f 389/389/389 359/359/359 358/358/358
f 389/389/389 358/358/358 43/43/43
f 369/369/369 48/48/48 47/47/47
f 369/369/369 47/47/47 392/392/392
f 393/393/393 47/47/47 46/46/46
f 393/393/393 46/46/46 394/394/394
f 373/373/373 46/46/46 48/48/48
f 373/373/373 48/48/48 395/395/395
f 369/369/369 372/372/372 395/395/395
f 369/369/369 395/395/395 48/48/48
f 393/393/393 396/396/396 392/392/392
f 393/393/393 392/392/392 47/47/47
f 373/373/373 376/376/376 394/394/394
f 373/373/373 394/394/394 46/46/46
f 345/345/345 397/397/397 379/379/379
f 345/345/345 379/379/379 346/346/346
f 397/397/397 398/398/398 381/381/381
f 397/397/397 381/381/381 379/379/379
f 349/349/349 399/399/399 400/400/400
f 349/349/349 400/400/400 350/350/350
f 399/399/399 401/401/401 402/402/402
f 399/399/399 402/402/402 400/400/400
f 353/353/353 382/382/382 403/403/403
f 353/353/353 403/403/403 354/354/354
f 382/382/382 386/386/386 404/404/404
f 382/382/382 404/404/404 403/403/403
f 357/357/357 385/385/385 388/388/388
f 357/357/357 388/388/388 358/358/358
f 385/385/385 356/356/356 391/391/391
f 385/385/385 391/391/391 388/388/388
f 361/361/361 387/387/387 405/405/405
f 361/361/361 405/405/405 362/362/362
f 387/387/387 391/391/391 406/406/406
f 387/387/387 406/406/406 405/405/405
f 365/365/365 407/407/407 408/408/408
f 365/365/365 408/408/408 366/366/366
f 407/407/407 409/409/409 410/410/410
f 407/407/407 410/410/410 408/408/408
f 369/369/369 392/392/392 411/411/411
f 369/369/369 411/411/411 370/370/370
f 392/392/392 396/396/396 412/412/412
f 392/392/392 412/412/412 411/411/411
f 373/373/373 395/395/395 380/380/380
f 373/373/373 380/380/380 374/374/374
f 395/395/395 372/372/372 347/347/347
f 395/395/395 347/347/347 380/380/380
f 413/413/413 414/414/414 415/415/415
f 413/413/413 415/415/415 416/416/416
f 417/417/417 418/418/418 419/419/419
f 417/417/417 419/419/419 420/420/420
f 421/421/421 422/422/422 423/423/423
f 421/421/421 423/423/423 424/424/424
f 425/425/425 426/426/426 427/427/427
f 425/425/425 427/427/427 428/428/428
f 429/429/429 430/430/430 431/431/431
f 429/429/429 431/431/431 432/432/432
f 433/433/433 434/434/434 435/435/435
f 433/433/433 435/435/435 436/436/436
f 437/437/437 438/438/438 439/439/439
f 437/437/437 439/439/439 440/440/440
f 441/441/441 442/442/442 443/443/443
f 441/441/441 443/443/443 444/444/444
f 445/445/445 446/446/446 447/447/447
f 445/445/445 447/447/447 448/448/448
f 449/449/449 450/450/450 451/451/451
f 449/449/449 451/451/451 452/452/452
f 453/453/453 454/454/454 455/455/455
f 453/453/453 455/455/455 456/456/456
f 457/457/457 458/458/458 459/459/459
f 457/457/457 459/459/459 460/460/460
f 461/461/461 462/462/462 463/463/463
f 461/461/461 463/463/463 464/464/464
f 465/465/465 51/51/51 50/50/50
f 465/465/465 50/50/50 466/466/466
f 467/467/467 50/50/50 49/49/49
f 467/467/467 49/49/49 434/434/434
f 468/468/468 49/49/49 51/51/51
f 468/468/468 51/51/51 462/462/462
f 465/465/465 463/463/463 462/462/462
f 465/465/465 462/462/462 51/51/51
f 467/467/467 469/469/469 466/466/466
f 467/467/467 466/466/466 50/50/50
f 468/468/468 435/435/435 434/434/434
f 468/468/468 434/434/434 49/49/49
f 441/441/441 54/54/54 53/53/53
f 441/441/441 53/53/53 470/470/470
f 471/471/471 53/53/53 52/52/52
f 471/471/471 52/52/52 472/472/472
f 445/445/445 52/52/52 54/54/54
f 445/445/445 54/54/54 473/473/473
f 441/441/441 444/444/444 473/473/473
f 441/441/441 473/473/473 54/54/54
f 471/471/471 474/474/474 470/470/470
f 471/471/471 470/470/470 53/53/53
f 445/445/445 448/448/448 472/472/472
f 445/445/445 472/472/472 52/52/52
f 449/449/449 57/57/57 56/56/56
f 449/449/449 56/56/56 475/475/475
f 476/476/476 56/56/56 55/55/55
f 476/476/476 55/55/55 446/446/446
f 477/477/477 55/55/55 57/57/57
f 477/477/477 57/57/57 478/478/478
f 449/449/449 452/452/452 478/478/478
f 449/449/449 478/478/478 57/57/57
f 476/476/476 479/479/479 475/475/475
f 476/476/476 475/475/475 56/56/56
f 477/477/477 447/447/447 446/446/446
f 477/477/477 446/446/446 55/55/55
f 457/457/457 60/60/60 59/59/59
f 457/457/457 59/59/59 480/480/480
f 481/481/481 59/59/59 58/58/58
f 481/481/481 58/58/58 482/482/482
f 461/461/461 58/58/58 60/60/60
f 461/461/461 60/60/60 483/483/483
f 457/457/457 460/460/460 483/483/483
f 457/457/457 483/483/483 60/60/60
f 481/481/481 484/484/484 480/480/480
f 481/481/481 480/480/480 59/59/59
f 461/461/461 464/464/464 482/482/482
f 461/461/461 482/482/482 58/58/58
f 433/433/433 485/485/485 467/467/467
f 433/433/433 467/467/467 434/434/434
f 485/485/485 486/486/486 469/469/469
f 485/485/485 469/469/469 467/467/467
f 437/437/437 487/487/487 488/488/488
f 437/437/437 488/488/488 438/438/438
f 487/487/487 489/489/489 490/490/490
f 487/487/487 490/490/490 488/488/488
f 441/441/441 470/470/470 491/491/491
f 441/441/441 491/491/491 442/442/442
f 470/470/470 474/474/474 492/492/492
f 470/470/470 492/492/492 491/491/491
f 445/445/445 473/473/473 476/476/476
f 445/445/445 476/476/476 446/446/446
f 473/473/473 444/444/444 479/479/479
f 473/473/473 479/479/479 476/476/476
f 449/449/449 475/475/475 493/493/493
f 449/449/449 493/493/493 450/450/450
f 475/475/475 479/479/479 494/494/494
f 475/475/475 494/494/494 493/493/493
f 453/453/453 495/495/495 496/496/496
f 453/453/453 496/496/496 454/454/454
f 495/495/495 497/497/497 498/498/498
f 495/495/495 498/498/498 496/496/496
f 457/457/457 480/480/480 499/499/499
f 457/457/457 499/499/499 458/458/458
f 480/480/480 484/484/484 500/500/500
f 480/480/480 500/500/500 499/499/499
f 461/461/461 483/483/483 468/468/468
f 461/461/461 468/468/468 462/462/462
f 483/483/483 460/460/460 435/435/435
f 483/483/483 435/435/435 468/468/468
f 501/501/501 502/502/502 503/503/503
f 501/501/501 503/503/503 504/504/504
f 505/505/505 506/506/506 507/507/507
f 505/505/505 507/507/507 508/508/508
f 509/509/509 510/510/510 511/511/511
f 509/509/509 511/511/511 512/512/512
f 509/509/509 513/513/513 514/514/514
f 509/509/509 514/514/514 510/510/510
f 513/513/513 515/515/515 516/516/516
f 513/513/513 516/516/516 514/514/514
f 517/517/517 518/518/518 519/519/519
f 517/517/517 519/519/519 520/520/520
f 521/521/521 522/522/522 523/523/523
f 521/521/521 523/523/523 524/524/524
f 525/525/525 526/526/526 527/527/527
f 525/525/525 527/527/527 528/528/528
f 529/529/529 530/530/530 531/531/531
f 529/529/529 531/531/531 532/532/532
f 533/533/533 534/534/534 535/535/535
f 533/533/533 535/535/535 536/536/536
f 537/537/537 538/538/538 539/539/539
f 537/537/537 539/539/539 540/540/540
f 541/541/541 542/542/542 543/543/543
f 541/541/541 543/543/543 544/544/544
f 545/545/545 546/546/546 547/547/547
f 545/545/545 547/547/547 548/548/548
f 549/549/549 550/550/550 551/551/551
f 549/549/549 551/551/551 552/552/552
f 549/549/549 553/553/553 554/554/554
f 549/549/549 554/554/554 550/550/550
f 553/553/553 555/555/555 556/556/556
f 553/553/553 556/556/556 554/554/554
f 557/557/557 558/558/558 559/559/559
f 557/557/557 559/559/559 560/560/560
f 561/561/561 562/562/562 563/563/563
f 561/561/561 563/563/563 564/564/564
f 565/565/565 566/566/566 567/567/567
f 565/565/565 567/567/567 568/568/568
f 569/569/569 570/570/570 571/571/571
f 569/569/569 571/571/571 572/572/572
f 573/573/573 574/574/574 575/575/575
f 573/573/573 575/575/575 576/576/576
f 577/577/577 578/578/578 579/579/579
f 577/577/577 579/579/579 580/580/580
f 581/581/581 582/582/582 583/583/583
f 581/581/581 583/583/583 584/584/584
f 585/585/585 586/586/586 587/587/587
f 585/585/585 587/587/587 588/588/588
f 589/589/589 590/590/590 591/591/591
f 589/589/589 591/591/591 592/592/592
f 589/589/589 593/593/593 594/594/594
f 589/589/589 594/594/594 590/590/590
f 593/593/593 595/595/595 596/596/596
f 593/593/593 596/596/596 594/594/594
f 597/597/597 598/598/598 599/599/599
f 597/597/597 599/599/599 600/600/600
f 601/601/601 602/602/602 603/603/603
f 601/601/601 603/603/603 604/604/604
f 605/605/605 606/606/606 607/607/607
f 605/605/605 607/607/607 608/608/608
f 609/609/609 610/610/610 611/611/611
f 609/609/609 611/611/611 612/612/612
f 613/613/613 614/614/614 615/615/615
f 613/613/613 615/615/615 616/616/616
f 617/617/617 618/618/618 619/619/619
f 617/617/617 619/619/619 620/620/620
f 621/621/621 622/622/622 623/623/623
f 621/621/621 623/623/623 624/624/624
f 625/625/625 626/626/626 627/627/627
f 625/625/625 627/627/627 628/628/628
f 629/629/629 630/630/630 631/631/631
f 629/629/629 631/631/631 632/632/632
f 629/629/629 633/633/633 634/634/634
f 629/629/629 634/634/634 630/630/630
f 633/633/633 635/635/635 636/636/636
f 633/633/633 636/636/636 634/634/634
f 637/637/637 638/638/638 639/639/639
f 637/637/637 639/639/639 640/640/640
f 641/641/641 642/642/642 643/643/643
f 641/641/641 643/643/643 644/644/644
f 645/645/645 646/646/646 647/647/647
f 645/645/645 647/647/647 648/648/648
f 649/649/649 650/650/650 651/651/651
f 649/649/649 651/651/651 652/652/652
f 653/653/653 654/654/654 655/655/655
f 653/653/653 655/655/655 656/656/656
f 657/657/657 658/658/658 659/659/659
f 657/657/657 659/659/659 660/660/660

