# Blender 4.5.0
# www.blender.org
mtllib apple.mtl
o Apple_Cut_Low.001_Apple_Baked_0
v 0.000128 0.037716 0.002599
v 0.000126 0.037173 0.000123
v -0.000850 0.037733 0.002423
v 0.000122 0.000881 0.000127
v 0.000122 0.000525 0.003794
v -0.001281 0.000525 0.003515
v -0.002470 0.000525 0.002720
v -0.001681 0.037749 0.001908
v -0.002235 0.037693 0.001102
v -0.003265 0.000525 0.001530
v -0.002235 0.037693 0.001102
v 0.000126 0.037173 0.000123
v -0.002429 0.037638 0.000131
v 0.000122 0.000881 0.000127
v -0.003265 0.000525 0.001530
v -0.003544 0.000525 0.000127
v -0.003265 0.000525 -0.001276
v -0.002235 0.037638 -0.000850
v -0.001681 0.037693 -0.001683
v -0.002470 0.000525 -0.002466
v -0.000841 0.037749 -0.002239
v -0.001281 0.000525 -0.003260
v 0.000122 0.000881 0.000127
v -0.001281 0.000525 -0.003260
v 0.000122 0.000525 -0.003540
v -0.000841 0.037749 -0.002239
v 0.000126 0.037173 0.000123
v 0.000164 0.037733 -0.002437
v 0.001158 0.037677 -0.002245
v 0.001525 0.000525 -0.003260
v 0.001969 0.037677 -0.001685
v 0.002715 0.000525 -0.002466
v 0.002488 0.037749 -0.000833
v 0.003510 0.000525 -0.001276
v 0.002488 0.037749 -0.000833
v 0.000126 0.037173 0.000123
v 0.002657 0.037749 0.000181
v 0.000122 0.000881 0.000127
v 0.003510 0.000525 -0.001276
v 0.003789 0.000525 0.000127
v 0.002453 0.037732 0.001174
v 0.003510 0.000525 0.001530
v 0.001908 0.037749 0.001963
v 0.002715 0.000525 0.002720
v 0.001097 0.037733 0.002443
v 0.001525 0.000525 0.003515
v 0.001525 0.000525 0.003515
v 0.001097 0.037733 0.002443
v 0.000079 0.016144 0.021508
v 0.000023 0.023029 0.022351
v -0.008783 0.023029 0.020824
v -0.008280 0.016144 0.019997
v 0.000136 0.035362 0.019051
v 0.000141 0.038928 0.015510
v -0.006010 0.039031 0.014437
v -0.007462 0.035398 0.017752
v 0.007121 0.000102 -0.002772
v 0.010740 0.001571 -0.004266
v 0.011599 0.001571 0.000128
v 0.007698 0.000102 0.000127
v 0.000132 0.009780 0.018688
v -0.007039 0.009780 0.017329
v 0.000081 0.029751 0.021429
v -0.008451 0.029751 0.019980
v 0.000133 0.039479 0.006340
v -0.002331 0.039538 0.005896
v 0.000131 0.004899 0.015249
v -0.005669 0.004899 0.014110
v 0.000137 0.040207 0.011035
v -0.004205 0.040290 0.010263
v 0.000124 0.001571 0.011599
v -0.004267 0.001571 0.010728
v -0.013922 0.035414 0.013953
v -0.015699 0.029751 0.015742
v -0.004427 0.039567 0.004610
v -0.013112 0.009780 0.013413
v -0.010584 0.004899 0.010858
v -0.016253 0.023029 0.016375
v -0.007898 0.040361 0.008020
v -0.007989 0.001571 0.008242
v -0.015362 0.016144 0.015609
v -0.011242 0.039079 0.011306
v 0.000122 0.000102 0.007702
v -0.002777 0.000102 0.007126
v -0.014727 0.039009 0.006337
v -0.018219 0.035379 0.007885
v -0.005234 0.000102 0.005484
v -0.020066 0.016144 0.008839
v -0.017154 0.009780 0.007483
v -0.020515 0.029751 0.008982
v -0.005826 0.039485 0.002591
v -0.013862 0.004899 0.005986
v -0.021213 0.023029 0.009363
v -0.010361 0.040269 0.004484
v -0.010475 0.001571 0.004528
v -0.021213 0.023029 0.009363
v -0.020515 0.029751 0.008982
v -0.022196 0.029734 0.000618
v -0.022943 0.023029 0.000730
v -0.010361 0.040269 0.004484
v -0.005826 0.039485 0.002591
v -0.006316 0.039363 0.000147
v -0.011224 0.040126 0.000184
v -0.010475 0.001571 0.004528
v -0.013862 0.004899 0.005986
v -0.015010 0.004899 0.000216
v -0.011347 0.001571 0.000144
v -0.020066 0.016144 0.008839
v -0.021709 0.016144 0.000612
v -0.018219 0.035379 0.007885
v -0.014727 0.039009 0.006337
v -0.015947 0.038869 0.000262
v -0.019721 0.035312 0.000413
v -0.017154 0.009780 0.007483
v -0.018567 0.009780 0.000384
v -0.018219 0.035276 -0.007275
v -0.020509 0.029734 -0.008050
v -0.005826 0.039363 -0.002328
v -0.017151 0.009780 -0.006858
v -0.013862 0.004899 -0.005613
v -0.021202 0.023029 -0.008229
v -0.010362 0.040091 -0.004182
v -0.010475 0.001571 -0.004254
v -0.020057 0.016144 -0.007872
v -0.014728 0.038818 -0.005938
v -0.006876 0.000102 0.003026
v -0.016125 0.023029 -0.015968
v -0.015255 0.016144 -0.015183
v -0.011226 0.038867 -0.011231
v -0.013875 0.035293 -0.013870
v -0.007453 0.000102 0.000129
v -0.006876 0.000102 -0.002771
v -0.013060 0.009780 -0.013063
v -0.015600 0.029734 -0.015524
v -0.004424 0.039467 -0.004433
v -0.010573 0.004899 -0.010576
v -0.007890 0.040183 -0.007901
v -0.007989 0.001571 -0.007986
v -0.007949 0.029734 -0.020531
v -0.008181 0.023029 -0.021160
v -0.002296 0.039549 -0.005841
v -0.004127 0.040275 -0.010386
v -0.005571 0.004899 -0.013888
v -0.004253 0.001571 -0.010476
v -0.007770 0.016144 -0.020082
v -0.005860 0.038937 -0.014768
v -0.007160 0.035328 -0.018280
v -0.005234 0.000102 -0.005229
v -0.006752 0.009780 -0.017211
v -0.006752 0.009780 -0.017211
v -0.007770 0.016144 -0.020082
v 0.001305 0.016144 -0.021864
v 0.000860 0.009780 -0.018707
v -0.007949 0.029734 -0.020531
v -0.007160 0.035328 -0.018280
v 0.000957 0.035362 -0.019873
v 0.001332 0.029751 -0.022354
v -0.002296 0.039549 -0.005841
v 0.000250 0.039519 -0.006343
v -0.005571 0.004899 -0.013888
v 0.000418 0.004899 -0.015068
v -0.008181 0.023029 -0.021160
v 0.001466 0.023029 -0.023055
v -0.004127 0.040275 -0.010386
v 0.000385 0.040255 -0.011275
v -0.004253 0.001571 -0.010476
v 0.000190 0.001571 -0.011357
v -0.005860 0.038937 -0.014768
v 0.000599 0.038963 -0.016037
v -0.002777 0.000102 -0.006872
v 0.010735 0.023029 -0.021364
v 0.010058 0.016144 -0.020256
v 0.006929 0.038928 -0.014832
v 0.008851 0.035362 -0.018395
v -0.002777 0.000102 -0.006872
v 0.000128 0.000102 -0.007449
v 0.008278 0.009780 -0.017315
v 0.010279 0.029751 -0.020706
v 0.002764 0.039423 -0.005857
v 0.006331 0.004899 -0.013930
v 0.004826 0.040168 -0.010420
v 0.004613 0.001571 -0.010488
v 0.014109 0.009780 -0.013218
v 0.011135 0.004899 -0.010629
v 0.017099 0.029734 -0.015753
v 0.017739 0.023029 -0.016267
v 0.004804 0.039439 -0.004439
v 0.008406 0.040184 -0.007917
v 0.008304 0.001571 -0.007996
v 0.016750 0.016144 -0.015450
v 0.011962 0.038937 -0.011280
v 0.014994 0.035347 -0.013992
v 0.003033 0.000102 -0.006873
v 0.020725 0.016144 -0.008160
v 0.017715 0.009780 -0.007051
v 0.018694 0.035379 -0.007243
v 0.021091 0.029751 -0.008155
v 0.006098 0.039567 -0.002280
v 0.014230 0.004899 -0.005685
v 0.021811 0.023029 -0.008480
v 0.010657 0.040342 -0.004099
v 0.010740 0.001571 -0.004266
v 0.015077 0.039029 -0.005848
v 0.005485 0.000102 -0.005230
v 0.014230 0.004899 -0.005685
v 0.015289 0.004899 0.000144
v 0.020725 0.016144 -0.008160
v 0.021811 0.023029 -0.008480
v 0.022902 0.023029 0.000783
v 0.021874 0.016144 0.000483
v 0.018694 0.035379 -0.007243
v 0.015077 0.039029 -0.005848
v 0.016017 0.039044 0.000633
v 0.019749 0.035379 0.000813
v -0.006876 0.000102 0.003026
v 0.017715 0.009780 -0.007051
v 0.018865 0.009780 0.000236
v 0.021091 0.029751 -0.008155
v 0.022164 0.029751 0.000901
v 0.006098 0.039567 -0.002280
v 0.006508 0.039620 0.000291
v 0.010657 0.040342 -0.004099
v 0.011357 0.040390 0.000449
v 0.005988 0.039576 0.002796
v 0.017363 0.009780 0.007468
v 0.014117 0.004899 0.005959
v 0.020247 0.029734 0.009651
v 0.020926 0.023029 0.009787
v 0.010433 0.040322 0.004872
v 0.010724 0.001571 0.004521
v 0.020048 0.016144 0.008976
v 0.014693 0.038951 0.006916
v 0.018077 0.035328 0.008596
v 0.007121 0.000102 -0.002772
v 0.007121 0.000102 0.003026
v 0.015367 0.016144 0.015818
v 0.013325 0.009780 0.013461
v 0.013878 0.035293 0.014559
v 0.015524 0.029734 0.016358
v 0.004616 0.039569 0.004770
v 0.010838 0.004899 0.010861
v 0.016026 0.023029 0.016824
v 0.008022 0.040256 0.008327
v 0.008238 0.001571 0.008241
v 0.011288 0.038904 0.011776
v 0.002574 0.039521 0.005961
v 0.004432 0.040204 0.010389
v 0.005930 0.004899 0.014111
v 0.004515 0.001571 0.010728
v 0.008741 0.023029 0.021024
v 0.008389 0.016144 0.020090
v 0.006217 0.038889 0.014631
v 0.007633 0.035312 0.018007
v 0.005479 0.000102 0.005484
v 0.007288 0.009780 0.017349
v 0.008505 0.029734 0.020250
v 0.002574 0.039521 0.005961
v 0.005930 0.004899 0.014111
v 0.007288 0.009780 0.017349
v 0.008741 0.023029 0.021024
v 0.008505 0.029734 0.020250
v 0.004432 0.040204 0.010389
v 0.004515 0.001571 0.010728
v 0.008389 0.016144 0.020090
v 0.007633 0.035312 0.018007
v 0.006217 0.038889 0.014631
v 0.003021 0.000102 0.007126
v 0.003021 0.000102 0.007126
v 0.000210 0.047043 0.001559
v 0.000272 0.047195 0.001490
v 0.000008 0.047281 0.001186
v -0.000107 0.047143 0.001194
v 0.000702 0.046997 0.001592
v 0.000682 0.047155 0.001519
v 0.000272 0.047195 0.001490
v 0.000210 0.047043 0.001559
v -0.000208 0.045679 0.000474
v -0.000360 0.035996 -0.000029
v -0.000354 0.035995 0.000313
v -0.000245 0.045596 0.000939
v -0.000245 0.045596 0.000939
v 0.000064 0.045510 0.001288
v 0.000898 0.045504 0.001007
v 0.000537 0.045472 0.001316
v 0.000235 0.035997 0.000543
v 0.000473 0.035999 0.000297
v 0.000898 0.045504 0.001007
v 0.000473 0.035999 0.000297
v 0.000467 0.035999 -0.000045
v 0.000935 0.045587 0.000542
v 0.000935 0.045587 0.000542
v 0.000467 0.035999 -0.000045
v 0.000221 0.035999 -0.000282
v 0.000626 0.045672 0.000193
v 0.000626 0.045672 0.000193
v 0.000221 0.035999 -0.000282
v -0.000122 0.035997 -0.000276
v 0.000152 0.045710 0.000165
v 0.000152 0.045710 0.000165
v -0.000122 0.035997 -0.000276
v -0.000360 0.035996 -0.000029
v -0.000208 0.045679 0.000474
v 0.000235 0.035997 0.000543
v 0.000537 0.045472 0.001316
v 0.000064 0.045510 0.001288
v -0.000108 0.035995 0.000550
v 0.001081 0.047034 0.001275
v 0.000999 0.047186 0.001255
v 0.001124 0.047130 0.000792
v 0.001036 0.047269 0.000852
v 0.000807 0.047230 0.000427
v 0.000772 0.047355 0.000548
v 0.000315 0.047275 0.000394
v 0.000361 0.047394 0.000519
v -0.000063 0.047239 0.000711
v 0.000045 0.047363 0.000784
v -0.000354 0.035995 0.000313
v -0.000108 0.035995 0.000550
v 0.000272 0.047195 0.001490
v 0.000272 0.047195 0.001490
v 0.000682 0.047155 0.001519
v 0.000999 0.047186 0.001255
v 0.000999 0.047186 0.001255
v 0.001036 0.047269 0.000852
v 0.000772 0.047355 0.000548
v 0.000772 0.047355 0.000548
v 0.000361 0.047394 0.000519
v 0.000361 0.047394 0.000519
v 0.000045 0.047363 0.000784
v 0.000045 0.047363 0.000784
v 0.000008 0.047281 0.001186
vn 0.0050 0.9430 -0.3327
vn -0.0097 0.9999 -0.0082
vn 0.1362 0.9410 -0.3098
vn -0.0000 -1.0000 -0.0000
vn -0.0000 -0.9947 -0.1029
vn 0.0394 -0.9947 -0.0950
vn 0.0727 -0.9947 -0.0727
vn 0.2231 0.9399 -0.2586
vn 0.2794 0.9449 -0.1707
vn 0.0950 -0.9947 -0.0394
vn -0.0097 0.9999 -0.0079
vn 0.3064 0.9515 -0.0262
vn 0.1029 -0.9947 -0.0000
vn 0.0950 -0.9947 0.0394
vn 0.2745 0.9515 0.1390
vn 0.1950 0.9457 0.2600
vn 0.0727 -0.9947 0.0727
vn 0.1138 0.9419 0.3161
vn 0.0394 -0.9947 0.0950
vn -0.0000 -0.9947 0.1029
vn 0.0308 0.9437 0.3295
vn -0.1006 0.9498 0.2963
vn -0.0393 -0.9947 0.0950
vn -0.2504 0.9491 0.1913
vn -0.0727 -0.9947 0.0727
vn -0.3300 0.9402 0.0843
vn -0.0951 -0.9947 0.0393
vn -0.3300 0.9402 0.0842
vn -0.0098 0.9999 -0.0080
vn -0.3426 0.9395 -0.0029
vn -0.0950 -0.9947 0.0393
vn -0.1029 -0.9947 -0.0000
vn -0.3097 0.9422 -0.1281
vn -0.0950 -0.9947 -0.0394
vn -0.2324 0.9414 -0.2445
vn -0.0727 -0.9947 -0.0727
vn -0.1276 0.9424 -0.3091
vn -0.0394 -0.9947 -0.0950
vn -0.0053 -0.2690 0.9631
vn -0.0107 0.0009 0.9999
vn -0.3500 -0.0039 0.9367
vn -0.3434 -0.2790 0.8968
vn -0.0090 0.5488 0.8359
vn -0.0003 0.8490 0.5283
vn -0.1726 0.8504 0.4970
vn -0.2844 0.5515 0.7842
vn 0.1419 -0.9882 -0.0577
vn 0.4930 -0.8476 -0.1964
vn 0.5356 -0.8445 0.0026
vn 0.1541 -0.9880 -0.0000
vn -0.0014 -0.4923 0.8704
vn -0.3186 -0.4994 0.8056
vn -0.0122 0.2601 0.9655
vn -0.3322 0.2629 0.9058
vn 0.0087 0.9607 -0.2774
vn 0.1160 0.9596 -0.2565
vn -0.0003 -0.6564 0.7544
vn -0.2832 -0.6593 0.6965
vn 0.0079 0.9962 0.0870
vn -0.0124 0.9965 0.0831
vn -0.0002 -0.8424 0.5389
vn -0.2053 -0.8428 0.4976
vn -0.5607 0.5614 0.6086
vn -0.6529 0.2646 0.7097
vn 0.1871 0.9596 -0.2099
vn -0.5969 -0.5134 0.6165
vn -0.5252 -0.6641 0.5321
vn -0.6806 -0.0191 0.7324
vn -0.0542 0.9970 0.0554
vn -0.3792 -0.8434 0.3807
vn -0.6555 -0.3006 0.6928
vn -0.3516 0.8556 0.3798
vn -0.0000 -0.9880 0.1543
vn -0.0590 -0.9880 0.1425
vn -0.4751 0.8593 0.1895
vn -0.7579 0.5675 0.3217
vn -0.1090 -0.9880 0.1091
vn -0.8742 -0.3110 0.3728
vn -0.7882 -0.5185 0.3316
vn -0.8860 0.2626 0.3822
vn 0.2381 0.9610 -0.1408
vn -0.6894 -0.6652 0.2867
vn -0.9179 -0.0297 0.3957
vn -0.0808 0.9967 0.0073
vn -0.4963 -0.8435 0.2056
vn -0.8860 0.2627 0.3821
vn -0.9664 0.2569 0.0029
vn -0.9995 -0.0325 0.0048
vn 0.2382 0.9610 -0.1408
vn 0.2649 0.9640 -0.0232
vn -0.0816 0.9965 -0.0190
vn -0.4963 -0.8435 0.2055
vn -0.6894 -0.6652 0.2866
vn -0.7496 -0.6619 -0.0003
vn -0.5385 -0.8426 -0.0004
vn -0.8743 -0.3110 0.3727
vn -0.9515 -0.3077 0.0028
vn -0.7580 0.5675 0.3216
vn -0.5113 0.8593 -0.0113
vn -0.8247 0.5656 -0.0029
vn -0.7883 -0.5185 0.3313
vn -0.8583 -0.5132 0.0007
vn -0.7655 0.5619 -0.3137
vn -0.8967 0.2507 -0.3648
vn 0.2365 0.9649 0.1143
vn -0.7976 -0.5070 -0.3267
vn -0.6955 -0.6590 -0.2864
vn -0.9264 -0.0325 -0.3750
vn -0.0821 0.9963 -0.0272
vn -0.4984 -0.8421 -0.2060
vn -0.8832 -0.3011 -0.3595
vn -0.4759 0.8577 -0.1949
vn -0.1425 -0.9880 0.0590
vn -0.7069 -0.0327 -0.7066
vn -0.6742 -0.2975 -0.6760
vn -0.3717 0.8552 -0.3612
vn -0.5877 0.5576 -0.5862
vn -0.1544 -0.9880 -0.0001
vn -0.1427 -0.9880 -0.0591
vn -0.6098 -0.5046 -0.6112
vn -0.6851 0.2461 -0.6856
vn 0.1656 0.9633 0.2111
vn -0.5314 -0.6588 -0.5325
vn -0.0757 0.9959 -0.0498
vn -0.3817 -0.8419 -0.3814
vn -0.3655 0.2445 -0.8981
vn -0.3765 -0.0327 -0.9258
vn 0.0939 0.9622 0.2555
vn -0.0406 0.9962 -0.0769
vn -0.2863 -0.6600 -0.6946
vn -0.2061 -0.8425 -0.4978
vn -0.3597 -0.2968 -0.8846
vn -0.2020 0.8556 -0.4766
vn -0.3162 0.5572 -0.7679
vn -0.1091 -0.9880 -0.1092
vn -0.3263 -0.5061 -0.7984
vn -0.3262 -0.5061 -0.7984
vn -0.3595 -0.2968 -0.8847
vn -0.0043 -0.3061 -0.9520
vn -0.0048 -0.5191 -0.8547
vn -0.3652 0.2445 -0.8982
vn -0.3161 0.5572 -0.7679
vn -0.0058 0.5684 -0.8227
vn -0.0036 0.2531 -0.9674
vn 0.0208 0.9626 0.2700
vn -0.2862 -0.6600 -0.6946
vn -0.0051 -0.6686 -0.7436
vn -0.3763 -0.0327 -0.9259
vn -0.0039 -0.0329 -0.9995
vn 0.0079 0.9966 -0.0814
vn -0.0028 -0.8451 -0.5346
vn -0.2019 0.8556 -0.4766
vn -0.0031 0.8614 -0.5078
vn -0.0591 -0.9880 -0.1426
vn 0.3964 -0.0328 -0.9175
vn 0.3722 -0.3224 -0.8704
vn 0.1927 0.8684 -0.4569
vn 0.3165 0.5868 -0.7453
vn -0.0590 -0.9880 -0.1427
vn -0.0006 -0.9881 -0.1537
vn 0.3258 -0.5406 -0.7757
vn 0.3812 0.2701 -0.8842
vn -0.0889 0.9654 0.2450
vn 0.2790 -0.6835 -0.6745
vn 0.0365 0.9967 -0.0720
vn 0.2006 -0.8494 -0.4881
vn 0.6181 -0.5459 -0.5656
vn 0.5253 -0.6880 -0.5007
vn 0.7257 0.2757 -0.6304
vn 0.7553 -0.0290 -0.6548
vn -0.2087 0.9648 0.1600
vn 0.0493 0.9966 -0.0663
vn 0.3759 -0.8507 -0.3673
vn 0.7090 -0.3238 -0.6265
vn 0.3644 0.8681 -0.3370
vn 0.6042 0.5898 -0.5359
vn 0.0581 -0.9883 -0.1410
vn 0.9046 -0.3054 -0.2972
vn 0.8011 -0.5277 -0.2825
vn 0.7788 0.5734 -0.2544
vn 0.9200 0.2649 -0.2890
vn -0.2726 0.9598 0.0673
vn 0.6879 -0.6772 -0.2611
vn 0.9538 -0.0230 -0.2996
vn 0.0686 0.9967 -0.0427
vn 0.4797 0.8610 -0.1689
vn 0.1082 -0.9883 -0.1074
vn 0.6879 -0.6772 -0.2610
vn 0.7455 -0.6665 0.0095
vn 0.9047 -0.3054 -0.2971
vn 0.9538 -0.0230 -0.2995
vn 0.9986 -0.0221 0.0477
vn 0.9560 -0.2911 0.0364
vn 0.7789 0.5734 -0.2540
vn 0.4798 0.8610 -0.1688
vn 0.5197 0.8541 0.0219
vn 0.8284 0.5589 0.0371
vn 0.8594 -0.5109 0.0216
vn 0.9200 0.2649 -0.2888
vn 0.9666 0.2519 0.0473
vn -0.2842 0.9588 -0.0056
vn 0.0686 0.9967 -0.0428
vn 0.0839 0.9965 0.0059
vn -0.2560 0.9617 -0.0981
vn 0.7932 -0.5097 0.3332
vn 0.6904 -0.6642 0.2869
vn 0.8860 0.2478 0.3919
vn 0.9153 -0.0293 0.4016
vn 0.0803 0.9956 0.0482
vn 0.4962 -0.8436 0.2053
vn 0.8782 -0.2953 0.3764
vn 0.4760 0.8527 0.2150
vn 0.7583 0.5587 0.3359
vn 0.1424 -0.9880 0.0590
vn 0.6571 -0.2979 0.6924
vn 0.6005 -0.5109 0.6152
vn 0.5527 0.5610 0.6162
vn 0.6485 0.2508 0.7187
vn -0.1893 0.9638 -0.1879
vn 0.5267 -0.6641 0.5306
vn 0.6762 -0.0295 0.7362
vn 0.0567 0.9952 0.0794
vn 0.3794 -0.8436 0.3800
vn 0.3454 0.8536 0.3899
vn -0.1031 0.9627 -0.2501
vn 0.0238 0.9956 0.0906
vn 0.2827 -0.6599 0.6961
vn 0.2050 -0.8429 0.4975
vn 0.3324 -0.0136 0.9430
vn 0.3354 -0.2825 0.8987
vn 0.1672 0.8512 0.4975
vn 0.2662 0.5550 0.7881
vn 0.1090 -0.9880 0.1090
vn 0.3169 -0.5008 0.8055
vn 0.3116 0.2554 0.9153
vn 0.2825 -0.6599 0.6962
vn 0.3166 -0.5008 0.8056
vn 0.3322 -0.0135 0.9431
vn 0.3114 0.2554 0.9153
vn 0.2049 -0.8429 0.4975
vn 0.2661 0.5550 0.7881
vn 0.0590 -0.9880 0.1425
vn 0.0589 -0.9880 0.1425
vn -0.4070 0.1759 0.8963
vn -0.3126 0.4912 0.8130
vn -0.7051 0.6083 0.3643
vn -0.8794 0.3159 0.3561
vn 0.3156 0.0982 0.9438
vn 0.2862 0.4318 0.8554
vn -0.3126 0.4911 0.8131
vn -0.4070 0.1758 0.8964
vn -0.9968 0.0605 -0.0516
vn -0.9992 0.0156 -0.0366
vn -0.9971 0.0565 -0.0503
vn -0.7430 -0.0398 0.6681
vn -0.7420 -0.0397 0.6692
vn 0.6628 -0.1458 0.7345
vn 0.6638 -0.1427 0.7342
vn 0.6804 -0.0830 0.7282
vn 0.9951 -0.0880 0.0458
vn 0.9983 -0.0489 0.0332
vn 0.9947 -0.0914 0.0469
vn 0.7396 0.0088 -0.6730
vn 0.7262 0.0050 -0.6875
vn 0.7262 0.0051 -0.6875
vn 0.7405 0.0090 -0.6720
vn 0.0517 0.0925 -0.9944
vn 0.0280 0.0462 -0.9985
vn 0.0517 0.0926 -0.9944
vn -0.6642 0.1149 -0.7387
vn -0.6808 0.0505 -0.7307
vn -0.6809 0.0505 -0.7306
vn -0.6652 0.1111 -0.7384
vn -0.0294 -0.0786 0.9965
vn -0.0534 -0.1232 0.9909
vn -0.0536 -0.1238 0.9909
vn 0.8720 0.1288 0.4723
vn 0.7506 0.4649 0.4695
vn 0.9353 0.2510 -0.2495
vn 0.8097 0.5723 -0.1298
vn 0.4613 0.3917 -0.7961
vn 0.4179 0.6899 -0.5911
vn -0.2680 0.4678 -0.8422
vn -0.1932 0.7482 -0.6348
vn -0.8227 0.4365 -0.3642
vn -0.6590 0.7138 -0.2372
vn -0.7280 -0.0382 0.6845
vn 0.0787 0.9750 0.2078
vn 0.0788 0.9750 0.2078
vt 0.481491 0.873789
vt 0.507006 0.871771
vt 0.481413 0.868833
vt 0.025194 0.835977
vt 0.060531 0.846856
vt 0.062283 0.837413
vt 0.061269 0.827861
vt 0.482517 0.864064
vt 0.484803 0.859722
vt 0.057587 0.818929
vt 0.047491 0.623585
vt 0.025194 0.634653
vt 0.049696 0.627873
vt 0.511486 0.597781
vt 0.477908 0.581805
vt 0.474508 0.591058
vt 0.473909 0.600804
vt 0.050755 0.632718
vt 0.050443 0.637669
vt 0.476001 0.610326
vt 0.048914 0.642232
vt 0.480802 0.618936
vt 0.516540 0.161770
vt 0.486886 0.141172
vt 0.482115 0.149505
vt 0.050287 0.104128
vt 0.025194 0.110394
vt 0.051524 0.109125
vt 0.051543 0.114274
vt 0.479954 0.158824
vt 0.050125 0.119146
vt 0.480588 0.168412
vt 0.047520 0.123381
vt 0.483962 0.177420
vt 0.049454 0.356162
vt 0.025194 0.364458
vt 0.051089 0.360963
vt 0.512780 0.392545
vt 0.482285 0.373037
vt 0.477846 0.381541
vt 0.051532 0.366065
vt 0.476067 0.390921
vt 0.050581 0.370916
vt 0.476959 0.400415
vt 0.048431 0.375272
vt 0.480590 0.409293
vt 0.056127 0.855510
vt 0.482742 0.878413
vt 0.231720 0.897129
vt 0.269678 0.899004
vt 0.273179 0.844937
vt 0.237435 0.845129
vt 0.349973 0.899285
vt 0.380031 0.895025
vt 0.377532 0.855880
vt 0.348081 0.852400
vt 0.456442 0.351607
vt 0.433673 0.331452
vt 0.418886 0.358626
vt 0.446498 0.369581
vt 0.183843 0.887975
vt 0.190358 0.843576
vt 0.312834 0.901874
vt 0.313132 0.848911
vt 0.447653 0.881027
vt 0.445162 0.864292
vt 0.150954 0.879227
vt 0.156952 0.841845
vt 0.410082 0.889525
vt 0.407834 0.859580
vt 0.120359 0.869436
vt 0.125867 0.840253
vt 0.353992 0.808026
vt 0.318071 0.799691
vt 0.448849 0.848919
vt 0.188547 0.798159
vt 0.154352 0.803778
vt 0.276983 0.794205
vt 0.414068 0.831334
vt 0.122980 0.810605
vt 0.239219 0.794488
vt 0.383916 0.818449
vt 0.092334 0.858653
vt 0.096109 0.838874
vt 0.403492 0.781238
vt 0.371972 0.762086
vt 0.093988 0.818851
vt 0.235526 0.736407
vt 0.177504 0.750748
vt 0.331472 0.745870
vt 0.459289 0.836153
vt 0.141722 0.765304
vt 0.282037 0.736307
vt 0.431094 0.805773
vt 0.111078 0.781750
vt 0.253312 0.499721
vt 0.204418 0.507979
vt 0.216189 0.563816
vt 0.257354 0.556723
vt 0.102089 0.569155
vt 0.072754 0.599857
vt 0.082283 0.613708
vt 0.119260 0.596258
vt 0.422872 0.545722
vt 0.391226 0.529998
vt 0.379863 0.569071
vt 0.411629 0.575500
vt 0.297861 0.501204
vt 0.295307 0.557608
vt 0.162876 0.524564
vt 0.130212 0.544590
vt 0.151306 0.583667
vt 0.180279 0.573720
vt 0.355094 0.514996
vt 0.345671 0.562854
vt 0.187935 0.620700
vt 0.222585 0.616701
vt 0.086637 0.629946
vt 0.344859 0.609119
vt 0.378025 0.607632
vt 0.261453 0.611604
vt 0.126903 0.626403
vt 0.409437 0.605556
vt 0.297190 0.611130
vt 0.159638 0.623524
vt 0.085820 0.799716
vt 0.265378 0.666278
vt 0.302656 0.664400
vt 0.158309 0.663404
vt 0.188086 0.667490
vt 0.441091 0.582982
vt 0.439645 0.603356
vt 0.351425 0.654614
vt 0.224454 0.669728
vt 0.085038 0.646682
vt 0.384690 0.645355
vt 0.124966 0.656991
vt 0.415548 0.634991
vt 0.220515 0.728495
vt 0.269975 0.728495
vt 0.079036 0.663063
vt 0.113242 0.686413
vt 0.401119 0.682882
vt 0.430807 0.663463
vt 0.313730 0.722014
vt 0.145526 0.705552
vt 0.178047 0.719034
vt 0.443930 0.623316
vt 0.367487 0.701577
vt 0.377729 0.056961
vt 0.322912 0.034383
vt 0.308499 0.100126
vt 0.358204 0.107162
vt 0.227579 0.025194
vt 0.183247 0.033819
vt 0.193645 0.090035
vt 0.230410 0.092834
vt 0.083436 0.086046
vt 0.089616 0.102394
vt 0.410901 0.076578
vt 0.392638 0.114152
vt 0.278444 0.025261
vt 0.271591 0.094670
vt 0.118023 0.064162
vt 0.129305 0.095617
vt 0.439150 0.097166
vt 0.423401 0.124313
vt 0.150848 0.047010
vt 0.161638 0.091220
vt 0.454471 0.641905
vt 0.265666 0.151984
vt 0.300116 0.153901
vt 0.162657 0.131762
vt 0.193617 0.138278
vt 0.461656 0.118468
vt 0.450987 0.136358
vt 0.348930 0.153600
vt 0.228241 0.146559
vt 0.089045 0.120412
vt 0.384333 0.152462
vt 0.130338 0.127069
vt 0.416591 0.153437
vt 0.349496 0.196838
vt 0.385980 0.190113
vt 0.220931 0.192643
vt 0.260811 0.198946
vt 0.083623 0.136441
vt 0.121587 0.156005
vt 0.418359 0.183558
vt 0.297646 0.201044
vt 0.154070 0.169979
vt 0.184324 0.181444
vt 0.446252 0.155971
vt 0.302152 0.257528
vt 0.361148 0.243509
vt 0.161668 0.227665
vt 0.203449 0.247239
vt 0.073390 0.151183
vt 0.397774 0.228837
vt 0.254974 0.258887
vt 0.102371 0.181568
vt 0.429330 0.213195
vt 0.130001 0.206437
vt 0.447644 0.176283
vt 0.405161 0.311637
vt 0.388477 0.348633
vt 0.316651 0.273219
vt 0.273572 0.266699
vt 0.269080 0.330344
vt 0.306690 0.330846
vt 0.180691 0.276210
vt 0.145843 0.290731
vt 0.158797 0.335447
vt 0.190233 0.331914
vt 0.448763 0.563303
vt 0.371109 0.293062
vt 0.355436 0.339335
vt 0.224421 0.266706
vt 0.227290 0.330060
vt 0.080560 0.335190
vt 0.087879 0.351585
vt 0.114131 0.310411
vt 0.126730 0.342065
vt 0.088420 0.369603
vt 0.348579 0.384133
vt 0.381895 0.385703
vt 0.226076 0.385445
vt 0.265174 0.386992
vt 0.129423 0.373418
vt 0.412949 0.387707
vt 0.300824 0.384148
vt 0.162766 0.376791
vt 0.191402 0.381017
vt 0.455258 0.195773
vt 0.442543 0.389239
vt 0.299127 0.433911
vt 0.349660 0.428961
vt 0.184784 0.423220
vt 0.220619 0.431189
vt 0.086022 0.385908
vt 0.384113 0.423753
vt 0.261476 0.437297
vt 0.123358 0.401338
vt 0.415494 0.417252
vt 0.155602 0.413768
vt 0.077094 0.398497
vt 0.106917 0.424911
vt 0.396158 0.462487
vt 0.427090 0.446384
vt 0.258133 0.491908
vt 0.303742 0.490776
vt 0.135058 0.447590
vt 0.164748 0.465529
vt 0.444369 0.409219
vt 0.360522 0.477258
vt 0.207240 0.482433
vt 0.452364 0.897468
vt 0.135157 0.916463
vt 0.169057 0.934467
vt 0.266151 0.959245
vt 0.315831 0.959245
vt 0.419527 0.919267
vt 0.105816 0.897439
vt 0.222453 0.953571
vt 0.357795 0.950046
vt 0.388508 0.936817
vt 0.452450 0.428352
vt 0.082497 0.877066
vt 0.780403 0.090253
vt 0.780962 0.090292
vt 0.779740 0.087347
vt 0.778945 0.087361
vt 0.778809 0.069804
vt 0.779601 0.069811
vt 0.779171 0.066754
vt 0.778250 0.066727
vt 0.777778 0.084097
vt 0.707468 0.083480
vt 0.707536 0.086154
vt 0.777000 0.087055
vt 0.774789 0.090043
vt 0.777841 0.072761
vt 0.778889 0.070014
vt 0.707781 0.070120
vt 0.707692 0.072783
vt 0.707572 0.075451
vt 0.777772 0.075555
vt 0.707470 0.078125
vt 0.777808 0.078400
vt 0.707432 0.080802
vt 0.777711 0.081232
vt 0.779217 0.067220
vt 0.707795 0.067455
vt 0.779459 0.072714
vt 0.780155 0.072717
vt 0.779504 0.075530
vt 0.780214 0.075546
vt 0.779503 0.078389
vt 0.780230 0.078414
vt 0.779470 0.081408
vt 0.780203 0.081410
vt 0.779310 0.084363
vt 0.780060 0.084354
vt 0.707584 0.088819
vt 0.867867 0.065652
vt 0.862077 0.067460
vt 0.865349 0.067760
vt 0.859968 0.064928
vt 0.868157 0.062371
vt 0.860257 0.061647
vt 0.866047 0.059839
vt 0.862775 0.059539
s 1
usemtl Apple_Baked
f 1/1/1 2/2/2 3/3/3
f 4/4/4 5/5/5 6/6/6
f 4/4/4 6/6/6 7/7/7
f 3/3/3 2/2/2 8/8/8
f 8/8/8 2/2/2 9/9/9
f 4/4/4 7/7/7 10/10/10
f 11/11/9 12/12/11 13/13/12
f 14/14/4 15/15/10 16/16/13
f 14/14/4 16/16/13 17/17/14
f 13/13/12 12/12/11 18/18/15
f 18/18/15 12/12/11 19/19/16
f 14/14/4 17/17/14 20/20/17
f 19/19/16 12/12/11 21/21/18
f 14/14/4 20/20/17 22/22/19
f 23/23/4 24/24/19 25/25/20
f 26/26/18 27/27/11 28/28/21
f 28/28/21 27/27/11 29/29/22
f 23/23/4 25/25/20 30/30/23
f 29/29/22 27/27/11 31/31/24
f 23/23/4 30/30/23 32/32/25
f 31/31/24 27/27/11 33/33/26
f 23/23/4 32/32/25 34/34/27
f 35/35/28 36/36/29 37/37/30
f 38/38/4 39/39/31 40/40/32
f 37/37/30 36/36/29 41/41/33
f 38/38/4 40/40/32 42/42/34
f 41/41/33 36/36/29 43/43/35
f 38/38/4 42/42/34 44/44/36
f 43/43/35 36/36/29 45/45/37
f 38/38/4 44/44/36 46/46/38
f 4/4/4 47/47/38 5/5/5
f 48/48/37 2/2/2 1/1/1
f 49/49/39 50/50/40 51/51/41
f 49/49/39 51/51/41 52/52/42
f 53/53/43 54/54/44 55/55/45
f 53/53/43 55/55/45 56/56/46
f 57/57/47 58/58/48 59/59/49
f 57/57/47 59/59/49 60/60/50
f 61/61/51 49/49/39 52/52/42
f 61/61/51 52/52/42 62/62/52
f 63/63/53 53/53/43 56/56/46
f 63/63/53 56/56/46 64/64/54
f 65/65/55 1/1/1 3/3/3
f 65/65/55 3/3/3 66/66/56
f 67/67/57 61/61/51 62/62/52
f 67/67/57 62/62/52 68/68/58
f 50/50/40 63/63/53 64/64/54
f 50/50/40 64/64/54 51/51/41
f 69/69/59 65/65/55 66/66/56
f 69/69/59 66/66/56 70/70/60
f 71/71/61 67/67/57 68/68/58
f 71/71/61 68/68/58 72/72/62
f 64/64/54 56/56/46 73/73/63
f 64/64/54 73/73/63 74/74/64
f 66/66/56 3/3/3 8/8/8
f 66/66/56 8/8/8 75/75/65
f 68/68/58 62/62/52 76/76/66
f 68/68/58 76/76/66 77/77/67
f 51/51/41 64/64/54 74/74/64
f 51/51/41 74/74/64 78/78/68
f 70/70/60 66/66/56 75/75/65
f 70/70/60 75/75/65 79/79/69
f 72/72/62 68/68/58 77/77/67
f 72/72/62 77/77/67 80/80/70
f 52/52/42 51/51/41 78/78/68
f 52/52/42 78/78/68 81/81/71
f 56/56/46 55/55/45 82/82/72
f 56/56/46 82/82/72 73/73/63
f 83/83/73 71/71/61 72/72/62
f 83/83/73 72/72/62 84/84/74
f 62/62/52 52/52/42 81/81/71
f 62/62/52 81/81/71 76/76/66
f 73/73/63 82/82/72 85/85/75
f 73/73/63 85/85/75 86/86/76
f 84/84/74 72/72/62 80/80/70
f 84/84/74 80/80/70 87/87/77
f 76/76/66 81/81/71 88/88/78
f 76/76/66 88/88/78 89/89/79
f 74/74/64 73/73/63 86/86/76
f 74/74/64 86/86/76 90/90/80
f 75/75/65 8/8/8 9/9/9
f 75/75/65 9/9/9 91/91/81
f 77/77/67 76/76/66 89/89/79
f 77/77/67 89/89/79 92/92/82
f 78/78/68 74/74/64 90/90/80
f 78/78/68 90/90/80 93/93/83
f 79/79/69 75/75/65 91/91/81
f 79/79/69 91/91/81 94/94/84
f 80/80/70 77/77/67 92/92/82
f 80/80/70 92/92/82 95/95/85
f 81/81/71 78/78/68 93/93/83
f 81/81/71 93/93/83 88/88/78
f 96/96/83 97/97/86 98/98/87
f 96/96/83 98/98/87 99/99/88
f 100/100/84 101/101/89 102/102/90
f 100/100/84 102/102/90 103/103/91
f 104/104/92 105/105/93 106/106/94
f 104/104/92 106/106/94 107/107/95
f 108/108/96 96/96/83 99/99/88
f 108/108/96 99/99/88 109/109/97
f 110/110/98 111/111/75 112/112/99
f 110/110/98 112/112/99 113/113/100
f 114/114/101 108/108/96 109/109/97
f 114/114/101 109/109/97 115/115/102
f 97/97/86 110/110/98 113/113/100
f 97/97/86 113/113/100 98/98/87
f 101/101/89 11/11/9 13/13/12
f 101/101/89 13/13/12 102/102/90
f 105/105/93 114/114/101 115/115/102
f 105/105/93 115/115/102 106/106/94
f 98/98/87 113/113/100 116/116/103
f 98/98/87 116/116/103 117/117/104
f 102/102/90 13/13/12 18/18/15
f 102/102/90 18/18/15 118/118/105
f 106/106/94 115/115/102 119/119/106
f 106/106/94 119/119/106 120/120/107
f 99/99/88 98/98/87 117/117/104
f 99/99/88 117/117/104 121/121/108
f 103/103/91 102/102/90 118/118/105
f 103/103/91 118/118/105 122/122/109
f 107/107/95 106/106/94 120/120/107
f 107/107/95 120/120/107 123/123/110
f 109/109/97 99/99/88 121/121/108
f 109/109/97 121/121/108 124/124/111
f 113/113/100 112/112/99 125/125/112
f 113/113/100 125/125/112 116/116/103
f 87/87/77 80/80/70 95/95/85
f 87/87/77 95/95/85 126/126/113
f 115/115/102 109/109/97 124/124/111
f 115/115/102 124/124/111 119/119/106
f 124/124/111 121/121/108 127/127/114
f 124/124/111 127/127/114 128/128/115
f 116/116/103 125/125/112 129/129/116
f 116/116/103 129/129/116 130/130/117
f 131/131/118 107/107/95 123/123/110
f 131/131/118 123/123/110 132/132/119
f 119/119/106 124/124/111 128/128/115
f 119/119/106 128/128/115 133/133/120
f 117/117/104 116/116/103 130/130/117
f 117/117/104 130/130/117 134/134/121
f 118/118/105 18/18/15 19/19/16
f 118/118/105 19/19/16 135/135/122
f 120/120/107 119/119/106 133/133/120
f 120/120/107 133/133/120 136/136/123
f 121/121/108 117/117/104 134/134/121
f 121/121/108 134/134/121 127/127/114
f 122/122/109 118/118/105 135/135/122
f 122/122/109 135/135/122 137/137/124
f 123/123/110 120/120/107 136/136/123
f 123/123/110 136/136/123 138/138/125
f 127/127/114 134/134/121 139/139/126
f 127/127/114 139/139/126 140/140/127
f 137/137/124 135/135/122 141/141/128
f 137/137/124 141/141/128 142/142/129
f 138/138/125 136/136/123 143/143/130
f 138/138/125 143/143/130 144/144/131
f 128/128/115 127/127/114 140/140/127
f 128/128/115 140/140/127 145/145/132
f 130/130/117 129/129/116 146/146/133
f 130/130/117 146/146/133 147/147/134
f 132/132/119 123/123/110 138/138/125
f 132/132/119 138/138/125 148/148/135
f 133/133/120 128/128/115 145/145/132
f 133/133/120 145/145/132 149/149/136
f 134/134/121 130/130/117 147/147/134
f 134/134/121 147/147/134 139/139/126
f 135/135/122 19/19/16 21/21/18
f 135/135/122 21/21/18 141/141/128
f 136/136/123 133/133/120 149/149/136
f 136/136/123 149/149/136 143/143/130
f 150/150/137 151/151/138 152/152/139
f 150/150/137 152/152/139 153/153/140
f 154/154/141 155/155/142 156/156/143
f 154/154/141 156/156/143 157/157/144
f 158/158/128 26/26/18 28/28/21
f 158/158/128 28/28/21 159/159/145
f 160/160/146 150/150/137 153/153/140
f 160/160/146 153/153/140 161/161/147
f 162/162/148 154/154/141 157/157/144
f 162/162/148 157/157/144 163/163/149
f 164/164/129 158/158/128 159/159/145
f 164/164/129 159/159/145 165/165/150
f 166/166/131 160/160/146 161/161/147
f 166/166/131 161/161/147 167/167/151
f 151/151/138 162/162/148 163/163/149
f 151/151/138 163/163/149 152/152/139
f 155/155/142 168/168/152 169/169/153
f 155/155/142 169/169/153 156/156/143
f 148/148/135 138/138/125 144/144/131
f 148/148/135 144/144/131 170/170/154
f 152/152/139 163/163/149 171/171/155
f 152/152/139 171/171/155 172/172/156
f 156/156/143 169/169/153 173/173/157
f 156/156/143 173/173/157 174/174/158
f 175/175/159 166/166/131 167/167/151
f 175/175/159 167/167/151 176/176/160
f 153/153/140 152/152/139 172/172/156
f 153/153/140 172/172/156 177/177/161
f 157/157/144 156/156/143 174/174/158
f 157/157/144 174/174/158 178/178/162
f 159/159/145 28/28/21 29/29/22
f 159/159/145 29/29/22 179/179/163
f 161/161/147 153/153/140 177/177/161
f 161/161/147 177/177/161 180/180/164
f 163/163/149 157/157/144 178/178/162
f 163/163/149 178/178/162 171/171/155
f 165/165/150 159/159/145 179/179/163
f 165/165/150 179/179/163 181/181/165
f 167/167/151 161/161/147 180/180/164
f 167/167/151 180/180/164 182/182/166
f 180/180/164 177/177/161 183/183/167
f 180/180/164 183/183/167 184/184/168
f 171/171/155 178/178/162 185/185/169
f 171/171/155 185/185/169 186/186/170
f 181/181/165 179/179/163 187/187/171
f 181/181/165 187/187/171 188/188/172
f 182/182/166 180/180/164 184/184/168
f 182/182/166 184/184/168 189/189/173
f 172/172/156 171/171/155 186/186/170
f 172/172/156 186/186/170 190/190/174
f 174/174/158 173/173/157 191/191/175
f 174/174/158 191/191/175 192/192/176
f 176/176/160 167/167/151 182/182/166
f 176/176/160 182/182/166 193/193/177
f 177/177/161 172/172/156 190/190/174
f 177/177/161 190/190/174 183/183/167
f 178/178/162 174/174/158 192/192/176
f 178/178/162 192/192/176 185/185/169
f 179/179/163 29/29/22 31/31/24
f 179/179/163 31/31/24 187/187/171
f 183/183/167 190/190/174 194/194/178
f 183/183/167 194/194/178 195/195/179
f 185/185/169 192/192/176 196/196/180
f 185/185/169 196/196/180 197/197/181
f 187/187/171 31/31/24 33/33/26
f 187/187/171 33/33/26 198/198/182
f 184/184/168 183/183/167 195/195/179
f 184/184/168 195/195/179 199/199/183
f 186/186/170 185/185/169 197/197/181
f 186/186/170 197/197/181 200/200/184
f 188/188/172 187/187/171 198/198/182
f 188/188/172 198/198/182 201/201/185
f 189/189/173 184/184/168 199/199/183
f 189/189/173 199/199/183 202/202/48
f 190/190/174 186/186/170 200/200/184
f 190/190/174 200/200/184 194/194/178
f 192/192/176 191/191/175 203/203/186
f 192/192/176 203/203/186 196/196/180
f 193/193/177 182/182/166 189/189/173
f 193/193/177 189/189/173 204/204/187
f 58/58/48 205/205/188 206/206/189
f 58/58/48 206/206/189 59/59/49
f 207/207/190 208/208/191 209/209/192
f 207/207/190 209/209/192 210/210/193
f 211/211/194 212/212/195 213/213/196
f 211/211/194 213/213/196 214/214/197
f 215/215/113 104/104/92 107/107/95
f 215/215/113 107/107/95 131/131/118
f 216/216/179 207/207/190 210/210/193
f 216/216/179 210/210/193 217/217/198
f 218/218/199 211/211/194 214/214/197
f 218/218/199 214/214/197 219/219/200
f 220/220/182 35/35/28 37/37/30
f 220/220/182 37/37/30 221/221/201
f 205/205/188 216/216/179 217/217/198
f 205/205/188 217/217/198 206/206/189
f 208/208/191 218/218/199 219/219/200
f 208/208/191 219/219/200 209/209/192
f 222/222/202 220/220/182 221/221/201
f 222/222/202 221/221/201 223/223/203
f 221/221/201 37/37/30 41/41/33
f 221/221/201 41/41/33 224/224/204
f 206/206/189 217/217/198 225/225/205
f 206/206/189 225/225/205 226/226/206
f 209/209/192 219/219/200 227/227/207
f 209/209/192 227/227/207 228/228/208
f 223/223/203 221/221/201 224/224/204
f 223/223/203 224/224/204 229/229/209
f 59/59/49 206/206/189 226/226/206
f 59/59/49 226/226/206 230/230/210
f 210/210/193 209/209/192 228/228/208
f 210/210/193 228/228/208 231/231/211
f 214/214/197 213/213/196 232/232/212
f 214/214/197 232/232/212 233/233/213
f 204/204/187 189/189/173 202/202/48
f 204/204/187 202/202/48 234/234/47
f 217/217/198 210/210/193 231/231/211
f 217/217/198 231/231/211 225/225/205
f 219/219/200 214/214/197 233/233/213
f 219/219/200 233/233/213 227/227/207
f 60/60/50 59/59/49 230/230/210
f 60/60/50 230/230/210 235/235/214
f 225/225/205 231/231/211 236/236/215
f 225/225/205 236/236/215 237/237/216
f 227/227/207 233/233/213 238/238/217
f 227/227/207 238/238/217 239/239/218
f 224/224/204 41/41/33 43/43/35
f 224/224/204 43/43/35 240/240/219
f 226/226/206 225/225/205 237/237/216
f 226/226/206 237/237/216 241/241/220
f 228/228/208 227/227/207 239/239/218
f 228/228/208 239/239/218 242/242/221
f 229/229/209 224/224/204 240/240/219
f 229/229/209 240/240/219 243/243/222
f 230/230/210 226/226/206 241/241/220
f 230/230/210 241/241/220 244/244/223
f 231/231/211 228/228/208 242/242/221
f 231/231/211 242/242/221 236/236/215
f 233/233/213 232/232/212 245/245/224
f 233/233/213 245/245/224 238/238/217
f 243/243/222 240/240/219 246/246/225
f 243/243/222 246/246/225 247/247/226
f 244/244/223 241/241/220 248/248/227
f 244/244/223 248/248/227 249/249/228
f 236/236/215 242/242/221 250/250/229
f 236/236/215 250/250/229 251/251/230
f 238/238/217 245/245/224 252/252/231
f 238/238/217 252/252/231 253/253/232
f 235/235/214 230/230/210 244/244/223
f 235/235/214 244/244/223 254/254/233
f 237/237/216 236/236/215 251/251/230
f 237/237/216 251/251/230 255/255/234
f 239/239/218 238/238/217 253/253/232
f 239/239/218 253/253/232 256/256/235
f 240/240/219 43/43/35 45/45/37
f 240/240/219 45/45/37 246/246/225
f 241/241/220 237/237/216 255/255/234
f 241/241/220 255/255/234 248/248/227
f 242/242/221 239/239/218 256/256/235
f 242/242/221 256/256/235 250/250/229
f 257/257/225 48/48/37 1/1/1
f 257/257/225 1/1/1 65/65/55
f 258/258/236 259/259/237 61/61/51
f 258/258/236 61/61/51 67/67/57
f 260/260/238 261/261/239 63/63/53
f 260/260/238 63/63/53 50/50/40
f 262/262/226 257/257/225 65/65/55
f 262/262/226 65/65/55 69/69/59
f 263/263/240 258/258/236 67/67/57
f 263/263/240 67/67/57 71/71/61
f 264/264/230 260/260/238 50/50/40
f 264/264/230 50/50/40 49/49/39
f 265/265/241 266/266/231 54/54/44
f 265/265/241 54/54/44 53/53/43
f 254/254/233 244/244/223 249/249/228
f 254/254/233 249/249/228 267/267/242
f 259/259/237 264/264/230 49/49/39
f 259/259/237 49/49/39 61/61/51
f 261/261/239 265/265/241 53/53/43
f 261/261/239 53/53/43 63/63/53
f 266/266/231 262/262/226 69/69/59
f 266/266/231 69/69/59 54/54/44
f 245/245/224 243/243/222 247/247/226
f 245/245/224 247/247/226 252/252/231
f 232/232/212 229/229/209 243/243/222
f 232/232/212 243/243/222 245/245/224
f 213/213/196 223/223/203 229/229/209
f 213/213/196 229/229/209 232/232/212
f 212/212/195 222/222/202 223/223/203
f 212/212/195 223/223/203 213/213/196
f 191/191/175 188/188/172 201/201/185
f 191/191/175 201/201/185 203/203/186
f 173/173/157 181/181/165 188/188/172
f 173/173/157 188/188/172 191/191/175
f 169/169/153 165/165/150 181/181/165
f 169/169/153 181/181/165 173/173/157
f 168/168/152 164/164/129 165/165/150
f 168/168/152 165/165/150 169/169/153
f 129/129/116 137/137/124 142/142/129
f 129/129/116 142/142/129 146/146/133
f 125/125/112 122/122/109 137/137/124
f 125/125/112 137/137/124 129/129/116
f 112/112/99 103/103/91 122/122/109
f 112/112/99 122/122/109 125/125/112
f 111/111/75 100/100/84 103/103/91
f 111/111/75 103/103/91 112/112/99
f 82/82/72 79/79/69 94/94/84
f 82/82/72 94/94/84 85/85/75
f 55/55/45 70/70/60 79/79/69
f 55/55/45 79/79/69 82/82/72
f 54/54/44 69/69/59 70/70/60
f 54/54/44 70/70/60 55/55/45
f 47/47/38 268/268/243 83/83/73
f 47/47/38 83/83/73 5/5/5
f 44/44/36 254/254/233 267/267/242
f 44/44/36 267/267/242 46/46/38
f 42/42/34 235/235/214 254/254/233
f 42/42/34 254/254/233 44/44/36
f 40/40/32 60/60/50 235/235/214
f 40/40/32 235/235/214 42/42/34
f 39/39/31 57/57/47 60/60/50
f 39/39/31 60/60/50 40/40/32
f 32/32/25 204/204/187 234/234/47
f 32/32/25 234/234/47 34/34/27
f 30/30/23 193/193/177 204/204/187
f 30/30/23 204/204/187 32/32/25
f 25/25/20 176/176/160 193/193/177
f 25/25/20 193/193/177 30/30/23
f 24/24/19 175/175/159 176/176/160
f 24/24/19 176/176/160 25/25/20
f 20/20/17 148/148/135 170/170/154
f 20/20/17 170/170/154 22/22/19
f 17/17/14 132/132/119 148/148/135
f 17/17/14 148/148/135 20/20/17
f 16/16/13 131/131/118 132/132/119
f 16/16/13 132/132/119 17/17/14
f 15/15/10 215/215/113 131/131/118
f 15/15/10 131/131/118 16/16/13
f 7/7/7 87/87/77 126/126/113
f 7/7/7 126/126/113 10/10/10
f 6/6/6 84/84/74 87/87/77
f 6/6/6 87/87/77 7/7/7
f 5/5/5 83/83/73 84/84/74
f 5/5/5 84/84/74 6/6/6
f 268/268/243 263/263/240 71/71/61
f 268/268/243 71/71/61 83/83/73
f 269/269/244 270/270/245 271/271/246
f 269/269/244 271/271/246 272/272/247
f 273/273/248 274/274/249 275/275/250
f 273/273/248 275/275/250 276/276/251
f 277/277/252 278/278/253 279/279/253
f 277/277/252 279/279/253 280/280/254
f 269/269/244 272/272/247 281/280/255
f 269/269/244 281/280/255 282/281/256
f 283/282/257 284/283/258 285/284/259
f 283/282/257 285/284/259 286/285/259
f 287/282/260 288/285/261 289/286/261
f 287/282/260 289/286/261 290/287/262
f 291/287/263 292/286/264 293/288/265
f 291/287/263 293/288/265 294/289/266
f 295/289/267 296/288/268 297/290/268
f 295/289/267 297/290/268 298/291/269
f 299/291/270 300/290/271 301/278/272
f 299/291/270 301/278/272 302/277/273
f 303/284/274 304/283/275 305/292/276
f 303/284/274 305/292/276 306/293/274
f 273/273/248 276/276/251 305/292/276
f 273/273/248 305/292/276 304/283/275
f 307/294/277 308/295/278 274/274/249
f 307/294/277 274/274/249 273/273/248
f 309/296/279 310/297/280 308/295/278
f 309/296/279 308/295/278 307/294/277
f 311/298/281 312/299/282 310/297/280
f 311/298/281 310/297/280 309/296/279
f 313/300/283 314/301/284 312/299/282
f 313/300/283 312/299/282 311/298/281
f 315/302/285 316/303/286 314/301/284
f 315/302/285 314/301/284 313/300/283
f 272/272/247 271/271/246 316/303/286
f 272/272/247 316/303/286 315/302/285
f 272/272/247 315/302/285 277/277/252
f 272/272/247 277/277/252 280/280/254
f 315/302/285 313/300/283 299/291/270
f 315/302/285 299/291/270 302/277/273
f 313/300/283 311/298/281 295/289/267
f 313/300/283 295/289/267 298/291/269
f 311/298/281 309/296/279 291/287/263
f 311/298/281 291/287/263 294/289/266
f 309/296/279 307/294/277 287/282/260
f 309/296/279 287/282/260 290/287/262
f 307/294/277 273/273/248 284/283/258
f 307/294/277 284/283/258 283/282/257
f 282/281/256 281/280/255 317/279/287
f 282/281/256 317/279/287 318/304/287
s 0
f 325/305/288 322/306/288 324/307/288
f 323/306/289 326/305/289 321/308/289
f 321/308/289 326/305/289 328/309/289
s 1
f 321/308/289 328/309/289 320/310/289
s 0
f 319/310/288 327/309/288 329/311/288
f 320/310/289 330/311/289 331/312/289
