# Blender 4.5.0
# www.blender.org
mtllib arabic_sweet_box.mtl
o Object_4
v 0.031500 0.045220 -0.004500
v 0.031500 0.045220 -0.004500
v 0.031500 0.045220 -0.004500
v 0.031500 0.000220 -0.004500
v 0.031500 0.000220 -0.004500
v 0.031500 0.000220 -0.004500
v 0.031500 0.045220 0.004500
v 0.031500 0.045220 0.004500
v 0.031500 0.045220 0.004500
v 0.031500 0.000220 0.004500
v 0.031500 0.000220 0.004500
v 0.031500 0.000220 0.004500
v -0.031500 0.045220 -0.004500
v -0.031500 0.045220 -0.004500
v -0.031500 0.045220 -0.004500
v -0.031500 0.000220 -0.004500
v -0.031500 0.000220 -0.004500
v -0.031500 0.000220 -0.004500
v -0.031500 0.045220 0.004500
v -0.031500 0.045220 0.004500
v -0.031500 0.045220 0.004500
v -0.031500 0.000220 0.004500
v -0.031500 0.000220 0.004500
v -0.031500 0.000220 0.004500
vn -0.0000 1.0000 -0.0000
vn -0.0000 -0.0000 1.0000
vn -1.0000 -0.0000 -0.0000
vn -0.0000 -1.0000 -0.0000
vn 1.0000 -0.0000 -0.0000
vn -0.0000 -0.0000 -1.0000
vt 1.000000 1.000777
vt 0.000000 1.000777
vt 0.000000 0.917414
vt 1.000000 0.917414
vt 1.000000 0.500700
vt 1.000000 0.917512
vt 0.000000 0.917512
vt 0.000000 0.500700
vt 0.857541 0.340978
vt 0.857541 0.757791
vt 1.000399 0.757791
vt 1.000399 0.340978
vt -0.005265 0.416995
vt 0.994730 0.415140
vt 0.995189 0.499451
vt -0.004806 0.501305
vt 0.145641 0.274309
vt 0.145641 0.691122
vt 0.002784 0.691122
vt 0.002784 0.274309
vt 1.004252 0.008695
vt 1.004252 0.425650
vt 0.001079 0.417872
vt 0.001079 0.000917
s 0
usemtl Material.001
f 2/1/1 14/2/1 20/3/1
f 2/1/1 20/3/1 8/4/1
f 10/5/2 7/6/2 19/7/2
f 10/5/2 19/7/2 22/8/2
f 24/9/3 21/10/3 15/11/3
f 24/9/3 15/11/3 18/12/3
f 17/13/4 5/14/4 11/15/4
f 17/13/4 11/15/4 23/16/4
f 6/17/5 3/18/5 9/19/5
f 6/17/5 9/19/5 12/20/5
f 16/21/6 13/22/6 1/23/6
f 16/21/6 1/23/6 4/24/6
