# Blender 4.5.0
# www.blender.org
mtllib bag_of_dorritos.mtl
o Dorrito_Dorrito_0
v 0.037293 0.000204 0.000000
v 0.070717 0.001746 0.000000
v 0.058847 0.014690 0.007201
v 0.037293 0.007351 0.005058
v 0.033000 0.022498 0.011296
v 0.051997 0.031851 0.013545
v -0.034967 0.179740 0.000000
v -0.070954 0.179966 0.000000
v -0.061804 0.171112 0.007245
v -0.034967 0.170887 0.010089
v -0.065022 0.030775 0.000000
v -0.070954 0.001272 0.000000
v -0.060203 0.014226 0.007201
v -0.055464 0.031420 0.013545
v 0.061979 0.031207 0.000000
v 0.053666 0.154129 0.008443
v 0.048345 0.141901 0.017312
v 0.057902 0.141901 0.000000
v 0.063223 0.157805 0.000000
v 0.050243 0.106684 0.021111
v 0.059800 0.106684 0.000000
v 0.050006 0.072654 0.021149
v 0.059563 0.072654 0.000000
v 0.048582 0.039574 0.017966
v 0.058139 0.039574 0.000000
v -0.065958 0.155319 0.000000
v -0.062411 0.137819 0.000000
v -0.053260 0.137819 0.013226
v -0.056808 0.151643 0.008576
v -0.063123 0.107064 0.000000
v -0.053972 0.107064 0.021111
v -0.061224 0.073461 0.000000
v -0.052073 0.073461 0.021149
v -0.061461 0.039146 0.000000
v -0.052311 0.039146 0.017966
v 0.030928 0.152680 0.013581
v 0.027823 0.140881 0.020551
v 0.029069 0.106779 0.024896
v 0.029366 0.072856 0.024984
v 0.029057 0.036516 0.019838
v -0.031027 0.073259 0.024984
v -0.032164 0.036389 0.019667
v -0.001609 0.036457 0.021464
v -0.000831 0.073058 0.028210
v -0.032392 0.106969 0.024896
v -0.001661 0.106874 0.028210
v -0.032333 0.138840 0.020651
v -0.002255 0.139860 0.024521
v -0.033426 0.152146 0.013640
v -0.001249 0.151231 0.014684
v 0.035299 0.178150 0.000000
v 0.000166 0.176097 0.000000
v 0.000166 0.167244 0.010089
v 0.035299 0.169297 0.010089
v -0.033628 0.023381 0.011196
v -0.034397 0.009676 0.005058
v -0.000119 0.008656 0.005058
v -0.000994 0.023001 0.012253
v -0.034397 0.002529 0.000000
v -0.000119 0.001509 0.000000
v 0.070717 0.180203 0.000000
v 0.061160 0.171350 0.005870
v 0.037293 0.000204 0.000000
v 0.037293 0.007351 -0.005058
v 0.058847 0.014690 -0.007201
v 0.070717 0.001746 0.000000
v 0.033000 0.022498 -0.011296
v 0.051997 0.031851 -0.013545
v -0.034967 0.179740 0.000000
v -0.034967 0.170887 -0.010089
v -0.061804 0.171112 -0.007245
v -0.070954 0.179966 0.000000
v -0.065022 0.030775 0.000000
v -0.055464 0.031420 -0.013545
v -0.060203 0.014226 -0.007201
v -0.070954 0.001272 0.000000
v 0.061979 0.031207 0.000000
v 0.053666 0.154129 -0.008443
v 0.063223 0.157805 0.000000
v 0.057902 0.141901 0.000000
v 0.048345 0.141901 -0.017312
v 0.059800 0.106684 0.000000
v 0.050243 0.106684 -0.021111
v 0.059563 0.072654 0.000000
v 0.050006 0.072654 -0.021149
v 0.058139 0.039574 0.000000
v 0.048582 0.039574 -0.017966
v -0.065958 0.155319 0.000000
v -0.056808 0.151643 -0.008576
v -0.053260 0.137819 -0.013226
v -0.062411 0.137819 0.000000
v -0.053972 0.107064 -0.021111
v -0.063123 0.107064 0.000000
v -0.052073 0.073461 -0.021149
v -0.061224 0.073461 0.000000
v -0.052311 0.039146 -0.017966
v -0.061461 0.039146 0.000000
v 0.030928 0.152680 -0.013581
v 0.027823 0.140881 -0.020551
v 0.029069 0.106779 -0.024896
v 0.029366 0.072856 -0.024984
v 0.029057 0.036516 -0.019838
v -0.031027 0.073259 -0.024984
v -0.000831 0.073058 -0.028210
v -0.001609 0.036457 -0.021464
v -0.032164 0.036389 -0.019667
v -0.032392 0.106969 -0.024896
v -0.001661 0.106874 -0.028210
v -0.032333 0.138840 -0.020651
v -0.002255 0.139860 -0.024521
v -0.033426 0.152146 -0.013640
v -0.001249 0.151231 -0.014684
v 0.035299 0.178150 0.000000
v 0.035299 0.169297 -0.010089
v 0.000166 0.167244 -0.010089
v 0.000166 0.176097 0.000000
v -0.033628 0.023381 -0.011196
v -0.000994 0.023001 -0.012253
v -0.000119 0.008656 -0.005058
v -0.034397 0.009676 -0.005058
v -0.034397 0.002529 0.000000
v -0.000119 0.001509 0.000000
v 0.070717 0.180203 0.000000
v 0.061160 0.171350 -0.005870
vn 0.0249 -0.9997 -0.0000
vn 0.7815 -0.6239 -0.0000
vn 0.3960 -0.1934 0.8977
vn 0.0197 -0.4689 0.8830
vn 0.0499 -0.4360 0.8986
vn 0.5279 -0.1104 0.8421
vn 0.0330 0.9995 -0.0004
vn -0.7420 0.6704 -0.0000
vn -0.3767 0.2650 0.8876
vn -0.0298 0.4693 0.8825
vn -0.9851 0.1721 -0.0006
vn -0.7333 -0.6799 -0.0000
vn -0.3677 -0.2524 0.8950
vn -0.5298 -0.1439 0.8358
vn 0.9718 0.2356 -0.0000
vn 0.5299 0.0475 0.8467
vn 0.5003 0.2318 0.8342
vn 0.9994 -0.0336 -0.0000
vn 0.9703 -0.2419 -0.0001
vn 0.6030 0.0528 0.7960
vn 0.9993 0.0363 -0.0000
vn 0.5998 -0.0520 0.7984
vn 0.9993 -0.0362 -0.0000
vn 0.5146 -0.1770 0.8390
vn 0.9940 0.1095 -0.0000
vn -0.9873 -0.1588 -0.0000
vn -1.0000 -0.0030 -0.0000
vn -0.5701 0.1661 0.8046
vn -0.5180 0.0491 0.8540
vn -0.9999 0.0164 -0.0000
vn -0.6131 0.0581 0.7879
vn -0.9994 -0.0358 -0.0000
vn -0.5949 -0.0532 0.8020
vn -0.9925 0.1219 -0.0000
vn -0.5228 -0.1768 0.8339
vn 0.0880 0.3771 0.9220
vn 0.1129 0.3462 0.9313
vn 0.1414 0.0622 0.9880
vn 0.1285 -0.0697 0.9893
vn 0.0967 -0.3404 0.9353
vn -0.1257 -0.0712 0.9895
vn -0.0952 -0.3497 0.9320
vn -0.0046 -0.3595 0.9331
vn 0.0005 -0.0801 0.9968
vn -0.1647 0.0744 0.9835
vn -0.0007 0.0607 0.9982
vn -0.1751 0.3119 0.9338
vn -0.0074 0.3505 0.9365
vn -0.1260 0.3125 0.9415
vn -0.0038 0.4158 0.9095
vn -0.0255 0.9997 -0.0001
vn 0.0233 0.9997 -0.0000
vn 0.0093 0.5056 0.8627
vn 0.0495 0.4541 0.8896
vn -0.0433 -0.4594 0.8872
vn -0.0120 -0.4807 0.8768
vn -0.0144 -0.5015 0.8651
vn -0.0077 -0.4863 0.8737
vn -0.0140 -0.9999 -0.0000
vn -0.0324 -0.9995 -0.0000
vn 0.7420 0.6704 -0.0000
vn 0.3746 0.2279 0.8987
vn 0.0248 -0.9997 -0.0000
vn 0.0197 -0.4689 -0.8830
vn 0.3960 -0.1934 -0.8977
vn 0.0499 -0.4360 -0.8986
vn 0.5279 -0.1104 -0.8421
vn 0.0330 0.9995 0.0004
vn -0.0298 0.4693 -0.8825
vn -0.3767 0.2650 -0.8876
vn -0.9851 0.1721 0.0006
vn -0.5298 -0.1439 -0.8358
vn -0.3677 -0.2524 -0.8950
vn 0.9719 0.2356 -0.0000
vn 0.5299 0.0475 -0.8467
vn 0.9703 -0.2419 0.0001
vn 0.5003 0.2318 -0.8343
vn 0.6030 0.0528 -0.7960
vn 0.5998 -0.0520 -0.7984
vn 0.9940 0.1094 -0.0000
vn 0.5146 -0.1770 -0.8390
vn -0.5180 0.0491 -0.8540
vn -0.5701 0.1661 -0.8046
vn -0.6131 0.0581 -0.7879
vn -0.5949 -0.0532 -0.8020
vn -0.5228 -0.1768 -0.8339
vn 0.0880 0.3771 -0.9220
vn 0.1129 0.3462 -0.9313
vn 0.1414 0.0622 -0.9880
vn 0.1285 -0.0697 -0.9893
vn 0.0967 -0.3404 -0.9353
vn -0.1257 -0.0712 -0.9895
vn 0.0005 -0.0801 -0.9968
vn -0.0046 -0.3595 -0.9331
vn -0.0952 -0.3497 -0.9320
vn -0.1647 0.0744 -0.9835
vn -0.0007 0.0607 -0.9982
vn -0.1751 0.3119 -0.9338
vn -0.0074 0.3505 -0.9365
vn -0.1260 0.3125 -0.9415
vn -0.0038 0.4158 -0.9095
vn -0.0255 0.9997 0.0002
vn 0.0495 0.4541 -0.8896
vn 0.0093 0.5056 -0.8627
vn -0.0433 -0.4594 -0.8872
vn -0.0077 -0.4863 -0.8737
vn -0.0144 -0.5015 -0.8651
vn -0.0120 -0.4807 -0.8768
vn -0.0139 -0.9999 -0.0000
vn 0.7419 0.6705 -0.0000
vn 0.3747 0.2279 -0.8987
vt 0.371549 0.972896
vt 0.477602 0.967447
vt 0.439684 0.920210
vt 0.371007 0.945243
vt 0.356667 0.894073
vt 0.416095 0.861198
vt 0.142785 0.387368
vt 0.032311 0.392803
vt 0.063279 0.425223
vt 0.143903 0.429283
vt 0.028652 0.871399
vt 0.028038 0.967648
vt 0.063063 0.920556
vt 0.081032 0.861980
vt 0.469508 0.870069
vt 0.424881 0.479987
vt 0.400029 0.524734
vt 0.460689 0.515938
vt 0.465006 0.462802
vt 0.404301 0.631082
vt 0.456593 0.626261
vt 0.404439 0.732974
vt 0.458225 0.735701
vt 0.402573 0.834486
vt 0.466226 0.841396
vt 0.033549 0.470839
vt 0.035148 0.527721
vt 0.085966 0.533393
vt 0.072631 0.486943
vt 0.022530 0.624336
vt 0.092241 0.629906
vt 0.022436 0.732618
vt 0.095773 0.730323
vt 0.030960 0.842707
vt 0.093838 0.835201
vt 0.349188 0.485751
vt 0.337194 0.527682
vt 0.339960 0.631070
vt 0.341223 0.732565
vt 0.342117 0.843548
vt 0.160419 0.731347
vt 0.155542 0.844269
vt 0.248652 0.842862
vt 0.250966 0.731429
vt 0.156941 0.630901
vt 0.248256 0.631803
vt 0.155610 0.533984
vt 0.246434 0.534488
vt 0.149192 0.487950
vt 0.249043 0.488823
vt 0.364214 0.391479
vt 0.253572 0.394677
vt 0.253374 0.437210
vt 0.363292 0.433542
vt 0.148892 0.891610
vt 0.145336 0.938765
vt 0.253300 0.943091
vt 0.250514 0.893075
vt 0.144742 0.966494
vt 0.253234 0.970744
vt 0.474773 0.389912
vt 0.443793 0.421759
vt 0.871549 0.046261
vt 0.871007 0.073914
vt 0.939684 0.098946
vt 0.977602 0.051709
vt 0.856667 0.125083
vt 0.916094 0.157958
vt 0.642786 0.631788
vt 0.643903 0.589873
vt 0.563279 0.593933
vt 0.532311 0.626354
vt 0.528652 0.147758
vt 0.581032 0.157177
vt 0.563063 0.098601
vt 0.528038 0.051508
vt 0.969508 0.149087
vt 0.924881 0.539169
vt 0.965006 0.556354
vt 0.960689 0.503219
vt 0.900030 0.494422
vt 0.956593 0.392895
vt 0.904301 0.388074
vt 0.958225 0.283455
vt 0.904439 0.286182
vt 0.966226 0.177760
vt 0.902572 0.184670
vt 0.533549 0.548317
vt 0.572631 0.532213
vt 0.585966 0.485764
vt 0.535148 0.491436
vt 0.592241 0.389250
vt 0.522530 0.394820
vt 0.595773 0.288833
vt 0.522436 0.286539
vt 0.593838 0.183955
vt 0.530959 0.176449
vt 0.849188 0.533406
vt 0.837194 0.491474
vt 0.839960 0.388086
vt 0.841222 0.286591
vt 0.842117 0.175608
vt 0.660419 0.287810
vt 0.750966 0.287728
vt 0.748652 0.176295
vt 0.655542 0.174887
vt 0.656941 0.388256
vt 0.748256 0.387353
vt 0.655610 0.485172
vt 0.746435 0.484669
vt 0.649192 0.531207
vt 0.749043 0.530333
vt 0.864214 0.627678
vt 0.863292 0.585614
vt 0.753374 0.581947
vt 0.753572 0.624479
vt 0.648892 0.127546
vt 0.750513 0.126082
vt 0.753299 0.076066
vt 0.645336 0.080391
vt 0.644742 0.052662
vt 0.753233 0.048412
vt 0.974773 0.629244
vt 0.943793 0.597398
s 1
usemtl Dorrito.003
f 1/1/1 2/2/2 3/3/3
f 1/1/1 3/3/3 4/4/4
f 5/5/5 4/4/4 3/3/3
f 5/5/5 3/3/3 6/6/6
f 7/7/7 8/8/8 9/9/9
f 7/7/7 9/9/9 10/10/10
f 11/11/11 12/12/12 13/13/13
f 11/11/11 13/13/13 14/14/14
f 6/6/6 3/3/3 2/2/2
f 6/6/6 2/2/2 15/15/15
f 16/16/16 17/17/17 18/18/18
f 16/16/16 18/18/18 19/19/19
f 17/17/17 20/20/20 21/21/21
f 17/17/17 21/21/21 18/18/18
f 20/20/20 22/22/22 23/23/23
f 20/20/20 23/23/23 21/21/21
f 22/22/22 24/24/24 25/25/25
f 22/22/22 25/25/25 23/23/23
f 26/26/26 27/27/27 28/28/28
f 26/26/26 28/28/28 29/29/29
f 27/27/27 30/30/30 31/31/31
f 27/27/27 31/31/31 28/28/28
f 30/30/30 32/32/32 33/33/33
f 30/30/30 33/33/33 31/31/31
f 32/32/32 34/34/34 35/35/35
f 32/32/32 35/35/35 33/33/33
f 36/36/36 37/37/37 17/17/17
f 36/36/36 17/17/17 16/16/16
f 37/37/37 38/38/38 20/20/20
f 37/37/37 20/20/20 17/17/17
f 38/38/38 39/39/39 22/22/22
f 38/38/38 22/22/22 20/20/20
f 39/39/39 40/40/40 24/24/24
f 39/39/39 24/24/24 22/22/22
f 41/41/41 42/42/42 43/43/43
f 41/41/41 43/43/43 44/44/44
f 45/45/45 41/41/41 44/44/44
f 45/45/45 44/44/44 46/46/46
f 47/47/47 45/45/45 46/46/46
f 47/47/47 46/46/46 48/48/48
f 49/49/49 47/47/47 48/48/48
f 49/49/49 48/48/48 50/50/50
f 51/51/51 52/52/52 53/53/53
f 51/51/51 53/53/53 54/54/54
f 55/55/55 56/56/56 57/57/57
f 55/55/55 57/57/57 58/58/58
f 59/59/59 60/60/60 57/57/57
f 59/59/59 57/57/57 56/56/56
f 61/61/61 51/51/51 54/54/54
f 61/61/61 54/54/54 62/62/62
f 44/44/44 43/43/43 40/40/40
f 44/44/44 40/40/40 39/39/39
f 46/46/46 44/44/44 39/39/39
f 46/46/46 39/39/39 38/38/38
f 48/48/48 46/46/46 38/38/38
f 48/48/48 38/38/38 37/37/37
f 50/50/50 48/48/48 37/37/37
f 50/50/50 37/37/37 36/36/36
f 58/58/58 57/57/57 4/4/4
f 58/58/58 4/4/4 5/5/5
f 60/60/60 1/1/1 4/4/4
f 60/60/60 4/4/4 57/57/57
f 12/12/12 59/59/59 56/56/56
f 12/12/12 56/56/56 13/13/13
f 14/14/14 13/13/13 56/56/56
f 14/14/14 56/56/56 55/55/55
f 29/29/29 28/28/28 47/47/47
f 29/29/29 47/47/47 49/49/49
f 28/28/28 31/31/31 45/45/45
f 28/28/28 45/45/45 47/47/47
f 31/31/31 33/33/33 41/41/41
f 31/31/31 41/41/41 45/45/45
f 33/33/33 35/35/35 42/42/42
f 33/33/33 42/42/42 41/41/41
f 52/52/52 7/7/7 10/10/10
f 52/52/52 10/10/10 53/53/53
f 35/35/35 14/14/14 55/55/55
f 35/35/35 55/55/55 42/42/42
f 43/43/43 58/58/58 5/5/5
f 43/43/43 5/5/5 40/40/40
f 42/42/42 55/55/55 58/58/58
f 42/42/42 58/58/58 43/43/43
f 24/24/24 6/6/6 15/15/15
f 24/24/24 15/15/15 25/25/25
f 34/34/34 11/11/11 14/14/14
f 34/34/34 14/14/14 35/35/35
f 40/40/40 5/5/5 6/6/6
f 40/40/40 6/6/6 24/24/24
f 9/9/9 29/29/29 49/49/49
f 9/9/9 49/49/49 10/10/10
f 53/53/53 50/50/50 36/36/36
f 53/53/53 36/36/36 54/54/54
f 10/10/10 49/49/49 50/50/50
f 10/10/10 50/50/50 53/53/53
f 54/54/54 36/36/36 16/16/16
f 54/54/54 16/16/16 62/62/62
f 8/8/8 26/26/26 29/29/29
f 8/8/8 29/29/29 9/9/9
f 62/62/62 16/16/16 19/19/19
f 62/62/62 19/19/19 61/61/61
f 63/63/63 64/64/64 65/65/65
f 63/63/63 65/65/65 66/66/2
f 67/67/66 68/68/67 65/65/65
f 67/67/66 65/65/65 64/64/64
f 69/69/68 70/70/69 71/71/70
f 69/69/68 71/71/70 72/72/8
f 73/73/71 74/74/72 75/75/73
f 73/73/71 75/75/73 76/76/12
f 68/68/67 77/77/74 66/66/2
f 68/68/67 66/66/2 65/65/65
f 78/78/75 79/79/76 80/80/18
f 78/78/75 80/80/18 81/81/77
f 81/81/77 80/80/18 82/82/21
f 81/81/77 82/82/21 83/83/78
f 83/83/78 82/82/21 84/84/23
f 83/83/78 84/84/23 85/85/79
f 85/85/79 84/84/23 86/86/80
f 85/85/79 86/86/80 87/87/81
f 88/88/26 89/89/82 90/90/83
f 88/88/26 90/90/83 91/91/27
f 91/91/27 90/90/83 92/92/84
f 91/91/27 92/92/84 93/93/30
f 93/93/30 92/92/84 94/94/85
f 93/93/30 94/94/85 95/95/32
f 95/95/32 94/94/85 96/96/86
f 95/95/32 96/96/86 97/97/34
f 98/98/87 78/78/75 81/81/77
f 98/98/87 81/81/77 99/99/88
f 99/99/88 81/81/77 83/83/78
f 99/99/88 83/83/78 100/100/89
f 100/100/89 83/83/78 85/85/79
f 100/100/89 85/85/79 101/101/90
f 101/101/90 85/85/79 87/87/81
f 101/101/90 87/87/81 102/102/91
f 103/103/92 104/104/93 105/105/94
f 103/103/92 105/105/94 106/106/95
f 107/107/96 108/108/97 104/104/93
f 107/107/96 104/104/93 103/103/92
f 109/109/98 110/110/99 108/108/97
f 109/109/98 108/108/97 107/107/96
f 111/111/100 112/112/101 110/110/99
f 111/111/100 110/110/99 109/109/98
f 113/113/102 114/114/103 115/115/104
f 113/113/102 115/115/104 116/116/52
f 117/117/105 118/118/106 119/119/107
f 117/117/105 119/119/107 120/120/108
f 121/121/109 120/120/108 119/119/107
f 121/121/109 119/119/107 122/122/60
f 123/123/110 124/124/111 114/114/103
f 123/123/110 114/114/103 113/113/102
f 104/104/93 101/101/90 102/102/91
f 104/104/93 102/102/91 105/105/94
f 108/108/97 100/100/89 101/101/90
f 108/108/97 101/101/90 104/104/93
f 110/110/99 99/99/88 100/100/89
f 110/110/99 100/100/89 108/108/97
f 112/112/101 98/98/87 99/99/88
f 112/112/101 99/99/88 110/110/99
f 118/118/106 67/67/66 64/64/64
f 118/118/106 64/64/64 119/119/107
f 122/122/60 119/119/107 64/64/64
f 122/122/60 64/64/64 63/63/63
f 76/76/12 75/75/73 120/120/108
f 76/76/12 120/120/108 121/121/109
f 74/74/72 117/117/105 120/120/108
f 74/74/72 120/120/108 75/75/73
f 89/89/82 111/111/100 109/109/98
f 89/89/82 109/109/98 90/90/83
f 90/90/83 109/109/98 107/107/96
f 90/90/83 107/107/96 92/92/84
f 92/92/84 107/107/96 103/103/92
f 92/92/84 103/103/92 94/94/85
f 94/94/85 103/103/92 106/106/95
f 94/94/85 106/106/95 96/96/86
f 116/116/52 115/115/104 70/70/69
f 116/116/52 70/70/69 69/69/68
f 96/96/86 106/106/95 117/117/105
f 96/96/86 117/117/105 74/74/72
f 105/105/94 102/102/91 67/67/66
f 105/105/94 67/67/66 118/118/106
f 106/106/95 105/105/94 118/118/106
f 106/106/95 118/118/106 117/117/105
f 87/87/81 86/86/80 77/77/74
f 87/87/81 77/77/74 68/68/67
f 97/97/34 96/96/86 74/74/72
f 97/97/34 74/74/72 73/73/71
f 102/102/91 87/87/81 68/68/67
f 102/102/91 68/68/67 67/67/66
f 71/71/70 70/70/69 111/111/100
f 71/71/70 111/111/100 89/89/82
f 115/115/104 114/114/103 98/98/87
f 115/115/104 98/98/87 112/112/101
f 70/70/69 115/115/104 112/112/101
f 70/70/69 112/112/101 111/111/100
f 114/114/103 124/124/111 78/78/75
f 114/114/103 78/78/75 98/98/87
f 72/72/8 71/71/70 89/89/82
f 72/72/8 89/89/82 88/88/26
f 124/124/111 123/123/110 79/79/76
f 124/124/111 79/79/76 78/78/75
