# Blender 4.5.0
# www.blender.org
mtllib chocopie.mtl
o defaultMaterial
v -0.029375 0.051464 0.006875
v -0.029375 0.000214 0.006875
v 0.029375 0.000214 0.006875
v 0.029375 0.051464 0.006875
v -0.029375 0.051464 -0.006875
v -0.029375 0.051464 0.006875
v 0.029375 0.051464 0.006875
v 0.029375 0.051464 -0.006875
v -0.029375 0.000214 -0.006875
v -0.029375 0.051464 -0.006875
v 0.029375 0.051464 -0.006875
v 0.029375 0.000214 -0.006875
v -0.029375 0.000214 0.006875
v -0.029375 0.000214 -0.006875
v 0.029375 0.000214 -0.006875
v 0.029375 0.000214 0.006875
v 0.029375 0.051464 0.006875
v 0.029375 0.000214 0.006875
v 0.029375 0.000214 -0.006875
v 0.029375 0.051464 -0.006875
v -0.029375 0.051464 -0.006875
v -0.029375 0.000214 -0.006875
v -0.029375 0.000214 0.006875
v -0.029375 0.051464 0.006875
vn -0.0000 -0.0000 1.0000
vn -0.0000 1.0000 -0.0000
vn -0.0000 -0.0000 -1.0000
vn -0.0000 -1.0000 -0.0000
vn 1.0000 -0.0000 -0.0000
vn -1.0000 -0.0000 -0.0000
vt 0.500000 0.442646
vt 0.108079 0.442646
vt 0.108079 0.891921
vt 0.500000 0.891921
vt 0.605150 0.442646
vt 0.605150 0.891921
vt 0.997070 0.442646
vt 0.997070 0.891921
vt 0.002930 0.442646
vt 0.002930 0.891921
vt 0.108079 0.997070
vt 0.500000 0.997070
vt 0.500000 0.337496
vt 0.108079 0.337496
s 0
usemtl initialShadingGroup_1001.003
f 1/1/1 2/2/1 3/3/1
f 3/3/1 4/4/1 1/1/1
f 5/5/2 6/1/2 7/4/2
f 7/4/2 8/6/2 5/5/2
f 9/7/3 10/5/3 11/6/3
f 11/6/3 12/8/3 9/7/3
f 13/2/4 14/9/4 15/10/4
f 15/10/4 16/3/4 13/2/4
f 17/4/5 18/3/5 19/11/5
f 19/11/5 20/12/5 17/4/5
f 21/13/6 22/14/6 23/2/6
f 23/2/6 24/1/6 21/13/6
