# Blender 4.5.0
# www.blender.org
mtllib dark_chocolate_cereal_box.mtl
o Object_4
v 0.008584 0.077884 0.023300
v 0.008584 0.077884 0.023300
v 0.008584 0.077884 0.023300
v 0.008584 0.077884 0.023300
v 0.008584 0.077151 0.023750
v 0.008584 0.077151 0.023750
v 0.008584 0.077151 0.023750
v 0.008584 0.077151 0.023750
v 0.008750 0.077151 0.023300
v 0.008750 0.077151 0.023300
v 0.008750 0.077151 0.023300
v 0.008750 0.077151 0.023300
v 0.008584 0.077786 0.023525
v 0.008584 0.077786 0.023525
v 0.008584 0.077786 0.023525
v 0.008584 0.077786 0.023525
v 0.008667 0.077786 0.023300
v 0.008667 0.077786 0.023300
v 0.008667 0.077786 0.023300
v 0.008667 0.077786 0.023300
v 0.008663 0.077694 0.023514
v 0.008663 0.077694 0.023514
v 0.008663 0.077694 0.023514
v 0.008663 0.077694 0.023514
v 0.008667 0.077151 0.023690
v 0.008667 0.077151 0.023690
v 0.008667 0.077151 0.023690
v 0.008667 0.077151 0.023690
v 0.008584 0.077517 0.023690
v 0.008584 0.077517 0.023690
v 0.008584 0.077517 0.023690
v 0.008584 0.077517 0.023690
v 0.008663 0.077499 0.023633
v 0.008663 0.077499 0.023633
v 0.008663 0.077499 0.023633
v 0.008663 0.077499 0.023633
v 0.008728 0.077517 0.023300
v 0.008728 0.077517 0.023300
v 0.008728 0.077517 0.023300
v 0.008728 0.077517 0.023300
v 0.008728 0.077151 0.023525
v 0.008728 0.077151 0.023525
v 0.008728 0.077151 0.023525
v 0.008728 0.077151 0.023525
v 0.008707 0.077499 0.023514
v 0.008707 0.077499 0.023514
v 0.008707 0.077499 0.023514
v 0.008707 0.077499 0.023514
v 0.008584 0.077151 -0.023750
v 0.008584 0.077151 -0.023750
v 0.008584 0.077151 -0.023750
v 0.008584 0.077151 -0.023750
v 0.008584 0.077884 -0.023300
v 0.008584 0.077884 -0.023300
v 0.008584 0.077884 -0.023300
v 0.008584 0.077884 -0.023300
v 0.008750 0.077151 -0.023300
v 0.008750 0.077151 -0.023300
v 0.008750 0.077151 -0.023300
v 0.008750 0.077151 -0.023300
v 0.008584 0.077517 -0.023690
v 0.008584 0.077517 -0.023690
v 0.008584 0.077517 -0.023690
v 0.008584 0.077517 -0.023690
v 0.008667 0.077151 -0.023690
v 0.008667 0.077151 -0.023690
v 0.008667 0.077151 -0.023690
v 0.008667 0.077151 -0.023690
v 0.008663 0.077499 -0.023633
v 0.008663 0.077499 -0.023633
v 0.008663 0.077499 -0.023633
v 0.008663 0.077499 -0.023633
v 0.008667 0.077786 -0.023300
v 0.008667 0.077786 -0.023300
v 0.008667 0.077786 -0.023300
v 0.008667 0.077786 -0.023300
v 0.008584 0.077786 -0.023525
v 0.008584 0.077786 -0.023525
v 0.008584 0.077786 -0.023525
v 0.008584 0.077786 -0.023525
v 0.008663 0.077694 -0.023514
v 0.008663 0.077694 -0.023514
v 0.008663 0.077694 -0.023514
v 0.008663 0.077694 -0.023514
v 0.008728 0.077151 -0.023525
v 0.008728 0.077151 -0.023525
v 0.008728 0.077151 -0.023525
v 0.008728 0.077151 -0.023525
v 0.008728 0.077517 -0.023300
v 0.008728 0.077517 -0.023300
v 0.008728 0.077517 -0.023300
v 0.008728 0.077517 -0.023300
v 0.008707 0.077499 -0.023514
v 0.008707 0.077499 -0.023514
v 0.008707 0.077499 -0.023514
v 0.008707 0.077499 -0.023514
v 0.008750 0.001118 0.023300
v 0.008750 0.001118 0.023300
v 0.008750 0.001118 0.023300
v 0.008750 0.001118 0.023300
v 0.008584 0.001118 0.023750
v 0.008584 0.001118 0.023750
v 0.008584 0.001118 0.023750
v 0.008584 0.001118 0.023750
v 0.008584 0.000384 0.023300
v 0.008584 0.000384 0.023300
v 0.008584 0.000384 0.023300
v 0.008584 0.000384 0.023300
v 0.008728 0.001118 0.023525
v 0.008728 0.001118 0.023525
v 0.008728 0.001118 0.023525
v 0.008728 0.001118 0.023525
v 0.008728 0.000751 0.023300
v 0.008728 0.000751 0.023300
v 0.008728 0.000751 0.023300
v 0.008728 0.000751 0.023300
v 0.008707 0.000769 0.023514
v 0.008707 0.000769 0.023514
v 0.008707 0.000769 0.023514
v 0.008707 0.000769 0.023514
v 0.008584 0.000751 0.023690
v 0.008584 0.000751 0.023690
v 0.008584 0.000751 0.023690
v 0.008584 0.000751 0.023690
v 0.008667 0.001118 0.023690
v 0.008667 0.001118 0.023690
v 0.008667 0.001118 0.023690
v 0.008667 0.001118 0.023690
v 0.008663 0.000769 0.023633
v 0.008663 0.000769 0.023633
v 0.008663 0.000769 0.023633
v 0.008663 0.000769 0.023633
v 0.008667 0.000482 0.023300
v 0.008667 0.000482 0.023300
v 0.008667 0.000482 0.023300
v 0.008667 0.000482 0.023300
v 0.008584 0.000482 0.023525
v 0.008584 0.000482 0.023525
v 0.008584 0.000482 0.023525
v 0.008584 0.000482 0.023525
v 0.008663 0.000574 0.023514
v 0.008663 0.000574 0.023514
v 0.008663 0.000574 0.023514
v 0.008663 0.000574 0.023514
v 0.008750 0.001118 -0.023300
v 0.008750 0.001118 -0.023300
v 0.008750 0.001118 -0.023300
v 0.008750 0.001118 -0.023300
v 0.008584 0.000384 -0.023300
v 0.008584 0.000384 -0.023300
v 0.008584 0.000384 -0.023300
v 0.008584 0.000384 -0.023300
v 0.008584 0.001118 -0.023750
v 0.008584 0.001118 -0.023750
v 0.008584 0.001118 -0.023750
v 0.008584 0.001118 -0.023750
v 0.008728 0.000751 -0.023300
v 0.008728 0.000751 -0.023300
v 0.008728 0.000751 -0.023300
v 0.008728 0.000751 -0.023300
v 0.008728 0.001118 -0.023525
v 0.008728 0.001118 -0.023525
v 0.008728 0.001118 -0.023525
v 0.008728 0.001118 -0.023525
v 0.008707 0.000769 -0.023514
v 0.008707 0.000769 -0.023514
v 0.008707 0.000769 -0.023514
v 0.008707 0.000769 -0.023514
v 0.008584 0.000482 -0.023525
v 0.008584 0.000482 -0.023525
v 0.008584 0.000482 -0.023525
v 0.008584 0.000482 -0.023525
v 0.008667 0.000482 -0.023300
v 0.008667 0.000482 -0.023300
v 0.008667 0.000482 -0.023300
v 0.008667 0.000482 -0.023300
v 0.008663 0.000574 -0.023514
v 0.008663 0.000574 -0.023514
v 0.008663 0.000574 -0.023514
v 0.008663 0.000574 -0.023514
v 0.008667 0.001118 -0.023690
v 0.008667 0.001118 -0.023690
v 0.008667 0.001118 -0.023690
v 0.008667 0.001118 -0.023690
v 0.008584 0.000751 -0.023690
v 0.008584 0.000751 -0.023690
v 0.008584 0.000751 -0.023690
v 0.008584 0.000751 -0.023690
v 0.008663 0.000769 -0.023633
v 0.008663 0.000769 -0.023633
v 0.008663 0.000769 -0.023633
v 0.008663 0.000769 -0.023633
v -0.008584 0.077884 0.023300
v -0.008584 0.077884 0.023300
v -0.008584 0.077884 0.023300
v -0.008584 0.077884 0.023300
v -0.008750 0.077151 0.023300
v -0.008750 0.077151 0.023300
v -0.008750 0.077151 0.023300
v -0.008750 0.077151 0.023300
v -0.008584 0.077151 0.023750
v -0.008584 0.077151 0.023750
v -0.008584 0.077151 0.023750
v -0.008584 0.077151 0.023750
v -0.008667 0.077786 0.023300
v -0.008667 0.077786 0.023300
v -0.008667 0.077786 0.023300
v -0.008667 0.077786 0.023300
v -0.008584 0.077786 0.023525
v -0.008584 0.077786 0.023525
v -0.008584 0.077786 0.023525
v -0.008584 0.077786 0.023525
v -0.008663 0.077694 0.023514
v -0.008663 0.077694 0.023514
v -0.008663 0.077694 0.023514
v -0.008663 0.077694 0.023514
v -0.008728 0.077151 0.023525
v -0.008728 0.077151 0.023525
v -0.008728 0.077151 0.023525
v -0.008728 0.077151 0.023525
v -0.008728 0.077517 0.023300
v -0.008728 0.077517 0.023300
v -0.008728 0.077517 0.023300
v -0.008728 0.077517 0.023300
v -0.008707 0.077499 0.023514
v -0.008707 0.077499 0.023514
v -0.008707 0.077499 0.023514
v -0.008707 0.077499 0.023514
v -0.008584 0.077517 0.023690
v -0.008584 0.077517 0.023690
v -0.008584 0.077517 0.023690
v -0.008584 0.077517 0.023690
v -0.008667 0.077151 0.023690
v -0.008667 0.077151 0.023690
v -0.008667 0.077151 0.023690
v -0.008667 0.077151 0.023690
v -0.008663 0.077499 0.023633
v -0.008663 0.077499 0.023633
v -0.008663 0.077499 0.023633
v -0.008663 0.077499 0.023633
v -0.008750 0.077151 -0.023300
v -0.008750 0.077151 -0.023300
v -0.008750 0.077151 -0.023300
v -0.008750 0.077151 -0.023300
v -0.008584 0.077884 -0.023300
v -0.008584 0.077884 -0.023300
v -0.008584 0.077884 -0.023300
v -0.008584 0.077884 -0.023300
v -0.008584 0.077151 -0.023750
v -0.008584 0.077151 -0.023750
v -0.008584 0.077151 -0.023750
v -0.008584 0.077151 -0.023750
v -0.008728 0.077517 -0.023300
v -0.008728 0.077517 -0.023300
v -0.008728 0.077517 -0.023300
v -0.008728 0.077517 -0.023300
v -0.008728 0.077151 -0.023525
v -0.008728 0.077151 -0.023525
v -0.008728 0.077151 -0.023525
v -0.008728 0.077151 -0.023525
v -0.008707 0.077499 -0.023514
v -0.008707 0.077499 -0.023514
v -0.008707 0.077499 -0.023514
v -0.008707 0.077499 -0.023514
v -0.008584 0.077786 -0.023525
v -0.008584 0.077786 -0.023525
v -0.008584 0.077786 -0.023525
v -0.008584 0.077786 -0.023525
v -0.008667 0.077786 -0.023300
v -0.008667 0.077786 -0.023300
v -0.008667 0.077786 -0.023300
v -0.008667 0.077786 -0.023300
v -0.008663 0.077694 -0.023514
v -0.008663 0.077694 -0.023514
v -0.008663 0.077694 -0.023514
v -0.008663 0.077694 -0.023514
v -0.008667 0.077151 -0.023690
v -0.008667 0.077151 -0.023690
v -0.008667 0.077151 -0.023690
v -0.008667 0.077151 -0.023690
v -0.008584 0.077517 -0.023690
v -0.008584 0.077517 -0.023690
v -0.008584 0.077517 -0.023690
v -0.008584 0.077517 -0.023690
v -0.008663 0.077499 -0.023633
v -0.008663 0.077499 -0.023633
v -0.008663 0.077499 -0.023633
v -0.008663 0.077499 -0.023633
v -0.008750 0.001118 0.023300
v -0.008750 0.001118 0.023300
v -0.008750 0.001118 0.023300
v -0.008750 0.001118 0.023300
v -0.008584 0.000384 0.023300
v -0.008584 0.000384 0.023300
v -0.008584 0.000384 0.023300
v -0.008584 0.000384 0.023300
v -0.008584 0.001118 0.023750
v -0.008584 0.001118 0.023750
v -0.008584 0.001118 0.023750
v -0.008584 0.001118 0.023750
v -0.008728 0.000751 0.023300
v -0.008728 0.000751 0.023300
v -0.008728 0.000751 0.023300
v -0.008728 0.000751 0.023300
v -0.008728 0.001118 0.023525
v -0.008728 0.001118 0.023525
v -0.008728 0.001118 0.023525
v -0.008728 0.001118 0.023525
v -0.008707 0.000769 0.023514
v -0.008707 0.000769 0.023514
v -0.008707 0.000769 0.023514
v -0.008707 0.000769 0.023514
v -0.008584 0.000482 0.023525
v -0.008584 0.000482 0.023525
v -0.008584 0.000482 0.023525
v -0.008584 0.000482 0.023525
v -0.008667 0.000482 0.023300
v -0.008667 0.000482 0.023300
v -0.008667 0.000482 0.023300
v -0.008667 0.000482 0.023300
v -0.008663 0.000574 0.023514
v -0.008663 0.000574 0.023514
v -0.008663 0.000574 0.023514
v -0.008663 0.000574 0.023514
v -0.008667 0.001118 0.023690
v -0.008667 0.001118 0.023690
v -0.008667 0.001118 0.023690
v -0.008667 0.001118 0.023690
v -0.008584 0.000751 0.023690
v -0.008584 0.000751 0.023690
v -0.008584 0.000751 0.023690
v -0.008584 0.000751 0.023690
v -0.008663 0.000769 0.023633
v -0.008663 0.000769 0.023633
v -0.008663 0.000769 0.023633
v -0.008663 0.000769 0.023633
v -0.008584 0.001118 -0.023750
v -0.008584 0.001118 -0.023750
v -0.008584 0.001118 -0.023750
v -0.008584 0.001118 -0.023750
v -0.008584 0.000384 -0.023300
v -0.008584 0.000384 -0.023300
v -0.008584 0.000384 -0.023300
v -0.008584 0.000384 -0.023300
v -0.008750 0.001118 -0.023300
v -0.008750 0.001118 -0.023300
v -0.008750 0.001118 -0.023300
v -0.008750 0.001118 -0.023300
v -0.008584 0.000751 -0.023690
v -0.008584 0.000751 -0.023690
v -0.008584 0.000751 -0.023690
v -0.008584 0.000751 -0.023690
v -0.008667 0.001118 -0.023690
v -0.008667 0.001118 -0.023690
v -0.008667 0.001118 -0.023690
v -0.008667 0.001118 -0.023690
v -0.008663 0.000769 -0.023633
v -0.008663 0.000769 -0.023633
v -0.008663 0.000769 -0.023633
v -0.008663 0.000769 -0.023633
v -0.008667 0.000482 -0.023300
v -0.008667 0.000482 -0.023300
v -0.008667 0.000482 -0.023300
v -0.008667 0.000482 -0.023300
v -0.008584 0.000482 -0.023525
v -0.008584 0.000482 -0.023525
v -0.008584 0.000482 -0.023525
v -0.008584 0.000482 -0.023525
v -0.008663 0.000574 -0.023514
v -0.008663 0.000574 -0.023514
v -0.008663 0.000574 -0.023514
v -0.008663 0.000574 -0.023514
v -0.008728 0.001118 -0.023525
v -0.008728 0.001118 -0.023525
v -0.008728 0.001118 -0.023525
v -0.008728 0.001118 -0.023525
v -0.008728 0.000751 -0.023300
v -0.008728 0.000751 -0.023300
v -0.008728 0.000751 -0.023300
v -0.008728 0.000751 -0.023300
v -0.008707 0.000769 -0.023514
v -0.008707 0.000769 -0.023514
v -0.008707 0.000769 -0.023514
v -0.008707 0.000769 -0.023514
vn 0.9180 0.2073 0.3382
vn 0.9180 0.2073 -0.3382
vn 0.9180 -0.2073 0.3382
vn 0.9180 -0.2073 -0.3382
vn -0.9180 0.2073 0.3382
vn -0.9180 0.2073 -0.3382
vn -0.9180 -0.2073 0.3382
vn -0.9180 -0.2073 -0.3382
vn -0.0000 -0.0000 -1.0000
vn -1.0000 -0.0000 -0.0000
vn -0.0000 -1.0000 -0.0000
vn -0.0000 -0.0000 1.0000
vn 1.0000 -0.0000 -0.0000
vn 0.7412 0.6132 0.2731
vn 0.7413 0.6131 0.2731
vn 0.7411 0.6133 0.2732
vn 0.5900 0.4219 0.6884
vn 0.5899 0.4219 0.6884
vn 0.5900 0.1332 0.7963
vn 0.5901 0.1332 0.7963
vn 0.9362 0.0667 0.3449
vn 0.9931 0.0612 0.0999
vn 0.9931 0.0612 0.0998
vn 0.9692 0.2189 0.1127
vn 0.5900 0.1332 -0.7963
vn 0.5901 0.1332 -0.7963
vn 0.5899 0.4219 -0.6884
vn 0.5899 0.4220 -0.6884
vn 0.7412 0.6132 -0.2731
vn 0.7411 0.6133 -0.2732
vn 0.7413 0.6131 -0.2731
vn 0.9692 0.2189 -0.1127
vn 0.9692 0.2188 -0.1127
vn 0.9931 0.0612 -0.0999
vn 0.9931 0.0612 -0.0998
vn 0.9363 0.0667 -0.3449
vn 0.9362 0.0667 -0.3449
vn 0.9931 -0.0612 0.0999
vn 0.9931 -0.0612 0.0998
vn 0.9363 -0.0667 0.3449
vn 0.9362 -0.0667 0.3449
vn 0.5900 -0.1332 0.7963
vn 0.5901 -0.1332 0.7963
vn 0.5899 -0.4219 0.6884
vn 0.5899 -0.4220 0.6884
vn 0.7412 -0.6132 0.2731
vn 0.7411 -0.6133 0.2732
vn 0.7413 -0.6131 0.2731
vn 0.9692 -0.2189 0.1127
vn 0.9692 -0.2188 0.1127
vn 0.9931 -0.0612 -0.0999
vn 0.9931 -0.0612 -0.0998
vn 0.9692 -0.2189 -0.1127
vn 0.7412 -0.6132 -0.2731
vn 0.7413 -0.6131 -0.2731
vn 0.7411 -0.6133 -0.2732
vn 0.5900 -0.4219 -0.6884
vn 0.5899 -0.4219 -0.6884
vn 0.5900 -0.1332 -0.7963
vn 0.5901 -0.1332 -0.7963
vn 0.9362 -0.0667 -0.3449
vn -0.7412 0.6132 0.2731
vn -0.7411 0.6133 0.2732
vn -0.7413 0.6131 0.2731
vn -0.9692 0.2189 0.1127
vn -0.9692 0.2188 0.1127
vn -0.9931 0.0612 0.0999
vn -0.9931 0.0612 0.0998
vn -0.9363 0.0667 0.3449
vn -0.9362 0.0667 0.3449
vn -0.5900 0.1332 0.7963
vn -0.5901 0.1332 0.7963
vn -0.5899 0.4219 0.6884
vn -0.5899 0.4220 0.6884
vn -0.9931 0.0612 -0.0999
vn -0.9931 0.0612 -0.0998
vn -0.9692 0.2189 -0.1127
vn -0.7412 0.6132 -0.2731
vn -0.7413 0.6131 -0.2731
vn -0.7411 0.6133 -0.2732
vn -0.5900 0.4219 -0.6884
vn -0.5899 0.4219 -0.6884
vn -0.5900 0.1332 -0.7963
vn -0.5901 0.1332 -0.7963
vn -0.9362 0.0667 -0.3449
vn -0.9931 -0.0612 0.0999
vn -0.9931 -0.0612 0.0998
vn -0.9692 -0.2189 0.1127
vn -0.7412 -0.6132 0.2731
vn -0.7413 -0.6131 0.2731
vn -0.7411 -0.6133 0.2732
vn -0.5900 -0.4219 0.6884
vn -0.5899 -0.4219 0.6884
vn -0.5900 -0.1332 0.7963
vn -0.5901 -0.1332 0.7963
vn -0.9362 -0.0667 0.3449
vn -0.5900 -0.1332 -0.7963
vn -0.5901 -0.1332 -0.7963
vn -0.5899 -0.4219 -0.6884
vn -0.5899 -0.4220 -0.6884
vn -0.7412 -0.6132 -0.2731
vn -0.7411 -0.6133 -0.2732
vn -0.7413 -0.6131 -0.2731
vn -0.9692 -0.2189 -0.1127
vn -0.9692 -0.2188 -0.1127
vn -0.9931 -0.0612 -0.0999
vn -0.9931 -0.0612 -0.0998
vn -0.9363 -0.0667 -0.3449
vn -0.9362 -0.0667 -0.3449
vn -0.5876 -0.0000 -0.8091
vn -0.9383 -0.0000 -0.3457
vn -0.9952 -0.0000 -0.0981
vn -0.0000 0.1618 -0.9868
vn -0.0000 0.5226 -0.8526
vn -0.0000 0.9165 -0.4001
vn 0.9982 0.0603 -0.0000
vn 0.9754 0.2203 -0.0000
vn 0.7642 0.6450 -0.0000
vn -0.7642 -0.6450 -0.0000
vn -0.9754 -0.2203 -0.0000
vn -0.9982 -0.0603 -0.0000
vn 0.7642 -0.6450 -0.0000
vn 0.9754 -0.2203 -0.0000
vn 0.9982 -0.0603 -0.0000
vn -0.7642 0.6450 -0.0000
vn -0.9754 0.2203 -0.0000
vn -0.9982 0.0603 -0.0000
vn -0.0000 -0.1618 0.9868
vn -0.0000 -0.5226 0.8526
vn -0.0000 -0.9165 0.4001
vn 0.5876 -0.0000 0.8091
vn 0.9383 -0.0000 0.3457
vn 0.9952 -0.0000 0.0981
vn -0.0000 -0.1618 -0.9868
vn -0.0000 -0.5226 -0.8526
vn -0.0000 -0.9165 -0.4001
vn -0.5876 -0.0000 0.8091
vn -0.9383 -0.0000 0.3457
vn -0.9952 -0.0000 0.0981
vn -0.0000 0.1618 0.9868
vn -0.0000 0.5226 0.8526
vn -0.0000 0.9165 0.4001
vn 0.5876 -0.0000 -0.8091
vn 0.9383 -0.0000 -0.3457
vn 0.9952 -0.0000 -0.0981
vn -0.0000 1.0000 -0.0000
vt 0.376822 0.546041
vt 0.374951 0.546042
vt 0.374949 0.546572
vt 0.379021 0.442788
vt 0.379022 0.440010
vt 0.378550 0.442786
vt 0.002375 0.546574
vt 0.002375 0.546048
vt 0.000504 0.546049
vt 0.378233 0.996643
vt 0.378703 0.999422
vt 0.378705 0.996643
vt 0.377573 0.440147
vt 0.375703 0.439621
vt 0.375700 0.440152
vt 0.473385 0.443424
vt 0.472915 0.440646
vt 0.472914 0.443422
vt 0.002144 0.440695
vt 0.000271 0.441227
vt 0.002145 0.441222
vt 0.472682 0.996538
vt 0.472680 0.999313
vt 0.473153 0.996538
vt 0.472486 0.445931
vt 0.379446 0.445306
vt 0.379133 0.994128
vt 0.472256 0.994025
vt 0.721586 0.908448
vt 0.938080 0.908980
vt 0.937935 0.444217
vt 0.721992 0.444424
vt 0.102008 0.165656
vt 0.471742 0.164605
vt 0.471321 0.003052
vt 0.101900 0.002001
vt 0.373262 0.545562
vt 0.374001 0.440637
vt 0.003842 0.441694
vt 0.004067 0.545571
vt 0.716526 0.444642
vt 0.475705 0.444604
vt 0.476771 0.945929
vt 0.716750 0.946264
vt 0.480856 0.160067
vt 0.477408 0.160065
vt 0.477406 0.160786
vt 0.480854 0.161585
vt 0.376825 0.545560
vt 0.375041 0.545561
vt 0.373259 0.546067
vt 0.373256 0.546572
vt 0.475700 0.442189
vt 0.473378 0.442306
vt 0.473383 0.444603
vt 0.475696 0.439767
vt 0.473373 0.439767
vt 0.379447 0.442663
vt 0.378998 0.445303
vt 0.379449 0.440013
vt 0.838459 0.160397
vt 0.838463 0.161920
vt 0.841910 0.161123
vt 0.841907 0.160399
vt 0.716522 0.439803
vt 0.716524 0.442226
vt 0.718847 0.442343
vt 0.718846 0.439803
vt 0.718848 0.444643
vt 0.378548 0.445301
vt 0.474455 0.945927
vt 0.474460 0.948225
vt 0.476780 0.950766
vt 0.004067 0.546574
vt 0.004067 0.546072
vt 0.002288 0.545571
vt 0.000503 0.545572
vt 0.471744 0.165384
vt 0.475310 0.165339
vt 0.475308 0.164598
vt 0.471745 0.166167
vt 0.475312 0.166157
vt 0.716753 0.951103
vt 0.719067 0.948566
vt 0.719066 0.946267
vt 0.102009 0.167232
vt 0.102008 0.166443
vt 0.098442 0.166413
vt 0.098442 0.167242
vt 0.098441 0.165663
vt 0.379130 0.999421
vt 0.379131 0.996771
vt 0.378684 0.994128
vt 0.378235 0.994128
vt 0.481226 0.002859
vt 0.481228 0.001341
vt 0.477785 0.002142
vt 0.477784 0.002863
vt 0.937934 0.439735
vt 0.937934 0.441979
vt 0.940018 0.442086
vt 0.940017 0.439733
vt 0.940019 0.444217
vt 0.374006 0.439626
vt 0.374004 0.440132
vt 0.375783 0.440632
vt 0.377570 0.440628
vt 0.721993 0.442188
vt 0.719909 0.442298
vt 0.719907 0.444425
vt 0.721995 0.439946
vt 0.719911 0.439948
vt 0.837933 0.002332
vt 0.841375 0.002329
vt 0.841373 0.001604
vt 0.837929 0.000809
vt 0.472488 0.440643
vt 0.472487 0.443291
vt 0.472934 0.445934
vt 0.473384 0.445936
vt 0.938081 0.911219
vt 0.940169 0.911114
vt 0.940168 0.908984
vt 0.938081 0.913463
vt 0.940169 0.913468
vt 0.474886 0.003058
vt 0.474884 0.002318
vt 0.471318 0.001490
vt 0.000272 0.441703
vt 0.002059 0.441699
vt 0.003841 0.441193
vt 0.003841 0.440691
vt 0.472255 0.996666
vt 0.472704 0.994025
vt 0.472254 0.999314
vt 0.101899 0.000425
vt 0.098335 0.001244
vt 0.098336 0.001994
vt 0.721583 0.912926
vt 0.721584 0.910684
vt 0.719496 0.910571
vt 0.719494 0.912920
vt 0.719498 0.908444
vt 0.473154 0.994025
s 0
usemtl Caixa
f 23/1/1 35/2/1 45/3/1
f 71/4/2 83/5/2 93/6/2
f 117/7/3 131/8/3 143/9/3
f 165/10/4 179/11/4 191/12/4
f 214/13/5 228/14/5 238/15/5
f 264/16/6 274/17/6 286/18/6
f 312/19/7 322/20/7 334/21/7
f 358/22/8 370/23/8 384/24/8
f 251/25/9 49/26/9 153/27/9
f 251/25/9 153/27/9 339/28/9
f 345/29/10 289/30/10 197/31/10
f 345/29/10 197/31/10 241/32/10
f 150/33/11 105/34/11 295/35/11
f 150/33/11 295/35/11 344/36/11
f 6/37/12 204/38/12 300/39/12
f 6/37/12 300/39/12 102/40/12
f 60/41/13 12/42/13 100/43/13
f 60/41/13 100/43/13 148/44/13
s 1
f 3/45/14 16/46/15 22/47/14
f 3/45/14 22/47/14 17/48/16
s 0
f 15/49/17 31/50/17 33/2/17
f 15/49/18 33/2/18 21/1/18
s 1
f 7/37/19 25/51/20 34/2/19
f 7/37/19 34/2/19 32/50/20
s 0
f 27/51/21 41/52/21 46/3/21
f 27/51/21 46/3/21 36/2/21
s 1
f 9/42/22 39/53/22 48/54/22
f 9/42/22 48/54/22 43/55/23
s 0
f 37/53/24 19/56/24 24/57/24
f 37/53/24 24/57/24 47/54/24
s 1
f 51/26/25 64/58/26 70/4/25
f 51/26/25 70/4/25 65/59/26
s 0
f 63/58/27 79/60/27 81/5/27
s 1
f 63/58/28 81/5/28 69/4/28
f 55/61/29 73/62/30 82/63/29
f 55/61/29 82/63/29 80/64/31
s 0
f 75/65/32 89/66/32 95/67/32
f 75/65/33 95/67/33 84/68/33
s 1
f 57/41/34 87/69/35 96/67/34
f 57/41/34 96/67/34 91/66/34
s 0
f 85/70/36 67/59/36 72/4/36
s 1
f 85/70/37 72/4/37 94/6/37
f 97/43/38 111/71/39 120/72/38
f 97/43/38 120/72/38 115/73/38
s 0
f 109/74/40 127/75/40 132/8/40
s 1
f 109/74/41 132/8/41 118/7/41
f 103/40/42 124/76/43 130/8/42
f 103/40/42 130/8/42 125/75/43
s 0
f 123/76/44 139/77/44 141/9/44
s 1
f 123/76/45 141/9/45 129/8/45
f 107/34/46 133/78/47 142/79/46
f 107/34/46 142/79/46 140/80/48
s 0
f 135/78/49 113/81/49 119/82/49
f 135/78/50 119/82/50 144/79/50
s 1
f 145/44/51 159/83/51 168/84/51
f 145/44/51 168/84/51 163/85/52
s 0
f 157/86/53 175/87/53 180/88/53
f 157/86/53 180/88/53 167/89/53
s 1
f 151/33/54 172/90/55 178/88/54
f 151/33/54 178/88/54 173/87/56
s 0
f 171/91/57 187/92/57 189/12/57
f 171/91/58 189/12/58 177/11/58
s 1
f 155/27/59 181/93/60 190/12/59
f 155/27/59 190/12/59 188/92/60
s 0
f 183/93/61 161/94/61 166/10/61
f 183/93/61 166/10/61 192/12/61
s 1
f 194/95/62 208/96/63 215/97/62
f 194/95/62 215/97/62 209/98/64
s 0
f 206/99/65 224/100/65 226/101/65
f 206/99/66 226/101/66 213/102/66
s 1
f 200/31/67 218/103/68 225/101/67
f 200/31/67 225/101/67 222/100/67
s 0
f 220/104/69 234/105/69 237/15/69
s 1
f 220/104/70 237/15/70 227/14/70
f 202/38/71 229/106/72 239/15/71
f 202/38/71 239/15/71 236/105/72
s 0
f 230/106/73 210/107/73 216/13/73
s 1
f 230/106/74 216/13/74 240/15/74
f 244/32/75 254/108/75 261/109/75
f 244/32/75 261/109/75 258/110/76
s 0
f 256/108/77 270/111/77 273/112/77
f 256/108/77 273/112/77 262/109/77
s 1
f 246/113/78 265/114/79 275/115/78
f 246/113/78 275/115/78 272/116/80
s 0
f 266/117/81 282/118/81 288/18/81
f 266/117/82 288/18/82 276/17/82
s 1
f 250/25/83 280/119/84 287/18/83
f 250/25/83 287/18/83 281/118/84
s 0
f 278/119/85 260/120/85 263/16/85
f 278/119/85 263/16/85 285/18/85
s 1
f 292/30/86 302/121/86 309/122/86
f 292/30/86 309/122/86 306/123/87
s 0
f 304/121/88 318/124/88 321/125/88
f 304/121/88 321/125/88 310/122/88
s 1
f 294/35/89 313/126/90 323/127/89
f 294/35/89 323/127/89 320/128/91
s 0
f 314/129/92 330/130/92 336/21/92
f 314/129/93 336/21/93 324/20/93
s 1
f 298/39/94 328/131/95 335/21/94
f 298/39/94 335/21/94 329/130/95
s 0
f 326/131/96 308/132/96 311/19/96
f 326/131/96 311/19/96 333/21/96
s 1
f 338/28/97 349/133/98 359/22/97
f 338/28/97 359/22/97 356/134/98
s 0
f 350/133/99 366/135/99 372/23/99
s 1
f 350/133/100 372/23/100 360/22/100
f 342/36/101 364/136/102 371/137/101
f 342/36/101 371/137/101 365/138/103
s 0
f 362/139/104 380/140/104 382/141/104
f 362/139/105 382/141/105 369/142/105
s 1
f 348/29/106 374/143/107 381/141/106
f 348/29/106 381/141/106 378/140/106
s 0
f 376/144/108 354/134/108 357/22/108
s 1
f 376/144/109 357/22/109 383/24/109
s 0
f 249/25/110 337/28/110 355/134/110
f 249/25/110 355/134/110 279/119/110
f 277/119/111 353/134/111 375/144/111
f 277/119/111 375/144/111 259/120/111
f 257/110/112 373/143/112 346/29/112
f 257/110/112 346/29/112 242/32/112
f 50/26/113 252/25/113 283/118/113
f 50/26/113 283/118/113 61/58/113
f 62/58/114 284/118/114 267/117/114
f 62/58/114 267/117/114 77/60/114
f 78/64/115 268/114/115 247/113/115
f 78/64/115 247/113/115 53/61/115
f 10/42/116 58/41/116 92/66/116
f 10/42/116 92/66/116 40/53/116
f 38/53/117 90/66/117 76/65/117
f 38/53/117 76/65/117 20/56/117
f 18/48/118 74/62/118 56/61/118
f 18/48/118 56/61/118 4/45/118
f 341/36/119 293/35/119 319/128/119
f 341/36/119 319/128/119 363/136/119
f 361/139/120 317/124/120 303/121/120
f 361/139/120 303/121/120 379/140/120
f 377/140/121 301/121/121 291/30/121
f 377/140/121 291/30/121 347/29/121
f 108/34/122 152/33/122 174/87/122
f 108/34/122 174/87/122 134/78/122
f 136/78/123 176/87/123 158/86/123
f 136/78/123 158/86/123 114/81/123
f 116/73/124 160/83/124 146/44/124
f 116/73/124 146/44/124 98/43/124
f 193/95/125 245/113/125 271/116/125
f 193/95/125 271/116/125 207/96/125
f 205/99/126 269/111/126 255/108/126
f 205/99/126 255/108/126 223/100/126
f 221/100/127 253/108/127 243/32/127
f 221/100/127 243/32/127 199/31/127
f 101/40/128 299/39/128 332/130/128
f 101/40/128 332/130/128 122/76/128
f 121/76/129 331/130/129 316/129/129
f 121/76/129 316/129/129 138/77/129
f 137/80/130 315/126/130 296/35/130
f 137/80/130 296/35/130 106/34/130
f 8/37/131 104/40/131 126/75/131
f 8/37/131 126/75/131 26/51/131
f 28/51/132 128/75/132 110/74/132
f 28/51/132 110/74/132 42/52/132
f 44/55/133 112/71/133 99/43/133
f 44/55/133 99/43/133 11/42/133
f 340/28/134 154/27/134 185/92/134
f 340/28/134 185/92/134 351/133/134
f 352/133/135 186/92/135 169/91/135
f 352/133/135 169/91/135 367/135/135
f 368/138/136 170/90/136 149/33/136
f 368/138/136 149/33/136 343/36/136
f 297/39/137 201/38/137 235/105/137
f 297/39/137 235/105/137 327/131/137
f 325/131/138 233/105/138 219/104/138
f 325/131/138 219/104/138 307/132/138
f 305/123/139 217/103/139 198/31/139
f 305/123/139 198/31/139 290/30/139
f 203/38/140 5/37/140 30/50/140
f 203/38/140 30/50/140 232/106/140
f 231/106/141 29/50/141 14/49/141
f 231/106/141 14/49/141 212/107/141
f 211/98/142 13/46/142 2/45/142
f 211/98/142 2/45/142 196/95/142
f 156/27/143 52/26/143 66/59/143
f 156/27/143 66/59/143 182/93/143
f 184/93/144 68/59/144 86/70/144
f 184/93/144 86/70/144 162/94/144
f 164/85/145 88/69/145 59/41/145
f 164/85/145 59/41/145 147/44/145
f 248/113/146 195/95/146 1/45/146
f 248/113/146 1/45/146 54/61/146
