# Blender 4.5.0
# www.blender.org
mtllib juice_pack_3d_scan.mtl
o Object_4
v 0.011331 0.026753 -0.019638
v 0.011331 0.026753 -0.019638
v 0.003993 0.026955 -0.019735
v 0.004234 0.026963 0.019434
v 0.004234 0.026963 0.019434
v 0.011331 0.026753 0.019434
v -0.011331 -0.024588 0.019434
v 0.011331 -0.024588 0.019434
v 0.011331 0.026753 0.019434
v 0.004234 0.026963 0.019434
v 0.004194 0.026962 0.019434
v 0.004661 0.014833 0.019434
v 0.000666 0.014486 0.019434
v -0.011325 0.026443 0.019434
v -0.011331 -0.024588 0.019434
v -0.011325 0.026443 0.019434
v -0.011325 0.026443 -0.019433
v -0.011331 -0.024588 -0.019433
v -0.011331 -0.024588 -0.019433
v 0.011331 -0.024588 -0.019433
v 0.011331 -0.024588 0.019434
v -0.011331 -0.024588 0.019434
v 0.011331 -0.024588 -0.019433
v 0.011331 0.026753 -0.019638
v 0.011331 0.026753 0.019434
v 0.011331 -0.024588 0.019434
v 0.011331 -0.024588 -0.019433
v -0.011331 -0.024588 -0.019433
v -0.011325 0.026443 -0.019433
v -0.010592 0.026467 -0.019529
v -0.000081 0.014524 -0.019529
v 0.003879 0.014617 -0.019529
v 0.003922 0.019293 -0.019735
v 0.011331 0.026753 -0.019638
v 0.004194 0.026962 0.019434
v -0.011325 0.026443 0.019434
v 0.004198 0.026753 0.019434
v -0.011331 0.026476 0.019434
v -0.011331 0.026476 0.019434
v 0.000666 0.014486 0.019434
v 0.000728 0.014498 0.019731
v -0.011390 0.026271 0.019531
v 0.004198 0.026753 0.019434
v -0.011325 0.026443 0.019434
v 0.000666 0.014486 0.019434
v -0.011331 0.026476 0.019434
v 0.004198 0.026753 0.019434
v -0.011331 0.026476 0.019434
v 0.004198 0.026953 0.019434
v -0.011331 0.026461 0.019434
v -0.011390 0.026271 0.019531
v 0.000728 0.014498 0.019731
v 0.004184 0.014833 0.019724
v 0.004138 0.026998 0.019552
v 0.000728 0.014498 0.019731
v 0.000666 0.014486 0.019434
v 0.004661 0.014833 0.019434
v 0.004719 0.014885 0.019723
v 0.004184 0.014833 0.019724
v 0.004198 0.026753 0.019434
v -0.011331 0.026476 0.019434
v 0.004138 0.026998 0.019552
v -0.011390 0.026271 0.019531
v 0.004661 0.014833 0.019434
v 0.004198 0.026753 0.019434
v 0.004138 0.026998 0.019552
v 0.004719 0.014885 0.019723
v 0.003993 0.026955 -0.019735
v 0.004234 0.026963 0.019434
v 0.004237 0.026753 0.019434
v 0.003997 0.026753 -0.019433
v 0.004194 0.026962 0.019434
v 0.004194 0.026962 0.019434
v 0.004234 0.026963 0.019434
v 0.003993 0.026955 -0.019735
v 0.003993 0.026955 -0.019735
v -0.010592 0.026467 -0.019529
v -0.011325 0.026443 -0.019433
v -0.011325 0.026443 0.019434
v 0.004138 0.026998 0.019552
v 0.004184 0.014833 0.019724
v 0.004719 0.014885 0.019723
v 0.011331 0.026753 -0.019638
v 0.003922 0.019293 -0.019735
v 0.003922 0.019293 -0.019735
v 0.003922 0.019293 -0.019735
v 0.003879 0.014617 -0.019529
v 0.003879 0.014617 -0.019763
v 0.003922 0.019293 -0.019763
v -0.000081 0.014524 -0.019529
v 0.003879 0.014617 -0.019529
v 0.003879 0.014617 -0.019433
v -0.000081 0.014524 -0.019433
v -0.010592 0.026467 -0.019513
v 0.003993 0.026955 -0.019763
v 0.003922 0.019293 -0.019763
v 0.003879 0.014617 -0.019763
v -0.000081 0.014524 -0.019763
v -0.010592 0.026467 -0.019513
v 0.003993 0.026955 -0.019763
v 0.003993 0.026955 -0.019735
v 0.003993 0.026955 -0.019763
v -0.000081 0.014524 -0.019529
v -0.010592 0.026467 -0.019529
v -0.000081 0.014524 -0.019763
v -0.010592 0.026467 -0.019513
v -0.000081 0.014524 -0.019763
v 0.003879 0.014617 -0.019763
v 0.011331 0.026753 -0.019638
v 0.003922 0.019293 -0.019735
v 0.003993 0.026955 -0.019735
v 0.003922 0.019293 -0.019735
v 0.003922 0.019293 -0.019735
v 0.003993 0.026955 -0.019735
v 0.003993 0.026955 -0.019735
v 0.003993 0.026955 -0.019735
v 0.003922 0.019293 -0.019735
v 0.003993 0.026955 -0.019735
v 0.011331 0.026753 -0.019638
v 0.003993 0.026955 -0.019735
vn 0.0285 0.9996 -0.0001
vn 0.0296 0.9996 -0.0000
vn -0.0000 -0.0000 1.0000
vn -1.0000 0.0001 -0.0000
vn -0.0000 -1.0000 -0.0000
vn 1.0000 -0.0000 -0.0000
vn -0.0034 -0.0033 -1.0000
vn -0.0035 -0.0033 -1.0000
vn 0.0001 -0.0000 1.0000
vn -0.6621 -0.6747 -0.3262
vn -0.6621 -0.6746 -0.3262
vn -0.6623 -0.6745 -0.3262
vn -0.0000 -0.0002 1.0000
vn -0.0000 -0.0000 -1.0000
vn 0.0001 -0.0000 -1.0000
vn -0.0015 0.0148 0.9999
vn -0.0015 0.0146 0.9999
vn -0.0020 0.0142 0.9999
vn 0.0913 -0.9919 0.0886
vn -0.0313 0.9796 -0.1986
vn -0.0315 0.9796 -0.1984
vn -0.0315 0.9796 -0.1986
vn 0.9987 0.0432 -0.0261
vn 0.9987 0.0432 -0.0260
vn 0.9999 0.0122 -0.0062
vn 0.9999 0.0122 -0.0061
vn -0.0333 0.9994 -0.0000
vn -0.0334 0.9994 -0.0000
vn 0.0004 0.0142 0.9999
vn -0.0001 -0.0000 -1.0000
vn 1.0000 -0.0093 -0.0000
vn 0.0235 -0.9997 -0.0000
vn -0.0138 0.0046 -0.9999
vn -0.0137 0.0045 -0.9999
vn -0.0335 0.9994 -0.0000
vn -0.7507 -0.6607 -0.0000
vn -0.7506 -0.6607 -0.0000
vn 0.0132 -0.0001 -0.9999
vn -0.0000 -0.0003 1.0000
vn -0.0001 -0.0000 1.0000
vt 0.963067 0.610021
vt 0.964592 0.684323
vt 0.654883 0.694292
vt 0.649201 0.626291
vt 0.280857 0.025174
vt 0.468813 0.026392
vt 0.460044 0.434667
vt 0.404174 0.436629
vt 0.403864 0.436640
vt 0.408810 0.341141
vt 0.377064 0.339213
vt 0.281566 0.440936
vt 0.280700 0.024055
vt 0.280702 0.440998
vt 0.013599 0.436859
vt 0.013683 0.022753
vt 0.568710 0.129027
vt 0.881184 0.112949
vt 0.882631 0.343710
vt 0.583270 0.359787
vt 0.329936 0.509928
vt 0.316468 0.990048
vt 0.015772 0.993251
vt 0.013352 0.506036
vt 0.387913 0.480907
vt 0.602666 0.476751
vt 0.594275 0.961776
vt 0.587776 0.961811
vt 0.495041 0.847294
vt 0.459521 0.848065
vt 0.459231 0.891677
vt 0.393740 0.962878
vt 0.654915 0.694669
vt 0.667353 0.843519
vt 0.404559 0.340883
vt 0.967625 0.832160
vt 0.967778 0.839600
vt 0.458642 0.962521
s 1
usemtl Material.003
f 1/1/1 3/2/1 4/3/1
s 0
f 2/1/2 5/3/2 6/4/2
f 7/5/3 8/6/3 9/7/3
f 9/7/3 10/8/3 11/9/3
f 9/7/3 11/9/3 12/10/3
f 13/11/3 14/12/3 7/5/3
f 7/5/3 9/7/3 12/10/3
f 12/10/3 13/11/3 7/5/3
f 15/13/4 16/14/4 17/15/4
f 15/13/4 17/15/4 18/16/4
f 19/17/5 20/18/5 21/19/5
f 19/17/5 21/19/5 22/20/5
f 23/21/6 24/22/6 25/23/6
f 23/21/6 25/23/6 26/24/6
s 1
f 27/25/7 28/26/7 29/27/7
f 29/27/7 30/28/8 31/29/7
f 32/30/7 33/31/7 34/32/7
f 27/25/7 29/27/7 31/29/7
f 32/30/7 34/32/7 27/25/7
f 31/29/7 32/30/7 27/25/7
s 0
f 35/33/3 36/34/3 37/33/3
s 1
f 36/34/9 38/34/3 37/33/3
f 39/12/10 40/11/11 41/11/10
f 39/12/10 41/11/10 42/12/12
s 0
f 12/10/3 11/9/3 43/9/3
f 44/12/13 45/11/13 46/12/13
f 47/9/14 48/12/14 49/9/14
s 1
f 48/12/15 50/12/14 49/9/14
f 51/12/16 52/11/16 53/35/17
f 51/12/16 53/35/17 54/9/18
f 55/11/19 56/11/19 57/10/19
f 57/10/19 58/10/19 59/35/19
f 57/10/19 59/35/19 55/11/19
f 60/33/20 61/34/21 62/33/22
f 61/34/21 63/34/22 62/33/22
f 64/10/23 65/9/24 66/9/24
f 64/10/23 66/9/24 67/10/23
f 68/2/25 69/3/26 70/3/25
f 68/2/25 70/3/25 71/2/25
s 0
f 72/33/27 74/3/27 75/2/27
f 76/2/28 77/36/28 78/37/28
f 78/37/28 79/34/28 73/33/28
f 76/2/28 78/37/28 73/33/28
f 80/9/29 81/35/29 82/10/29
s 1
f 83/32/30 84/31/14 85/31/30
s 0
f 86/31/31 87/30/31 88/30/31
f 86/31/31 88/30/31 89/31/31
f 90/29/32 91/30/32 92/30/32
f 90/29/32 92/30/32 93/29/32
s 1
f 94/28/33 95/38/34 96/31/34
f 96/31/34 97/30/34 98/29/34
f 96/31/34 98/29/34 94/28/33
f 77/36/35 76/2/35 99/36/35
s 0
f 76/2/28 100/2/28 99/36/28
f 101/38/31 86/31/31 89/31/31
f 101/38/31 89/31/31 102/38/31
f 103/29/36 104/28/36 105/29/36
s 1
f 104/28/37 106/28/37 105/29/37
s 0
f 91/30/32 90/29/32 107/29/32
f 91/30/32 107/29/32 108/30/32
f 109/32/38 110/31/38 111/38/38
f 113/31/39 114/38/39 116/38/39
s 1
f 112/31/40 115/38/9 117/31/40
s 0
f 118/2/5 119/1/5 120/2/5
