# Blender 4.5.0
# www.blender.org
mtllib juice.mtl
o defaultMaterial
v 0.018463 0.037814 0.013079
v 0.018463 0.063384 0.013079
v 0.000000 0.063384 0.013079
v 0.000000 0.037814 0.013079
v 0.018819 0.075050 0.012903
v 0.019058 0.075059 0.012660
v 0.018826 0.075220 0.012764
v 0.018463 0.075562 -0.000000
v 0.000000 0.075562 0.000000
v 0.000000 0.075562 0.012589
v 0.018463 0.075562 0.012589
v 0.000000 0.075062 0.013079
v 0.018463 0.075062 0.013079
v 0.018463 0.075340 0.012851
v 0.000000 0.075340 0.012851
v 0.018819 0.075050 0.012903
v 0.018684 0.063384 0.012856
v 0.018684 0.063384 -0.000000
v 0.018684 0.063384 -0.000000
v 0.019041 0.063653 -0.000000
v 0.018684 0.037814 -0.000000
v 0.018684 0.037814 0.012856
v 0.019101 0.063771 -0.000000
v 0.019101 0.075062 -0.000000
v 0.019101 0.075062 0.012326
v 0.018463 0.075062 0.013079
v 0.018831 0.075385 0.012530
v 0.018831 0.075385 -0.000000
v 0.000000 0.075062 0.013079
v -0.018463 0.037814 0.013079
v -0.018463 0.063384 0.013079
v -0.018819 0.075050 0.012903
v -0.018826 0.075220 0.012764
v -0.019058 0.075059 0.012660
v -0.018463 0.075562 0.000000
v -0.018463 0.075562 0.012589
v -0.018463 0.075340 0.012851
v -0.018463 0.075062 0.013079
v -0.018819 0.075050 0.012903
v -0.018684 0.063384 0.000000
v -0.018684 0.063384 0.012856
v -0.019041 0.063653 0.000000
v -0.018684 0.063384 0.000000
v -0.018684 0.037814 0.000000
v -0.018684 0.037814 0.012856
v -0.019101 0.063771 0.000000
v -0.019101 0.075062 0.012326
v -0.019101 0.075062 0.000000
v -0.018463 0.075062 0.013079
v -0.018831 0.075385 0.012530
v -0.018831 0.075385 0.000000
v 0.018463 0.037814 -0.013079
v -0.000000 0.037814 -0.013079
v -0.000000 0.063384 -0.013079
v 0.018463 0.063384 -0.013079
v 0.018819 0.075050 -0.012903
v 0.018826 0.075220 -0.012764
v 0.019058 0.075059 -0.012660
v 0.018463 0.075562 -0.012589
v -0.000000 0.075562 -0.012589
v -0.000000 0.075062 -0.013079
v -0.000000 0.075340 -0.012851
v 0.018463 0.075340 -0.012851
v 0.018463 0.075062 -0.013079
v 0.018819 0.075050 -0.012903
v 0.018684 0.063384 -0.012856
v 0.018684 0.037814 -0.012856
v 0.019101 0.075062 -0.012326
v 0.018684 0.063384 -0.012856
v 0.018684 0.037814 -0.012856
v 0.018831 0.075385 -0.012530
v -0.018463 0.037814 -0.013079
v -0.018463 0.063384 -0.013079
v -0.018819 0.075050 -0.012903
v -0.019058 0.075059 -0.012660
v -0.018826 0.075220 -0.012764
v -0.018463 0.075562 -0.012589
v -0.018463 0.075062 -0.013079
v -0.018463 0.075340 -0.012851
v -0.018819 0.075050 -0.012903
v -0.018684 0.063384 -0.012856
v -0.018684 0.037814 -0.012856
v -0.019101 0.075062 -0.012326
v -0.018684 0.063384 -0.012856
v -0.018684 0.037814 -0.012856
v -0.018831 0.075385 -0.012530
v 0.000000 0.012244 0.013079
v 0.018463 0.012244 0.013079
v 0.018819 0.000578 0.012903
v 0.018826 0.000409 0.012764
v 0.019058 0.000569 0.012660
v 0.018463 0.000066 -0.000000
v 0.018463 0.000066 0.012589
v 0.000000 0.000066 0.012589
v 0.000000 0.000066 0.000000
v 0.000000 0.000567 0.013079
v 0.000000 0.000288 0.012851
v 0.018463 0.000288 0.012851
v 0.018463 0.000567 0.013079
v 0.018819 0.000578 0.012903
v 0.018684 0.012244 -0.000000
v 0.018684 0.012244 0.012856
v 0.019041 0.011975 -0.000000
v 0.018684 0.012244 -0.000000
v 0.019101 0.011857 -0.000000
v 0.019101 0.000567 0.012326
v 0.019101 0.000567 -0.000000
v 0.018463 0.000567 0.013079
v 0.018831 0.000244 0.012530
v 0.018831 0.000244 -0.000000
v 0.000000 0.000567 0.013079
v -0.018463 0.012244 0.013079
v -0.018819 0.000578 0.012903
v -0.019058 0.000569 0.012660
v -0.018826 0.000409 0.012764
v -0.018463 0.000066 0.000000
v -0.018463 0.000066 0.012589
v -0.018463 0.000567 0.013079
v -0.018463 0.000288 0.012851
v -0.018819 0.000578 0.012903
v -0.018684 0.012244 0.012856
v -0.018684 0.012244 0.000000
v -0.018684 0.012244 0.000000
v -0.019041 0.011975 0.000000
v -0.019101 0.011857 0.000000
v -0.019101 0.000567 0.000000
v -0.019101 0.000567 0.012326
v -0.018463 0.000567 0.013079
v -0.018831 0.000244 0.012530
v -0.018831 0.000244 0.000000
v 0.018463 0.012244 -0.013079
v -0.000000 0.012244 -0.013079
v 0.018819 0.000578 -0.012903
v 0.019058 0.000569 -0.012660
v 0.018826 0.000409 -0.012764
v -0.000000 0.000066 -0.012589
v 0.018463 0.000066 -0.012589
v -0.000000 0.000567 -0.013079
v 0.018463 0.000567 -0.013079
v 0.018463 0.000288 -0.012851
v -0.000000 0.000288 -0.012851
v 0.018819 0.000578 -0.012903
v 0.018684 0.012244 -0.012856
v 0.019101 0.000567 -0.012326
v 0.018684 0.012244 -0.012856
v 0.018831 0.000244 -0.012530
v -0.018463 0.012244 -0.013079
v -0.018819 0.000578 -0.012903
v -0.018826 0.000409 -0.012764
v -0.018826 0.000409 -0.012764
v -0.019058 0.000569 -0.012660
v -0.018463 0.000066 -0.012589
v -0.018463 0.000288 -0.012851
v -0.018463 0.000567 -0.013079
v -0.018819 0.000578 -0.012903
v -0.018684 0.012244 -0.012856
v -0.018819 0.000578 -0.012903
v -0.018819 0.000578 -0.012903
v -0.019058 0.000569 -0.012660
v -0.019101 0.000567 -0.012326
v -0.018684 0.012244 -0.012856
v -0.018831 0.000244 -0.012530
v -0.011676 0.076510 0.001650
v -0.011676 0.079833 0.001650
v -0.010843 0.079833 0.001568
v -0.010843 0.076510 0.001568
v -0.010032 0.076396 0.001763
v -0.009253 0.076396 0.001999
v -0.009372 0.076396 0.002288
v -0.010093 0.076396 0.002069
v -0.008534 0.076396 0.002383
v -0.008708 0.076396 0.002643
v -0.007905 0.076396 0.002900
v -0.008125 0.076396 0.003121
v -0.007388 0.076396 0.003530
v -0.007647 0.076396 0.003703
v -0.007004 0.076396 0.004248
v -0.007292 0.076396 0.004368
v -0.006767 0.076396 0.005028
v -0.007074 0.076396 0.005089
v -0.006687 0.076396 0.005839
v -0.007000 0.076396 0.005839
v -0.006767 0.076396 0.006649
v -0.007074 0.076396 0.006588
v -0.007004 0.076396 0.007429
v -0.007292 0.076396 0.007309
v -0.007388 0.076396 0.008147
v -0.007647 0.076396 0.007974
v -0.007905 0.076396 0.008777
v -0.008125 0.076396 0.008556
v -0.008534 0.076396 0.009294
v -0.008708 0.076396 0.009034
v -0.009253 0.076396 0.009678
v -0.009372 0.076396 0.009390
v -0.010032 0.076396 0.009915
v -0.010093 0.076396 0.009608
v -0.010843 0.076396 0.009994
v -0.010843 0.076396 0.009682
v -0.011654 0.076396 0.009915
v -0.011593 0.076396 0.009608
v -0.012434 0.076396 0.009678
v -0.012314 0.076396 0.009390
v -0.013152 0.076396 0.009294
v -0.012979 0.076396 0.009034
v -0.013782 0.076396 0.008777
v -0.013561 0.076396 0.008556
v -0.014299 0.076396 0.008147
v -0.014039 0.076396 0.007974
v -0.014683 0.076396 0.007429
v -0.014394 0.076396 0.007309
v -0.014919 0.076396 0.006649
v -0.014613 0.076396 0.006588
v -0.014999 0.076396 0.005839
v -0.014687 0.076396 0.005839
v -0.014919 0.076396 0.005028
v -0.014613 0.076396 0.005089
v -0.014683 0.076396 0.004248
v -0.014394 0.076396 0.004368
v -0.014299 0.076396 0.003530
v -0.014039 0.076396 0.003703
v -0.013782 0.076396 0.002900
v -0.013561 0.076396 0.003121
v -0.013152 0.076396 0.002383
v -0.012979 0.076396 0.002643
v -0.012434 0.076396 0.001999
v -0.012314 0.076396 0.002288
v -0.013216 0.079833 0.009389
v -0.012477 0.079833 0.009784
v -0.012314 0.080066 0.009390
v -0.012979 0.080066 0.009034
v -0.011654 0.076396 0.001763
v -0.011593 0.076396 0.002069
v -0.010843 0.076396 0.001683
v -0.010843 0.076396 0.001995
v -0.009209 0.076510 0.009784
v -0.009209 0.079833 0.009784
v -0.010010 0.079833 0.010027
v -0.010010 0.076510 0.010027
v -0.007647 0.076396 0.007974
v -0.008125 0.076396 0.008556
v -0.008125 0.076063 0.008556
v -0.007647 0.076063 0.007974
v -0.015032 0.076510 0.006672
v -0.015032 0.079833 0.006672
v -0.015114 0.079833 0.005839
v -0.015114 0.076510 0.005839
v -0.010010 0.079833 0.001650
v -0.010010 0.076510 0.001650
v -0.009209 0.079833 0.001893
v -0.009209 0.076510 0.001893
v -0.006898 0.076510 0.007473
v -0.006898 0.079833 0.007473
v -0.007292 0.079833 0.008211
v -0.007292 0.076510 0.008211
v -0.013216 0.076510 0.009389
v -0.013863 0.079833 0.008858
v -0.013863 0.076510 0.008858
v -0.013863 0.076510 0.002819
v -0.013863 0.079833 0.002819
v -0.013216 0.079833 0.002288
v -0.013216 0.076510 0.002288
v -0.006898 0.076510 0.004204
v -0.006898 0.079833 0.004204
v -0.006655 0.079833 0.005006
v -0.006655 0.076510 0.005006
v -0.010843 0.079833 0.010109
v -0.010843 0.076510 0.010109
v -0.015032 0.079833 0.005005
v -0.015032 0.076510 0.005005
v -0.008471 0.079833 0.002288
v -0.008471 0.076510 0.002288
v -0.007823 0.079833 0.008858
v -0.007823 0.076510 0.008858
v -0.014394 0.079833 0.008211
v -0.014394 0.076510 0.008211
v -0.012477 0.079833 0.001893
v -0.012477 0.076510 0.001893
v -0.006573 0.079833 0.005839
v -0.006573 0.076510 0.005839
v -0.011676 0.079833 0.010027
v -0.011676 0.076510 0.010027
v -0.014789 0.079833 0.004204
v -0.014789 0.076510 0.004204
v -0.007823 0.079833 0.002819
v -0.007823 0.076510 0.002819
v -0.008471 0.079833 0.009389
v -0.008471 0.076510 0.009389
v -0.014789 0.079833 0.007473
v -0.014789 0.076510 0.007473
v -0.006655 0.079833 0.006672
v -0.006655 0.076510 0.006672
v -0.012477 0.076510 0.009784
v -0.014394 0.079833 0.003466
v -0.014394 0.076510 0.003466
v -0.007292 0.079833 0.003466
v -0.007292 0.076510 0.003466
v -0.010843 0.075948 0.000842
v -0.009868 0.075948 0.000938
v -0.009868 0.075562 0.000938
v -0.010843 0.075562 0.000842
v -0.009868 0.075948 0.010739
v -0.010843 0.075948 0.010835
v -0.010843 0.075562 0.010835
v -0.009868 0.075562 0.010739
v -0.014613 0.076396 0.005089
v -0.014394 0.076396 0.004368
v -0.014394 0.076063 0.004368
v -0.014613 0.076063 0.005089
v -0.008708 0.076396 0.009034
v -0.008708 0.076063 0.009034
v -0.014039 0.076396 0.003703
v -0.014039 0.076063 0.003703
v -0.009372 0.076396 0.009390
v -0.009372 0.076063 0.009390
v -0.010843 0.076396 0.001995
v -0.010093 0.076396 0.002069
v -0.010093 0.076063 0.002069
v -0.010843 0.076063 0.001995
v -0.013561 0.076396 0.003121
v -0.013561 0.076063 0.003121
v -0.010093 0.076396 0.009608
v -0.010093 0.076063 0.009608
v -0.009372 0.076396 0.002288
v -0.009372 0.076063 0.002288
v -0.012979 0.076396 0.002643
v -0.012979 0.076063 0.002643
v -0.010843 0.076396 0.009682
v -0.010843 0.076063 0.009682
v -0.008708 0.076396 0.002643
v -0.008708 0.076063 0.002643
v -0.012314 0.076396 0.002288
v -0.012314 0.076063 0.002288
v -0.011593 0.076396 0.009608
v -0.011593 0.076063 0.009608
v -0.008125 0.076396 0.003121
v -0.008125 0.076063 0.003121
v -0.011593 0.076396 0.002069
v -0.011593 0.076063 0.002069
v -0.012314 0.076396 0.009390
v -0.012314 0.076063 0.009390
v -0.007647 0.076396 0.003703
v -0.007647 0.076063 0.003703
v -0.012979 0.076396 0.009034
v -0.012979 0.076063 0.009034
v -0.007292 0.076396 0.004368
v -0.007292 0.076063 0.004368
v -0.013561 0.076396 0.008556
v -0.013561 0.076063 0.008556
v -0.007074 0.076396 0.005089
v -0.007074 0.076063 0.005089
v -0.014039 0.076396 0.007974
v -0.014039 0.076063 0.007974
v -0.007000 0.076396 0.005839
v -0.007000 0.076063 0.005839
v -0.014394 0.076396 0.007309
v -0.014394 0.076063 0.007309
v -0.007074 0.076396 0.006588
v -0.007074 0.076063 0.006588
v -0.014613 0.076396 0.006588
v -0.014613 0.076063 0.006588
v -0.007292 0.076396 0.007309
v -0.007292 0.076063 0.007309
v -0.014687 0.076396 0.005839
v -0.014687 0.076063 0.005839
v -0.012755 0.075948 0.010455
v -0.013619 0.075948 0.009993
v -0.013619 0.075562 0.009993
v -0.012755 0.075562 0.010455
v -0.008931 0.075948 0.001222
v -0.008067 0.075948 0.001684
v -0.008067 0.075562 0.001684
v -0.008931 0.075562 0.001222
v -0.013619 0.075948 0.001684
v -0.012755 0.075948 0.001222
v -0.012755 0.075562 0.001222
v -0.013619 0.075562 0.001684
v -0.011818 0.075948 0.010739
v -0.011818 0.075562 0.010739
v -0.007310 0.075948 0.002306
v -0.007310 0.075562 0.002306
v -0.011818 0.075948 0.000938
v -0.011818 0.075562 0.000938
v -0.011593 0.076063 0.009608
v -0.012314 0.076063 0.009390
v -0.012711 0.076063 0.010349
v -0.011796 0.076063 0.010627
v -0.006689 0.075948 0.003063
v -0.006689 0.075562 0.003063
v -0.006227 0.075948 0.003927
v -0.006227 0.075562 0.003927
v -0.010843 0.076063 0.001995
v -0.010093 0.076063 0.002069
v -0.009891 0.076063 0.001051
v -0.010843 0.076063 0.000957
v -0.014376 0.075948 0.009372
v -0.014376 0.075562 0.009372
v -0.005943 0.075948 0.004864
v -0.005943 0.075562 0.004864
v -0.014998 0.075948 0.008615
v -0.014998 0.075562 0.008615
v -0.005847 0.075948 0.005839
v -0.005847 0.075562 0.005839
v -0.015459 0.075948 0.007751
v -0.015459 0.075562 0.007751
v -0.005943 0.075948 0.006813
v -0.005943 0.075562 0.006813
v -0.015744 0.075948 0.006813
v -0.015744 0.075562 0.006813
v -0.006227 0.075948 0.007751
v -0.006227 0.075562 0.007751
v -0.015840 0.075948 0.005839
v -0.015840 0.075562 0.005839
v -0.006689 0.075948 0.008615
v -0.006689 0.075562 0.008615
v -0.015744 0.075948 0.004864
v -0.015744 0.075562 0.004864
v -0.007310 0.075948 0.009372
v -0.007310 0.075562 0.009372
v -0.015459 0.075948 0.003927
v -0.015459 0.075562 0.003927
v -0.008067 0.075948 0.009993
v -0.008067 0.075562 0.009993
v -0.014998 0.075948 0.003063
v -0.014998 0.075562 0.003063
v -0.008931 0.075948 0.010455
v -0.008931 0.075562 0.010455
v -0.014376 0.075948 0.002306
v -0.014376 0.075562 0.002306
v -0.007074 0.080066 0.006588
v -0.007292 0.080066 0.007309
v -0.008125 0.076063 0.003121
v -0.007647 0.076063 0.003703
v -0.006784 0.076063 0.003126
v -0.007391 0.076063 0.002387
v -0.012979 0.076063 0.009034
v -0.013555 0.076063 0.009898
v -0.007292 0.076063 0.004368
v -0.006333 0.076063 0.003970
v -0.013561 0.076063 0.008556
v -0.014295 0.076063 0.009291
v -0.007074 0.076063 0.005089
v -0.006055 0.076063 0.004886
v -0.014039 0.076063 0.007974
v -0.014902 0.076063 0.008551
v -0.007000 0.076063 0.005839
v -0.005961 0.076063 0.005839
v -0.014394 0.076063 0.007309
v -0.015353 0.076063 0.007707
v -0.007074 0.076063 0.006588
v -0.006055 0.076063 0.006791
v -0.014613 0.076063 0.006588
v -0.015631 0.076063 0.006791
v -0.007292 0.076063 0.007309
v -0.006333 0.076063 0.007707
v -0.014687 0.076063 0.005839
v -0.015725 0.076063 0.005839
v -0.007647 0.076063 0.007974
v -0.006784 0.076063 0.008551
v -0.014613 0.076063 0.005089
v -0.015631 0.076063 0.004886
v -0.008125 0.076063 0.008556
v -0.007391 0.076063 0.009291
v -0.014394 0.076063 0.004368
v -0.015353 0.076063 0.003970
v -0.008708 0.076063 0.009034
v -0.008131 0.076063 0.009898
v -0.014039 0.076063 0.003703
v -0.014902 0.076063 0.003126
v -0.009372 0.076063 0.009390
v -0.008975 0.076063 0.010349
v -0.011593 0.076063 0.002069
v -0.011796 0.076063 0.001051
v -0.013561 0.076063 0.003121
v -0.014295 0.076063 0.002387
v -0.010093 0.076063 0.009608
v -0.009891 0.076063 0.010627
v -0.009372 0.076063 0.002288
v -0.008975 0.076063 0.001328
v -0.012979 0.076063 0.002643
v -0.013555 0.076063 0.001780
v -0.010843 0.076063 0.009682
v -0.010843 0.076063 0.010720
v -0.008708 0.076063 0.002643
v -0.008131 0.076063 0.001780
v -0.012314 0.076063 0.002288
v -0.012711 0.076063 0.001328
v -0.014039 0.080066 0.003703
v -0.013561 0.080066 0.003121
v -0.007647 0.080066 0.003703
v -0.007292 0.080066 0.004368
v -0.009372 0.080066 0.009390
v -0.010093 0.080066 0.009608
v -0.014613 0.080066 0.006588
v -0.014687 0.080066 0.005839
v -0.010093 0.080066 0.002069
v -0.009372 0.080066 0.002288
v -0.007647 0.080066 0.007974
v -0.013561 0.080066 0.008556
v -0.012979 0.080066 0.002643
v -0.007074 0.080066 0.005089
v -0.010843 0.080066 0.009682
v -0.014613 0.080066 0.005089
v -0.008708 0.080066 0.002643
v -0.008125 0.080066 0.008556
v -0.014039 0.080066 0.007974
v -0.012314 0.080066 0.002288
v -0.007000 0.080066 0.005839
v -0.011593 0.080066 0.009608
v -0.014394 0.080066 0.004368
v -0.008125 0.080066 0.003121
v -0.008708 0.080066 0.009034
v -0.014394 0.080066 0.007309
v -0.011593 0.080066 0.002069
v -0.010843 0.080066 0.001995
v -0.013105 0.080066 0.005389
v -0.012974 0.080066 0.004956
v -0.009213 0.080066 0.007469
v -0.009562 0.080066 0.007756
v -0.012761 0.080066 0.004557
v -0.009961 0.080066 0.007969
v -0.010843 0.080066 0.003533
v -0.010393 0.080066 0.003577
v -0.012474 0.080066 0.004208
v -0.010393 0.080066 0.008100
v -0.009961 0.080066 0.003708
v -0.012124 0.080066 0.003921
v -0.010843 0.080066 0.008145
v -0.009562 0.080066 0.003921
v -0.011726 0.080066 0.003708
v -0.011293 0.080066 0.008100
v -0.009213 0.080066 0.004208
v -0.011293 0.080066 0.003577
v -0.011726 0.080066 0.007969
v -0.008926 0.080066 0.004557
v -0.012124 0.080066 0.007756
v -0.008713 0.080066 0.004956
v -0.012474 0.080066 0.007469
v -0.008581 0.080066 0.005389
v -0.012761 0.080066 0.007120
v -0.008537 0.080066 0.005839
v -0.012974 0.080066 0.006721
v -0.008581 0.080066 0.006289
v -0.013105 0.080066 0.006289
v -0.008713 0.080066 0.006721
v -0.013149 0.080066 0.005839
v -0.008926 0.080066 0.007120
v -0.010843 0.080066 0.005839
vn -0.0000 -0.0000 1.0000
vn 0.0119 -0.0000 0.9999
vn 0.0115 -0.0014 0.9999
vn 0.9947 -0.0572 0.0850
vn 0.7047 -0.5204 0.4822
vn 0.5294 0.6523 0.5424
vn 0.0094 0.9998 0.0174
vn 0.0098 1.0000 -0.0000
vn -0.0000 1.0000 -0.0000
vn -0.0000 0.9998 0.0177
vn -0.0000 0.6994 0.7148
vn -0.0000 0.0190 0.9998
vn 0.0105 0.0189 0.9998
vn 0.0070 0.6996 0.7145
vn 0.9947 -0.0571 0.0850
vn 0.9997 -0.0066 0.0219
vn 0.9999 -0.0116 -0.0000
vn 0.9999 -0.0115 -0.0000
vn 0.7939 -0.6080 -0.0000
vn 0.9999 -0.0000 0.0169
vn 1.0000 -0.0000 -0.0000
vn 1.0000 -0.0090 -0.0000
vn 0.9990 0.0457 -0.0000
vn 0.9993 0.0364 0.0080
vn 0.0109 0.0189 0.9998
vn 0.6172 0.7868 0.0096
vn 0.6167 0.7872 -0.0000
vn -0.0115 -0.0001 0.9999
vn -0.0119 -0.0000 0.9999
vn -0.9947 -0.0571 0.0850
vn -0.5294 0.6523 0.5424
vn -0.7047 -0.5204 0.4822
vn -0.0098 1.0000 -0.0000
vn -0.0094 0.9998 0.0174
vn -0.0105 0.0189 0.9998
vn -0.0070 0.6996 0.7145
vn -0.9947 -0.0572 0.0851
vn -0.9999 -0.0116 -0.0000
vn -0.9998 -0.0022 0.0218
vn -0.9999 -0.0115 -0.0000
vn -0.7939 -0.6080 -0.0000
vn -1.0000 -0.0000 -0.0000
vn -0.9999 -0.0000 0.0169
vn -1.0000 -0.0090 -0.0000
vn -0.9993 0.0363 0.0080
vn -0.9990 0.0457 -0.0000
vn -0.0109 0.0189 0.9998
vn -0.6165 0.7873 -0.0000
vn -0.6172 0.7868 0.0095
vn 0.0115 -0.0001 -0.9999
vn 0.0119 -0.0000 -0.9999
vn -0.0000 -0.0000 -1.0000
vn 0.9947 -0.0572 -0.0851
vn 0.5294 0.6523 -0.5424
vn 0.7047 -0.5204 -0.4822
vn 0.0094 0.9998 -0.0174
vn -0.0000 0.9998 -0.0177
vn 0.0106 0.0190 -0.9998
vn 0.0002 0.0190 -0.9998
vn -0.0000 0.6993 -0.7148
vn 0.0070 0.6996 -0.7145
vn 0.9998 -0.0022 -0.0218
vn 0.9999 -0.0000 -0.0168
vn 0.9993 0.0363 -0.0080
vn 0.9998 -0.0022 -0.0216
vn 0.6172 0.7868 -0.0095
vn -0.0119 -0.0000 -0.9999
vn -0.0115 -0.0014 -0.9999
vn -0.9947 -0.0571 -0.0851
vn -0.7047 -0.5204 -0.4822
vn -0.5294 0.6523 -0.5424
vn -0.0094 0.9998 -0.0174
vn -0.0106 0.0189 -0.9998
vn -0.0070 0.6996 -0.7145
vn -0.9997 -0.0051 -0.0218
vn -0.9999 -0.0000 -0.0168
vn -0.9993 0.0364 -0.0080
vn -0.9998 -0.0050 -0.0215
vn -0.6172 0.7868 -0.0096
vn 0.0115 0.0001 0.9999
vn 0.9947 0.0572 0.0851
vn 0.5294 -0.6523 0.5424
vn 0.7047 0.5205 0.4822
vn -0.0000 -1.0000 -0.0000
vn 0.0094 -1.0000 -0.0000
vn 0.0094 -0.9998 0.0173
vn -0.0000 -0.9998 0.0173
vn 0.0105 -0.0189 0.9998
vn 0.0001 -0.0190 0.9998
vn -0.0000 -0.6993 0.7148
vn 0.0071 -0.6996 0.7145
vn 0.9999 0.0116 -0.0000
vn 0.9998 0.0022 0.0218
vn 0.9999 0.0115 -0.0000
vn 0.7939 0.6080 -0.0000
vn 1.0000 0.0091 -0.0000
vn 0.9993 -0.0363 0.0080
vn 0.9990 -0.0455 -0.0000
vn 0.0108 -0.0189 0.9998
vn 0.6167 -0.7872 -0.0000
vn 0.6172 -0.7868 0.0095
vn -0.0115 0.0014 0.9999
vn -0.9947 0.0572 0.0850
vn -0.7047 0.5204 0.4823
vn -0.5294 -0.6523 0.5424
vn -0.0094 -0.9998 0.0172
vn -0.0094 -1.0000 -0.0000
vn -0.0105 -0.0189 0.9998
vn -0.0072 -0.6996 0.7145
vn -0.9947 0.0571 0.0850
vn -0.9997 0.0066 0.0219
vn -0.9999 0.0116 -0.0000
vn -0.9999 0.0115 -0.0000
vn -0.7939 0.6080 -0.0000
vn -1.0000 0.0091 -0.0000
vn -0.9990 -0.0455 -0.0000
vn -0.9993 -0.0363 0.0080
vn -0.0108 -0.0189 0.9998
vn -0.6172 -0.7867 0.0096
vn -0.6166 -0.7873 -0.0000
vn 0.0115 0.0014 -0.9999
vn 0.9947 0.0571 -0.0851
vn 0.7047 0.5204 -0.4823
vn 0.5294 -0.6523 -0.5424
vn 0.0094 -0.9998 -0.0172
vn -0.0000 -0.9998 -0.0173
vn -0.0000 -0.6994 -0.7147
vn -0.0000 -0.0190 -0.9998
vn 0.0107 -0.0189 -0.9998
vn 0.0072 -0.6996 -0.7145
vn 0.9997 0.0051 -0.0218
vn 0.9993 -0.0363 -0.0080
vn 0.9998 0.0050 -0.0215
vn 0.6172 -0.7867 -0.0096
vn -0.0115 0.0001 -0.9999
vn -0.9947 0.0572 -0.0851
vn -0.5295 -0.6522 -0.5424
vn -0.7047 0.5204 -0.4823
vn -0.0094 -0.9998 -0.0173
vn -0.0105 -0.0189 -0.9998
vn -0.0071 -0.6996 -0.7145
vn -0.9947 0.0571 -0.0851
vn -0.9998 0.0022 -0.0218
vn -0.7047 0.5204 -0.4822
vn -0.5294 -0.6523 -0.5424
vn -0.9993 -0.0363 -0.0080
vn -0.9998 0.0022 -0.0217
vn -0.6172 -0.7868 -0.0095
vn -0.0000 -0.0331 -0.9995
vn -0.1950 -0.0330 -0.9803
vn -0.1939 0.1137 -0.9744
vn -0.0000 0.1137 -0.9935
vn 0.1397 -0.6976 -0.7028
vn 0.0522 -0.9635 -0.2625
vn 0.1024 -0.9635 -0.2473
vn 0.2741 -0.6977 -0.6619
vn 0.1487 -0.9635 -0.2225
vn 0.3979 -0.6977 -0.5957
vn 0.1892 -0.9635 -0.1892
vn 0.5065 -0.6976 -0.5069
vn 0.2225 -0.9635 -0.1487
vn 0.5956 -0.6977 -0.3980
vn 0.2472 -0.9635 -0.1024
vn 0.6618 -0.6977 -0.2743
vn 0.2626 -0.9635 -0.0522
vn 0.7026 -0.6977 -0.1398
vn 0.2676 -0.9635 -0.0000
vn 0.7164 -0.6977 -0.0001
vn 0.2626 -0.9635 0.0522
vn 0.7028 -0.6976 0.1396
vn 0.2474 -0.9635 0.1024
vn 0.6620 -0.6977 0.2740
vn 0.2227 -0.9635 0.1487
vn 0.5958 -0.6976 0.3979
vn 0.1893 -0.9635 0.1893
vn 0.5068 -0.6976 0.5065
vn 0.1487 -0.9635 0.2225
vn 0.3980 -0.6977 0.5956
vn 0.1024 -0.9635 0.2474
vn 0.2743 -0.6977 0.6618
vn 0.0522 -0.9635 0.2625
vn 0.1399 -0.6976 0.7027
vn -0.0000 -0.9635 0.2676
vn 0.0001 -0.6977 0.7164
vn -0.0522 -0.9635 0.2627
vn -0.1397 -0.6976 0.7028
vn -0.1024 -0.9635 0.2474
vn -0.2740 -0.6977 0.6620
vn -0.1487 -0.9635 0.2225
vn -0.3979 -0.6976 0.5958
vn -0.1893 -0.9635 0.1893
vn -0.5065 -0.6976 0.5068
vn -0.2225 -0.9635 0.1487
vn -0.5956 -0.6977 0.3980
vn -0.2473 -0.9635 0.1024
vn -0.6618 -0.6977 0.2743
vn -0.2627 -0.9635 0.0522
vn -0.7026 -0.6977 0.1398
vn -0.2676 -0.9635 -0.0000
vn -0.7164 -0.6977 0.0001
vn -0.2626 -0.9635 -0.0522
vn -0.7028 -0.6976 -0.1396
vn -0.2473 -0.9635 -0.1024
vn -0.6620 -0.6977 -0.2740
vn -0.2225 -0.9635 -0.1487
vn -0.5958 -0.6976 -0.3979
vn -0.1893 -0.9635 -0.1892
vn -0.5068 -0.6976 -0.5065
vn -0.1487 -0.9635 -0.2225
vn -0.3980 -0.6977 -0.5956
vn -0.1024 -0.9635 -0.2472
vn -0.2743 -0.6977 -0.6618
vn -0.0807 0.9894 0.1207
vn -0.5520 0.1137 0.8260
vn -0.3804 0.1138 0.9178
vn -0.0555 0.9894 0.1341
vn -0.0522 -0.9635 -0.2625
vn -0.1398 -0.6977 -0.7026
vn -0.0000 -0.9635 -0.2676
vn -0.0001 -0.6977 -0.7164
vn 0.1950 -0.0330 0.9802
vn 0.3825 -0.0330 0.9234
vn 0.3802 0.1138 0.9179
vn 0.1938 0.1138 0.9744
vn 0.8315 -0.0000 0.5556
vn 0.5956 -0.6978 0.3979
vn 0.5065 -0.6980 0.5063
vn 0.7071 -0.0000 0.7071
vn -0.9995 -0.0331 -0.0000
vn -0.9802 -0.0331 0.1950
vn -0.9744 0.1138 0.1939
vn -0.9935 0.1138 -0.0000
vn 0.1950 -0.0332 -0.9802
vn 0.1938 0.1137 -0.9744
vn 0.3825 -0.0332 -0.9234
vn 0.3802 0.1138 -0.9179
vn 0.8310 -0.0330 0.5553
vn 0.9234 -0.0330 0.3825
vn 0.9179 0.1138 0.3802
vn 0.8261 0.1138 0.5520
vn -0.7067 -0.0332 0.7067
vn -0.5553 -0.0330 0.8310
vn -0.7025 0.1138 0.7025
vn -0.5552 -0.0332 -0.8310
vn -0.7067 -0.0330 -0.7067
vn -0.7025 0.1138 -0.7025
vn -0.5520 0.1137 -0.8261
vn 0.9803 -0.0332 -0.1949
vn 0.9234 -0.0330 -0.3825
vn 0.9179 0.1137 -0.3801
vn 0.9744 0.1138 -0.1938
vn -0.0001 -0.0331 0.9995
vn -0.0000 0.1137 0.9935
vn -0.9802 -0.0331 -0.1950
vn -0.9744 0.1138 -0.1938
vn 0.5553 -0.0332 -0.8310
vn 0.5520 0.1137 -0.8261
vn 0.7067 -0.0330 0.7067
vn 0.7025 0.1138 0.7025
vn -0.8310 -0.0330 0.5553
vn -0.8261 0.1137 0.5520
vn -0.3824 -0.0330 -0.9234
vn -0.3802 0.1137 -0.9179
vn 0.9995 -0.0329 -0.0000
vn 0.9935 0.1138 -0.0000
vn -0.1950 -0.0331 0.9802
vn -0.1938 0.1138 0.9744
vn -0.9234 -0.0330 -0.3825
vn -0.9179 0.1138 -0.3802
vn 0.7067 -0.0330 -0.7067
vn 0.7025 0.1138 -0.7025
vn 0.5552 -0.0330 0.8310
vn 0.5519 0.1138 0.8261
vn -0.9234 -0.0330 0.3824
vn -0.9179 0.1138 0.3802
vn 0.9802 -0.0330 0.1950
vn 0.9744 0.1138 0.1938
vn -0.3825 -0.0330 0.9234
vn -0.8310 -0.0330 -0.5553
vn -0.8261 0.1137 -0.5520
vn 0.8310 -0.0330 -0.5553
vn 0.8261 0.1137 -0.5520
vn -0.0000 0.2217 -0.9751
vn 0.1902 0.2216 -0.9564
vn 0.1951 -0.0000 -0.9808
vn 0.1951 -0.0000 0.9808
vn 0.1902 0.2216 0.9564
vn -0.0000 0.2216 0.9751
vn -0.9808 -0.0000 -0.1951
vn -0.7025 -0.6979 -0.1396
vn -0.6617 -0.6979 -0.2740
vn -0.9239 -0.0000 -0.3827
vn 0.3980 -0.6979 0.5954
vn 0.5556 -0.0000 0.8315
vn -0.5954 -0.6979 -0.3980
vn -0.8315 -0.0000 -0.5556
vn 0.2740 -0.6979 0.6617
vn 0.3827 -0.0000 0.9239
vn -0.0000 -0.6978 -0.7163
vn 0.1396 -0.6979 -0.7025
vn -0.5065 -0.6979 -0.5064
vn -0.7071 -0.0000 -0.7071
vn 0.1397 -0.6980 0.7024
vn 0.2740 -0.6978 -0.6618
vn 0.3827 -0.0000 -0.9239
vn -0.3978 -0.6980 -0.5955
vn -0.5556 -0.0000 -0.8315
vn -0.0000 -0.6978 0.7163
vn 0.3980 -0.6979 -0.5955
vn 0.5556 -0.0000 -0.8315
vn -0.2741 -0.6980 -0.6616
vn -0.3827 -0.0000 -0.9239
vn -0.1397 -0.6980 0.7024
vn -0.1951 -0.0000 0.9808
vn 0.5065 -0.6978 -0.5065
vn 0.7071 -0.0000 -0.7071
vn -0.1397 -0.6980 -0.7024
vn -0.1951 -0.0000 -0.9808
vn -0.2740 -0.6979 0.6617
vn -0.3827 -0.0000 0.9239
vn 0.5954 -0.6979 -0.3980
vn 0.8315 -0.0000 -0.5556
vn -0.3979 -0.6978 0.5956
vn -0.5556 -0.0000 0.8315
vn 0.6617 -0.6979 -0.2742
vn 0.9239 -0.0000 -0.3827
vn -0.5065 -0.6979 0.5064
vn -0.7071 -0.0000 0.7071
vn 0.7024 -0.6980 -0.1397
vn 0.9808 -0.0000 -0.1951
vn -0.5954 -0.6979 0.3980
vn -0.8315 -0.0000 0.5556
vn 0.7163 -0.6978 -0.0000
vn -0.6618 -0.6978 0.2741
vn -0.9239 -0.0000 0.3827
vn 0.7025 -0.6978 0.1398
vn 0.9808 -0.0000 0.1951
vn -0.7025 -0.6978 0.1398
vn -0.9808 -0.0000 0.1951
vn 0.6617 -0.6979 0.2742
vn 0.9239 -0.0000 0.3827
vn -0.7163 -0.6978 -0.0000
vn -0.3732 0.2216 0.9009
vn -0.5417 0.2218 0.8108
vn 0.3732 0.2216 -0.9009
vn 0.5417 0.2216 -0.8108
vn -0.5418 0.2217 -0.8107
vn -0.3732 0.2216 -0.9009
vn -0.1902 0.2216 0.9564
vn 0.6895 0.2216 -0.6895
vn -0.1902 0.2217 -0.9564
vn -0.0215 0.9939 0.1079
vn -0.0421 0.9939 0.1017
vn 0.8107 0.2218 -0.5418
vn 0.9009 0.2216 -0.3732
vn -0.0000 0.9939 -0.1101
vn 0.0215 0.9939 -0.1081
vn -0.6895 0.2217 0.6895
vn 0.9564 0.2216 -0.1903
vn -0.8108 0.2217 0.5418
vn 0.9751 0.2216 -0.0000
vn -0.9009 0.2217 0.3732
vn 0.9564 0.2216 0.1902
vn -0.9564 0.2217 0.1902
vn 0.9009 0.2217 0.3732
vn -0.9751 0.2216 -0.0000
vn 0.8108 0.2217 0.5417
vn -0.9564 0.2217 -0.1902
vn 0.6895 0.2217 0.6895
vn -0.9009 0.2216 -0.3732
vn 0.5418 0.2217 0.8108
vn -0.8108 0.2217 -0.5417
vn 0.3732 0.2216 0.9009
vn -0.6895 0.2216 -0.6895
vn 0.1341 0.9894 0.0556
vn 0.1425 0.9894 0.0283
vn 0.0778 0.9939 -0.0778
vn 0.0917 0.9939 -0.0612
vn -0.0613 0.9939 0.0916
vn 0.1017 0.9939 -0.0421
vn -0.0779 0.9939 0.0778
vn 0.1082 0.9939 -0.0215
vn -0.0915 0.9939 0.0611
vn 0.1102 0.9939 -0.0000
vn -0.1018 0.9939 0.0421
vn 0.1080 0.9939 0.0215
vn -0.1081 0.9939 0.0215
vn 0.1017 0.9939 0.0422
vn -0.1101 0.9939 -0.0000
vn 0.0916 0.9939 0.0613
vn -0.1080 0.9939 -0.0215
vn 0.0778 0.9939 0.0779
vn -0.1018 0.9939 -0.0421
vn 0.0612 0.9939 0.0916
vn -0.0915 0.9939 -0.0612
vn 0.0421 0.9939 0.1018
vn -0.0215 0.9939 -0.1081
vn -0.0778 0.9939 -0.0778
vn 0.0215 0.9939 0.1080
vn 0.0421 0.9939 -0.1017
vn -0.0611 0.9939 -0.0916
vn -0.0000 0.9939 0.1102
vn 0.0612 0.9939 -0.0915
vn -0.0421 0.9939 -0.1019
vn -0.1027 0.9894 -0.1027
vn -0.1207 0.9894 -0.0807
vn 0.1341 0.9894 -0.0555
vn 0.1207 0.9894 -0.0807
vn 0.0283 0.9894 0.1424
vn 0.0556 0.9894 0.1341
vn -0.1452 0.9894 -0.0000
vn -0.1425 0.9894 0.0283
vn 0.0556 0.9894 -0.1341
vn 0.0283 0.9894 -0.1425
vn 0.1208 0.9894 0.0807
vn -0.1027 0.9894 0.1027
vn -0.0806 0.9894 -0.1207
vn 0.1425 0.9894 -0.0283
vn -0.0000 0.9894 0.1452
vn -0.1425 0.9894 -0.0284
vn 0.0807 0.9894 -0.1207
vn 0.1026 0.9894 0.1027
vn -0.1207 0.9894 0.0807
vn -0.0556 0.9894 -0.1341
vn 0.1452 0.9894 -0.0000
vn -0.0284 0.9894 0.1424
vn -0.1341 0.9894 -0.0555
vn 0.1027 0.9894 -0.1027
vn 0.0806 0.9894 0.1207
vn -0.1342 0.9894 0.0556
vn -0.0283 0.9894 -0.1425
vn -0.0000 0.9894 -0.1452
vt 0.693989 0.743190
vt 0.820031 0.743190
vt 0.821365 0.574867
vt 0.693989 0.572819
vt 0.061915 0.136341
vt 0.061986 0.139102
vt 0.063419 0.137740
vt 0.066877 0.138544
vt 0.075139 0.209258
vt 0.193988 0.205046
vt 0.193986 0.117325
vt 0.193986 0.114855
vt 0.193986 0.112281
vt 0.064649 0.133680
vt 0.065911 0.136240
vt 0.825274 0.489447
vt 0.823900 0.574891
vt 0.912018 0.575664
vt 0.002958 0.214284
vt 0.005925 0.214083
vt 0.822963 0.743190
vt 0.909149 0.743190
vt 0.008055 0.213939
vt 0.070421 0.209558
vt 0.062348 0.141200
vt 0.822369 0.489338
vt 0.064553 0.139342
vt 0.072788 0.209407
vt 0.693989 0.490773
vt 0.566612 0.574867
vt 0.567947 0.743190
vt 0.326062 0.136340
vt 0.324559 0.137739
vt 0.325992 0.139101
vt 0.312837 0.209260
vt 0.321101 0.138543
vt 0.323328 0.133678
vt 0.322067 0.136238
vt 0.562703 0.489448
vt 0.475960 0.575664
vt 0.564078 0.574891
vt 0.385019 0.214288
vt 0.382052 0.214087
vt 0.478829 0.743190
vt 0.565014 0.743190
vt 0.379922 0.213943
vt 0.325630 0.141199
vt 0.317555 0.209561
vt 0.565609 0.489339
vt 0.315188 0.209409
vt 0.323425 0.139341
vt 0.057861 0.374954
vt 0.057170 0.554663
vt 0.193989 0.554661
vt 0.193988 0.379628
vt 0.071339 0.282092
vt 0.072555 0.280400
vt 0.070941 0.279315
vt 0.075704 0.279086
vt 0.193989 0.289572
vt 0.074492 0.283637
vt 0.193989 0.294272
vt 0.193989 0.291823
vt 0.075121 0.281280
vt 0.997042 0.501002
vt 0.995637 0.576879
vt 0.993219 0.743190
vt 0.070993 0.277219
vt 0.055101 0.374735
vt 0.054030 0.554663
vt 0.073367 0.278682
vt 0.330808 0.554660
vt 0.330114 0.374953
vt 0.316636 0.282093
vt 0.317034 0.279316
vt 0.315420 0.280401
vt 0.312272 0.279088
vt 0.313483 0.283638
vt 0.312855 0.281280
vt 0.390937 0.501002
vt 0.392341 0.576879
vt 0.394759 0.743190
vt 0.316982 0.277220
vt 0.332873 0.374734
vt 0.333948 0.554660
vt 0.314609 0.278683
vt 0.821365 0.911513
vt 0.693989 0.913561
vt 0.061915 0.972983
vt 0.063419 0.971584
vt 0.061986 0.970222
vt 0.193990 0.904276
vt 0.075140 0.900062
vt 0.066877 0.970780
vt 0.193992 0.991997
vt 0.064650 0.975645
vt 0.193992 0.997042
vt 0.193992 0.994468
vt 0.065911 0.973084
vt 0.825274 0.996932
vt 0.912018 0.910716
vt 0.823900 0.911489
vt 0.002959 0.895035
vt 0.005926 0.895235
vt 0.008055 0.895379
vt 0.062348 0.968123
vt 0.070423 0.899762
vt 0.822369 0.997041
vt 0.072790 0.899913
vt 0.064553 0.969981
vt 0.693989 0.995607
vt 0.566612 0.911513
vt 0.326062 0.972982
vt 0.325992 0.970220
vt 0.324559 0.971583
vt 0.321101 0.970779
vt 0.312839 0.900065
vt 0.323328 0.975643
vt 0.322067 0.973083
vt 0.562703 0.996932
vt 0.564078 0.911489
vt 0.475960 0.910716
vt 0.385020 0.895039
vt 0.382053 0.895240
vt 0.379923 0.895384
vt 0.317557 0.899764
vt 0.325630 0.968122
vt 0.565609 0.997042
vt 0.323425 0.969980
vt 0.315189 0.899916
vt 0.057864 0.734370
vt 0.193989 0.729694
vt 0.071341 0.827229
vt 0.070944 0.830006
vt 0.072558 0.828922
vt 0.075706 0.830235
vt 0.193989 0.819751
vt 0.193989 0.817500
vt 0.193989 0.815051
vt 0.074495 0.825685
vt 0.075123 0.828042
vt 0.997041 0.985378
vt 0.995637 0.909500
vt 0.070996 0.832103
vt 0.055105 0.734589
vt 0.073369 0.830640
vt 0.330117 0.734369
vt 0.316639 0.827230
vt 0.315423 0.828923
vt 0.317037 0.830008
vt 0.312274 0.830236
vt 0.313485 0.825686
vt 0.312857 0.828043
vt 0.390936 0.985378
vt 0.392341 0.909500
vt 0.316985 0.832104
vt 0.332876 0.734588
vt 0.314611 0.830641
vt 0.488040 0.121641
vt 0.470371 0.139286
vt 0.525399 0.183333
vt 0.533395 0.175558
vt 0.501243 0.093712
vt 0.506424 0.103298
vt 0.530406 0.093385
vt 0.527196 0.082976
vt 0.555855 0.088341
vt 0.554736 0.077508
vt 0.581793 0.088357
vt 0.582808 0.077517
vt 0.607224 0.093431
vt 0.610334 0.082999
vt 0.631173 0.103366
vt 0.636256 0.093743
vt 0.652719 0.117779
vt 0.659581 0.109334
vt 0.671037 0.136115
vt 0.679413 0.129171
vt 0.685425 0.157667
vt 0.694992 0.152492
vt 0.695330 0.181608
vt 0.705721 0.178399
vt 0.700374 0.207016
vt 0.711190 0.205896
vt 0.700365 0.232915
vt 0.711190 0.233926
vt 0.695307 0.258310
vt 0.705724 0.261411
vt 0.685394 0.282224
vt 0.695004 0.287297
vt 0.671012 0.303740
vt 0.679445 0.310588
vt 0.652716 0.322034
vt 0.659649 0.330391
vt 0.631212 0.336404
vt 0.636381 0.345947
vt 0.607334 0.346304
vt 0.610542 0.356663
vt 0.582010 0.351368
vt 0.583140 0.362131
vt 0.556239 0.351442
vt 0.555267 0.362154
vt 0.530990 0.346694
vt 0.528134 0.356788
vt 0.506887 0.337049
vt 0.501681 0.347132
vt 0.485008 0.322642
vt 0.478061 0.331181
vt 0.466570 0.304224
vt 0.458159 0.311193
vt 0.452123 0.282633
vt 0.442559 0.287828
vt 0.442193 0.258742
vt 0.431797 0.261994
vt 0.436966 0.233280
vt 0.426100 0.234439
vt 0.436957 0.207169
vt 0.426055 0.206165
vt 0.442034 0.181646
vt 0.431565 0.178525
vt 0.451999 0.157637
vt 0.442353 0.152536
vt 0.573161 0.270192
vt 0.573669 0.276645
vt 0.584612 0.274606
vt 0.582863 0.268381
vt 0.466451 0.136049
vt 0.457991 0.129169
vt 0.484829 0.117702
vt 0.477876 0.109309
vt 0.667105 0.300517
vt 0.680932 0.279824
vt 0.618577 0.247490
vt 0.612264 0.256659
vt 0.771040 0.288504
vt 0.776836 0.285397
vt 0.771397 0.272350
vt 0.765071 0.274244
vt 0.470512 0.301000
vt 0.488251 0.318689
vt 0.532202 0.263503
vt 0.524388 0.255539
vt 0.508805 0.107786
vt 0.542755 0.169496
vt 0.531866 0.098249
vt 0.553116 0.165378
vt 0.695327 0.207499
vt 0.690473 0.183067
vt 0.623454 0.204289
vt 0.625469 0.215242
vt 0.556716 0.346430
vt 0.581517 0.346342
vt 0.562537 0.276535
vt 0.446902 0.183137
vt 0.442036 0.207674
vt 0.512386 0.213693
vt 0.514674 0.202774
vt 0.649489 0.121692
vt 0.628767 0.107835
vt 0.596353 0.170272
vt 0.605526 0.176597
vt 0.649513 0.318112
vt 0.604286 0.264421
vt 0.456599 0.280243
vt 0.518392 0.246143
vt 0.556337 0.093395
vt 0.564080 0.163362
vt 0.695322 0.232405
vt 0.625309 0.226377
vt 0.532411 0.341841
vt 0.551671 0.274143
vt 0.456477 0.160049
vt 0.519075 0.192522
vt 0.667107 0.139322
vt 0.613288 0.184588
vt 0.628836 0.331935
vt 0.594949 0.270480
vt 0.446962 0.257282
vt 0.514215 0.235802
vt 0.581281 0.093408
vt 0.575224 0.163525
vt 0.690461 0.256826
vt 0.622982 0.237265
vt 0.509258 0.332530
vt 0.541413 0.269795
vt 0.680945 0.160046
vt 0.619341 0.193939
vt 0.605874 0.341462
vt 0.442128 0.232762
vt 0.512142 0.224840
vt 0.605737 0.098284
vt 0.586122 0.165858
vt 0.941689 0.304574
vt 0.934285 0.300429
vt 0.922707 0.317229
vt 0.929132 0.322748
vt 0.733039 0.218508
vt 0.741194 0.221018
vt 0.749034 0.202003
vt 0.741513 0.197934
vt 0.892980 0.189702
vt 0.888716 0.194868
vt 0.898906 0.205018
vt 0.904085 0.200794
vt 0.768630 0.258409
vt 0.762034 0.259026
vt 0.906899 0.216931
vt 0.912768 0.213802
vt 0.768648 0.244147
vt 0.762041 0.243458
vt 0.912541 0.288588
vt 0.906769 0.285389
vt 0.898754 0.297064
vt 0.903769 0.301342
vt 0.912439 0.230129
vt 0.918835 0.228208
vt 0.771474 0.230133
vt 0.765114 0.228155
vt 0.888579 0.306899
vt 0.892641 0.312091
vt 0.915212 0.244148
vt 0.921830 0.243544
vt 0.777007 0.216910
vt 0.771143 0.213717
vt 0.876626 0.314508
vt 0.879577 0.320423
vt 0.915166 0.258402
vt 0.921754 0.259113
vt 0.785040 0.204996
vt 0.779902 0.200708
vt 0.863308 0.319586
vt 0.865035 0.326016
vt 0.912313 0.272331
vt 0.918617 0.274326
vt 0.795265 0.194861
vt 0.791057 0.189643
vt 0.848992 0.321890
vt 0.849555 0.328686
vt 0.807285 0.186906
vt 0.804172 0.180966
vt 0.834320 0.322139
vt 0.833743 0.328831
vt 0.820629 0.181428
vt 0.818712 0.175014
vt 0.820135 0.319651
vt 0.818317 0.326052
vt 0.834786 0.178557
vt 0.834142 0.171852
vt 0.806843 0.314517
vt 0.803826 0.320395
vt 0.849225 0.178566
vt 0.849916 0.171884
vt 0.794911 0.306889
vt 0.790800 0.312030
vt 0.863385 0.181382
vt 0.865359 0.174966
vt 0.784779 0.297056
vt 0.779729 0.301265
vt 0.876721 0.186886
vt 0.879900 0.180980
vt 0.769693 0.163573
vt 0.775081 0.170247
vt 0.792301 0.158823
vt 0.788316 0.151223
vt 0.913262 0.338049
vt 0.908058 0.331387
vt 0.890939 0.342382
vt 0.894743 0.349914
vt 0.955074 0.240384
vt 0.946590 0.241120
vt 0.946472 0.261604
vt 0.954926 0.262554
vt 0.760474 0.184858
vt 0.753883 0.179380
vt 0.872032 0.349867
vt 0.874334 0.357976
vt 0.942316 0.281639
vt 0.950406 0.284239
vt 0.763134 0.187052
vt 0.777277 0.172930
vt 0.852045 0.353668
vt 0.852801 0.362074
vt 0.831639 0.353739
vt 0.830824 0.362154
vt 0.931301 0.298775
vt 0.920113 0.315021
vt 0.811389 0.150920
vt 0.808962 0.142698
vt 0.811573 0.349997
vt 0.809178 0.358113
vt 0.831645 0.146918
vt 0.830862 0.138384
vt 0.792610 0.342491
vt 0.788691 0.349991
vt 0.852273 0.146904
vt 0.853160 0.138384
vt 0.775489 0.331442
vt 0.770176 0.338028
vt 0.872520 0.150903
vt 0.875048 0.142713
vt 0.760887 0.317242
vt 0.754377 0.322650
vt 0.891610 0.158772
vt 0.895689 0.151229
vt 0.749383 0.300428
vt 0.741927 0.304444
vt 0.908799 0.170219
vt 0.914276 0.163619
vt 0.741427 0.281650
vt 0.733315 0.284117
vt 0.923410 0.184808
vt 0.930073 0.179415
vt 0.737327 0.261635
vt 0.728872 0.262456
vt 0.934862 0.201968
vt 0.942441 0.198000
vt 0.737245 0.241157
vt 0.728774 0.240299
vt 0.942666 0.220991
vt 0.950857 0.218597
vt 0.617224 0.206028
vt 0.613569 0.196859
vt 0.871092 0.346599
vt 0.851730 0.350275
vt 0.793917 0.161860
vt 0.831956 0.350343
vt 0.812380 0.154225
vt 0.812525 0.346724
vt 0.831975 0.150352
vt 0.794174 0.339466
vt 0.851929 0.150335
vt 0.777615 0.328784
vt 0.871515 0.154203
vt 0.763496 0.315057
vt 0.889981 0.161813
vt 0.752375 0.298802
vt 0.906607 0.172883
vt 0.744687 0.280647
vt 0.920739 0.186990
vt 0.740728 0.261293
vt 0.931821 0.203577
vt 0.740654 0.241491
vt 0.939059 0.280608
vt 0.939376 0.221968
vt 0.744478 0.222016
vt 0.905952 0.328714
vt 0.943179 0.241431
vt 0.752065 0.203630
vt 0.889395 0.339354
vt 0.943072 0.261237
vt 0.518795 0.214423
vt 0.518625 0.224302
vt 0.593175 0.175909
vt 0.584104 0.172007
vt 0.607357 0.252450
vt 0.612943 0.244317
vt 0.529481 0.251487
vt 0.536408 0.258570
vt 0.554856 0.171614
vt 0.545679 0.175273
vt 0.619020 0.215732
vt 0.563270 0.270080
vt 0.520827 0.204776
vt 0.601310 0.181504
vt 0.600294 0.259337
vt 0.524122 0.243183
vt 0.564569 0.169817
vt 0.618889 0.225600
vt 0.553623 0.268005
vt 0.524720 0.195696
vt 0.608196 0.188578
vt 0.592024 0.264716
vt 0.520446 0.234035
vt 0.574445 0.169950
vt 0.616837 0.235252
vt 0.544563 0.264147
vt 0.530314 0.187550
vt 0.537392 0.180654
vt 0.539790 0.228431
vt 0.541990 0.233938
vt 0.597672 0.229156
vt 0.598902 0.223359
vt 0.538704 0.222597
vt 0.595335 0.234603
vt 0.554927 0.193154
vt 0.549954 0.196386
vt 0.538782 0.216667
vt 0.591981 0.239489
vt 0.560436 0.190955
vt 0.540012 0.210867
vt 0.587738 0.243627
vt 0.566267 0.189873
vt 0.542350 0.205416
vt 0.582769 0.246859
vt 0.572197 0.189950
vt 0.545707 0.200527
vt 0.577266 0.249060
vt 0.577998 0.191183
vt 0.571438 0.250146
vt 0.583446 0.193523
vt 0.565509 0.250074
vt 0.588332 0.196881
vt 0.559709 0.248845
vt 0.592470 0.201127
vt 0.554261 0.246510
vt 0.595699 0.206098
vt 0.549369 0.243157
vt 0.597897 0.211604
vt 0.545225 0.238912
vt 0.598978 0.217432
vt 0.568847 0.220013
s 1
usemtl M_Juice.001
f 4/1/1 1/2/2 2/3/3
f 2/3/3 3/4/1 4/1/1
f 5/5/4 6/6/5 7/7/6
f 11/8/7 8/9/8 9/10/9
f 9/10/9 10/11/10 11/8/7
f 15/12/11 12/13/12 13/14/13
f 13/14/13 14/15/14 15/12/11
f 16/16/15 17/17/16 18/18/17
f 6/6/5 5/5/4 19/19/18
f 19/19/18 20/20/19 6/6/5
f 22/21/20 21/22/21 18/18/17
f 18/18/17 17/17/16 22/21/20
f 13/14/13 5/5/4 7/7/6
f 7/7/6 14/15/14 13/14/13
f 23/23/22 24/24/23 25/25/24
f 16/16/15 26/26/25 2/3/3
f 2/3/3 17/17/16 16/16/15
f 17/17/16 2/3/3 1/2/2
f 1/2/2 22/21/20 17/17/16
f 11/8/7 27/27/26 28/28/27
f 28/28/27 8/9/8 11/8/7
f 3/4/1 2/3/3 26/26/25
f 26/26/25 29/29/12 3/4/1
f 25/25/24 6/6/5 20/20/19
f 20/20/19 23/23/22 25/25/24
f 11/8/7 14/15/14 7/7/6
f 7/7/6 27/27/26 11/8/7
f 6/6/5 25/25/24 27/27/26
f 27/27/26 7/7/6 6/6/5
f 14/15/14 11/8/7 10/11/10
f 10/11/10 15/12/11 14/15/14
f 27/27/26 25/25/24 24/24/23
f 24/24/23 28/28/27 27/27/26
f 31/30/28 30/31/29 4/1/1
f 4/1/1 3/4/1 31/30/28
f 32/32/30 33/33/31 34/34/32
f 9/10/9 35/35/33 36/36/34
f 36/36/34 10/11/10 9/10/9
f 38/37/35 12/13/12 15/12/11
f 15/12/11 37/38/36 38/37/35
f 39/39/37 40/40/38 41/41/39
f 43/42/40 32/32/30 34/34/32
f 34/34/32 42/43/41 43/42/40
f 40/40/38 44/44/42 45/45/43
f 45/45/43 41/41/39 40/40/38
f 33/33/31 32/32/30 38/37/35
f 38/37/35 37/38/36 33/33/31
f 46/46/44 47/47/45 48/48/46
f 31/30/28 49/49/47 39/39/37
f 39/39/37 41/41/39 31/30/28
f 30/31/29 31/30/28 41/41/39
f 41/41/39 45/45/43 30/31/29
f 51/50/48 50/51/49 36/36/34
f 36/36/34 35/35/33 51/50/48
f 49/49/47 31/30/28 3/4/1
f 3/4/1 29/29/12 49/49/47
f 42/43/41 34/34/32 47/47/45
f 47/47/45 46/46/44 42/43/41
f 33/33/31 37/38/36 36/36/34
f 36/36/34 50/51/49 33/33/31
f 50/51/49 47/47/45 34/34/32
f 34/34/32 33/33/31 50/51/49
f 10/11/10 36/36/34 37/38/36
f 37/38/36 15/12/11 10/11/10
f 48/48/46 47/47/45 50/51/49
f 50/51/49 51/50/48 48/48/46
f 55/52/50 52/53/51 53/54/52
f 53/54/52 54/55/52 55/52/50
f 56/56/53 57/57/54 58/58/55
f 9/10/9 8/9/8 59/59/56
f 59/59/56 60/60/57 9/10/9
f 64/61/58 61/62/59 62/63/60
f 62/63/60 63/64/61 64/61/58
f 65/65/53 18/18/17 66/66/62
f 19/19/18 56/56/53 58/58/55
f 58/58/55 20/20/19 19/19/18
f 18/18/17 21/22/21 67/67/63
f 67/67/63 66/66/62 18/18/17
f 57/57/54 56/56/53 64/61/58
f 64/61/58 63/64/61 57/57/54
f 23/23/22 68/68/64 24/24/23
f 55/52/50 64/61/58 56/56/53
f 56/56/53 69/69/65 55/52/50
f 52/53/51 55/52/50 69/69/65
f 69/69/65 70/70/63 52/53/51
f 28/28/27 71/71/66 59/59/56
f 59/59/56 8/9/8 28/28/27
f 64/61/58 55/52/50 54/55/52
f 54/55/52 61/62/59 64/61/58
f 20/20/19 58/58/55 68/68/64
f 68/68/64 23/23/22 20/20/19
f 57/57/54 63/64/61 59/59/56
f 59/59/56 71/71/66 57/57/54
f 71/71/66 68/68/64 58/58/55
f 58/58/55 57/57/54 71/71/66
f 60/60/57 59/59/56 63/64/61
f 63/64/61 62/63/60 60/60/57
f 24/24/23 68/68/64 71/71/66
f 71/71/66 28/28/27 24/24/23
f 53/54/52 72/72/67 73/73/68
f 73/73/68 54/55/52 53/54/52
f 74/74/69 75/75/70 76/76/71
f 77/77/72 35/35/33 9/10/9
f 9/10/9 60/60/57 77/77/72
f 62/63/60 61/62/59 78/78/73
f 78/78/73 79/79/74 62/63/60
f 80/80/69 81/81/75 40/40/38
f 75/75/70 74/74/69 43/42/40
f 43/42/40 42/43/41 75/75/70
f 82/82/76 44/44/42 40/40/38
f 40/40/38 81/81/75 82/82/76
f 78/78/73 74/74/69 76/76/71
f 76/76/71 79/79/74 78/78/73
f 46/46/44 48/48/46 83/83/77
f 74/74/69 78/78/73 73/73/68
f 73/73/68 84/84/78 74/74/69
f 84/84/78 73/73/68 72/72/67
f 72/72/67 85/85/76 84/84/78
f 77/77/72 86/86/79 51/50/48
f 51/50/48 35/35/33 77/77/72
f 54/55/52 73/73/68 78/78/73
f 78/78/73 61/62/59 54/55/52
f 83/83/77 75/75/70 42/43/41
f 42/43/41 46/46/44 83/83/77
f 77/77/72 79/79/74 76/76/71
f 76/76/71 86/86/79 77/77/72
f 75/75/70 83/83/77 86/86/79
f 86/86/79 76/76/71 75/75/70
f 79/79/74 77/77/72 60/60/57
f 60/60/57 62/63/60 79/79/74
f 86/86/79 83/83/77 48/48/46
f 48/48/46 51/50/48 86/86/79
f 88/87/80 1/2/2 4/1/1
f 4/1/1 87/88/1 88/87/80
f 89/89/81 90/90/82 91/91/83
f 95/92/84 92/93/85 93/94/86
f 93/94/86 94/95/87 95/92/84
f 99/96/88 96/97/89 97/98/90
f 97/98/90 98/99/91 99/96/88
f 100/100/81 101/101/92 102/102/93
f 104/103/94 89/89/81 91/91/83
f 91/91/83 103/104/95 104/103/94
f 101/101/92 21/22/21 22/21/20
f 22/21/20 102/102/93 101/101/92
f 90/90/82 89/89/81 99/96/88
f 99/96/88 98/99/91 90/90/82
f 105/105/96 106/106/97 107/107/98
f 88/87/80 108/108/99 100/100/81
f 100/100/81 102/102/93 88/87/80
f 1/2/2 88/87/80 102/102/93
f 102/102/93 22/21/20 1/2/2
f 110/109/100 109/110/101 93/94/86
f 93/94/86 92/93/85 110/109/100
f 108/108/99 88/87/80 87/88/1
f 87/88/1 111/111/89 108/108/99
f 103/104/95 91/91/83 106/106/97
f 106/106/97 105/105/96 103/104/95
f 90/90/82 98/99/91 93/94/86
f 93/94/86 109/110/101 90/90/82
f 109/110/101 106/106/97 91/91/83
f 91/91/83 90/90/82 109/110/101
f 94/95/87 93/94/86 98/99/91
f 98/99/91 97/98/90 94/95/87
f 107/107/98 106/106/97 109/110/101
f 109/110/101 110/109/100 107/107/98
f 4/1/1 30/31/29 112/112/102
f 112/112/102 87/88/1 4/1/1
f 113/113/103 114/114/104 115/115/105
f 117/116/106 116/117/107 95/92/84
f 95/92/84 94/95/87 117/116/106
f 97/98/90 96/97/89 118/118/108
f 118/118/108 119/119/109 97/98/90
f 120/120/110 121/121/111 122/122/112
f 114/114/104 113/113/103 123/123/113
f 123/123/113 124/124/114 114/114/104
f 45/45/43 44/44/42 122/122/112
f 122/122/112 121/121/111 45/45/43
f 118/118/108 113/113/103 115/115/105
f 115/115/105 119/119/109 118/118/108
f 125/125/115 126/126/116 127/127/117
f 120/120/110 128/128/118 112/112/102
f 112/112/102 121/121/111 120/120/110
f 121/121/111 112/112/102 30/31/29
f 30/31/29 45/45/43 121/121/111
f 117/116/106 129/129/119 130/130/120
f 130/130/120 116/117/107 117/116/106
f 87/88/1 112/112/102 128/128/118
f 128/128/118 111/111/89 87/88/1
f 127/127/117 114/114/104 124/124/114
f 124/124/114 125/125/115 127/127/117
f 117/116/106 119/119/109 115/115/105
f 115/115/105 129/129/119 117/116/106
f 114/114/104 127/127/117 129/129/119
f 129/129/119 115/115/105 114/114/104
f 119/119/109 117/116/106 94/95/87
f 94/95/87 97/98/90 119/119/109
f 129/129/119 127/127/117 126/126/116
f 126/126/116 130/130/120 129/129/119
f 53/54/52 52/53/51 131/131/121
f 131/131/121 132/132/52 53/54/52
f 133/133/122 134/134/123 135/135/124
f 137/136/125 92/93/85 95/92/84
f 95/92/84 136/137/126 137/136/125
f 141/138/127 138/139/128 139/140/129
f 139/140/129 140/141/130 141/138/127
f 142/142/122 143/143/131 101/101/92
f 134/134/123 133/133/122 104/103/94
f 104/103/94 103/104/95 134/134/123
f 67/67/63 21/22/21 101/101/92
f 101/101/92 143/143/131 67/67/63
f 139/140/129 133/133/122 135/135/124
f 135/135/124 140/141/130 139/140/129
f 105/105/96 107/107/98 144/144/132
f 133/133/122 139/140/129 131/131/121
f 131/131/121 145/145/133 133/133/122
f 145/145/133 131/131/121 52/53/51
f 52/53/51 70/70/63 145/145/133
f 137/136/125 146/146/134 110/109/100
f 110/109/100 92/93/85 137/136/125
f 132/132/52 131/131/121 139/140/129
f 139/140/129 138/139/128 132/132/52
f 144/144/132 134/134/123 103/104/95
f 103/104/95 105/105/96 144/144/132
f 137/136/125 140/141/130 135/135/124
f 135/135/124 146/146/134 137/136/125
f 134/134/123 144/144/132 146/146/134
f 146/146/134 135/135/124 134/134/123
f 140/141/130 137/136/125 136/137/126
f 136/137/126 141/138/127 140/141/130
f 146/146/134 144/144/132 107/107/98
f 107/107/98 110/109/100 146/146/134
f 147/147/135 72/72/67 53/54/52
f 53/54/52 132/132/52 147/147/135
f 148/148/136 150/149/137 151/150/138
f 95/92/84 116/117/107 152/151/139
f 152/151/139 136/137/126 95/92/84
f 154/152/140 138/139/128 141/138/127
f 141/138/127 153/153/141 154/152/140
f 155/154/142 122/122/112 156/155/143
f 123/123/113 157/148/136 159/150/144
f 159/150/144 124/124/114 123/123/113
f 122/122/112 44/44/42 82/82/76
f 82/82/76 156/155/143 122/122/112
f 149/149/145 158/148/142 154/152/140
f 154/152/140 153/153/141 149/149/145
f 125/125/115 160/156/146 126/126/116
f 147/147/135 154/152/140 158/148/142
f 158/148/142 161/157/147 147/147/135
f 72/72/67 147/147/135 161/157/147
f 161/157/147 85/85/76 72/72/67
f 130/130/120 162/158/148 152/151/139
f 152/151/139 116/117/107 130/130/120
f 154/152/140 147/147/135 132/132/52
f 132/132/52 138/139/128 154/152/140
f 124/124/114 159/150/144 160/156/146
f 160/156/146 125/125/115 124/124/114
f 149/149/145 153/153/141 152/151/139
f 152/151/139 162/158/148 149/149/145
f 162/158/148 160/156/146 159/150/144
f 159/150/144 149/149/145 162/158/148
f 136/137/126 152/151/139 153/153/141
f 153/153/141 141/138/127 136/137/126
f 126/126/116 160/156/146 162/158/148
f 162/158/148 130/130/120 126/126/116
f 166/159/149 163/160/150 164/161/151
f 164/161/151 165/162/152 166/159/149
f 170/163/153 167/164/154 168/165/155
f 168/165/155 169/166/156 170/163/153
f 169/166/156 168/165/155 171/167/157
f 171/167/157 172/168/158 169/166/156
f 172/168/158 171/167/157 173/169/159
f 173/169/159 174/170/160 172/168/158
f 174/170/160 173/169/159 175/171/161
f 175/171/161 176/172/162 174/170/160
f 176/172/162 175/171/161 177/173/163
f 177/173/163 178/174/164 176/172/162
f 178/174/164 177/173/163 179/175/165
f 179/175/165 180/176/166 178/174/164
f 180/176/166 179/175/165 181/177/167
f 181/177/167 182/178/168 180/176/166
f 182/178/168 181/177/167 183/179/169
f 183/179/169 184/180/170 182/178/168
f 184/180/170 183/179/169 185/181/171
f 185/181/171 186/182/172 184/180/170
f 186/182/172 185/181/171 187/183/173
f 187/183/173 188/184/174 186/182/172
f 188/184/174 187/183/173 189/185/175
f 189/185/175 190/186/176 188/184/174
f 190/186/176 189/185/175 191/187/177
f 191/187/177 192/188/178 190/186/176
f 192/188/178 191/187/177 193/189/179
f 193/189/179 194/190/180 192/188/178
f 194/190/180 193/189/179 195/191/181
f 195/191/181 196/192/182 194/190/180
f 196/192/182 195/191/181 197/193/183
f 197/193/183 198/194/184 196/192/182
f 198/194/184 197/193/183 199/195/185
f 199/195/185 200/196/186 198/194/184
f 200/196/186 199/195/185 201/197/187
f 201/197/187 202/198/188 200/196/186
f 202/198/188 201/197/187 203/199/189
f 203/199/189 204/200/190 202/198/188
f 204/200/190 203/199/189 205/201/191
f 205/201/191 206/202/192 204/200/190
f 206/202/192 205/201/191 207/203/193
f 207/203/193 208/204/194 206/202/192
f 208/204/194 207/203/193 209/205/195
f 209/205/195 210/206/196 208/204/194
f 210/206/196 209/205/195 211/207/197
f 211/207/197 212/208/198 210/206/196
f 212/208/198 211/207/197 213/209/199
f 213/209/199 214/210/200 212/208/198
f 214/210/200 213/209/199 215/211/201
f 215/211/201 216/212/202 214/210/200
f 216/212/202 215/211/201 217/213/203
f 217/213/203 218/214/204 216/212/202
f 218/214/204 217/213/203 219/215/205
f 219/215/205 220/216/206 218/214/204
f 220/216/206 219/215/205 221/217/207
f 221/217/207 222/218/208 220/216/206
f 222/218/208 221/217/207 223/219/209
f 223/219/209 224/220/210 222/218/208
f 224/220/210 223/219/209 225/221/211
f 225/221/211 226/222/212 224/220/210
f 230/223/213 227/224/214 228/225/215
f 228/225/215 229/226/216 230/223/213
f 226/222/212 225/221/211 231/227/217
f 231/227/217 232/228/218 226/222/212
f 232/228/218 231/227/217 233/229/219
f 233/229/219 234/230/220 232/228/218
f 238/231/221 235/232/222 236/233/223
f 236/233/223 237/234/224 238/231/221
f 242/235/225 239/236/226 240/237/227
f 240/237/227 241/238/228 242/235/225
f 246/239/229 243/240/230 244/241/231
f 244/241/231 245/242/232 246/239/229
f 248/243/233 166/159/149 165/162/152
f 165/162/152 247/244/234 248/243/233
f 250/245/235 248/243/233 247/244/234
f 247/244/234 249/246/236 250/245/235
f 254/247/237 251/248/238 252/249/239
f 252/249/239 253/250/240 254/247/237
f 257/251/241 255/252/242 227/224/214
f 227/224/214 256/253/243 257/251/241
f 261/254/244 258/255/245 259/256/246
f 259/256/246 260/257/247 261/254/244
f 265/258/248 262/259/249 263/260/250
f 263/260/250 264/261/251 265/258/248
f 267/262/252 238/231/221 237/234/224
f 237/234/224 266/263/253 267/262/252
f 269/264/254 246/239/229 245/242/232
f 245/242/232 268/265/255 269/264/254
f 271/266/256 250/245/235 249/246/236
f 249/246/236 270/267/257 271/266/256
f 273/268/258 254/247/237 253/250/240
f 253/250/240 272/269/259 273/268/258
f 275/270/260 257/251/241 256/253/243
f 256/253/243 274/271/261 275/270/260
f 277/272/262 261/254/244 260/257/247
f 260/257/247 276/273/263 277/272/262
f 279/274/264 265/258/248 264/261/251
f 264/261/251 278/275/265 279/274/264
f 281/276/266 267/262/252 266/263/253
f 266/263/253 280/277/267 281/276/266
f 283/278/268 269/264/254 268/265/255
f 268/265/255 282/279/269 283/278/268
f 285/280/270 271/266/256 270/267/257
f 270/267/257 284/281/271 285/280/270
f 287/282/272 273/268/258 272/269/259
f 272/269/259 286/283/273 287/282/272
f 289/284/274 275/270/260 274/271/261
f 274/271/261 288/285/275 289/284/274
f 163/160/150 277/272/262 276/273/263
f 276/273/263 164/161/151 163/160/150
f 291/286/276 279/274/264 278/275/265
f 278/275/265 290/287/277 291/286/276
f 292/288/278 281/276/266 280/277/267
f 280/277/267 228/225/215 292/288/278
f 294/289/279 283/278/268 282/279/269
f 282/279/269 293/290/280 294/289/279
f 296/291/281 285/280/270 284/281/271
f 284/281/271 295/292/282 296/291/281
f 235/232/222 287/282/272 286/283/273
f 286/283/273 236/233/223 235/232/222
f 243/240/230 289/284/274 288/285/275
f 288/285/275 244/241/231 243/240/230
f 300/293/52 297/294/283 298/295/284
f 298/295/284 299/296/285 300/293/52
f 251/248/238 291/286/276 290/287/277
f 290/287/277 252/249/239 251/248/238
f 255/252/242 292/288/278 228/225/215
f 228/225/215 227/224/214 255/252/242
f 258/255/245 294/289/279 293/290/280
f 293/290/280 259/256/246 258/255/245
f 262/259/249 296/291/281 295/292/282
f 295/292/282 263/260/250 262/259/249
f 304/297/286 301/298/287 302/299/288
f 302/299/288 303/300/1 304/297/286
f 308/301/289 305/302/290 306/303/291
f 306/303/291 307/304/292 308/301/289
f 241/238/228 240/237/227 309/305/293
f 309/305/293 310/306/294 241/238/228
f 307/304/292 306/303/291 311/307/295
f 311/307/295 312/308/296 307/304/292
f 310/306/294 309/305/293 313/309/297
f 313/309/297 314/310/298 310/306/294
f 318/311/52 315/312/299 316/313/300
f 316/313/300 317/314/285 318/311/52
f 312/308/296 311/307/295 319/315/301
f 319/315/301 320/316/302 312/308/296
f 314/310/298 313/309/297 321/317/303
f 321/317/303 322/318/286 314/310/298
f 317/314/285 316/313/300 323/319/304
f 323/319/304 324/320/305 317/314/285
f 320/316/302 319/315/301 325/321/306
f 325/321/306 326/322/307 320/316/302
f 322/318/286 321/317/303 327/323/308
f 327/323/308 328/324/1 322/318/286
f 324/320/305 323/319/304 329/325/309
f 329/325/309 330/326/310 324/320/305
f 326/322/307 325/321/306 331/327/311
f 331/327/311 332/328/312 326/322/307
f 328/324/1 327/323/308 333/329/313
f 333/329/313 334/330/314 328/324/1
f 330/326/310 329/325/309 335/331/315
f 335/331/315 336/332/316 330/326/310
f 332/328/312 331/327/311 337/333/317
f 337/333/317 338/334/318 332/328/312
f 334/330/314 333/329/313 339/335/319
f 339/335/319 340/336/320 334/330/314
f 336/332/316 335/331/315 341/337/321
f 341/337/321 342/338/322 336/332/316
f 338/334/318 337/333/317 315/312/299
f 315/312/299 318/311/52 338/334/318
f 340/336/320 339/335/319 343/339/323
f 343/339/323 344/340/324 340/336/320
f 342/338/322 341/337/321 345/341/325
f 345/341/325 346/342/326 342/338/322
f 344/340/324 343/339/323 347/343/327
f 347/343/327 348/344/328 344/340/324
f 346/342/326 345/341/325 349/345/329
f 349/345/329 350/346/330 346/342/326
f 348/344/328 347/343/327 351/347/331
f 351/347/331 352/348/332 348/344/328
f 350/346/330 349/345/329 353/349/333
f 353/349/333 354/350/21 350/346/330
f 352/348/332 351/347/331 355/351/334
f 355/351/334 356/352/335 352/348/332
f 354/350/21 353/349/333 357/353/336
f 357/353/336 358/354/337 354/350/21
f 356/352/335 355/351/334 359/355/338
f 359/355/338 360/356/339 356/352/335
f 358/354/337 357/353/336 361/357/340
f 361/357/340 362/358/341 358/354/337
f 360/356/339 359/355/338 363/359/342
f 363/359/342 364/360/42 360/356/339
f 362/358/341 361/357/340 239/236/226
f 239/236/226 242/235/225 362/358/341
f 364/360/42 363/359/342 305/302/290
f 305/302/290 308/301/289 364/360/42
f 368/361/320 365/362/343 366/363/344
f 366/363/344 367/364/324 368/361/320
f 372/365/305 369/366/345 370/367/346
f 370/367/346 371/368/310 372/365/305
f 376/369/307 373/370/347 374/371/348
f 374/371/348 375/372/312 376/369/307
f 303/300/1 302/299/288 377/373/349
f 377/373/349 378/374/314 303/300/1
f 371/368/310 370/367/346 379/375/350
f 379/375/350 380/376/316 371/368/310
f 375/372/312 374/371/348 381/377/351
f 381/377/351 382/378/318 375/372/312
f 386/379/352 383/330/9 384/336/9
f 384/336/9 385/380/353 386/379/352
f 380/376/316 379/375/350 387/381/354
f 387/381/354 388/382/322 380/376/316
f 378/374/314 377/373/349 365/362/343
f 365/362/343 368/361/320 378/374/314
f 388/382/322 387/381/354 389/383/355
f 389/383/355 390/384/326 388/382/322
f 394/385/356 391/311/9 392/314/9
f 392/314/9 393/386/357 394/385/356
f 367/364/324 366/363/344 395/387/358
f 395/387/358 396/388/328 367/364/324
f 390/384/326 389/383/355 397/389/359
f 397/389/359 398/390/330 390/384/326
f 396/388/328 395/387/358 399/391/360
f 399/391/360 400/392/332 396/388/328
f 398/390/330 397/389/359 401/393/361
f 401/393/361 402/394/21 398/390/330
f 400/392/332 399/391/360 403/395/362
f 403/395/362 404/396/335 400/392/332
f 402/394/21 401/393/361 405/397/363
f 405/397/363 406/398/337 402/394/21
f 404/396/335 403/395/362 407/399/364
f 407/399/364 408/400/339 404/396/335
f 406/398/337 405/397/363 409/401/365
f 409/401/365 410/402/341 406/398/337
f 408/400/339 407/399/364 411/403/366
f 411/403/366 412/404/42 408/400/339
f 410/402/341 409/401/365 413/405/367
f 413/405/367 414/406/225 410/402/341
f 412/404/42 411/403/366 415/407/368
f 415/407/368 416/408/289 412/404/42
f 414/406/225 413/405/367 417/409/369
f 417/409/369 418/410/228 414/406/225
f 416/408/289 415/407/368 419/411/370
f 419/411/370 420/412/292 416/408/289
f 418/410/228 417/409/369 421/413/371
f 421/413/371 422/414/294 418/410/228
f 420/412/292 419/411/370 423/415/372
f 423/415/372 424/416/296 420/412/292
f 422/414/294 421/413/371 425/417/373
f 425/417/373 426/418/298 422/414/294
f 424/416/296 423/415/372 427/419/374
f 427/419/374 428/420/302 424/416/296
f 426/418/298 425/417/373 301/298/287
f 301/298/287 304/297/286 426/418/298
f 382/378/318 381/377/351 297/294/283
f 297/294/283 300/293/52 382/378/318
f 428/420/302 427/419/374 373/370/347
f 373/370/347 376/369/307 428/420/302
f 430/421/375 252/249/239 290/287/277
f 290/287/277 429/422/376 430/421/375
f 434/423/377 431/332/9 432/338/9
f 432/338/9 433/424/378 434/423/377
f 299/296/285 298/295/284 369/366/345
f 369/366/345 372/365/305 299/296/285
f 385/380/353 384/336/9 435/340/9
f 435/340/9 436/425/379 385/380/353
f 433/424/378 432/338/9 437/342/9
f 437/342/9 438/426/380 433/424/378
f 436/425/379 435/340/9 439/344/9
f 439/344/9 440/427/381 436/425/379
f 438/426/380 437/342/9 441/346/9
f 441/346/9 442/428/382 438/426/380
f 440/427/381 439/344/9 443/348/9
f 443/348/9 444/429/383 440/427/381
f 442/428/382 441/346/9 445/350/9
f 445/350/9 446/430/384 442/428/382
f 444/429/383 443/348/9 447/352/9
f 447/352/9 448/431/385 444/429/383
f 446/430/384 445/350/9 449/354/9
f 449/354/9 450/432/386 446/430/384
f 448/431/385 447/352/9 451/356/9
f 451/356/9 452/433/387 448/431/385
f 450/432/386 449/354/9 453/358/9
f 453/358/9 454/434/388 450/432/386
f 452/433/387 451/356/9 455/360/9
f 455/360/9 456/435/389 452/433/387
f 454/434/388 453/358/9 457/235/9
f 457/235/9 458/436/390 454/434/388
f 456/435/389 455/360/9 459/301/9
f 459/301/9 460/437/391 456/435/389
f 458/436/390 457/235/9 461/238/9
f 461/238/9 462/438/392 458/436/390
f 460/437/391 459/301/9 463/304/9
f 463/304/9 464/439/393 460/437/391
f 462/438/392 461/238/9 465/306/9
f 465/306/9 466/440/394 462/438/392
f 464/439/393 463/304/9 467/308/9
f 467/308/9 468/441/395 464/439/393
f 466/440/394 465/306/9 469/310/9
f 469/310/9 470/442/396 466/440/394
f 472/443/397 471/334/9 391/311/9
f 391/311/9 394/385/356 472/443/397
f 468/441/395 467/308/9 473/316/9
f 473/316/9 474/444/398 468/441/395
f 470/442/396 469/310/9 475/318/9
f 475/318/9 476/445/399 470/442/396
f 393/386/357 392/314/9 477/320/9
f 477/320/9 478/446/400 393/386/357
f 474/444/398 473/316/9 479/322/9
f 479/322/9 480/447/401 474/444/398
f 476/445/399 475/318/9 481/324/9
f 481/324/9 482/448/402 476/445/399
f 478/446/400 477/320/9 483/326/9
f 483/326/9 484/449/403 478/446/400
f 480/447/401 479/322/9 485/328/9
f 485/328/9 486/450/404 480/447/401
f 482/448/402 481/324/9 383/330/9
f 383/330/9 386/379/352 482/448/402
f 484/449/403 483/326/9 431/332/9
f 431/332/9 434/423/377 484/449/403
f 486/450/404 485/328/9 471/334/9
f 471/334/9 472/443/397 486/450/404
f 488/451/405 259/256/246 293/290/280
f 293/290/280 487/452/406 488/451/405
f 490/453/407 263/260/250 295/292/282
f 295/292/282 489/454/408 490/453/407
f 492/455/409 237/234/224 236/233/223
f 236/233/223 491/456/410 492/455/409
f 494/457/411 245/242/232 244/241/231
f 244/241/231 493/458/412 494/457/411
f 496/459/413 249/246/236 247/244/234
f 247/244/234 495/460/414 496/459/413
f 497/461/415 253/250/240 252/249/239
f 252/249/239 430/421/375 497/461/415
f 498/462/416 256/253/243 227/224/214
f 227/224/214 230/223/213 498/462/416
f 499/463/417 260/257/247 259/256/246
f 259/256/246 488/451/405 499/463/417
f 500/464/418 264/261/251 263/260/250
f 263/260/250 490/453/407 500/464/418
f 501/465/419 266/263/253 237/234/224
f 237/234/224 492/455/409 501/465/419
f 502/466/420 268/265/255 245/242/232
f 245/242/232 494/457/411 502/466/420
f 503/467/421 270/267/257 249/246/236
f 249/246/236 496/459/413 503/467/421
f 504/468/422 272/269/259 253/250/240
f 253/250/240 497/461/415 504/468/422
f 505/469/423 274/271/261 256/253/243
f 256/253/243 498/462/416 505/469/423
f 506/470/424 276/273/263 260/257/247
f 260/257/247 499/463/417 506/470/424
f 507/471/425 278/275/265 264/261/251
f 264/261/251 500/464/418 507/471/425
f 508/472/426 280/277/267 266/263/253
f 266/263/253 501/465/419 508/472/426
f 509/473/427 282/279/269 268/265/255
f 268/265/255 502/466/420 509/473/427
f 510/474/428 284/281/271 270/267/257
f 270/267/257 503/467/421 510/474/428
f 511/475/429 286/283/273 272/269/259
f 272/269/259 504/468/422 511/475/429
f 512/476/430 288/285/275 274/271/261
f 274/271/261 505/469/423 512/476/430
f 513/477/431 164/161/151 276/273/263
f 276/273/263 506/470/424 513/477/431
f 429/422/376 290/287/277 278/275/265
f 278/275/265 507/471/425 429/422/376
f 229/226/216 228/225/215 280/277/267
f 280/277/267 508/472/426 229/226/216
f 487/452/406 293/290/280 282/279/269
f 282/279/269 509/473/427 487/452/406
f 489/454/408 295/292/282 284/281/271
f 284/281/271 510/474/428 489/454/408
f 491/456/410 236/233/223 286/283/273
f 286/283/273 511/475/429 491/456/410
f 495/460/414 247/244/234 165/162/152
f 165/162/152 514/478/432 495/460/414
f 493/458/412 244/241/231 288/285/275
f 288/285/275 512/476/430 493/458/412
f 514/478/432 165/162/152 164/161/151
f 164/161/151 513/477/431 514/478/432
f 516/479/9 509/473/427 502/466/420
f 502/466/420 515/480/9 516/479/9
f 518/481/9 511/475/429 504/468/422
f 504/468/422 517/482/9 518/481/9
f 519/483/9 487/452/406 509/473/427
f 509/473/427 516/479/9 519/483/9
f 520/484/9 491/456/410 511/475/429
f 511/475/429 518/481/9 520/484/9
f 522/485/9 495/460/414 514/478/432
f 514/478/432 521/486/9 522/485/9
f 523/487/9 488/451/405 487/452/406
f 487/452/406 519/483/9 523/487/9
f 524/488/9 492/455/409 491/456/410
f 491/456/410 520/484/9 524/488/9
f 525/489/9 496/459/413 495/460/414
f 495/460/414 522/485/9 525/489/9
f 526/490/9 499/463/417 488/451/405
f 488/451/405 523/487/9 526/490/9
f 527/491/9 501/465/419 492/455/409
f 492/455/409 524/488/9 527/491/9
f 528/492/9 503/467/421 496/459/413
f 496/459/413 525/489/9 528/492/9
f 529/493/9 506/470/424 499/463/417
f 499/463/417 526/490/9 529/493/9
f 530/494/9 508/472/426 501/465/419
f 501/465/419 527/491/9 530/494/9
f 531/495/9 510/474/428 503/467/421
f 503/467/421 528/492/9 531/495/9
f 532/496/9 513/477/431 506/470/424
f 506/470/424 529/493/9 532/496/9
f 533/497/9 229/226/216 508/472/426
f 508/472/426 530/494/9 533/497/9
f 534/498/9 489/454/408 510/474/428
f 510/474/428 531/495/9 534/498/9
f 521/486/9 514/478/432 513/477/431
f 513/477/431 532/496/9 521/486/9
f 535/499/9 230/223/213 229/226/216
f 229/226/216 533/497/9 535/499/9
f 536/500/9 490/453/407 489/454/408
f 489/454/408 534/498/9 536/500/9
f 537/501/9 498/462/416 230/223/213
f 230/223/213 535/499/9 537/501/9
f 538/502/9 500/464/418 490/453/407
f 490/453/407 536/500/9 538/502/9
f 539/503/9 505/469/423 498/462/416
f 498/462/416 537/501/9 539/503/9
f 540/504/9 507/471/425 500/464/418
f 500/464/418 538/502/9 540/504/9
f 541/505/9 512/476/430 505/469/423
f 505/469/423 539/503/9 541/505/9
f 542/506/9 429/422/376 507/471/425
f 507/471/425 540/504/9 542/506/9
f 543/507/9 493/458/412 512/476/430
f 512/476/430 541/505/9 543/507/9
f 544/508/9 430/421/375 429/422/376
f 429/422/376 542/506/9 544/508/9
f 545/509/9 494/457/411 493/458/412
f 493/458/412 543/507/9 545/509/9
f 546/510/9 497/461/415 430/421/375
f 430/421/375 544/508/9 546/510/9
f 515/480/9 502/466/420 494/457/411
f 494/457/411 545/509/9 515/480/9
f 517/482/9 504/468/422 497/461/415
f 497/461/415 546/510/9 517/482/9
s 0
f 525/489/9 522/485/9 547/511/9
f 526/490/9 523/487/9 547/511/9
f 527/491/9 524/488/9 547/511/9
f 528/492/9 525/489/9 547/511/9
f 529/493/9 526/490/9 547/511/9
f 530/494/9 527/491/9 547/511/9
f 531/495/9 528/492/9 547/511/9
f 532/496/9 529/493/9 547/511/9
f 533/497/9 530/494/9 547/511/9
f 534/498/9 531/495/9 547/511/9
f 521/486/9 532/496/9 547/511/9
f 535/499/9 533/497/9 547/511/9
f 536/500/9 534/498/9 547/511/9
f 537/501/9 535/499/9 547/511/9
f 538/502/9 536/500/9 547/511/9
f 539/503/9 537/501/9 547/511/9
f 540/504/9 538/502/9 547/511/9
f 541/505/9 539/503/9 547/511/9
f 542/506/9 540/504/9 547/511/9
f 543/507/9 541/505/9 547/511/9
f 544/508/9 542/506/9 547/511/9
f 545/509/9 543/507/9 547/511/9
f 546/510/9 544/508/9 547/511/9
f 515/480/9 545/509/9 547/511/9
f 517/482/9 546/510/9 547/511/9
f 516/479/9 515/480/9 547/511/9
f 518/481/9 517/482/9 547/511/9
f 519/483/9 516/479/9 547/511/9
f 520/484/9 518/481/9 547/511/9
f 522/485/9 521/486/9 547/511/9
f 523/487/9 519/483/9 547/511/9
f 524/488/9 520/484/9 547/511/9
s 1
f 233/229/219 166/159/149 248/243/233
f 248/243/233 167/164/154 233/229/219
f 167/164/154 248/243/233 250/245/235
f 250/245/235 168/165/155 167/164/154
f 168/165/155 250/245/235 271/266/256
f 271/266/256 171/167/157 168/165/155
f 171/167/157 271/266/256 285/280/270
f 285/280/270 173/169/159 171/167/157
f 173/169/159 285/280/270 296/291/281
f 296/291/281 175/171/161 173/169/159
f 175/171/161 296/291/281 262/259/249
f 262/259/249 177/173/163 175/171/161
f 177/173/163 262/259/249 265/258/248
f 265/258/248 179/175/165 177/173/163
f 179/175/165 265/258/248 279/274/264
f 279/274/264 181/177/167 179/175/165
f 181/177/167 279/274/264 291/286/276
f 291/286/276 183/179/169 181/177/167
f 183/179/169 291/286/276 251/248/238
f 251/248/238 185/181/171 183/179/169
f 185/181/171 251/248/238 254/247/237
f 254/247/237 187/183/173 185/181/171
f 187/183/173 254/247/237 273/268/258
f 273/268/258 189/185/175 187/183/173
f 189/185/175 273/268/258 287/282/272
f 287/282/272 191/187/177 189/185/175
f 191/187/177 287/282/272 235/232/222
f 235/232/222 193/189/179 191/187/177
f 193/189/179 235/232/222 238/231/221
f 238/231/221 195/191/181 193/189/179
f 195/191/181 238/231/221 267/262/252
f 267/262/252 197/193/183 195/191/181
f 197/193/183 267/262/252 281/276/266
f 281/276/266 199/195/185 197/193/183
f 199/195/185 281/276/266 292/288/278
f 292/288/278 201/197/187 199/195/185
f 201/197/187 292/288/278 255/252/242
f 255/252/242 203/199/189 201/197/187
f 203/199/189 255/252/242 257/251/241
f 257/251/241 205/201/191 203/199/189
f 205/201/191 257/251/241 275/270/260
f 275/270/260 207/203/193 205/201/191
f 207/203/193 275/270/260 289/284/274
f 289/284/274 209/205/195 207/203/193
f 209/205/195 289/284/274 243/240/230
f 243/240/230 211/207/197 209/205/195
f 211/207/197 243/240/230 246/239/229
f 246/239/229 213/209/199 211/207/197
f 213/209/199 246/239/229 269/264/254
f 269/264/254 215/211/201 213/209/199
f 215/211/201 269/264/254 283/278/268
f 283/278/268 217/213/203 215/211/201
f 217/213/203 283/278/268 294/289/279
f 294/289/279 219/215/205 217/213/203
f 219/215/205 294/289/279 258/255/245
f 258/255/245 221/217/207 219/215/205
f 221/217/207 258/255/245 261/254/244
f 261/254/244 223/219/209 221/217/207
f 223/219/209 261/254/244 277/272/262
f 277/272/262 225/221/211 223/219/209
f 225/221/211 277/272/262 163/160/150
f 163/160/150 231/227/217 225/221/211
f 231/227/217 163/160/150 166/159/149
f 166/159/149 233/229/219 231/227/217
f 297/294/283 394/385/356 393/386/357
f 393/386/357 298/295/284 297/294/283
f 298/295/284 393/386/357 478/446/400
f 478/446/400 369/366/345 298/295/284
f 369/366/345 478/446/400 484/449/403
f 484/449/403 370/367/346 369/366/345
f 370/367/346 484/449/403 434/423/377
f 434/423/377 379/375/350 370/367/346
f 379/375/350 434/423/377 433/424/378
f 433/424/378 387/381/354 379/375/350
f 387/381/354 433/424/378 438/426/380
f 438/426/380 389/383/355 387/381/354
f 389/383/355 438/426/380 442/428/382
f 442/428/382 397/389/359 389/383/355
f 397/389/359 442/428/382 446/430/384
f 446/430/384 401/393/361 397/389/359
f 401/393/361 446/430/384 450/432/386
f 450/432/386 405/397/363 401/393/361
f 405/397/363 450/432/386 454/434/388
f 454/434/388 409/401/365 405/397/363
f 409/401/365 454/434/388 458/436/390
f 458/436/390 413/405/367 409/401/365
f 413/405/367 458/436/390 462/438/392
f 462/438/392 417/409/369 413/405/367
f 417/409/369 462/438/392 466/440/394
f 466/440/394 421/413/371 417/409/369
f 421/413/371 466/440/394 470/442/396
f 470/442/396 425/417/373 421/413/371
f 425/417/373 470/442/396 476/445/399
f 476/445/399 301/298/287 425/417/373
f 301/298/287 476/445/399 482/448/402
f 482/448/402 302/299/288 301/298/287
f 302/299/288 482/448/402 386/379/352
f 386/379/352 377/373/349 302/299/288
f 377/373/349 386/379/352 385/380/353
f 385/380/353 365/362/343 377/373/349
f 365/362/343 385/380/353 436/425/379
f 436/425/379 366/363/344 365/362/343
f 366/363/344 436/425/379 440/427/381
f 440/427/381 395/387/358 366/363/344
f 395/387/358 440/427/381 444/429/383
f 444/429/383 399/391/360 395/387/358
f 399/391/360 444/429/383 448/431/385
f 448/431/385 403/395/362 399/391/360
f 403/395/362 448/431/385 452/433/387
f 452/433/387 407/399/364 403/395/362
f 407/399/364 452/433/387 456/435/389
f 456/435/389 411/403/366 407/399/364
f 411/403/366 456/435/389 460/437/391
f 460/437/391 415/407/368 411/403/366
f 415/407/368 460/437/391 464/439/393
f 464/439/393 419/411/370 415/407/368
f 419/411/370 464/439/393 468/441/395
f 468/441/395 423/415/372 419/411/370
f 423/415/372 468/441/395 474/444/398
f 474/444/398 427/419/374 423/415/372
f 427/419/374 474/444/398 480/447/401
f 480/447/401 373/370/347 427/419/374
f 373/370/347 480/447/401 486/450/404
f 486/450/404 374/371/348 373/370/347
f 374/371/348 486/450/404 472/443/397
f 472/443/397 381/377/351 374/371/348
f 381/377/351 472/443/397 394/385/356
f 394/385/356 297/294/283 381/377/351
f 234/230/220 233/229/219 167/164/154
f 167/164/154 170/163/153 234/230/220
