# Blender 4.5.0
# www.blender.org
mtllib sachet_individuel_oreo__oreo_individual_sachet.mtl
o Cube_Mat_0
v 0.034835 -0.004111 -0.025822
v 0.034835 -0.005917 -0.018281
v 0.000000 -0.005917 -0.018281
v 0.000000 -0.004111 -0.025822
v 0.034835 -0.004301 0.026154
v 0.034835 -0.003622 0.027315
v 0.000000 -0.003622 0.027315
v 0.000000 -0.004301 0.026154
v 0.050000 -0.000042 0.015984
v 0.050000 -0.000030 0.015984
v 0.050000 -0.000030 0.028133
v 0.050000 -0.000042 0.028133
v 0.049414 0.000031 -0.028134
v 0.049414 0.000081 -0.028134
v 0.050000 -0.000030 -0.028134
v 0.050000 -0.000042 -0.028134
v 0.034835 0.004327 0.026173
v 0.034835 0.005883 0.014788
v 0.000000 0.005883 0.014788
v 0.000000 0.004327 0.026173
v 0.042379 -0.000206 0.015984
v 0.042965 -0.000325 0.015984
v 0.042965 -0.000325 0.028133
v 0.042379 -0.000206 0.028133
v 0.042379 0.000140 -0.028134
v 0.034835 0.002518 -0.028841
v 0.034835 0.004327 -0.026551
v 0.042379 0.000232 -0.028134
v 0.042379 0.000232 -0.019970
v 0.042965 0.000114 -0.019970
v 0.042965 0.000114 -0.028134
v 0.042379 0.000232 -0.028134
v 0.042379 0.000140 0.028133
v 0.042965 0.000022 0.028133
v 0.042965 0.000114 0.028133
v 0.042379 0.000232 0.028133
v 0.000000 0.002518 -0.028841
v 0.000000 0.004327 -0.026551
v 0.034835 -0.005031 0.014931
v 0.042379 -0.000206 0.015984
v 0.042379 -0.000206 0.028133
v 0.034835 0.002518 0.028383
v 0.034835 0.004327 0.026173
v 0.034835 0.005073 -0.018901
v 0.049414 0.000378 -0.028134
v 0.048828 0.000012 -0.028134
v 0.048828 0.000104 -0.028134
v 0.049414 0.000470 -0.028134
v 0.048241 0.000279 -0.028134
v 0.048241 0.000371 -0.028134
v 0.047655 0.000010 -0.028134
v 0.047655 0.000102 -0.028134
v 0.047069 0.000309 -0.028134
v 0.047069 0.000401 -0.028134
v 0.046483 0.000039 -0.028134
v 0.046483 0.000131 -0.028134
v 0.045896 0.000229 -0.028134
v 0.045896 0.000321 -0.028134
v 0.045310 0.000053 -0.028134
v 0.045310 0.000145 -0.028134
v 0.044724 0.000297 -0.028134
v 0.044724 0.000389 -0.028134
v 0.044138 0.000140 -0.028134
v 0.044138 0.000232 -0.028134
v 0.043552 0.000289 -0.028134
v 0.043552 0.000381 -0.028134
v 0.042965 0.000022 -0.028134
v 0.042965 0.000114 -0.028134
v 0.042379 0.000140 -0.028134
v 0.042379 0.000232 -0.028134
v 0.049414 0.000031 0.015984
v 0.050000 -0.000042 0.015984
v 0.050000 -0.000042 0.028133
v 0.049414 0.000031 0.028133
v 0.048828 -0.000335 0.015984
v 0.048828 -0.000335 0.028133
v 0.048241 -0.000068 0.015984
v 0.048828 -0.000335 0.015984
v 0.048828 -0.000335 0.028133
v 0.048241 -0.000068 0.028133
v 0.047655 -0.000337 0.015984
v 0.048241 -0.000068 0.015984
v 0.048241 -0.000068 0.028133
v 0.047655 -0.000337 0.028133
v 0.047069 -0.000038 0.015984
v 0.047655 -0.000337 0.015984
v 0.047655 -0.000337 0.028133
v 0.047069 -0.000038 0.028133
v 0.046483 -0.000307 0.015984
v 0.047069 -0.000038 0.015984
v 0.047069 -0.000038 0.028133
v 0.046483 -0.000307 0.028133
v 0.045896 -0.000117 0.015984
v 0.046483 -0.000307 0.015984
v 0.046483 -0.000307 0.028133
v 0.045896 -0.000117 0.028133
v 0.045310 -0.000293 0.015984
v 0.045310 -0.000293 0.028133
v 0.044724 -0.000050 0.015984
v 0.044724 -0.000050 0.028133
v 0.044138 -0.000206 0.015984
v 0.044138 -0.000206 0.028133
v 0.043552 -0.000058 0.015984
v 0.043552 -0.000058 0.028133
v 0.049414 0.000378 0.028133
v 0.050000 0.000045 0.028133
v 0.050000 0.000069 0.028133
v 0.049414 0.000470 0.028133
v 0.048828 0.000012 0.028133
v 0.048828 0.000104 0.028133
v 0.048241 0.000279 0.028133
v 0.048241 0.000371 0.028133
v 0.047655 0.000010 0.028133
v 0.047655 0.000102 0.028133
v 0.047069 0.000309 0.028133
v 0.047069 0.000401 0.028133
v 0.046483 0.000039 0.028133
v 0.046483 0.000131 0.028133
v 0.045896 0.000229 0.028133
v 0.045896 0.000321 0.028133
v 0.045310 0.000053 0.028133
v 0.045310 0.000145 0.028133
v 0.044724 0.000297 0.028133
v 0.044724 0.000389 0.028133
v 0.044138 0.000140 0.028133
v 0.044138 0.000232 0.028133
v 0.043552 0.000289 0.028133
v 0.043552 0.000381 0.028133
v 0.049414 0.000470 -0.019970
v 0.050000 0.000069 -0.019970
v 0.050000 0.000069 -0.028134
v 0.049414 0.000470 -0.028134
v 0.048828 0.000104 -0.019970
v 0.049414 0.000470 -0.019970
v 0.049414 0.000470 -0.028134
v 0.048828 0.000104 -0.028134
v 0.048241 0.000371 -0.019970
v 0.048828 0.000104 -0.019970
v 0.048828 0.000104 -0.028134
v 0.048241 0.000371 -0.028134
v 0.047655 0.000102 -0.019970
v 0.048241 0.000371 -0.019970
v 0.048241 0.000371 -0.028134
v 0.047655 0.000102 -0.028134
v 0.047069 0.000401 -0.019970
v 0.047655 0.000102 -0.019970
v 0.047655 0.000102 -0.028134
v 0.047069 0.000401 -0.028134
v 0.046483 0.000131 -0.019970
v 0.047069 0.000401 -0.019970
v 0.047069 0.000401 -0.028134
v 0.046483 0.000131 -0.028134
v 0.045896 0.000321 -0.019970
v 0.046483 0.000131 -0.019970
v 0.046483 0.000131 -0.028134
v 0.045896 0.000321 -0.028134
v 0.045310 0.000145 -0.019970
v 0.045310 0.000145 -0.028134
v 0.044724 0.000389 -0.019970
v 0.044724 0.000389 -0.028134
v 0.044138 0.000232 -0.019970
v 0.044138 0.000232 -0.028134
v 0.043552 0.000381 -0.019970
v 0.043552 0.000381 -0.028134
v 0.034835 -0.001395 0.029013
v 0.034835 0.000352 0.028788
v 0.000000 0.000352 0.028788
v 0.000000 -0.001395 0.029013
v 0.034835 -0.003134 0.028149
v 0.042379 -0.000121 0.028133
v 0.042379 -0.000050 0.028133
v 0.042965 -0.000239 0.028133
v 0.042965 -0.000168 0.028133
v 0.043552 0.000028 0.028133
v 0.043552 0.000099 0.028133
v 0.044138 -0.000121 0.028133
v 0.044138 -0.000050 0.028133
v 0.044724 0.000036 0.028133
v 0.044724 0.000107 0.028133
v 0.045310 -0.000208 0.028133
v 0.045310 -0.000137 0.028133
v 0.045896 -0.000031 0.028133
v 0.045896 0.000040 0.028133
v 0.046483 -0.000221 0.028133
v 0.046483 -0.000151 0.028133
v 0.047069 0.000048 0.028133
v 0.047069 0.000119 0.028133
v 0.047655 -0.000251 0.028133
v 0.047655 -0.000180 0.028133
v 0.048241 0.000018 0.028133
v 0.048241 0.000089 0.028133
v 0.048828 -0.000249 0.028133
v 0.048828 -0.000178 0.028133
v 0.049414 0.000117 0.028133
v 0.049414 0.000188 0.028133
v 0.050000 -0.000021 0.028133
v 0.050000 -0.000003 0.028133
v 0.050000 -0.000003 0.015984
v 0.050000 0.000018 0.015984
v 0.050000 0.000018 0.028133
v 0.050000 -0.000003 0.028133
v 0.049414 0.000188 -0.028134
v 0.049414 0.000270 -0.028134
v 0.050000 0.000018 -0.028134
v 0.050000 -0.000003 -0.028134
v 0.049414 0.000117 -0.028134
v 0.048828 -0.000249 -0.028134
v 0.048828 -0.000178 -0.028134
v 0.048241 0.000018 -0.028134
v 0.048241 0.000089 -0.028134
v 0.047655 -0.000251 -0.028134
v 0.047655 -0.000180 -0.028134
v 0.047069 0.000048 -0.028134
v 0.047069 0.000119 -0.028134
v 0.046483 -0.000221 -0.028134
v 0.046483 -0.000151 -0.028134
v 0.045896 -0.000031 -0.028134
v 0.045896 0.000040 -0.028134
v 0.045310 -0.000208 -0.028134
v 0.045310 -0.000137 -0.028134
v 0.044724 0.000036 -0.028134
v 0.044724 0.000107 -0.028134
v 0.044138 -0.000121 -0.028134
v 0.044138 -0.000050 -0.028134
v 0.043552 0.000028 -0.028134
v 0.043552 0.000099 -0.028134
v 0.042965 -0.000239 -0.028134
v 0.042965 -0.000168 -0.028134
v 0.042379 -0.000121 -0.028134
v 0.042379 -0.000050 -0.028134
v 0.034835 -0.002666 -0.028414
v 0.034835 -0.001313 -0.028646
v 0.000000 -0.002666 -0.028414
v 0.000000 -0.001313 -0.028646
v 0.034835 0.000298 -0.028707
v 0.000000 0.000298 -0.028707
v 0.042379 0.000032 -0.028134
v 0.042965 -0.000087 -0.028134
v 0.043552 0.000181 -0.028134
v 0.044138 0.000032 -0.028134
v 0.044724 0.000189 -0.028134
v 0.045310 -0.000055 -0.028134
v 0.045896 0.000121 -0.028134
v 0.046483 -0.000069 -0.028134
v 0.047069 0.000201 -0.028134
v 0.047655 -0.000098 -0.028134
v 0.048241 0.000171 -0.028134
v 0.048828 -0.000096 -0.028134
v 0.050000 0.000045 -0.028134
v 0.050000 0.000045 0.015984
v 0.050000 0.000045 0.028133
v 0.049414 0.000270 0.028133
v 0.050000 0.000018 0.028133
v 0.048828 -0.000096 0.028133
v 0.048241 0.000171 0.028133
v 0.047655 -0.000098 0.028133
v 0.047069 0.000201 0.028133
v 0.046483 -0.000069 0.028133
v 0.045896 0.000121 0.028133
v 0.045310 -0.000055 0.028133
v 0.044724 0.000189 0.028133
v 0.044138 0.000032 0.028133
v 0.043552 0.000181 0.028133
v 0.042965 -0.000087 0.028133
v 0.042379 0.000032 0.028133
v 0.000000 0.002518 0.028383
v 0.034835 0.002518 -0.028841
v 0.000000 0.002518 -0.028841
v 0.050000 0.000069 -0.028134
v 0.050000 0.000069 0.015984
v 0.050000 0.000069 0.028133
v 0.000000 0.004327 0.026173
v 0.000000 0.002518 0.028383
v 0.000000 -0.003134 0.028149
v 0.042379 -0.000156 0.028133
v 0.042965 -0.000275 0.028133
v 0.043552 -0.000008 0.028133
v 0.044138 -0.000156 0.028133
v 0.044724 0.000000 0.028133
v 0.045310 -0.000243 0.028133
v 0.045896 -0.000067 0.028133
v 0.046483 -0.000257 0.028133
v 0.047069 0.000012 0.028133
v 0.047655 -0.000287 0.028133
v 0.048241 -0.000018 0.028133
v 0.048828 -0.000285 0.028133
v 0.049414 0.000081 0.028133
v 0.050000 -0.000030 0.028133
v 0.050000 -0.000021 0.015984
v 0.050000 -0.000021 0.028133
v 0.050000 -0.000021 -0.028134
v 0.048828 -0.000285 -0.028134
v 0.048241 -0.000018 -0.028134
v 0.047655 -0.000287 -0.028134
v 0.047069 0.000012 -0.028134
v 0.046483 -0.000257 -0.028134
v 0.045896 -0.000067 -0.028134
v 0.045310 -0.000243 -0.028134
v 0.044724 0.000000 -0.028134
v 0.044138 -0.000156 -0.028134
v 0.043552 -0.000008 -0.028134
v 0.042965 -0.000275 -0.028134
v 0.042379 -0.000156 -0.028134
v 0.034835 -0.003639 -0.027519
v 0.000000 -0.003639 -0.027519
v 0.042379 -0.000206 0.028133
v 0.042965 -0.000325 0.028133
v 0.043552 -0.000058 0.028133
v 0.044138 -0.000206 0.028133
v 0.044724 -0.000050 0.028133
v 0.045310 -0.000293 0.028133
v 0.045896 -0.000117 0.028133
v 0.046483 -0.000307 0.028133
v 0.047069 -0.000038 0.028133
v 0.047655 -0.000337 0.028133
v 0.048241 -0.000068 0.028133
v 0.048828 -0.000335 0.028133
v 0.049414 0.000031 0.028133
v 0.050000 -0.000042 0.028133
v 0.048828 -0.000335 -0.028134
v 0.048241 -0.000068 -0.028134
v 0.047655 -0.000337 -0.028134
v 0.047069 -0.000038 -0.028134
v 0.046483 -0.000307 -0.028134
v 0.045896 -0.000117 -0.028134
v 0.045310 -0.000293 -0.028134
v 0.044724 -0.000050 -0.028134
v 0.044138 -0.000206 -0.028134
v 0.043552 -0.000058 -0.028134
v 0.042965 -0.000325 -0.028134
v 0.042379 -0.000206 -0.028134
v 0.034835 -0.004111 -0.025822
v -0.034835 -0.005917 -0.018281
v -0.034835 -0.004111 -0.025822
v -0.034835 -0.003622 0.027315
v -0.034835 -0.004301 0.026154
v -0.050000 -0.000030 0.028133
v -0.050000 -0.000030 0.015984
v -0.050000 -0.000042 0.015984
v -0.050000 -0.000042 0.028133
v -0.050000 -0.000030 -0.028134
v -0.049414 0.000081 -0.028134
v -0.049414 0.000031 -0.028134
v -0.050000 -0.000042 -0.028134
v -0.034835 0.005883 0.014788
v -0.034835 0.004327 0.026173
v -0.042965 -0.000325 0.028133
v -0.042965 -0.000325 0.015984
v -0.042379 -0.000206 0.015984
v -0.042379 -0.000206 0.028133
v -0.034835 0.004327 -0.026551
v -0.034835 0.002518 -0.028841
v -0.042379 0.000140 -0.028134
v -0.042379 0.000232 -0.028134
v -0.042965 0.000114 -0.028134
v -0.042965 0.000114 -0.019970
v -0.042379 0.000232 -0.019970
v -0.042379 0.000232 -0.028134
v -0.042965 0.000114 0.028133
v -0.042965 0.000022 0.028133
v -0.042379 0.000140 0.028133
v -0.042379 0.000232 0.028133
v -0.042379 -0.000206 0.028133
v -0.042379 -0.000206 0.015984
v -0.034835 -0.005031 0.014931
v -0.034835 0.002518 0.028383
v -0.034835 0.004327 0.026173
v -0.034835 0.005073 -0.018901
v -0.048828 0.000104 -0.028134
v -0.048828 0.000012 -0.028134
v -0.049414 0.000378 -0.028134
v -0.049414 0.000470 -0.028134
v -0.048241 0.000371 -0.028134
v -0.048241 0.000279 -0.028134
v -0.047655 0.000102 -0.028134
v -0.047655 0.000010 -0.028134
v -0.047069 0.000401 -0.028134
v -0.047069 0.000309 -0.028134
v -0.046483 0.000131 -0.028134
v -0.046483 0.000039 -0.028134
v -0.045896 0.000321 -0.028134
v -0.045896 0.000229 -0.028134
v -0.045310 0.000145 -0.028134
v -0.045310 0.000053 -0.028134
v -0.044724 0.000389 -0.028134
v -0.044724 0.000297 -0.028134
v -0.044138 0.000232 -0.028134
v -0.044138 0.000140 -0.028134
v -0.043552 0.000381 -0.028134
v -0.043552 0.000289 -0.028134
v -0.042965 0.000114 -0.028134
v -0.042965 0.000022 -0.028134
v -0.042379 0.000232 -0.028134
v -0.042379 0.000140 -0.028134
v -0.050000 -0.000042 0.028133
v -0.050000 -0.000042 0.015984
v -0.049414 0.000031 0.015984
v -0.049414 0.000031 0.028133
v -0.048828 -0.000335 0.015984
v -0.048828 -0.000335 0.028133
v -0.048828 -0.000335 0.028133
v -0.048828 -0.000335 0.015984
v -0.048241 -0.000068 0.015984
v -0.048241 -0.000068 0.028133
v -0.048241 -0.000068 0.028133
v -0.048241 -0.000068 0.015984
v -0.047655 -0.000337 0.015984
v -0.047655 -0.000337 0.028133
v -0.047655 -0.000337 0.028133
v -0.047655 -0.000337 0.015984
v -0.047069 -0.000038 0.015984
v -0.047069 -0.000038 0.028133
v -0.047069 -0.000038 0.028133
v -0.047069 -0.000038 0.015984
v -0.046483 -0.000307 0.015984
v -0.046483 -0.000307 0.028133
v -0.046483 -0.000307 0.028133
v -0.046483 -0.000307 0.015984
v -0.045896 -0.000117 0.015984
v -0.045896 -0.000117 0.028133
v -0.045310 -0.000293 0.015984
v -0.045310 -0.000293 0.028133
v -0.044724 -0.000050 0.015984
v -0.044724 -0.000050 0.028133
v -0.044138 -0.000206 0.015984
v -0.044138 -0.000206 0.028133
v -0.043552 -0.000058 0.015984
v -0.043552 -0.000058 0.028133
v -0.050000 0.000069 0.028133
v -0.050000 0.000045 0.028133
v -0.049414 0.000378 0.028133
v -0.049414 0.000470 0.028133
v -0.048828 0.000012 0.028133
v -0.048828 0.000104 0.028133
v -0.048241 0.000279 0.028133
v -0.048241 0.000371 0.028133
v -0.047655 0.000010 0.028133
v -0.047655 0.000102 0.028133
v -0.047069 0.000309 0.028133
v -0.047069 0.000401 0.028133
v -0.046483 0.000039 0.028133
v -0.046483 0.000131 0.028133
v -0.045896 0.000229 0.028133
v -0.045896 0.000321 0.028133
v -0.045310 0.000053 0.028133
v -0.045310 0.000145 0.028133
v -0.044724 0.000297 0.028133
v -0.044724 0.000389 0.028133
v -0.044138 0.000140 0.028133
v -0.044138 0.000232 0.028133
v -0.043552 0.000289 0.028133
v -0.043552 0.000381 0.028133
v -0.050000 0.000069 -0.028134
v -0.050000 0.000069 -0.019970
v -0.049414 0.000470 -0.019970
v -0.049414 0.000470 -0.028134
v -0.049414 0.000470 -0.028134
v -0.049414 0.000470 -0.019970
v -0.048828 0.000104 -0.019970
v -0.048828 0.000104 -0.028134
v -0.048828 0.000104 -0.028134
v -0.048828 0.000104 -0.019970
v -0.048241 0.000371 -0.019970
v -0.048241 0.000371 -0.028134
v -0.048241 0.000371 -0.028134
v -0.048241 0.000371 -0.019970
v -0.047655 0.000102 -0.019970
v -0.047655 0.000102 -0.028134
v -0.047655 0.000102 -0.028134
v -0.047655 0.000102 -0.019970
v -0.047069 0.000401 -0.019970
v -0.047069 0.000401 -0.028134
v -0.047069 0.000401 -0.028134
v -0.047069 0.000401 -0.019970
v -0.046483 0.000131 -0.019970
v -0.046483 0.000131 -0.028134
v -0.046483 0.000131 -0.028134
v -0.046483 0.000131 -0.019970
v -0.045896 0.000321 -0.019970
v -0.045896 0.000321 -0.028134
v -0.045310 0.000145 -0.019970
v -0.045310 0.000145 -0.028134
v -0.044724 0.000389 -0.019970
v -0.044724 0.000389 -0.028134
v -0.044138 0.000232 -0.019970
v -0.044138 0.000232 -0.028134
v -0.043552 0.000381 -0.019970
v -0.043552 0.000381 -0.028134
v -0.034835 0.000352 0.028788
v -0.034835 -0.001395 0.029013
v -0.042379 -0.000121 0.028133
v -0.034835 -0.003134 0.028149
v -0.042379 -0.000050 0.028133
v -0.042965 -0.000239 0.028133
v -0.042965 -0.000168 0.028133
v -0.043552 0.000028 0.028133
v -0.043552 0.000099 0.028133
v -0.044138 -0.000121 0.028133
v -0.044138 -0.000050 0.028133
v -0.044724 0.000036 0.028133
v -0.044724 0.000107 0.028133
v -0.045310 -0.000208 0.028133
v -0.045310 -0.000137 0.028133
v -0.045896 -0.000031 0.028133
v -0.045896 0.000040 0.028133
v -0.046483 -0.000221 0.028133
v -0.046483 -0.000151 0.028133
v -0.047069 0.000048 0.028133
v -0.047069 0.000119 0.028133
v -0.047655 -0.000251 0.028133
v -0.047655 -0.000180 0.028133
v -0.048241 0.000018 0.028133
v -0.048241 0.000089 0.028133
v -0.048828 -0.000249 0.028133
v -0.048828 -0.000178 0.028133
v -0.049414 0.000117 0.028133
v -0.049414 0.000188 0.028133
v -0.050000 -0.000021 0.028133
v -0.050000 -0.000003 0.028133
v -0.050000 0.000018 0.028133
v -0.050000 0.000018 0.015984
v -0.050000 -0.000003 0.015984
v -0.050000 -0.000003 0.028133
v -0.050000 0.000018 -0.028134
v -0.049414 0.000270 -0.028134
v -0.049414 0.000188 -0.028134
v -0.050000 -0.000003 -0.028134
v -0.048828 -0.000249 -0.028134
v -0.049414 0.000117 -0.028134
v -0.048828 -0.000178 -0.028134
v -0.048241 0.000018 -0.028134
v -0.048241 0.000089 -0.028134
v -0.047655 -0.000251 -0.028134
v -0.047655 -0.000180 -0.028134
v -0.047069 0.000048 -0.028134
v -0.047069 0.000119 -0.028134
v -0.046483 -0.000221 -0.028134
v -0.046483 -0.000151 -0.028134
v -0.045896 -0.000031 -0.028134
v -0.045896 0.000040 -0.028134
v -0.045310 -0.000208 -0.028134
v -0.045310 -0.000137 -0.028134
v -0.044724 0.000036 -0.028134
v -0.044724 0.000107 -0.028134
v -0.044138 -0.000121 -0.028134
v -0.044138 -0.000050 -0.028134
v -0.043552 0.000028 -0.028134
v -0.043552 0.000099 -0.028134
v -0.042965 -0.000239 -0.028134
v -0.042965 -0.000168 -0.028134
v -0.042379 -0.000121 -0.028134
v -0.042379 -0.000050 -0.028134
v -0.034835 -0.002666 -0.028414
v -0.034835 -0.001313 -0.028646
v -0.034835 0.000298 -0.028707
v -0.042379 0.000032 -0.028134
v -0.042965 -0.000087 -0.028134
v -0.043552 0.000181 -0.028134
v -0.044138 0.000032 -0.028134
v -0.044724 0.000189 -0.028134
v -0.045310 -0.000055 -0.028134
v -0.045896 0.000121 -0.028134
v -0.046483 -0.000069 -0.028134
v -0.047069 0.000201 -0.028134
v -0.047655 -0.000098 -0.028134
v -0.048241 0.000171 -0.028134
v -0.048828 -0.000096 -0.028134
v -0.050000 0.000045 -0.028134
v -0.050000 0.000045 0.028133
v -0.050000 0.000045 0.015984
v -0.049414 0.000270 0.028133
v -0.050000 0.000018 0.028133
v -0.048828 -0.000096 0.028133
v -0.048241 0.000171 0.028133
v -0.047655 -0.000098 0.028133
v -0.047069 0.000201 0.028133
v -0.046483 -0.000069 0.028133
v -0.045896 0.000121 0.028133
v -0.045310 -0.000055 0.028133
v -0.044724 0.000189 0.028133
v -0.044138 0.000032 0.028133
v -0.043552 0.000181 0.028133
v -0.042965 -0.000087 0.028133
v -0.042379 0.000032 0.028133
v -0.034835 0.002518 -0.028841
v -0.050000 0.000069 -0.028134
v -0.050000 0.000069 0.028133
v -0.050000 0.000069 0.015984
v -0.042379 -0.000156 0.028133
v -0.042965 -0.000275 0.028133
v -0.043552 -0.000008 0.028133
v -0.044138 -0.000156 0.028133
v -0.044724 0.000000 0.028133
v -0.045310 -0.000243 0.028133
v -0.045896 -0.000067 0.028133
v -0.046483 -0.000257 0.028133
v -0.047069 0.000012 0.028133
v -0.047655 -0.000287 0.028133
v -0.048241 -0.000018 0.028133
v -0.048828 -0.000285 0.028133
v -0.049414 0.000081 0.028133
v -0.050000 -0.000030 0.028133
v -0.050000 -0.000021 0.015984
v -0.050000 -0.000021 0.028133
v -0.050000 -0.000021 -0.028134
v -0.048828 -0.000285 -0.028134
v -0.048241 -0.000018 -0.028134
v -0.047655 -0.000287 -0.028134
v -0.047069 0.000012 -0.028134
v -0.046483 -0.000257 -0.028134
v -0.045896 -0.000067 -0.028134
v -0.045310 -0.000243 -0.028134
v -0.044724 0.000000 -0.028134
v -0.044138 -0.000156 -0.028134
v -0.043552 -0.000008 -0.028134
v -0.042965 -0.000275 -0.028134
v -0.042379 -0.000156 -0.028134
v -0.034835 -0.003639 -0.027519
v -0.042379 -0.000206 0.028133
v -0.042965 -0.000325 0.028133
v -0.043552 -0.000058 0.028133
v -0.044138 -0.000206 0.028133
v -0.044724 -0.000050 0.028133
v -0.045310 -0.000293 0.028133
v -0.045896 -0.000117 0.028133
v -0.046483 -0.000307 0.028133
v -0.047069 -0.000038 0.028133
v -0.047655 -0.000337 0.028133
v -0.048241 -0.000068 0.028133
v -0.048828 -0.000335 0.028133
v -0.049414 0.000031 0.028133
v -0.050000 -0.000042 0.028133
v -0.048828 -0.000335 -0.028134
v -0.048241 -0.000068 -0.028134
v -0.047655 -0.000337 -0.028134
v -0.047069 -0.000038 -0.028134
v -0.046483 -0.000307 -0.028134
v -0.045896 -0.000117 -0.028134
v -0.045310 -0.000293 -0.028134
v -0.044724 -0.000050 -0.028134
v -0.044138 -0.000206 -0.028134
v -0.043552 -0.000058 -0.028134
v -0.042965 -0.000325 -0.028134
v -0.042379 -0.000206 -0.028134
v -0.034835 -0.004111 -0.025822
v 0.000000 -0.005031 0.014931
v 0.034835 -0.004924 -0.000562
v 0.042379 -0.000206 -0.000788
v 0.042379 -0.000206 -0.000788
v 0.042965 -0.000325 -0.000788
v 0.043552 -0.000058 -0.000788
v 0.044138 -0.000206 -0.000788
v 0.044724 -0.000050 -0.000788
v 0.045310 -0.000293 -0.000788
v 0.045896 -0.000117 -0.000788
v 0.046483 -0.000307 -0.000788
v 0.046483 -0.000307 -0.000788
v 0.047069 -0.000038 -0.000788
v 0.047069 -0.000038 -0.000788
v 0.047655 -0.000337 -0.000788
v 0.047655 -0.000337 -0.000788
v 0.048241 -0.000068 -0.000788
v 0.048241 -0.000068 -0.000788
v 0.048828 -0.000335 -0.000788
v 0.048828 -0.000335 -0.000788
v 0.049414 0.000031 -0.000788
v 0.050000 -0.000042 -0.000788
v 0.050000 -0.000042 -0.000788
v 0.050000 -0.000030 -0.000788
v 0.050000 -0.000021 -0.000788
v 0.050000 -0.000003 -0.000788
v 0.050000 0.000018 -0.000788
v 0.050000 0.000045 -0.000788
v 0.050000 0.000069 -0.000788
v 0.049414 0.000470 0.015984
v 0.049414 0.000470 0.028133
v 0.050000 0.000069 0.028133
v 0.050000 0.000069 0.015984
v 0.048828 0.000104 0.015984
v 0.048828 0.000104 0.028133
v 0.049414 0.000470 0.028133
v 0.049414 0.000470 0.015984
v 0.048241 0.000371 0.015984
v 0.048241 0.000371 0.028133
v 0.048828 0.000104 0.028133
v 0.048828 0.000104 0.015984
v 0.047655 0.000102 0.015984
v 0.047655 0.000102 0.028133
v 0.048241 0.000371 0.028133
v 0.048241 0.000371 0.015984
v 0.047069 0.000401 0.015984
v 0.047069 0.000401 0.028133
v 0.047655 0.000102 0.028133
v 0.047655 0.000102 0.015984
v 0.046483 0.000131 0.015984
v 0.046483 0.000131 0.028133
v 0.047069 0.000401 0.028133
v 0.047069 0.000401 0.015984
v 0.045896 0.000321 0.015984
v 0.045896 0.000321 0.028133
v 0.046483 0.000131 0.028133
v 0.046483 0.000131 0.015984
v 0.045310 0.000145 0.015984
v 0.045310 0.000145 0.028133
v 0.044724 0.000389 0.015984
v 0.044724 0.000389 0.028133
v 0.044138 0.000232 0.015984
v 0.044138 0.000232 0.028133
v 0.043552 0.000381 0.015984
v 0.043552 0.000381 0.028133
v 0.042965 0.000114 0.015984
v 0.042965 0.000114 0.028133
v 0.042379 0.000232 0.015984
v 0.042379 0.000232 0.028133
v 0.034835 0.005456 -0.000927
v 0.000000 0.005456 -0.000927
v -0.034835 0.005456 -0.000927
v -0.042379 0.000232 0.015984
v -0.042379 0.000232 0.028133
v -0.042965 0.000114 0.015984
v -0.042965 0.000114 0.028133
v -0.043552 0.000381 0.015984
v -0.043552 0.000381 0.028133
v -0.044138 0.000232 0.015984
v -0.044138 0.000232 0.028133
v -0.044724 0.000389 0.015984
v -0.044724 0.000389 0.028133
v -0.045310 0.000145 0.015984
v -0.045310 0.000145 0.028133
v -0.045896 0.000321 0.015984
v -0.045896 0.000321 0.028133
v -0.046483 0.000131 0.015984
v -0.046483 0.000131 0.028133
v -0.047069 0.000401 0.015984
v -0.047069 0.000401 0.028133
v -0.046483 0.000131 0.028133
v -0.046483 0.000131 0.015984
v -0.047655 0.000102 0.015984
v -0.047655 0.000102 0.028133
v -0.047069 0.000401 0.028133
v -0.047069 0.000401 0.015984
v -0.048241 0.000371 0.015984
v -0.048241 0.000371 0.028133
v -0.047655 0.000102 0.028133
v -0.047655 0.000102 0.015984
v -0.048828 0.000104 0.015984
v -0.048828 0.000104 0.028133
v -0.048241 0.000371 0.028133
v -0.048241 0.000371 0.015984
v -0.049414 0.000470 0.015984
v -0.049414 0.000470 0.028133
v -0.048828 0.000104 0.028133
v -0.048828 0.000104 0.015984
v -0.050000 0.000069 0.015984
v -0.050000 0.000069 0.028133
v -0.049414 0.000470 0.028133
v -0.049414 0.000470 0.015984
v -0.050000 0.000069 -0.000788
v -0.050000 0.000045 -0.000788
v -0.050000 0.000018 -0.000788
v -0.050000 -0.000003 -0.000788
v -0.050000 -0.000021 -0.000788
v -0.050000 -0.000030 -0.000788
v -0.050000 -0.000042 -0.000788
v -0.050000 -0.000042 -0.000788
v -0.049414 0.000031 -0.000788
v -0.048828 -0.000335 -0.000788
v -0.048828 -0.000335 -0.000788
v -0.048241 -0.000068 -0.000788
v -0.048241 -0.000068 -0.000788
v -0.047655 -0.000337 -0.000788
v -0.047655 -0.000337 -0.000788
v -0.047069 -0.000038 -0.000788
v -0.047069 -0.000038 -0.000788
v -0.046483 -0.000307 -0.000788
v -0.046483 -0.000307 -0.000788
v -0.045896 -0.000117 -0.000788
v -0.045310 -0.000293 -0.000788
v -0.044724 -0.000050 -0.000788
v -0.044138 -0.000206 -0.000788
v -0.043552 -0.000058 -0.000788
v -0.042965 -0.000325 -0.000788
v -0.042379 -0.000206 -0.000788
v -0.042379 -0.000206 -0.000788
v -0.034835 -0.004924 -0.000562
v -0.042379 -0.000206 -0.019970
v -0.042965 -0.000325 -0.019970
v -0.042379 -0.000206 -0.019970
v -0.043552 -0.000058 -0.019970
v -0.044138 -0.000206 -0.019970
v -0.044724 -0.000050 -0.019970
v -0.045310 -0.000293 -0.019970
v -0.045896 -0.000117 -0.019970
v -0.046483 -0.000307 -0.019970
v -0.047069 -0.000038 -0.019970
v -0.046483 -0.000307 -0.019970
v -0.047655 -0.000337 -0.019970
v -0.047069 -0.000038 -0.019970
v -0.048241 -0.000068 -0.019970
v -0.047655 -0.000337 -0.019970
v -0.048828 -0.000335 -0.019970
v -0.048241 -0.000068 -0.019970
v -0.049414 0.000031 -0.019970
v -0.048828 -0.000335 -0.019970
v -0.050000 -0.000042 -0.019970
v -0.050000 -0.000030 -0.019970
v -0.050000 -0.000042 -0.019970
v -0.050000 -0.000021 -0.019970
v -0.050000 -0.000003 -0.019970
v -0.050000 0.000018 -0.019970
v -0.050000 0.000045 -0.019970
v -0.050000 0.000069 -0.019970
v -0.050000 0.000069 -0.000788
v -0.049414 0.000470 -0.000788
v -0.049414 0.000470 -0.000788
v -0.048828 0.000104 -0.000788
v -0.048828 0.000104 -0.000788
v -0.048241 0.000371 -0.000788
v -0.048241 0.000371 -0.000788
v -0.047655 0.000102 -0.000788
v -0.047655 0.000102 -0.000788
v -0.047069 0.000401 -0.000788
v -0.047069 0.000401 -0.000788
v -0.046483 0.000131 -0.000788
v -0.046483 0.000131 -0.000788
v -0.045896 0.000321 -0.000788
v -0.045310 0.000145 -0.000788
v -0.044724 0.000389 -0.000788
v -0.044138 0.000232 -0.000788
v -0.043552 0.000381 -0.000788
v -0.042965 0.000114 -0.000788
v -0.042379 0.000232 -0.000788
v 0.000000 0.005073 -0.018901
v 0.042379 0.000232 -0.000788
v 0.042965 0.000114 -0.000788
v 0.043552 0.000381 -0.000788
v 0.044138 0.000232 -0.000788
v 0.044724 0.000389 -0.000788
v 0.045310 0.000145 -0.000788
v 0.045896 0.000321 -0.000788
v 0.046483 0.000131 -0.000788
v 0.046483 0.000131 -0.000788
v 0.047069 0.000401 -0.000788
v 0.047069 0.000401 -0.000788
v 0.047655 0.000102 -0.000788
v 0.047655 0.000102 -0.000788
v 0.048241 0.000371 -0.000788
v 0.048241 0.000371 -0.000788
v 0.048828 0.000104 -0.000788
v 0.048828 0.000104 -0.000788
v 0.049414 0.000470 -0.000788
v 0.049414 0.000470 -0.000788
v 0.050000 0.000069 -0.000788
v 0.050000 0.000045 -0.019970
v 0.050000 0.000069 -0.019970
v 0.050000 0.000018 -0.019970
v 0.050000 -0.000003 -0.019970
v 0.050000 -0.000021 -0.019970
v 0.050000 -0.000030 -0.019970
v 0.050000 -0.000042 -0.019970
v 0.049414 0.000031 -0.019970
v 0.050000 -0.000042 -0.019970
v 0.048828 -0.000335 -0.019970
v 0.048241 -0.000068 -0.019970
v 0.048828 -0.000335 -0.019970
v 0.047655 -0.000337 -0.019970
v 0.048241 -0.000068 -0.019970
v 0.047069 -0.000038 -0.019970
v 0.047655 -0.000337 -0.019970
v 0.046483 -0.000307 -0.019970
v 0.047069 -0.000038 -0.019970
v 0.045896 -0.000117 -0.019970
v 0.046483 -0.000307 -0.019970
v 0.045310 -0.000293 -0.019970
v 0.044724 -0.000050 -0.019970
v 0.044138 -0.000206 -0.019970
v 0.043552 -0.000058 -0.019970
v 0.042965 -0.000325 -0.019970
v 0.042379 -0.000206 -0.019970
v 0.042379 -0.000206 -0.019970
v 0.000000 -0.004924 -0.000562
v -0.042379 -0.000206 -0.028134
v -0.042965 -0.000325 -0.028134
v -0.042379 -0.000206 -0.028134
v -0.043552 -0.000058 -0.028134
v -0.044138 -0.000206 -0.028134
v -0.044724 -0.000050 -0.028134
v -0.045310 -0.000293 -0.028134
v -0.045896 -0.000117 -0.028134
v -0.046483 -0.000307 -0.028134
v -0.047069 -0.000038 -0.028134
v -0.046483 -0.000307 -0.028134
v -0.047655 -0.000337 -0.028134
v -0.047069 -0.000038 -0.028134
v -0.048241 -0.000068 -0.028134
v -0.047655 -0.000337 -0.028134
v -0.048828 -0.000335 -0.028134
v -0.048241 -0.000068 -0.028134
v -0.049414 0.000031 -0.028134
v -0.048828 -0.000335 -0.028134
v -0.050000 -0.000042 -0.028134
v -0.050000 -0.000030 -0.028134
v -0.050000 -0.000042 -0.028134
v -0.050000 -0.000021 -0.028134
v -0.050000 -0.000003 -0.028134
v -0.050000 0.000018 -0.028134
v -0.050000 0.000045 -0.028134
v -0.050000 0.000069 -0.028134
v 0.050000 0.000045 -0.028134
v 0.050000 0.000069 -0.028134
v 0.050000 0.000018 -0.028134
v 0.050000 -0.000003 -0.028134
v 0.050000 -0.000021 -0.028134
v 0.050000 -0.000030 -0.028134
v 0.050000 -0.000042 -0.028134
v 0.049414 0.000031 -0.028134
v 0.050000 -0.000042 -0.028134
v 0.048828 -0.000335 -0.028134
v 0.048241 -0.000068 -0.028134
v 0.048828 -0.000335 -0.028134
v 0.047655 -0.000337 -0.028134
v 0.048241 -0.000068 -0.028134
v 0.047069 -0.000038 -0.028134
v 0.047655 -0.000337 -0.028134
v 0.046483 -0.000307 -0.028134
v 0.047069 -0.000038 -0.028134
v 0.045896 -0.000117 -0.028134
v 0.046483 -0.000307 -0.028134
v 0.045310 -0.000293 -0.028134
v 0.044724 -0.000050 -0.028134
v 0.044138 -0.000206 -0.028134
v 0.043552 -0.000058 -0.028134
v 0.042965 -0.000325 -0.028134
v 0.042379 -0.000206 -0.028134
v 0.042379 -0.000206 -0.028134
vn 0.1780 -0.9621 -0.2064
vn 0.2843 -0.9565 -0.0656
vn -0.0000 -0.9960 -0.0894
vn -0.0000 -0.9681 -0.2506
vn 0.1530 -0.8991 0.4102
vn 0.0444 -0.7003 0.7125
vn -0.0000 -0.8632 0.5048
vn -0.0000 -0.9562 0.2927
vn 1.0000 -0.0000 -0.0000
vn -0.0000 -0.0000 -1.0000
vn 0.1515 0.8592 0.4887
vn 0.2928 0.9553 0.0399
vn -0.0000 0.9985 0.0543
vn -0.0000 0.9169 0.3992
vn -0.1986 -0.9801 -0.0000
vn 0.1137 -0.9935 -0.0000
vn 0.0749 0.0993 -0.9922
vn 0.0796 0.3021 -0.9500
vn 0.2013 0.8632 -0.4630
vn 0.1080 0.2155 -0.9705
vn 0.3699 0.9290 -0.0128
vn -0.1137 0.9935 -0.0000
vn 0.3563 0.9342 -0.0209
vn 0.0232 0.1322 0.9910
vn -0.0000 -0.0000 1.0000
vn 0.0014 0.2191 0.9757
vn -0.0000 0.7848 -0.6198
vn -0.0000 0.9276 -0.3736
vn 0.2702 -0.9626 0.0213
vn 0.5202 -0.8540 0.0123
vn 0.5053 -0.8625 0.0275
vn 0.0240 0.3878 0.9214
vn 0.1515 0.8591 0.4888
vn 0.2754 0.9603 -0.0439
vn 0.1080 0.2154 -0.9705
vn 0.2149 -0.9766 -0.0000
vn -0.1249 -0.9922 -0.0000
vn 0.5299 -0.8481 -0.0000
vn -0.4149 -0.9099 -0.0000
vn 0.4174 -0.9087 -0.0000
vn -0.4543 -0.8908 -0.0000
vn -0.0108 -0.9999 -0.0000
vn -0.3084 -0.9512 -0.0000
vn -0.0508 -0.9987 -0.0000
vn -0.0664 -0.9978 -0.0000
vn 0.0063 -1.0000 -0.0000
vn 0.0897 -0.9960 -0.0000
vn 0.5649 0.8251 -0.0000
vn -0.5299 0.8481 -0.0000
vn 0.4149 0.9099 -0.0000
vn -0.4174 0.9087 -0.0000
vn 0.4543 0.8908 -0.0000
vn 0.0108 0.9999 -0.0000
vn 0.3084 0.9512 -0.0000
vn 0.0508 0.9987 -0.0000
vn 0.0664 0.9978 -0.0000
vn -0.0063 1.0000 -0.0000
vn -0.0897 0.9960 -0.0000
vn 0.0510 -0.1234 0.9910
vn 0.0482 0.1171 0.9920
vn -0.0000 0.1559 0.9878
vn -0.0000 -0.1658 0.9862
vn 0.0585 -0.5276 0.8475
vn 0.0572 -0.1808 0.9819
vn 0.0499 -0.0408 0.9979
vn 0.0590 -0.1110 -0.9921
vn 0.0389 -0.0258 -0.9989
vn 0.0602 -0.3324 -0.9412
vn 0.0390 -0.0776 -0.9962
vn -0.0000 -0.4412 -0.8974
vn -0.0000 -0.1035 -0.9946
vn 0.0396 -0.0367 -0.9985
vn -0.0000 -0.0489 -0.9988
vn 0.0396 -0.0122 -0.9991
vn 0.0482 0.0390 0.9981
vn -0.0000 0.1838 0.9830
vn 0.0796 0.3020 -0.9500
vn -0.0000 -0.0603 -0.9982
vn -0.0000 0.9168 0.3994
vn -0.0000 0.7740 0.6332
vn -0.0000 -0.6827 0.7307
vn 0.0442 -0.2514 0.9669
vn 0.0900 -0.2400 -0.9666
vn 0.0922 -0.6826 -0.7249
vn -0.0000 -0.8529 -0.5220
vn 0.0217 -0.2541 0.9669
vn 0.1025 -0.3007 -0.9482
vn 0.1944 -0.5702 -0.7982
vn -0.2825 -0.9568 -0.0690
vn -0.1745 -0.9620 -0.2100
vn -0.0444 -0.7003 0.7125
vn -0.1530 -0.8991 0.4102
vn -1.0000 -0.0000 -0.0000
vn -0.2915 0.9557 0.0415
vn -0.1497 0.8589 0.4897
vn -0.1137 -0.9935 -0.0000
vn 0.1986 -0.9801 -0.0000
vn -0.2013 0.8632 -0.4630
vn -0.0796 0.3021 -0.9500
vn -0.0749 0.0993 -0.9922
vn -0.1079 0.2155 -0.9705
vn 0.1137 0.9935 -0.0000
vn -0.3702 0.9289 -0.0127
vn -0.3563 0.9342 -0.0209
vn -0.0232 0.1322 0.9910
vn -0.0013 0.2193 0.9757
vn -0.5053 -0.8625 0.0275
vn -0.5200 -0.8541 0.0123
vn -0.2701 -0.9626 0.0214
vn -0.0240 0.3878 0.9214
vn -0.2756 0.9603 -0.0438
vn -0.1080 0.2155 -0.9705
vn 0.1249 -0.9922 -0.0000
vn -0.2149 -0.9766 -0.0000
vn -0.5299 -0.8481 -0.0000
vn 0.4149 -0.9099 -0.0000
vn -0.4174 -0.9087 -0.0000
vn 0.4543 -0.8908 -0.0000
vn 0.3084 -0.9512 -0.0000
vn 0.0108 -0.9999 -0.0000
vn 0.0508 -0.9987 -0.0000
vn 0.0664 -0.9978 -0.0000
vn -0.0063 -1.0000 -0.0000
vn -0.0897 -0.9960 -0.0000
vn -0.5649 0.8251 -0.0000
vn 0.5299 0.8481 -0.0000
vn -0.4149 0.9099 -0.0000
vn 0.4174 0.9087 -0.0000
vn -0.4543 0.8908 -0.0000
vn -0.3084 0.9512 -0.0000
vn -0.0108 0.9999 -0.0000
vn -0.0508 0.9987 -0.0000
vn -0.0664 0.9978 -0.0000
vn 0.0063 1.0000 -0.0000
vn 0.0897 0.9960 -0.0000
vn -0.0482 0.1171 0.9920
vn -0.0510 -0.1234 0.9910
vn -0.0571 -0.1808 0.9819
vn -0.0585 -0.5276 0.8475
vn -0.0500 -0.0408 0.9979
vn -0.0590 -0.1110 -0.9921
vn -0.0389 -0.0258 -0.9989
vn -0.0602 -0.3324 -0.9412
vn -0.0390 -0.0776 -0.9962
vn -0.0396 -0.0367 -0.9985
vn -0.0396 -0.0122 -0.9991
vn -0.0482 0.0390 0.9981
vn -0.0796 0.3020 -0.9500
vn -0.0443 -0.2516 0.9668
vn -0.0900 -0.2400 -0.9666
vn -0.0922 -0.6826 -0.7249
vn -0.0216 -0.2542 0.9669
vn -0.1025 -0.3007 -0.9482
vn -0.1944 -0.5703 -0.7981
vn -0.0000 -0.9996 0.0290
vn 0.2880 -0.9575 0.0183
vn 0.5515 -0.8341 0.0104
vn 0.3864 0.9223 0.0112
vn 0.3720 0.9278 0.0280
vn 0.2982 0.9543 -0.0180
vn -0.0000 0.9997 -0.0242
vn -0.2988 0.9542 -0.0179
vn -0.3851 0.9228 0.0128
vn -0.3689 0.9290 0.0309
vn -0.5527 -0.8333 0.0096
vn -0.2887 -0.9573 0.0178
vn -0.5399 -0.8406 -0.0431
vn -0.3926 0.9197 -0.0050
vn -0.0000 0.9982 -0.0592
vn 0.3920 0.9200 -0.0051
vn 0.5430 -0.8389 -0.0366
vn -0.0000 -0.9997 0.0245
vn -0.5063 -0.8555 -0.1082
vn 0.5157 -0.8513 -0.0968
vt 0.793487 0.370538
vt 0.791215 0.331608
vt 0.591192 0.331792
vt 0.589828 0.370968
vt 0.777830 0.102215
vt 0.789357 0.095855
vt 0.587453 0.096059
vt 0.599227 0.100950
vt 0.266826 0.481147
vt 0.266900 0.481147
vt 0.267213 0.422545
vt 0.267139 0.422544
vt 0.870483 0.407051
vt 0.870437 0.408315
vt 0.873382 0.410351
vt 0.873328 0.409933
vt 0.369724 0.422915
vt 0.369410 0.481517
vt 0.587825 0.481517
vt 0.587981 0.422915
vt 0.832431 0.147314
vt 0.833839 0.148627
vt 0.832423 0.082401
vt 0.831242 0.080268
vt 0.320197 0.714273
vt 0.368288 0.709364
vt 0.368273 0.694319
vt 0.320222 0.713974
vt 0.315345 0.654749
vt 0.311833 0.654737
vt 0.311623 0.694114
vt 0.315134 0.694127
vt 0.831158 0.073000
vt 0.833476 0.073561
vt 0.833488 0.073082
vt 0.830794 0.072500
vt 0.586546 0.709364
vt 0.587256 0.694319
vt 0.781210 0.160152
vt 0.789934 0.060913
vt 0.792028 0.046271
vt 0.368483 0.654941
vt 0.868821 0.410995
vt 0.867244 0.407980
vt 0.866843 0.408526
vt 0.868458 0.411464
vt 0.863467 0.408068
vt 0.863060 0.408595
vt 0.861673 0.405519
vt 0.861279 0.406009
vt 0.858303 0.404955
vt 0.857924 0.405394
vt 0.856667 0.402319
vt 0.856479 0.402785
vt 0.852958 0.403666
vt 0.852862 0.404157
vt 0.849971 0.402628
vt 0.849765 0.403133
vt 0.846269 0.403177
vt 0.846043 0.403661
vt 0.843529 0.401660
vt 0.843294 0.402164
vt 0.840101 0.401715
vt 0.839822 0.402216
vt 0.837789 0.399653
vt 0.837376 0.400171
vt 0.835034 0.399577
vt 0.834263 0.400070
vt 0.263357 0.481134
vt 0.263670 0.422532
vt 0.259299 0.481120
vt 0.259612 0.422517
vt 0.296766 0.326532
vt 0.292738 0.327729
vt 0.292738 0.393190
vt 0.296744 0.390805
vt 0.300690 0.326546
vt 0.300690 0.390712
vt 0.857654 0.150324
vt 0.861197 0.151259
vt 0.860153 0.084481
vt 0.856708 0.083434
vt 0.854297 0.150597
vt 0.853291 0.084196
vt 0.850892 0.150193
vt 0.849905 0.083491
vt 0.847599 0.150404
vt 0.846577 0.083985
vt 0.844152 0.149597
vt 0.843176 0.082912
vt 0.841005 0.149280
vt 0.839833 0.083040
vt 0.837673 0.148571
vt 0.836534 0.082102
vt 0.870212 0.071236
vt 0.873382 0.072989
vt 0.873382 0.072868
vt 0.870265 0.070767
vt 0.866602 0.073168
vt 0.866653 0.072675
vt 0.863402 0.071811
vt 0.863461 0.071330
vt 0.859875 0.073263
vt 0.859932 0.072767
vt 0.856704 0.071735
vt 0.856761 0.071255
vt 0.853189 0.073188
vt 0.853239 0.072694
vt 0.849941 0.072234
vt 0.849997 0.071751
vt 0.846488 0.073199
vt 0.846537 0.072706
vt 0.843272 0.071965
vt 0.843328 0.071484
vt 0.839843 0.072828
vt 0.839900 0.072338
vt 0.836670 0.072094
vt 0.836693 0.071618
vt 0.270722 0.654588
vt 0.266551 0.654573
vt 0.266340 0.693951
vt 0.270511 0.693966
vt 0.274780 0.654603
vt 0.274569 0.693981
vt 0.278562 0.654617
vt 0.278352 0.693994
vt 0.282350 0.654630
vt 0.282139 0.694008
vt 0.286213 0.654644
vt 0.286002 0.694022
vt 0.290000 0.654658
vt 0.289790 0.694036
vt 0.293618 0.654671
vt 0.293408 0.694049
vt 0.297212 0.654684
vt 0.297001 0.694062
vt 0.300939 0.654697
vt 0.300728 0.694075
vt 0.304501 0.654710
vt 0.304290 0.694088
vt 0.308051 0.654723
vt 0.307840 0.694101
vt 0.788801 0.081400
vt 0.788731 0.072386
vt 0.587435 0.072535
vt 0.587470 0.081540
vt 0.788465 0.091417
vt 0.831090 0.074944
vt 0.831060 0.074164
vt 0.833361 0.075823
vt 0.833476 0.074784
vt 0.836467 0.074535
vt 0.836517 0.073414
vt 0.839757 0.075326
vt 0.839740 0.074153
vt 0.843066 0.074541
vt 0.843114 0.073331
vt 0.846452 0.075781
vt 0.846428 0.074555
vt 0.849771 0.074856
vt 0.849775 0.073613
vt 0.853151 0.075806
vt 0.853126 0.074553
vt 0.856472 0.074426
vt 0.856545 0.073134
vt 0.859888 0.075915
vt 0.859836 0.074647
vt 0.863237 0.074538
vt 0.863252 0.073195
vt 0.866661 0.075369
vt 0.866548 0.074376
vt 0.870059 0.072781
vt 0.870093 0.072263
vt 0.873382 0.073268
vt 0.873367 0.073216
vt 0.267059 0.481148
vt 0.267180 0.481148
vt 0.267493 0.422546
vt 0.267372 0.422545
vt 0.869812 0.409679
vt 0.869223 0.410455
vt 0.872735 0.411199
vt 0.873118 0.410653
vt 0.870126 0.409099
vt 0.869218 0.405134
vt 0.868367 0.406347
vt 0.865485 0.404741
vt 0.864712 0.406197
vt 0.863452 0.402331
vt 0.862869 0.403676
vt 0.859789 0.402173
vt 0.859292 0.403477
vt 0.857410 0.400038
vt 0.857081 0.401244
vt 0.853703 0.401039
vt 0.853368 0.402263
vt 0.850795 0.399863
vt 0.850477 0.401051
vt 0.847082 0.400341
vt 0.846786 0.401702
vt 0.845154 0.397807
vt 0.844193 0.400029
vt 0.841773 0.397815
vt 0.840864 0.400011
vt 0.839019 0.396030
vt 0.838604 0.398101
vt 0.836608 0.396179
vt 0.836113 0.398161
vt 0.792942 0.385034
vt 0.793086 0.392192
vt 0.589895 0.384716
vt 0.589995 0.391489
vt 0.792647 0.400327
vt 0.589679 0.399865
vt 0.835816 0.398803
vt 0.838326 0.398864
vt 0.840519 0.400897
vt 0.843914 0.400853
vt 0.846549 0.402530
vt 0.850209 0.402002
vt 0.853166 0.403052
vt 0.856879 0.401768
vt 0.858695 0.404412
vt 0.862094 0.404960
vt 0.863961 0.407418
vt 0.867701 0.407366
vt 0.872635 0.411318
vt 0.267341 0.481149
vt 0.267654 0.422546
vt 0.870143 0.071806
vt 0.873382 0.073129
vt 0.866526 0.073758
vt 0.863332 0.072427
vt 0.859809 0.073869
vt 0.856631 0.072342
vt 0.853107 0.073791
vt 0.849871 0.072837
vt 0.846410 0.073801
vt 0.843204 0.072566
vt 0.839779 0.073424
vt 0.836603 0.072685
vt 0.833475 0.074129
vt 0.831089 0.073536
vt 0.587389 0.061109
vt 0.789673 0.411464
vt 0.587710 0.411464
vt 0.872503 0.411464
vt 0.267478 0.481149
vt 0.267791 0.422547
vt 0.587325 0.046271
vt 0.588371 0.091378
vt 0.830530 0.077528
vt 0.833322 0.078371
vt 0.836461 0.077635
vt 0.839799 0.078383
vt 0.843112 0.077947
vt 0.846503 0.079060
vt 0.849823 0.078360
vt 0.853216 0.079148
vt 0.856550 0.078064
vt 0.859988 0.079332
vt 0.863283 0.077873
vt 0.866674 0.077368
vt 0.869977 0.073390
vt 0.873294 0.073429
vt 0.266953 0.481147
vt 0.267266 0.422545
vt 0.873146 0.410535
vt 0.869623 0.403047
vt 0.866513 0.401260
vt 0.864454 0.398844
vt 0.860760 0.398490
vt 0.857973 0.396728
vt 0.854501 0.397540
vt 0.851315 0.396549
vt 0.847664 0.396849
vt 0.845224 0.394611
vt 0.841727 0.394709
vt 0.838964 0.393311
vt 0.836202 0.394509
vt 0.792185 0.378396
vt 0.590705 0.378016
vt 0.863828 0.084393
vt 0.867513 0.081924
vt 0.870024 0.074356
vt 0.873382 0.073788
vt 0.873382 0.397774
vt 0.869016 0.394203
vt 0.864988 0.393746
vt 0.861088 0.393223
vt 0.857948 0.391719
vt 0.854475 0.392405
vt 0.851312 0.391591
vt 0.847694 0.391749
vt 0.845260 0.389816
vt 0.841809 0.389939
vt 0.838979 0.389113
vt 0.836750 0.390777
vt 0.386010 0.331711
vt 0.386264 0.370661
vt 0.385651 0.095786
vt 0.384512 0.102200
vt 0.908750 0.422915
vt 0.908750 0.481517
vt 0.908824 0.481517
vt 0.908824 0.422915
vt 0.301447 0.406707
vt 0.304886 0.406979
vt 0.305133 0.405614
vt 0.301447 0.406430
vt 0.806239 0.481517
vt 0.806239 0.422915
vt 0.341520 0.083103
vt 0.341283 0.151048
vt 0.344231 0.149517
vt 0.344737 0.080795
vt 0.806239 0.694319
vt 0.804804 0.709364
vt 0.851241 0.714273
vt 0.851266 0.713974
vt 0.862890 0.694319
vt 0.862890 0.654941
vt 0.859378 0.654941
vt 0.859378 0.694319
vt 0.341457 0.073798
vt 0.341387 0.074293
vt 0.343782 0.073675
vt 0.344158 0.073146
vt 0.384890 0.160167
vt 0.384802 0.060916
vt 0.382875 0.046271
vt 0.806239 0.654941
vt 0.308031 0.409539
vt 0.308052 0.409000
vt 0.304689 0.410940
vt 0.304676 0.411464
vt 0.311254 0.411032
vt 0.311273 0.410492
vt 0.314573 0.409633
vt 0.314594 0.409086
vt 0.317782 0.411307
vt 0.317804 0.410765
vt 0.321100 0.409899
vt 0.321123 0.409352
vt 0.324329 0.410984
vt 0.324351 0.410440
vt 0.327630 0.410079
vt 0.327651 0.409531
vt 0.330846 0.411464
vt 0.330867 0.410918
vt 0.334144 0.410634
vt 0.334162 0.410084
vt 0.337365 0.411464
vt 0.337353 0.410911
vt 0.340991 0.408796
vt 0.340780 0.408321
vt 0.344273 0.408078
vt 0.343733 0.407696
vt 0.912293 0.481517
vt 0.912293 0.422915
vt 0.916351 0.481517
vt 0.916351 0.422915
vt 0.310278 0.393190
vt 0.310278 0.327729
vt 0.306204 0.326518
vt 0.306239 0.390907
vt 0.302257 0.326425
vt 0.302257 0.390713
vt 0.314824 0.084323
vt 0.314630 0.151676
vt 0.318153 0.151248
vt 0.318256 0.083485
vt 0.321522 0.151784
vt 0.321690 0.084375
vt 0.324923 0.151405
vt 0.325051 0.083637
vt 0.328204 0.151736
vt 0.328388 0.084170
vt 0.331632 0.151247
vt 0.331766 0.083239
vt 0.334902 0.151515
vt 0.335087 0.083669
vt 0.338225 0.151082
vt 0.338404 0.082874
vt 0.301447 0.072877
vt 0.301447 0.072991
vt 0.304622 0.071336
vt 0.304566 0.070874
vt 0.308272 0.073376
vt 0.308204 0.072888
vt 0.311456 0.072066
vt 0.311395 0.071589
vt 0.315012 0.073594
vt 0.314943 0.073101
vt 0.318169 0.072107
vt 0.318109 0.071629
vt 0.321719 0.073642
vt 0.321652 0.073149
vt 0.324950 0.072732
vt 0.324891 0.072249
vt 0.328424 0.073777
vt 0.328370 0.073283
vt 0.331631 0.072578
vt 0.331573 0.072095
vt 0.335081 0.073520
vt 0.335016 0.073027
vt 0.338249 0.072823
vt 0.338228 0.072343
vt 0.908172 0.694319
vt 0.908172 0.654941
vt 0.904001 0.654941
vt 0.904001 0.694319
vt 0.899943 0.654941
vt 0.899943 0.694319
vt 0.896160 0.654941
vt 0.896161 0.694319
vt 0.892373 0.654941
vt 0.892373 0.694319
vt 0.888510 0.654941
vt 0.888510 0.694319
vt 0.884723 0.654941
vt 0.884723 0.694319
vt 0.881105 0.654941
vt 0.881105 0.694319
vt 0.877511 0.654941
vt 0.877511 0.694319
vt 0.873784 0.654941
vt 0.873784 0.694319
vt 0.870222 0.654941
vt 0.870222 0.694319
vt 0.866672 0.654941
vt 0.866672 0.694319
vt 0.386060 0.072397
vt 0.386238 0.081410
vt 0.343758 0.075548
vt 0.385747 0.091425
vt 0.343724 0.074801
vt 0.341392 0.076523
vt 0.341355 0.075484
vt 0.338352 0.075248
vt 0.338355 0.074120
vt 0.335090 0.075989
vt 0.335092 0.074819
vt 0.331768 0.075094
vt 0.331773 0.073902
vt 0.328405 0.076282
vt 0.328411 0.075087
vt 0.325069 0.075278
vt 0.325075 0.074063
vt 0.321707 0.076191
vt 0.321714 0.074964
vt 0.318360 0.074721
vt 0.318345 0.073459
vt 0.314972 0.076147
vt 0.315005 0.074921
vt 0.311600 0.074681
vt 0.311617 0.073388
vt 0.308196 0.075475
vt 0.308290 0.074529
vt 0.304778 0.072828
vt 0.304740 0.072316
vt 0.301447 0.073212
vt 0.301462 0.073161
vt 0.908470 0.422915
vt 0.908470 0.481517
vt 0.908591 0.481517
vt 0.908591 0.422915
vt 0.301447 0.408780
vt 0.304717 0.410086
vt 0.304745 0.409378
vt 0.301447 0.408541
vt 0.307553 0.405124
vt 0.304726 0.407671
vt 0.308034 0.407383
vt 0.311261 0.406055
vt 0.311353 0.408573
vt 0.314373 0.404932
vt 0.314616 0.407306
vt 0.318059 0.406451
vt 0.317962 0.408843
vt 0.321062 0.405225
vt 0.321195 0.407577
vt 0.324564 0.406217
vt 0.324474 0.408557
vt 0.327648 0.405440
vt 0.327710 0.407763
vt 0.331206 0.406716
vt 0.331021 0.409036
vt 0.334296 0.406015
vt 0.334255 0.408314
vt 0.337606 0.406784
vt 0.337474 0.409057
vt 0.340389 0.404773
vt 0.340677 0.406819
vt 0.342876 0.404437
vt 0.343292 0.406375
vt 0.386565 0.385089
vt 0.386489 0.392268
vt 0.386420 0.400408
vt 0.343315 0.407012
vt 0.340596 0.407578
vt 0.337364 0.410005
vt 0.334196 0.409181
vt 0.330909 0.410015
vt 0.327670 0.408628
vt 0.324394 0.409540
vt 0.321122 0.408451
vt 0.317845 0.409864
vt 0.314573 0.408184
vt 0.311301 0.409575
vt 0.307998 0.408108
vt 0.301447 0.409105
vt 0.908309 0.422915
vt 0.908309 0.481517
vt 0.304693 0.071904
vt 0.301463 0.073118
vt 0.308305 0.073964
vt 0.311529 0.072679
vt 0.315019 0.074200
vt 0.318245 0.072715
vt 0.321719 0.074249
vt 0.325029 0.073339
vt 0.328418 0.074385
vt 0.331706 0.073186
vt 0.335097 0.074127
vt 0.338323 0.073426
vt 0.341357 0.074872
vt 0.343767 0.074224
vt 0.385481 0.411464
vt 0.301453 0.409247
vt 0.908172 0.422915
vt 0.908172 0.481517
vt 0.343733 0.078096
vt 0.341472 0.079051
vt 0.338358 0.078363
vt 0.335086 0.079041
vt 0.331762 0.078384
vt 0.328396 0.079418
vt 0.325060 0.078652
vt 0.321691 0.079445
vt 0.318335 0.078261
vt 0.314916 0.079386
vt 0.311596 0.077831
vt 0.308203 0.077349
vt 0.304858 0.073393
vt 0.301534 0.073369
vt 0.908697 0.481517
vt 0.908697 0.422915
vt 0.301447 0.407035
vt 0.307608 0.403080
vt 0.311147 0.402739
vt 0.314253 0.401456
vt 0.317999 0.402794
vt 0.320997 0.401749
vt 0.324533 0.402722
vt 0.327602 0.402089
vt 0.331188 0.403310
vt 0.334267 0.402759
vt 0.337682 0.403640
vt 0.340384 0.402028
vt 0.343312 0.402664
vt 0.386355 0.378516
vt 0.311150 0.084023
vt 0.307438 0.081542
vt 0.304823 0.074354
vt 0.301447 0.073699
vt 0.305472 0.397543
vt 0.309909 0.395685
vt 0.313925 0.396253
vt 0.317780 0.397312
vt 0.320913 0.396566
vt 0.324456 0.397486
vt 0.327538 0.397087
vt 0.331147 0.398202
vt 0.334231 0.397884
vt 0.337576 0.398764
vt 0.340426 0.397775
vt 0.342394 0.399066
vt 0.597197 0.159254
vt 0.785877 0.240134
vt 0.834073 0.239870
vt 0.835793 0.240052
vt 0.839246 0.240331
vt 0.842623 0.240723
vt 0.845498 0.241654
vt 0.849011 0.242095
vt 0.852254 0.242273
vt 0.855685 0.242264
vt 0.858959 0.242666
vt 0.862638 0.243444
vt 0.300690 0.237966
vt 0.296797 0.237804
vt 0.292738 0.237362
vt 0.258866 0.562019
vt 0.262925 0.562034
vt 0.266393 0.562047
vt 0.266468 0.562047
vt 0.266521 0.562047
vt 0.266626 0.562047
vt 0.266748 0.562048
vt 0.266909 0.562048
vt 0.267045 0.562049
vt 0.271649 0.481164
vt 0.271962 0.422562
vt 0.275707 0.481179
vt 0.276020 0.422577
vt 0.279489 0.481193
vt 0.279802 0.422590
vt 0.283276 0.481206
vt 0.283590 0.422604
vt 0.287140 0.481220
vt 0.287453 0.422618
vt 0.290927 0.481234
vt 0.291240 0.422631
vt 0.294545 0.481247
vt 0.294858 0.422644
vt 0.298139 0.481260
vt 0.298452 0.422657
vt 0.301865 0.481273
vt 0.302179 0.422671
vt 0.305427 0.481286
vt 0.305741 0.422684
vt 0.308978 0.481299
vt 0.309291 0.422697
vt 0.312760 0.481313
vt 0.313073 0.422710
vt 0.316272 0.481325
vt 0.316585 0.422723
vt 0.368978 0.562417
vt 0.587609 0.562417
vt 0.806239 0.562417
vt 0.859378 0.481517
vt 0.859378 0.422915
vt 0.862890 0.481517
vt 0.862890 0.422915
vt 0.866672 0.481517
vt 0.866672 0.422915
vt 0.870222 0.481517
vt 0.870222 0.422915
vt 0.873784 0.481517
vt 0.873784 0.422915
vt 0.877511 0.481517
vt 0.877511 0.422915
vt 0.881105 0.481517
vt 0.881105 0.422915
vt 0.884723 0.481517
vt 0.884723 0.422915
vt 0.888510 0.481517
vt 0.888510 0.422915
vt 0.892373 0.481517
vt 0.892373 0.422915
vt 0.896160 0.481517
vt 0.896161 0.422915
vt 0.899943 0.481517
vt 0.899943 0.422915
vt 0.904001 0.481517
vt 0.904001 0.422915
vt 0.908172 0.562417
vt 0.908309 0.562417
vt 0.908470 0.562417
vt 0.908591 0.562417
vt 0.908697 0.562417
vt 0.908750 0.562417
vt 0.908824 0.562417
vt 0.912293 0.562417
vt 0.916351 0.562417
vt 0.310278 0.237362
vt 0.306155 0.237631
vt 0.302257 0.237677
vt 0.314362 0.244656
vt 0.318011 0.244793
vt 0.321290 0.244842
vt 0.324745 0.244956
vt 0.327951 0.245010
vt 0.331448 0.245131
vt 0.334647 0.245176
vt 0.337979 0.245242
vt 0.340957 0.244845
vt 0.343533 0.244387
vt 0.385412 0.240189
vt 0.342734 0.352889
vt 0.340585 0.352120
vt 0.337696 0.352932
vt 0.334356 0.352295
vt 0.331237 0.352505
vt 0.327662 0.351687
vt 0.324543 0.351950
vt 0.321025 0.351271
vt 0.317849 0.351780
vt 0.314056 0.350996
vt 0.306099 0.135971
vt 0.302257 0.136176
vt 0.310278 0.134009
vt 0.912293 0.654941
vt 0.916351 0.654941
vt 0.908824 0.654941
vt 0.908750 0.654941
vt 0.908697 0.654941
vt 0.908591 0.654941
vt 0.908470 0.654941
vt 0.908309 0.654941
vt 0.904001 0.562417
vt 0.899943 0.562417
vt 0.896160 0.562417
vt 0.892373 0.562417
vt 0.888510 0.562417
vt 0.884723 0.562417
vt 0.881105 0.562417
vt 0.877511 0.562417
vt 0.873784 0.562417
vt 0.870222 0.562417
vt 0.866672 0.562417
vt 0.862890 0.562417
vt 0.859378 0.562417
vt 0.587361 0.654941
vt 0.315839 0.562225
vt 0.312328 0.562212
vt 0.308545 0.562199
vt 0.304995 0.562186
vt 0.301433 0.562173
vt 0.297706 0.562160
vt 0.294113 0.562147
vt 0.290495 0.562134
vt 0.286707 0.562120
vt 0.282844 0.562106
vt 0.279057 0.562092
vt 0.275274 0.562079
vt 0.271216 0.562064
vt 0.266414 0.654573
vt 0.266253 0.654572
vt 0.266132 0.654572
vt 0.266026 0.654571
vt 0.265973 0.654571
vt 0.265899 0.654571
vt 0.262430 0.654558
vt 0.258372 0.654544
vt 0.296833 0.136326
vt 0.292738 0.134009
vt 0.300690 0.136657
vt 0.860452 0.348276
vt 0.864287 0.348876
vt 0.857272 0.347101
vt 0.853812 0.347585
vt 0.850625 0.346961
vt 0.847039 0.346940
vt 0.844473 0.345306
vt 0.841044 0.345275
vt 0.838028 0.344613
vt 0.835951 0.345726
vt 0.594396 0.239740
vt 0.306076 0.092706
vt 0.302257 0.092978
vt 0.310278 0.090024
vt 0.912293 0.694319
vt 0.916351 0.694319
vt 0.908824 0.694319
vt 0.908750 0.694319
vt 0.908697 0.694319
vt 0.908591 0.694319
vt 0.908470 0.694319
vt 0.908309 0.694319
vt 0.266204 0.693950
vt 0.266043 0.693950
vt 0.265921 0.693949
vt 0.265816 0.693949
vt 0.265763 0.693949
vt 0.265688 0.693949
vt 0.262220 0.693936
vt 0.258162 0.693921
vt 0.296848 0.093138
vt 0.292738 0.090024
vt 0.300690 0.093541
s 1
usemtl material.002
f 1/1/1 2/2/2 3/3/3
f 1/1/1 3/3/3 4/4/4
f 5/5/5 6/6/6 7/7/7
f 5/5/5 7/7/7 8/8/8
s 0
f 9/9/9 10/10/9 11/11/9
f 9/9/9 11/11/9 12/12/9
f 13/13/10 14/14/10 15/15/10
f 13/13/10 15/15/10 16/16/10
s 1
f 17/17/11 18/18/12 19/19/13
f 17/17/11 19/19/13 20/20/14
f 21/21/15 22/22/16 23/23/16
f 21/21/15 23/23/16 24/24/15
f 25/25/17 26/26/18 27/27/19
f 25/25/17 27/27/19 28/28/20
f 29/29/21 30/30/22 31/31/22
f 29/29/21 31/31/22 32/32/23
f 33/33/24 34/34/25 35/35/25
f 33/33/24 35/35/25 36/36/26
f 26/26/18 37/37/27 38/38/28
f 26/26/18 38/38/28 27/27/19
f 39/39/29 40/21/30 41/24/31
f 39/39/29 41/24/31 5/5/5
f 42/40/32 33/33/24 36/36/26
f 42/40/32 36/36/26 43/41/33
f 44/42/34 29/29/21 32/32/23
f 44/42/34 32/32/23 27/27/19
s 0
f 45/43/10 46/44/10 47/45/10
f 45/43/10 47/45/10 48/46/10
f 46/44/10 49/47/10 50/48/10
f 46/44/10 50/48/10 47/45/10
f 49/47/10 51/49/10 52/50/10
f 49/47/10 52/50/10 50/48/10
f 51/49/10 53/51/10 54/52/10
f 51/49/10 54/52/10 52/50/10
f 53/51/10 55/53/10 56/54/10
f 53/51/10 56/54/10 54/52/10
f 55/53/10 57/55/10 58/56/10
f 55/53/10 58/56/10 56/54/10
f 57/55/10 59/57/10 60/58/10
f 57/55/10 60/58/10 58/56/10
f 59/57/10 61/59/10 62/60/10
f 59/57/10 62/60/10 60/58/10
f 61/59/10 63/61/10 64/62/10
f 61/59/10 64/62/10 62/60/10
f 63/61/10 65/63/10 66/64/10
f 63/61/10 66/64/10 64/62/10
f 65/63/10 67/65/10 68/66/10
f 65/63/10 68/66/10 66/64/10
s 1
f 67/65/10 69/67/17 70/68/35
f 67/65/10 70/68/35 68/66/10
f 71/69/36 72/9/37 73/12/37
f 71/69/36 73/12/37 74/70/36
f 75/71/38 71/69/36 74/70/36
f 75/71/38 74/70/36 76/72/38
s 0
f 77/73/39 78/74/39 79/75/39
f 77/73/39 79/75/39 80/76/39
f 81/77/40 82/73/40 83/76/40
f 81/77/40 83/76/40 84/78/40
f 85/79/41 86/80/41 87/81/41
f 85/79/41 87/81/41 88/82/41
f 89/83/40 90/79/40 91/82/40
f 89/83/40 91/82/40 92/84/40
s 1
f 93/85/42 94/83/43 95/84/43
f 93/85/42 95/84/43 96/86/42
f 97/87/44 93/85/42 96/86/42
f 97/87/44 96/86/42 98/88/44
f 99/89/45 97/87/44 98/88/44
f 99/89/45 98/88/44 100/90/45
f 101/91/46 99/89/45 100/90/45
f 101/91/46 100/90/45 102/92/46
f 103/93/47 101/91/46 102/92/46
f 103/93/47 102/92/46 104/94/47
f 22/22/16 103/93/47 104/94/47
f 22/22/16 104/94/47 23/23/16
s 0
f 105/95/25 106/96/25 107/97/25
f 105/95/25 107/97/25 108/98/25
f 109/99/25 105/95/25 108/98/25
f 109/99/25 108/98/25 110/100/25
f 111/101/25 109/99/25 110/100/25
f 111/101/25 110/100/25 112/102/25
f 113/103/25 111/101/25 112/102/25
f 113/103/25 112/102/25 114/104/25
f 115/105/25 113/103/25 114/104/25
f 115/105/25 114/104/25 116/106/25
f 117/107/25 115/105/25 116/106/25
f 117/107/25 116/106/25 118/108/25
f 119/109/25 117/107/25 118/108/25
f 119/109/25 118/108/25 120/110/25
f 121/111/25 119/109/25 120/110/25
f 121/111/25 120/110/25 122/112/25
f 123/113/25 121/111/25 122/112/25
f 123/113/25 122/112/25 124/114/25
f 125/115/25 123/113/25 124/114/25
f 125/115/25 124/114/25 126/116/25
f 127/117/25 125/115/25 126/116/25
f 127/117/25 126/116/25 128/118/25
f 34/34/25 127/117/25 128/118/25
f 34/34/25 128/118/25 35/35/25
f 129/119/48 130/120/48 131/121/48
f 129/119/48 131/121/48 132/122/48
f 133/123/49 134/119/49 135/122/49
s 1
f 133/123/49 135/122/49 136/124/49
s 0
f 137/125/50 138/123/50 139/124/50
f 137/125/50 139/124/50 140/126/50
f 141/127/51 142/125/51 143/126/51
f 141/127/51 143/126/51 144/128/51
f 145/129/52 146/127/52 147/128/52
f 145/129/52 147/128/52 148/130/52
f 149/131/51 150/129/51 151/130/51
f 149/131/51 151/130/51 152/132/51
s 1
f 153/133/53 154/131/54 155/132/54
f 153/133/53 155/132/54 156/134/53
f 157/135/55 153/133/53 156/134/53
f 157/135/55 156/134/53 158/136/55
f 159/137/56 157/135/55 158/136/55
f 159/137/56 158/136/55 160/138/56
f 161/139/57 159/137/56 160/138/56
f 161/139/57 160/138/56 162/140/57
f 163/141/58 161/139/57 162/140/57
f 163/141/58 162/140/57 164/142/58
f 30/30/22 163/141/58 164/142/58
f 30/30/22 164/142/58 31/31/22
f 165/143/59 166/144/60 167/145/61
f 165/143/59 167/145/61 168/146/62
f 165/143/59 169/147/63 170/148/64
f 165/143/59 170/148/64 171/149/65
f 171/149/65 170/148/64 172/150/25
f 171/149/65 172/150/25 173/151/25
s 0
f 173/151/25 172/150/25 174/152/25
f 173/151/25 174/152/25 175/153/25
f 175/153/25 174/152/25 176/154/25
f 175/153/25 176/154/25 177/155/25
f 177/155/25 176/154/25 178/156/25
f 177/155/25 178/156/25 179/157/25
f 179/157/25 178/156/25 180/158/25
f 179/157/25 180/158/25 181/159/25
f 181/159/25 180/158/25 182/160/25
f 181/159/25 182/160/25 183/161/25
f 183/161/25 182/160/25 184/162/25
f 183/161/25 184/162/25 185/163/25
f 185/163/25 184/162/25 186/164/25
f 185/163/25 186/164/25 187/165/25
f 187/165/25 186/164/25 188/166/25
f 187/165/25 188/166/25 189/167/25
f 189/167/25 188/166/25 190/168/25
f 189/167/25 190/168/25 191/169/25
f 191/169/25 190/168/25 192/170/25
f 191/169/25 192/170/25 193/171/25
f 193/171/25 192/170/25 194/172/25
f 193/171/25 194/172/25 195/173/25
f 195/173/25 194/172/25 196/174/25
f 195/173/25 196/174/25 197/175/25
f 198/176/9 199/177/9 200/178/9
f 198/176/9 200/178/9 201/179/9
f 202/180/10 203/181/10 204/182/10
f 202/180/10 204/182/10 205/183/10
f 202/180/10 206/184/10 207/185/10
f 202/180/10 207/185/10 208/186/10
f 208/186/10 207/185/10 209/187/10
f 208/186/10 209/187/10 210/188/10
f 210/188/10 209/187/10 211/189/10
f 210/188/10 211/189/10 212/190/10
f 212/190/10 211/189/10 213/191/10
f 212/190/10 213/191/10 214/192/10
f 214/192/10 213/191/10 215/193/10
f 214/192/10 215/193/10 216/194/10
f 216/194/10 215/193/10 217/195/10
f 216/194/10 217/195/10 218/196/10
f 218/196/10 217/195/10 219/197/10
f 218/196/10 219/197/10 220/198/10
f 220/198/10 219/197/10 221/199/10
f 220/198/10 221/199/10 222/200/10
f 222/200/10 221/199/10 223/201/10
f 222/200/10 223/201/10 224/202/10
f 224/202/10 223/201/10 225/203/10
f 224/202/10 225/203/10 226/204/10
f 226/204/10 225/203/10 227/205/10
f 226/204/10 227/205/10 228/206/10
s 1
f 228/206/10 227/205/10 229/207/66
f 228/206/10 229/207/66 230/208/67
f 230/208/67 229/207/66 231/209/68
f 230/208/67 231/209/68 232/210/69
f 232/210/69 231/209/68 233/211/70
f 232/210/69 233/211/70 234/212/71
f 235/213/72 232/210/69 234/212/71
f 235/213/72 234/212/71 236/214/73
f 237/215/74 230/208/67 232/210/69
f 237/215/74 232/210/69 235/213/72
f 238/216/10 228/206/10 230/208/67
f 238/216/10 230/208/67 237/215/74
s 0
f 239/217/10 226/204/10 228/206/10
f 239/217/10 228/206/10 238/216/10
f 240/218/10 224/202/10 226/204/10
f 240/218/10 226/204/10 239/217/10
f 241/219/10 222/200/10 224/202/10
f 241/219/10 224/202/10 240/218/10
f 242/220/10 220/198/10 222/200/10
f 242/220/10 222/200/10 241/219/10
f 243/221/10 218/196/10 220/198/10
f 243/221/10 220/198/10 242/220/10
f 244/222/10 216/194/10 218/196/10
f 244/222/10 218/196/10 243/221/10
f 245/223/10 214/192/10 216/194/10
f 245/223/10 216/194/10 244/222/10
f 246/224/10 212/190/10 214/192/10
f 246/224/10 214/192/10 245/223/10
f 247/225/10 210/188/10 212/190/10
f 247/225/10 212/190/10 246/224/10
f 248/226/10 208/186/10 210/188/10
f 248/226/10 210/188/10 247/225/10
f 203/181/10 202/180/10 208/186/10
f 203/181/10 208/186/10 248/226/10
f 203/181/10 45/43/10 249/227/10
f 203/181/10 249/227/10 204/182/10
f 199/177/9 250/228/9 251/229/9
f 199/177/9 251/229/9 200/178/9
f 252/230/25 195/173/25 197/175/25
f 252/230/25 197/175/25 253/231/25
f 254/232/25 193/171/25 195/173/25
f 254/232/25 195/173/25 252/230/25
f 255/233/25 191/169/25 193/171/25
f 255/233/25 193/171/25 254/232/25
f 256/234/25 189/167/25 191/169/25
f 256/234/25 191/169/25 255/233/25
f 257/235/25 187/165/25 189/167/25
f 257/235/25 189/167/25 256/234/25
f 258/236/25 185/163/25 187/165/25
f 258/236/25 187/165/25 257/235/25
f 259/237/25 183/161/25 185/163/25
f 259/237/25 185/163/25 258/236/25
f 260/238/25 181/159/25 183/161/25
f 260/238/25 183/161/25 259/237/25
f 261/239/25 179/157/25 181/159/25
f 261/239/25 181/159/25 260/238/25
f 262/240/25 177/155/25 179/157/25
f 262/240/25 179/157/25 261/239/25
f 263/241/25 175/153/25 177/155/25
f 263/241/25 177/155/25 262/240/25
f 264/242/25 173/151/25 175/153/25
f 264/242/25 175/153/25 263/241/25
s 1
f 265/243/75 171/149/65 173/151/25
f 265/243/75 173/151/25 264/242/25
f 166/144/60 165/143/59 171/149/65
f 166/144/60 171/149/65 265/243/75
f 166/144/60 42/40/32 266/244/76
f 166/144/60 266/244/76 167/145/61
f 267/245/77 235/213/72 236/214/73
f 267/245/77 236/214/73 268/246/78
f 69/67/17 237/215/74 235/213/72
f 69/67/17 235/213/72 267/245/77
f 67/65/10 238/216/10 237/215/74
f 67/65/10 237/215/74 69/67/17
s 0
f 65/63/10 239/217/10 238/216/10
f 65/63/10 238/216/10 67/65/10
f 63/61/10 240/218/10 239/217/10
f 63/61/10 239/217/10 65/63/10
f 61/59/10 241/219/10 240/218/10
f 61/59/10 240/218/10 63/61/10
f 59/57/10 242/220/10 241/219/10
f 59/57/10 241/219/10 61/59/10
f 57/55/10 243/221/10 242/220/10
f 57/55/10 242/220/10 59/57/10
f 55/53/10 244/222/10 243/221/10
f 55/53/10 243/221/10 57/55/10
f 53/51/10 245/223/10 244/222/10
f 53/51/10 244/222/10 55/53/10
f 51/49/10 246/224/10 245/223/10
f 51/49/10 245/223/10 53/51/10
f 49/47/10 247/225/10 246/224/10
f 49/47/10 246/224/10 51/49/10
f 46/44/10 248/226/10 247/225/10
f 46/44/10 247/225/10 49/47/10
f 45/43/10 203/181/10 248/226/10
f 45/43/10 248/226/10 46/44/10
f 45/43/10 48/46/10 269/247/10
f 45/43/10 269/247/10 249/227/10
f 250/228/9 270/248/9 271/249/9
f 250/228/9 271/249/9 251/229/9
f 105/95/25 252/230/25 253/231/25
f 105/95/25 253/231/25 106/96/25
f 109/99/25 254/232/25 252/230/25
f 109/99/25 252/230/25 105/95/25
f 111/101/25 255/233/25 254/232/25
f 111/101/25 254/232/25 109/99/25
f 113/103/25 256/234/25 255/233/25
f 113/103/25 255/233/25 111/101/25
f 115/105/25 257/235/25 256/234/25
f 115/105/25 256/234/25 113/103/25
f 117/107/25 258/236/25 257/235/25
f 117/107/25 257/235/25 115/105/25
f 119/109/25 259/237/25 258/236/25
f 119/109/25 258/236/25 117/107/25
f 121/111/25 260/238/25 259/237/25
f 121/111/25 259/237/25 119/109/25
f 123/113/25 261/239/25 260/238/25
f 123/113/25 260/238/25 121/111/25
f 125/115/25 262/240/25 261/239/25
f 125/115/25 261/239/25 123/113/25
f 127/117/25 263/241/25 262/240/25
f 127/117/25 262/240/25 125/115/25
f 34/34/25 264/242/25 263/241/25
f 34/34/25 263/241/25 127/117/25
s 1
f 33/33/24 265/243/75 264/242/25
f 33/33/24 264/242/25 34/34/25
f 42/40/32 166/144/60 265/243/75
f 42/40/32 265/243/75 33/33/24
f 42/40/32 43/41/33 272/250/79
f 42/40/32 272/250/79 273/244/80
f 169/147/63 165/143/59 168/146/62
f 169/147/63 168/146/62 274/251/81
f 169/147/63 6/6/6 275/252/82
f 169/147/63 275/252/82 170/148/64
f 170/148/64 275/252/82 276/253/25
f 170/148/64 276/253/25 172/150/25
s 0
f 172/150/25 276/253/25 277/254/25
f 172/150/25 277/254/25 174/152/25
f 174/152/25 277/254/25 278/255/25
f 174/152/25 278/255/25 176/154/25
f 176/154/25 278/255/25 279/256/25
f 176/154/25 279/256/25 178/156/25
f 178/156/25 279/256/25 280/257/25
f 178/156/25 280/257/25 180/158/25
f 180/158/25 280/257/25 281/258/25
f 180/158/25 281/258/25 182/160/25
f 182/160/25 281/258/25 282/259/25
f 182/160/25 282/259/25 184/162/25
f 184/162/25 282/259/25 283/260/25
f 184/162/25 283/260/25 186/164/25
f 186/164/25 283/260/25 284/261/25
f 186/164/25 284/261/25 188/166/25
f 188/166/25 284/261/25 285/262/25
f 188/166/25 285/262/25 190/168/25
f 190/168/25 285/262/25 286/263/25
f 190/168/25 286/263/25 192/170/25
f 192/170/25 286/263/25 287/264/25
f 192/170/25 287/264/25 194/172/25
f 194/172/25 287/264/25 288/265/25
f 194/172/25 288/265/25 196/174/25
f 289/266/9 198/176/9 201/179/9
f 289/266/9 201/179/9 290/267/9
f 206/184/10 202/180/10 205/183/10
f 206/184/10 205/183/10 291/268/10
f 206/184/10 14/14/10 292/269/10
f 206/184/10 292/269/10 207/185/10
f 207/185/10 292/269/10 293/270/10
f 207/185/10 293/270/10 209/187/10
f 209/187/10 293/270/10 294/271/10
f 209/187/10 294/271/10 211/189/10
f 211/189/10 294/271/10 295/272/10
f 211/189/10 295/272/10 213/191/10
f 213/191/10 295/272/10 296/273/10
f 213/191/10 296/273/10 215/193/10
f 215/193/10 296/273/10 297/274/10
f 215/193/10 297/274/10 217/195/10
f 217/195/10 297/274/10 298/275/10
f 217/195/10 298/275/10 219/197/10
f 219/197/10 298/275/10 299/276/10
f 219/197/10 299/276/10 221/199/10
f 221/199/10 299/276/10 300/277/10
f 221/199/10 300/277/10 223/201/10
f 223/201/10 300/277/10 301/278/10
f 223/201/10 301/278/10 225/203/10
f 225/203/10 301/278/10 302/279/10
f 225/203/10 302/279/10 227/205/10
s 1
f 227/205/10 302/279/10 303/280/83
f 227/205/10 303/280/83 229/207/66
f 229/207/66 303/280/83 304/281/84
f 229/207/66 304/281/84 231/209/68
f 231/209/68 304/281/84 305/282/85
f 231/209/68 305/282/85 233/211/70
f 6/6/6 169/147/63 274/251/81
f 6/6/6 274/251/81 7/7/7
f 6/6/6 5/5/5 306/24/86
f 6/6/6 306/24/86 275/252/82
f 275/252/82 306/24/86 307/23/25
f 275/252/82 307/23/25 276/253/25
s 0
f 276/253/25 307/23/25 308/94/25
f 276/253/25 308/94/25 277/254/25
f 277/254/25 308/94/25 309/92/25
f 277/254/25 309/92/25 278/255/25
f 278/255/25 309/92/25 310/90/25
f 278/255/25 310/90/25 279/256/25
f 279/256/25 310/90/25 311/88/25
f 279/256/25 311/88/25 280/257/25
f 280/257/25 311/88/25 312/86/25
f 280/257/25 312/86/25 281/258/25
f 281/258/25 312/86/25 313/84/25
f 281/258/25 313/84/25 282/259/25
f 282/259/25 313/84/25 314/82/25
f 282/259/25 314/82/25 283/260/25
f 283/260/25 314/82/25 315/81/25
f 283/260/25 315/81/25 284/261/25
f 284/261/25 315/81/25 316/283/25
f 284/261/25 316/283/25 285/262/25
f 285/262/25 316/283/25 317/284/25
f 285/262/25 317/284/25 286/263/25
f 286/263/25 317/284/25 318/285/25
f 286/263/25 318/285/25 287/264/25
f 287/264/25 318/285/25 319/286/25
f 287/264/25 319/286/25 288/265/25
f 10/10/9 289/266/9 290/267/9
f 10/10/9 290/267/9 11/11/9
f 14/14/10 206/184/10 291/268/10
f 14/14/10 291/268/10 15/15/10
f 14/14/10 13/13/10 320/287/10
f 14/14/10 320/287/10 292/269/10
f 292/269/10 320/287/10 321/288/10
f 292/269/10 321/288/10 293/270/10
f 293/270/10 321/288/10 322/289/10
f 293/270/10 322/289/10 294/271/10
f 294/271/10 322/289/10 323/290/10
f 294/271/10 323/290/10 295/272/10
f 295/272/10 323/290/10 324/291/10
f 295/272/10 324/291/10 296/273/10
f 296/273/10 324/291/10 325/292/10
f 296/273/10 325/292/10 297/274/10
f 297/274/10 325/292/10 326/293/10
f 297/274/10 326/293/10 298/275/10
f 298/275/10 326/293/10 327/294/10
f 298/275/10 327/294/10 299/276/10
f 299/276/10 327/294/10 328/295/10
f 299/276/10 328/295/10 300/277/10
f 300/277/10 328/295/10 329/296/10
f 300/277/10 329/296/10 301/278/10
f 301/278/10 329/296/10 330/297/10
f 301/278/10 330/297/10 302/279/10
s 1
f 302/279/10 330/297/10 331/298/87
f 302/279/10 331/298/87 303/280/83
f 303/280/83 331/298/87 332/1/88
f 303/280/83 332/1/88 304/281/84
f 304/281/84 1/1/1 4/4/4
f 304/281/84 4/4/4 305/282/85
f 3/3/3 333/299/89 334/300/90
f 3/3/3 334/300/90 4/4/4
f 7/7/7 335/301/91 336/302/92
f 7/7/7 336/302/92 8/8/8
s 0
f 337/303/93 338/304/93 339/305/93
f 337/303/93 339/305/93 340/306/93
f 341/307/10 342/308/10 343/309/10
f 341/307/10 343/309/10 344/310/10
s 1
f 19/19/13 345/311/94 346/312/95
f 19/19/13 346/312/95 20/20/14
f 347/313/96 348/314/96 349/315/97
f 347/313/96 349/315/97 350/316/97
f 351/317/98 352/318/99 353/319/100
f 351/317/98 353/319/100 354/320/101
f 355/321/102 356/322/102 357/323/103
f 355/321/102 357/323/103 358/324/104
f 359/325/25 360/326/25 361/327/105
f 359/325/25 361/327/105 362/328/106
f 38/38/28 37/37/27 352/318/99
f 38/38/28 352/318/99 351/317/98
f 363/316/107 364/315/108 365/329/109
f 363/316/107 365/329/109 336/302/92
f 362/328/106 361/327/105 366/330/110
f 362/328/106 366/330/110 367/331/95
f 358/324/104 357/323/103 368/332/111
f 358/324/104 368/332/111 351/317/98
s 0
f 369/333/10 370/334/10 371/335/10
f 369/333/10 371/335/10 372/336/10
f 373/337/10 374/338/10 370/334/10
f 373/337/10 370/334/10 369/333/10
f 375/339/10 376/340/10 374/338/10
f 375/339/10 374/338/10 373/337/10
f 377/341/10 378/342/10 376/340/10
f 377/341/10 376/340/10 375/339/10
f 379/343/10 380/344/10 378/342/10
f 379/343/10 378/342/10 377/341/10
f 381/345/10 382/346/10 380/344/10
f 381/345/10 380/344/10 379/343/10
f 383/347/10 384/348/10 382/346/10
f 383/347/10 382/346/10 381/345/10
f 385/349/10 386/350/10 384/348/10
f 385/349/10 384/348/10 383/347/10
f 387/351/10 388/352/10 386/350/10
f 387/351/10 386/350/10 385/349/10
f 389/353/10 390/354/10 388/352/10
f 389/353/10 388/352/10 387/351/10
f 391/355/10 392/356/10 390/354/10
f 391/355/10 390/354/10 389/353/10
s 1
f 393/357/112 394/358/100 392/356/10
f 393/357/112 392/356/10 391/355/10
f 395/306/113 396/305/113 397/359/114
f 395/306/113 397/359/114 398/360/114
f 398/360/114 397/359/114 399/361/115
f 398/360/114 399/361/115 400/362/115
s 0
f 401/363/116 402/364/116 403/365/116
f 401/363/116 403/365/116 404/366/116
f 405/366/117 406/365/117 407/367/117
f 405/366/117 407/367/117 408/368/117
f 409/369/118 410/370/118 411/371/118
f 409/369/118 411/371/118 412/372/118
f 413/372/117 414/371/117 415/373/117
f 413/372/117 415/373/117 416/374/117
s 1
f 417/374/119 418/373/119 419/375/120
f 417/374/119 419/375/120 420/376/120
f 420/376/120 419/375/120 421/377/121
f 420/376/120 421/377/121 422/378/121
f 422/378/121 421/377/121 423/379/122
f 422/378/121 423/379/122 424/380/122
f 424/380/122 423/379/122 425/381/123
f 424/380/122 425/381/123 426/382/123
f 426/382/123 425/381/123 427/383/124
f 426/382/123 427/383/124 428/384/124
f 428/384/124 427/383/124 348/314/96
f 428/384/124 348/314/96 347/313/96
s 0
f 429/385/25 430/386/25 431/387/25
f 429/385/25 431/387/25 432/388/25
f 432/388/25 431/387/25 433/389/25
f 432/388/25 433/389/25 434/390/25
f 434/390/25 433/389/25 435/391/25
f 434/390/25 435/391/25 436/392/25
f 436/392/25 435/391/25 437/393/25
f 436/392/25 437/393/25 438/394/25
f 438/394/25 437/393/25 439/395/25
f 438/394/25 439/395/25 440/396/25
f 440/396/25 439/395/25 441/397/25
f 440/396/25 441/397/25 442/398/25
f 442/398/25 441/397/25 443/399/25
f 442/398/25 443/399/25 444/400/25
f 444/400/25 443/399/25 445/401/25
f 444/400/25 445/401/25 446/402/25
f 446/402/25 445/401/25 447/403/25
f 446/402/25 447/403/25 448/404/25
f 448/404/25 447/403/25 449/405/25
f 448/404/25 449/405/25 450/406/25
f 450/406/25 449/405/25 451/407/25
f 450/406/25 451/407/25 452/408/25
f 452/408/25 451/407/25 360/326/25
f 452/408/25 360/326/25 359/325/25
f 453/409/125 454/410/125 455/411/125
f 453/409/125 455/411/125 456/412/125
f 457/412/126 458/411/126 459/413/126
s 1
f 457/412/126 459/413/126 460/414/126
s 0
f 461/414/127 462/413/127 463/415/127
f 461/414/127 463/415/127 464/416/127
f 465/416/128 466/415/128 467/417/128
f 465/416/128 467/417/128 468/418/128
f 469/418/129 470/417/129 471/419/129
f 469/418/129 471/419/129 472/420/129
f 473/420/128 474/419/128 475/421/128
f 473/420/128 475/421/128 476/422/128
s 1
f 477/422/130 478/421/130 479/423/131
f 477/422/130 479/423/131 480/424/131
f 480/424/131 479/423/131 481/425/132
f 480/424/131 481/425/132 482/426/132
f 482/426/132 481/425/132 483/427/133
f 482/426/132 483/427/133 484/428/133
f 484/428/133 483/427/133 485/429/134
f 484/428/133 485/429/134 486/430/134
f 486/430/134 485/429/134 487/431/135
f 486/430/134 487/431/135 488/432/135
f 488/432/135 487/431/135 356/322/102
f 488/432/135 356/322/102 355/321/102
f 167/145/61 489/433/136 490/434/137
f 167/145/61 490/434/137 168/146/62
f 491/435/138 492/436/139 490/434/137
f 491/435/138 490/434/137 493/437/140
f 494/438/25 491/435/138 493/437/140
f 494/438/25 493/437/140 495/439/25
s 0
f 496/440/25 494/438/25 495/439/25
f 496/440/25 495/439/25 497/441/25
f 498/442/25 496/440/25 497/441/25
f 498/442/25 497/441/25 499/443/25
f 500/444/25 498/442/25 499/443/25
f 500/444/25 499/443/25 501/445/25
f 502/446/25 500/444/25 501/445/25
f 502/446/25 501/445/25 503/447/25
f 504/448/25 502/446/25 503/447/25
f 504/448/25 503/447/25 505/449/25
f 506/450/25 504/448/25 505/449/25
f 506/450/25 505/449/25 507/451/25
f 508/452/25 506/450/25 507/451/25
f 508/452/25 507/451/25 509/453/25
f 510/454/25 508/452/25 509/453/25
f 510/454/25 509/453/25 511/455/25
f 512/456/25 510/454/25 511/455/25
f 512/456/25 511/455/25 513/457/25
f 514/458/25 512/456/25 513/457/25
f 514/458/25 513/457/25 515/459/25
f 516/460/25 514/458/25 515/459/25
f 516/460/25 515/459/25 517/461/25
f 518/462/25 516/460/25 517/461/25
f 518/462/25 517/461/25 519/463/25
f 520/464/93 521/465/93 522/466/93
f 520/464/93 522/466/93 523/467/93
f 524/468/10 525/469/10 526/470/10
f 524/468/10 526/470/10 527/471/10
f 528/472/10 529/473/10 526/470/10
f 528/472/10 526/470/10 530/474/10
f 531/475/10 528/472/10 530/474/10
f 531/475/10 530/474/10 532/476/10
f 533/477/10 531/475/10 532/476/10
f 533/477/10 532/476/10 534/478/10
f 535/479/10 533/477/10 534/478/10
f 535/479/10 534/478/10 536/480/10
f 537/481/10 535/479/10 536/480/10
f 537/481/10 536/480/10 538/482/10
f 539/483/10 537/481/10 538/482/10
f 539/483/10 538/482/10 540/484/10
f 541/485/10 539/483/10 540/484/10
f 541/485/10 540/484/10 542/486/10
f 543/487/10 541/485/10 542/486/10
f 543/487/10 542/486/10 544/488/10
f 545/489/10 543/487/10 544/488/10
f 545/489/10 544/488/10 546/490/10
f 547/491/10 545/489/10 546/490/10
f 547/491/10 546/490/10 548/492/10
f 549/493/10 547/491/10 548/492/10
f 549/493/10 548/492/10 550/494/10
s 1
f 551/495/141 549/493/10 550/494/10
f 551/495/141 550/494/10 552/496/142
f 553/497/143 551/495/141 552/496/142
f 553/497/143 552/496/142 554/498/144
f 233/211/70 553/497/143 554/498/144
f 233/211/70 554/498/144 234/212/71
f 234/212/71 554/498/144 555/499/145
f 234/212/71 555/499/145 236/214/73
f 554/498/144 552/496/142 556/500/146
f 554/498/144 556/500/146 555/499/145
f 552/496/142 550/494/10 557/501/10
f 552/496/142 557/501/10 556/500/146
s 0
f 550/494/10 548/492/10 558/502/10
f 550/494/10 558/502/10 557/501/10
f 548/492/10 546/490/10 559/503/10
f 548/492/10 559/503/10 558/502/10
f 546/490/10 544/488/10 560/504/10
f 546/490/10 560/504/10 559/503/10
f 544/488/10 542/486/10 561/505/10
f 544/488/10 561/505/10 560/504/10
f 542/486/10 540/484/10 562/506/10
f 542/486/10 562/506/10 561/505/10
f 540/484/10 538/482/10 563/507/10
f 540/484/10 563/507/10 562/506/10
f 538/482/10 536/480/10 564/508/10
f 538/482/10 564/508/10 563/507/10
f 536/480/10 534/478/10 565/509/10
f 536/480/10 565/509/10 564/508/10
f 534/478/10 532/476/10 566/510/10
f 534/478/10 566/510/10 565/509/10
f 532/476/10 530/474/10 567/511/10
f 532/476/10 567/511/10 566/510/10
f 530/474/10 526/470/10 525/469/10
f 530/474/10 525/469/10 567/511/10
f 568/512/10 371/335/10 525/469/10
f 568/512/10 525/469/10 524/468/10
f 569/513/93 570/514/93 521/465/93
f 569/513/93 521/465/93 520/464/93
f 519/463/25 517/461/25 571/515/25
f 519/463/25 571/515/25 572/516/25
f 517/461/25 515/459/25 573/517/25
f 517/461/25 573/517/25 571/515/25
f 515/459/25 513/457/25 574/518/25
f 515/459/25 574/518/25 573/517/25
f 513/457/25 511/455/25 575/519/25
f 513/457/25 575/519/25 574/518/25
f 511/455/25 509/453/25 576/520/25
f 511/455/25 576/520/25 575/519/25
f 509/453/25 507/451/25 577/521/25
f 509/453/25 577/521/25 576/520/25
f 507/451/25 505/449/25 578/522/25
f 507/451/25 578/522/25 577/521/25
f 505/449/25 503/447/25 579/523/25
f 505/449/25 579/523/25 578/522/25
f 503/447/25 501/445/25 580/524/25
f 503/447/25 580/524/25 579/523/25
f 501/445/25 499/443/25 581/525/25
f 501/445/25 581/525/25 580/524/25
f 499/443/25 497/441/25 582/526/25
f 499/443/25 582/526/25 581/525/25
f 497/441/25 495/439/25 583/527/25
f 497/441/25 583/527/25 582/526/25
s 1
f 495/439/25 493/437/140 584/528/147
f 495/439/25 584/528/147 583/527/25
f 493/437/140 490/434/137 489/433/136
f 493/437/140 489/433/136 584/528/147
f 266/244/76 366/330/110 489/433/136
f 266/244/76 489/433/136 167/145/61
f 236/214/73 555/499/145 585/529/148
f 236/214/73 585/529/148 268/246/78
f 555/499/145 556/500/146 394/358/100
f 555/499/145 394/358/100 585/529/148
f 556/500/146 557/501/10 392/356/10
f 556/500/146 392/356/10 394/358/100
s 0
f 557/501/10 558/502/10 390/354/10
f 557/501/10 390/354/10 392/356/10
f 558/502/10 559/503/10 388/352/10
f 558/502/10 388/352/10 390/354/10
f 559/503/10 560/504/10 386/350/10
f 559/503/10 386/350/10 388/352/10
f 560/504/10 561/505/10 384/348/10
f 560/504/10 384/348/10 386/350/10
f 561/505/10 562/506/10 382/346/10
f 561/505/10 382/346/10 384/348/10
f 562/506/10 563/507/10 380/344/10
f 562/506/10 380/344/10 382/346/10
f 563/507/10 564/508/10 378/342/10
f 563/507/10 378/342/10 380/344/10
f 564/508/10 565/509/10 376/340/10
f 564/508/10 376/340/10 378/342/10
f 565/509/10 566/510/10 374/338/10
f 565/509/10 374/338/10 376/340/10
f 566/510/10 567/511/10 370/334/10
f 566/510/10 370/334/10 374/338/10
f 567/511/10 525/469/10 371/335/10
f 567/511/10 371/335/10 370/334/10
f 586/530/10 372/336/10 371/335/10
f 586/530/10 371/335/10 568/512/10
f 587/531/93 588/532/93 570/514/93
f 587/531/93 570/514/93 569/513/93
f 572/516/25 571/515/25 431/387/25
f 572/516/25 431/387/25 430/386/25
f 571/515/25 573/517/25 433/389/25
f 571/515/25 433/389/25 431/387/25
f 573/517/25 574/518/25 435/391/25
f 573/517/25 435/391/25 433/389/25
f 574/518/25 575/519/25 437/393/25
f 574/518/25 437/393/25 435/391/25
f 575/519/25 576/520/25 439/395/25
f 575/519/25 439/395/25 437/393/25
f 576/520/25 577/521/25 441/397/25
f 576/520/25 441/397/25 439/395/25
f 577/521/25 578/522/25 443/399/25
f 577/521/25 443/399/25 441/397/25
f 578/522/25 579/523/25 445/401/25
f 578/522/25 445/401/25 443/399/25
f 579/523/25 580/524/25 447/403/25
f 579/523/25 447/403/25 445/401/25
f 580/524/25 581/525/25 449/405/25
f 580/524/25 449/405/25 447/403/25
f 581/525/25 582/526/25 451/407/25
f 581/525/25 451/407/25 449/405/25
f 582/526/25 583/527/25 360/326/25
f 582/526/25 360/326/25 451/407/25
s 1
f 583/527/25 584/528/147 361/327/105
f 583/527/25 361/327/105 360/326/25
f 584/528/147 489/433/136 366/330/110
f 584/528/147 366/330/110 361/327/105
f 272/250/79 367/331/95 366/330/110
f 272/250/79 366/330/110 273/244/80
f 168/146/62 490/434/137 492/436/139
f 168/146/62 492/436/139 274/251/81
f 589/533/149 335/301/91 492/436/139
f 589/533/149 492/436/139 491/435/138
f 590/534/25 589/533/149 491/435/138
f 590/534/25 491/435/138 494/438/25
s 0
f 591/535/25 590/534/25 494/438/25
f 591/535/25 494/438/25 496/440/25
f 592/536/25 591/535/25 496/440/25
f 592/536/25 496/440/25 498/442/25
f 593/537/25 592/536/25 498/442/25
f 593/537/25 498/442/25 500/444/25
f 594/538/25 593/537/25 500/444/25
f 594/538/25 500/444/25 502/446/25
f 595/539/25 594/538/25 502/446/25
f 595/539/25 502/446/25 504/448/25
f 596/540/25 595/539/25 504/448/25
f 596/540/25 504/448/25 506/450/25
f 597/541/25 596/540/25 506/450/25
f 597/541/25 506/450/25 508/452/25
f 598/542/25 597/541/25 508/452/25
f 598/542/25 508/452/25 510/454/25
f 599/543/25 598/542/25 510/454/25
f 599/543/25 510/454/25 512/456/25
f 600/544/25 599/543/25 512/456/25
f 600/544/25 512/456/25 514/458/25
f 601/545/25 600/544/25 514/458/25
f 601/545/25 514/458/25 516/460/25
f 602/546/25 601/545/25 516/460/25
f 602/546/25 516/460/25 518/462/25
f 523/467/93 522/466/93 603/547/93
f 523/467/93 603/547/93 604/548/93
f 527/471/10 526/470/10 529/473/10
f 527/471/10 529/473/10 605/549/10
f 606/550/10 342/308/10 529/473/10
f 606/550/10 529/473/10 528/472/10
f 607/551/10 606/550/10 528/472/10
f 607/551/10 528/472/10 531/475/10
f 608/552/10 607/551/10 531/475/10
f 608/552/10 531/475/10 533/477/10
f 609/553/10 608/552/10 533/477/10
f 609/553/10 533/477/10 535/479/10
f 610/554/10 609/553/10 535/479/10
f 610/554/10 535/479/10 537/481/10
f 611/555/10 610/554/10 537/481/10
f 611/555/10 537/481/10 539/483/10
f 612/556/10 611/555/10 539/483/10
f 612/556/10 539/483/10 541/485/10
f 613/557/10 612/556/10 541/485/10
f 613/557/10 541/485/10 543/487/10
f 614/558/10 613/557/10 543/487/10
f 614/558/10 543/487/10 545/489/10
f 615/559/10 614/558/10 545/489/10
f 615/559/10 545/489/10 547/491/10
f 616/560/10 615/559/10 547/491/10
f 616/560/10 547/491/10 549/493/10
s 1
f 617/561/150 616/560/10 549/493/10
f 617/561/150 549/493/10 551/495/141
f 618/562/151 617/561/150 551/495/141
f 618/562/151 551/495/141 553/497/143
f 305/282/85 618/562/151 553/497/143
f 305/282/85 553/497/143 233/211/70
f 274/251/81 492/436/139 335/301/91
f 274/251/81 335/301/91 7/7/7
f 619/316/152 336/302/92 335/301/91
f 619/316/152 335/301/91 589/533/149
f 620/313/25 619/316/152 589/533/149
f 620/313/25 589/533/149 590/534/25
s 0
f 621/384/25 620/313/25 590/534/25
f 621/384/25 590/534/25 591/535/25
f 622/382/25 621/384/25 591/535/25
f 622/382/25 591/535/25 592/536/25
f 623/380/25 622/382/25 592/536/25
f 623/380/25 592/536/25 593/537/25
f 624/378/25 623/380/25 593/537/25
f 624/378/25 593/537/25 594/538/25
f 625/376/25 624/378/25 594/538/25
f 625/376/25 594/538/25 595/539/25
f 626/374/25 625/376/25 595/539/25
f 626/374/25 595/539/25 596/540/25
f 627/372/25 626/374/25 596/540/25
f 627/372/25 596/540/25 597/541/25
f 628/369/25 627/372/25 597/541/25
f 628/369/25 597/541/25 598/542/25
f 629/563/25 628/369/25 598/542/25
f 629/563/25 598/542/25 599/543/25
f 630/564/25 629/563/25 599/543/25
f 630/564/25 599/543/25 600/544/25
f 631/565/25 630/564/25 600/544/25
f 631/565/25 600/544/25 601/545/25
f 632/566/25 631/565/25 601/545/25
f 632/566/25 601/545/25 602/546/25
f 604/548/93 603/547/93 338/304/93
f 604/548/93 338/304/93 337/303/93
f 605/549/10 529/473/10 342/308/10
f 605/549/10 342/308/10 341/307/10
f 633/567/10 343/309/10 342/308/10
f 633/567/10 342/308/10 606/550/10
f 634/568/10 633/567/10 606/550/10
f 634/568/10 606/550/10 607/551/10
f 635/569/10 634/568/10 607/551/10
f 635/569/10 607/551/10 608/552/10
f 636/570/10 635/569/10 608/552/10
f 636/570/10 608/552/10 609/553/10
f 637/571/10 636/570/10 609/553/10
f 637/571/10 609/553/10 610/554/10
f 638/572/10 637/571/10 610/554/10
f 638/572/10 610/554/10 611/555/10
f 639/573/10 638/572/10 611/555/10
f 639/573/10 611/555/10 612/556/10
f 640/574/10 639/573/10 612/556/10
f 640/574/10 612/556/10 613/557/10
f 641/575/10 640/574/10 613/557/10
f 641/575/10 613/557/10 614/558/10
f 642/576/10 641/575/10 614/558/10
f 642/576/10 614/558/10 615/559/10
f 643/577/10 642/576/10 615/559/10
f 643/577/10 615/559/10 616/560/10
s 1
f 644/578/153 643/577/10 616/560/10
f 644/578/153 616/560/10 617/561/150
f 645/300/154 644/578/153 617/561/150
f 645/300/154 617/561/150 618/562/151
f 4/4/4 334/300/90 618/562/151
f 4/4/4 618/562/151 305/282/85
f 646/579/155 8/8/8 336/302/92
f 646/579/155 336/302/92 365/329/109
f 39/39/29 5/5/5 8/8/8
f 39/39/29 8/8/8 646/579/155
f 39/39/29 647/580/156 648/581/157
f 39/39/29 648/581/157 40/21/30
f 21/21/15 649/581/15 650/582/16
f 21/21/15 650/582/16 22/22/16
f 22/22/16 650/582/16 651/583/47
f 22/22/16 651/583/47 103/93/47
f 103/93/47 651/583/47 652/584/46
f 103/93/47 652/584/46 101/91/46
f 101/91/46 652/584/46 653/585/45
f 101/91/46 653/585/45 99/89/45
f 99/89/45 653/585/45 654/586/44
f 99/89/45 654/586/44 97/87/44
f 97/87/44 654/586/44 655/587/42
f 97/87/44 655/587/42 93/85/42
f 93/85/42 655/587/42 656/588/43
f 93/85/42 656/588/43 94/83/43
s 0
f 89/83/40 657/588/40 658/589/40
f 89/83/40 658/589/40 90/79/40
f 85/79/41 659/589/41 660/590/41
f 85/79/41 660/590/41 86/80/41
f 81/77/40 661/591/40 662/592/40
f 81/77/40 662/592/40 82/73/40
s 1
f 77/73/39 663/592/39 664/593/39
s 0
f 77/73/39 664/593/39 78/74/39
s 1
f 75/71/38 665/594/38 666/595/36
f 75/71/38 666/595/36 71/69/36
f 71/69/36 666/595/36 667/596/37
f 71/69/36 667/596/37 72/9/37
s 0
f 9/9/9 668/596/9 669/597/9
f 9/9/9 669/597/9 10/10/9
f 10/10/9 669/597/9 670/598/9
f 10/10/9 670/598/9 289/266/9
f 289/266/9 670/598/9 671/599/9
f 289/266/9 671/599/9 198/176/9
f 198/176/9 671/599/9 672/600/9
f 198/176/9 672/600/9 199/177/9
f 199/177/9 672/600/9 673/601/9
f 199/177/9 673/601/9 250/228/9
f 250/228/9 673/601/9 674/602/9
f 250/228/9 674/602/9 270/248/9
f 675/603/48 676/604/48 677/249/48
s 1
f 675/603/48 677/249/48 678/248/48
s 0
f 679/605/49 680/606/49 681/604/49
s 1
f 679/605/49 681/604/49 682/603/49
s 0
f 683/607/50 684/608/50 685/606/50
f 683/607/50 685/606/50 686/605/50
f 687/609/51 688/610/51 689/608/51
f 687/609/51 689/608/51 690/607/51
f 691/611/52 692/612/52 693/610/52
f 691/611/52 693/610/52 694/609/52
f 695/613/51 696/614/51 697/612/51
f 695/613/51 697/612/51 698/611/51
s 1
f 699/615/53 700/616/53 701/614/54
f 699/615/53 701/614/54 702/613/54
f 703/617/55 704/618/55 700/616/53
f 703/617/55 700/616/53 699/615/53
f 705/619/56 706/620/56 704/618/55
f 705/619/56 704/618/55 703/617/55
f 707/621/57 708/622/57 706/620/56
f 707/621/57 706/620/56 705/619/56
f 709/623/58 710/624/58 708/622/57
f 709/623/58 708/622/57 707/621/57
f 711/625/22 712/626/22 710/624/58
f 711/625/22 710/624/58 709/623/58
f 713/627/158 714/628/159 712/626/22
f 713/627/158 712/626/22 711/625/22
f 18/18/12 17/17/11 714/628/159
f 18/18/12 714/628/159 713/627/158
f 18/18/12 715/629/160 716/630/161
f 18/18/12 716/630/161 19/19/13
f 19/19/13 716/630/161 717/631/162
f 19/19/13 717/631/162 345/311/94
f 718/632/163 719/633/164 346/312/95
f 718/632/163 346/312/95 345/311/94
f 720/634/102 721/635/102 719/633/164
f 720/634/102 719/633/164 718/632/163
f 722/636/135 723/637/135 721/635/102
f 722/636/135 721/635/102 720/634/102
f 724/638/134 725/639/134 723/637/135
f 724/638/134 723/637/135 722/636/135
f 726/640/133 727/641/133 725/639/134
f 726/640/133 725/639/134 724/638/134
f 728/642/132 729/643/132 727/641/133
f 728/642/132 727/641/133 726/640/133
f 730/644/131 731/645/131 729/643/132
f 730/644/131 729/643/132 728/642/132
f 732/646/130 733/647/130 731/645/131
f 732/646/130 731/645/131 730/644/131
s 0
f 734/648/128 735/649/128 736/647/128
f 734/648/128 736/647/128 737/646/128
f 738/650/129 739/651/129 740/649/129
f 738/650/129 740/649/129 741/648/129
f 742/652/128 743/653/128 744/651/128
f 742/652/128 744/651/128 745/650/128
f 746/654/127 747/655/127 748/653/127
f 746/654/127 748/653/127 749/652/127
f 750/656/126 751/657/126 752/655/126
f 750/656/126 752/655/126 753/654/126
f 754/532/125 755/531/125 756/657/125
s 1
f 754/532/125 756/657/125 757/656/125
s 0
f 588/532/93 758/658/93 759/659/93
f 588/532/93 759/659/93 570/514/93
f 570/514/93 759/659/93 760/660/93
f 570/514/93 760/660/93 521/465/93
f 521/465/93 760/660/93 761/661/93
f 521/465/93 761/661/93 522/466/93
f 522/466/93 761/661/93 762/662/93
f 522/466/93 762/662/93 603/547/93
f 603/547/93 762/662/93 763/663/93
f 603/547/93 763/663/93 338/304/93
f 338/304/93 763/663/93 764/664/93
f 338/304/93 764/664/93 339/305/93
s 1
f 396/305/113 765/664/113 766/665/114
f 396/305/113 766/665/114 397/359/114
f 397/359/114 766/665/114 767/666/115
f 397/359/114 767/666/115 399/361/115
f 402/364/116 768/667/116 769/668/116
s 0
f 402/364/116 769/668/116 403/365/116
f 406/365/117 770/668/117 771/669/117
f 406/365/117 771/669/117 407/367/117
f 410/370/118 772/670/118 773/671/118
f 410/370/118 773/671/118 411/371/118
f 414/371/117 774/671/117 775/672/117
f 414/371/117 775/672/117 415/373/117
s 1
f 418/373/119 776/672/119 777/673/120
f 418/373/119 777/673/120 419/375/120
f 419/375/120 777/673/120 778/674/121
f 419/375/120 778/674/121 421/377/121
f 421/377/121 778/674/121 779/675/122
f 421/377/121 779/675/122 423/379/122
f 423/379/122 779/675/122 780/676/123
f 423/379/122 780/676/123 425/381/123
f 425/381/123 780/676/123 781/677/124
f 425/381/123 781/677/124 427/383/124
f 427/383/124 781/677/124 782/678/96
f 427/383/124 782/678/96 348/314/96
f 348/314/96 782/678/96 783/679/97
f 348/314/96 783/679/97 349/315/97
f 364/315/108 784/679/165 785/680/166
f 364/315/108 785/680/166 365/329/109
f 784/679/165 786/681/167 333/299/89
f 784/679/165 333/299/89 785/680/166
f 782/678/96 787/682/96 788/681/97
f 782/678/96 788/681/97 783/679/97
f 781/677/124 789/683/124 787/682/96
f 781/677/124 787/682/96 782/678/96
f 780/676/123 790/684/123 789/683/124
f 780/676/123 789/683/124 781/677/124
f 779/675/122 791/685/122 790/684/123
f 779/675/122 790/684/123 780/676/123
f 778/674/121 792/686/121 791/685/122
f 778/674/121 791/685/122 779/675/122
f 777/673/120 793/687/120 792/686/121
f 777/673/120 792/686/121 778/674/121
f 776/672/119 794/688/119 793/687/120
f 776/672/119 793/687/120 777/673/120
s 0
f 774/671/117 795/689/117 796/688/117
f 774/671/117 796/688/117 775/672/117
f 772/670/118 797/690/118 798/689/118
f 772/670/118 798/689/118 773/671/118
f 770/668/117 799/691/117 800/692/117
f 770/668/117 800/692/117 771/669/117
f 768/667/116 801/693/116 802/691/116
f 768/667/116 802/691/116 769/668/116
s 1
f 766/665/114 803/694/114 804/695/115
f 766/665/114 804/695/115 767/666/115
f 765/664/113 805/696/113 803/694/114
f 765/664/113 803/694/114 766/665/114
s 0
f 763/663/93 806/697/93 807/696/93
f 763/663/93 807/696/93 764/664/93
f 762/662/93 808/698/93 806/697/93
f 762/662/93 806/697/93 763/663/93
f 761/661/93 809/699/93 808/698/93
f 761/661/93 808/698/93 762/662/93
f 760/660/93 810/700/93 809/699/93
f 760/660/93 809/699/93 761/661/93
f 759/659/93 811/701/93 810/700/93
f 759/659/93 810/700/93 760/660/93
f 758/658/93 812/410/93 811/701/93
f 758/658/93 811/701/93 759/659/93
s 1
f 813/658/125 754/532/125 757/656/125
s 0
f 813/658/125 757/656/125 814/702/125
f 815/702/126 750/656/126 753/654/126
s 1
f 815/702/126 753/654/126 816/703/126
s 0
f 817/703/127 746/654/127 749/652/127
s 1
f 817/703/127 749/652/127 818/704/127
s 0
f 819/704/128 742/652/128 745/650/128
f 819/704/128 745/650/128 820/705/128
f 821/705/129 738/650/129 741/648/129
f 821/705/129 741/648/129 822/706/129
f 823/706/128 734/648/128 737/646/128
f 823/706/128 737/646/128 824/707/128
s 1
f 825/707/130 732/646/130 730/644/131
f 825/707/130 730/644/131 826/708/131
f 826/708/131 730/644/131 728/642/132
f 826/708/131 728/642/132 827/709/132
f 827/709/132 728/642/132 726/640/133
f 827/709/132 726/640/133 828/710/133
f 828/710/133 726/640/133 724/638/134
f 828/710/133 724/638/134 829/711/134
f 829/711/134 724/638/134 722/636/135
f 829/711/134 722/636/135 830/712/135
f 830/712/135 722/636/135 720/634/102
f 830/712/135 720/634/102 831/713/102
f 831/713/102 720/634/102 718/632/163
f 831/713/102 718/632/163 832/714/168
f 832/714/168 718/632/163 345/311/94
f 832/714/168 345/311/94 717/631/162
f 716/630/161 833/715/169 368/332/111
f 716/630/161 368/332/111 717/631/162
f 715/629/160 44/42/34 833/715/169
f 715/629/160 833/715/169 716/630/161
f 715/629/160 18/18/12 713/627/158
f 715/629/160 713/627/158 834/716/170
f 834/716/170 713/627/158 711/625/22
f 834/716/170 711/625/22 835/717/22
f 835/717/22 711/625/22 709/623/58
f 835/717/22 709/623/58 836/718/58
f 836/718/58 709/623/58 707/621/57
f 836/718/58 707/621/57 837/719/57
f 837/719/57 707/621/57 705/619/56
f 837/719/57 705/619/56 838/720/56
f 838/720/56 705/619/56 703/617/55
f 838/720/56 703/617/55 839/721/55
f 839/721/55 703/617/55 699/615/53
f 839/721/55 699/615/53 840/722/53
f 840/722/53 699/615/53 702/613/54
f 840/722/53 702/613/54 841/723/54
s 0
f 842/723/51 695/613/51 698/611/51
f 842/723/51 698/611/51 843/724/51
f 844/724/52 691/611/52 694/609/52
f 844/724/52 694/609/52 845/725/52
f 846/725/51 687/609/51 690/607/51
f 846/725/51 690/607/51 847/726/51
f 848/726/50 683/607/50 686/605/50
f 848/726/50 686/605/50 849/727/50
f 850/727/49 679/605/49 682/603/49
s 1
f 850/727/49 682/603/49 851/728/49
f 852/728/48 675/603/48 678/248/48
s 0
f 852/728/48 678/248/48 853/602/48
f 673/601/9 854/729/9 855/120/9
f 673/601/9 855/120/9 674/602/9
f 672/600/9 856/730/9 854/729/9
f 672/600/9 854/729/9 673/601/9
f 671/599/9 857/731/9 856/730/9
f 671/599/9 856/730/9 672/600/9
f 670/598/9 858/732/9 857/731/9
f 670/598/9 857/731/9 671/599/9
f 669/597/9 859/733/9 858/732/9
f 669/597/9 858/732/9 670/598/9
f 668/596/9 860/734/9 859/733/9
f 668/596/9 859/733/9 669/597/9
s 1
f 666/595/36 861/735/36 862/734/37
f 666/595/36 862/734/37 667/596/37
f 665/594/38 863/736/38 861/735/36
f 665/594/38 861/735/36 666/595/36
s 0
f 663/592/39 864/737/39 865/738/39
f 663/592/39 865/738/39 664/593/39
f 661/591/40 866/739/40 867/737/40
f 661/591/40 867/737/40 662/592/40
f 659/589/41 868/740/41 869/741/41
f 659/589/41 869/741/41 660/590/41
f 657/588/40 870/742/40 871/740/40
f 657/588/40 871/740/40 658/589/40
s 1
f 655/587/42 872/743/42 873/742/43
f 655/587/42 873/742/43 656/588/43
f 654/586/44 874/744/44 872/743/42
f 654/586/44 872/743/42 655/587/42
f 653/585/45 875/745/45 874/744/44
f 653/585/45 874/744/44 654/586/44
f 652/584/46 876/746/46 875/745/45
f 652/584/46 875/745/45 653/585/45
f 651/583/47 877/747/47 876/746/46
f 651/583/47 876/746/46 652/584/46
f 650/582/16 878/748/16 877/747/47
f 650/582/16 877/747/47 651/583/47
f 649/581/15 879/749/15 878/748/16
f 649/581/15 878/748/16 650/582/16
f 647/580/156 2/2/2 880/749/171
f 647/580/156 880/749/171 648/581/157
f 647/580/156 39/39/29 646/579/155
f 647/580/156 646/579/155 881/750/172
f 881/750/172 646/579/155 365/329/109
f 881/750/172 365/329/109 785/680/166
f 786/681/167 882/578/173 334/300/90
f 786/681/167 334/300/90 333/299/89
f 787/682/96 883/577/96 884/578/97
f 787/682/96 884/578/97 788/681/97
f 789/683/124 885/576/124 883/577/96
f 789/683/124 883/577/96 787/682/96
f 790/684/123 886/575/123 885/576/124
f 790/684/123 885/576/124 789/683/124
f 791/685/122 887/574/122 886/575/123
f 791/685/122 886/575/123 790/684/123
f 792/686/121 888/573/121 887/574/122
f 792/686/121 887/574/122 791/685/122
f 793/687/120 889/572/120 888/573/121
f 793/687/120 888/573/121 792/686/121
f 794/688/119 890/571/119 889/572/120
f 794/688/119 889/572/120 793/687/120
s 0
f 795/689/117 891/570/117 892/571/117
f 795/689/117 892/571/117 796/688/117
f 797/690/118 893/569/118 894/570/118
f 797/690/118 894/570/118 798/689/118
f 799/691/117 895/751/117 896/752/117
f 799/691/117 896/752/117 800/692/117
f 801/693/116 897/753/116 898/751/116
f 801/693/116 898/751/116 802/691/116
s 1
f 803/694/114 899/754/114 900/755/115
f 803/694/114 900/755/115 804/695/115
f 805/696/113 901/756/113 899/754/114
f 805/696/113 899/754/114 803/694/114
s 0
f 806/697/93 902/757/93 903/756/93
f 806/697/93 903/756/93 807/696/93
f 808/698/93 904/758/93 902/757/93
f 808/698/93 902/757/93 806/697/93
f 809/699/93 905/759/93 904/758/93
f 809/699/93 904/758/93 808/698/93
f 810/700/93 906/760/93 905/759/93
f 810/700/93 905/759/93 809/699/93
f 811/701/93 907/761/93 906/760/93
f 811/701/93 906/760/93 810/700/93
f 812/410/93 908/409/93 907/761/93
f 812/410/93 907/761/93 811/701/93
f 454/410/125 813/658/125 814/702/125
f 454/410/125 814/702/125 455/411/125
s 1
f 458/411/126 815/702/126 816/703/126
f 458/411/126 816/703/126 459/413/126
s 0
f 462/413/127 817/703/127 818/704/127
f 462/413/127 818/704/127 463/415/127
f 466/415/128 819/704/128 820/705/128
f 466/415/128 820/705/128 467/417/128
f 470/417/129 821/705/129 822/706/129
f 470/417/129 822/706/129 471/419/129
f 474/419/128 823/706/128 824/707/128
f 474/419/128 824/707/128 475/421/128
s 1
f 478/421/130 825/707/130 826/708/131
f 478/421/130 826/708/131 479/423/131
f 479/423/131 826/708/131 827/709/132
f 479/423/131 827/709/132 481/425/132
f 481/425/132 827/709/132 828/710/133
f 481/425/132 828/710/133 483/427/133
f 483/427/133 828/710/133 829/711/134
f 483/427/133 829/711/134 485/429/134
f 485/429/134 829/711/134 830/712/135
f 485/429/134 830/712/135 487/431/135
f 487/431/135 830/712/135 831/713/102
f 487/431/135 831/713/102 356/322/102
f 356/322/102 831/713/102 832/714/168
f 356/322/102 832/714/168 357/323/103
f 357/323/103 832/714/168 717/631/162
f 357/323/103 717/631/162 368/332/111
f 833/715/169 38/38/28 351/317/98
f 833/715/169 351/317/98 368/332/111
f 44/42/34 27/27/19 38/38/28
f 44/42/34 38/38/28 833/715/169
f 44/42/34 715/629/160 834/716/170
f 44/42/34 834/716/170 29/29/21
f 29/29/21 834/716/170 835/717/22
f 29/29/21 835/717/22 30/30/22
f 30/30/22 835/717/22 836/718/58
f 30/30/22 836/718/58 163/141/58
f 163/141/58 836/718/58 837/719/57
f 163/141/58 837/719/57 161/139/57
f 161/139/57 837/719/57 838/720/56
f 161/139/57 838/720/56 159/137/56
f 159/137/56 838/720/56 839/721/55
f 159/137/56 839/721/55 157/135/55
f 157/135/55 839/721/55 840/722/53
f 157/135/55 840/722/53 153/133/53
f 153/133/53 840/722/53 841/723/54
f 153/133/53 841/723/54 154/131/54
s 0
f 149/131/51 842/723/51 843/724/51
f 149/131/51 843/724/51 150/129/51
f 145/129/52 844/724/52 845/725/52
f 145/129/52 845/725/52 146/127/52
f 141/127/51 846/725/51 847/726/51
f 141/127/51 847/726/51 142/125/51
f 137/125/50 848/726/50 849/727/50
f 137/125/50 849/727/50 138/123/50
s 1
f 133/123/49 850/727/49 851/728/49
f 133/123/49 851/728/49 134/119/49
s 0
f 129/119/48 852/728/48 853/602/48
f 129/119/48 853/602/48 130/120/48
f 854/729/9 909/762/9 910/121/9
f 854/729/9 910/121/9 855/120/9
f 856/730/9 911/763/9 909/762/9
f 856/730/9 909/762/9 854/729/9
f 857/731/9 912/764/9 911/763/9
f 857/731/9 911/763/9 856/730/9
f 858/732/9 913/765/9 912/764/9
f 858/732/9 912/764/9 857/731/9
f 859/733/9 914/766/9 913/765/9
f 859/733/9 913/765/9 858/732/9
f 860/734/9 915/767/9 914/766/9
f 860/734/9 914/766/9 859/733/9
s 1
f 861/735/36 916/768/36 917/767/37
f 861/735/36 917/767/37 862/734/37
f 863/736/38 918/769/38 916/768/36
f 863/736/38 916/768/36 861/735/36
s 0
f 864/737/39 919/770/39 920/771/39
f 864/737/39 920/771/39 865/738/39
f 866/739/40 921/772/40 922/770/40
f 866/739/40 922/770/40 867/737/40
s 1
f 868/740/41 923/290/41 924/289/41
s 0
f 868/740/41 924/289/41 869/741/41
f 870/742/40 925/291/40 926/290/40
f 870/742/40 926/290/40 871/740/40
s 1
f 872/743/42 927/292/42 928/291/43
f 872/743/42 928/291/43 873/742/43
f 874/744/44 929/293/44 927/292/42
f 874/744/44 927/292/42 872/743/42
f 875/745/45 930/294/45 929/293/44
f 875/745/45 929/293/44 874/744/44
f 876/746/46 931/295/46 930/294/45
f 876/746/46 930/294/45 875/745/45
f 877/747/47 932/296/47 931/295/46
f 877/747/47 931/295/46 876/746/46
f 878/748/16 933/297/16 932/296/47
f 878/748/16 932/296/47 877/747/47
f 879/749/15 934/298/15 933/297/16
f 879/749/15 933/297/16 878/748/16
f 2/2/2 1/1/1 935/298/174
f 2/2/2 935/298/174 880/749/171
f 2/2/2 647/580/156 881/750/172
f 2/2/2 881/750/172 3/3/3
f 3/3/3 881/750/172 785/680/166
f 3/3/3 785/680/166 333/299/89
