# https://github.com/mikedh/trimesh
v -0.68981832 0.96868758 -0.21977328
v -0.68981832 0.91835847 0.25817490
v -0.68981832 0.98877511 -0.21977328
v 0.00005686 0.96868758 -0.21977328
v -0.68981832 0.91835847 0.26255578
v 0.00005686 0.91856527 0.25817490
v -0.68981832 0.98877511 0.22996402
v 0.00005686 0.98877511 -0.21977328
v -0.68981832 0.93000151 0.26823646
v 0.00005686 0.91856527 0.26255578
v 0.00005686 0.93000151 0.26823646
v -0.68981832 0.98776177 0.24999085
v 0.00005686 0.98877511 0.22996402
v -0.68981832 0.95000632 0.27203965
v 0.00005686 0.94012800 0.27016211
v -0.68981832 0.98339822 0.26380745
v 0.00005686 0.98761701 0.24999085
v -0.68981832 0.96999734 0.27025840
v 0.00005686 0.95000632 0.27203965
v 0.00005686 0.98322588 0.26385558
v 0.00005686 0.96011902 0.27112496
v 0.00005686 0.96999734 0.27021027
f 1 2 5
f 1 5 9
f 1 9 14
f 1 14 18
f 1 18 16
f 1 16 12
f 1 12 7
f 1 7 3
f 1 3 8
f 1 8 4
f 1 4 2
f 2 4 6
f 2 6 10
f 2 10 5
f 3 7 13
f 3 13 8
f 4 8 13
f 4 13 17
f 4 17 20
f 4 20 22
f 4 22 21
f 4 21 19
f 4 19 15
f 4 15 11
f 4 11 10
f 4 10 6
f 5 10 11
f 5 11 9
f 7 12 13
f 9 11 15
f 9 15 14
f 12 16 17
f 12 17 13
f 14 15 19
f 14 19 18
f 16 18 20
f 16 20 17
f 18 19 21
f 18 21 22
f 18 22 20

