# https://github.com/mikedh/trimesh
v -0.78599316 1.47657639 0.25000593
v -0.78541261 1.47657639 0.23656169
v -0.78547484 1.47657639 0.25655532
v -0.78599316 1.69009745 0.25000593
v -0.78512931 1.47657639 0.23000537
v -0.78512931 1.69009745 0.23000537
v -0.78439677 1.47657639 0.26999956
v -0.78439677 1.69009745 0.26999956
v -0.78213000 1.47657639 0.21787377
v -0.78214383 1.69009745 0.21792904
v -0.78341544 1.47657639 0.27373025
v -0.78139746 1.69009745 0.28139886
v -0.77397537 1.47657639 0.21631241
v -0.78213000 1.68999290 0.21787377
v -0.76999480 1.68999290 0.21542120
v -0.77005696 1.69009745 0.21543501
v -0.78139746 1.47657639 0.28139886
v -0.76999480 1.69009745 0.28439721
v -0.76999480 1.47657639 0.21555245
v -0.75767291 1.69009745 0.21751451
v -0.76999480 1.47657639 0.28439721
v -0.75000203 1.69009745 0.28599310
v -0.76344341 1.47657639 0.28492227
v -0.75761765 1.47657639 0.21768723
v -0.71761829 1.69009745 0.25759855
v -0.71755612 1.68999290 0.25761926
v -0.75761765 1.68999290 0.21755597
v -0.73000234 1.69009745 0.28512952
v -0.75000203 1.47657639 0.28599310
v -0.71768743 1.47657639 0.25761926
v -0.71539998 1.69009745 0.26993740
v -0.71787399 1.68999290 0.28213117
v -0.71783251 1.69009745 0.28206900
v -0.73000234 1.47657639 0.28512952
v -0.72602868 1.47657639 0.28414851
v -0.71624994 1.47657639 0.26593730
v -0.71555197 1.47657639 0.26999956
v -0.71787399 1.47657639 0.28213117
f 1 2 5
f 1 5 9
f 1 9 13
f 1 13 19
f 1 19 24
f 1 24 30
f 1 30 36
f 1 36 37
f 1 37 38
f 1 38 35
f 1 35 34
f 1 34 29
f 1 29 23
f 1 23 21
f 1 21 17
f 1 17 11
f 1 11 7
f 1 7 3
f 1 3 4
f 1 4 2
f 2 4 6
f 2 6 5
f 3 7 8
f 3 8 4
f 4 8 12
f 4 12 18
f 4 18 22
f 4 22 28
f 4 28 33
f 4 33 31
f 4 31 25
f 4 25 20
f 4 20 16
f 4 16 10
f 4 10 6
f 5 6 10
f 5 10 9
f 7 11 8
f 8 11 12
f 9 10 14
f 9 14 15
f 9 15 13
f 10 16 14
f 11 17 12
f 12 17 21
f 12 21 18
f 13 15 19
f 14 16 15
f 15 16 20
f 15 20 19
f 18 21 23
f 18 23 22
f 19 20 24
f 20 25 26
f 20 26 27
f 20 27 24
f 22 23 29
f 22 29 34
f 22 34 28
f 24 27 26
f 24 26 30
f 25 31 26
f 26 31 30
f 28 32 33
f 28 34 35
f 28 35 32
f 30 31 36
f 31 37 36
f 31 33 38
f 31 38 37
f 32 35 38
f 32 38 33

