# https://github.com/mikedh/trimesh
v 0.76999515 1.01020473 -0.21530598
v 0.75729090 1.01020473 -0.21744424
v 0.78213197 1.01020473 -0.21787328
v 0.78213197 1.28999972 -0.21787328
v 0.76999515 1.29005450 -0.21540979
v 0.71744823 1.01020473 -0.25728920
v 0.75761610 1.29005450 -0.21754113
v 0.71753818 1.29005450 -0.25761446
v 0.78512818 1.01020473 -0.23000392
v 0.78213894 1.29005450 -0.21790096
v 0.71531010 1.01020473 -0.26999420
v 0.71540695 1.29005450 -0.26999420
v 0.78600001 1.01020473 -0.25000253
v 0.78512818 1.28999972 -0.23000392
v 0.78512818 1.29005450 -0.23005928
v 0.71787030 1.01020473 -0.28213176
v 0.71784955 1.29005450 -0.28209716
v 0.78439468 1.01020473 -0.26999420
v 0.78600001 1.28999972 -0.25000253
v 0.78599310 1.29005450 -0.25005788
v 0.72988260 1.01020473 -0.28510043
v 0.71787030 1.28999972 -0.28213176
v 0.72996569 1.29005450 -0.28512117
v 0.78436702 1.01020473 -0.27011186
v 0.78438777 1.29005450 -0.27002880
v 0.78439468 1.28999972 -0.26999420
v 0.73000026 1.01020473 -0.28512812
v 0.74994928 1.29005450 -0.28599310
v 0.73000026 1.28999972 -0.28512812
v 0.78139853 1.01020473 -0.28139827
v 0.78139853 1.28999972 -0.28139827
v 0.78136390 1.29005450 -0.28140518
v 0.75000459 1.01020473 -0.28600001
v 0.76993978 1.29005450 -0.28440151
v 0.75000459 1.28999972 -0.28600001
v 0.76999515 1.01020473 -0.28439459
v 0.76999515 1.28999972 -0.28439459
v 0.76979446 1.01020473 -0.28441536
f 1 2 6
f 1 6 11
f 1 11 16
f 1 16 21
f 1 21 27
f 1 27 33
f 1 33 38
f 1 38 36
f 1 36 30
f 1 30 24
f 1 24 18
f 1 18 13
f 1 13 9
f 1 9 3
f 1 3 4
f 1 4 5
f 1 5 2
f 2 5 7
f 2 7 8
f 2 8 6
f 3 9 10
f 3 10 4
f 4 10 5
f 5 10 15
f 5 15 20
f 5 20 25
f 5 25 32
f 5 32 34
f 5 34 28
f 5 28 23
f 5 23 17
f 5 17 12
f 5 12 8
f 5 8 7
f 6 8 12
f 6 12 11
f 9 13 19
f 9 19 14
f 9 14 10
f 10 14 15
f 11 12 17
f 11 17 16
f 13 18 26
f 13 26 19
f 14 19 15
f 15 19 20
f 16 17 22
f 16 22 23
f 16 23 21
f 17 23 22
f 18 24 25
f 18 25 26
f 19 26 20
f 20 26 25
f 21 23 27
f 23 28 29
f 23 29 27
f 24 30 31
f 24 31 25
f 25 31 32
f 27 29 35
f 27 35 33
f 28 34 35
f 28 35 29
f 30 36 37
f 30 37 31
f 31 37 32
f 32 37 34
f 33 35 38
f 34 37 36
f 34 36 38
f 34 38 35

