# https://github.com/mikedh/trimesh
v -0.75806737 0.51884246 -0.19021116
v -0.75822759 0.51831692 -0.19021116
v -0.76151419 0.51884246 -0.19021116
v -0.75808668 0.51884246 0.18591006
v -0.75835961 0.51830867 -0.19021116
v -0.75823838 0.51843002 0.18591006
v -0.76286626 0.51875746 -0.19021116
v -0.76279622 0.51884246 -0.18999025
v -0.75888908 0.51884246 0.18591006
v -0.76264685 0.51830867 -0.19021116
v -0.76257449 0.51843002 0.18591006
v -0.76275116 0.51879111 0.18591006
v -0.76279622 0.51884246 -0.18921711
v -0.76269948 0.51884246 0.17041016
f 1 2 5
f 1 5 10
f 1 10 7
f 1 7 3
f 1 3 8
f 1 8 13
f 1 13 14
f 1 14 9
f 1 9 4
f 1 4 2
f 2 4 6
f 2 6 5
f 3 7 8
f 4 9 12
f 4 12 11
f 4 11 6
f 5 6 11
f 5 11 10
f 7 12 13
f 7 13 8
f 7 10 12
f 9 14 12
f 10 11 12
f 12 14 13

