# https://github.com/mikedh/trimesh
v -0.69015974 1.38876963 -0.00001497
v -0.69016778 1.38877666 0.19226636
v -0.69015974 1.36870655 -0.00001497
v -0.69015974 1.38876963 -0.19012533
v -0.69016778 1.36870655 0.19226636
v -0.69016778 1.38877666 -0.00001497
v -0.73225230 1.38924700 0.19226636
v -0.75811195 1.31762218 0.19226636
v -0.69015974 1.36870655 -0.19012533
v -0.73001522 1.38877666 -0.19012533
v -0.75007623 1.38839057 0.19226636
v -0.74999547 1.38785002 -0.19012533
v -0.76334530 1.31753093 0.19226636
v -0.75822502 1.31835228 -0.19012533
v -0.75234562 1.38801149 0.19226636
v -0.76402366 1.38346955 -0.19012533
v -0.76905507 1.33001244 0.19226636
v -0.76825553 1.32987908 -0.19012533
v -0.76261038 1.31834525 -0.19012533
v -0.76465362 1.38415051 0.19226636
v -0.77046031 1.36999121 -0.19012533
v -0.77032304 1.37233588 0.19226636
v -0.77266508 1.35000533 0.19226636
v -0.77213204 1.34985793 -0.19012533
v -0.76829594 1.33000544 -0.19012533
v -0.77214819 1.35000533 -0.19012533
v -0.77253586 1.35274312 0.19226636
v -0.77107412 1.36999121 0.19226636
f 1 2 5
f 1 5 3
f 1 3 9
f 1 9 4
f 1 4 6
f 1 6 2
f 2 6 7
f 2 7 11
f 2 11 15
f 2 15 20
f 2 20 22
f 2 22 28
f 2 28 27
f 2 27 23
f 2 23 17
f 2 17 13
f 2 13 8
f 2 8 5
f 3 5 8
f 3 8 9
f 4 9 14
f 4 14 19
f 4 19 18
f 4 18 25
f 4 25 24
f 4 24 26
f 4 26 21
f 4 21 16
f 4 16 12
f 4 12 10
f 4 10 7
f 4 7 6
f 7 10 12
f 7 12 11
f 8 13 14
f 8 14 9
f 11 12 15
f 12 16 15
f 13 17 18
f 13 18 19
f 13 19 14
f 15 16 20
f 16 21 22
f 16 22 20
f 17 23 24
f 17 24 25
f 17 25 18
f 21 26 27
f 21 27 28
f 21 28 22
f 23 27 26
f 23 26 24

