# https://github.com/mikedh/trimesh
v 0.76999503 0.20990866 -0.21527475
v 0.76989120 0.20990866 -0.21528168
v 0.78213030 0.20990866 -0.21787088
v 0.78213030 0.43129522 -0.21787088
v 0.76999503 0.43129522 -0.21555167
v 0.75725055 0.20990866 -0.21740703
v 0.78512776 0.20990866 -0.23000687
v 0.78512776 0.43129522 -0.23000687
v 0.75842047 0.43129522 -0.21754549
v 0.71741116 0.20990866 -0.25725576
v 0.75761747 0.43129522 -0.21768396
v 0.71768802 0.43129522 -0.25761575
v 0.78600001 0.20990866 -0.25000048
v 0.78600001 0.43129522 -0.25000048
v 0.71527898 0.20990866 -0.26999405
v 0.71555591 0.43129522 -0.26999405
v 0.78439397 0.20990866 -0.26999405
v 0.78589618 0.43129522 -0.25129506
v 0.71786803 0.20990866 -0.28213006
v 0.71786803 0.43129522 -0.28213006
v 0.78139651 0.20990866 -0.28139621
v 0.78420013 0.43129522 -0.27073482
v 0.78439397 0.43129522 -0.26999405
v 0.73000330 0.20990866 -0.28512773
v 0.73000330 0.43129522 -0.28512773
v 0.76999503 0.20990866 -0.28439388
v 0.78139651 0.43129522 -0.28139621
v 0.75000262 0.20990866 -0.28600001
v 0.75000262 0.43129522 -0.28600001
v 0.76999503 0.43129522 -0.28439388
f 1 2 6
f 1 6 10
f 1 10 15
f 1 15 19
f 1 19 24
f 1 24 28
f 1 28 26
f 1 26 21
f 1 21 17
f 1 17 13
f 1 13 7
f 1 7 3
f 1 3 4
f 1 4 5
f 1 5 2
f 2 5 6
f 3 7 8
f 3 8 4
f 4 8 14
f 4 14 18
f 4 18 23
f 4 23 22
f 4 22 27
f 4 27 30
f 4 30 29
f 4 29 25
f 4 25 20
f 4 20 16
f 4 16 12
f 4 12 11
f 4 11 9
f 4 9 5
f 5 9 6
f 6 9 11
f 6 11 12
f 6 12 10
f 7 13 14
f 7 14 8
f 10 12 16
f 10 16 15
f 13 17 18
f 13 18 14
f 15 16 20
f 15 20 19
f 17 21 22
f 17 22 23
f 17 23 18
f 19 20 25
f 19 25 24
f 21 26 30
f 21 30 27
f 21 27 22
f 24 25 29
f 24 29 28
f 26 28 29
f 26 29 30

