# https://github.com/mikedh/trimesh
v -0.75008219 1.69010913 -0.28599063
v -0.74998838 1.71001357 -0.28599063
v -0.73000801 1.71001357 -0.28510118
v -0.73011118 1.69010913 -0.28510118
v -0.77004385 1.69010913 -0.28435212
v -0.76998758 1.81000531 -0.28435212
v -0.74999779 1.81000531 -0.28599063
v -0.74998838 1.80999357 -0.28599063
v -0.73000801 1.80999357 -0.28510118
v -0.71625620 1.75001025 -0.28210503
v -0.71650946 1.73001194 -0.28210503
v -0.71793532 1.69010913 -0.28210503
v -0.78140360 1.69010913 -0.28130919
v -0.78138483 1.71001357 -0.28135601
v -0.78138483 1.81000531 -0.28135601
v -0.73001736 1.81000531 -0.28510118
v -0.71787906 1.81000531 -0.28210503
v -0.71665955 1.76998514 -0.28210503
v -0.69016910 1.75017458 -0.27203992
v -0.69016910 1.75001025 -0.27203992
v -0.69016910 1.73001194 -0.26824793
v -0.69016910 1.71831101 -0.26258337
v -0.71544009 1.69010913 -0.27002689
v -0.78438658 1.69010913 -0.26998007
v -0.78438658 1.81000531 -0.26998007
v -0.69016910 1.76998514 -0.27030778
v -0.71531814 1.81000531 -0.26998007
v -0.69016910 1.78778887 -0.24999028
v -0.69016910 1.78341126 -0.26394102
v -0.69016910 1.77014947 -0.27026096
v -0.69015974 1.78876293 -0.19011453
v -0.69015974 1.76870590 -0.19011453
v -0.69016910 1.71831101 -0.25822964
v -0.71752256 1.69010913 -0.25762105
v -0.69016910 1.76870590 0.19226637
v -0.78599066 1.69010913 -0.24999028
v -0.78599066 1.81000531 -0.24999028
v -0.71744752 1.81000531 -0.25724652
v -0.69016910 1.78876293 0.19226637
v -0.69015974 1.78876293 -0.00004762
v -0.69016910 1.78876293 -0.23000050
v -0.69015974 1.76870590 -0.00004762
v -0.75759596 1.69010913 -0.21759465
v -0.75811189 1.71763033 0.19226637
v -0.78511828 1.69010913 -0.23000050
v -0.77266103 1.75001025 0.19226637
v -0.77252966 1.75273305 0.19226637
v -0.77106631 1.76998514 0.19226637
v -0.78511828 1.81000531 -0.23000050
v -0.75727701 1.81000531 -0.21740738
v -0.73225927 1.78923237 0.19226637
v -0.76333684 1.71753645 0.19226637
v -0.76998758 1.69010913 -0.21539435
v -0.78211653 1.69010913 -0.21782872
v -0.76904953 1.73001194 0.19226637
v -0.77031589 1.77232063 0.19226637
v -0.78211653 1.81000531 -0.21787554
v -0.76465011 1.78413892 0.19226637
v -0.75234288 1.78800011 0.19226637
v -0.76998758 1.81000531 -0.21530074
v -0.75007284 1.78837562 0.19226637
f 1 2 3
f 1 3 4
f 1 4 12
f 1 12 23
f 1 23 34
f 1 34 43
f 1 43 53
f 1 53 54
f 1 54 45
f 1 45 36
f 1 36 24
f 1 24 13
f 1 13 5
f 1 5 6
f 1 6 7
f 1 7 8
f 1 8 2
f 2 8 9
f 2 9 3
f 3 9 10
f 3 10 4
f 4 10 11
f 4 11 12
f 5 13 14
f 5 14 15
f 5 15 6
f 6 15 25
f 6 25 37
f 6 37 49
f 6 49 57
f 6 57 60
f 6 60 50
f 6 50 38
f 6 38 27
f 6 27 17
f 6 17 16
f 6 16 7
f 7 16 9
f 7 9 8
f 9 16 17
f 9 17 18
f 9 18 10
f 10 18 19
f 10 19 20
f 10 20 11
f 11 20 12
f 12 20 21
f 12 21 22
f 12 22 23
f 13 15 14
f 13 24 25
f 13 25 15
f 17 26 19
f 17 19 18
f 17 27 28
f 17 28 29
f 17 29 30
f 17 30 26
f 19 26 31
f 19 31 32
f 19 32 20
f 20 32 21
f 21 32 22
f 22 32 42
f 22 42 33
f 22 33 23
f 23 33 35
f 23 35 34
f 24 36 37
f 24 37 25
f 26 30 31
f 27 38 39
f 27 39 40
f 27 40 31
f 27 31 41
f 27 41 28
f 28 41 31
f 28 31 29
f 29 31 30
f 31 40 42
f 31 42 32
f 33 42 35
f 34 35 44
f 34 44 43
f 35 42 40
f 35 40 39
f 35 39 51
f 35 51 61
f 35 61 59
f 35 59 58
f 35 58 56
f 35 56 48
f 35 48 47
f 35 47 46
f 35 46 55
f 35 55 52
f 35 52 44
f 36 45 46
f 36 46 37
f 37 46 47
f 37 47 48
f 37 48 49
f 38 50 39
f 39 50 51
f 43 44 52
f 43 52 53
f 45 54 52
f 45 52 55
f 45 55 46
f 48 56 49
f 49 56 58
f 49 58 59
f 49 59 57
f 50 60 51
f 51 60 57
f 51 57 61
f 52 54 53
f 57 59 61

