# https://github.com/mikedh/trimesh
v -0.69015980 0.58877704 -0.14933717
v -0.75067914 0.59304807 -0.21096654
v -0.75080109 0.59304807 -0.21084616
v -0.76966703 0.59304807 -0.20997663
v -0.73000252 0.58877704 -0.14933717
v -0.69015980 0.56871480 -0.14933717
v -0.69015980 0.58877704 -0.22998911
v -0.70999205 0.59304807 -0.26963952
v -0.71088326 0.59304079 -0.25077748
v -0.71094894 0.59304807 -0.25076413
v -0.78212553 0.59304807 -0.21750806
v -0.74999428 0.58767295 -0.14933717
v -0.73066860 0.58874071 -0.14933717
v -0.75813735 0.51884249 -0.14933717
v -0.69015980 0.51884249 -0.25797451
v -0.69015980 0.58780369 -0.25000161
v -0.71044230 0.59304807 -0.27177989
v -0.77040815 0.56999320 -0.14933717
v -0.76397252 0.58327845 -0.14933717
v -0.78512758 0.59304807 -0.22998911
v -0.76269668 0.51884249 -0.14933717
v -0.69015980 0.51884249 -0.26285723
v -0.69015980 0.58342370 -0.26394078
v -0.71752530 0.59304807 -0.28212059
v -0.77205932 0.55066460 -0.14933717
v -0.77211559 0.55000359 -0.14933717
v -0.78599066 0.59304807 -0.24998823
v -0.78561538 0.51884249 -0.24114582
v -0.78512758 0.51884249 -0.22998911
v -0.76276237 0.51897323 -0.14933717
v -0.78212553 0.51884249 -0.21691947
v -0.69015980 0.51895145 -0.26291072
v -0.71695304 0.51884249 -0.28212059
v -0.69015980 0.57016027 -0.27026826
v -0.71665281 0.56999320 -0.28212059
v -0.71937340 0.59304807 -0.28258878
v -0.69015980 0.56999320 -0.27032179
v -0.69015980 0.55019245 -0.27206084
v -0.69015980 0.55000359 -0.27207422
v -0.76838177 0.53066772 -0.14933717
v -0.78380477 0.51884249 -0.22399607
v -0.78599066 0.51884249 -0.24998823
v -0.78463972 0.59304807 -0.26695070
v -0.76825047 0.53000674 -0.14933717
v -0.69015980 0.53000674 -0.26828843
v -0.73000252 0.51884249 -0.28513050
v -0.71650273 0.53000674 -0.28212059
v -0.71624941 0.55000359 -0.28212059
v -0.73000252 0.59304807 -0.28513050
v -0.78439581 0.51884249 -0.26998734
v -0.78439581 0.59304807 -0.26998734
v -0.74999428 0.51884249 -0.28600001
v -0.73305148 0.59304807 -0.28526425
v -0.78272593 0.51884249 -0.27635497
v -0.78185350 0.59304807 -0.27965915
v -0.74999428 0.59304807 -0.28600001
v -0.75884092 0.51884249 -0.28529102
v -0.78139377 0.51884249 -0.28139821
v -0.78139377 0.59304807 -0.28139821
v -0.76999539 0.59304807 -0.28439474
v -0.76999539 0.51884249 -0.28439474
v -0.77173096 0.59304807 -0.28393990
v -0.77503318 0.51884249 -0.28307039
f 1 2 3
f 1 3 4
f 1 4 5
f 1 5 13
f 1 13 12
f 1 12 19
f 1 19 18
f 1 18 25
f 1 25 26
f 1 26 40
f 1 40 44
f 1 44 30
f 1 30 21
f 1 21 14
f 1 14 6
f 1 6 15
f 1 15 22
f 1 22 32
f 1 32 45
f 1 45 39
f 1 39 38
f 1 38 37
f 1 37 34
f 1 34 23
f 1 23 16
f 1 16 7
f 1 7 8
f 1 8 9
f 1 9 10
f 1 10 2
f 2 10 8
f 2 8 17
f 2 17 24
f 2 24 36
f 2 36 49
f 2 49 53
f 2 53 56
f 2 56 60
f 2 60 62
f 2 62 59
f 2 59 55
f 2 55 51
f 2 51 43
f 2 43 27
f 2 27 20
f 2 20 11
f 2 11 4
f 2 4 3
f 4 11 12
f 4 12 13
f 4 13 5
f 6 14 15
f 7 16 8
f 8 16 17
f 8 10 9
f 11 18 19
f 11 19 12
f 11 20 18
f 14 21 31
f 14 31 41
f 14 41 29
f 14 29 28
f 14 28 42
f 14 42 50
f 14 50 54
f 14 54 58
f 14 58 63
f 14 63 61
f 14 61 57
f 14 57 52
f 14 52 46
f 14 46 33
f 14 33 22
f 14 22 15
f 16 23 17
f 17 23 24
f 18 20 25
f 20 26 25
f 20 27 28
f 20 28 29
f 20 29 26
f 21 30 31
f 22 33 32
f 23 34 24
f 24 35 36
f 24 34 37
f 24 37 38
f 24 38 39
f 24 39 35
f 26 29 41
f 26 41 40
f 27 42 28
f 27 43 42
f 30 44 31
f 31 44 40
f 31 40 41
f 32 33 45
f 33 46 47
f 33 47 39
f 33 39 45
f 35 48 49
f 35 49 36
f 35 39 48
f 39 47 48
f 42 43 50
f 43 51 50
f 46 52 53
f 46 53 49
f 46 49 48
f 46 48 47
f 50 51 54
f 51 55 54
f 52 56 53
f 52 57 56
f 54 55 58
f 55 59 58
f 56 57 60
f 57 61 60
f 58 59 62
f 58 62 63
f 60 61 62
f 61 63 62

