# https://github.com/mikedh/trimesh
v 0.73000145 0.58878097 -0.19009936
v 0.69019008 0.58878097 -0.19009936
v 0.74999624 0.58783585 -0.19009936
v 0.76999104 0.61009878 -0.21531364
v 0.75729269 0.61009878 -0.21744455
v 0.71744376 0.61009878 -0.25728425
v 0.71531487 0.61009878 -0.26999468
v 0.69019008 0.58881599 -0.23019251
v 0.69019008 0.56870583 -0.19009936
v 0.78214550 0.61009878 -0.21793270
v 0.76401699 0.58346027 -0.19009936
v 0.71785641 0.61009878 -0.28206673
v 0.69019008 0.58778334 -0.25019684
v 0.69019008 0.58780086 -0.24999972
v 0.69019008 0.51829919 -0.25816667
v 0.71768761 0.43131268 -0.25761282
v 0.75762093 0.43131268 -0.21768863
v 0.75823051 0.51836920 -0.19009936
v 0.78512788 0.60999379 -0.23000477
v 0.78512788 0.61009878 -0.23010802
v 0.77042246 0.57008851 -0.19009936
v 0.77046001 0.56998348 -0.19009936
v 0.78212678 0.60999379 -0.21787637
v 0.78212678 0.56998348 -0.21659970
v 0.72994518 0.61009878 -0.28511763
v 0.71787518 0.60999379 -0.28213245
v 0.69019008 0.56998348 -0.27033260
v 0.69019008 0.58342528 -0.26395863
v 0.69019008 0.51829919 -0.26263502
v 0.71555871 0.43131268 -0.26999468
v 0.71569002 0.43131268 -0.26919675
v 0.75841808 0.43131268 -0.21754782
v 0.76999104 0.43131268 -0.21555771
v 0.76260090 0.51835167 -0.19009936
v 0.78599066 0.60999379 -0.24999972
v 0.78599066 0.61009878 -0.25009358
v 0.78212678 0.54999587 -0.21617727
v 0.78512788 0.43131268 -0.23000477
v 0.78518414 0.43131268 -0.23130022
v 0.77213871 0.55011839 -0.19009936
v 0.71624333 0.54999587 -0.28213245
v 0.71664661 0.56998348 -0.28213245
v 0.74989313 0.61009878 -0.28599063
v 0.73000145 0.60999379 -0.28512701
v 0.73000145 0.43131268 -0.28512701
v 0.69019008 0.54999587 -0.27207866
v 0.69019008 0.52979821 -0.26823926
v 0.71787518 0.43131268 -0.28213245
v 0.77077883 0.43131268 -0.21570791
v 0.76828420 0.52999073 -0.19009936
v 0.78212678 0.43131268 -0.21787637
v 0.78599066 0.43131268 -0.24999972
v 0.78439635 0.60999379 -0.26999468
v 0.78437757 0.61009878 -0.27005100
v 0.78588748 0.43131268 -0.25129518
v 0.78439635 0.43131268 -0.26999468
v 0.77213871 0.54999587 -0.19009936
v 0.78212678 0.52999073 -0.21644011
v 0.78232372 0.43131268 -0.21865553
v 0.71650589 0.52999073 -0.28213245
v 0.76989728 0.61009878 -0.28440419
v 0.74999624 0.60999379 -0.28599063
v 0.74999624 0.43131268 -0.28599063
v 0.74870205 0.43131268 -0.28594369
v 0.69019008 0.54976833 -0.27205989
v 0.69019008 0.52999073 -0.26830494
v 0.78139526 0.60999379 -0.28139085
v 0.78133899 0.61009878 -0.28140962
v 0.78139526 0.43131268 -0.28139085
v 0.76999104 0.60999379 -0.28439480
v 0.76999104 0.43131268 -0.28439480
v 0.78065431 0.43131268 -0.28158799
f 1 2 9
f 1 9 18
f 1 18 34
f 1 34 50
f 1 50 57
f 1 57 40
f 1 40 22
f 1 22 21
f 1 21 11
f 1 11 3
f 1 3 4
f 1 4 2
f 2 4 5
f 2 5 6
f 2 6 7
f 2 7 8
f 2 8 14
f 2 14 13
f 2 13 28
f 2 28 27
f 2 27 46
f 2 46 65
f 2 65 66
f 2 66 47
f 2 47 29
f 2 29 15
f 2 15 9
f 3 10 4
f 3 11 10
f 4 10 20
f 4 20 36
f 4 36 54
f 4 54 68
f 4 68 61
f 4 61 43
f 4 43 25
f 4 25 12
f 4 12 7
f 4 7 6
f 4 6 5
f 7 12 13
f 7 13 14
f 7 14 8
f 9 15 16
f 9 16 17
f 9 17 18
f 10 19 20
f 10 11 21
f 10 21 22
f 10 22 23
f 10 23 24
f 10 24 19
f 12 25 26
f 12 26 27
f 12 27 28
f 12 28 13
f 15 29 30
f 15 30 31
f 15 31 16
f 16 31 30
f 16 30 48
f 16 48 45
f 16 45 64
f 16 64 63
f 16 63 71
f 16 71 72
f 16 72 69
f 16 69 56
f 16 56 55
f 16 55 52
f 16 52 39
f 16 39 38
f 16 38 59
f 16 59 51
f 16 51 49
f 16 49 33
f 16 33 32
f 16 32 17
f 17 32 18
f 18 32 33
f 18 33 34
f 19 35 36
f 19 36 20
f 19 24 37
f 19 37 38
f 19 38 39
f 19 39 35
f 22 40 23
f 23 40 24
f 24 40 37
f 25 41 42
f 25 42 26
f 25 43 44
f 25 44 45
f 25 45 41
f 26 42 46
f 26 46 27
f 29 47 48
f 29 48 30
f 33 49 34
f 34 49 51
f 34 51 50
f 35 39 52
f 35 52 36
f 36 53 54
f 36 52 55
f 36 55 56
f 36 56 53
f 37 40 57
f 37 57 58
f 37 58 38
f 38 58 59
f 41 46 42
f 41 45 60
f 41 60 46
f 43 61 62
f 43 62 63
f 43 63 64
f 43 64 44
f 44 64 45
f 45 48 60
f 46 60 48
f 46 48 65
f 47 66 48
f 48 66 65
f 50 51 57
f 51 59 58
f 51 58 57
f 53 67 54
f 53 56 69
f 53 69 67
f 54 67 68
f 61 68 70
f 61 70 71
f 61 71 63
f 61 63 62
f 67 69 68
f 68 69 72
f 68 72 71
f 68 71 70

