# https://github.com/mikedh/trimesh
v 0.73000145 1.38877264 -0.18986315
v 0.69019008 1.38877264 -0.18986315
v 0.74985558 1.38782391 -0.18986315
v 0.76965344 1.39207822 -0.20967208
v 0.74599171 1.39207822 -0.20606789
v 0.69019008 1.36870944 -0.18986315
v 0.70616150 1.39207822 -0.24608101
v 0.69019008 1.38881260 -0.23023385
v 0.74999624 1.38781393 -0.18986315
v 0.77121025 1.39207822 -0.21000144
v 0.69019008 1.31829676 -0.25817341
v 0.71753752 1.29006448 -0.25761819
v 0.75761157 1.29006448 -0.21753919
v 0.75825864 1.31839663 -0.18986315
v 0.70968777 1.39207822 -0.26962590
v 0.69019008 1.38780394 -0.25005221
v 0.76389509 1.38345975 -0.18986315
v 0.78212678 1.39207822 -0.21749213
v 0.69019008 1.31828678 -0.26263395
v 0.71540862 1.29006448 -0.26999289
v 0.76999104 1.29006448 -0.21541244
v 0.76257277 1.31839663 -0.18986315
v 0.71750939 1.39207822 -0.28213233
v 0.69019008 1.38342980 -0.26395139
v 0.69019008 1.38778397 -0.25019336
v 0.76403576 1.38333991 -0.18986315
v 0.78243625 1.39207822 -0.21875313
v 0.77042246 1.36999771 -0.18986315
v 0.77044123 1.36985791 -0.18986315
v 0.77212000 1.34999445 -0.18986315
v 0.78212678 1.36999771 -0.21659815
v 0.69019008 1.32981139 -0.26824254
v 0.71784705 1.29006448 -0.28209469
v 0.78213614 1.29006448 -0.21790619
v 0.76820916 1.32993123 -0.18986315
v 0.69019008 1.36999771 -0.27033168
v 0.73000145 1.39207822 -0.28512484
v 0.71664661 1.36999771 -0.28213233
v 0.69019008 1.34999445 -0.27208200
v 0.78512788 1.39207822 -0.23000801
v 0.78212678 1.33000115 -0.21644758
v 0.78212678 1.34999445 -0.21617468
v 0.69019008 1.33000115 -0.26829901
v 0.72997332 1.29006448 -0.28511545
v 0.69019008 1.34976473 -0.27206320
v 0.71650589 1.33000115 -0.28213233
v 0.78512788 1.29006448 -0.23005505
v 0.74791425 1.39207822 -0.28590593
v 0.73000145 1.31000784 -0.28512484
v 0.71624333 1.34999445 -0.28213233
v 0.78522164 1.39207822 -0.23207830
v 0.78512788 1.31000784 -0.23000801
v 0.74993998 1.29006448 -0.28599060
v 0.78599066 1.29006448 -0.25005221
v 0.78599066 1.31000784 -0.24999574
v 0.74999624 1.39207822 -0.28599060
v 0.78599066 1.39207822 -0.24999574
v 0.74999624 1.31000784 -0.28599060
v 0.76994419 1.29006448 -0.28440025
v 0.78438693 1.29006448 -0.27003053
v 0.78439635 1.31000784 -0.26999289
v 0.78583121 1.39207822 -0.25207543
v 0.76791847 1.39207822 -0.28456023
v 0.76999104 1.31000784 -0.28439084
v 0.78136712 1.29006448 -0.28140774
v 0.76999104 1.39207822 -0.28439084
v 0.78139526 1.31000784 -0.28139833
v 0.78408682 1.39207822 -0.27117860
v 0.78439635 1.39207822 -0.26999289
v 0.78021353 1.39207822 -0.28170887
v 0.78139526 1.39207822 -0.28139833
f 1 2 6
f 1 6 14
f 1 14 22
f 1 22 35
f 1 35 30
f 1 30 29
f 1 29 28
f 1 28 26
f 1 26 17
f 1 17 9
f 1 9 3
f 1 3 4
f 1 4 5
f 1 5 2
f 2 5 7
f 2 7 8
f 2 8 16
f 2 16 25
f 2 25 24
f 2 24 36
f 2 36 39
f 2 39 45
f 2 45 43
f 2 43 32
f 2 32 19
f 2 19 11
f 2 11 6
f 3 9 10
f 3 10 4
f 4 10 18
f 4 18 27
f 4 27 40
f 4 40 51
f 4 51 57
f 4 57 62
f 4 62 69
f 4 69 68
f 4 68 71
f 4 71 70
f 4 70 66
f 4 66 63
f 4 63 56
f 4 56 48
f 4 48 37
f 4 37 23
f 4 23 15
f 4 15 7
f 4 7 5
f 6 11 12
f 6 12 13
f 6 13 14
f 7 15 8
f 8 15 16
f 9 17 10
f 10 17 18
f 11 19 20
f 11 20 12
f 12 20 33
f 12 33 44
f 12 44 53
f 12 53 59
f 12 59 65
f 12 65 60
f 12 60 54
f 12 54 47
f 12 47 34
f 12 34 21
f 12 21 13
f 13 21 14
f 14 21 22
f 15 23 24
f 15 24 25
f 15 25 16
f 17 26 18
f 18 26 28
f 18 28 29
f 18 29 30
f 18 30 31
f 18 31 27
f 19 32 33
f 19 33 20
f 21 34 22
f 22 34 35
f 23 36 24
f 23 37 38
f 23 38 39
f 23 39 36
f 27 31 40
f 30 35 34
f 30 34 41
f 30 41 42
f 30 42 31
f 31 42 40
f 32 43 33
f 33 43 45
f 33 45 39
f 33 39 46
f 33 46 44
f 34 47 41
f 37 48 49
f 37 49 50
f 37 50 38
f 38 50 39
f 39 50 46
f 40 42 52
f 40 52 51
f 41 47 42
f 42 47 52
f 44 49 53
f 44 46 50
f 44 50 49
f 47 54 55
f 47 55 52
f 48 56 53
f 48 53 49
f 51 52 55
f 51 55 57
f 53 58 59
f 53 56 58
f 54 60 61
f 54 61 62
f 54 62 57
f 54 57 55
f 56 63 59
f 56 59 58
f 59 64 65
f 59 63 66
f 59 66 64
f 60 65 67
f 60 67 68
f 60 68 69
f 60 69 61
f 61 69 62
f 64 66 65
f 65 66 70
f 65 70 71
f 65 71 67
f 67 71 68

