# https://github.com/mikedh/trimesh
v 0.00005686 0.98877511 -0.21977326
v 0.00005686 0.96868758 -0.21977326
v 0.00005686 0.98877511 -0.23000041
v -0.68981832 0.98877511 -0.21977326
v 0.00005686 0.91856527 -0.25818002
v -0.68981832 0.96868758 -0.21977326
v -0.68981832 0.91835847 -0.25818002
v 0.00005686 0.98818917 -0.24012522
v -0.68981832 0.98774109 -0.25007609
v -0.68981832 0.98877511 -0.23011807
v 0.00005686 0.91856527 -0.26256967
v -0.68981832 0.91835847 -0.26254410
v 0.00005686 0.98761701 -0.24999934
v -0.68981832 0.98329481 -0.26393569
v 0.00005686 0.98539732 -0.25702378
v 0.00005686 0.98322588 -0.26387429
v 0.00005686 0.92421101 -0.26536819
v -0.68981832 0.92993947 -0.26820251
v -0.66996098 0.93000151 -0.26823324
v 0.00005686 0.93000151 -0.26823324
v -0.68981832 0.96999734 -0.27027455
v 0.00005686 0.97653233 -0.26710257
v 0.00005686 0.96999734 -0.27024898
v -0.68981832 0.95000632 -0.27203962
v 0.00005686 0.95000632 -0.27203962
f 1 2 5
f 1 5 11
f 1 11 17
f 1 17 20
f 1 20 25
f 1 25 23
f 1 23 22
f 1 22 16
f 1 16 15
f 1 15 13
f 1 13 8
f 1 8 3
f 1 3 10
f 1 10 4
f 1 4 6
f 1 6 2
f 2 6 7
f 2 7 5
f 3 8 9
f 3 9 10
f 4 10 9
f 4 9 14
f 4 14 21
f 4 21 24
f 4 24 18
f 4 18 12
f 4 12 7
f 4 7 6
f 5 7 12
f 5 12 11
f 8 13 9
f 9 13 15
f 9 15 16
f 9 16 14
f 11 12 17
f 12 18 19
f 12 19 20
f 12 20 17
f 14 16 22
f 14 22 23
f 14 23 21
f 18 24 19
f 19 24 25
f 19 25 20
f 21 23 25
f 21 25 24

