# https://github.com/mikedh/trimesh
v 0.00012437 1.76867223 -0.22285707
v 0.00012437 1.71857005 0.25813627
v 0.00012437 1.78877980 -0.22285707
v 0.70550859 1.76867223 -0.22285707
v 0.70550859 1.71308762 0.25735521
v 0.00012437 1.71857005 0.26252982
v 0.70550859 1.71248275 0.26711860
v 0.00012437 1.78877980 0.22996892
v 0.70550859 1.79170328 0.25056967
v 0.70281547 1.78887290 -0.22285707
v 0.70550859 1.78887290 -0.22285707
v 0.00012437 1.72435498 0.26541001
v 0.70550859 1.71248275 0.26789969
v 0.00012437 1.78761661 0.24998386
v 0.70550859 1.78836107 0.26858312
v 0.00012437 1.73000032 0.26819259
v 0.70550859 1.73000032 0.27375770
v 0.00012437 1.78322756 0.26384789
v 0.70550859 1.78604245 0.26965708
v 0.00012437 1.77669048 0.26702097
v 0.00012437 1.76999831 0.27024290
v 0.00012437 1.74012774 0.27014527
v 0.70550859 1.75000703 0.27585685
v 0.00012437 1.75000703 0.27200031
v 0.70550859 1.76999831 0.27483168
v 0.00012437 1.76011896 0.27112162
v 0.70550859 1.76871103 0.27492931
f 1 2 6
f 1 6 12
f 1 12 16
f 1 16 22
f 1 22 24
f 1 24 26
f 1 26 21
f 1 21 20
f 1 20 18
f 1 18 14
f 1 14 8
f 1 8 3
f 1 3 10
f 1 10 11
f 1 11 4
f 1 4 5
f 1 5 2
f 2 5 7
f 2 7 13
f 2 13 6
f 3 8 9
f 3 9 10
f 4 11 9
f 4 9 15
f 4 15 19
f 4 19 25
f 4 25 27
f 4 27 23
f 4 23 17
f 4 17 13
f 4 13 7
f 4 7 5
f 6 13 12
f 8 14 9
f 9 11 10
f 9 14 15
f 12 13 16
f 13 17 16
f 14 18 15
f 15 18 20
f 15 20 21
f 15 21 19
f 16 17 22
f 17 23 24
f 17 24 22
f 19 21 25
f 21 26 25
f 23 27 24
f 24 27 25
f 24 25 26

