# https://github.com/mikedh/trimesh
v 0.69019008 0.51831114 0.25817287
v 0.71755630 0.48989594 0.25761339
v 0.71542740 0.48989594 0.26999527
v 0.69019008 0.51831114 0.26263034
v 0.69019008 0.56872180 0.19230124
v 0.75762093 0.48989594 0.21756029
v 0.71787518 0.48989594 0.28212953
v 0.69019008 0.53001925 0.26829851
v 0.69019008 0.58879659 0.19230124
v 0.75810862 0.51762709 0.19230124
v 0.76999104 0.48989594 0.21542327
v 0.73000145 0.48989594 0.28512868
v 0.71650589 0.53001925 0.28212953
v 0.69019008 0.55001512 0.27207726
v 0.73000145 0.58882290 0.19230124
v 0.69019008 0.58879659 0.23000638
v 0.71555871 0.75865626 0.26999527
v 0.71768761 0.75865626 0.25761339
v 0.75762093 0.75865626 0.21768869
v 0.76999104 0.75865626 0.21555167
v 0.75955290 0.51752183 0.19230124
v 0.78212678 0.48989594 0.21787213
v 0.76336050 0.51752183 0.19230124
v 0.71624333 0.55001512 0.28212953
v 0.74999624 0.48989594 0.28600001
v 0.73000145 0.75865626 0.28512868
v 0.69019008 0.55025193 0.27206808
v 0.71787518 0.75865626 0.28212953
v 0.75008065 0.58842826 0.19230124
v 0.69019008 0.58782312 0.25000083
v 0.69019008 0.58345559 0.26395109
v 0.78212678 0.75865626 0.21787213
v 0.76467353 0.58419228 0.19230124
v 0.78512788 0.48989594 0.23000638
v 0.76834983 0.52773026 0.19230124
v 0.76907200 0.53001925 0.19230124
v 0.77240133 0.54722625 0.19230124
v 0.77267331 0.55001512 0.19230124
v 0.78212678 0.53001925 0.21644133
v 0.76999104 0.48989594 0.28439495
v 0.74999624 0.75865626 0.28600001
v 0.69019008 0.57001099 0.27032545
v 0.69019008 0.57022148 0.27026126
v 0.78383362 0.75865626 0.22475095
v 0.78212678 0.55001512 0.21617535
v 0.77108836 0.57001099 0.19230124
v 0.78513724 0.48989594 0.23013479
v 0.78512788 0.75865626 0.23000638
v 0.78139526 0.48989594 0.28139579
v 0.76999104 0.75865626 0.28439495
v 0.78599066 0.48989594 0.24999166
v 0.78599066 0.75865626 0.24999166
v 0.78439635 0.48989594 0.26999527
v 0.78139526 0.75865626 0.28139579
v 0.78598130 0.48989594 0.25012922
v 0.78509033 0.75865626 0.26133713
v 0.78439635 0.75865626 0.26999527
f 1 2 3
f 1 3 4
f 1 4 8
f 1 8 14
f 1 14 27
f 1 27 42
f 1 42 43
f 1 43 31
f 1 31 30
f 1 30 16
f 1 16 9
f 1 9 5
f 1 5 2
f 2 6 11
f 2 11 22
f 2 22 34
f 2 34 47
f 2 47 51
f 2 51 55
f 2 55 53
f 2 53 49
f 2 49 40
f 2 40 25
f 2 25 12
f 2 12 7
f 2 7 3
f 2 5 6
f 3 7 4
f 4 7 8
f 5 9 15
f 5 15 29
f 5 29 33
f 5 33 46
f 5 46 38
f 5 38 37
f 5 37 36
f 5 36 35
f 5 35 23
f 5 23 21
f 5 21 10
f 5 10 6
f 6 10 11
f 7 12 13
f 7 13 14
f 7 14 8
f 9 16 17
f 9 17 18
f 9 18 19
f 9 19 20
f 9 20 15
f 10 21 11
f 11 21 23
f 11 23 22
f 12 24 13
f 12 25 41
f 12 41 26
f 12 26 24
f 13 24 14
f 14 24 28
f 14 28 27
f 15 20 29
f 16 30 17
f 17 28 26
f 17 26 41
f 17 41 50
f 17 50 54
f 17 54 57
f 17 57 56
f 17 56 52
f 17 52 48
f 17 48 44
f 17 44 32
f 17 32 20
f 17 20 19
f 17 19 18
f 17 30 31
f 17 31 28
f 20 32 33
f 20 33 29
f 22 23 35
f 22 35 36
f 22 36 37
f 22 37 38
f 22 38 39
f 22 39 34
f 24 26 28
f 25 40 50
f 25 50 41
f 27 28 42
f 28 31 43
f 28 43 42
f 32 44 45
f 32 45 38
f 32 38 46
f 32 46 33
f 34 39 45
f 34 45 48
f 34 48 47
f 38 45 39
f 40 49 54
f 40 54 50
f 44 48 45
f 47 48 52
f 47 52 51
f 49 53 57
f 49 57 54
f 51 52 55
f 52 56 55
f 53 55 56
f 53 56 57

