# https://github.com/mikedh/trimesh
v -0.78599066 1.69010913 0.24999660
v -0.78512758 1.69010913 0.23000388
v -0.78439581 1.69010913 0.26999849
v -0.78599066 1.81000531 0.24999660
v -0.78212553 1.75000441 0.21617687
v -0.78212553 1.73000413 0.21644296
v -0.78214431 1.69010913 0.21792933
v -0.78512758 1.81000531 0.23000388
v -0.78139377 1.69010913 0.28139406
v -0.78439581 1.81000531 0.26999849
v -0.77266908 1.75000441 0.19226635
v -0.78212553 1.76999301 0.21659893
v -0.77005166 1.69010913 0.21543369
v -0.76905727 1.73000413 0.19226635
v -0.76334399 1.71753913 0.19226635
v -0.78212553 1.81000531 0.21787429
v -0.76999539 1.69010913 0.28439435
v -0.78139377 1.81000531 0.28139406
v -0.77253777 1.75272745 0.19226635
v -0.75766826 1.69010913 0.21751645
v -0.75811857 1.71762133 0.19226635
v -0.76999539 1.81000531 0.21530522
v -0.75235838 1.78800970 0.19226635
v -0.76466674 1.78414816 0.19226635
v -0.77032375 1.77232873 0.19226635
v -0.77108365 1.76999301 0.19226635
v -0.74999428 1.69010913 0.28600001
v -0.76999539 1.81000531 0.28439435
v -0.71761912 1.69010913 0.25760281
v -0.69015980 1.76871365 0.19226635
v -0.75729299 1.81000531 0.21744305
v -0.69015980 1.78877264 0.19226635
v -0.73226345 1.78924209 0.19226635
v -0.75007868 1.78838527 0.19226635
v -0.73000252 1.69010913 0.28512836
v -0.74999428 1.81000531 0.28600001
v -0.71540511 1.69010913 0.26993427
v -0.69015980 1.71831381 0.25817168
v -0.71745020 1.81000531 0.25729087
v -0.71531129 1.81000531 0.26998931
v -0.69015980 1.78880781 0.23015985
v -0.71783489 1.69010913 0.28206387
v -0.71650273 1.73000413 0.28212810
v -0.71624941 1.75000441 0.28212810
v -0.73000252 1.81000531 0.28512836
v -0.69015980 1.71831381 0.26252991
v -0.71787238 1.81000531 0.28212810
v -0.69015980 1.78777498 0.25016174
v -0.69015980 1.78779840 0.25000578
v -0.69015980 1.72985154 0.26823685
v -0.69015980 1.73000413 0.26829192
v -0.69015980 1.74981666 0.27205372
v -0.69015980 1.75000441 0.27207208
v -0.71665281 1.76999301 0.28212810
v -0.69015980 1.76999301 0.27031964
v -0.69015980 1.78342044 0.26394287
f 1 2 7
f 1 7 13
f 1 13 20
f 1 20 29
f 1 29 37
f 1 37 42
f 1 42 35
f 1 35 27
f 1 27 17
f 1 17 9
f 1 9 3
f 1 3 10
f 1 10 4
f 1 4 8
f 1 8 2
f 2 5 6
f 2 6 7
f 2 8 5
f 3 9 18
f 3 18 10
f 4 10 18
f 4 18 28
f 4 28 36
f 4 36 45
f 4 45 47
f 4 47 40
f 4 40 39
f 4 39 31
f 4 31 22
f 4 22 16
f 4 16 8
f 5 11 6
f 5 8 12
f 5 12 11
f 6 11 7
f 7 11 14
f 7 14 15
f 7 15 13
f 8 16 12
f 9 17 28
f 9 28 18
f 11 12 16
f 11 16 19
f 11 19 26
f 11 26 25
f 11 25 24
f 11 24 23
f 11 23 34
f 11 34 33
f 11 33 32
f 11 32 30
f 11 30 21
f 11 21 15
f 11 15 14
f 13 15 21
f 13 21 20
f 16 22 23
f 16 23 24
f 16 24 25
f 16 25 26
f 16 26 19
f 17 27 36
f 17 36 28
f 20 21 30
f 20 30 29
f 22 31 32
f 22 32 33
f 22 33 34
f 22 34 23
f 27 35 45
f 27 45 36
f 29 30 38
f 29 38 37
f 30 32 41
f 30 41 49
f 30 49 48
f 30 48 56
f 30 56 55
f 30 55 53
f 30 53 52
f 30 52 51
f 30 51 50
f 30 50 46
f 30 46 38
f 31 39 32
f 32 39 40
f 32 40 41
f 35 42 43
f 35 43 44
f 35 44 45
f 37 38 46
f 37 46 42
f 40 47 48
f 40 48 49
f 40 49 41
f 42 46 50
f 42 50 51
f 42 51 52
f 42 52 53
f 42 53 43
f 43 53 44
f 44 53 54
f 44 54 45
f 45 54 47
f 47 55 56
f 47 56 48
f 47 54 53
f 47 53 55

