# https://github.com/mikedh/trimesh
v -0.68988585 0.18878114 0.19221915
v -0.73220557 0.18923724 0.19221915
v -0.68988585 0.17084497 0.19221915
v -0.68988585 0.18878114 -0.17657526
v -0.75007981 0.18838114 0.19221915
v -0.73000169 0.18878114 -0.17657526
v -0.68990207 0.16871172 0.19221915
v -0.68988585 0.16871172 0.19008929
v -0.68988585 0.16871172 -0.17657526
v -0.75230801 0.18800926 0.19221915
v -0.74999881 0.18772155 -0.17657526
v -0.75811756 0.11764002 0.19221915
v -0.75823098 0.11853123 -0.17657526
v -0.76464820 0.18413574 0.19221915
v -0.76397574 0.18332875 -0.17657526
v -0.76333559 0.11755580 0.19221915
v -0.76257396 0.11853123 -0.17657526
v -0.77032810 0.17228353 0.19221915
v -0.77041727 0.16999590 -0.17657526
v -0.76904792 0.13000447 0.19221915
v -0.76825386 0.13000447 -0.17657526
v -0.76638216 0.12618709 -0.17657526
v -0.77106547 0.16999590 0.19221915
v -0.77211881 0.15000367 -0.17657526
v -0.77265358 0.15000367 0.19221915
v -0.77253199 0.15267730 0.19221915
f 1 2 5
f 1 5 10
f 1 10 14
f 1 14 18
f 1 18 23
f 1 23 26
f 1 26 25
f 1 25 20
f 1 20 16
f 1 16 12
f 1 12 7
f 1 7 3
f 1 3 8
f 1 8 9
f 1 9 4
f 1 4 2
f 2 4 6
f 2 6 5
f 3 7 8
f 4 9 13
f 4 13 17
f 4 17 22
f 4 22 21
f 4 21 24
f 4 24 19
f 4 19 15
f 4 15 11
f 4 11 6
f 5 6 11
f 5 11 10
f 7 12 8
f 8 12 9
f 9 12 13
f 10 11 14
f 11 15 14
f 12 16 13
f 13 16 17
f 14 15 19
f 14 19 18
f 16 20 21
f 16 21 22
f 16 22 17
f 18 19 23
f 19 24 23
f 20 25 24
f 20 24 21
f 23 24 26
f 24 25 26

