# https://github.com/mikedh/trimesh
v -0.69015980 1.38877943 -0.19013470
v -0.69015980 1.38877943 -0.23000115
v -0.71555519 1.47655553 -0.26999900
v -0.71768475 1.47655553 -0.25762051
v -0.75762135 1.47655553 -0.21768835
v -0.76594263 1.47655553 -0.21625248
v -0.76999539 1.47655553 -0.21555801
v -0.73000252 1.38877943 -0.19013470
v -0.69015980 1.36871737 -0.19013470
v -0.69015980 1.38779277 -0.25000009
v -0.71787238 1.47655553 -0.28212410
v -0.69015980 1.38342589 -0.26394582
v -0.77814782 1.47655553 -0.21711588
v -0.76402885 1.38346243 -0.19013470
v -0.75000364 1.38784757 -0.19013470
v -0.75823110 1.31836122 -0.19013470
v -0.75762135 1.28989428 -0.21755697
v -0.71756279 1.28989428 -0.25762051
v -0.69015980 1.31830639 -0.25817421
v -0.72185010 1.47655553 -0.28310952
v -0.69015980 1.37017909 -0.27027115
v -0.69015980 1.37001464 -0.27031809
v -0.69015980 1.35020837 -0.27206364
v -0.69015980 1.35000739 -0.27207303
v -0.71624941 1.35000739 -0.28212410
v -0.78212553 1.47655553 -0.21787605
v -0.77046448 1.37001464 -0.19013470
v -0.76261222 1.31834295 -0.19013470
v -0.76999539 1.28989428 -0.21542662
v -0.71542382 1.28989428 -0.26999900
v -0.69015980 1.31830639 -0.26262259
v -0.73000252 1.47655553 -0.28512722
v -0.69015980 1.33000013 -0.26829097
v -0.71787238 1.28989428 -0.28212410
v -0.71650273 1.33000013 -0.28212410
v -0.73000252 1.28989428 -0.28512722
v -0.78512758 1.47655553 -0.23000115
v -0.78212553 1.35000739 -0.21617740
v -0.77214372 1.35000739 -0.19013470
v -0.76825982 1.32989052 -0.19013470
v -0.78212553 1.28989428 -0.21787605
v -0.74999428 1.47655553 -0.28599063
v -0.74989110 1.28989428 -0.28599063
v -0.78570920 1.47655553 -0.24344014
v -0.78513694 1.28989428 -0.23011377
v -0.78512758 1.28989428 -0.23000115
v -0.78212553 1.33000013 -0.21644017
v -0.77213436 1.34986120 -0.19013470
v -0.76829737 1.33000013 -0.19013470
v -0.75655186 1.47655553 -0.28547448
v -0.74999428 1.28989428 -0.28599063
v -0.78599066 1.47655553 -0.24999070
v -0.78599066 1.28989428 -0.24999070
v -0.76999539 1.47655553 -0.28439522
v -0.76989222 1.28989428 -0.28440461
v -0.78492117 1.47655553 -0.26343906
v -0.78599066 1.28989428 -0.25010332
v -0.78139377 1.47655553 -0.28139210
v -0.76999539 1.28989428 -0.28439522
v -0.78439581 1.47655553 -0.26999900
v -0.78439581 1.28989428 -0.26999900
v -0.78237885 1.47655553 -0.27765697
v -0.78139377 1.28989428 -0.28139210
f 1 2 3
f 1 3 4
f 1 4 5
f 1 5 6
f 1 6 7
f 1 7 8
f 1 8 15
f 1 15 14
f 1 14 27
f 1 27 39
f 1 39 48
f 1 48 49
f 1 49 40
f 1 40 28
f 1 28 16
f 1 16 9
f 1 9 19
f 1 19 31
f 1 31 33
f 1 33 24
f 1 24 23
f 1 23 22
f 1 22 21
f 1 21 12
f 1 12 10
f 1 10 2
f 2 10 3
f 3 11 20
f 3 20 32
f 3 32 42
f 3 42 50
f 3 50 54
f 3 54 58
f 3 58 62
f 3 62 60
f 3 60 56
f 3 56 52
f 3 52 44
f 3 44 37
f 3 37 26
f 3 26 13
f 3 13 7
f 3 7 6
f 3 6 5
f 3 5 4
f 3 10 12
f 3 12 11
f 7 13 14
f 7 14 15
f 7 15 8
f 9 16 17
f 9 17 18
f 9 18 19
f 11 12 21
f 11 21 22
f 11 22 23
f 11 23 24
f 11 24 25
f 11 25 20
f 13 26 14
f 14 26 27
f 16 28 29
f 16 29 17
f 17 29 41
f 17 41 46
f 17 46 45
f 17 45 53
f 17 53 57
f 17 57 61
f 17 61 63
f 17 63 59
f 17 59 55
f 17 55 51
f 17 51 43
f 17 43 36
f 17 36 34
f 17 34 30
f 17 30 18
f 18 30 19
f 19 30 31
f 20 25 32
f 24 33 34
f 24 34 35
f 24 35 25
f 25 35 36
f 25 36 32
f 26 37 38
f 26 38 39
f 26 39 27
f 28 40 41
f 28 41 29
f 30 34 31
f 31 34 33
f 32 36 43
f 32 43 42
f 34 36 35
f 37 44 45
f 37 45 46
f 37 46 38
f 38 46 47
f 38 47 39
f 39 47 41
f 39 41 48
f 40 49 41
f 41 49 48
f 41 47 46
f 42 43 51
f 42 51 50
f 44 52 45
f 45 52 53
f 50 51 55
f 50 55 54
f 52 56 57
f 52 57 53
f 54 55 59
f 54 59 63
f 54 63 58
f 56 60 57
f 57 60 61
f 58 63 62
f 60 62 61
f 61 62 63

