# https://github.com/mikedh/trimesh
v -0.75000364 1.98999047 0.28600001
v -0.73000568 1.98999047 0.28512806
v -0.73000568 2.00329208 0.28256071
v -0.75000364 2.00383103 0.28299668
v -0.76999468 2.00284934 0.28219396
v -0.76999468 1.98999047 0.28439453
v -0.75000364 1.81002462 0.28600001
v -0.71786851 1.98999047 0.28213167
v -0.71858126 2.00184834 0.28141889
v -0.73000568 1.81002462 0.28512806
v -0.73000568 2.00666082 0.26999378
v -0.78219414 2.00284934 0.26999378
v -0.78092784 2.00125158 0.28092757
v -0.78139836 1.98999047 0.28139812
v -0.76999468 1.81002462 0.28439453
v -0.71555042 1.98999047 0.26999378
v -0.71786851 1.83000582 0.28213167
v -0.71531516 1.81002462 0.26999378
v -0.71777856 2.00288785 0.26999378
v -0.71786851 1.81002462 0.28212476
v -0.71845669 2.00200236 0.25840953
v -0.76999468 2.00666082 0.23000246
v -0.78299683 2.00383103 0.25000158
v -0.78600001 1.98999047 0.25000158
v -0.78439462 1.98999047 0.26999378
v -0.78139836 1.81002462 0.28139812
v -0.71768862 1.98999047 0.25762063
v -0.71744639 1.81002462 0.25728846
v -0.75841111 2.00200236 0.21845971
v -0.75761533 1.98999047 0.21768466
v -0.78256088 2.00329208 0.23000246
v -0.76999468 2.00288785 0.21778154
v -0.78141916 2.00184834 0.21858427
v -0.78512812 1.98999047 0.23000246
v -0.78600001 1.81002462 0.25000158
v -0.78439462 1.81002462 0.26999378
v -0.75729012 1.81002462 0.21743554
v -0.76999468 1.98999047 0.21555327
v -0.78213185 1.98999047 0.21787150
v -0.78512812 1.81002462 0.23000246
v -0.77000159 1.81002462 0.21531107
v -0.78213185 1.81002462 0.21787150
f 1 2 3
f 1 3 4
f 1 4 5
f 1 5 6
f 1 6 15
f 1 15 7
f 1 7 10
f 1 10 2
f 2 8 9
f 2 9 3
f 2 10 17
f 2 17 8
f 3 11 4
f 3 9 11
f 4 11 5
f 5 12 13
f 5 13 6
f 5 11 22
f 5 22 12
f 6 13 14
f 6 14 26
f 6 26 15
f 7 15 26
f 7 26 36
f 7 36 35
f 7 35 40
f 7 40 42
f 7 42 41
f 7 41 37
f 7 37 28
f 7 28 18
f 7 18 20
f 7 20 10
f 8 16 9
f 8 17 18
f 8 18 16
f 9 19 11
f 9 16 19
f 10 20 17
f 11 19 21
f 11 21 22
f 12 22 23
f 12 23 24
f 12 24 25
f 12 25 13
f 13 25 14
f 14 25 36
f 14 36 26
f 16 27 21
f 16 21 19
f 16 18 28
f 16 28 27
f 17 20 18
f 21 29 22
f 21 27 30
f 21 30 29
f 22 31 23
f 22 29 32
f 22 32 33
f 22 33 31
f 23 31 24
f 24 31 34
f 24 34 40
f 24 40 35
f 24 35 36
f 24 36 25
f 27 28 37
f 27 37 30
f 29 30 38
f 29 38 32
f 30 37 38
f 31 33 34
f 32 38 33
f 33 38 39
f 33 39 34
f 34 39 42
f 34 42 40
f 37 41 38
f 38 41 39
f 39 41 42

