# https://github.com/mikedh/trimesh
v -0.69015974 1.35000065 -0.27207875
v -0.69015974 1.33019885 -0.26829618
v -0.69015974 1.36999562 -0.27031028
v 0.00005680 1.35000065 -0.27202964
v 0.00005680 1.33987895 -0.27011380
v -0.69015974 1.33000565 -0.26824704
v 0.00005680 1.33000565 -0.26819792
v -0.69015974 1.37016121 -0.27026117
v 0.00005680 1.36999562 -0.27021202
v 0.00005680 1.35987395 -0.27114540
v -0.69015974 1.31829709 -0.26259774
v 0.00005680 1.32421690 -0.26534870
v -0.69015974 1.38342220 -0.26392409
v 0.00005680 1.38322902 -0.26387498
v -0.69015974 1.31829709 -0.25827476
v 0.00005680 1.31856614 -0.26254860
v -0.69015974 1.38780344 -0.24997273
v 0.00005680 1.38761714 -0.24997273
v -0.69015974 1.31830397 -0.25812739
v 0.00005680 1.31856614 -0.25817654
v -0.69015974 1.38877627 -0.22997907
v 0.00005680 1.38877627 -0.22997907
v 0.00005680 1.38818979 -0.24009871
v -0.69015974 1.36865711 0.22977722
v 0.00005680 1.36865711 0.22977722
v -0.69015974 1.38877627 0.22977722
v 0.00005680 1.38877627 0.22977722
f 1 2 6
f 1 6 11
f 1 11 15
f 1 15 19
f 1 19 24
f 1 24 26
f 1 26 21
f 1 21 17
f 1 17 13
f 1 13 8
f 1 8 3
f 1 3 4
f 1 4 5
f 1 5 2
f 2 5 7
f 2 7 6
f 3 8 9
f 3 9 10
f 3 10 4
f 4 10 9
f 4 9 14
f 4 14 18
f 4 18 23
f 4 23 22
f 4 22 27
f 4 27 25
f 4 25 20
f 4 20 16
f 4 16 12
f 4 12 7
f 4 7 5
f 6 7 11
f 7 12 11
f 8 13 9
f 9 13 14
f 11 12 16
f 11 16 20
f 11 20 15
f 13 17 18
f 13 18 14
f 15 20 19
f 17 21 22
f 17 22 23
f 17 23 18
f 19 20 25
f 19 25 24
f 21 26 27
f 21 27 22
f 24 25 27
f 24 27 26

