# https://github.com/mikedh/trimesh
v -0.69015974 0.55000815 -0.27207875
v -0.69015974 0.53000370 -0.26828307
v -0.69015974 0.56999192 -0.27031100
v 0.00005680 0.55000815 -0.27202517
v 0.00005680 0.53988186 -0.27010438
v -0.69015974 0.51895368 -0.26291099
v 0.00005680 0.53000370 -0.26822951
v -0.69015974 0.57015735 -0.27025744
v 0.00005680 0.56999192 -0.27024212
v 0.00012439 0.51884341 -0.26271203
v -0.69015974 0.51885030 -0.26285744
v -0.69015974 0.58342013 -0.26393643
v 0.00005680 0.57652679 -0.26709694
v 0.00005680 0.58322021 -0.26386756
v 0.00005680 0.58539161 -0.25701854
v 0.00005680 0.58761817 -0.24999347
v 0.00005680 0.58877623 -0.23000501
v 0.00012439 0.51884341 -0.25807458
v 0.00012439 0.51856768 -0.26256663
v -0.68961918 0.51836777 -0.26249009
v -0.69015974 0.51885030 -0.25796744
v -0.69015974 0.58779737 -0.24999347
v 0.00005680 0.58877623 -0.19390026
v -0.69015974 0.58878314 -0.23000501
v 0.00005680 0.56870976 -0.19390026
v 0.00012439 0.51856768 -0.25818172
v -0.68961918 0.51836777 -0.25818172
v -0.69015974 0.56870976 -0.19390026
v -0.69015974 0.58877623 -0.19390026
f 1 2 6
f 1 6 11
f 1 11 21
f 1 21 28
f 1 28 29
f 1 29 24
f 1 24 22
f 1 22 12
f 1 12 8
f 1 8 3
f 1 3 4
f 1 4 5
f 1 5 2
f 2 5 7
f 2 7 6
f 3 8 9
f 3 9 4
f 4 9 10
f 4 10 5
f 5 10 7
f 6 7 10
f 6 10 11
f 8 12 9
f 9 13 10
f 9 12 13
f 10 13 14
f 10 14 15
f 10 15 16
f 10 16 17
f 10 17 23
f 10 23 18
f 10 18 26
f 10 26 19
f 10 19 11
f 11 20 27
f 11 27 21
f 11 19 20
f 12 22 16
f 12 16 15
f 12 15 14
f 12 14 13
f 16 22 17
f 17 22 24
f 17 24 23
f 18 23 25
f 18 25 26
f 19 26 27
f 19 27 20
f 21 27 28
f 23 24 29
f 23 29 28
f 23 28 25
f 25 28 27
f 25 27 26

