# https://github.com/mikedh/trimesh
v -0.78599066 1.28989428 0.24988650
v -0.78512758 1.28989428 0.23000388
v -0.78599066 1.28989428 0.24999660
v -0.78599066 1.47655553 0.24999660
v -0.78512758 1.47655553 0.23000388
v -0.78212553 1.35000739 0.21617687
v -0.78212553 1.33000013 0.21644296
v -0.78212553 1.28989428 0.21787429
v -0.78440523 1.28989428 0.26988840
v -0.78547466 1.47655553 0.25654769
v -0.78311056 1.47655553 0.22184713
v -0.77266908 1.35000739 0.19226635
v -0.78212553 1.47655553 0.21787429
v -0.76999539 1.28989428 0.21542451
v -0.76905727 1.33000013 0.19226635
v -0.76334399 1.31753901 0.19226635
v -0.78439581 1.28989428 0.26999849
v -0.78439581 1.47655553 0.26999849
v -0.77253777 1.35274810 0.19226635
v -0.76999539 1.47655553 0.21555296
v -0.76466674 1.38413846 0.19226635
v -0.77032375 1.37235337 0.19226635
v -0.77108365 1.37001464 0.19226635
v -0.75762135 1.28989428 0.21756232
v -0.75811857 1.31763035 0.19226635
v -0.78139377 1.28989428 0.28139406
v -0.78139377 1.47655553 0.28139406
v -0.76167411 1.47655553 0.21698429
v -0.69015980 1.38877943 0.19226635
v -0.73226345 1.38923621 0.19226635
v -0.75007868 1.38837746 0.19226635
v -0.75235838 1.38801202 0.19226635
v -0.71756279 1.28989428 0.25762117
v -0.69015980 1.36871737 0.19226635
v -0.76999539 1.28989428 0.28439435
v -0.76999539 1.47655553 0.28439435
v -0.75762135 1.47655553 0.21769078
v -0.71768475 1.47655553 0.25762117
v -0.71624941 1.47655553 0.26593390
v -0.71555519 1.47655553 0.26999849
v -0.69015980 1.38879770 0.23015985
v -0.71542382 1.28989428 0.26999849
v -0.69015980 1.31830639 0.25817168
v -0.74999428 1.28989428 0.28600001
v -0.74999428 1.47655553 0.28600001
v -0.71711248 1.47655553 0.27815524
v -0.69015980 1.38342589 0.26394287
v -0.69015980 1.38777450 0.25016174
v -0.69015980 1.38779277 0.25000578
v -0.71787238 1.28989428 0.28212810
v -0.69015980 1.31830639 0.26252991
v -0.73000252 1.28989428 0.28512836
v -0.74343669 1.47655553 0.28571558
v -0.71787238 1.47655553 0.28212810
v -0.69015980 1.37001464 0.27031964
v -0.69015980 1.32985395 0.26823685
v -0.69015980 1.33000013 0.26829192
v -0.69015980 1.34980640 0.27205372
v -0.69015980 1.35000739 0.27207208
v -0.71650273 1.33000013 0.28212810
v -0.71624941 1.35000739 0.28212810
v -0.73000252 1.47655553 0.28512836
v -0.72602481 1.47655553 0.28414664
f 1 2 8
f 1 8 14
f 1 14 24
f 1 24 33
f 1 33 42
f 1 42 50
f 1 50 52
f 1 52 44
f 1 44 35
f 1 35 26
f 1 26 17
f 1 17 9
f 1 9 3
f 1 3 4
f 1 4 5
f 1 5 2
f 2 6 7
f 2 7 8
f 2 5 6
f 3 9 10
f 3 10 4
f 4 10 18
f 4 18 27
f 4 27 36
f 4 36 45
f 4 45 53
f 4 53 62
f 4 62 63
f 4 63 54
f 4 54 46
f 4 46 40
f 4 40 39
f 4 39 38
f 4 38 37
f 4 37 28
f 4 28 20
f 4 20 13
f 4 13 11
f 4 11 5
f 5 11 6
f 6 12 7
f 6 11 13
f 6 13 12
f 7 12 8
f 8 12 15
f 8 15 16
f 8 16 14
f 9 17 18
f 9 18 10
f 12 19 23
f 12 23 22
f 12 22 21
f 12 21 32
f 12 32 31
f 12 31 30
f 12 30 29
f 12 29 34
f 12 34 25
f 12 25 16
f 12 16 15
f 12 13 19
f 13 20 21
f 13 21 22
f 13 22 23
f 13 23 19
f 14 16 25
f 14 25 24
f 17 26 27
f 17 27 18
f 20 28 29
f 20 29 30
f 20 30 31
f 20 31 32
f 20 32 21
f 24 25 34
f 24 34 33
f 26 35 36
f 26 36 27
f 28 37 29
f 29 37 38
f 29 38 39
f 29 39 40
f 29 40 41
f 29 41 49
f 29 49 48
f 29 48 47
f 29 47 55
f 29 55 59
f 29 59 58
f 29 58 57
f 29 57 56
f 29 56 51
f 29 51 43
f 29 43 34
f 33 34 43
f 33 43 42
f 35 44 45
f 35 45 36
f 40 46 47
f 40 47 48
f 40 48 49
f 40 49 41
f 42 43 51
f 42 51 50
f 44 52 53
f 44 53 45
f 46 54 47
f 47 54 55
f 50 51 56
f 50 56 57
f 50 57 58
f 50 58 59
f 50 59 60
f 50 60 52
f 52 60 61
f 52 61 62
f 52 62 53
f 54 63 61
f 54 61 59
f 54 59 55
f 59 61 60
f 61 63 62

