# https://github.com/mikedh/trimesh
v 0.73000145 0.18877316 -0.19009936
v 0.69019008 0.18877316 -0.19009936
v 0.74999624 0.18784040 -0.19009936
v 0.76999104 0.20990860 -0.21527609
v 0.76988792 0.20990860 -0.21528548
v 0.75725520 0.20990860 -0.21740702
v 0.71740621 0.20990860 -0.25725609
v 0.71528673 0.20990860 -0.26999468
v 0.69019008 0.18881559 -0.23019251
v 0.69019008 0.16869771 -0.19009936
v 0.76401699 0.18345225 -0.19009936
v 0.78212678 0.20990860 -0.21786699
v 0.71786577 0.20990860 -0.28213245
v 0.69019008 0.18777680 -0.25019684
v 0.69019008 0.18779802 -0.24999972
v 0.69019008 0.11828637 -0.25816667
v 0.71845663 -0.00199699 -0.25841075
v 0.75840873 -0.00199699 -0.21845838
v 0.75823051 0.11834997 -0.19009936
v 0.77042246 0.17009681 -0.19009936
v 0.78512788 0.20990860 -0.23000477
v 0.77046001 0.16999084 -0.19009936
v 0.77213871 0.15010613 -0.19009936
v 0.78212678 0.16999084 -0.21659970
v 0.69019008 0.16999084 -0.27032322
v 0.69019008 0.18343103 -0.26394925
v 0.73000145 0.20990860 -0.28512701
v 0.71664661 0.16999084 -0.28213245
v 0.69019008 0.14997894 -0.27207866
v 0.69019008 0.11826515 -0.26263502
v 0.71778136 -0.00288737 -0.26999468
v 0.73000145 -0.00663960 -0.26999468
v 0.76999104 -0.00663960 -0.23000477
v 0.76999104 -0.00288737 -0.21778250
v 0.76260090 0.11834997 -0.19009936
v 0.78599066 0.20990860 -0.24999972
v 0.78212678 0.14997894 -0.21617727
v 0.78512788 0.01000160 -0.23000477
v 0.77213871 0.14997894 -0.19009936
v 0.71624333 0.14997894 -0.28213245
v 0.74999624 0.20990860 -0.28599063
v 0.73000145 0.01000160 -0.28512701
v 0.69019008 0.14976692 -0.27205989
v 0.71787518 0.01000160 -0.28213245
v 0.69019008 0.12979740 -0.26823926
v 0.71857852 -0.00184870 -0.28141901
v 0.74999624 -0.00384140 -0.28299609
v 0.76999104 -0.00284505 -0.28219816
v 0.73000145 -0.00329018 -0.28256428
v 0.78219241 -0.00284505 -0.26999468
v 0.78299892 -0.00384140 -0.24999972
v 0.78255814 -0.00329018 -0.23000477
v 0.78141397 -0.00184870 -0.21858042
v 0.76828420 0.12998819 -0.19009936
v 0.78439635 0.20990860 -0.26999468
v 0.78599066 0.01000160 -0.24999972
v 0.78212678 0.01000160 -0.21787637
v 0.76999104 0.20990860 -0.28439480
v 0.74999624 0.01000160 -0.28599063
v 0.69019008 0.12998819 -0.26830494
v 0.76999104 0.01000160 -0.28439480
v 0.78092629 -0.00123394 -0.28093088
v 0.78439635 0.01000160 -0.26999468
v 0.78139526 0.20990860 -0.28139085
v 0.78139526 0.01000160 -0.28139085
f 1 2 10
f 1 10 19
f 1 19 35
f 1 35 54
f 1 54 39
f 1 39 23
f 1 23 22
f 1 22 20
f 1 20 11
f 1 11 3
f 1 3 4
f 1 4 2
f 2 4 5
f 2 5 6
f 2 6 7
f 2 7 8
f 2 8 9
f 2 9 15
f 2 15 14
f 2 14 26
f 2 26 25
f 2 25 29
f 2 29 43
f 2 43 60
f 2 60 45
f 2 45 30
f 2 30 16
f 2 16 10
f 3 11 12
f 3 12 4
f 4 12 21
f 4 21 36
f 4 36 55
f 4 55 64
f 4 64 58
f 4 58 41
f 4 41 27
f 4 27 13
f 4 13 8
f 4 8 7
f 4 7 6
f 4 6 5
f 8 13 14
f 8 14 15
f 8 15 9
f 10 16 17
f 10 17 18
f 10 18 19
f 11 20 12
f 12 20 22
f 12 22 23
f 12 23 24
f 12 24 21
f 13 25 26
f 13 26 14
f 13 27 28
f 13 28 29
f 13 29 25
f 16 30 31
f 16 31 17
f 17 31 32
f 17 32 33
f 17 33 18
f 18 33 34
f 18 34 19
f 19 34 35
f 21 24 37
f 21 37 38
f 21 38 56
f 21 56 36
f 23 39 37
f 23 37 24
f 27 40 28
f 27 41 59
f 27 59 42
f 27 42 40
f 28 40 29
f 29 40 44
f 29 44 43
f 30 45 46
f 30 46 31
f 31 46 32
f 32 47 48
f 32 48 33
f 32 46 49
f 32 49 47
f 33 48 50
f 33 50 51
f 33 51 52
f 33 52 53
f 33 53 34
f 34 53 35
f 35 53 54
f 36 56 63
f 36 63 55
f 37 39 57
f 37 57 38
f 38 57 53
f 38 53 52
f 38 52 56
f 39 54 53
f 39 53 57
f 40 42 44
f 41 58 61
f 41 61 59
f 42 59 49
f 42 49 46
f 42 46 44
f 43 44 46
f 43 46 60
f 45 60 46
f 47 49 59
f 47 59 48
f 48 59 61
f 48 61 62
f 48 62 50
f 50 62 63
f 50 63 56
f 50 56 51
f 51 56 52
f 55 63 65
f 55 65 64
f 58 64 65
f 58 65 61
f 61 65 62
f 62 65 63

