# https://github.com/mikedh/trimesh
v -0.74999368 0.50470567 0.28600001
v -0.73000079 0.50470567 0.28513193
v -0.76999396 0.50470567 0.28439623
v -0.74999368 0.21812093 0.28600001
v -0.72067368 0.50470567 0.28292489
v -0.73000079 0.21812093 0.28513193
v -0.77301717 0.50470567 0.28360173
v -0.77676857 0.21812093 0.28261593
v -0.76999396 0.21812093 0.28439623
v -0.71745926 0.50470567 0.28213039
v -0.71787119 0.21812093 0.28213039
v -0.78139538 0.50470567 0.28139472
v -0.78139538 0.21812093 0.28139472
v -0.71161145 0.50470567 0.27306694
v -0.71540701 0.21812093 0.26999918
v -0.78218979 0.50470567 0.27837846
v -0.78439647 0.21812093 0.26999918
v -0.71085382 0.50470567 0.26932237
v -0.71754014 0.21812093 0.25741923
v -0.78439647 0.50470567 0.26999918
v -0.78534538 0.21812093 0.25811809
v -0.78482312 0.50470567 0.26470235
v -0.71300167 0.50470567 0.25725001
v -0.75742298 0.21812093 0.21753854
v -0.78599268 0.21812093 0.24999630
v -0.78599268 0.50470567 0.24999630
v -0.75728321 0.50470567 0.21300679
v -0.76244694 0.21812093 0.21667044
v -0.76550692 0.50470567 0.21150604
v -0.78513205 0.21812093 0.23000078
v -0.78513205 0.50470567 0.23000078
v -0.76999396 0.21812093 0.21540508
v -0.76932460 0.50470567 0.21085128
v -0.78213090 0.21812093 0.21786958
v -0.78213090 0.50470567 0.21744289
v -0.77492231 0.21812093 0.21634674
f 1 2 5
f 1 5 10
f 1 10 14
f 1 14 18
f 1 18 23
f 1 23 27
f 1 27 29
f 1 29 33
f 1 33 35
f 1 35 31
f 1 31 26
f 1 26 22
f 1 22 20
f 1 20 16
f 1 16 12
f 1 12 7
f 1 7 3
f 1 3 9
f 1 9 4
f 1 4 6
f 1 6 2
f 2 6 5
f 3 7 8
f 3 8 9
f 4 9 8
f 4 8 13
f 4 13 17
f 4 17 21
f 4 21 25
f 4 25 30
f 4 30 34
f 4 34 36
f 4 36 32
f 4 32 28
f 4 28 24
f 4 24 19
f 4 19 15
f 4 15 11
f 4 11 6
f 5 6 10
f 6 11 10
f 7 12 8
f 8 12 13
f 10 11 14
f 11 15 14
f 12 16 13
f 13 16 17
f 14 15 18
f 15 19 18
f 16 20 17
f 17 20 22
f 17 22 21
f 18 19 23
f 19 24 23
f 21 22 25
f 22 26 25
f 23 24 27
f 24 28 29
f 24 29 27
f 25 26 31
f 25 31 30
f 28 32 33
f 28 33 29
f 30 31 35
f 30 35 34
f 32 36 33
f 33 36 34
f 33 34 35

