# https://github.com/mikedh/trimesh
v -0.74998629 0.51884463 0.28600001
v -0.74998629 0.50470704 0.28600001
v -0.73000371 0.69988215 0.28512815
v -0.74011290 0.69988215 0.28556898
v -0.74998629 0.69988215 0.28599021
v -0.76011425 0.69988215 0.28518692
v -0.76998770 0.50470704 0.28438359
v -0.73001313 0.50470704 0.28511834
v -0.73000371 0.51886374 0.28512815
v -0.76998770 0.51886374 0.28439340
v -0.71787649 0.69988215 0.28212065
v -0.71625453 0.55002373 0.28212065
v -0.76998770 0.69988215 0.28439340
v -0.78138876 0.50470704 0.28138590
v -0.72067726 0.50470704 0.28291413
v -0.71650916 0.53002095 0.28212065
v -0.78138876 0.51886374 0.28139570
v -0.71555668 0.69988215 0.26999268
v -0.69016123 0.55002373 0.27206951
v -0.69016123 0.57000741 0.27031595
v -0.69016123 0.58343810 0.26393849
v -0.78138876 0.69988215 0.28139570
v -0.78438753 0.50470704 0.26998287
v -0.78306735 0.51886374 0.27502802
v -0.71747100 0.50470704 0.28212065
v -0.69016123 0.58781311 0.25015494
v -0.69016123 0.58783221 0.24999820
v -0.69016123 0.58882567 0.23017025
v -0.69016123 0.58880657 0.19067112
v -0.71768790 0.69988215 0.25760999
v -0.69016123 0.54983270 0.27204993
v -0.68965197 0.51884463 0.26280209
v -0.78438753 0.69988215 0.26999268
v -0.78481191 0.50470704 0.26469281
v -0.78438753 0.51886374 0.26999268
v -0.78528345 0.51886374 0.25883457
v -0.71162432 0.50470704 0.27305895
v -0.68965197 0.51836699 0.26255721
v -0.69016123 0.52984902 0.26823911
v -0.69016123 0.53002095 0.26828811
v -0.68965197 0.51884463 0.25799206
v -0.73067325 0.58894029 0.19067112
v -0.76998770 0.69988215 0.21556380
v -0.76372606 0.69988215 0.21663161
v -0.75761527 0.69988215 0.21768962
v -0.69016123 0.56874648 0.19067112
v -0.75807738 0.51884463 0.18591985
v -0.78519857 0.69988215 0.25987297
v -0.78598124 0.50470704 0.24998839
v -0.78598124 0.69988215 0.24999820
v -0.78598124 0.51886374 0.24999820
v -0.71086991 0.50470704 0.26931673
v -0.68965197 0.51836699 0.25824678
v -0.75887895 0.51884463 0.18591985
v -0.76273584 0.51880643 0.18591985
v -0.75001454 0.58802328 0.19067112
v -0.75068408 0.58788955 0.19067112
v -0.76418811 0.58366737 0.19067112
v -0.77598524 0.69988215 0.21670018
v -0.75822824 0.51844344 0.18591985
v -0.78575492 0.50470704 0.24469833
v -0.78598124 0.51884463 0.24998839
v -0.78555691 0.69988215 0.23986870
v -0.78550977 0.51886374 0.23883028
v -0.71301055 0.50470704 0.25724754
v -0.76256615 0.51844344 0.18591985
v -0.78211486 0.50470704 0.21745451
v -0.76848829 0.53002095 0.19067112
v -0.77226979 0.55002373 0.19067112
v -0.77223206 0.55082613 0.19067112
v -0.77061951 0.57000741 0.19067112
v -0.77039319 0.57069519 0.19067112
v -0.78212428 0.69988215 0.21787575
v -0.75727582 0.50470704 0.21301673
v -0.76549894 0.50470704 0.21151789
v -0.76931810 0.50470704 0.21085173
v -0.78512311 0.50470704 0.23001350
v -0.78512311 0.69988215 0.23000371
v -0.78512311 0.51886374 0.23000371
v -0.78212428 0.53002095 0.21644548
v -0.78212428 0.55002373 0.21618098
f 1 2 9
f 1 9 3
f 1 3 4
f 1 4 5
f 1 5 6
f 1 6 2
f 2 7 14
f 2 14 23
f 2 23 34
f 2 34 49
f 2 49 61
f 2 61 77
f 2 77 67
f 2 67 76
f 2 76 75
f 2 75 74
f 2 74 65
f 2 65 52
f 2 52 37
f 2 37 25
f 2 25 15
f 2 15 8
f 2 8 9
f 2 6 10
f 2 10 7
f 3 11 18
f 3 18 30
f 3 30 45
f 3 45 44
f 3 44 43
f 3 43 59
f 3 59 73
f 3 73 78
f 3 78 63
f 3 63 50
f 3 50 48
f 3 48 33
f 3 33 22
f 3 22 13
f 3 13 6
f 3 6 5
f 3 5 4
f 3 9 12
f 3 12 11
f 6 13 10
f 7 10 17
f 7 17 14
f 8 15 16
f 8 16 12
f 8 12 9
f 10 13 22
f 10 22 17
f 11 12 19
f 11 19 20
f 11 20 21
f 11 21 18
f 12 16 19
f 14 17 24
f 14 24 23
f 15 25 16
f 16 25 19
f 17 22 24
f 18 21 26
f 18 26 27
f 18 27 28
f 18 28 29
f 18 29 30
f 19 25 31
f 19 31 32
f 19 32 20
f 20 32 21
f 21 32 26
f 22 33 24
f 23 24 35
f 23 35 36
f 23 36 34
f 24 33 35
f 25 37 38
f 25 38 32
f 25 32 39
f 25 39 40
f 25 40 31
f 26 32 27
f 27 32 28
f 28 32 41
f 28 41 29
f 29 42 43
f 29 43 44
f 29 44 45
f 29 45 30
f 29 41 46
f 29 46 47
f 29 47 42
f 31 40 32
f 32 38 53
f 32 53 41
f 32 40 39
f 33 48 36
f 33 36 35
f 34 36 49
f 36 48 50
f 36 50 51
f 36 51 49
f 37 52 38
f 38 52 53
f 41 53 46
f 42 47 54
f 42 54 55
f 42 55 56
f 42 56 43
f 43 56 57
f 43 57 58
f 43 58 59
f 46 53 60
f 46 60 47
f 47 60 66
f 47 66 55
f 47 55 54
f 49 51 50
f 49 50 62
f 49 62 63
f 49 63 64
f 49 64 61
f 50 63 62
f 52 65 53
f 53 65 60
f 55 66 67
f 55 67 68
f 55 68 69
f 55 69 70
f 55 70 71
f 55 71 72
f 55 72 58
f 55 58 57
f 55 57 56
f 58 72 73
f 58 73 59
f 60 65 74
f 60 74 75
f 60 75 76
f 60 76 66
f 61 64 77
f 63 78 79
f 63 79 64
f 64 79 77
f 66 76 67
f 67 77 80
f 67 80 69
f 67 69 68
f 69 81 73
f 69 73 70
f 69 80 81
f 70 73 71
f 71 73 72
f 73 81 78
f 77 79 81
f 77 81 80
f 78 81 79

