# https://github.com/mikedh/trimesh
v 0.70557761 1.71242404 0.26715446
v 0.70557761 1.71242404 0.26791510
v 0.70557761 1.71302563 0.25736687
v 0.70706546 1.39207828 0.25063744
v 0.70557761 1.72999036 0.27379075
v 0.70557761 1.76867253 0.20671365
v 0.71067882 1.39207828 0.24591829
v 0.70968688 1.39207828 0.26962268
v 0.70557761 1.74996310 0.27585539
v 0.70557761 1.78876555 0.20671365
v 0.75736094 1.71266466 0.20671365
v 0.75063020 1.39207828 0.20694649
v 0.74582028 1.39207828 0.21067214
v 0.71001756 1.39207828 0.27119058
v 0.71624446 1.74996310 0.28212690
v 0.71787399 1.98999679 0.28212690
v 0.70557761 1.76867253 0.27494726
v 0.71750402 1.39207828 0.28212690
v 0.75062233 1.79201412 0.20671365
v 0.70557761 1.79165316 0.25058311
v 0.71555167 1.98999679 0.26999527
v 0.71845651 2.00196838 0.25840694
v 0.75840795 2.00196838 0.21845718
v 0.76999581 1.98999679 0.21555428
v 0.76782310 1.71206307 0.20671365
v 0.76830333 1.71206307 0.20671365
v 0.76894093 1.71332639 0.20671365
v 0.77432555 1.72944897 0.20671365
v 0.77637231 1.74894041 0.20671365
v 0.76964945 1.39207828 0.20966311
v 0.73000503 1.98999679 0.28513068
v 0.71876353 1.39207828 0.28243735
v 0.73000503 1.39207828 0.28513068
v 0.71858251 2.00184810 0.28142056
v 0.70557761 1.76999599 0.27483082
v 0.76896459 1.78870541 0.20671365
v 0.70557761 1.78834444 0.26858261
v 0.71777952 2.00287080 0.26999527
v 0.70557761 1.78599823 0.26969254
v 0.73000503 2.00666082 0.26999527
v 0.76999581 2.00666082 0.23000668
v 0.76999581 2.00287080 0.21778190
v 0.78141838 2.00184810 0.21858136
v 0.78212690 1.98999679 0.21787505
v 0.77530169 1.76999599 0.20671365
v 0.77638018 1.74996310 0.20671365
v 0.78212690 1.39207828 0.21749473
v 0.74999255 1.98999679 0.28600001
v 0.73000503 2.00329185 0.28256154
v 0.74999255 1.39207828 0.28600001
v 0.74999255 2.00383329 0.28299621
v 0.76999581 2.00281072 0.28219673
v 0.78299284 2.00383329 0.24999321
v 0.78255987 2.00329185 0.23000668
v 0.78219771 2.00281072 0.26999527
v 0.78512621 1.98999679 0.23000668
v 0.78212690 1.74996310 0.21617523
v 0.78512621 1.39207828 0.23000668
v 0.76999581 1.98999679 0.28439331
v 0.76999581 1.39207828 0.28439331
v 0.78093034 2.00124645 0.28093159
v 0.78600001 1.98999679 0.24999321
v 0.78439409 1.98999679 0.26999527
v 0.78600001 1.39207828 0.24999321
v 0.78139478 1.98999679 0.28139728
v 0.77118450 1.39207828 0.28408286
v 0.78170967 1.39207828 0.28020972
v 0.78439409 1.39207828 0.26999527
v 0.78139478 1.39207828 0.28139728
f 1 2 5
f 1 5 9
f 1 9 17
f 1 17 35
f 1 35 39
f 1 39 37
f 1 37 20
f 1 20 10
f 1 10 6
f 1 6 3
f 1 3 4
f 1 4 2
f 2 4 5
f 3 6 4
f 4 7 13
f 4 13 12
f 4 12 30
f 4 30 47
f 4 47 58
f 4 58 64
f 4 64 68
f 4 68 67
f 4 67 69
f 4 69 66
f 4 66 60
f 4 60 50
f 4 50 33
f 4 33 32
f 4 32 18
f 4 18 14
f 4 14 8
f 4 8 9
f 4 9 5
f 4 6 7
f 6 10 19
f 6 19 36
f 6 36 45
f 6 45 46
f 6 46 29
f 6 29 28
f 6 28 27
f 6 27 26
f 6 26 25
f 6 25 11
f 6 11 12
f 6 12 13
f 6 13 7
f 8 14 9
f 9 15 16
f 9 16 17
f 9 14 18
f 9 18 15
f 10 20 21
f 10 21 22
f 10 22 23
f 10 23 24
f 10 24 19
f 11 25 12
f 12 25 26
f 12 26 27
f 12 27 28
f 12 28 29
f 12 29 30
f 15 31 16
f 15 18 32
f 15 32 33
f 15 33 31
f 16 31 34
f 16 34 21
f 16 21 35
f 16 35 17
f 19 24 36
f 20 37 21
f 21 34 38
f 21 38 22
f 21 37 39
f 21 39 35
f 22 38 40
f 22 40 23
f 23 40 41
f 23 41 42
f 23 42 24
f 24 42 43
f 24 43 44
f 24 44 45
f 24 45 36
f 29 46 47
f 29 47 30
f 31 48 49
f 31 49 34
f 31 33 50
f 31 50 48
f 34 49 40
f 34 40 38
f 40 49 51
f 40 51 52
f 40 52 41
f 41 53 54
f 41 54 43
f 41 43 42
f 41 52 55
f 41 55 53
f 43 54 56
f 43 56 44
f 44 56 57
f 44 57 46
f 44 46 45
f 46 57 47
f 47 57 58
f 48 59 52
f 48 52 51
f 48 51 49
f 48 50 60
f 48 60 59
f 52 59 61
f 52 61 55
f 53 55 62
f 53 62 54
f 54 62 56
f 55 61 63
f 55 63 62
f 56 62 64
f 56 64 58
f 56 58 57
f 59 65 61
f 59 60 66
f 59 66 65
f 61 65 63
f 62 63 68
f 62 68 64
f 63 65 67
f 63 67 68
f 65 66 69
f 65 69 67

