# https://github.com/mikedh/trimesh
v -0.69015974 0.56870666 -0.19389260
v -0.68961918 0.51836777 0.25825831
v -0.69015974 0.51894012 0.25793904
v -0.69015974 0.58878016 -0.19389260
v 0.00005680 0.56870666 -0.19389260
v -0.68961918 0.51836777 0.26254582
v -0.69015974 0.51884359 0.26186168
v 0.00012439 0.51856774 0.25816709
v -0.69015974 0.58880085 0.23011577
v 0.00005680 0.58878016 -0.19389260
v 0.00012439 0.51884359 0.25807589
v -0.69015974 0.51884359 0.26286513
v 0.00012439 0.51856774 0.26254582
v -0.69015974 0.58780095 0.25000256
v 0.00005680 0.58878016 0.22997893
v 0.00012439 0.51884359 0.26268268
v 0.00005680 0.52436018 0.26541939
v 0.00005680 0.53000778 0.26820171
v -0.69015974 0.53000778 0.26829293
v -0.69015974 0.58778027 0.25013942
v 0.00005680 0.58761477 0.24995695
v 0.00005680 0.58544952 0.25684434
v 0.00005680 0.58322218 0.26386857
v 0.00005680 0.57668501 0.26701581
v 0.00005680 0.56999615 0.27020866
v 0.00005680 0.56012148 0.27112088
v 0.00005680 0.55001232 0.27203310
v -0.69015974 0.55001232 0.27207872
v -0.69015974 0.58342215 0.26391420
v -0.69015974 0.58324286 0.26400542
v -0.69015974 0.56999615 0.27029985
f 1 2 3
f 1 3 7
f 1 7 12
f 1 12 19
f 1 19 28
f 1 28 31
f 1 31 30
f 1 30 29
f 1 29 20
f 1 20 14
f 1 14 9
f 1 9 4
f 1 4 10
f 1 10 5
f 1 5 2
f 2 6 12
f 2 12 7
f 2 7 3
f 2 5 8
f 2 8 13
f 2 13 6
f 4 9 10
f 5 10 11
f 5 11 8
f 6 13 12
f 8 11 16
f 8 16 13
f 9 14 15
f 9 15 10
f 10 15 16
f 10 16 11
f 12 13 16
f 12 16 17
f 12 17 18
f 12 18 19
f 14 20 21
f 14 21 15
f 15 21 16
f 16 21 22
f 16 22 23
f 16 23 24
f 16 24 25
f 16 25 26
f 16 26 27
f 16 27 18
f 16 18 17
f 18 27 19
f 19 27 28
f 20 29 22
f 20 22 21
f 22 29 23
f 23 29 30
f 23 30 24
f 24 30 25
f 25 30 31
f 25 31 26
f 26 31 27
f 27 31 28

