# https://github.com/mikedh/trimesh
v 0.77267355 0.55000842 0.19228244
v 0.77108300 0.56998983 0.19228244
v 0.77239096 0.54721075 0.19228244
v 0.77214068 0.55000842 -0.19009936
v 0.77213258 0.55012703 -0.19009936
v 0.76466417 0.58415961 0.19228244
v 0.77045321 0.56998983 -0.19009936
v 0.77041286 0.57009447 -0.19009936
v 0.76906449 0.53000611 0.19228244
v 0.76828134 0.53000611 -0.19009936
v 0.75007451 0.58839449 0.19228244
v 0.76401824 0.58345494 -0.19009936
v 0.74999380 0.58784333 -0.19009936
v 0.76833785 0.52771774 0.19228244
v 0.76260531 0.51836193 -0.19009936
v 0.73001075 0.58879215 0.19228244
v 0.73001075 0.58877820 -0.19009936
v 0.76335621 0.51752472 0.19228244
v 0.75822115 0.51836193 -0.19009936
v 0.69020611 0.58877122 0.19228244
v 0.69019806 0.58877122 -0.19009936
v 0.69019806 0.58877122 0.00008095
v 0.75954527 0.51752472 0.19228244
v 0.69019806 0.56871307 -0.19009936
v 0.75810814 0.51760843 0.19228244
v 0.69020611 0.56870610 0.19228244
v 0.69019806 0.56871307 0.00008095
v 0.69020611 0.56870610 0.00008095
f 1 2 6
f 1 6 11
f 1 11 16
f 1 16 20
f 1 20 26
f 1 26 25
f 1 25 23
f 1 23 18
f 1 18 14
f 1 14 9
f 1 9 3
f 1 3 4
f 1 4 5
f 1 5 2
f 2 5 7
f 2 7 8
f 2 8 6
f 3 9 10
f 3 10 4
f 4 10 15
f 4 15 19
f 4 19 24
f 4 24 21
f 4 21 17
f 4 17 13
f 4 13 12
f 4 12 8
f 4 8 7
f 4 7 5
f 6 8 12
f 6 12 13
f 6 13 11
f 9 14 10
f 10 14 15
f 11 13 17
f 11 17 16
f 14 18 15
f 15 18 23
f 15 23 19
f 16 17 21
f 16 21 22
f 16 22 20
f 19 23 25
f 19 25 24
f 20 22 27
f 20 27 26
f 21 24 27
f 21 27 22
f 24 25 28
f 24 28 26
f 24 26 27
f 25 26 28

