# https://github.com/mikedh/trimesh
v -0.74999481 1.28986523 0.28600001
v -0.73010600 1.28986523 0.28513667
v -0.76999521 1.28986523 0.28439242
v -0.76695204 0.99304366 0.28463802
v -0.74999481 0.99304366 0.28600001
v -0.73000187 1.28986523 0.28512922
v -0.73000187 0.99304366 0.28512922
v -0.78139424 1.28986523 0.28139305
v -0.77966058 0.99304366 0.28185448
v -0.76999521 0.99304366 0.28439242
v -0.71787363 1.28986523 0.28212985
v -0.71752393 0.99304366 0.28212985
v -0.78439283 1.28986523 0.26999843
v -0.78393894 0.99304366 0.27173257
v -0.78139424 0.99304366 0.28139305
v -0.71542567 1.28986523 0.26999843
v -0.70998657 0.99304366 0.26964119
v -0.78440773 1.28986523 0.26989424
v -0.78439283 0.99304366 0.26999843
v -0.71755368 1.28986523 0.25762144
v -0.71089435 0.99304366 0.25078169
v -0.78600001 1.28986523 0.24999277
v -0.78600001 0.99304366 0.24999277
v -0.75762147 1.28986523 0.21755798
v -0.75067192 0.99304366 0.21077034
v -0.78512949 1.28986523 0.23000199
v -0.78526342 0.99304366 0.23304601
v -0.76999521 1.28986523 0.21542196
v -0.76966786 0.99304366 0.20997399
v -0.78213090 1.28986523 0.21787058
v -0.78213090 0.99304366 0.21751332
v -0.78258479 0.99304366 0.21935908
v -0.78512949 0.99304366 0.23000199
v -0.77180332 0.99304366 0.21042055
f 1 2 6
f 1 6 11
f 1 11 16
f 1 16 20
f 1 20 24
f 1 24 28
f 1 28 30
f 1 30 26
f 1 26 22
f 1 22 18
f 1 18 13
f 1 13 8
f 1 8 3
f 1 3 4
f 1 4 5
f 1 5 2
f 2 5 7
f 2 7 6
f 3 8 9
f 3 9 10
f 3 10 4
f 4 10 9
f 4 9 15
f 4 15 14
f 4 14 19
f 4 19 23
f 4 23 27
f 4 27 33
f 4 33 32
f 4 32 31
f 4 31 34
f 4 34 29
f 4 29 25
f 4 25 21
f 4 21 17
f 4 17 12
f 4 12 7
f 4 7 5
f 6 7 12
f 6 12 11
f 8 13 14
f 8 14 15
f 8 15 9
f 11 12 17
f 11 17 16
f 13 18 19
f 13 19 14
f 16 17 21
f 16 21 20
f 18 22 23
f 18 23 19
f 20 21 25
f 20 25 24
f 22 26 27
f 22 27 23
f 24 25 28
f 25 29 28
f 26 30 31
f 26 31 32
f 26 32 33
f 26 33 27
f 28 29 30
f 29 34 30
f 30 34 31

