# https://github.com/mikedh/trimesh
v -0.76966786 0.99304366 -0.20997399
v -0.78213090 0.99304366 -0.21751332
v -0.75081331 0.99304366 -0.21082988
v -0.76999521 1.28986523 -0.21542196
v -0.78213090 1.28986523 -0.21787058
v -0.78512949 0.99304366 -0.23000199
v -0.78512949 1.28986523 -0.23000199
v -0.75067192 0.99304366 -0.21087454
v -0.75762147 1.28986523 -0.21755798
v -0.78600001 0.99304366 -0.24999277
v -0.78513688 1.28986523 -0.23010619
v -0.71089435 0.99304366 -0.25078169
v -0.71755368 1.28986523 -0.25762144
v -0.78463840 0.99304366 -0.26695442
v -0.78600001 1.28986523 -0.24999277
v -0.70998657 0.99304366 -0.26964119
v -0.71542567 1.28986523 -0.26999843
v -0.78439283 0.99304366 -0.26999843
v -0.78439283 1.28986523 -0.26999843
v -0.71044046 0.99304366 -0.27178466
v -0.71787363 1.28986523 -0.28212985
v -0.78185558 0.99304366 -0.27965891
v -0.78139424 1.28986523 -0.28139305
v -0.71752393 0.99304366 -0.28212985
v -0.73000187 1.28986523 -0.28512922
v -0.78139424 0.99304366 -0.28139305
v -0.76999521 1.28986523 -0.28439242
v -0.77172887 0.99304366 -0.28393841
v -0.71936917 0.99304366 -0.28258386
v -0.74999481 1.28986523 -0.28600001
v -0.73000187 0.99304366 -0.28512922
v -0.73304504 0.99304366 -0.28526318
v -0.76989108 1.28986523 -0.28440729
v -0.76999521 0.99304366 -0.28439242
v -0.74999481 0.99304366 -0.28600001
f 1 2 6
f 1 6 10
f 1 10 14
f 1 14 18
f 1 18 22
f 1 22 26
f 1 26 28
f 1 28 34
f 1 34 35
f 1 35 32
f 1 32 31
f 1 31 29
f 1 29 24
f 1 24 20
f 1 20 16
f 1 16 12
f 1 12 8
f 1 8 3
f 1 3 4
f 1 4 5
f 1 5 2
f 2 5 7
f 2 7 6
f 3 8 9
f 3 9 4
f 4 9 13
f 4 13 17
f 4 17 21
f 4 21 25
f 4 25 30
f 4 30 33
f 4 33 27
f 4 27 23
f 4 23 19
f 4 19 15
f 4 15 11
f 4 11 7
f 4 7 5
f 6 7 11
f 6 11 10
f 8 12 13
f 8 13 9
f 10 11 15
f 10 15 14
f 12 16 17
f 12 17 13
f 14 15 19
f 14 19 18
f 16 20 21
f 16 21 17
f 18 19 22
f 19 23 22
f 20 24 21
f 21 24 25
f 22 23 26
f 23 27 28
f 23 28 26
f 24 29 25
f 25 29 31
f 25 31 32
f 25 32 30
f 27 33 34
f 27 34 28
f 30 32 35
f 30 35 33
f 33 35 34

