# https://github.com/mikedh/trimesh
v -0.76999474 1.81002462 -0.21530354
v -0.78213191 1.81002462 -0.21787092
v -0.75729018 1.81002462 -0.21744186
v -0.76999474 1.98999047 -0.21555266
v -0.78213191 1.98999047 -0.21787092
v -0.78512812 1.81002462 -0.23000199
v -0.71744651 1.81002462 -0.25729513
v -0.71768868 1.98999047 -0.25762039
v -0.75761539 1.98999047 -0.21768408
v -0.75841117 2.00200236 -0.21845913
v -0.76999474 2.00288785 -0.21778095
v -0.78141916 2.00184834 -0.21858370
v -0.78512812 1.98999047 -0.23000199
v -0.78600001 1.81002462 -0.25000128
v -0.71530831 1.81002462 -0.27000058
v -0.71555048 1.98999047 -0.26999366
v -0.71845675 2.00200236 -0.25840929
v -0.76999474 2.00666082 -0.23000199
v -0.78256094 2.00329208 -0.23000199
v -0.78600001 1.98999047 -0.25000128
v -0.78439462 1.81002462 -0.26999366
v -0.71787554 1.81002462 -0.28213164
v -0.71786863 1.83000582 -0.28213164
v -0.71786863 1.98999047 -0.28213164
v -0.71858132 2.00184834 -0.28141886
v -0.71777862 2.00288785 -0.26999366
v -0.73000574 2.00666082 -0.26999366
v -0.78299689 2.00383103 -0.25000128
v -0.78219420 2.00284934 -0.26999366
v -0.78439462 1.98999047 -0.26999366
v -0.78139842 1.83000582 -0.28139812
v -0.78139842 1.81002462 -0.28139117
v -0.73000574 1.81002462 -0.28512809
v -0.73000574 1.98999047 -0.28512809
v -0.73000574 2.00329208 -0.28256071
v -0.75000370 2.00383103 -0.28299665
v -0.76999474 2.00284934 -0.28219393
v -0.78092790 2.00125158 -0.28092754
v -0.78139842 1.98999047 -0.28139812
v -0.77000165 1.81002462 -0.28439453
v -0.75001061 1.81002462 -0.28599310
v -0.75000370 1.83000582 -0.28599310
v -0.75000370 1.98999047 -0.28599310
v -0.76999474 1.98999047 -0.28439453
f 1 2 6
f 1 6 14
f 1 14 21
f 1 21 32
f 1 32 40
f 1 40 41
f 1 41 33
f 1 33 22
f 1 22 15
f 1 15 7
f 1 7 3
f 1 3 4
f 1 4 5
f 1 5 2
f 2 5 13
f 2 13 6
f 3 7 8
f 3 8 9
f 3 9 4
f 4 9 10
f 4 10 11
f 4 11 12
f 4 12 5
f 5 12 13
f 6 13 20
f 6 20 14
f 7 15 16
f 7 16 8
f 8 16 17
f 8 17 9
f 9 17 10
f 10 17 18
f 10 18 11
f 11 18 12
f 12 18 19
f 12 19 13
f 13 19 20
f 14 20 30
f 14 30 21
f 15 22 23
f 15 23 24
f 15 24 16
f 16 24 25
f 16 25 26
f 16 26 17
f 17 26 27
f 17 27 18
f 18 28 19
f 18 27 37
f 18 37 29
f 18 29 28
f 19 28 20
f 20 28 29
f 20 29 30
f 21 31 32
f 21 30 39
f 21 39 31
f 22 33 23
f 23 33 34
f 23 34 24
f 24 34 25
f 25 35 27
f 25 27 26
f 25 34 35
f 27 35 36
f 27 36 37
f 29 37 38
f 29 38 30
f 30 38 39
f 31 40 32
f 31 39 40
f 33 41 42
f 33 42 43
f 33 43 34
f 34 43 35
f 35 43 36
f 36 43 37
f 37 43 44
f 37 44 38
f 38 44 39
f 39 44 40
f 40 44 43
f 40 43 41
f 41 43 42

