# https://github.com/mikedh/trimesh
v -0.76903385 0.11111605 -0.20885621
v -0.75714165 0.11111605 -0.21102363
v -0.77065718 0.11111605 -0.20986062
v -0.78212655 0.01000965 -0.21787331
v -0.76999277 0.01000965 -0.21555483
v -0.75761735 0.01000965 -0.21768451
v -0.71101505 0.11111605 -0.25709090
v -0.78168106 0.11111605 -0.21668765
v -0.78513169 0.01000965 -0.23000184
v -0.78141677 -0.00184178 -0.21858320
v -0.78212655 0.11111605 -0.21724649
v -0.76999277 -0.00289094 -0.21777514
v -0.75841016 -0.00200319 -0.21846236
v -0.71845996 -0.00200319 -0.25841251
v -0.71768981 0.01000965 -0.25761956
v -0.70886314 0.11111605 -0.26903063
v -0.78600001 0.01000965 -0.24999957
v -0.78256452 -0.00330603 -0.23000184
v -0.78495800 0.11111605 -0.22924665
v -0.78513169 0.11111605 -0.23000184
v -0.76999277 -0.00666082 -0.23000184
v -0.73000479 -0.00666082 -0.26999730
v -0.71778041 -0.00289094 -0.26999730
v -0.71555299 0.01000965 -0.26999730
v -0.70979941 0.11111605 -0.27052593
v -0.71787101 0.01000965 -0.28212583
v -0.78439927 0.01000965 -0.26999730
v -0.78219450 -0.00285637 -0.26999730
v -0.78299487 -0.00383627 -0.24999957
v -0.78600001 0.11111605 -0.24999957
v -0.74999881 -0.00383627 -0.28299430
v -0.73000479 -0.00330603 -0.28256384
v -0.71858078 -0.00184178 -0.28141594
v -0.76999277 -0.00285637 -0.28219381
v -0.71726698 0.11111605 -0.28212583
v -0.73000479 0.01000965 -0.28513154
v -0.78139412 0.01000965 -0.28139329
v -0.78092599 -0.00124240 -0.28093261
v -0.78439927 0.11111605 -0.26999730
v -0.74999881 0.01000965 -0.28599247
v -0.76999277 0.01000965 -0.28439897
v -0.73000479 0.11111605 -0.28513154
v -0.78139412 0.11111605 -0.28139329
v -0.74999881 0.11111605 -0.28599247
v -0.75110871 0.11111605 -0.28590938
v -0.76999277 0.11111605 -0.28439897
f 1 2 7
f 1 7 16
f 1 16 25
f 1 25 35
f 1 35 42
f 1 42 44
f 1 44 45
f 1 45 46
f 1 46 43
f 1 43 39
f 1 39 30
f 1 30 20
f 1 20 19
f 1 19 11
f 1 11 8
f 1 8 3
f 1 3 4
f 1 4 5
f 1 5 6
f 1 6 2
f 2 6 7
f 3 8 4
f 4 9 10
f 4 10 5
f 4 8 11
f 4 11 9
f 5 10 12
f 5 12 13
f 5 13 6
f 6 13 14
f 6 14 15
f 6 15 7
f 7 15 16
f 9 17 18
f 9 18 10
f 9 11 19
f 9 19 20
f 9 20 30
f 9 30 17
f 10 18 21
f 10 21 12
f 12 21 13
f 13 21 14
f 14 21 22
f 14 22 23
f 14 23 24
f 14 24 15
f 15 24 16
f 16 24 26
f 16 26 25
f 17 27 28
f 17 28 29
f 17 29 18
f 17 30 39
f 17 39 27
f 18 29 21
f 21 29 28
f 21 28 22
f 22 31 32
f 22 32 33
f 22 33 23
f 22 28 34
f 22 34 31
f 23 33 24
f 24 33 26
f 25 26 35
f 26 33 36
f 26 36 35
f 27 37 38
f 27 38 28
f 27 39 43
f 27 43 37
f 28 38 34
f 31 40 32
f 31 34 40
f 32 40 36
f 32 36 33
f 34 38 41
f 34 41 40
f 35 36 42
f 36 40 44
f 36 44 42
f 37 41 38
f 37 43 46
f 37 46 41
f 40 41 45
f 40 45 44
f 41 46 45

