# https://github.com/mikedh/trimesh
v 0.70557761 1.71242404 -0.26791713
v 0.70557761 1.71302563 -0.25737008
v 0.70557761 1.71446943 -0.26888949
v 0.70616013 1.39207828 -0.24607807
v 0.70557761 1.76867253 -0.20588952
v 0.70557761 1.72999036 -0.27379054
v 0.70557761 1.73107326 -0.27400225
v 0.70557761 1.74996310 -0.27585289
v 0.70968688 1.39207828 -0.26961878
v 0.74599349 1.39207828 -0.20606989
v 0.70557761 1.78876555 -0.20588952
v 0.75740033 1.71296543 -0.20588952
v 0.70557761 1.76999599 -0.27483347
v 0.71787399 1.98999679 -0.28212622
v 0.71624446 1.74996310 -0.28212622
v 0.71750402 1.39207828 -0.28212622
v 0.76802778 1.71236384 -0.20588952
v 0.76964945 1.39207828 -0.20966920
v 0.77598655 1.74996310 -0.20588952
v 0.77393192 1.72999036 -0.20588952
v 0.70557761 1.79195398 -0.24551347
v 0.74581242 1.79201412 -0.20588952
v 0.76999581 1.98999679 -0.21555045
v 0.75840795 2.00196838 -0.21845973
v 0.71845651 2.00196838 -0.25841302
v 0.71555167 1.98999679 -0.26999515
v 0.70557761 1.78834444 -0.26858366
v 0.71858251 2.00184810 -0.28142047
v 0.73000503 1.98999679 -0.28512958
v 0.73000503 1.39207828 -0.28512958
v 0.77121603 1.39207828 -0.20999856
v 0.78212690 1.74996310 -0.21617779
v 0.78212690 1.98999679 -0.21787159
v 0.77508914 1.76909363 -0.20588952
v 0.78212690 1.39207828 -0.21748735
v 0.70557761 1.79165316 -0.25057921
v 0.75059086 1.79177350 -0.20588952
v 0.78141838 2.00184810 -0.21858519
v 0.76999581 2.00287080 -0.21777749
v 0.76653993 1.78912652 -0.20588952
v 0.76872838 1.78846478 -0.20588952
v 0.76972818 1.78635919 -0.20588952
v 0.77501827 1.76999599 -0.20588952
v 0.76999581 2.00666082 -0.23000266
v 0.73000503 2.00666082 -0.26999515
v 0.71777952 2.00287080 -0.26999515
v 0.70557761 1.78906637 -0.26616845
v 0.73000503 2.00329185 -0.28256536
v 0.74999255 1.98999679 -0.28600001
v 0.74999255 1.39207828 -0.28600001
v 0.78512621 1.98999679 -0.23000266
v 0.78244179 1.39207828 -0.21874987
v 0.78512621 1.39207828 -0.23000266
v 0.78255987 2.00329185 -0.23000266
v 0.78299284 2.00383329 -0.24999891
v 0.78219771 2.00281072 -0.26999515
v 0.76999581 2.00281072 -0.28219679
v 0.74999255 2.00383329 -0.28299665
v 0.76999581 1.98999679 -0.28439248
v 0.76791757 1.39207828 -0.28456497
v 0.78600001 1.98999679 -0.24999891
v 0.78522068 1.39207828 -0.23208070
v 0.78439409 1.98999679 -0.26999515
v 0.78093034 2.00124645 -0.28092647
v 0.78139478 1.98999679 -0.28139696
v 0.78021395 1.39207828 -0.28171062
v 0.76999581 1.39207828 -0.28439248
v 0.78600001 1.39207828 -0.24999891
v 0.78439409 1.39207828 -0.26999515
v 0.78408706 1.39207828 -0.27117926
v 0.78139478 1.39207828 -0.28139696
f 1 2 5
f 1 5 11
f 1 11 21
f 1 21 36
f 1 36 47
f 1 47 27
f 1 27 13
f 1 13 8
f 1 8 7
f 1 7 6
f 1 6 3
f 1 3 4
f 1 4 2
f 2 4 5
f 3 6 4
f 4 6 7
f 4 7 8
f 4 8 9
f 4 9 16
f 4 16 30
f 4 30 50
f 4 50 60
f 4 60 67
f 4 67 66
f 4 66 71
f 4 71 70
f 4 70 69
f 4 69 68
f 4 68 62
f 4 62 53
f 4 53 52
f 4 52 35
f 4 35 31
f 4 31 18
f 4 18 10
f 4 10 5
f 5 10 12
f 5 12 17
f 5 17 20
f 5 20 19
f 5 19 34
f 5 34 43
f 5 43 42
f 5 42 41
f 5 41 40
f 5 40 37
f 5 37 22
f 5 22 11
f 8 13 14
f 8 14 15
f 8 15 16
f 8 16 9
f 10 17 12
f 10 18 19
f 10 19 20
f 10 20 17
f 11 22 23
f 11 23 24
f 11 24 25
f 11 25 26
f 11 26 21
f 13 27 26
f 13 26 14
f 14 26 28
f 14 28 29
f 14 29 15
f 15 29 30
f 15 30 16
f 18 31 19
f 19 32 33
f 19 33 34
f 19 31 35
f 19 35 32
f 21 26 36
f 22 37 23
f 23 33 38
f 23 38 39
f 23 39 24
f 23 37 40
f 23 40 41
f 23 41 42
f 23 42 43
f 23 43 33
f 24 39 44
f 24 44 45
f 24 45 25
f 25 45 46
f 25 46 26
f 26 46 28
f 26 27 47
f 26 47 36
f 28 46 45
f 28 45 48
f 28 48 29
f 29 48 49
f 29 49 50
f 29 50 30
f 32 51 33
f 32 35 52
f 32 52 53
f 32 53 51
f 33 51 38
f 33 43 34
f 38 54 44
f 38 44 39
f 38 51 54
f 44 54 55
f 44 55 56
f 44 56 45
f 45 56 57
f 45 57 58
f 45 58 48
f 48 58 49
f 49 58 57
f 49 57 59
f 49 59 60
f 49 60 50
f 51 61 54
f 51 53 62
f 51 62 61
f 54 61 55
f 55 61 56
f 56 61 63
f 56 63 64
f 56 64 57
f 57 64 59
f 59 64 65
f 59 65 66
f 59 66 67
f 59 67 60
f 61 68 69
f 61 69 63
f 61 62 68
f 63 65 64
f 63 69 70
f 63 70 65
f 65 70 71
f 65 71 66

