# https://github.com/mikedh/trimesh
v 0.74999046 0.89364898 -0.28599060
v 0.73000699 0.89364898 -0.28510118
v 0.74978417 1.01020474 -0.28599060
v 0.74999046 1.01020474 -0.28599060
v 0.76978636 1.01020474 -0.28439897
v 0.76998329 0.89364898 -0.28435218
v 0.73000699 1.01020474 -0.28510118
v 0.72769076 0.89364898 -0.28453940
v 0.71651274 0.93000990 -0.28210518
v 0.71625018 0.95001012 -0.28210518
v 0.76998329 1.01020474 -0.28435218
v 0.78138632 0.89364898 -0.28135616
v 0.71665341 0.96999893 -0.28210518
v 0.71788186 1.01020474 -0.28210518
v 0.71777874 0.89364898 -0.28210518
v 0.69019014 0.94977053 -0.27204049
v 0.69019014 0.95001012 -0.27204049
v 0.78138632 1.01020474 -0.28135616
v 0.78438711 0.89364898 -0.26998076
v 0.69019014 0.96999893 -0.27030843
v 0.69019014 0.98342749 -0.26394194
v 0.69019014 0.98777437 -0.25017911
v 0.71532184 1.01020474 -0.26998076
v 0.71632522 0.89364898 -0.27985817
v 0.69019014 0.91829272 -0.26263121
v 0.69019014 0.92981595 -0.26820189
v 0.69019014 0.93000990 -0.26829553
v 0.78438711 1.01020474 -0.26998076
v 0.78597194 1.01020474 -0.25017911
v 0.78569061 0.89364898 -0.25364321
v 0.69019014 0.98780860 -0.24999185
v 0.69019014 0.98880119 -0.23019020
v 0.69019949 0.98876696 0.19224504
v 0.71534055 1.01020474 -0.26984030
v 0.71429968 0.89364898 -0.26979351
v 0.69019014 0.91831554 -0.25813723
v 0.78598130 1.01020474 -0.24999185
v 0.78598130 0.89364898 -0.24999185
v 0.69019014 0.98876696 0.00003326
v 0.69019949 0.96870970 0.19224504
v 0.73000699 0.98878978 0.19224504
v 0.76998329 1.01020474 -0.21530385
v 0.75728613 1.01020474 -0.21741042
v 0.71745050 1.01020474 -0.25724778
v 0.71643776 0.89364898 -0.25748184
v 0.75810200 0.91761958 0.19224504
v 0.69019014 0.96869829 0.00003326
v 0.78512794 1.01020474 -0.23019020
v 0.77108043 0.96998752 0.19224504
v 0.77267462 0.95002153 0.19224504
v 0.78527796 0.89364898 -0.23360750
v 0.75006545 0.98839046 0.19224504
v 0.78211778 1.01020474 -0.21783173
v 0.75752997 0.89364898 -0.21642736
v 0.75953674 0.91752830 0.19224504
v 0.78511858 1.01020474 -0.23000295
v 0.76465684 0.98415767 0.19224504
v 0.77238393 0.94721488 0.19224504
v 0.78511858 0.89364898 -0.23000295
v 0.75956488 0.89364898 -0.21600604
v 0.76335341 0.91752830 0.19224504
v 0.76982385 0.89364898 -0.21427397
v 0.76905489 0.93000990 0.19224504
v 0.78211778 0.89364898 -0.21773809
v 0.76833284 0.92771666 0.19224504
f 1 2 3
f 1 3 4
f 1 4 5
f 1 5 6
f 1 6 12
f 1 12 19
f 1 19 30
f 1 30 38
f 1 38 51
f 1 51 59
f 1 59 64
f 1 64 62
f 1 62 60
f 1 60 54
f 1 54 45
f 1 45 35
f 1 35 24
f 1 24 15
f 1 15 8
f 1 8 2
f 2 7 3
f 2 8 9
f 2 9 10
f 2 10 7
f 3 7 14
f 3 14 23
f 3 23 34
f 3 34 44
f 3 44 43
f 3 43 42
f 3 42 53
f 3 53 56
f 3 56 48
f 3 48 37
f 3 37 29
f 3 29 28
f 3 28 18
f 3 18 11
f 3 11 5
f 3 5 4
f 5 11 6
f 6 11 18
f 6 18 12
f 7 10 13
f 7 13 14
f 8 15 9
f 9 16 10
f 9 15 16
f 10 16 17
f 10 17 13
f 12 18 28
f 12 28 19
f 13 17 14
f 14 17 20
f 14 20 21
f 14 21 22
f 14 22 23
f 15 24 25
f 15 25 26
f 15 26 27
f 15 27 16
f 16 27 26
f 16 26 25
f 16 25 36
f 16 36 47
f 16 47 39
f 16 39 32
f 16 32 31
f 16 31 22
f 16 22 21
f 16 21 20
f 16 20 17
f 19 28 29
f 19 29 30
f 22 31 23
f 23 31 32
f 23 32 33
f 23 33 34
f 24 35 25
f 25 35 36
f 29 37 38
f 29 38 30
f 32 39 33
f 33 39 47
f 33 47 40
f 33 40 46
f 33 46 55
f 33 55 61
f 33 61 65
f 33 65 63
f 33 63 58
f 33 58 50
f 33 50 49
f 33 49 57
f 33 57 52
f 33 52 41
f 33 41 42
f 33 42 43
f 33 43 44
f 33 44 34
f 35 45 46
f 35 46 40
f 35 40 36
f 36 40 47
f 37 48 49
f 37 49 50
f 37 50 38
f 38 50 51
f 41 52 53
f 41 53 42
f 45 54 55
f 45 55 46
f 48 56 49
f 49 56 57
f 50 58 51
f 51 58 59
f 52 57 53
f 53 57 56
f 54 60 55
f 55 60 62
f 55 62 61
f 58 63 59
f 59 63 65
f 59 65 61
f 59 61 64
f 61 62 64

