# https://github.com/mikedh/trimesh
v -0.78600001 0.01001740 0.24999684
v -0.78512508 0.01001740 0.23000322
v -0.78256601 -0.00329435 0.23000322
v -0.78299880 -0.00382245 0.24999684
v -0.78219908 -0.00285435 0.26999962
v -0.78439122 0.01001740 0.26999962
v -0.78600001 0.21812093 0.24999684
v -0.78548259 0.21812093 0.23812735
v -0.78212380 0.01001740 0.21786752
v -0.78141820 -0.00184214 0.21858355
v -0.78512508 0.21812093 0.23000322
v -0.78212380 0.14999992 0.21617845
v -0.76999664 -0.00666082 0.23000322
v -0.73000240 -0.00666082 0.26999962
v -0.76999664 -0.00285435 0.28219956
v -0.78092897 -0.00124812 0.28093275
v -0.78139943 0.01001740 0.28139174
v -0.78317755 0.21812093 0.27462626
v -0.78439122 0.21812093 0.26999962
v -0.77265918 0.14999992 0.19221917
v -0.76999664 -0.00287628 0.21777573
v -0.76904643 0.12999928 0.19221917
v -0.76333565 0.11754560 0.19221917
v -0.78334689 0.21812093 0.22279708
v -0.78212380 0.16997856 0.21660072
v -0.75840575 -0.00199616 0.21845505
v -0.74999481 -0.00382245 0.28299820
v -0.71845853 -0.00199616 0.25840554
v -0.71778119 -0.00287628 0.26999962
v -0.71858084 -0.00184214 0.28141928
v -0.73000240 -0.00329435 0.28255758
v -0.74999481 0.01001740 0.28600001
v -0.76999664 0.01001740 0.28439355
v -0.77677059 0.21812093 0.28261268
v -0.78139943 0.21812093 0.28139174
v -0.78212380 0.21812093 0.21786752
v -0.77252746 0.15266228 0.19221917
v -0.75811410 0.11763364 0.19221917
v -0.68990469 0.16870236 0.19221917
v -0.68988585 0.11833775 0.25820357
v -0.68988585 0.11833775 0.26257315
v -0.71787524 0.01001740 0.28212613
v -0.73000240 0.01001740 0.28512794
v -0.68988585 0.12999928 0.26823711
v -0.68988585 0.14999992 0.27203754
v -0.74999481 0.21812093 0.28600001
v -0.76999664 0.21812093 0.28439355
v -0.77491713 0.21812093 0.21635287
v -0.76465279 0.18412644 0.19221917
v -0.77032596 0.17228889 0.19221917
v -0.77106923 0.16997856 0.19221917
v -0.68988585 0.17083669 0.19221917
v -0.71624762 0.14999992 0.28212613
v -0.73000240 0.21812093 0.28512794
v -0.68988585 0.15010995 0.27202836
v -0.71787524 0.21812093 0.28212613
v -0.71665215 0.16997856 0.28212613
v -0.76999664 0.21812093 0.21540734
v -0.75230926 0.18799895 0.19221917
v -0.68988585 0.18876904 0.19221917
v -0.68988585 0.16997856 0.27027503
v -0.71541029 0.21812093 0.26999962
v -0.68988585 0.18340033 0.26382160
v -0.68988585 0.18775690 0.24999684
v -0.76245129 0.21812093 0.21667415
v -0.73221332 0.18923110 0.19221917
v -0.75007951 0.18837297 0.19221917
v -0.75741792 0.21812093 0.21753706
v -0.71754599 0.21812093 0.25742328
v -0.68988585 0.18876904 0.23000322
f 1 2 3
f 1 3 4
f 1 4 5
f 1 5 6
f 1 6 19
f 1 19 7
f 1 7 8
f 1 8 2
f 2 9 10
f 2 10 3
f 2 8 11
f 2 11 12
f 2 12 9
f 3 10 13
f 3 13 4
f 4 13 5
f 5 13 14
f 5 14 15
f 5 15 16
f 5 16 6
f 6 16 17
f 6 17 18
f 6 18 19
f 7 19 18
f 7 18 35
f 7 35 34
f 7 34 47
f 7 47 46
f 7 46 54
f 7 54 56
f 7 56 62
f 7 62 69
f 7 69 68
f 7 68 65
f 7 65 58
f 7 58 48
f 7 48 36
f 7 36 24
f 7 24 11
f 7 11 8
f 9 12 20
f 9 20 10
f 10 21 13
f 10 20 22
f 10 22 23
f 10 23 21
f 11 24 25
f 11 25 12
f 12 25 20
f 13 21 26
f 13 26 14
f 14 27 15
f 14 26 28
f 14 28 29
f 14 29 30
f 14 30 31
f 14 31 27
f 15 27 32
f 15 32 33
f 15 33 16
f 16 33 17
f 17 33 34
f 17 34 35
f 17 35 18
f 20 25 36
f 20 36 37
f 20 37 51
f 20 51 50
f 20 50 49
f 20 49 59
f 20 59 67
f 20 67 66
f 20 66 60
f 20 60 52
f 20 52 39
f 20 39 38
f 20 38 23
f 20 23 22
f 21 23 38
f 21 38 26
f 24 36 25
f 26 38 39
f 26 39 28
f 27 31 32
f 28 40 29
f 28 39 40
f 29 40 41
f 29 41 30
f 30 42 43
f 30 43 31
f 30 41 44
f 30 44 45
f 30 45 42
f 31 43 32
f 32 43 54
f 32 54 46
f 32 46 47
f 32 47 33
f 33 47 34
f 36 48 49
f 36 49 50
f 36 50 51
f 36 51 37
f 39 52 40
f 40 52 60
f 40 60 70
f 40 70 64
f 40 64 63
f 40 63 61
f 40 61 55
f 40 55 45
f 40 45 44
f 40 44 41
f 42 45 53
f 42 53 43
f 43 53 54
f 45 55 56
f 45 56 57
f 45 57 53
f 48 58 59
f 48 59 49
f 53 57 54
f 54 57 56
f 55 61 56
f 56 61 63
f 56 63 64
f 56 64 62
f 58 65 60
f 58 60 66
f 58 66 67
f 58 67 59
f 60 65 68
f 60 68 69
f 60 69 62
f 60 62 70
f 62 64 70

