# https://github.com/mikedh/trimesh
v -0.69015974 1.76870888 -0.19389260
v -0.69015974 1.71831012 0.25816709
v -0.69015974 1.78877997 -0.19389260
v 0.00005680 1.76870888 -0.19389260
v -0.69015974 1.71831012 0.26250023
v 0.00005680 1.71856552 0.25816709
v -0.69015974 1.78881454 0.23011577
v 0.00005680 1.78877997 -0.19389260
v -0.68995702 1.71835846 0.26254585
v -0.69015974 1.73000222 0.26829293
v 0.00005680 1.71856552 0.26254585
v -0.69015974 1.78780681 0.25000256
v 0.00005680 1.78877997 0.22997895
v 0.00005680 1.72435635 0.26541939
v -0.69015974 1.75000435 0.27207872
v 0.00005680 1.73000222 0.26820174
v 0.00005680 1.75000435 0.27203313
v -0.69015974 1.78777921 0.25013942
v 0.00005680 1.78761357 0.24995697
v 0.00005680 1.78820711 0.23983112
v -0.69015974 1.76999956 0.27029988
v 0.00005680 1.76012272 0.27112088
v -0.69015974 1.78342402 0.26391420
v 0.00005680 1.78544629 0.25684437
v -0.69015974 1.78324455 0.26400542
v 0.00005680 1.76999956 0.27020866
v 0.00005680 1.78322387 0.26386860
v 0.00005680 1.77669454 0.26701581
f 1 2 5
f 1 5 10
f 1 10 15
f 1 15 21
f 1 21 25
f 1 25 23
f 1 23 18
f 1 18 12
f 1 12 7
f 1 7 3
f 1 3 8
f 1 8 4
f 1 4 2
f 2 4 6
f 2 6 11
f 2 11 5
f 3 7 8
f 4 8 13
f 4 13 20
f 4 20 19
f 4 19 24
f 4 24 27
f 4 27 28
f 4 28 26
f 4 26 22
f 4 22 17
f 4 17 16
f 4 16 14
f 4 14 11
f 4 11 6
f 5 9 10
f 5 11 9
f 7 12 13
f 7 13 8
f 9 11 14
f 9 14 10
f 10 14 16
f 10 16 17
f 10 17 15
f 12 18 19
f 12 19 20
f 12 20 13
f 15 17 21
f 17 22 21
f 18 23 24
f 18 24 19
f 21 22 26
f 21 26 25
f 23 25 27
f 23 27 24
f 25 26 28
f 25 28 27

