# https://github.com/mikedh/trimesh
v -0.69015974 1.75000060 -0.27207875
v -0.69015974 1.73000562 -0.26829037
v -0.69015974 1.75019377 -0.27206343
v 0.00005680 1.75000060 -0.27203283
v -0.69015974 1.71829706 -0.26262692
v 0.00005680 1.73987895 -0.27011186
v 0.00005680 1.73000562 -0.26823679
v -0.69015974 1.76999557 -0.27031848
v 0.00005680 1.75987393 -0.27115270
v -0.69015974 1.71829706 -0.25827217
v 0.00005680 1.71856618 -0.26257333
v -0.69015974 1.77016115 -0.27026492
v 0.00005680 1.76999557 -0.27024961
v -0.69015974 1.71830398 -0.25817269
v 0.00005680 1.71856618 -0.25818035
v -0.69015974 1.78342217 -0.26394328
v 0.00005680 1.77652949 -0.26710409
v -0.69015974 1.76871228 -0.19390026
v 0.00005680 1.76871228 -0.19390026
v -0.69015974 1.78780341 -0.24999897
v 0.00005680 1.78761709 -0.24999897
v 0.00005680 1.78539544 -0.25702471
v 0.00005680 1.78322899 -0.26387441
v -0.69015974 1.78877622 -0.19390026
v 0.00005680 1.78877622 -0.19390026
v -0.69015974 1.78878313 -0.23000088
v 0.00005680 1.78877622 -0.23000088
f 1 2 5
f 1 5 10
f 1 10 14
f 1 14 18
f 1 18 24
f 1 24 26
f 1 26 20
f 1 20 16
f 1 16 12
f 1 12 8
f 1 8 3
f 1 3 4
f 1 4 2
f 2 4 6
f 2 6 7
f 2 7 5
f 3 8 4
f 4 9 13
f 4 13 17
f 4 17 23
f 4 23 22
f 4 22 21
f 4 21 27
f 4 27 25
f 4 25 19
f 4 19 15
f 4 15 11
f 4 11 7
f 4 7 6
f 4 8 9
f 5 7 11
f 5 11 15
f 5 15 10
f 8 12 13
f 8 13 9
f 10 15 14
f 12 16 13
f 13 16 17
f 14 15 19
f 14 19 18
f 16 20 21
f 16 21 22
f 16 22 23
f 16 23 17
f 18 19 25
f 18 25 24
f 20 26 27
f 20 27 21
f 24 25 26
f 25 27 26

