# https://github.com/mikedh/trimesh
v -0.68988585 0.98877767 0.14933717
v -0.73000187 0.98877767 0.14933717
v -0.68988585 0.96871191 0.14933717
v -0.68988585 0.98877767 -0.20371443
v -0.75053310 0.99126106 -0.20371443
v -0.74933523 0.98770791 0.14933717
v -0.75823128 0.91859336 0.14933717
v -0.75751925 0.91374120 -0.20371443
v -0.68988585 0.96871191 -0.20371443
v -0.76807386 0.98779960 -0.20371443
v -0.74999702 0.98766970 0.14933717
v -0.76257038 0.91859336 0.14933717
v -0.76610535 0.91319868 -0.20371443
v -0.77438992 0.96999563 -0.20371443
v -0.77041095 0.96999563 0.14933717
v -0.76396930 0.98328366 0.14933717
v -0.76350856 0.98342884 0.14933717
v -0.76806551 0.92962723 0.14933717
v -0.76727808 0.91319868 -0.20371443
v -0.77545375 0.95000628 -0.20371443
v -0.77211982 0.95000628 0.14933717
v -0.76824981 0.93000165 0.14933717
v -0.76881939 0.91634685 -0.20371443
v -0.77379519 0.93331793 -0.20371443
v -0.77315015 0.93000165 -0.20371443
f 1 2 6
f 1 6 11
f 1 11 17
f 1 17 16
f 1 16 15
f 1 15 21
f 1 21 22
f 1 22 18
f 1 18 12
f 1 12 7
f 1 7 3
f 1 3 9
f 1 9 4
f 1 4 5
f 1 5 2
f 2 5 6
f 3 7 8
f 3 8 9
f 4 9 8
f 4 8 13
f 4 13 19
f 4 19 23
f 4 23 25
f 4 25 24
f 4 24 20
f 4 20 14
f 4 14 10
f 4 10 5
f 5 10 11
f 5 11 6
f 7 12 19
f 7 19 13
f 7 13 8
f 10 14 15
f 10 15 16
f 10 16 17
f 10 17 11
f 12 18 19
f 14 20 21
f 14 21 15
f 18 22 19
f 19 22 23
f 20 24 21
f 21 24 22
f 22 24 25
f 22 25 23

