# https://github.com/mikedh/trimesh
v 0.69019008 0.95000435 -0.27208620
v 0.69019008 0.96999944 -0.27030817
v 0.69019008 0.94977651 -0.27204484
v 0.00012437 0.95000435 -0.27200350
v 0.00012437 0.95987071 -0.27113515
v 0.69019008 0.98343536 -0.26394039
v 0.00012437 0.96999944 -0.27022547
v 0.69019008 0.93000236 -0.26828206
v 0.00012437 0.93988253 -0.27010143
v 0.69019008 0.98777821 -0.25017107
v 0.00012437 0.97653098 -0.26708293
v 0.00012437 0.98322823 -0.26385769
v 0.00012437 0.98761941 -0.24996433
v 0.69019008 0.92981595 -0.26824072
v 0.00012437 0.93000236 -0.26819935
v 0.69019008 0.98781274 -0.25000566
v 0.00012437 0.98819248 -0.24012318
v 0.69019008 0.91828563 -0.26261720
v 0.00012437 0.92421649 -0.26534626
v 0.69019008 0.98882078 -0.23015800
v 0.00012437 0.98877935 -0.22999260
v 0.69019008 0.91829944 -0.25815147
v 0.00012437 0.91856872 -0.25815147
v 0.00012437 0.91856872 -0.26253450
v 0.69019008 0.98877935 0.15033835
v 0.00012437 0.98877935 0.15033835
v 0.69019008 0.96870832 0.15017298
v 0.69012249 0.96870832 0.15033835
v 0.00012437 0.96870832 0.15033835
v 0.69019008 0.96886021 0.15033835
f 1 2 6
f 1 6 10
f 1 10 16
f 1 16 20
f 1 20 25
f 1 25 30
f 1 30 27
f 1 27 22
f 1 22 18
f 1 18 14
f 1 14 8
f 1 8 3
f 1 3 4
f 1 4 5
f 1 5 2
f 2 5 7
f 2 7 6
f 3 8 9
f 3 9 4
f 4 9 15
f 4 15 19
f 4 19 24
f 4 24 23
f 4 23 29
f 4 29 26
f 4 26 21
f 4 21 17
f 4 17 13
f 4 13 12
f 4 12 11
f 4 11 7
f 4 7 5
f 6 7 11
f 6 11 12
f 6 12 13
f 6 13 10
f 8 14 15
f 8 15 9
f 10 13 16
f 13 17 16
f 14 18 15
f 15 18 19
f 16 17 21
f 16 21 20
f 18 22 23
f 18 23 24
f 18 24 19
f 20 21 26
f 20 26 25
f 22 27 28
f 22 28 29
f 22 29 23
f 25 26 29
f 25 29 28
f 25 28 30
f 27 30 28

