# https://github.com/mikedh/trimesh
v 0.00012437 0.56870919 -0.09024602
v 0.00012437 0.51856855 0.25818309
v 0.00012437 0.58877650 -0.09024602
v 0.69019008 0.56870919 -0.09024602
v 0.69019008 0.51829943 0.25814760
v 0.00012437 0.51856855 0.26254553
v 0.69019008 0.51828563 0.25828949
v 0.00012437 0.58877650 0.22998671
v 0.69019008 0.58877650 -0.09024602
v 0.00012437 0.53000304 0.26822031
v 0.69019008 0.51828563 0.26261646
v 0.00012437 0.58761716 0.24999018
v 0.69019008 0.58781040 0.24999018
v 0.69019008 0.58877650 0.22998671
v 0.00012437 0.55000132 0.27201527
v 0.69019008 0.53000304 0.26829123
v 0.00012437 0.58322832 0.26385784
v 0.69019008 0.58343533 0.26392877
v 0.00012437 0.56011781 0.27112859
v 0.69019008 0.55000132 0.27208620
v 0.00012437 0.57669333 0.26701438
v 0.69019008 0.57019284 0.27024192
v 0.00012437 0.56999964 0.27024192
v 0.69019008 0.56999964 0.27031285
f 1 2 6
f 1 6 10
f 1 10 15
f 1 15 19
f 1 19 23
f 1 23 21
f 1 21 17
f 1 17 12
f 1 12 8
f 1 8 3
f 1 3 9
f 1 9 4
f 1 4 5
f 1 5 2
f 2 5 7
f 2 7 11
f 2 11 6
f 3 8 14
f 3 14 9
f 4 9 14
f 4 14 13
f 4 13 18
f 4 18 22
f 4 22 24
f 4 24 20
f 4 20 16
f 4 16 11
f 4 11 7
f 4 7 5
f 6 11 10
f 8 12 13
f 8 13 14
f 10 11 16
f 10 16 20
f 10 20 15
f 12 17 18
f 12 18 13
f 15 20 19
f 17 21 18
f 18 21 23
f 18 23 22
f 19 20 24
f 19 24 23
f 22 23 24

