# https://github.com/mikedh/trimesh
v -0.74999481 0.11112654 -0.28600001
v -0.74999481 0.21811044 -0.28600001
v -0.73000240 0.11112654 -0.28513241
v -0.76999664 0.11112654 -0.28439334
v -0.76999664 0.21811044 -0.28439334
v -0.73000240 0.21811044 -0.28513241
v -0.71624762 0.15000695 -0.28212258
v -0.71650165 0.13000113 -0.28212258
v -0.71727312 0.11112654 -0.28212258
v -0.78139943 0.11112654 -0.28139424
v -0.78139943 0.21811044 -0.28139424
v -0.71787524 0.21811044 -0.28212258
v -0.71665215 0.16999179 -0.28212258
v -0.68988585 0.15000695 -0.27203271
v -0.68988585 0.14989173 -0.27201131
v -0.68988585 0.12993824 -0.26819813
v -0.68988585 0.11836421 -0.26254267
v -0.70979363 0.11112654 -0.27052245
v -0.78439122 0.11112654 -0.26999760
v -0.78439122 0.21811044 -0.26999760
v -0.71635109 0.21811044 -0.27492473
v -0.68988585 0.18773514 -0.25007492
v -0.68988585 0.18329406 -0.26393512
v -0.68988585 0.16999179 -0.27027610
v -0.68988585 0.16987658 -0.27028680
v -0.70887160 0.11112654 -0.26903361
v -0.68988585 0.11836421 -0.25818324
v -0.78448528 0.11112654 -0.26888365
v -0.78600001 0.21811044 -0.24999996
v -0.71541029 0.21811044 -0.26999760
v -0.68988585 0.18877208 -0.23012014
v -0.71101665 0.11112654 -0.25709072
v -0.68988585 0.16871393 -0.17657527
v -0.75823641 0.11853182 -0.17657527
v -0.78600001 0.11112654 -0.24999996
v -0.78512508 0.21811044 -0.23000231
v -0.71668041 0.21811044 -0.26244628
v -0.68988585 0.18877208 -0.17657527
v -0.75713563 0.11112654 -0.21102221
v -0.76257360 0.11853182 -0.17657527
v -0.76903701 0.11112654 -0.20885858
v -0.78512508 0.11112654 -0.23000231
v -0.78212380 0.15000695 -0.21617426
v -0.78212380 0.16999179 -0.21660271
v -0.78391141 0.21811044 -0.22507520
v -0.71754599 0.21811044 -0.25742275
v -0.75741792 0.21811044 -0.21754529
v -0.76999664 0.21811044 -0.21541378
v -0.73000240 0.18877208 -0.17657527
v -0.77065521 0.11112654 -0.20985471
v -0.76638395 0.12618852 -0.17657527
v -0.78212380 0.11112654 -0.21724537
v -0.78168166 0.11112654 -0.21668839
v -0.78495568 0.11112654 -0.22925253
v -0.78212380 0.13000113 -0.21644203
v -0.77211350 0.15000695 -0.17657527
v -0.78212380 0.21811044 -0.21787733
v -0.74999481 0.18771422 -0.17657527
v -0.76825613 0.13000113 -0.17657527
v -0.77041066 0.16999179 -0.17657527
v -0.76397544 0.18332547 -0.17657527
v -0.75937480 0.18477094 -0.17657527
f 1 2 6
f 1 6 3
f 1 3 9
f 1 9 18
f 1 18 26
f 1 26 32
f 1 32 39
f 1 39 41
f 1 41 50
f 1 50 53
f 1 53 52
f 1 52 54
f 1 54 42
f 1 42 35
f 1 35 28
f 1 28 19
f 1 19 10
f 1 10 4
f 1 4 5
f 1 5 2
f 2 5 11
f 2 11 20
f 2 20 29
f 2 29 36
f 2 36 45
f 2 45 57
f 2 57 48
f 2 48 47
f 2 47 46
f 2 46 37
f 2 37 30
f 2 30 21
f 2 21 12
f 2 12 6
f 3 6 7
f 3 7 8
f 3 8 9
f 4 10 11
f 4 11 5
f 6 12 13
f 6 13 7
f 7 13 14
f 7 14 8
f 8 14 9
f 9 14 15
f 9 15 16
f 9 16 17
f 9 17 18
f 10 19 20
f 10 20 11
f 12 21 22
f 12 22 23
f 12 23 24
f 12 24 25
f 12 25 14
f 12 14 13
f 14 25 24
f 14 24 23
f 14 23 22
f 14 22 31
f 14 31 38
f 14 38 33
f 14 33 27
f 14 27 17
f 14 17 16
f 14 16 15
f 17 26 18
f 17 27 26
f 19 28 20
f 20 28 29
f 21 30 22
f 22 30 31
f 26 27 32
f 27 33 34
f 27 34 32
f 28 35 29
f 29 35 42
f 29 42 36
f 30 37 38
f 30 38 31
f 32 34 39
f 33 38 49
f 33 49 58
f 33 58 62
f 33 62 61
f 33 61 60
f 33 60 56
f 33 56 59
f 33 59 51
f 33 51 40
f 33 40 34
f 34 40 41
f 34 41 39
f 36 42 43
f 36 43 44
f 36 44 45
f 37 46 38
f 38 47 48
f 38 48 49
f 38 46 47
f 40 50 41
f 40 51 52
f 40 52 53
f 40 53 50
f 42 54 55
f 42 55 43
f 43 55 56
f 43 56 44
f 44 57 45
f 44 56 57
f 48 57 58
f 48 58 49
f 51 59 52
f 52 59 56
f 52 56 55
f 52 55 54
f 56 60 57
f 57 60 61
f 57 61 62
f 57 62 58

