# https://github.com/mikedh/trimesh
v -0.78599060 0.21815038 -0.24999481
v -0.78504753 0.21815038 -0.26187465
v -0.78513241 0.21815038 -0.23000443
v -0.78561336 0.51884246 -0.24115291
v -0.78599060 0.51884246 -0.24999481
v -0.78439677 0.21815038 -0.26999459
v -0.78510410 0.51884246 -0.26115268
v -0.78439677 0.51884246 -0.26999459
v -0.78212386 0.21815038 -0.21787143
v -0.78212386 0.51884246 -0.21691503
v -0.78380263 0.51884246 -0.22401293
v -0.78513241 0.51884246 -0.23000443
v -0.78139764 0.21815038 -0.28139624
v -0.78139764 0.51884246 -0.28139624
v -0.76999545 0.21815038 -0.21540543
v -0.76286554 0.51875418 -0.19021118
v -0.76150745 0.51884246 -0.19021118
v -0.76999545 0.21815038 -0.28439665
v -0.76999545 0.51884246 -0.28439665
v -0.75742382 0.21815038 -0.21754324
v -0.75822544 0.51831263 -0.19021118
v -0.75835747 0.51828319 -0.19021118
v -0.76263922 0.51828319 -0.19021118
v -0.75806510 0.51884246 -0.19021118
v -0.75811231 0.21815038 -0.28534368
v -0.75883847 0.51884246 -0.28528741
v -0.71753967 0.21815038 -0.25742090
v -0.68965197 0.51884246 -0.25800222
v -0.74999213 0.21815038 -0.28599066
v -0.74999213 0.51884246 -0.28599066
v -0.71668148 0.21815038 -0.26244661
v -0.68965197 0.51834208 -0.25818038
v -0.68965197 0.51854813 -0.25810537
v -0.68965197 0.51884246 -0.26079637
v -0.73811835 0.21815038 -0.28548431
v -0.73883510 0.51884246 -0.28551245
v -0.71540827 0.21815038 -0.26999459
v -0.68965197 0.51834208 -0.26249349
v -0.69000089 0.51884246 -0.26280293
v -0.68965197 0.51881304 -0.26280293
v -0.73000759 0.21815038 -0.28512803
v -0.73000759 0.51884246 -0.28512803
v -0.71635139 0.21815038 -0.27491716
v -0.71695495 0.51884246 -0.28212759
v -0.71786976 0.21815038 -0.28212759
f 1 2 6
f 1 6 13
f 1 13 18
f 1 18 25
f 1 25 29
f 1 29 35
f 1 35 41
f 1 41 45
f 1 45 43
f 1 43 37
f 1 37 31
f 1 31 27
f 1 27 20
f 1 20 15
f 1 15 9
f 1 9 3
f 1 3 4
f 1 4 5
f 1 5 2
f 2 5 7
f 2 7 8
f 2 8 6
f 3 9 10
f 3 10 11
f 3 11 12
f 3 12 4
f 4 12 11
f 4 11 10
f 4 10 17
f 4 17 24
f 4 24 28
f 4 28 34
f 4 34 39
f 4 39 44
f 4 44 42
f 4 42 36
f 4 36 30
f 4 30 26
f 4 26 19
f 4 19 14
f 4 14 8
f 4 8 7
f 4 7 5
f 6 8 14
f 6 14 13
f 9 15 16
f 9 16 10
f 10 16 17
f 13 14 19
f 13 19 18
f 15 20 21
f 15 21 22
f 15 22 23
f 15 23 16
f 16 23 22
f 16 22 21
f 16 21 24
f 16 24 17
f 18 19 26
f 18 26 25
f 20 27 28
f 20 28 24
f 20 24 21
f 25 26 29
f 26 30 29
f 27 31 32
f 27 32 33
f 27 33 28
f 28 33 32
f 28 32 38
f 28 38 40
f 28 40 34
f 29 30 35
f 30 36 35
f 31 37 32
f 32 37 38
f 34 40 39
f 35 36 42
f 35 42 41
f 37 43 40
f 37 40 38
f 39 40 44
f 40 43 45
f 40 45 44
f 41 42 44
f 41 44 45

