# https://github.com/mikedh/trimesh
v -0.69015974 1.38881457 0.23016229
v -0.69015974 1.38878006 0.22977722
v -0.69015974 1.38780686 0.25000873
v 0.00005680 1.38878006 0.23000081
v 0.00005680 1.38878006 0.22977722
v -0.69015974 1.36866057 0.22977722
v -0.69015974 1.38777927 0.25016609
v 0.00005680 1.38761362 0.25000048
v 0.00005680 1.38820720 0.23987642
v 0.00005680 1.36866057 0.22977722
v -0.69015974 1.31830323 0.25817424
v -0.69015974 1.38342407 0.26394638
v 0.00005680 1.38322392 0.26387599
v 0.00005680 1.31856552 0.25818253
v -0.69015974 1.31830323 0.26253027
v -0.69015974 1.36999959 0.27032310
v 0.00005680 1.36999959 0.27025270
v 0.00005680 1.31856552 0.26257169
v -0.68995702 1.31835845 0.26257169
v -0.69015974 1.32984346 0.26824445
v -0.69015974 1.35000435 0.27207461
v 0.00005680 1.35000435 0.27203736
v 0.00005680 1.36012274 0.27113467
v 0.00005680 1.32435632 0.26544118
v 0.00005680 1.33000219 0.26823619
v -0.69015974 1.33000219 0.26829416
v -0.69015974 1.34981108 0.27205807
v 0.00005680 1.34012750 0.27016160
f 1 2 6
f 1 6 11
f 1 11 15
f 1 15 20
f 1 20 26
f 1 26 27
f 1 27 21
f 1 21 16
f 1 16 12
f 1 12 7
f 1 7 3
f 1 3 4
f 1 4 5
f 1 5 2
f 2 5 10
f 2 10 6
f 3 7 8
f 3 8 9
f 3 9 4
f 4 9 8
f 4 8 13
f 4 13 17
f 4 17 23
f 4 23 22
f 4 22 28
f 4 28 25
f 4 25 24
f 4 24 18
f 4 18 14
f 4 14 10
f 4 10 5
f 6 10 11
f 7 12 8
f 8 12 13
f 10 14 11
f 11 14 18
f 11 18 15
f 12 16 17
f 12 17 13
f 15 18 19
f 15 19 20
f 16 21 22
f 16 22 23
f 16 23 17
f 18 24 19
f 19 24 25
f 19 25 20
f 20 25 26
f 21 27 22
f 22 27 28
f 25 28 26
f 26 28 27

