# https://github.com/mikedh/trimesh
v -0.76966810 0.59304810 -0.20996797
v -0.78213096 0.59304810 -0.21751460
v -0.75080645 0.59304810 -0.21083874
v -0.76999551 0.69987172 -0.21554980
v -0.78213096 0.69987172 -0.21787184
v -0.78512943 0.59304810 -0.23000303
v -0.78364879 0.69987172 -0.22401187
v -0.78512943 0.69987172 -0.23000303
v -0.71094775 0.59304810 -0.25076747
v -0.71768880 0.69987172 -0.25761452
v -0.75761449 0.69987172 -0.21768579
v -0.78600001 0.59304810 -0.24999346
v -0.78600001 0.69987172 -0.24999346
v -0.70999533 0.59304810 -0.26964152
v -0.71555340 0.69987172 -0.26999876
v -0.71663225 0.69987172 -0.26373222
v -0.78463840 0.59304810 -0.26694736
v -0.78518897 0.69987172 -0.26011518
v -0.71044177 0.59304810 -0.27178493
v -0.71787483 0.69987172 -0.28212994
v -0.71669924 0.69987172 -0.27598992
v -0.78439283 0.59304810 -0.26999876
v -0.78439283 0.69987172 -0.26999876
v -0.71752512 0.59304810 -0.28212994
v -0.73000282 0.69987172 -0.28512925
v -0.78185564 0.59304810 -0.27965906
v -0.78287500 0.69987172 -0.27576664
v -0.71937037 0.59304810 -0.28258395
v -0.73988378 0.69987172 -0.28556091
v -0.73000282 0.59304810 -0.28512925
v -0.73305345 0.59304810 -0.28526321
v -0.78139430 0.59304810 -0.28139314
v -0.78139430 0.69987172 -0.28139314
v -0.74999541 0.69987172 -0.28599256
v -0.74999541 0.59304810 -0.28599256
v -0.77173656 0.59304810 -0.28393847
v -0.77562791 0.69987172 -0.28291142
v -0.75987643 0.69987172 -0.28520370
v -0.75304604 0.59304810 -0.28575441
v -0.76999551 0.59304810 -0.28439245
v -0.76999551 0.69987172 -0.28439245
f 1 2 6
f 1 6 12
f 1 12 17
f 1 17 22
f 1 22 26
f 1 26 32
f 1 32 36
f 1 36 40
f 1 40 39
f 1 39 35
f 1 35 31
f 1 31 30
f 1 30 28
f 1 28 24
f 1 24 19
f 1 19 14
f 1 14 9
f 1 9 3
f 1 3 4
f 1 4 5
f 1 5 2
f 2 5 7
f 2 7 8
f 2 8 6
f 3 9 10
f 3 10 11
f 3 11 4
f 4 11 10
f 4 10 16
f 4 16 15
f 4 15 21
f 4 21 20
f 4 20 25
f 4 25 29
f 4 29 34
f 4 34 38
f 4 38 41
f 4 41 37
f 4 37 33
f 4 33 27
f 4 27 23
f 4 23 18
f 4 18 13
f 4 13 8
f 4 8 7
f 4 7 5
f 6 8 13
f 6 13 12
f 9 14 15
f 9 15 16
f 9 16 10
f 12 13 18
f 12 18 17
f 14 19 20
f 14 20 21
f 14 21 15
f 17 18 22
f 18 23 22
f 19 24 20
f 20 24 25
f 22 23 26
f 23 27 26
f 24 28 25
f 25 28 30
f 25 30 31
f 25 31 29
f 26 27 33
f 26 33 32
f 29 31 35
f 29 35 34
f 32 33 36
f 33 37 36
f 34 35 39
f 34 39 38
f 36 37 41
f 36 41 40
f 38 39 41
f 39 40 41

