# https://github.com/mikedh/trimesh
v -0.68981832 0.16868758 -0.21977323
v -0.68981832 0.11836541 0.25817487
v -0.68981832 0.18877506 -0.21977323
v 0.00005686 0.16868758 -0.21977323
v -0.68981832 0.11836541 0.26255572
v 0.00005686 0.11856532 0.25817487
v -0.68981832 0.18877506 0.22996399
v 0.00005686 0.18877506 -0.21977323
v -0.68981832 0.13000154 0.26823643
v 0.00005686 0.11856532 0.26255572
v 0.00005686 0.13000154 0.26823643
v -0.68981832 0.18776172 0.24999082
v 0.00005686 0.18877506 0.22996399
v -0.68981832 0.15000629 0.27203959
v 0.00005686 0.14012802 0.27016208
v -0.68981832 0.18339819 0.26380742
v 0.00005686 0.18761700 0.24999082
v -0.68981832 0.16999733 0.27025837
v 0.00005686 0.15000629 0.27203959
v 0.00005686 0.18322587 0.26385555
v 0.00005686 0.16011900 0.27112490
v 0.00005686 0.16999733 0.27021021
f 1 2 5
f 1 5 9
f 1 9 14
f 1 14 18
f 1 18 16
f 1 16 12
f 1 12 7
f 1 7 3
f 1 3 8
f 1 8 4
f 1 4 2
f 2 4 6
f 2 6 10
f 2 10 5
f 3 7 13
f 3 13 8
f 4 8 13
f 4 13 17
f 4 17 20
f 4 20 22
f 4 22 21
f 4 21 19
f 4 19 15
f 4 15 11
f 4 11 10
f 4 10 6
f 5 10 11
f 5 11 9
f 7 12 13
f 9 11 15
f 9 15 14
f 12 16 17
f 12 17 13
f 14 15 19
f 14 19 18
f 16 18 20
f 16 20 17
f 18 19 21
f 18 21 22
f 18 22 20

