# https://github.com/mikedh/trimesh
v 0.00012437 0.16865402 -0.22995022
v 0.00012437 0.11856860 0.25817895
v 0.00012437 0.18877649 -0.22995022
v 0.69019008 0.16865402 -0.22995022
v 0.69019008 0.11829948 0.25812978
v 0.00012437 0.11856860 0.26255259
v 0.69019008 0.11828566 0.25827724
v 0.00012437 0.18877649 0.22997133
v 0.69019008 0.18878341 -0.22995022
v 0.00012437 0.13000309 0.26820391
v 0.69019008 0.11828566 0.26260173
v 0.00012437 0.18761718 0.24997219
v 0.69019008 0.18781042 0.24997219
v 0.69019008 0.18878341 0.22997133
v 0.00012437 0.15000135 0.27203703
v 0.69019008 0.13000309 0.26830220
v 0.00012437 0.18545038 0.25685209
v 0.69019008 0.18343532 0.26392856
v 0.00012437 0.16999966 0.27021876
v 0.69019008 0.15000135 0.27208617
v 0.69019008 0.16999966 0.27031705
v 0.00012437 0.18322831 0.26383027
v 0.69019008 0.17019290 0.27026790
v 0.00012437 0.17669332 0.26702452
f 1 2 6
f 1 6 10
f 1 10 15
f 1 15 19
f 1 19 24
f 1 24 22
f 1 22 17
f 1 17 12
f 1 12 8
f 1 8 3
f 1 3 9
f 1 9 4
f 1 4 5
f 1 5 2
f 2 5 7
f 2 7 11
f 2 11 6
f 3 8 14
f 3 14 9
f 4 9 14
f 4 14 13
f 4 13 18
f 4 18 23
f 4 23 21
f 4 21 20
f 4 20 16
f 4 16 11
f 4 11 7
f 4 7 5
f 6 11 10
f 8 12 13
f 8 13 14
f 10 11 16
f 10 16 15
f 12 17 18
f 12 18 13
f 15 16 20
f 15 20 21
f 15 21 19
f 17 22 18
f 18 22 24
f 18 24 23
f 19 21 23
f 19 23 24

