# https://github.com/mikedh/trimesh
v 0.69019008 0.55000430 -0.27208620
v 0.69019008 0.56999940 -0.27032405
v 0.69019008 0.54977646 -0.27205062
v 0.00012437 0.55000430 -0.27203280
v 0.69019008 0.58343533 -0.26395181
v 0.00012437 0.56999940 -0.27023506
v 0.69019008 0.53000233 -0.26829490
v 0.00012437 0.53988248 -0.27011046
v 0.69019008 0.58777818 -0.25019276
v 0.00012437 0.57653093 -0.26710233
v 0.00012437 0.58322820 -0.26386282
v 0.00012437 0.58761936 -0.24999696
v 0.69019008 0.52981591 -0.26824149
v 0.00012437 0.53000233 -0.26822370
v 0.69019008 0.58781269 -0.24999696
v 0.00012437 0.58819243 -0.24011822
v 0.69019008 0.51829249 -0.26263463
v 0.00012437 0.51856866 -0.26256344
v 0.69019008 0.58882076 -0.23018607
v 0.00012437 0.58877933 -0.22999027
v 0.69019008 0.51829940 -0.25816697
v 0.00012437 0.51856866 -0.25816697
v 0.69019008 0.58877933 -0.09026382
v 0.00012437 0.58877933 -0.09026382
v 0.69019008 0.56870827 -0.09026382
v 0.00012437 0.56870827 -0.09026382
f 1 2 5
f 1 5 9
f 1 9 15
f 1 15 19
f 1 19 23
f 1 23 25
f 1 25 21
f 1 21 17
f 1 17 13
f 1 13 7
f 1 7 3
f 1 3 4
f 1 4 2
f 2 4 6
f 2 6 5
f 3 7 8
f 3 8 4
f 4 8 14
f 4 14 18
f 4 18 22
f 4 22 26
f 4 26 24
f 4 24 20
f 4 20 16
f 4 16 12
f 4 12 11
f 4 11 10
f 4 10 6
f 5 6 10
f 5 10 11
f 5 11 12
f 5 12 9
f 7 13 14
f 7 14 8
f 9 12 15
f 12 16 15
f 13 17 14
f 14 17 18
f 15 16 20
f 15 20 19
f 17 21 22
f 17 22 18
f 19 20 24
f 19 24 23
f 21 25 26
f 21 26 22
f 23 24 26
f 23 26 25

