# https://github.com/mikedh/trimesh
v -0.77001548 0.89002975 0.21543458
v -0.75763428 0.89002975 0.21754819
v -0.78213322 0.89002975 0.21788263
v -0.76257360 0.91859654 0.14933717
v -0.75823641 0.91859654 0.14933717
v -0.71757418 0.89002975 0.25761330
v -0.77211350 0.94999683 0.14933717
v -0.77199119 0.94933131 0.14933717
v -0.76825613 0.93000108 0.14933717
v -0.78512508 0.89002975 0.22998911
v -0.68988585 0.96871196 0.14933717
v -0.68988585 0.91836462 0.25820193
v -0.71541971 0.89002975 0.26997396
v -0.77046710 0.96933714 0.14933717
v -0.78512508 0.99304365 0.22998911
v -0.78600001 0.89002975 0.24998823
v -0.68988585 0.98877829 0.14933717
v -0.68988585 0.91836462 0.26256293
v -0.71785641 0.89002975 0.28210720
v -0.77041066 0.96999257 0.14933717
v -0.78258485 0.99304365 0.21934076
v -0.78600001 0.99304365 0.24998823
v -0.78575540 0.99304365 0.25303826
v -0.78439122 0.89002975 0.26998734
v -0.73000240 0.98877829 0.14933717
v -0.76966739 0.99304365 0.20997663
v -0.75067222 0.99304365 0.21077926
v -0.71089435 0.99304365 0.25077748
v -0.70999116 0.99304365 0.26963952
v -0.68988585 0.98877829 0.22998911
v -0.68988585 0.93000108 0.26823491
v -0.71650165 0.93000108 0.28212059
v -0.73000240 0.89002975 0.28513050
v -0.68988585 0.94999683 0.27203408
v -0.76418239 0.98283906 0.14933717
v -0.78212380 0.99304365 0.21750806
v -0.78439122 0.99304365 0.26998734
v -0.78139943 0.89002975 0.28139821
v -0.78393960 0.99304365 0.27172640
v -0.74933624 0.98770943 0.14933717
v -0.77180302 0.99304365 0.21041808
v -0.71752715 0.99304365 0.28212059
v -0.68988585 0.98339366 0.26382041
v -0.68988585 0.98775985 0.24998823
v -0.68988585 0.98776993 0.24988121
v -0.71624762 0.94999683 0.28212059
v -0.73000240 0.99304365 0.28513050
v -0.74999481 0.89002975 0.28600001
v -0.68988585 0.96999257 0.27026826
v -0.71665215 0.96999257 0.28212059
v -0.76396602 0.98328274 0.14933717
v -0.74999481 0.98766910 0.14933717
v -0.76999664 0.89002975 0.28439474
v -0.78139943 0.99304365 0.28139821
v -0.74999481 0.99304365 0.28600001
v -0.76999664 0.99304365 0.28439474
f 1 2 6
f 1 6 13
f 1 13 19
f 1 19 33
f 1 33 48
f 1 48 53
f 1 53 38
f 1 38 24
f 1 24 16
f 1 16 10
f 1 10 3
f 1 3 4
f 1 4 5
f 1 5 2
f 2 5 6
f 3 7 8
f 3 8 9
f 3 9 4
f 3 10 7
f 4 9 8
f 4 8 7
f 4 7 14
f 4 14 20
f 4 20 35
f 4 35 51
f 4 51 52
f 4 52 40
f 4 40 25
f 4 25 17
f 4 17 11
f 4 11 5
f 5 11 6
f 6 12 13
f 6 11 12
f 7 10 15
f 7 15 14
f 10 16 22
f 10 22 15
f 11 17 30
f 11 30 45
f 11 45 44
f 11 44 43
f 11 43 49
f 11 49 34
f 11 34 31
f 11 31 18
f 11 18 12
f 12 18 13
f 13 18 19
f 14 15 20
f 15 21 20
f 15 22 23
f 15 23 37
f 15 37 39
f 15 39 54
f 15 54 56
f 15 56 55
f 15 55 47
f 15 47 42
f 15 42 29
f 15 29 28
f 15 28 27
f 15 27 26
f 15 26 41
f 15 41 36
f 15 36 21
f 16 23 22
f 16 24 23
f 17 25 26
f 17 26 27
f 17 27 28
f 17 28 29
f 17 29 30
f 18 31 19
f 19 32 33
f 19 31 34
f 19 34 32
f 20 21 36
f 20 36 35
f 23 24 37
f 24 38 39
f 24 39 37
f 25 40 41
f 25 41 26
f 29 42 43
f 29 43 44
f 29 44 45
f 29 45 30
f 32 34 46
f 32 46 33
f 33 47 55
f 33 55 48
f 33 46 47
f 34 49 42
f 34 42 50
f 34 50 46
f 35 36 51
f 36 41 52
f 36 52 51
f 38 53 56
f 38 56 54
f 38 54 39
f 40 52 41
f 42 47 50
f 42 49 43
f 46 50 47
f 48 55 56
f 48 56 53

