# https://github.com/mikedh/trimesh
v -0.78600001 0.69988215 -0.24999604
v -0.78439122 0.69988215 -0.26999557
v -0.78512508 0.69988215 -0.23000458
v -0.78600001 0.99301496 -0.24999604
v -0.78139943 0.69988215 -0.28139278
v -0.78439122 0.99301496 -0.26999557
v -0.78364795 0.69988215 -0.22401197
v -0.78212380 0.94999920 -0.21617487
v -0.78512508 0.99301496 -0.23000458
v -0.77563220 0.69988215 -0.28291512
v -0.78139943 0.99301496 -0.28139278
v -0.78212380 0.69988215 -0.21787438
v -0.77545345 0.94999920 -0.20372248
v -0.78212380 0.96997183 -0.21660176
v -0.78212380 0.99301496 -0.21751192
v -0.76999664 0.69988215 -0.28439716
v -0.76999664 0.99301496 -0.28439716
v -0.77613080 0.69988215 -0.21672258
v -0.77314842 0.92999787 -0.20372248
v -0.77378815 0.93329795 -0.20372248
v -0.77439028 0.96997183 -0.20372248
v -0.76966739 0.99301496 -0.20997283
v -0.76807737 0.98779224 -0.20372248
v -0.74999481 0.69988215 -0.28599197
v -0.75304312 0.99301496 -0.28575033
v -0.76999664 0.69988215 -0.21555465
v -0.76882064 0.91633842 -0.20372248
v -0.75053108 0.99123579 -0.20372248
v -0.75081336 0.99301496 -0.21083468
v -0.73988104 0.69988215 -0.28555700
v -0.74999481 0.99301496 -0.28599197
v -0.75761545 0.69988215 -0.21768913
v -0.68988585 0.96870919 -0.20372248
v -0.75751197 0.91372706 -0.20372248
v -0.76610166 0.91318183 -0.20372248
v -0.76727772 0.91318183 -0.20372248
v -0.68988585 0.98876791 -0.20372248
v -0.75067222 0.99301496 -0.21087494
v -0.73000240 0.69988215 -0.28513011
v -0.73000240 0.99301496 -0.28513011
v -0.71768707 0.69988215 -0.25761569
v -0.68988585 0.91834716 -0.25817949
v -0.71555144 0.69988215 -0.26999557
v -0.70999116 0.99301496 -0.26964116
v -0.71088493 0.99301496 -0.25077733
v -0.68988585 0.98876791 -0.23011734
v -0.71787524 0.69988215 -0.28212577
v -0.71624762 0.94999920 -0.28212577
v -0.71937114 0.99301496 -0.28258488
v -0.71665215 0.96997183 -0.28212577
v -0.68988585 0.91834716 -0.26254508
v -0.71669924 0.69988215 -0.27598816
v -0.71044278 0.99301496 -0.27178368
v -0.68988585 0.98773484 -0.25007659
v -0.68988585 0.94999920 -0.27203336
v -0.68988585 0.94988441 -0.27201727
v -0.68988585 0.92991178 -0.26819938
v -0.71752715 0.99301496 -0.28212577
v -0.69000816 0.98337300 -0.26389825
v -0.68988585 0.98328692 -0.26393047
v -0.68988585 0.96988574 -0.27028552
v -0.68988585 0.96997183 -0.27026942
f 1 2 5
f 1 5 10
f 1 10 16
f 1 16 24
f 1 24 30
f 1 30 39
f 1 39 47
f 1 47 52
f 1 52 43
f 1 43 41
f 1 41 32
f 1 32 26
f 1 26 18
f 1 18 12
f 1 12 7
f 1 7 3
f 1 3 9
f 1 9 4
f 1 4 6
f 1 6 2
f 2 6 11
f 2 11 5
f 3 7 8
f 3 8 9
f 4 9 15
f 4 15 22
f 4 22 29
f 4 29 38
f 4 38 45
f 4 45 44
f 4 44 53
f 4 53 58
f 4 58 49
f 4 49 40
f 4 40 31
f 4 31 25
f 4 25 17
f 4 17 11
f 4 11 6
f 5 11 10
f 7 12 8
f 8 13 14
f 8 14 9
f 8 12 13
f 9 14 15
f 10 11 17
f 10 17 16
f 12 18 19
f 12 19 20
f 12 20 13
f 13 20 19
f 13 19 27
f 13 27 36
f 13 36 35
f 13 35 34
f 13 34 33
f 13 33 37
f 13 37 28
f 13 28 23
f 13 23 21
f 13 21 15
f 13 15 14
f 15 21 23
f 15 23 22
f 16 17 25
f 16 25 24
f 18 26 19
f 19 26 27
f 22 28 29
f 22 23 28
f 24 25 31
f 24 31 30
f 26 32 33
f 26 33 34
f 26 34 35
f 26 35 36
f 26 36 27
f 28 37 29
f 29 37 38
f 30 31 40
f 30 40 39
f 32 41 33
f 33 42 51
f 33 51 57
f 33 57 56
f 33 56 55
f 33 55 61
f 33 61 62
f 33 62 60
f 33 60 54
f 33 54 46
f 33 46 37
f 33 41 43
f 33 43 42
f 37 44 45
f 37 45 38
f 37 46 44
f 39 40 48
f 39 48 47
f 40 49 50
f 40 50 48
f 42 43 51
f 43 52 51
f 44 46 54
f 44 54 53
f 47 48 55
f 47 55 56
f 47 56 57
f 47 57 51
f 47 51 52
f 48 50 55
f 49 58 50
f 50 58 55
f 53 54 59
f 53 59 60
f 53 60 58
f 54 60 59
f 55 58 61
f 58 60 62
f 58 62 61

