# https://github.com/mikedh/trimesh
v 0.75000703 0.38080168 0.28600001
v 0.76999623 0.48984230 0.28439477
v 0.75000703 0.48984230 0.28599310
v 0.74987561 0.48984230 0.28599310
v 0.73001099 0.48984230 0.28512821
v 0.75000703 0.21005070 0.28600001
v 0.76999623 0.38080168 0.28439477
v 0.78139883 0.48984230 0.28139880
v 0.71787494 0.48984230 0.28212529
v 0.72444111 0.38080168 0.28375131
v 0.73001099 0.38080168 0.28512821
v 0.73001099 0.21005070 0.28512129
v 0.76998931 0.21005070 0.28438786
v 0.78139883 0.38080168 0.28139880
v 0.78439474 0.48984230 0.26999611
v 0.71542561 0.48984230 0.26999611
v 0.71532184 0.21005070 0.26998919
v 0.71787494 0.21005070 0.28212529
v 0.78139192 0.21005070 0.28137112
v 0.78139192 0.23001826 0.28139189
v 0.78439474 0.38080168 0.26999611
v 0.78598613 0.48984230 0.25013137
v 0.78600001 0.38080168 0.25000682
v 0.71755666 0.48984230 0.25761786
v 0.71744597 0.21005070 0.25730649
v 0.78439474 0.21005070 0.26995462
v 0.78438783 0.23001826 0.26998919
v 0.78600001 0.23001826 0.25000682
v 0.78599304 0.48984230 0.25000682
v 0.78552949 0.38080168 0.23918536
v 0.78513509 0.48984230 0.23013517
v 0.75761801 0.48984230 0.21756317
v 0.75727898 0.21005070 0.21746629
v 0.78598613 0.21005070 0.24997224
v 0.78511435 0.21005070 0.22998987
v 0.78512126 0.23001826 0.23001063
v 0.78512818 0.38080168 0.23001063
v 0.78512818 0.48984230 0.23001063
v 0.76999623 0.48984230 0.21542516
v 0.76996851 0.21005070 0.21532138
v 0.78210455 0.21005070 0.21787453
v 0.78212529 0.23001826 0.21787453
v 0.78212529 0.48984230 0.21787453
f 1 2 3
f 1 3 4
f 1 4 5
f 1 5 11
f 1 11 6
f 1 6 7
f 1 7 2
f 2 7 14
f 2 14 8
f 2 8 15
f 2 15 22
f 2 22 29
f 2 29 31
f 2 31 38
f 2 38 43
f 2 43 39
f 2 39 32
f 2 32 24
f 2 24 16
f 2 16 9
f 2 9 5
f 2 5 4
f 2 4 3
f 5 9 10
f 5 10 11
f 6 12 18
f 6 18 17
f 6 17 25
f 6 25 33
f 6 33 40
f 6 40 41
f 6 41 35
f 6 35 34
f 6 34 26
f 6 26 19
f 6 19 13
f 6 13 7
f 6 11 12
f 7 13 14
f 8 14 21
f 8 21 15
f 9 16 17
f 9 17 18
f 9 18 10
f 10 18 11
f 11 18 12
f 13 19 20
f 13 20 14
f 14 20 27
f 14 27 21
f 15 21 28
f 15 28 23
f 15 23 22
f 16 24 25
f 16 25 17
f 19 26 20
f 20 26 27
f 21 27 26
f 21 26 28
f 22 23 29
f 23 28 30
f 23 30 31
f 23 31 29
f 24 32 33
f 24 33 25
f 26 34 28
f 28 34 35
f 28 35 36
f 28 36 37
f 28 37 30
f 30 37 31
f 31 37 38
f 32 39 33
f 33 39 40
f 35 41 42
f 35 42 36
f 36 42 37
f 37 42 43
f 37 43 38
f 39 43 40
f 40 43 42
f 40 42 41

