# https://github.com/mikedh/trimesh
v -0.78600001 0.69988215 0.25000593
v -0.78512943 0.69988215 0.23000537
v -0.78439707 0.69988215 0.26999956
v -0.78600001 0.89002976 0.25000593
v -0.78213078 0.69988215 0.21787377
v -0.78512943 0.89002976 0.23000537
v -0.78139836 0.69988215 0.28139886
v -0.78439707 0.89002976 0.26999956
v -0.76999795 0.69988215 0.21555245
v -0.78213078 0.88999253 0.21787377
v -0.76999795 0.88999253 0.21542120
v -0.78213078 0.89002976 0.21788758
v -0.76999795 0.69988215 0.28439721
v -0.78139836 0.89002976 0.28139886
v -0.76373118 0.69988215 0.21663021
v -0.75763708 0.89002976 0.21754214
v -0.77001178 0.89002976 0.21542810
v -0.75000226 0.69988215 0.28599310
v -0.76999795 0.89002976 0.28439721
v -0.75761640 0.69988215 0.21768723
v -0.71757668 0.89002976 0.25761235
v -0.71755594 0.88999253 0.25761926
v -0.75761640 0.88999253 0.21755597
v -0.73000658 0.69988215 0.28512952
v -0.75000226 0.89002976 0.28599310
v -0.71768725 0.69988215 0.25761926
v -0.71541405 0.89002976 0.26997885
v -0.71787375 0.69988215 0.28213117
v -0.73000658 0.89002976 0.28512952
v -0.71555221 0.69988215 0.26999956
v -0.71785998 0.89002976 0.28211045
v -0.71787375 0.88999253 0.28213117
f 1 2 5
f 1 5 9
f 1 9 15
f 1 15 20
f 1 20 26
f 1 26 30
f 1 30 28
f 1 28 24
f 1 24 18
f 1 18 13
f 1 13 7
f 1 7 3
f 1 3 8
f 1 8 4
f 1 4 6
f 1 6 2
f 2 6 10
f 2 10 5
f 3 7 14
f 3 14 8
f 4 8 14
f 4 14 19
f 4 19 25
f 4 25 29
f 4 29 31
f 4 31 27
f 4 27 21
f 4 21 16
f 4 16 17
f 4 17 12
f 4 12 6
f 5 10 11
f 5 11 9
f 6 12 10
f 7 13 19
f 7 19 14
f 9 11 16
f 9 16 15
f 10 12 17
f 10 17 11
f 11 17 16
f 13 18 25
f 13 25 19
f 15 16 20
f 16 21 22
f 16 22 23
f 16 23 20
f 18 24 29
f 18 29 25
f 20 23 22
f 20 22 26
f 21 27 22
f 22 27 26
f 24 28 32
f 24 32 29
f 26 27 30
f 27 31 28
f 27 28 30
f 28 31 32
f 29 32 31

