# https://github.com/mikedh/trimesh
v 0.77267355 0.15000844 0.19228244
v 0.77108300 0.16998982 0.19228244
v 0.77239096 0.14721078 0.19228244
v 0.77214068 0.15000844 -0.19009936
v 0.77213258 0.15012705 -0.19009936
v 0.76466417 0.18415964 0.19228244
v 0.77044511 0.16998982 -0.19009936
v 0.77041286 0.17009449 -0.19009936
v 0.76906449 0.13000613 0.19228244
v 0.76828134 0.13000613 -0.19009936
v 0.75007451 0.18839449 0.19228244
v 0.76401824 0.18345493 -0.19009936
v 0.74999380 0.18784332 -0.19009936
v 0.76833785 0.12771773 0.19228244
v 0.76260531 0.11835498 -0.19009936
v 0.73001075 0.18879914 0.19228244
v 0.73001075 0.18877822 -0.19009936
v 0.76335621 0.11752474 0.19228244
v 0.75822115 0.11836195 -0.19009936
v 0.75954527 0.11752474 0.19228244
v 0.69020611 0.18877125 0.19228244
v 0.69019806 0.18877125 -0.19009936
v 0.69019806 0.18877125 0.00008095
v 0.69019806 0.16871309 -0.19009936
v 0.75810814 0.11760849 0.19228244
v 0.69020611 0.16870612 0.19228244
v 0.69019806 0.16871309 0.00008095
v 0.69020611 0.16870612 0.00008095
f 1 2 6
f 1 6 11
f 1 11 16
f 1 16 21
f 1 21 26
f 1 26 25
f 1 25 20
f 1 20 18
f 1 18 14
f 1 14 9
f 1 9 3
f 1 3 4
f 1 4 5
f 1 5 2
f 2 5 7
f 2 7 8
f 2 8 6
f 3 9 10
f 3 10 4
f 4 10 15
f 4 15 19
f 4 19 24
f 4 24 22
f 4 22 17
f 4 17 13
f 4 13 12
f 4 12 8
f 4 8 7
f 4 7 5
f 6 8 12
f 6 12 13
f 6 13 11
f 9 14 10
f 10 14 15
f 11 13 17
f 11 17 16
f 14 18 15
f 15 18 20
f 15 20 19
f 16 17 22
f 16 22 23
f 16 23 21
f 19 20 25
f 19 25 24
f 21 23 27
f 21 27 26
f 22 24 27
f 22 27 23
f 24 25 28
f 24 28 26
f 24 26 27
f 25 26 28

