# https://github.com/mikedh/trimesh
v -0.69015974 0.58877543 0.19067007
v -0.73066729 0.58891261 0.19067007
v -0.69015974 0.56871131 0.19067007
v -0.69015974 0.58877543 -0.14933717
v -0.75002474 0.58798659 0.19067007
v -0.73000008 0.58877543 -0.14933717
v -0.75795102 0.51884252 0.19067007
v -0.69015974 0.56871131 -0.14933717
v -0.75069195 0.58787683 0.19067007
v -0.73066729 0.58874112 -0.14933717
v -0.74999261 0.58767104 -0.14933717
v -0.76303959 0.51886308 0.19067007
v -0.76302350 0.51884252 0.19063678
v -0.75814396 0.51884252 -0.14933717
v -0.76418912 0.58364451 0.19067007
v -0.75045884 0.58752698 -0.14933717
v -0.76325661 0.51930210 0.19067007
v -0.76824874 0.53000295 -0.14933717
v -0.76287878 0.51921290 -0.14933717
v -0.76269388 0.51884252 -0.14933717
v -0.77039510 0.57068685 0.19067007
v -0.76397210 0.58328095 -0.14933717
v -0.77041119 0.56999403 -0.14933717
v -0.76848990 0.53000295 0.19067007
v -0.77211541 0.55000535 -0.14933717
v -0.77062017 0.56999403 0.19067007
v -0.77228421 0.55000535 0.19067007
v -0.77224404 0.55080792 0.19067007
f 1 2 5
f 1 5 9
f 1 9 15
f 1 15 21
f 1 21 26
f 1 26 28
f 1 28 27
f 1 27 24
f 1 24 17
f 1 17 12
f 1 12 7
f 1 7 3
f 1 3 8
f 1 8 4
f 1 4 2
f 2 4 6
f 2 6 5
f 3 7 8
f 4 8 14
f 4 14 20
f 4 20 19
f 4 19 18
f 4 18 25
f 4 25 23
f 4 23 22
f 4 22 16
f 4 16 11
f 4 11 10
f 4 10 6
f 5 6 10
f 5 10 11
f 5 11 9
f 7 12 13
f 7 13 20
f 7 20 14
f 7 14 8
f 9 11 16
f 9 16 15
f 12 17 18
f 12 18 19
f 12 19 20
f 12 20 13
f 15 16 22
f 15 22 23
f 15 23 21
f 17 24 18
f 18 24 25
f 21 23 26
f 23 25 26
f 24 27 25
f 25 27 28
f 25 28 26

