# https://github.com/mikedh/trimesh
v 0.76990825 1.29012755 0.21539001
v 0.75825202 1.31839952 -0.18982571
v 0.76255631 1.31839952 -0.18982571
v 0.78204274 1.29012755 0.21781199
v 0.75760496 1.29012755 0.21748595
v 0.69019014 1.36869624 -0.18982571
v 0.71751618 1.29012755 0.25768149
v 0.76820159 1.32993582 -0.18982571
v 0.78509980 1.29012755 0.22992188
v 0.69019014 1.38877502 -0.18982571
v 0.71539682 1.29012755 0.26997769
v 0.69019014 1.31829971 0.25814724
v 0.77208382 1.34986490 -0.18982571
v 0.78598130 1.29012755 0.24985664
v 0.77210259 1.35000461 -0.18982571
v 0.69019014 1.38877502 0.00006676
v 0.70707899 1.39207825 0.25060186
v 0.71068931 1.39207825 0.24589762
v 0.74580806 1.39207825 0.21063919
v 0.75062811 1.39207825 0.20691308
v 0.73000699 1.38877502 -0.18982571
v 0.69019014 1.31828973 0.26261860
v 0.69019014 1.31828973 0.25828698
v 0.71787250 1.29012755 0.28208756
v 0.78598130 1.39207825 0.24994978
v 0.78598130 1.29012755 0.24994978
v 0.77042401 1.36999360 -0.18982571
v 0.69019014 1.38876507 0.22996846
v 0.70969534 1.39207825 0.26960507
v 0.76964569 1.39207825 0.20966110
v 0.74984980 1.38782698 -0.18982571
v 0.78211778 1.39207825 0.21748595
v 0.69019014 1.33000568 0.26825434
v 0.73000699 1.29012755 0.28511506
v 0.71651274 1.33000568 0.28208756
v 0.69019014 1.34999466 0.27207363
v 0.78455591 1.39207825 0.26788175
v 0.78589690 1.39207825 0.24790041
v 0.78438711 1.29012755 0.26997769
v 0.76401919 1.38333619 -0.18982571
v 0.78511858 1.39207825 0.22996846
v 0.69019014 1.38779706 0.24994978
v 0.71002352 1.39207825 0.27118868
v 0.74999046 1.38780701 -0.18982571
v 0.74999046 1.29012755 0.28600001
v 0.73208880 1.39207825 0.28520823
v 0.73000699 1.39207825 0.28511506
v 0.71625018 1.34999466 0.28208756
v 0.71665341 1.36999360 0.28208756
v 0.71751618 1.39207825 0.28208756
v 0.69019014 1.36999360 0.27030373
v 0.78438711 1.39207825 0.26997769
v 0.78138632 1.31001672 0.28138894
v 0.78140509 1.29012755 0.28129578
v 0.76388788 1.38345596 -0.18982571
v 0.69019014 1.38343599 0.26392275
v 0.74999046 1.39207825 0.28600001
v 0.76998329 1.29012755 0.28436983
v 0.71877277 1.39207825 0.28241360
v 0.69019014 1.37019318 0.27025715
v 0.78138632 1.39207825 0.28138894
v 0.76998329 1.39207825 0.28436983
f 1 2 3
f 1 3 4
f 1 4 9
f 1 9 14
f 1 14 26
f 1 26 39
f 1 39 54
f 1 54 58
f 1 58 45
f 1 45 34
f 1 34 24
f 1 24 11
f 1 11 7
f 1 7 5
f 1 5 2
f 2 6 10
f 2 10 21
f 2 21 31
f 2 31 44
f 2 44 55
f 2 55 40
f 2 40 27
f 2 27 15
f 2 15 13
f 2 13 8
f 2 8 3
f 2 5 7
f 2 7 6
f 3 8 9
f 3 9 4
f 6 7 11
f 6 11 12
f 6 12 23
f 6 23 22
f 6 22 33
f 6 33 36
f 6 36 51
f 6 51 60
f 6 60 56
f 6 56 42
f 6 42 28
f 6 28 16
f 6 16 10
f 8 13 9
f 9 13 15
f 9 15 14
f 10 16 17
f 10 17 18
f 10 18 19
f 10 19 20
f 10 20 21
f 11 22 23
f 11 23 12
f 11 24 22
f 14 25 26
f 14 15 25
f 15 27 25
f 16 28 17
f 17 28 29
f 17 29 43
f 17 43 50
f 17 50 59
f 17 59 47
f 17 47 46
f 17 46 57
f 17 57 62
f 17 62 61
f 17 61 52
f 17 52 37
f 17 37 25
f 17 25 38
f 17 38 41
f 17 41 32
f 17 32 30
f 17 30 20
f 17 20 19
f 17 19 18
f 20 30 21
f 21 30 32
f 21 32 31
f 22 24 33
f 24 34 35
f 24 35 36
f 24 36 33
f 25 37 26
f 25 27 38
f 26 37 39
f 27 40 41
f 27 41 38
f 28 42 29
f 29 42 43
f 31 32 41
f 31 41 44
f 34 45 46
f 34 46 47
f 34 47 48
f 34 48 35
f 35 48 36
f 36 48 49
f 36 49 50
f 36 50 51
f 37 52 39
f 39 52 61
f 39 61 53
f 39 53 54
f 40 55 41
f 41 55 44
f 42 56 43
f 43 56 50
f 45 57 46
f 45 58 62
f 45 62 57
f 47 59 49
f 47 49 48
f 49 59 50
f 50 56 60
f 50 60 51
f 53 61 62
f 53 62 58
f 53 58 54

