# https://github.com/mikedh/trimesh
v 0.69019008 0.91828355 0.25817287
v 0.71555871 0.75865628 0.26999527
v 0.69019008 0.91828355 0.26263034
v 0.69019008 0.96870902 0.19230124
v 0.71768761 0.75865628 0.25761339
v 0.71787518 0.75865628 0.28212953
v 0.69019008 0.92998463 0.26829851
v 0.69019008 0.98876097 0.19230124
v 0.75810862 0.91759381 0.19230124
v 0.76999104 0.75865628 0.21555167
v 0.75762093 0.75865628 0.21768869
v 0.73000145 0.75865628 0.28512868
v 0.71624333 0.94998731 0.28212953
v 0.69019008 0.94998731 0.27207726
v 0.69019008 0.98876097 0.23000638
v 0.71531487 1.01031558 0.26999527
v 0.71741563 1.01031558 0.25748500
v 0.71745312 1.01031558 0.25729239
v 0.75729269 1.01031558 0.21744105
v 0.76999104 1.01031558 0.21531321
v 0.73000145 0.98878560 0.19230124
v 0.75955290 0.91749527 0.19230124
v 0.78212678 0.75865628 0.21787213
v 0.76336050 0.91749527 0.19230124
v 0.74999624 0.75865628 0.28600001
v 0.73000145 1.01031558 0.28512868
v 0.71664661 0.96998999 0.28212953
v 0.71787518 1.01031558 0.28212953
v 0.69019008 0.95020901 0.27206808
v 0.69019008 0.98780025 0.25000083
v 0.71535236 1.01031558 0.27018788
v 0.78212678 1.01031558 0.21787213
v 0.75008065 0.98839146 0.19230124
v 0.78383362 0.75865628 0.22475095
v 0.76834983 0.92769368 0.19230124
v 0.76907200 0.92998463 0.19230124
v 0.77240133 0.94717905 0.19230124
v 0.77267331 0.94998731 0.19230124
v 0.78212678 0.94998731 0.21617535
v 0.76999104 0.75865628 0.28439495
v 0.74999624 1.01031558 0.28600001
v 0.69019008 0.98341542 0.26395109
v 0.69019008 0.97018705 0.27026126
v 0.69019008 0.96998999 0.27032545
v 0.76467353 0.98415444 0.19230124
v 0.78508097 1.01031558 0.22981377
v 0.78212678 0.96998999 0.21659726
v 0.77108836 0.96998999 0.19230124
v 0.78512788 0.75865628 0.23000638
v 0.78512788 1.01031558 0.23000638
v 0.78139526 0.75865628 0.28139579
v 0.77017862 1.01031558 0.28434908
v 0.76999104 1.01031558 0.28439495
v 0.78599066 0.75865628 0.24999166
v 0.78598130 1.01031558 0.24967982
v 0.78439635 0.75865628 0.26999527
v 0.78139526 1.01031558 0.28139579
v 0.78509033 0.75865628 0.26133713
v 0.78599066 1.01031558 0.24999166
v 0.78442448 1.01031558 0.26968345
v 0.78439635 1.01031558 0.26999527
f 1 2 3
f 1 3 7
f 1 7 14
f 1 14 29
f 1 29 44
f 1 44 43
f 1 43 42
f 1 42 30
f 1 30 15
f 1 15 8
f 1 8 4
f 1 4 2
f 2 5 11
f 2 11 10
f 2 10 23
f 2 23 34
f 2 34 49
f 2 49 54
f 2 54 58
f 2 58 56
f 2 56 51
f 2 51 40
f 2 40 25
f 2 25 12
f 2 12 6
f 2 6 3
f 2 4 5
f 3 6 7
f 4 8 21
f 4 21 33
f 4 33 45
f 4 45 48
f 4 48 38
f 4 38 37
f 4 37 36
f 4 36 35
f 4 35 24
f 4 24 22
f 4 22 9
f 4 9 10
f 4 10 11
f 4 11 5
f 6 12 13
f 6 13 14
f 6 14 7
f 8 15 16
f 8 16 17
f 8 17 18
f 8 18 19
f 8 19 20
f 8 20 21
f 9 22 10
f 10 22 24
f 10 24 23
f 12 25 41
f 12 41 26
f 12 26 13
f 13 26 27
f 13 27 14
f 14 27 28
f 14 28 29
f 15 30 16
f 16 31 28
f 16 28 26
f 16 26 41
f 16 41 53
f 16 53 52
f 16 52 57
f 16 57 61
f 16 61 60
f 16 60 59
f 16 59 55
f 16 55 50
f 16 50 46
f 16 46 32
f 16 32 20
f 16 20 19
f 16 19 18
f 16 18 17
f 16 30 31
f 20 32 33
f 20 33 21
f 23 24 35
f 23 35 36
f 23 36 37
f 23 37 38
f 23 38 39
f 23 39 34
f 25 40 53
f 25 53 41
f 26 28 27
f 28 31 30
f 28 30 42
f 28 42 43
f 28 43 44
f 28 44 29
f 32 45 33
f 32 46 47
f 32 47 38
f 32 38 48
f 32 48 45
f 34 39 49
f 38 47 39
f 39 47 50
f 39 50 49
f 40 51 52
f 40 52 53
f 46 50 47
f 49 50 55
f 49 55 54
f 51 56 61
f 51 61 57
f 51 57 52
f 54 55 59
f 54 59 58
f 56 58 60
f 56 60 61
f 58 59 60

