# https://github.com/mikedh/trimesh
v 0.70550859 1.79195285 -0.24550754
v 0.70281547 1.78887206 -0.22285709
v 0.70550859 1.78887206 -0.22285709
v 0.70550859 1.79169613 -0.25058132
v 0.00012437 1.78877872 -0.23000085
v 0.00012437 1.78877872 -0.22285709
v 0.70550859 1.76867586 -0.22285709
v 0.70550859 1.78912103 -0.26617101
v 0.00012437 1.78761953 -0.24999508
v 0.00012437 1.76867586 -0.22285709
v 0.70550859 1.71308959 -0.25737229
v 0.70550859 1.78835863 -0.26858339
v 0.00012437 1.78539455 -0.25702471
v 0.00012437 1.71856654 -0.25818163
v 0.70550859 1.71248281 -0.26791415
v 0.70550859 1.76999843 -0.27483484
v 0.00012437 1.76999843 -0.27024871
v 0.00012437 1.78322399 -0.26387277
v 0.00012437 1.71856654 -0.26257059
v 0.70550859 1.71448994 -0.26888949
v 0.00012437 1.73000276 -0.26823580
v 0.70550859 1.75000447 -0.27585685
v 0.00012437 1.75000447 -0.27203855
v 0.00012437 1.75986922 -0.27115661
v 0.70550859 1.73000276 -0.27378687
v 0.70550859 1.73112303 -0.27399957
f 1 2 3
f 1 3 7
f 1 7 11
f 1 11 15
f 1 15 20
f 1 20 25
f 1 25 26
f 1 26 22
f 1 22 16
f 1 16 12
f 1 12 8
f 1 8 4
f 1 4 5
f 1 5 6
f 1 6 2
f 2 6 10
f 2 10 7
f 2 7 3
f 4 8 9
f 4 9 5
f 5 9 13
f 5 13 18
f 5 18 17
f 5 17 24
f 5 24 23
f 5 23 21
f 5 21 19
f 5 19 14
f 5 14 10
f 5 10 6
f 7 10 11
f 8 12 9
f 9 12 13
f 10 14 11
f 11 14 15
f 12 16 17
f 12 17 18
f 12 18 13
f 14 19 15
f 15 19 21
f 15 21 20
f 16 22 23
f 16 23 24
f 16 24 17
f 20 21 25
f 21 23 25
f 22 26 23
f 23 26 25

