# https://github.com/mikedh/trimesh
v 0.00012437 0.96870922 0.15035027
v 0.00012437 0.91856856 0.25817862
v 0.00012437 0.98877652 0.15035027
v 0.69012249 0.96870922 0.15035027
v 0.69019008 0.91829944 0.25816670
v 0.00012437 0.91856856 0.26256421
v 0.69019008 0.91828563 0.25828588
v 0.00012437 0.98877652 0.22999404
v 0.69019008 0.98878342 0.22999404
v 0.69019008 0.98877652 0.15035027
v 0.69019008 0.96886103 0.15035027
v 0.00012437 0.93000306 0.26823688
v 0.69019008 0.91828563 0.26263571
v 0.00012437 0.98761720 0.24999139
v 0.69019008 0.98781042 0.25000331
v 0.00012437 0.95000136 0.27203852
v 0.69019008 0.93000306 0.26829648
v 0.00012437 0.98322834 0.26387513
v 0.69019008 0.98343536 0.26395854
v 0.00012437 0.96999965 0.27025092
v 0.69019008 0.95000136 0.27208620
v 0.69019008 0.95022908 0.27207428
v 0.69019008 0.96999965 0.27032241
v 0.69019008 0.97019287 0.27026284
f 1 2 6
f 1 6 12
f 1 12 16
f 1 16 20
f 1 20 18
f 1 18 14
f 1 14 8
f 1 8 3
f 1 3 10
f 1 10 11
f 1 11 4
f 1 4 5
f 1 5 2
f 2 5 7
f 2 7 13
f 2 13 6
f 3 8 9
f 3 9 10
f 4 11 5
f 5 11 10
f 5 10 9
f 5 9 15
f 5 15 19
f 5 19 24
f 5 24 23
f 5 23 22
f 5 22 21
f 5 21 17
f 5 17 13
f 5 13 7
f 6 13 12
f 8 14 15
f 8 15 9
f 12 13 17
f 12 17 16
f 14 18 19
f 14 19 15
f 16 17 21
f 16 21 22
f 16 22 23
f 16 23 20
f 18 20 19
f 19 20 24
f 20 23 24

