# https://github.com/mikedh/trimesh
v 0.69019008 0.11827385 0.25817287
v 0.71845663 -0.00199437 0.25841135
v 0.71778136 -0.00288522 0.26999527
v 0.69019008 0.11827385 0.26263034
v 0.69019008 0.16871434 0.19230124
v 0.75840873 -0.00199437 0.21845913
v 0.73000145 -0.00666082 0.26999527
v 0.71857852 -0.00184584 0.28141412
v 0.69019008 0.12998247 0.26829851
v 0.69019008 0.18878025 0.19230124
v 0.75810862 0.11759508 0.19230124
v 0.76999104 -0.00288522 0.21778041
v 0.76999104 -0.00666082 0.23000638
v 0.74999624 -0.00383973 0.28299168
v 0.73000145 -0.00330949 0.28256059
v 0.78219241 -0.00284278 0.26999527
v 0.76999104 -0.00284278 0.28219372
v 0.73000145 0.01001126 0.28512868
v 0.71787518 0.01001126 0.28212953
v 0.69019008 0.14998478 0.27207726
v 0.69019008 0.18878025 0.23000638
v 0.71531487 0.21003401 0.26999527
v 0.71744376 0.21003401 0.25731072
v 0.75728333 0.21003401 0.21745940
v 0.76997232 0.21003401 0.21531321
v 0.73000145 0.18878025 0.19230124
v 0.75955290 0.11751026 0.19230124
v 0.78141397 -0.00184584 0.21857835
v 0.76336050 0.11751026 0.19230124
v 0.78255814 -0.00330949 0.23000638
v 0.78299892 -0.00383973 0.24999166
v 0.74999624 0.01001126 0.28600001
v 0.78599066 0.01001126 0.24999166
v 0.78439635 0.01001126 0.26999527
v 0.78092629 -0.00125194 0.28092802
v 0.76999104 0.01001126 0.28439495
v 0.73000145 0.21003401 0.28512868
v 0.71624333 0.14998478 0.28212953
v 0.71664661 0.16998702 0.28212953
v 0.71787518 0.21003401 0.28212953
v 0.69019008 0.15021807 0.27206808
v 0.69019008 0.18780458 0.25000083
v 0.78210801 0.21003401 0.21787213
v 0.75008065 0.18839848 0.19230124
v 0.78212678 0.01001126 0.21787213
v 0.78512788 0.01001126 0.23000638
v 0.76834983 0.12769169 0.19230124
v 0.76907200 0.12998247 0.19230124
v 0.77240133 0.14718485 0.19230124
v 0.74999624 0.21003401 0.28600001
v 0.78599066 0.21003401 0.24996415
v 0.78599066 0.20999157 0.24999166
v 0.78139526 0.01001126 0.28139579
v 0.78439635 0.20999157 0.26999527
v 0.78140461 0.21003401 0.28137743
v 0.76999104 0.21003401 0.28439495
v 0.69019008 0.18343502 0.26395109
v 0.69019008 0.17017794 0.27026126
v 0.69019008 0.16998702 0.27032545
v 0.78511846 0.21003401 0.22998804
v 0.78212678 0.20999157 0.21787213
v 0.77108836 0.16998702 0.19230124
v 0.76467353 0.18415618 0.19230124
v 0.77267331 0.14998478 0.19230124
v 0.78212678 0.14998478 0.21617535
v 0.78512788 0.20999157 0.23000638
v 0.78439635 0.21003401 0.26995859
v 0.78139526 0.20999157 0.28139579
v 0.78212678 0.16998702 0.21659726
f 1 2 3
f 1 3 4
f 1 4 9
f 1 9 20
f 1 20 41
f 1 41 59
f 1 59 58
f 1 58 57
f 1 57 42
f 1 42 21
f 1 21 10
f 1 10 5
f 1 5 2
f 2 6 7
f 2 7 3
f 2 5 6
f 3 7 8
f 3 8 4
f 4 8 9
f 5 10 26
f 5 26 44
f 5 44 63
f 5 63 62
f 5 62 64
f 5 64 49
f 5 49 48
f 5 48 47
f 5 47 29
f 5 29 27
f 5 27 11
f 5 11 6
f 6 11 12
f 6 12 13
f 6 13 7
f 7 14 15
f 7 15 8
f 7 13 16
f 7 16 17
f 7 17 14
f 8 15 18
f 8 18 19
f 8 19 20
f 8 20 9
f 10 21 22
f 10 22 23
f 10 23 24
f 10 24 25
f 10 25 26
f 11 27 12
f 12 28 13
f 12 27 29
f 12 29 28
f 13 28 30
f 13 30 31
f 13 31 16
f 14 17 32
f 14 32 15
f 15 32 18
f 16 31 33
f 16 33 34
f 16 34 35
f 16 35 17
f 17 35 36
f 17 36 32
f 18 32 50
f 18 50 37
f 18 37 38
f 18 38 19
f 19 38 20
f 20 38 39
f 20 39 40
f 20 40 41
f 21 42 22
f 22 40 37
f 22 37 50
f 22 50 56
f 22 56 55
f 22 55 67
f 22 67 51
f 22 51 60
f 22 60 43
f 22 43 25
f 22 25 24
f 22 24 23
f 22 42 40
f 25 43 44
f 25 44 26
f 28 45 46
f 28 46 30
f 28 29 47
f 28 47 48
f 28 48 49
f 28 49 45
f 30 46 33
f 30 33 31
f 32 36 56
f 32 56 50
f 33 46 51
f 33 51 52
f 33 52 54
f 33 54 34
f 34 53 35
f 34 54 55
f 34 55 53
f 35 53 36
f 36 53 68
f 36 68 56
f 37 40 39
f 37 39 38
f 40 42 57
f 40 57 58
f 40 58 59
f 40 59 41
f 43 60 61
f 43 61 62
f 43 62 63
f 43 63 44
f 45 49 64
f 45 64 65
f 45 65 46
f 46 65 66
f 46 66 51
f 51 66 60
f 51 67 54
f 51 54 52
f 53 55 68
f 54 67 55
f 55 56 68
f 60 66 61
f 61 66 69
f 61 69 64
f 61 64 62
f 64 69 65
f 65 69 66

