# https://github.com/mikedh/trimesh
v 0.71428716 0.89362124 -0.26982790
v 0.71643519 0.89362124 -0.25752333
v 0.71632284 0.89362124 -0.27987230
v 0.71531200 0.61012655 -0.26998934
v 0.71745300 0.61012655 -0.25728467
v 0.75752825 0.89362124 -0.21643324
v 0.75728959 0.61012655 -0.21744400
v 0.71776891 0.89362124 -0.28212544
v 0.71787423 0.63002726 -0.28212544
v 0.71786720 0.61012655 -0.28206930
v 0.75957102 0.89362124 -0.21606123
v 0.76998818 0.61012655 -0.21531720
v 0.76981968 0.89362124 -0.21429241
v 0.72769469 0.89362124 -0.28457513
v 0.72994804 0.61012655 -0.28510857
v 0.78213918 0.61012655 -0.21793534
v 0.78213221 0.89362124 -0.21777390
v 0.78212517 0.63002726 -0.21787217
v 0.73001122 0.89362124 -0.28512263
v 0.73001122 0.63002726 -0.28512263
v 0.74991196 0.61012655 -0.28599298
v 0.78512955 0.61012655 -0.23010655
v 0.78512257 0.63002726 -0.23000827
v 0.78512257 0.89362124 -0.23000827
v 0.75001019 0.89362124 -0.28600001
v 0.75001019 0.75864623 -0.28600001
v 0.75001019 0.63002726 -0.28599298
v 0.76989692 0.61012655 -0.28439966
v 0.78598595 0.61012655 -0.25011110
v 0.78600001 0.63002726 -0.25000584
v 0.78600001 0.89362124 -0.25000584
v 0.76999521 0.89362124 -0.28439263
v 0.76999521 0.75864623 -0.28439263
v 0.76998818 0.63002726 -0.28439263
v 0.78133893 0.61012655 -0.28140950
v 0.78437847 0.61012655 -0.27005252
v 0.78439254 0.63002726 -0.26998934
v 0.78439254 0.89362124 -0.26998934
v 0.78139514 0.89362124 -0.28138843
v 0.78139514 0.75861849 -0.28139547
v 0.78139514 0.63002726 -0.28139547
v 0.78310090 0.75864623 -0.27492380
v 0.78384495 0.89362124 -0.27207401
f 1 2 6
f 1 6 11
f 1 11 13
f 1 13 17
f 1 17 24
f 1 24 31
f 1 31 38
f 1 38 43
f 1 43 39
f 1 39 32
f 1 32 25
f 1 25 19
f 1 19 14
f 1 14 8
f 1 8 3
f 1 3 4
f 1 4 5
f 1 5 2
f 2 5 7
f 2 7 6
f 3 8 9
f 3 9 10
f 3 10 4
f 4 10 15
f 4 15 21
f 4 21 28
f 4 28 35
f 4 35 36
f 4 36 29
f 4 29 22
f 4 22 16
f 4 16 12
f 4 12 7
f 4 7 5
f 6 7 11
f 7 12 13
f 7 13 11
f 8 14 15
f 8 15 9
f 9 15 10
f 12 16 13
f 13 16 18
f 13 18 17
f 14 19 15
f 15 20 21
f 15 19 20
f 16 22 23
f 16 23 17
f 16 17 18
f 17 23 24
f 19 25 26
f 19 26 20
f 20 26 21
f 21 27 28
f 21 26 27
f 22 29 30
f 22 30 31
f 22 31 24
f 22 24 23
f 25 32 33
f 25 33 26
f 26 33 34
f 26 34 28
f 26 28 27
f 28 34 35
f 29 36 37
f 29 37 30
f 30 37 38
f 30 38 31
f 32 39 40
f 32 40 41
f 32 41 33
f 33 41 34
f 34 41 35
f 35 41 36
f 36 41 42
f 36 42 38
f 36 38 37
f 38 42 43
f 39 43 42
f 39 42 40
f 40 42 41

