# https://github.com/mikedh/trimesh
v -0.76999241 1.69009745 -0.21539086
v -0.75761884 1.68999290 -0.21755420
v -0.75759816 1.69009745 -0.21761639
v -0.78213108 1.69009745 -0.21786521
v -0.78213108 1.47657639 -0.21787213
v -0.76999933 1.47657639 -0.21554983
v -0.75761884 1.47657639 -0.21768552
v -0.71755505 1.68999290 -0.25762087
v -0.71751362 1.69009745 -0.25766927
v -0.71768636 1.47657639 -0.25762087
v -0.78512949 1.69009745 -0.23000203
v -0.78414845 1.47657639 -0.22602785
v -0.71542716 1.68999290 -0.26999959
v -0.71543407 1.69009745 -0.27005491
v -0.71555156 1.47657639 -0.26999959
v -0.78600001 1.69009745 -0.25000426
v -0.78512949 1.47657639 -0.23000203
v -0.71787286 1.68999290 -0.28212953
v -0.71792817 1.69009745 -0.28214332
v -0.71631151 1.47657639 -0.27397379
v -0.71787286 1.47657639 -0.28212953
v -0.78439713 1.69009745 -0.26999959
v -0.78600001 1.47657639 -0.25000426
v -0.73000461 1.68999290 -0.28512916
v -0.73010135 1.69009745 -0.28513607
v -0.73000461 1.47657639 -0.28512916
v -0.78141260 1.69009745 -0.28134158
v -0.78139877 1.68999290 -0.28139687
v -0.78439713 1.47657639 -0.26999959
v -0.75000542 1.68999290 -0.28599310
v -0.75010216 1.69009745 -0.28598619
v -0.73656100 1.47657639 -0.28541252
v -0.75000542 1.47657639 -0.28599310
v -0.77005458 1.69009745 -0.28438270
v -0.78139877 1.47657639 -0.28139687
v -0.76999933 1.68999290 -0.28439653
v -0.75655490 1.47657639 -0.28547475
v -0.76999933 1.47657639 -0.28439653
v -0.77373004 1.47657639 -0.28341508
f 1 2 3
f 1 3 9
f 1 9 14
f 1 14 19
f 1 19 25
f 1 25 31
f 1 31 34
f 1 34 27
f 1 27 22
f 1 22 16
f 1 16 11
f 1 11 4
f 1 4 5
f 1 5 6
f 1 6 7
f 1 7 2
f 2 8 9
f 2 9 3
f 2 7 10
f 2 10 8
f 4 11 12
f 4 12 5
f 5 12 17
f 5 17 23
f 5 23 29
f 5 29 35
f 5 35 39
f 5 39 38
f 5 38 37
f 5 37 33
f 5 33 32
f 5 32 26
f 5 26 21
f 5 21 20
f 5 20 15
f 5 15 10
f 5 10 7
f 5 7 6
f 8 10 9
f 9 13 14
f 9 10 15
f 9 15 13
f 11 16 23
f 11 23 17
f 11 17 12
f 13 15 14
f 14 18 19
f 14 15 20
f 14 20 21
f 14 21 18
f 16 22 29
f 16 29 23
f 18 21 19
f 19 24 25
f 19 21 26
f 19 26 24
f 22 27 28
f 22 28 35
f 22 35 29
f 24 26 25
f 25 30 31
f 25 26 32
f 25 32 33
f 25 33 30
f 27 34 28
f 28 34 35
f 30 33 31
f 31 36 34
f 31 33 37
f 31 37 36
f 34 36 38
f 34 38 39
f 34 39 35
f 36 37 38

