# https://github.com/mikedh/trimesh
v 0.75000536 1.29012755 0.28599310
v 0.75012988 1.29012755 0.28598619
v 0.73013282 1.29012755 0.28513503
v 0.75000536 1.01034296 0.28599310
v 0.76999545 1.29012755 0.28439462
v 0.75031674 1.01034296 0.28597236
v 0.73000139 1.29012755 0.28512812
v 0.73000139 1.01034296 0.28512812
v 0.73031968 1.01034296 0.28514197
v 0.78139865 1.28999060 0.28139836
v 0.78141248 1.29012755 0.28132224
v 0.76999545 1.01034296 0.28439462
v 0.71786475 1.29012755 0.28213185
v 0.71787167 1.01034296 0.28213185
v 0.78439474 1.29012755 0.26999453
v 0.78139865 1.01034296 0.28139836
v 0.71538758 1.29012755 0.26998761
v 0.71531153 1.01034296 0.26999453
v 0.78440857 1.29012755 0.26986995
v 0.78439474 1.01034296 0.26999453
v 0.71750492 1.29012755 0.25768420
v 0.71741498 1.01034296 0.25749046
v 0.78599310 1.29012755 0.25000322
v 0.78442240 1.01034296 0.26968312
v 0.78599310 1.01034296 0.25000322
v 0.75761670 1.29012755 0.21751477
v 0.71755338 1.28999060 0.25761500
v 0.71744961 1.01034296 0.25729668
v 0.78599310 1.29012755 0.24987866
v 0.78598619 1.01034296 0.24968491
v 0.76991940 1.29012755 0.21539730
v 0.75729150 1.01034296 0.21744557
v 0.78512818 1.28999060 0.23000500
v 0.78510743 1.29012755 0.22992197
v 0.78512818 1.01034296 0.23000500
v 0.78204906 1.29012755 0.21781924
v 0.76999545 1.01034296 0.21530735
v 0.78213209 1.28999060 0.21786767
v 0.78213209 1.01034296 0.21786767
f 1 2 5
f 1 5 11
f 1 11 15
f 1 15 19
f 1 19 23
f 1 23 29
f 1 29 34
f 1 34 36
f 1 36 31
f 1 31 26
f 1 26 21
f 1 21 17
f 1 17 13
f 1 13 7
f 1 7 3
f 1 3 4
f 1 4 2
f 2 4 6
f 2 6 5
f 3 7 8
f 3 8 9
f 3 9 4
f 4 9 8
f 4 8 14
f 4 14 18
f 4 18 22
f 4 22 28
f 4 28 32
f 4 32 37
f 4 37 39
f 4 39 35
f 4 35 30
f 4 30 25
f 4 25 24
f 4 24 20
f 4 20 16
f 4 16 12
f 4 12 6
f 5 10 11
f 5 6 12
f 5 12 16
f 5 16 10
f 7 13 8
f 8 13 14
f 10 15 11
f 10 16 20
f 10 20 15
f 13 17 18
f 13 18 14
f 15 20 19
f 17 21 22
f 17 22 18
f 19 20 24
f 19 24 25
f 19 25 23
f 21 26 27
f 21 27 28
f 21 28 22
f 23 25 29
f 25 30 29
f 26 31 32
f 26 32 28
f 26 28 27
f 29 33 34
f 29 30 33
f 30 35 33
f 31 36 37
f 31 37 32
f 33 38 34
f 33 35 39
f 33 39 38
f 34 38 36
f 36 38 39
f 36 39 37

