# https://github.com/mikedh/trimesh
v 0.69019008 0.18882072 -0.23019281
v 0.00018588 0.18877238 -0.21977836
v 0.69019008 0.18877929 -0.22995217
v 0.69019008 0.18781269 -0.25000280
v -0.68981838 0.18877238 -0.23012114
v -0.68981838 0.18877238 -0.21977836
v 0.00018588 0.16868758 -0.21977836
v 0.69019008 0.16865307 -0.22995217
v 0.69019008 0.18777817 -0.25019738
v -0.68981838 0.18773675 -0.25007451
v -0.68981838 0.16868758 -0.21977836
v 0.69019008 0.11830640 -0.25816950
v 0.69019008 0.18343532 -0.26395532
v -0.68981838 0.18329030 -0.26393485
v -0.68981838 0.11836851 -0.25817975
v 0.69019008 0.11828566 -0.26263431
v 0.69019008 0.16999942 -0.27032483
v -0.68981838 0.16999251 -0.27027363
v -0.68981838 0.11836851 -0.26254216
v 0.69019008 0.12981594 -0.26824602
v -0.66982603 0.13000238 -0.26823580
v 0.69019008 0.15000433 -0.27208617
v -0.68981838 0.15001124 -0.27203497
v -0.68981838 0.12994021 -0.26819995
v 0.69019008 0.13000929 -0.26830235
v 0.69019008 0.14978337 -0.27206057
f 1 2 3
f 1 3 8
f 1 8 12
f 1 12 16
f 1 16 20
f 1 20 25
f 1 25 26
f 1 26 22
f 1 22 17
f 1 17 13
f 1 13 9
f 1 9 4
f 1 4 5
f 1 5 6
f 1 6 2
f 2 6 11
f 2 11 7
f 2 7 8
f 2 8 3
f 4 9 10
f 4 10 5
f 5 10 14
f 5 14 18
f 5 18 23
f 5 23 24
f 5 24 19
f 5 19 15
f 5 15 11
f 5 11 6
f 7 11 12
f 7 12 8
f 9 13 10
f 10 13 14
f 11 15 12
f 12 15 16
f 13 17 18
f 13 18 14
f 15 19 16
f 16 19 21
f 16 21 20
f 17 22 23
f 17 23 18
f 19 24 21
f 20 21 25
f 21 24 23
f 21 23 26
f 21 26 25
f 22 26 23

