# https://github.com/mikedh/trimesh
v 0.76781958 1.71207446 0.20670585
v 0.76830471 1.71207446 0.20670585
v 0.75735468 1.71272421 0.20670585
v 0.75739622 1.71300602 -0.20588951
v 0.76802051 1.71237975 -0.20588951
v 0.76893532 1.71336615 0.20670585
v 0.70557761 1.76870561 0.20670585
v 0.70557761 1.76870561 -0.20588951
v 0.77392524 1.73000950 -0.20588951
v 0.77431333 1.72951627 0.20670585
v 0.70557761 1.78877783 0.20670585
v 0.70557761 1.78876996 -0.20588951
v 0.77599049 1.75000340 -0.20588951
v 0.77636474 1.74896222 0.20670585
v 0.75061828 1.79200315 0.20670585
v 0.74581552 1.79204226 -0.20588951
v 0.70557761 1.78877783 -0.04038287
v 0.77508259 1.76914400 -0.20588951
v 0.77637166 1.75000340 0.20670585
v 0.76896310 1.78875434 0.20670585
v 0.76653743 1.78917706 -0.20588951
v 0.75059056 1.79180741 -0.20588951
v 0.77501333 1.76998949 -0.20588951
v 0.77529055 1.76998949 0.20670585
v 0.76973236 1.78639013 -0.20588951
v 0.76872051 1.78848815 -0.20588951
f 1 2 6
f 1 6 10
f 1 10 14
f 1 14 19
f 1 19 24
f 1 24 20
f 1 20 15
f 1 15 11
f 1 11 7
f 1 7 3
f 1 3 4
f 1 4 5
f 1 5 2
f 2 5 6
f 3 7 8
f 3 8 4
f 4 8 12
f 4 12 16
f 4 16 22
f 4 22 21
f 4 21 26
f 4 26 25
f 4 25 23
f 4 23 18
f 4 18 13
f 4 13 9
f 4 9 5
f 5 9 6
f 6 9 10
f 7 11 17
f 7 17 12
f 7 12 8
f 9 13 14
f 9 14 10
f 11 15 16
f 11 16 17
f 12 17 16
f 13 18 19
f 13 19 14
f 15 20 21
f 15 21 22
f 15 22 16
f 18 23 24
f 18 24 19
f 20 24 25
f 20 25 26
f 20 26 21
f 23 25 24

