# https://github.com/mikedh/trimesh
v -0.39618666 0.14235469 -0.35123441
v -0.63188466 0.12293636 -0.30337571
v -0.63188466 0.12395518 -0.30338364
v -0.63188466 0.14235469 -0.30347887
v 0.02919578 0.14235469 -0.35123441
v -0.00969892 0.13880024 -0.35123441
v -0.00814572 0.12293636 -0.33482912
v -0.63188466 0.12293636 -0.27426362
v -0.63188466 0.14235469 -0.27435888
v 0.02919578 0.14235469 -0.27068416
v 0.02919578 0.13864437 -0.35123441
v -0.00814572 0.13878883 -0.35123441
v 0.00809815 0.12293636 -0.33459102
v -0.63188466 0.12395518 -0.27426362
v 0.02919578 0.12293636 -0.27104925
v 0.00809815 0.14235469 -0.27016033
v -0.00814572 0.14235469 -0.27025556
v -0.63188466 0.13474398 -0.27431919
v 0.02447146 0.14235469 -0.27020002
v 0.02919578 0.12293636 -0.30516147
v 0.02498920 0.12293636 -0.31716981
v 0.02052374 0.12293636 -0.32978133
v 0.00887475 0.12293636 -0.33429737
f 1 2 3
f 1 3 4
f 1 4 9
f 1 9 17
f 1 17 16
f 1 16 19
f 1 19 10
f 1 10 5
f 1 5 11
f 1 11 12
f 1 12 6
f 1 6 7
f 1 7 2
f 2 8 14
f 2 14 18
f 2 18 9
f 2 9 4
f 2 4 3
f 2 7 13
f 2 13 23
f 2 23 22
f 2 22 21
f 2 21 20
f 2 20 15
f 2 15 8
f 5 10 15
f 5 15 20
f 5 20 11
f 6 12 7
f 7 12 11
f 7 11 13
f 8 15 16
f 8 16 17
f 8 17 14
f 9 18 17
f 10 19 15
f 11 20 21
f 11 21 22
f 11 22 23
f 11 23 13
f 14 17 18
f 15 19 16

