# https://github.com/mikedh/trimesh
v 0.78873005 -0.18518991 0.05703487
v 0.78734209 -0.15198969 0.04122594
v 0.78734209 -0.15198969 0.05652898
v 0.78315797 -0.20146072 0.17865825
v 0.78315797 -0.21772185 0.17865825
v 0.78256024 -0.23398298 0.17865825
v 0.78257037 -0.23398298 0.17090134
v 0.78160791 -0.24294162 0.02448954
v 0.78178015 -0.24323216 -0.18697074
v 0.78183077 -0.24332902 -0.25201920
v 0.78291479 -0.23403142 -0.25201920
v 0.78315797 -0.21778964 -0.25201920
v 0.78318837 -0.20151883 -0.25201920
v 0.76971406 -0.15198969 0.01049337
v 0.78210434 -0.19125272 -0.25201920
v 0.77276349 -0.18479282 -0.25201920
v 0.75649305 -0.18052172 -0.25201920
v 0.77341189 -0.15198969 0.06394864
v 0.75656399 -0.17846851 0.17865825
v 0.76510444 -0.18092850 0.17865825
v 0.77283443 -0.18315605 0.17865825
v 0.77767704 -0.18703974 0.17865825
v 0.78206381 -0.19058446 0.17865825
v 0.78204354 -0.23812817 0.17865825
v 0.78147622 -0.24274793 0.17090134
v 0.78153697 -0.24283508 0.10585285
v 0.77283443 -0.24773571 -0.25201920
v 0.75656399 -0.15198969 0.00429627
v 0.74022261 -0.18051205 -0.25201920
v 0.74029355 -0.15198969 0.00391685
v 0.77283443 -0.15198969 0.06424374
v 0.74029355 -0.17846851 0.17865825
v 0.75721239 -0.15198969 0.06432805
v 0.78146608 -0.24272855 0.17865825
v 0.75656399 -0.25093175 -0.25201920
v 0.77692735 -0.24446216 0.17865825
v 0.77283443 -0.24623454 0.12208335
v 0.72397244 -0.18144180 -0.25201920
v 0.72403320 -0.15198969 0.00821688
v 0.73964516 -0.15198969 0.00408548
v 0.73257369 -0.17860410 0.17865825
v 0.72403320 -0.15198969 0.06432805
v 0.68524144 -0.15198969 0.06424374
v 0.74029355 -0.25093175 -0.25201920
v 0.77283443 -0.24600208 0.17865825
v 0.76428385 -0.24740642 0.17865825
v 0.75656399 -0.24956618 0.00821688
v 0.71132890 -0.18782422 -0.25201920
v 0.68524144 -0.15198969 0.03502883
v 0.71480382 -0.15198969 0.01445614
v 0.72365838 -0.15198969 0.00846983
v 0.72403320 -0.17876874 0.17865825
v 0.68524144 -0.16862853 0.06453884
v 0.70548329 -0.20146072 0.17865825
v 0.70795526 -0.19419696 0.17865825
v 0.71069063 -0.18619715 0.17865825
v 0.72403320 -0.25075741 -0.23578872
v 0.72403320 -0.25083490 -0.25201920
v 0.74029355 -0.24956618 0.00821688
v 0.72403320 -0.24859766 0.17865825
v 0.72403320 -0.24872358 0.15462867
v 0.72403320 -0.24906255 0.08958018
v 0.75656399 -0.24866547 0.17865825
v 0.75656399 -0.24905287 0.10585285
v 0.70612155 -0.20146072 -0.25201920
v 0.68524144 -0.16267226 0.03498667
v 0.70548329 -0.21772185 -0.25201920
v 0.68524144 -0.18586786 0.06217804
v 0.70548329 -0.21772185 0.17865825
v 0.71193676 -0.24532413 0.17865825
v 0.71148086 -0.24593429 -0.05683161
v 0.71118707 -0.24639916 -0.23578872
v 0.71114653 -0.24637981 -0.25201920
v 0.71184560 -0.24543066 0.13835601
v 0.71162269 -0.24572123 0.02448954
v 0.74029355 -0.24905287 0.10585285
v 0.74029355 -0.24866547 0.17865825
v 0.68524144 -0.16891909 0.03502883
v 0.70595945 -0.23398298 -0.25201920
v 0.68524144 -0.18518991 0.03857003
v 0.68524144 -0.17894307 0.03709453
v 0.68524144 -0.18936414 0.05935351
v 0.70672941 -0.23398298 0.17865825
v 0.70612155 -0.22626404 0.17865825
v 0.70946478 -0.23994896 0.17865825
v 0.68524144 -0.19555286 0.05395739
v 0.71191649 -0.24534350 0.17090134
v 0.71142006 -0.24601178 -0.08937693
v 0.71123769 -0.24631200 -0.20324339
v 0.68524144 -0.19555286 0.04552596
v 0.68524144 -0.19186287 0.04291222
v 0.71133903 -0.24613768 -0.13819490
f 1 2 3
f 1 3 4
f 1 4 5
f 1 5 6
f 1 6 7
f 1 7 8
f 1 8 9
f 1 9 10
f 1 10 11
f 1 11 12
f 1 12 13
f 1 13 2
f 2 14 28
f 2 28 30
f 2 30 40
f 2 40 39
f 2 39 51
f 2 51 50
f 2 50 49
f 2 49 43
f 2 43 42
f 2 42 33
f 2 33 31
f 2 31 18
f 2 18 3
f 2 13 15
f 2 15 16
f 2 16 17
f 2 17 14
f 3 18 19
f 3 19 20
f 3 20 21
f 3 21 22
f 3 22 23
f 3 23 4
f 4 23 22
f 4 22 21
f 4 21 20
f 4 20 19
f 4 19 32
f 4 32 41
f 4 41 52
f 4 52 56
f 4 56 55
f 4 55 54
f 4 54 69
f 4 69 84
f 4 84 83
f 4 83 85
f 4 85 70
f 4 70 60
f 4 60 77
f 4 77 63
f 4 63 46
f 4 46 45
f 4 45 36
f 4 36 34
f 4 34 24
f 4 24 6
f 4 6 5
f 6 24 7
f 7 24 25
f 7 25 26
f 7 26 8
f 8 26 10
f 8 10 9
f 10 27 35
f 10 35 44
f 10 44 58
f 10 58 73
f 10 73 79
f 10 79 67
f 10 67 65
f 10 65 48
f 10 48 38
f 10 38 29
f 10 29 17
f 10 17 16
f 10 16 15
f 10 15 13
f 10 13 12
f 10 12 11
f 10 26 27
f 14 17 28
f 17 29 30
f 17 30 28
f 18 31 19
f 19 31 33
f 19 33 42
f 19 42 32
f 24 34 25
f 25 34 27
f 25 27 26
f 27 34 36
f 27 36 37
f 27 37 35
f 29 38 39
f 29 39 40
f 29 40 30
f 32 42 43
f 32 43 41
f 35 37 45
f 35 45 46
f 35 46 47
f 35 47 59
f 35 59 44
f 36 45 37
f 38 48 49
f 38 49 50
f 38 50 51
f 38 51 39
f 41 43 52
f 43 49 66
f 43 66 78
f 43 78 81
f 43 81 80
f 43 80 91
f 43 91 90
f 43 90 86
f 43 86 82
f 43 82 68
f 43 68 53
f 43 53 54
f 43 54 55
f 43 55 56
f 43 56 52
f 44 57 58
f 44 59 60
f 44 60 61
f 44 61 62
f 44 62 57
f 46 63 64
f 46 64 47
f 47 64 76
f 47 76 59
f 48 65 49
f 49 65 67
f 49 67 66
f 53 68 69
f 53 69 54
f 57 62 70
f 57 70 58
f 58 71 72
f 58 72 73
f 58 70 74
f 58 74 75
f 58 75 71
f 59 76 60
f 60 70 61
f 60 76 77
f 61 70 62
f 63 77 76
f 63 76 64
f 66 67 78
f 67 79 80
f 67 80 81
f 67 81 78
f 68 82 83
f 68 83 84
f 68 84 69
f 70 85 86
f 70 86 87
f 70 87 74
f 71 88 89
f 71 89 72
f 71 75 86
f 71 86 88
f 72 89 86
f 72 86 73
f 73 86 90
f 73 90 79
f 74 87 86
f 74 86 75
f 79 90 91
f 79 91 80
f 82 86 83
f 83 86 85
f 86 89 92
f 86 92 88
f 88 92 89

