# https://github.com/mikedh/trimesh
v -0.07289324 -0.15198969 0.39854881
v -0.07289324 -0.16891803 0.39864191
v -0.07289324 -0.15198969 0.38656557
v -0.69143390 -0.15198969 0.39996448
v -0.69143390 -0.15264960 0.39997090
v -0.07289324 -0.18517824 0.39515256
v -0.69143390 -0.16892212 0.39988100
v -0.07289324 -0.15200608 0.36940123
v -0.07325659 -0.15198969 0.36940765
v -0.69143390 -0.15198969 0.37086824
v -0.07289324 -0.19370800 0.39109821
v -0.69143390 -0.18518234 0.39598395
v -0.07289324 -0.15303080 0.36939480
v -0.37138422 -0.15198969 0.36772234
v -0.12273257 -0.15198969 0.36912516
v -0.07392273 -0.15198969 0.36940123
v -0.69143390 -0.16891803 0.37092602
v -0.49625506 -0.15198969 0.36734357
v -0.07289324 -0.19374898 0.38658804
v -0.69143390 -0.19385966 0.39136786
v -0.69143390 -0.19386376 0.39136463
v -0.07289324 -0.16891803 0.36946863
v -0.46367481 -0.15198969 0.36720552
v -0.69143390 -0.18262055 0.37262736
v -0.49625506 -0.15264140 0.36734677
v -0.49625506 -0.16891803 0.36743344
v -0.47996494 -0.15198969 0.36717984
v -0.37035475 -0.19332270 0.37430302
v -0.07289324 -0.19239225 0.37866874
v -0.69143390 -0.19385966 0.38734884
v -0.47996494 -0.19344157 0.37414895
v -0.46367481 -0.19343338 0.37415857
v -0.07289324 -0.16936071 0.36950073
v -0.46367481 -0.16891803 0.36729539
v -0.46367481 -0.15264140 0.36720872
v -0.62633391 -0.18387481 0.37207524
v -0.64262403 -0.18359198 0.37222289
v -0.50957785 -0.19335139 0.37426450
v -0.69143390 -0.19075272 0.37921446
v -0.47996494 -0.15264140 0.36718304
v -0.47996494 -0.16891803 0.36726652
v -0.49625506 -0.18517415 0.37077515
v -0.61010435 -0.18412894 0.37192756
v -0.07289324 -0.18419042 0.37186979
v -0.07289324 -0.19227749 0.37850504
v -0.46367481 -0.18517415 0.37066920
v -0.69143390 -0.19075681 0.37922089
v -0.49625506 -0.19340468 0.37419710
v -0.47996494 -0.18517415 0.37064675
v -0.51399860 -0.18680550 0.37166754
v -0.59381422 -0.18436257 0.37178311
v -0.57758466 -0.18456751 0.37163544
v -0.56129449 -0.18475606 0.37148779
f 1 2 6
f 1 6 11
f 1 11 19
f 1 19 29
f 1 29 45
f 1 45 44
f 1 44 33
f 1 33 22
f 1 22 13
f 1 13 8
f 1 8 3
f 1 3 9
f 1 9 16
f 1 16 15
f 1 15 14
f 1 14 23
f 1 23 27
f 1 27 18
f 1 18 10
f 1 10 4
f 1 4 5
f 1 5 2
f 2 5 7
f 2 7 6
f 3 8 9
f 4 10 17
f 4 17 24
f 4 24 39
f 4 39 47
f 4 47 30
f 4 30 21
f 4 21 20
f 4 20 12
f 4 12 7
f 4 7 5
f 6 7 12
f 6 12 11
f 8 13 14
f 8 14 15
f 8 15 16
f 8 16 9
f 10 18 17
f 11 12 20
f 11 20 21
f 11 21 19
f 13 22 23
f 13 23 14
f 17 18 25
f 17 25 26
f 17 26 24
f 18 27 40
f 18 40 25
f 19 28 29
f 19 21 30
f 19 30 31
f 19 31 32
f 19 32 28
f 22 33 34
f 22 34 35
f 22 35 23
f 23 35 40
f 23 40 27
f 24 36 37
f 24 37 38
f 24 38 39
f 24 26 36
f 25 40 41
f 25 41 26
f 26 41 42
f 26 42 43
f 26 43 36
f 28 44 45
f 28 45 29
f 28 32 46
f 28 46 44
f 30 47 38
f 30 38 48
f 30 48 31
f 31 48 49
f 31 49 32
f 32 49 46
f 33 44 34
f 34 46 41
f 34 41 35
f 34 44 46
f 35 41 40
f 36 43 38
f 36 38 37
f 38 50 42
f 38 42 49
f 38 49 48
f 38 47 39
f 38 43 51
f 38 51 52
f 38 52 50
f 41 49 42
f 41 46 49
f 42 50 53
f 42 53 52
f 42 52 51
f 42 51 43
f 50 52 53

