# https://github.com/mikedh/trimesh
v 0.03308959 0.18244007 -0.25231913
v 0.03303730 0.17848516 -0.25231913
v -0.04322140 0.18244007 -0.25231913
v 0.03294766 0.18244007 -0.00738859
v 0.02966097 0.17036539 -0.25231913
v 0.03285056 0.17948036 -0.00738859
v -0.04307948 0.18244007 -0.00738859
v -0.04122698 0.17278344 -0.25231913
v 0.02155629 0.16264735 -0.25231913
v 0.02902604 0.17134506 -0.00738859
v 0.02869738 0.17065826 -0.00738859
v 0.02091389 0.16078392 -0.00738859
v -0.04100289 0.17276271 -0.00738859
v -0.04114481 0.17251649 -0.25231913
v 0.02126497 0.16260070 -0.25231913
v 0.00813315 0.15644544 -0.00738859
v -0.03501961 0.16181542 -0.00738859
v -0.03525118 0.16279507 -0.25231913
v 0.00813315 0.16066989 -0.25231913
v -0.00812850 0.15596339 -0.00738859
v -0.03430999 0.16134633 -0.00738859
v -0.02440510 0.16082799 -0.25231913
v -0.02440510 0.15753655 -0.00738859
v -0.00812850 0.16061029 -0.25231913
v -0.02318753 0.15733957 -0.00738859
f 1 2 5
f 1 5 9
f 1 9 15
f 1 15 19
f 1 19 24
f 1 24 22
f 1 22 18
f 1 18 14
f 1 14 8
f 1 8 3
f 1 3 7
f 1 7 4
f 1 4 2
f 2 4 6
f 2 6 5
f 3 8 7
f 4 7 13
f 4 13 17
f 4 17 21
f 4 21 23
f 4 23 25
f 4 25 20
f 4 20 16
f 4 16 12
f 4 12 11
f 4 11 10
f 4 10 6
f 5 6 10
f 5 10 11
f 5 11 12
f 5 12 9
f 7 8 13
f 8 14 13
f 9 12 16
f 9 16 15
f 13 14 17
f 14 18 17
f 15 16 19
f 16 20 19
f 17 18 21
f 18 22 23
f 18 23 21
f 19 20 24
f 20 25 22
f 20 22 24
f 22 25 23

