# https://github.com/mikedh/trimesh
v 0.05650393 -0.16935781 -0.27266460
v 0.05650393 -0.15309068 -0.27290135
v 0.03447518 -0.19832124 -0.25528722
v 0.03434858 -0.21451895 -0.25528722
v 0.03263945 -0.24228216 -0.25528722
v 0.05650393 -0.18521826 -0.27365894
v 0.05650393 -0.15200952 -0.27294870
v 0.03423464 -0.19136803 -0.25528722
v 0.03274073 -0.24245078 -0.39856778
v 0.03267743 -0.24233177 -0.30093244
v 0.05650393 -0.19666477 -0.28464411
v 0.05650393 -0.19433381 -0.27555295
v 0.05650393 -0.18557535 -0.27370629
v 0.03101894 -0.24315504 -0.25528722
v 0.02439766 -0.24758882 -0.49615574
v 0.02439766 -0.24775744 -0.54492608
v 0.02439766 -0.24786656 -0.57745541
v 0.02439766 -0.24808476 -0.64256141
v 0.02439766 -0.24813437 -0.65880242
v 0.02439766 -0.24828316 -0.70762004
v 0.04132435 -0.15199959 -0.27299605
v 0.04066602 -0.15199959 -0.27299605
v -0.00813905 -0.18006040 -0.25528722
v 0.00812930 -0.18006040 -0.25528722
v 0.01273762 -0.18092335 -0.25528722
v 0.02439766 -0.18499013 -0.25528722
v 0.02751207 -0.18634903 -0.25528722
v 0.05650393 -0.15199959 -0.29274093
v 0.03276605 -0.24250039 -0.44733807
v 0.05650393 -0.19576214 -0.29567660
v 0.03279137 -0.24254005 -0.49615574
v 0.03281670 -0.24259957 -0.56121441
v 0.03282935 -0.24262932 -0.61003208
v 0.03284202 -0.24266901 -0.67509070
v 0.03284202 -0.24268884 -0.70762004
v 0.03274073 -0.24250039 -0.71941018
v 0.02439766 -0.24668619 -0.25528722
v 0.02439766 -0.24680523 -0.28464411
v 0.02439766 -0.24699368 -0.33346178
v 0.02439766 -0.24711270 -0.36599111
v 0.02439766 -0.24741028 -0.44733807
v 0.00812930 -0.25332200 -0.70762004
v 0.00812930 -0.25222098 -0.72390842
v 0.02589157 -0.24638864 -0.72447661
v 0.03280403 -0.24258966 -0.54492608
v 0.00812930 -0.15199959 -0.27309074
v -0.02439475 -0.18013975 -0.25528722
v 0.05650393 -0.15199959 -0.30211621
v 0.05650393 -0.18520834 -0.30026955
v 0.03284202 -0.23398989 -0.72135149
v 0.02146050 -0.24510908 -0.73432534
v 0.03220900 -0.23398989 -0.72949568
v 0.02120729 -0.24752930 -0.25528722
v -0.02439475 -0.25332200 -0.70762004
v 0.00812930 -0.25135802 -0.33346178
v -0.02439475 -0.25222098 -0.72390842
v 0.00812930 -0.24660684 -0.73546173
v -0.00813905 -0.15199959 -0.27318544
v -0.03927049 -0.18636886 -0.25528722
v -0.02439475 -0.15199959 -0.27328014
v -0.07283268 -0.15199959 -0.27365894
v 0.02013118 -0.15199959 -0.32915293
v 0.05650393 -0.16891145 -0.30202151
v 0.03284202 -0.21771285 -0.72158826
v 0.03281670 -0.20145563 -0.72125684
v 0.03270275 -0.19303442 -0.71917340
v 0.02587890 -0.18947351 -0.72433454
v 0.00812930 -0.18412717 -0.72390842
v 0.03224698 -0.21771285 -0.72968508
v 0.00812930 -0.23398989 -0.73891828
v 0.02406850 -0.23398989 -0.73546173
v 0.00812930 -0.25094143 -0.25528722
v 0.00812930 -0.25110013 -0.28464411
v -0.03818171 -0.24708295 -0.46362645
v -0.03823235 -0.24721189 -0.51239674
v -0.03834629 -0.24750946 -0.62627308
v -0.03838427 -0.24763842 -0.67509070
v -0.03840959 -0.24771777 -0.70762004
v -0.03783988 -0.24717222 -0.72390842
v -0.02439475 -0.25135802 -0.33346178
v -0.03790318 -0.24653740 -0.25528722
v -0.03796649 -0.24665644 -0.30093244
v -0.03802979 -0.24678537 -0.34975011
v -0.03568765 -0.24510908 -0.73432534
v -0.02439475 -0.24660684 -0.73546173
v -0.04486629 -0.20150523 -0.25528722
v -0.07283268 -0.15199959 -0.28563845
v -0.07283268 -0.16853454 -0.27356424
v 0.00812930 -0.15199959 -0.33327238
v 0.03222166 -0.20145563 -0.72940098
v 0.02144783 -0.19058443 -0.73432534
v 0.00812930 -0.18920569 -0.73546173
v -0.02439475 -0.18412717 -0.72390842
v -0.00813905 -0.15199959 -0.33360383
v 0.02411914 -0.21771285 -0.73550911
v 0.02409382 -0.20145563 -0.73550911
v -0.02439475 -0.23398989 -0.73891828
v 0.00812930 -0.21771285 -0.73901298
v -0.02439475 -0.25094143 -0.25528722
v -0.02439475 -0.25110013 -0.28464411
v -0.03799180 -0.24669611 -0.31717345
v -0.03814373 -0.24699368 -0.43109711
v -0.07283268 -0.19623826 -0.28464411
v -0.03827033 -0.24729126 -0.54492608
v -0.04441053 -0.23398989 -0.70762004
v -0.07283268 -0.19574230 -0.29553458
v -0.04323313 -0.23398989 -0.72390842
v -0.04271406 -0.23645973 -0.25528722
v -0.07283268 -0.19387754 -0.27597910
v -0.03801712 -0.24673579 -0.33346178
v -0.03728283 -0.23398989 -0.73546173
v -0.04452447 -0.21771285 -0.25528722
v -0.07283268 -0.16891145 -0.27356424
v -0.05758979 -0.15199959 -0.30282643
v -0.07283268 -0.15200952 -0.30282643
v 0.00812930 -0.20145563 -0.73896566
v -0.02439475 -0.18920569 -0.73546173
v -0.03568765 -0.19058443 -0.73432534
v -0.03775126 -0.18871966 -0.72390842
v -0.03407980 -0.15199959 -0.32725895
v -0.02439475 -0.15199959 -0.33137839
v -0.02439475 -0.21771285 -0.73901298
v -0.04452447 -0.21771285 -0.70762004
v -0.07283268 -0.19568279 -0.29586600
v -0.07283268 -0.18546623 -0.30069569
v -0.07283268 -0.18518851 -0.30079039
v -0.07283268 -0.16891145 -0.30273173
v -0.04332175 -0.21771285 -0.72390842
v -0.04389146 -0.23398989 -0.25528722
v -0.07283268 -0.19361964 -0.27593175
v -0.03732081 -0.21771285 -0.73550911
v -0.07283268 -0.18518851 -0.27446388
v -0.07283268 -0.15303116 -0.30282643
v -0.04314451 -0.20145563 -0.72390842
v -0.02439475 -0.20145563 -0.73896566
v -0.03730815 -0.20145563 -0.73550911
f 1 2 3
f 1 3 4
f 1 4 5
f 1 5 6
f 1 6 13
f 1 13 12
f 1 12 11
f 1 11 30
f 1 30 49
f 1 49 63
f 1 63 48
f 1 48 28
f 1 28 7
f 1 7 2
f 2 7 8
f 2 8 3
f 3 8 27
f 3 27 26
f 3 26 25
f 3 25 24
f 3 24 23
f 3 23 47
f 3 47 59
f 3 59 86
f 3 86 112
f 3 112 129
f 3 129 108
f 3 108 81
f 3 81 99
f 3 99 72
f 3 72 53
f 3 53 37
f 3 37 14
f 3 14 5
f 3 5 4
f 5 9 10
f 5 10 11
f 5 11 12
f 5 12 13
f 5 13 6
f 5 14 15
f 5 15 16
f 5 16 17
f 5 17 18
f 5 18 19
f 5 19 20
f 5 20 9
f 7 21 22
f 7 22 23
f 7 23 24
f 7 24 25
f 7 25 26
f 7 26 27
f 7 27 8
f 7 28 21
f 9 11 10
f 9 20 29
f 9 29 11
f 11 29 31
f 11 31 32
f 11 32 33
f 11 33 34
f 11 34 35
f 11 35 36
f 11 36 30
f 14 37 38
f 14 38 39
f 14 39 40
f 14 40 41
f 14 41 15
f 15 41 42
f 15 42 16
f 16 42 17
f 17 42 18
f 18 42 19
f 19 42 20
f 20 42 43
f 20 43 44
f 20 44 36
f 20 36 35
f 20 35 34
f 20 34 33
f 20 33 32
f 20 32 45
f 20 45 29
f 21 28 48
f 21 48 62
f 21 62 89
f 21 89 94
f 21 94 121
f 21 121 120
f 21 120 114
f 21 114 87
f 21 87 61
f 21 61 60
f 21 60 58
f 21 58 46
f 21 46 22
f 22 46 23
f 23 46 47
f 29 45 32
f 29 32 31
f 30 36 50
f 30 50 49
f 36 44 51
f 36 51 52
f 36 52 50
f 37 53 42
f 37 42 38
f 38 42 39
f 39 42 40
f 40 42 41
f 42 54 56
f 42 56 43
f 42 53 55
f 42 55 80
f 42 80 54
f 43 56 85
f 43 85 57
f 43 57 51
f 43 51 44
f 46 58 47
f 47 58 60
f 47 60 61
f 47 61 59
f 48 63 64
f 48 64 65
f 48 65 66
f 48 66 67
f 48 67 68
f 48 68 62
f 49 50 63
f 50 52 69
f 50 69 64
f 50 64 63
f 51 57 70
f 51 70 71
f 51 71 52
f 52 71 69
f 53 72 73
f 53 73 55
f 54 74 75
f 54 75 76
f 54 76 77
f 54 77 78
f 54 78 79
f 54 79 56
f 54 80 81
f 54 81 82
f 54 82 83
f 54 83 74
f 55 73 100
f 55 100 80
f 56 79 84
f 56 84 85
f 57 85 97
f 57 97 70
f 59 61 86
f 61 87 115
f 61 115 133
f 61 133 127
f 61 127 126
f 61 126 125
f 61 125 124
f 61 124 106
f 61 106 103
f 61 103 109
f 61 109 130
f 61 130 132
f 61 132 113
f 61 113 88
f 61 88 86
f 62 68 89
f 64 69 90
f 64 90 65
f 65 90 66
f 66 90 91
f 66 91 67
f 67 91 68
f 68 91 92
f 68 92 117
f 68 117 93
f 68 93 94
f 68 94 89
f 69 71 95
f 69 95 96
f 69 96 90
f 70 97 122
f 70 122 98
f 70 98 71
f 71 98 95
f 72 99 100
f 72 100 73
f 74 83 82
f 74 82 101
f 74 101 110
f 74 110 102
f 74 102 103
f 74 103 75
f 75 103 104
f 75 104 76
f 76 104 103
f 76 103 77
f 77 103 78
f 78 105 79
f 78 103 106
f 78 106 105
f 79 107 84
f 79 105 107
f 80 100 81
f 81 100 99
f 81 108 109
f 81 109 103
f 81 103 110
f 81 110 101
f 81 101 82
f 84 111 97
f 84 97 85
f 84 107 111
f 86 88 113
f 86 113 112
f 87 114 115
f 90 96 91
f 91 96 116
f 91 116 92
f 92 116 135
f 92 135 117
f 93 117 118
f 93 118 119
f 93 119 115
f 93 115 120
f 93 120 121
f 93 121 94
f 95 98 96
f 96 98 116
f 97 111 122
f 98 122 135
f 98 135 116
f 102 110 103
f 105 123 107
f 105 106 124
f 105 124 125
f 105 125 126
f 105 126 127
f 105 127 123
f 107 128 111
f 107 123 128
f 108 129 109
f 109 129 130
f 111 131 122
f 111 128 131
f 112 113 129
f 113 132 129
f 114 120 115
f 115 119 134
f 115 134 123
f 115 123 133
f 117 135 118
f 118 134 119
f 118 135 136
f 118 136 134
f 122 131 136
f 122 136 135
f 123 134 128
f 123 127 133
f 128 134 136
f 128 136 131
f 129 132 130

