# https://github.com/mikedh/trimesh
v 0.78959766 0.14235469 0.69157895
v 0.78757770 0.14235469 0.70421328
v 0.78726694 0.07515013 0.70625487
v 0.78944231 0.10767825 0.69157895
v 0.77048547 0.14235469 0.65745907
v 0.78726694 0.14235469 0.70613743
v 0.78913154 0.07515013 0.69157895
v 0.78928690 0.09140155 0.69157895
v 0.77281625 0.14235469 0.71277094
v 0.77281625 0.07515013 0.71287534
v 0.77281625 0.01325319 0.71061196
v 0.77483621 0.01325319 0.70930091
v 0.78307156 0.01325319 0.70387410
v 0.77033011 0.01325319 0.65904408
v 0.76597937 0.14235469 0.64970367
v 0.78307156 0.01325319 0.69394667
v 0.77670081 0.01325319 0.67531801
v 0.77545774 0.01325319 0.67212195
v 0.75650096 0.14235469 0.71299923
v 0.75650096 0.01325319 0.71318838
v 0.76535784 0.01325319 0.65051247
v 0.76458090 0.14235469 0.64914924
v 0.74018567 0.14235469 0.71307099
v 0.72744422 0.14235469 0.71312316
v 0.26844092 0.07515013 0.71489733
v 0.25212563 0.07515013 0.71493646
v 0.21949507 0.01325319 0.71318838
v 0.75650096 0.01325319 0.65004285
v 0.75650096 0.14235469 0.64840566
v 0.27046091 0.14235469 0.71461033
v 0.26844092 0.09140155 0.71485820
v 0.25212563 0.09140155 0.71489733
v -0.77278488 0.01325319 0.71291447
v 0.74018567 0.14235469 0.64830786
v 0.75432559 0.14235469 0.64837957
v 0.74018567 0.01325319 0.64997763
v 0.26844092 0.14235469 0.71461687
v 0.25212563 0.14021900 0.71466250
v -0.77278488 0.02633268 0.71284925
v -0.78910017 0.02633268 0.70755288
v -0.78910017 0.01325319 0.70760505
v -0.75646958 0.14235469 0.64830131
v -0.75646958 0.01325319 0.64997763
v 0.25212563 0.14235469 0.71464946
v -0.75646958 0.14235469 0.71023365
v -0.77278488 0.04260938 0.71230132
v -0.78910017 0.04260938 0.70702454
v 0.23798573 0.14235469 0.71461033
v 0.23581037 0.14235469 0.71460383
v -0.79764628 0.04260938 0.70082151
v -0.79780164 0.01325319 0.70093891
v -0.76936644 0.01325319 0.65044075
v -0.77262952 0.14235469 0.64933840
v -0.77200798 0.14235469 0.70519165
v -0.79749087 0.05124057 0.70039103
v -0.79764628 0.04260938 0.69796458
v -0.79780164 0.01325319 0.69785369
v -0.77760179 0.01325319 0.65184310
v -0.78055405 0.14021900 0.65103431
v -0.78055405 0.14235469 0.65101472
v -0.77900021 0.14235469 0.69905389
v -0.78614786 0.14235469 0.67531801
v -0.79749087 0.05124057 0.69863640
v -0.77977716 0.14235469 0.69782110
v -0.78350636 0.14235469 0.68992872
v -0.78366172 0.14235469 0.65892015
v -0.79500474 0.04260938 0.68983087
v -0.79500474 0.02633268 0.68970693
v -0.79500474 0.01325319 0.68971997
v -0.78350636 0.01325319 0.65998332
v -0.77946639 0.09140155 0.65136694
v -0.78102022 0.14235469 0.65196050
v -0.79065400 0.01325319 0.67814231
v -0.78474943 0.01325319 0.66300332
v -0.78956634 0.01325319 0.67531801
f 1 2 3
f 1 3 4
f 1 4 5
f 1 5 15
f 1 15 22
f 1 22 29
f 1 29 35
f 1 35 34
f 1 34 42
f 1 42 53
f 1 53 60
f 1 60 72
f 1 72 66
f 1 66 62
f 1 62 65
f 1 65 64
f 1 64 61
f 1 61 54
f 1 54 45
f 1 45 49
f 1 49 48
f 1 48 44
f 1 44 37
f 1 37 30
f 1 30 24
f 1 24 23
f 1 23 19
f 1 19 9
f 1 9 6
f 1 6 2
f 2 6 3
f 3 7 8
f 3 8 4
f 3 6 9
f 3 9 10
f 3 10 11
f 3 11 12
f 3 12 13
f 3 13 7
f 4 8 14
f 4 14 5
f 5 14 15
f 7 13 16
f 7 16 17
f 7 17 18
f 7 18 14
f 7 14 8
f 9 19 10
f 10 19 20
f 10 20 11
f 11 20 27
f 11 27 33
f 11 33 41
f 11 41 51
f 11 51 57
f 11 57 69
f 11 69 73
f 11 73 75
f 11 75 74
f 11 74 70
f 11 70 58
f 11 58 52
f 11 52 43
f 11 43 36
f 11 36 28
f 11 28 21
f 11 21 14
f 11 14 18
f 11 18 17
f 11 17 16
f 11 16 13
f 11 13 12
f 14 21 15
f 15 21 22
f 19 23 20
f 20 23 24
f 20 24 25
f 20 25 26
f 20 26 27
f 21 28 29
f 21 29 22
f 24 30 31
f 24 31 25
f 25 31 32
f 25 32 26
f 26 32 33
f 26 33 27
f 28 34 35
f 28 35 29
f 28 36 34
f 30 37 31
f 31 37 32
f 32 37 38
f 32 38 33
f 33 38 39
f 33 39 40
f 33 40 41
f 34 36 42
f 36 43 42
f 37 44 38
f 38 44 39
f 39 45 46
f 39 46 47
f 39 47 40
f 39 44 48
f 39 48 49
f 39 49 45
f 40 47 50
f 40 50 51
f 40 51 41
f 42 43 52
f 42 52 53
f 45 54 47
f 45 47 46
f 47 55 50
f 47 54 55
f 50 55 63
f 50 63 56
f 50 56 57
f 50 57 51
f 52 58 53
f 53 58 59
f 53 59 60
f 54 61 55
f 55 62 63
f 55 61 64
f 55 64 65
f 55 65 62
f 56 63 66
f 56 66 67
f 56 67 57
f 57 67 68
f 57 68 69
f 58 70 71
f 58 71 59
f 59 72 60
f 59 71 70
f 59 70 72
f 62 66 63
f 66 73 69
f 66 69 68
f 66 68 67
f 66 72 73
f 70 74 72
f 72 74 75
f 72 75 73

