# https://github.com/mikedh/trimesh
v 0.05650393 -0.16894140 0.06188886
v 0.05650393 -0.16944511 0.06184639
v 0.05650393 -0.15308429 0.06180391
v 0.03315852 -0.20145961 0.17865826
v 0.03315852 -0.21771387 0.17865826
v 0.05650393 -0.18518598 0.05836326
v 0.03284202 -0.23028721 0.17865826
v 0.05650393 -0.15200907 0.06176143
v 0.03299394 -0.19673251 0.17865826
v 0.05650393 -0.18561220 0.05819336
v 0.03237359 -0.23455903 0.17865826
v 0.05650393 -0.19502765 0.05186428
v 0.05650393 -0.15198970 0.05874556
v 0.04132435 -0.15198970 0.06167647
v 0.00812930 -0.17846342 0.17865826
v 0.01667494 -0.18191188 0.17865826
v 0.02439766 -0.18503100 0.17865826
v 0.02884139 -0.18892504 0.17865826
v 0.03284202 -0.19246069 0.17865826
v 0.03193048 -0.23842403 0.17865826
v 0.05650393 -0.19503734 0.05139703
v 0.05650393 -0.15198970 0.03262218
v 0.04066602 -0.15198970 0.06167647
v -0.00813905 -0.17846342 0.17865826
v 0.02806912 -0.24174655 0.17865826
v 0.03252551 -0.24206622 -0.13125425
v 0.05650393 -0.19503734 0.04460070
v 0.03253817 -0.24213403 -0.14208590
v 0.03255083 -0.24215340 -0.15444672
v 0.03262679 -0.24225026 -0.23579027
v 0.03263945 -0.24227933 -0.25528722
v 0.02057428 -0.15198970 0.01091641
v 0.05650393 -0.15264839 0.03262218
v 0.03447518 -0.19832113 -0.25528722
v 0.03423464 -0.19136609 -0.25528722
v 0.02751207 -0.18635807 -0.25528722
v 0.02439766 -0.18499224 -0.25528722
v 0.01273762 -0.18092384 -0.25528722
v 0.00812930 -0.18006172 -0.25528722
v -0.00813905 -0.15198970 0.06142161
v -0.02439475 -0.17861840 0.17865826
v -0.07283268 -0.15198970 0.06103932
v 0.02380263 -0.24539844 0.17865826
v 0.05650393 -0.18518598 0.03657254
v 0.03434858 -0.21452695 -0.25528722
v 0.02439766 -0.24667707 -0.25205896
v 0.02439766 -0.24668677 -0.25528722
v 0.02389125 -0.24550499 0.13839002
v 0.03101894 -0.24315111 -0.25528722
v 0.02008053 -0.15198970 0.01066155
v 0.05650393 -0.16759495 0.03270713
v -0.00813905 -0.18005203 -0.25528722
v -0.00813905 -0.15198970 0.00390770
v 0.00748363 -0.15198970 0.00467228
v 0.00812930 -0.15198970 0.00471476
v -0.03852353 -0.18604809 0.17865826
v -0.07283268 -0.15198970 0.04906080
v -0.07283268 -0.16853456 0.06112427
v -0.04452447 -0.20145961 0.17865826
v -0.04167592 -0.19412680 0.17865826
v 0.01556084 -0.24712267 0.17865826
v 0.00812930 -0.25059051 -0.18698413
v 0.00812930 -0.25092955 -0.25205896
v 0.02120729 -0.24752951 -0.25528722
v -0.02439475 -0.18013922 -0.25528722
v -0.02439475 -0.15198970 0.00700852
v -0.05758979 -0.15198970 0.03126291
v -0.07283268 -0.15200907 0.03185759
v -0.07283268 -0.16891234 0.06112427
v -0.04452447 -0.21771387 0.17865826
v 0.00812930 -0.24866285 0.17865826
v 0.00812930 -0.24871129 0.17092744
v 0.00812930 -0.24922467 0.07327271
v -0.02439475 -0.25059051 -0.18698413
v -0.02439475 -0.25092955 -0.25205896
v 0.00812930 -0.25093922 -0.25528722
v -0.03927049 -0.18636776 -0.25528722
v -0.03452291 -0.15198970 0.01321017
v -0.07283268 -0.15302617 0.03185759
v -0.04486629 -0.20149837 -0.25528722
v -0.07283268 -0.18518598 0.05768363
v -0.04376486 -0.22626724 0.17865826
v -0.02439475 -0.24866285 0.17865826
v -0.02439475 -0.24871129 0.17092744
v -0.02439475 -0.24922467 0.07327271
v -0.03708027 -0.24539844 0.17865826
v -0.03759934 -0.24605714 -0.07310318
v -0.03764998 -0.24614430 -0.10564059
v -0.03778924 -0.24635741 -0.18698413
v -0.03790318 -0.24653178 -0.25528722
v -0.02439475 -0.25093922 -0.25528722
v -0.03716889 -0.24550499 0.13839002
v -0.03734613 -0.24571810 0.05700400
v -0.07283268 -0.16929012 0.03190007
v -0.04452447 -0.21771387 -0.25528722
v -0.07283268 -0.17897681 0.03223988
v -0.07283268 -0.19485330 0.05152446
v -0.04306854 -0.23398751 0.17865826
v -0.03768796 -0.24618307 -0.12190930
v -0.04271406 -0.23645762 -0.25528722
v -0.07283268 -0.19488235 0.04413346
v -0.04389146 -0.23398751 -0.25528722
v -0.07283268 -0.18706520 0.03606282
v -0.07283268 -0.18723955 0.03619025
f 1 2 6
f 1 6 10
f 1 10 12
f 1 12 21
f 1 21 27
f 1 27 44
f 1 44 51
f 1 51 33
f 1 33 22
f 1 22 13
f 1 13 8
f 1 8 3
f 1 3 4
f 1 4 5
f 1 5 2
f 2 5 7
f 2 7 6
f 3 8 4
f 4 9 19
f 4 19 18
f 4 18 17
f 4 17 16
f 4 16 15
f 4 15 24
f 4 24 41
f 4 41 56
f 4 56 60
f 4 60 59
f 4 59 70
f 4 70 82
f 4 82 98
f 4 98 86
f 4 86 83
f 4 83 71
f 4 71 61
f 4 61 43
f 4 43 25
f 4 25 20
f 4 20 11
f 4 11 7
f 4 7 5
f 4 8 9
f 6 7 10
f 7 11 12
f 7 12 10
f 8 13 14
f 8 14 15
f 8 15 16
f 8 16 17
f 8 17 18
f 8 18 19
f 8 19 9
f 11 20 12
f 12 20 21
f 13 22 32
f 13 32 50
f 13 50 55
f 13 55 54
f 13 54 53
f 13 53 66
f 13 66 78
f 13 78 67
f 13 67 57
f 13 57 42
f 13 42 40
f 13 40 23
f 13 23 14
f 14 23 24
f 14 24 15
f 20 25 26
f 20 26 21
f 21 26 28
f 21 28 29
f 21 29 30
f 21 30 31
f 21 31 27
f 22 33 34
f 22 34 35
f 22 35 36
f 22 36 37
f 22 37 38
f 22 38 39
f 22 39 32
f 23 40 24
f 24 40 42
f 24 42 41
f 25 43 26
f 26 43 28
f 27 31 45
f 27 45 44
f 28 46 47
f 28 47 29
f 28 43 48
f 28 48 46
f 29 47 49
f 29 49 31
f 29 31 30
f 31 49 47
f 31 47 64
f 31 64 76
f 31 76 91
f 31 91 90
f 31 90 100
f 31 100 102
f 31 102 95
f 31 95 80
f 31 80 77
f 31 77 65
f 31 65 52
f 31 52 39
f 31 39 38
f 31 38 37
f 31 37 36
f 31 36 35
f 31 35 34
f 31 34 45
f 32 39 50
f 33 51 34
f 34 51 45
f 39 52 53
f 39 53 54
f 39 54 55
f 39 55 50
f 41 42 56
f 42 57 68
f 42 68 79
f 42 79 94
f 42 94 96
f 42 96 103
f 42 103 104
f 42 104 101
f 42 101 97
f 42 97 81
f 42 81 69
f 42 69 58
f 42 58 59
f 42 59 60
f 42 60 56
f 43 61 62
f 43 62 63
f 43 63 64
f 43 64 46
f 43 46 48
f 44 45 51
f 46 64 47
f 52 65 53
f 53 65 66
f 57 67 68
f 58 69 70
f 58 70 59
f 61 71 72
f 61 72 73
f 61 73 62
f 62 74 75
f 62 75 63
f 62 73 85
f 62 85 74
f 63 75 91
f 63 91 76
f 63 76 64
f 65 77 68
f 65 68 66
f 66 68 78
f 67 78 68
f 68 77 80
f 68 80 79
f 69 81 70
f 70 81 82
f 71 83 84
f 71 84 72
f 72 84 85
f 72 85 73
f 74 85 86
f 74 86 75
f 75 87 88
f 75 88 89
f 75 89 90
f 75 90 91
f 75 86 92
f 75 92 93
f 75 93 87
f 79 80 94
f 80 95 96
f 80 96 94
f 81 97 98
f 81 98 82
f 83 86 84
f 84 86 85
f 86 98 97
f 86 97 92
f 87 99 89
f 87 89 88
f 87 93 97
f 87 97 99
f 89 99 90
f 90 99 97
f 90 97 101
f 90 101 100
f 92 97 93
f 95 102 96
f 96 102 103
f 100 101 102
f 101 104 102
f 102 104 103

