# https://github.com/mikedh/trimesh
v 0.81577832 0.23370538 -0.64732339
v 0.81577832 0.22439161 -0.64732339
v 0.81577832 0.23370538 -0.65601861
v 0.80695824 0.23767077 -0.66036619
v 0.80599956 0.23798285 -0.64225118
v 0.78156636 0.23046209 0.70782335
v 0.78134719 0.23019283 0.72405436
v 0.78266202 0.22157056 0.70782335
v 0.78715420 0.18237565 0.69144740
v 0.81577832 0.22439161 -0.65601861
v 0.78829093 0.18237565 0.33349504
v 0.78196353 0.20530514 -0.73340584
v 0.78163482 0.21536547 -0.73297109
v 0.78909900 0.24425526 -0.65877206
v 0.78909900 0.24462242 -0.64254105
v 0.77282847 0.22426922 -0.72384116
v 0.77282847 0.23401748 0.70782335
v 0.77282847 0.23346061 0.72405436
v 0.78107327 0.22984402 0.73231483
v 0.78219633 0.22157056 0.72405436
v 0.78552443 0.18237565 0.70825810
v 0.78270309 0.18237565 -0.72384116
v 0.78178548 0.18237565 -0.73311602
v 0.78194981 0.18903971 -0.73340584
v 0.78820879 0.18237565 0.28480191
v 0.78634618 0.18237565 -0.28458869
v 0.77282847 0.20530514 -0.73804330
v 0.77282847 0.21871280 -0.73499997
v 0.77282847 0.24488557 -0.65877206
v 0.75655793 0.22904851 -0.72384116
v 0.75655793 0.24404109 -0.67500313
v 0.74030107 0.24477541 -0.67500313
v 0.77282847 0.24479989 -0.64254105
v 0.75655793 0.23681404 0.70782335
v 0.75655793 0.23623882 0.72405436
v 0.77282847 0.23128820 0.73376403
v 0.77282847 0.22157056 0.73579291
v 0.78134719 0.22157056 0.73260465
v 0.78158003 0.20530514 0.73289452
v 0.78159375 0.18903971 0.73303940
v 0.78144310 0.18237565 0.73274958
v 0.77640304 0.18237565 -0.73586948
v 0.77282847 0.18903971 -0.73789836
v 0.75655793 0.20530514 -0.74123156
v 0.75655793 0.22109325 -0.73659410
v 0.75655793 0.24483660 -0.65877206
v 0.72403053 0.24477541 -0.67500313
v 0.74030107 0.22912194 -0.72384116
v 0.72403053 0.24334347 -0.69137908
v 0.74030107 0.24118944 -0.69137908
v 0.74030107 0.23681404 0.70782335
v 0.74030107 0.23623882 0.72405436
v 0.75655793 0.23266507 0.73506829
v 0.75655793 0.22157056 0.73854637
v 0.77282847 0.20530514 0.73637260
v 0.77282847 0.18903971 0.73651748
v 0.77282847 0.18237565 0.73521322
v 0.77282847 0.18237565 -0.73746361
v 0.75655793 0.18903971 -0.74108662
v 0.74030107 0.20530514 -0.74123156
v 0.74030107 0.22109325 -0.73659410
v 0.72403053 0.22915865 -0.72384116
v 0.72403053 0.23674061 0.70782335
v 0.70775995 0.24341078 -0.67500313
v 0.70775995 0.24455512 -0.65877206
v 0.71274522 0.23407254 -0.70485664
v 0.70749976 0.23732808 -0.69123415
v 0.72403053 0.23617151 0.72405436
v 0.72403053 0.23263447 0.73506829
v 0.74030107 0.23266507 0.73506829
v 0.74030107 0.22157056 0.73854637
v 0.75655793 0.20530514 0.73912605
v 0.75655793 0.18903971 0.73927099
v 0.75655793 0.18237565 0.73753192
v 0.75655793 0.18237565 -0.74050693
v 0.72403053 0.18903971 -0.74108662
v 0.72403053 0.20530514 -0.74108662
v 0.72403053 0.22106266 -0.73659410
v 0.71263563 0.21849860 -0.73499997
v 0.71171802 0.23318524 0.70782335
v 0.71204673 0.23290373 0.72405436
v 0.67586257 0.24401049 -0.61065865
v 0.67586257 0.24388810 -0.59428270
v 0.67586257 0.24338631 -0.52921360
v 0.67586257 0.24325779 -0.51298259
v 0.69148942 0.24166063 -0.65877206
v 0.67586257 0.24374123 -0.62688967
v 0.69148942 0.24424302 -0.64254105
v 0.69195506 0.23546166 -0.67398869
v 0.67586257 0.23841120 -0.64529450
v 0.71356696 0.23163700 0.73405385
v 0.72403053 0.22157056 0.73840143
v 0.74030107 0.20530514 0.73912605
v 0.74030107 0.18903971 0.73927099
v 0.72403053 0.18237565 0.73753192
v 0.72403053 0.18237565 -0.74050693
v 0.71130717 0.18237565 -0.73615935
v 0.71099219 0.18903971 -0.73659410
v 0.71100586 0.20530514 -0.73659410
v 0.68271045 0.23103731 -0.66775710
v 0.67930021 0.23426836 -0.65877206
v 0.67586257 0.24274989 -0.49675152
v 0.67624607 0.18237565 0.70246132
v 0.67586257 0.23669777 -0.64891752
v 0.71207413 0.22157056 0.73521322
v 0.72403053 0.20530514 0.73898112
v 0.72403053 0.18903971 0.73912605
v 0.71794961 0.18237565 0.73651748
v 0.70822564 0.18237565 -0.72876844
v 0.70577408 0.18903971 -0.72384116
v 0.67586257 0.22175414 -0.65427954
v 0.67586257 0.23935972 -0.48037557
v 0.68158740 0.18237565 0.38537639
v 0.71245763 0.18237565 0.73506829
v 0.71169063 0.18903971 0.73564798
v 0.71171802 0.20530514 0.73564798
v 0.67586257 0.23349120 -0.46689801
v 0.67586257 0.23297106 -0.46617344
v 0.67586257 0.22280056 -0.46457931
v 0.67586257 0.22249459 -0.46472424
v 0.67586257 0.21572652 -0.46936165
v 0.67586257 0.21148576 -0.47979588
v 0.67586257 0.21022514 -0.49602695
v 0.67586257 0.21018843 -0.51240290
v 0.67586257 0.21029247 -0.52863392
v 0.67586257 0.21040874 -0.54428529
v 0.67586257 0.21053113 -0.56051631
v 0.67586257 0.21078201 -0.59370301
v 0.67586257 0.21090440 -0.60935434
v 0.67586257 0.21091053 -0.60993403
v 0.67586257 0.21117366 -0.62616510
v 0.70644517 0.18237565 -0.72384116
v 0.67586257 0.21729920 -0.64993196
v 0.67586257 0.21225681 -0.64167149
f 1 2 10
f 1 10 3
f 1 3 4
f 1 4 5
f 1 5 6
f 1 6 7
f 1 7 8
f 1 8 9
f 1 9 2
f 2 9 11
f 2 11 10
f 3 10 12
f 3 12 13
f 3 13 4
f 4 14 15
f 4 15 5
f 4 13 16
f 4 16 14
f 5 15 17
f 5 17 6
f 6 17 7
f 7 18 19
f 7 19 20
f 7 20 9
f 7 9 8
f 7 17 18
f 9 20 19
f 9 19 21
f 9 21 41
f 9 41 57
f 9 57 74
f 9 74 95
f 9 95 108
f 9 108 114
f 9 114 103
f 9 103 113
f 9 113 132
f 9 132 109
f 9 109 97
f 9 97 96
f 9 96 75
f 9 75 58
f 9 58 42
f 9 42 23
f 9 23 22
f 9 22 26
f 9 26 25
f 9 25 11
f 10 22 23
f 10 23 24
f 10 24 12
f 10 11 25
f 10 25 26
f 10 26 22
f 12 24 27
f 12 27 13
f 13 27 28
f 13 28 16
f 14 29 15
f 14 16 30
f 14 30 31
f 14 31 32
f 14 32 29
f 15 29 33
f 15 33 34
f 15 34 17
f 16 28 30
f 17 34 18
f 18 34 35
f 18 35 36
f 18 36 19
f 19 36 37
f 19 37 38
f 19 38 21
f 21 38 39
f 21 39 40
f 21 40 41
f 23 42 24
f 24 42 43
f 24 43 27
f 27 44 28
f 27 43 59
f 27 59 44
f 28 44 45
f 28 45 30
f 29 46 33
f 29 32 47
f 29 47 46
f 30 45 48
f 30 48 49
f 30 49 50
f 30 50 31
f 31 50 49
f 31 49 32
f 32 49 47
f 33 46 51
f 33 51 34
f 34 51 52
f 34 52 35
f 35 52 70
f 35 70 53
f 35 53 36
f 36 53 54
f 36 54 37
f 37 54 72
f 37 72 55
f 37 55 38
f 38 55 39
f 39 55 40
f 40 55 56
f 40 56 41
f 41 56 57
f 42 58 43
f 43 58 59
f 44 59 76
f 44 76 60
f 44 60 61
f 44 61 45
f 45 61 62
f 45 62 48
f 46 47 63
f 46 63 51
f 47 49 64
f 47 64 65
f 47 65 63
f 48 62 49
f 49 66 67
f 49 67 64
f 49 62 66
f 51 63 68
f 51 68 52
f 52 68 69
f 52 69 70
f 53 70 71
f 53 71 54
f 54 71 93
f 54 93 72
f 55 72 73
f 55 73 56
f 56 73 57
f 57 73 74
f 58 75 59
f 59 75 96
f 59 96 76
f 60 76 77
f 60 77 78
f 60 78 61
f 61 78 62
f 62 78 79
f 62 79 66
f 63 80 81
f 63 81 68
f 63 65 82
f 63 82 83
f 63 83 84
f 63 84 85
f 63 85 80
f 64 67 86
f 64 86 87
f 64 87 88
f 64 88 65
f 65 88 82
f 66 89 67
f 66 79 89
f 67 89 90
f 67 90 86
f 68 81 91
f 68 91 69
f 69 91 92
f 69 92 71
f 69 71 70
f 71 92 106
f 71 106 93
f 72 93 94
f 72 94 73
f 73 94 95
f 73 95 74
f 76 96 97
f 76 97 98
f 76 98 77
f 77 98 99
f 77 99 79
f 77 79 78
f 79 99 100
f 79 100 101
f 79 101 89
f 80 85 102
f 80 102 81
f 81 102 103
f 81 103 91
f 82 88 87
f 82 87 90
f 82 90 104
f 82 104 111
f 82 111 133
f 82 133 134
f 82 134 131
f 82 131 130
f 82 130 129
f 82 129 128
f 82 128 127
f 82 127 126
f 82 126 125
f 82 125 124
f 82 124 123
f 82 123 122
f 82 122 121
f 82 121 120
f 82 120 119
f 82 119 118
f 82 118 117
f 82 117 112
f 82 112 102
f 82 102 85
f 82 85 84
f 82 84 83
f 86 90 87
f 89 101 104
f 89 104 90
f 91 105 92
f 91 103 105
f 92 105 106
f 93 106 107
f 93 107 94
f 94 107 95
f 95 107 108
f 97 109 98
f 98 109 110
f 98 110 111
f 98 111 99
f 99 111 100
f 100 111 101
f 101 111 104
f 102 112 103
f 103 114 115
f 103 115 116
f 103 116 105
f 103 112 117
f 103 117 118
f 103 118 119
f 103 119 120
f 103 120 121
f 103 121 122
f 103 122 123
f 103 123 124
f 103 124 125
f 103 125 126
f 103 126 127
f 103 127 128
f 103 128 129
f 103 129 130
f 103 130 131
f 103 131 113
f 105 116 106
f 106 116 107
f 107 116 115
f 107 115 114
f 107 114 108
f 109 132 111
f 109 111 110
f 111 132 133
f 113 131 132
f 131 134 132
f 132 134 133

