# https://github.com/mikedh/trimesh
v 0.67605207 0.15649655 -0.41892905
v 0.67605207 0.16815026 -0.41241196
v 0.67605207 0.14353209 -0.41317179
v 0.67519885 0.14352884 -0.41317179
v 0.65894529 0.14348331 -0.41315719
v 0.62639544 0.14339224 -0.41312795
v 0.61009921 0.14334670 -0.41311336
v 0.26847523 0.14239046 -0.41276264
v 0.25222164 0.14236120 -0.41274804
v 0.24023408 0.14238721 -0.41274804
v 0.24023408 0.15274642 -0.41556822
v 0.24023408 0.15649655 -0.41656186
v 0.67605207 0.17172475 -0.39851563
v 0.24023408 0.16419522 -0.41209048
v 0.24023408 0.16696960 -0.41046852
v 0.67605207 0.14346704 -0.41298181
v 0.56129580 0.14235469 -0.41062926
v 0.54504218 0.14235469 -0.41076076
v 0.49623877 0.14235469 -0.41115532
v 0.46368892 0.14235469 -0.41140368
v 0.41492813 0.14235469 -0.41175440
v 0.38237831 0.14235469 -0.41197357
v 0.35059636 0.14235469 -0.41217815
v 0.28498477 0.14235469 -0.41258730
v 0.26847523 0.14235469 -0.41268961
v 0.25222164 0.14235469 -0.41273345
v 0.24023408 0.14235469 -0.38131693
v 0.46368892 0.17557246 -0.28464178
v 0.49623877 0.17555945 -0.28464178
v 0.51249234 0.17555294 -0.28464178
v 0.67605207 0.17530576 -0.28470024
v 0.24023408 0.16872595 -0.40167191
v 0.24023408 0.16935368 -0.39851563
v 0.24023408 0.17541309 -0.28464178
v 0.41492813 0.17558222 -0.28464178
v 0.67605207 0.14235469 -0.40957714
v 0.67519885 0.14235469 -0.40959178
v 0.65894529 0.14235469 -0.40975253
v 0.62639544 0.14235469 -0.41005937
v 0.59384559 0.14235469 -0.41035161
v 0.24023408 0.14235469 -0.26970800
v 0.25222164 0.17015705 -0.27314188
v 0.67605207 0.16960737 -0.27457388
v 0.26847523 0.17014079 -0.27317109
v 0.39863190 0.16993588 -0.27343412
v 0.41492813 0.16990661 -0.27347795
v 0.44743531 0.16982855 -0.27353641
v 0.24023408 0.17014079 -0.27317109
v 0.67605207 0.14235469 -0.27140301
v 0.24023408 0.14610482 -0.26972259
v 0.25222164 0.14235469 -0.26966416
v 0.24023408 0.15649655 -0.26978104
v 0.25222164 0.15649655 -0.26975183
v 0.26847523 0.15649655 -0.26978104
v 0.49623877 0.16970821 -0.27363870
v 0.67605207 0.16922683 -0.27398939
v 0.28477146 0.17010827 -0.27320033
v 0.30102505 0.17007574 -0.27322957
v 0.28686183 0.14235469 -0.26978104
v 0.67605207 0.14308325 -0.27140301
v 0.26847523 0.14235469 -0.26970800
v 0.67605207 0.15649655 -0.27146146
v 0.67605207 0.15716331 -0.27159296
f 1 2 13
f 1 13 31
f 1 31 43
f 1 43 56
f 1 56 63
f 1 63 62
f 1 62 60
f 1 60 49
f 1 49 36
f 1 36 16
f 1 16 3
f 1 3 4
f 1 4 5
f 1 5 6
f 1 6 7
f 1 7 8
f 1 8 9
f 1 9 10
f 1 10 11
f 1 11 12
f 1 12 2
f 2 12 14
f 2 14 15
f 2 15 13
f 3 16 4
f 4 16 17
f 4 17 18
f 4 18 19
f 4 19 20
f 4 20 21
f 4 21 22
f 4 22 5
f 5 22 6
f 6 22 7
f 7 22 23
f 7 23 24
f 7 24 25
f 7 25 8
f 8 25 9
f 9 25 26
f 9 26 10
f 10 26 27
f 10 27 41
f 10 41 50
f 10 50 52
f 10 52 48
f 10 48 34
f 10 34 33
f 10 33 32
f 10 32 15
f 10 15 14
f 10 14 12
f 10 12 11
f 13 28 29
f 13 29 30
f 13 30 31
f 13 15 32
f 13 32 33
f 13 33 34
f 13 34 35
f 13 35 28
f 16 36 37
f 16 37 38
f 16 38 39
f 16 39 40
f 16 40 17
f 17 40 39
f 17 39 38
f 17 38 37
f 17 37 36
f 17 36 49
f 17 49 59
f 17 59 61
f 17 61 51
f 17 51 41
f 17 41 27
f 17 27 26
f 17 26 25
f 17 25 24
f 17 24 23
f 17 23 22
f 17 22 21
f 17 21 20
f 17 20 19
f 17 19 18
f 28 35 42
f 28 42 29
f 29 42 30
f 30 42 31
f 31 42 44
f 31 44 45
f 31 45 46
f 31 46 47
f 31 47 43
f 34 48 42
f 34 42 35
f 41 51 50
f 42 48 52
f 42 52 53
f 42 53 54
f 42 54 44
f 43 55 56
f 43 47 55
f 44 54 57
f 44 57 45
f 45 57 58
f 45 58 54
f 45 54 56
f 45 56 47
f 45 47 46
f 47 56 55
f 49 60 59
f 50 51 52
f 51 61 54
f 51 54 53
f 51 53 52
f 54 58 57
f 54 61 59
f 54 59 62
f 54 62 63
f 54 63 56
f 59 60 62

