# https://github.com/mikedh/trimesh
v 0.79050276 -0.16892052 0.38247192
v 0.78923526 -0.18518889 0.38247192
v 0.78255791 -0.23398453 0.17865828
v 0.78315559 -0.21771615 0.17865828
v 0.78315559 -0.20144779 0.17865828
v 0.79027603 -0.15198969 0.38247192
v 0.78848304 -0.16892052 0.69155252
v 0.78747321 -0.18518889 0.69155252
v 0.78120802 -0.24239788 0.39872192
v 0.78122863 -0.24242630 0.38247192
v 0.78135228 -0.24257770 0.28486170
v 0.78142438 -0.24267233 0.21975151
v 0.78146565 -0.24272914 0.17865828
v 0.78204267 -0.23812970 0.17865828
v 0.78201178 -0.23221477 0.72410765
v 0.78206327 -0.23257442 0.70780255
v 0.78111526 -0.24228432 0.46377705
v 0.78206327 -0.19058328 0.17865828
v 0.77768383 -0.18704380 0.17865828
v 0.77283041 -0.18315416 0.17865828
v 0.78407267 -0.15198969 0.37112446
v 0.78822542 -0.15198969 0.69155252
v 0.78738045 -0.15198969 0.70614999
v 0.78733923 -0.15198969 0.70675591
v 0.78730830 -0.18518889 0.70780255
v 0.77283041 -0.24600363 0.17865828
v 0.78097101 -0.24213291 0.55510758
v 0.77692129 -0.24446102 0.17865828
v 0.78140377 -0.24265342 0.23605659
v 0.78145532 -0.24271966 0.18725151
v 0.78163051 -0.22990560 0.73319665
v 0.77982720 -0.24035370 0.72410765
v 0.78007449 -0.24070387 0.70780255
v 0.78018786 -0.24084582 0.69155252
v 0.78049698 -0.24127170 0.64274741
v 0.78086797 -0.24192470 0.57763724
v 0.78092979 -0.24204774 0.56595926
v 0.78099162 -0.24214237 0.54513724
v 0.78104311 -0.24219915 0.51258211
v 0.76511224 -0.18092069 0.17865828
v 0.76485462 -0.15198969 0.34170920
v 0.75655943 -0.17846955 0.17865828
v 0.77341776 -0.15198969 0.71375173
v 0.76665793 -0.17656731 0.73286610
v 0.77750864 -0.17992698 0.72895511
v 0.78162018 -0.19077256 0.73314157
v 0.78194996 -0.20144779 0.73363732
v 0.78196024 -0.21771615 0.73369241
v 0.77283041 -0.24536954 0.33366681
v 0.77204721 -0.24405408 0.69155252
v 0.77194417 -0.24400675 0.70780255
v 0.75655943 -0.24867243 0.17865828
v 0.77225334 -0.24413925 0.65899744
v 0.77244909 -0.24422442 0.62649744
v 0.77264489 -0.24430959 0.59394230
v 0.77283041 -0.24509509 0.39872192
v 0.78143471 -0.24270075 0.20350151
v 0.77283041 -0.21771615 0.73826445
v 0.77392267 -0.23478896 0.73556525
v 0.76922378 -0.24326858 0.73380258
v 0.77168660 -0.24391210 0.72410765
v 0.75655943 -0.15198969 0.34154394
v 0.74028851 -0.17846955 0.17865828
v 0.74028851 -0.15198969 0.34143378
v 0.77283041 -0.15198969 0.71402715
v 0.75655943 -0.17633072 0.73314157
v 0.75655943 -0.18518889 0.73765848
v 0.77238726 -0.18528353 0.73495933
v 0.77283041 -0.20144779 0.73815428
v 0.75655943 -0.24589005 0.70780255
v 0.75655943 -0.24751783 0.39872192
v 0.74028851 -0.24867243 0.17865828
v 0.75655943 -0.20144779 0.74129405
v 0.75655943 -0.21771615 0.74134914
v 0.75655943 -0.23398453 0.73914579
v 0.75655943 -0.24384587 0.73457375
v 0.75655943 -0.24571025 0.72410765
v 0.72402787 -0.17876294 0.17865828
v 0.73138537 -0.15198969 0.34165411
v 0.75720866 -0.15198969 0.71424748
v 0.74028851 -0.17633072 0.73314157
v 0.74028851 -0.18518889 0.73765848
v 0.74028851 -0.24589005 0.70780255
v 0.74028851 -0.24751783 0.39872192
v 0.72402787 -0.24813299 0.26855662
v 0.72402787 -0.24859671 0.17865828
v 0.72402787 -0.24584275 0.70780255
v 0.72402787 -0.24601309 0.67530255
v 0.72402787 -0.24626860 0.62649744
v 0.72402787 -0.24695000 0.49633213
v 0.72402787 -0.24712036 0.46377705
v 0.74028851 -0.20144779 0.74129405
v 0.72402787 -0.21771615 0.74134914
v 0.74028851 -0.23398453 0.73914579
v 0.74028851 -0.24384587 0.73457375
v 0.74028851 -0.24571025 0.72410765
v 0.71068346 -0.18619206 0.17865828
v 0.68525172 -0.15198969 0.37261174
v 0.72324472 -0.15198969 0.34666682
v 0.73105559 -0.15198969 0.34181936
v 0.72402787 -0.15198969 0.71424748
v 0.72402787 -0.17634964 0.73314157
v 0.72402787 -0.18518889 0.73760340
v 0.71323898 -0.24395943 0.70780255
v 0.71250738 -0.24467869 0.43127700
v 0.71231158 -0.24488688 0.34991681
v 0.71212611 -0.24509509 0.26855662
v 0.71195092 -0.24530330 0.18725151
v 0.71193031 -0.24532221 0.17865828
v 0.71319777 -0.24400675 0.69155252
v 0.71310501 -0.24409192 0.65899744
v 0.71278561 -0.24438531 0.54513724
v 0.71270313 -0.24447048 0.51258211
v 0.72402787 -0.24566292 0.72410765
v 0.71335235 -0.24387426 0.72410765
v 0.72402787 -0.20144779 0.74123897
v 0.71102351 -0.20144779 0.73672206
v 0.71099258 -0.21771615 0.73677714
v 0.71222915 -0.23398453 0.73562034
v 0.72402787 -0.23398453 0.73909071
v 0.72402787 -0.24382693 0.73451866
v 0.70547965 -0.20144779 0.17865828
v 0.68525172 -0.15198969 0.71402715
v 0.68525172 -0.16267438 0.37228122
v 0.71524837 -0.17659571 0.73281102
v 0.71299169 -0.18518889 0.73490425
v 0.70803518 -0.23398453 0.70780255
v 0.68525172 -0.19476631 0.39233209
v 0.71314627 -0.24404460 0.67530255
v 0.71238373 -0.24480171 0.38247192
v 0.71198185 -0.24525598 0.20350151
v 0.71227036 -0.24492475 0.33366681
v 0.70945722 -0.23995621 0.17865828
v 0.68525172 -0.19476631 0.39106514
v 0.68525172 -0.19470953 0.38528123
v 0.71296075 -0.24421496 0.61019233
v 0.71257948 -0.24459352 0.46377705
v 0.71425915 -0.24324019 0.73374749
v 0.70830308 -0.23398453 0.72410765
v 0.68525172 -0.16945996 0.71441273
v 0.68525172 -0.18511318 0.70780255
v 0.70547965 -0.21771615 0.17865828
v 0.68525172 -0.16892052 0.37228122
v 0.71253827 -0.24463137 0.44758211
v 0.70672650 -0.23398453 0.17865828
v 0.68525172 -0.19227731 0.38192106
v 0.70612882 -0.22626203 0.17865828
v 0.68525172 -0.18947602 0.37856090
v 0.68525172 -0.18270936 0.37310750
v 0.68525172 -0.17812886 0.37283208
f 1 2 3
f 1 3 4
f 1 4 5
f 1 5 6
f 1 6 7
f 1 7 8
f 1 8 2
f 2 9 10
f 2 10 11
f 2 11 12
f 2 12 13
f 2 13 14
f 2 14 3
f 2 8 15
f 2 15 16
f 2 16 17
f 2 17 9
f 3 14 13
f 3 13 28
f 3 28 26
f 3 26 52
f 3 52 72
f 3 72 86
f 3 86 109
f 3 109 133
f 3 133 145
f 3 145 147
f 3 147 142
f 3 142 122
f 3 122 97
f 3 97 78
f 3 78 63
f 3 63 42
f 3 42 40
f 3 40 20
f 3 20 19
f 3 19 18
f 3 18 5
f 3 5 4
f 5 18 6
f 6 18 19
f 6 19 20
f 6 20 21
f 6 21 41
f 6 41 62
f 6 62 64
f 6 64 79
f 6 79 100
f 6 100 99
f 6 99 98
f 6 98 123
f 6 123 101
f 6 101 80
f 6 80 65
f 6 65 43
f 6 43 24
f 6 24 23
f 6 23 22
f 6 22 7
f 7 22 23
f 7 23 24
f 7 24 25
f 7 25 8
f 8 25 15
f 9 26 10
f 9 17 27
f 9 27 26
f 10 26 11
f 11 26 28
f 11 28 29
f 11 29 12
f 12 29 30
f 12 30 13
f 13 30 28
f 15 31 32
f 15 32 33
f 15 33 34
f 15 34 16
f 15 25 31
f 16 34 35
f 16 35 36
f 16 36 37
f 16 37 27
f 16 27 38
f 16 38 39
f 16 39 17
f 17 39 27
f 20 40 21
f 21 40 42
f 21 42 41
f 24 43 44
f 24 44 45
f 24 45 46
f 24 46 47
f 24 47 25
f 25 47 48
f 25 48 31
f 26 49 50
f 26 50 51
f 26 51 52
f 26 27 49
f 27 39 38
f 27 37 51
f 27 51 50
f 27 50 53
f 27 53 54
f 27 54 55
f 27 55 56
f 27 56 49
f 28 30 57
f 28 57 29
f 29 57 30
f 31 48 58
f 31 58 59
f 31 59 60
f 31 60 32
f 32 60 61
f 32 61 33
f 33 61 51
f 33 51 37
f 33 37 34
f 34 37 36
f 34 36 35
f 41 42 62
f 42 63 64
f 42 64 62
f 43 65 44
f 44 66 67
f 44 67 68
f 44 68 45
f 44 65 66
f 45 68 46
f 46 68 69
f 46 69 47
f 47 69 58
f 47 58 48
f 49 56 50
f 50 56 53
f 51 61 70
f 51 70 71
f 51 71 52
f 52 71 84
f 52 84 72
f 53 56 54
f 54 56 55
f 58 69 73
f 58 73 74
f 58 74 75
f 58 75 59
f 59 75 60
f 60 75 76
f 60 76 77
f 60 77 61
f 61 77 70
f 63 78 79
f 63 79 64
f 65 80 66
f 66 81 82
f 66 82 67
f 66 80 101
f 66 101 81
f 67 82 92
f 67 92 73
f 67 73 68
f 68 73 69
f 70 77 96
f 70 96 83
f 70 83 84
f 70 84 71
f 72 85 86
f 72 84 87
f 72 87 88
f 72 88 89
f 72 89 90
f 72 90 91
f 72 91 85
f 73 92 93
f 73 93 74
f 74 93 94
f 74 94 75
f 75 94 95
f 75 95 76
f 76 95 96
f 76 96 77
f 78 97 98
f 78 98 99
f 78 99 100
f 78 100 79
f 81 102 82
f 81 101 102
f 82 102 103
f 82 103 116
f 82 116 92
f 83 96 114
f 83 114 87
f 83 87 84
f 85 91 104
f 85 104 86
f 86 105 106
f 86 106 107
f 86 107 108
f 86 108 109
f 86 104 110
f 86 110 111
f 86 111 112
f 86 112 113
f 86 113 105
f 87 114 115
f 87 115 104
f 87 104 88
f 88 104 89
f 89 104 90
f 90 104 91
f 92 116 93
f 93 116 117
f 93 117 118
f 93 118 119
f 93 119 120
f 93 120 94
f 94 120 95
f 95 121 96
f 95 120 121
f 96 121 114
f 97 122 98
f 98 122 124
f 98 124 143
f 98 143 150
f 98 150 149
f 98 149 148
f 98 148 146
f 98 146 135
f 98 135 134
f 98 134 128
f 98 128 141
f 98 141 140
f 98 140 123
f 101 123 102
f 102 125 103
f 102 123 125
f 103 125 126
f 103 126 116
f 104 115 127
f 104 127 128
f 104 128 129
f 104 129 110
f 105 130 106
f 105 113 137
f 105 137 130
f 106 130 132
f 106 132 107
f 107 131 108
f 107 132 128
f 107 128 131
f 108 131 109
f 109 131 128
f 109 128 134
f 109 134 135
f 109 135 133
f 110 129 136
f 110 136 111
f 111 136 112
f 112 136 128
f 112 128 113
f 113 128 137
f 114 121 138
f 114 138 115
f 115 138 139
f 115 139 127
f 116 126 117
f 117 126 123
f 117 123 140
f 117 140 118
f 118 140 119
f 119 138 120
f 119 140 141
f 119 141 138
f 120 138 121
f 122 142 143
f 122 143 124
f 123 126 125
f 127 139 141
f 127 141 128
f 128 132 130
f 128 130 144
f 128 144 137
f 128 136 129
f 130 137 144
f 133 135 145
f 135 146 145
f 138 141 139
f 142 147 148
f 142 148 149
f 142 149 150
f 142 150 143
f 145 146 148
f 145 148 147

