# https://github.com/mikedh/trimesh
v 0.79137576 0.17276144 0.33364014
v 0.79131893 0.17276144 0.30110423
v 0.78826140 0.18236954 0.31737220
v 0.78827275 0.18236954 0.32406811
v 0.78828414 0.18236954 0.33364014
v 0.78735208 0.18236954 0.38248894
v 0.78247597 0.18236954 0.63482191
v 0.79130759 0.15649462 0.38248894
v 0.79128484 0.17276144 0.28483627
v 0.78820457 0.18236954 0.28483627
v 0.70776538 0.18236954 0.63482191
v 0.78227139 0.18025443 0.63482191
v 0.79088699 0.14235469 0.38248894
v 0.78734074 0.15680797 0.28483627
v 0.78622684 0.15792429 0.26856835
v 0.78976175 0.17276144 0.26856835
v 0.78206677 0.17712091 0.17572418
v 0.78240774 0.18083412 0.17572418
v 0.78254414 0.18236954 0.17572418
v 0.78795451 0.18236954 0.27526427
v 0.70802679 0.18161358 0.63482191
v 0.68158885 0.18236954 0.38792656
v 0.67525782 0.18145298 0.39143182
v 0.67525782 0.17276144 0.39633017
v 0.67525782 0.15649462 0.40055444
v 0.67525782 0.14239386 0.40077914
v 0.78206677 0.17821764 0.63482191
v 0.77305331 0.16989427 0.63482191
v 0.78749988 0.14235469 0.39376863
v 0.79015956 0.14235469 0.38033185
v 0.77282599 0.15058013 0.26856835
v 0.76667684 0.16422263 0.17572418
v 0.77241679 0.16758332 0.17572418
v 0.77480372 0.16898556 0.17572418
v 0.77698602 0.17138268 0.17572418
v 0.70734483 0.18236954 0.17572418
v 0.71114115 0.17276144 0.63482191
v 0.68158885 0.18236954 0.38554480
v 0.67525782 0.18144124 0.38738729
v 0.67525782 0.14235469 0.36518738
v 0.67734920 0.14235469 0.40073419
v 0.74029569 0.16518227 0.63482191
v 0.73945459 0.16520577 0.63482191
v 0.72403053 0.16571104 0.63482191
v 0.76577887 0.16774783 0.63482191
v 0.78692019 0.14235469 0.39556619
v 0.77661096 0.14235469 0.34797569
v 0.74999114 0.14833576 0.27652256
v 0.75586749 0.14955391 0.27009627
v 0.77088235 0.14235469 0.33507818
v 0.77078004 0.14235469 0.33489843
v 0.75949332 0.16392494 0.17572418
v 0.70869744 0.17755178 0.17572418
v 0.67525782 0.15968688 0.25908620
v 0.67525782 0.16807684 0.25908620
v 0.67525782 0.17574609 0.26856835
v 0.67525782 0.17998808 0.28479134
v 0.68798806 0.18236954 0.28483627
v 0.67525782 0.14235469 0.36446836
v 0.69362575 0.14235469 0.40104877
v 0.75656084 0.16521360 0.63482191
v 0.71039102 0.14235469 0.40118359
v 0.72676983 0.14235469 0.40118359
v 0.74029569 0.14235469 0.40113864
v 0.75656084 0.14235469 0.40104877
v 0.77286008 0.14235469 0.40082407
v 0.74029569 0.14825350 0.27598329
v 0.75656084 0.16381527 0.17572418
v 0.75656084 0.14235469 0.32950574
v 0.75209387 0.14235469 0.32806769
v 0.70925439 0.17558942 0.17572418
v 0.67525782 0.15155152 0.26506307
v 0.71006139 0.17276144 0.17572418
v 0.67525782 0.14770515 0.27324200
v 0.71757449 0.14235469 0.32793287
v 0.72403053 0.14811642 0.27517437
v 0.74029569 0.16381527 0.17572418
v 0.70776538 0.14797933 0.27441042
v 0.69148888 0.14784224 0.27378127
v 0.74044343 0.14235469 0.32779805
v 0.71373270 0.16675294 0.17572418
v 0.71526714 0.16425788 0.17572418
v 0.72403053 0.16385052 0.17572418
v 0.72882713 0.16383878 0.17572418
f 1 2 10
f 1 10 3
f 1 3 4
f 1 4 5
f 1 5 6
f 1 6 7
f 1 7 8
f 1 8 2
f 2 9 10
f 2 8 9
f 3 10 20
f 3 20 19
f 3 19 36
f 3 36 58
f 3 58 38
f 3 38 22
f 3 22 11
f 3 11 7
f 3 7 6
f 3 6 5
f 3 5 4
f 7 11 21
f 7 21 37
f 7 37 44
f 7 44 43
f 7 43 42
f 7 42 61
f 7 61 45
f 7 45 28
f 7 28 27
f 7 27 12
f 7 12 13
f 7 13 8
f 8 13 9
f 9 13 14
f 9 14 15
f 9 15 16
f 9 16 17
f 9 17 18
f 9 18 19
f 9 19 20
f 9 20 10
f 11 22 23
f 11 23 24
f 11 24 25
f 11 25 26
f 11 26 21
f 12 27 13
f 13 27 28
f 13 28 29
f 13 29 46
f 13 46 66
f 13 66 65
f 13 65 64
f 13 64 63
f 13 63 62
f 13 62 60
f 13 60 41
f 13 41 40
f 13 40 59
f 13 59 75
f 13 75 80
f 13 80 70
f 13 70 69
f 13 69 51
f 13 51 50
f 13 50 47
f 13 47 30
f 13 30 31
f 13 31 15
f 13 15 14
f 15 31 32
f 15 32 33
f 15 33 34
f 15 34 35
f 15 35 17
f 15 17 16
f 17 35 34
f 17 34 33
f 17 33 32
f 17 32 52
f 17 52 68
f 17 68 77
f 17 77 84
f 17 84 83
f 17 83 82
f 17 82 81
f 17 81 73
f 17 73 71
f 17 71 53
f 17 53 36
f 17 36 19
f 17 19 18
f 21 26 37
f 22 38 23
f 23 38 39
f 23 39 57
f 23 57 56
f 23 56 55
f 23 55 54
f 23 54 72
f 23 72 74
f 23 74 59
f 23 59 40
f 23 40 26
f 23 26 25
f 23 25 24
f 26 40 41
f 26 41 42
f 26 42 43
f 26 43 44
f 26 44 37
f 28 45 46
f 28 46 29
f 30 47 31
f 31 48 49
f 31 49 32
f 31 47 50
f 31 50 51
f 31 51 48
f 32 49 48
f 32 48 52
f 36 53 54
f 36 54 55
f 36 55 56
f 36 56 57
f 36 57 58
f 38 58 39
f 39 58 57
f 41 60 42
f 42 60 62
f 42 62 63
f 42 63 64
f 42 64 65
f 42 65 66
f 42 66 61
f 45 61 46
f 46 61 66
f 48 67 68
f 48 68 52
f 48 51 69
f 48 69 70
f 48 70 67
f 53 71 54
f 54 71 73
f 54 73 72
f 59 74 75
f 67 76 68
f 67 70 76
f 68 76 78
f 68 78 79
f 68 79 74
f 68 74 77
f 70 80 74
f 70 74 79
f 70 79 78
f 70 78 76
f 72 73 81
f 72 81 82
f 72 82 74
f 74 82 83
f 74 83 84
f 74 84 77
f 74 80 75

