# https://github.com/mikedh/trimesh
v 0.79072809 -0.15199959 -0.28467301
v 0.78596752 -0.15199959 -0.29716246
v 0.78592621 -0.15199959 -0.27385198
v 0.78210536 -0.19124900 -0.25201925
v 0.78318963 -0.20152507 -0.25201925
v 0.79072809 -0.16891145 -0.28467301
v 0.78315864 -0.21771285 -0.70764632
v 0.78309672 -0.20145563 -0.70764632
v 0.78263200 -0.20145563 -0.72390168
v 0.78177491 -0.19207227 -0.72390168
v 0.78135150 -0.19271701 -0.73252989
v 0.77283201 -0.18746987 -0.72390168
v 0.76915575 -0.15199959 -0.32933952
v 0.75655725 -0.18412717 -0.72390168
v 0.78572998 -0.15199959 -0.27342294
v 0.77275976 -0.18479175 -0.25201925
v 0.78315864 -0.21779221 -0.25201925
v 0.79051125 -0.18518851 -0.28467301
v 0.78314832 -0.23398989 -0.70764632
v 0.78268364 -0.21771285 -0.72390168
v 0.78156835 -0.20145563 -0.73281592
v 0.77283201 -0.20145563 -0.73624813
v 0.77283201 -0.19081256 -0.73415068
v 0.76864972 -0.15199959 -0.32953020
v 0.75655725 -0.18920569 -0.73548540
v 0.74029278 -0.18412717 -0.72390168
v 0.74029278 -0.15199959 -0.33358213
v 0.75655725 -0.15199959 -0.33348680
v 0.77334837 -0.15199959 -0.27041977
v 0.75648496 -0.18052658 -0.25201925
v 0.77283201 -0.15199959 -0.27032441
v 0.78292114 -0.23402958 -0.25201925
v 0.78182655 -0.24333358 -0.25201925
v 0.78185749 -0.24338318 -0.28467301
v 0.78191946 -0.24351211 -0.36599751
v 0.78196077 -0.24361130 -0.43106666
v 0.78198142 -0.24366090 -0.46362509
v 0.78199175 -0.24368074 -0.47988045
v 0.78201241 -0.24375017 -0.52864657
v 0.78203307 -0.24380969 -0.57746036
v 0.78204339 -0.24384936 -0.61001874
v 0.78205372 -0.24390888 -0.65883253
v 0.78205372 -0.24394857 -0.69134330
v 0.78205372 -0.24395848 -0.70764632
v 0.78180589 -0.24355180 -0.72390168
v 0.78266299 -0.23398989 -0.72390168
v 0.78158900 -0.21771285 -0.73281592
v 0.77283201 -0.21771285 -0.73629580
v 0.75655725 -0.20145563 -0.73896532
v 0.74029278 -0.18920569 -0.73548540
v 0.72402830 -0.18923545 -0.73543778
v 0.72402830 -0.18420652 -0.72390168
v 0.73964220 -0.15199959 -0.33348680
v 0.74022048 -0.18050675 -0.25201925
v 0.75721816 -0.15199959 -0.27027675
v 0.78186781 -0.24341293 -0.30092837
v 0.77283201 -0.24773760 -0.25201925
v 0.77283201 -0.24780704 -0.26836996
v 0.77283201 -0.24835259 -0.39855594
v 0.77283201 -0.24874933 -0.49613581
v 0.77283201 -0.24887829 -0.52864657
v 0.77283201 -0.24900724 -0.56120495
v 0.77283201 -0.24919570 -0.61001874
v 0.77283201 -0.24950319 -0.69134330
v 0.77283201 -0.24956269 -0.70764632
v 0.77283201 -0.24861048 -0.72390168
v 0.78136183 -0.24279794 -0.73252989
v 0.78156835 -0.23398989 -0.73276826
v 0.75655725 -0.21771285 -0.73901298
v 0.77283201 -0.23398989 -0.73620047
v 0.74029278 -0.20145563 -0.73896532
v 0.72402830 -0.20145563 -0.73891765
v 0.71313371 -0.19062411 -0.73429368
v 0.71129554 -0.18879901 -0.72390168
v 0.68525177 -0.15199959 -0.29964130
v 0.71512676 -0.15199959 -0.32638401
v 0.72367719 -0.15199959 -0.33034058
v 0.72402830 -0.15199959 -0.33048360
v 0.72397666 -0.18144905 -0.25201925
v 0.72402830 -0.15199959 -0.27027675
v 0.68525177 -0.15199959 -0.27037210
v 0.75655725 -0.25093151 -0.25201925
v 0.75655725 -0.25332200 -0.70764632
v 0.75655725 -0.25222098 -0.72390168
v 0.77283201 -0.24487102 -0.73410297
v 0.74029278 -0.21771285 -0.73901298
v 0.75655725 -0.23398989 -0.73891765
v 0.71170862 -0.21771285 -0.73543778
v 0.71172927 -0.20145563 -0.73543778
v 0.72402830 -0.21771285 -0.73891765
v 0.70658661 -0.20145563 -0.72390168
v 0.68525177 -0.15264433 -0.29964130
v 0.70561591 -0.20145563 -0.70764632
v 0.70548164 -0.21771285 -0.70764632
v 0.71132652 -0.18782695 -0.25201925
v 0.68525177 -0.16891145 -0.27022908
v 0.70548164 -0.21771285 -0.25201925
v 0.70612189 -0.20145563 -0.25201925
v 0.74029278 -0.25093151 -0.25201925
v 0.74029278 -0.25332200 -0.70764632
v 0.74029278 -0.25222098 -0.72390168
v 0.75655725 -0.24660684 -0.73543778
v 0.74029278 -0.23398989 -0.73891765
v 0.71173960 -0.23398989 -0.73539007
v 0.70654530 -0.23398989 -0.72390168
v 0.70650398 -0.21771285 -0.72390168
v 0.72402830 -0.23398989 -0.73882232
v 0.68525177 -0.16267242 -0.29959361
v 0.70551262 -0.23398989 -0.70764632
v 0.68525177 -0.17893955 -0.29916460
v 0.68525177 -0.16891145 -0.29954594
v 0.70595669 -0.23398989 -0.25201925
v 0.68525177 -0.18518851 -0.27094413
v 0.72402830 -0.25084224 -0.25201925
v 0.72402830 -0.25124892 -0.31718375
v 0.72402830 -0.25245904 -0.56120495
v 0.72402830 -0.25299465 -0.67508789
v 0.72402830 -0.25314344 -0.70764632
v 0.72402830 -0.25210197 -0.72390168
v 0.72402830 -0.24656717 -0.73543778
v 0.74029278 -0.24660684 -0.73543778
v 0.71314404 -0.24505948 -0.73424601
v 0.71124394 -0.24705320 -0.72390168
v 0.71071726 -0.24754915 -0.70764632
v 0.68525177 -0.19799392 -0.28467301
v 0.68525177 -0.19735910 -0.28848658
v 0.68525177 -0.19568279 -0.29520801
v 0.68525177 -0.19190365 -0.29649510
v 0.68525177 -0.18518851 -0.29859255
v 0.71114066 -0.24637870 -0.25201925
v 0.68525177 -0.19563320 -0.27413799
v 0.71117165 -0.24643822 -0.25211460
v 0.71100640 -0.24667627 -0.31718375
v 0.71076890 -0.24728132 -0.57746036
v 0.71072758 -0.24747972 -0.67508789
v 0.71075857 -0.24731109 -0.59376338
v 0.71078955 -0.24720197 -0.54494960
f 1 2 13
f 1 13 24
f 1 24 28
f 1 28 27
f 1 27 53
f 1 53 78
f 1 78 77
f 1 77 76
f 1 76 75
f 1 75 81
f 1 81 80
f 1 80 55
f 1 55 31
f 1 31 29
f 1 29 15
f 1 15 3
f 1 3 4
f 1 4 5
f 1 5 6
f 1 6 7
f 1 7 8
f 1 8 9
f 1 9 10
f 1 10 11
f 1 11 12
f 1 12 2
f 2 12 14
f 2 14 13
f 3 15 4
f 4 16 30
f 4 30 54
f 4 54 79
f 4 79 95
f 4 95 98
f 4 98 97
f 4 97 112
f 4 112 130
f 4 130 114
f 4 114 99
f 4 99 82
f 4 82 57
f 4 57 33
f 4 33 32
f 4 32 17
f 4 17 5
f 4 15 16
f 5 17 6
f 6 17 18
f 6 18 19
f 6 19 7
f 7 19 20
f 7 20 9
f 7 9 8
f 9 20 21
f 9 21 11
f 9 11 10
f 11 21 22
f 11 22 23
f 11 23 12
f 12 23 14
f 13 14 24
f 14 23 25
f 14 25 50
f 14 50 26
f 14 26 27
f 14 27 28
f 14 28 24
f 15 29 16
f 16 29 31
f 16 31 30
f 17 32 18
f 18 32 33
f 18 33 34
f 18 34 35
f 18 35 36
f 18 36 37
f 18 37 38
f 18 38 39
f 18 39 40
f 18 40 41
f 18 41 42
f 18 42 43
f 18 43 44
f 18 44 19
f 19 44 45
f 19 45 46
f 19 46 20
f 20 46 47
f 20 47 21
f 21 47 48
f 21 48 22
f 22 48 69
f 22 69 49
f 22 49 23
f 23 49 25
f 25 49 71
f 25 71 50
f 26 50 51
f 26 51 52
f 26 52 27
f 27 52 53
f 30 31 55
f 30 55 54
f 33 56 34
f 33 57 58
f 33 58 59
f 33 59 60
f 33 60 61
f 33 61 62
f 33 62 63
f 33 63 64
f 33 64 65
f 33 65 56
f 34 56 35
f 35 56 65
f 35 65 36
f 36 65 37
f 37 65 39
f 37 39 38
f 39 65 40
f 40 65 41
f 41 65 42
f 42 65 43
f 43 65 44
f 44 65 45
f 45 65 66
f 45 66 67
f 45 67 46
f 46 67 68
f 46 68 47
f 47 68 48
f 48 68 70
f 48 70 87
f 48 87 69
f 49 69 86
f 49 86 71
f 50 71 72
f 50 72 51
f 51 72 73
f 51 73 52
f 52 73 74
f 52 74 75
f 52 75 76
f 52 76 77
f 52 77 78
f 52 78 53
f 54 55 80
f 54 80 81
f 54 81 79
f 57 82 83
f 57 83 58
f 58 83 59
f 59 83 60
f 60 83 61
f 61 83 62
f 62 83 63
f 63 83 64
f 64 83 65
f 65 83 66
f 66 84 85
f 66 85 67
f 66 83 84
f 67 85 70
f 67 70 68
f 69 87 103
f 69 103 86
f 70 85 87
f 71 86 72
f 72 88 89
f 72 89 73
f 72 86 90
f 72 90 88
f 73 89 91
f 73 91 74
f 74 91 75
f 75 92 108
f 75 108 111
f 75 111 110
f 75 110 129
f 75 129 128
f 75 128 127
f 75 127 126
f 75 126 125
f 75 125 131
f 75 131 113
f 75 113 96
f 75 96 81
f 75 91 93
f 75 93 94
f 75 94 92
f 79 81 95
f 81 96 97
f 81 97 98
f 81 98 95
f 82 99 100
f 82 100 83
f 83 100 101
f 83 101 84
f 84 101 121
f 84 121 102
f 84 102 85
f 85 102 87
f 86 103 107
f 86 107 90
f 87 102 121
f 87 121 103
f 88 104 105
f 88 105 106
f 88 106 89
f 88 90 104
f 89 106 91
f 90 107 104
f 91 106 94
f 91 94 93
f 92 94 108
f 94 106 109
f 94 109 110
f 94 110 111
f 94 111 108
f 96 112 97
f 96 113 112
f 99 114 115
f 99 115 100
f 100 116 117
f 100 117 118
f 100 118 119
f 100 119 101
f 100 115 116
f 101 119 120
f 101 120 121
f 103 121 120
f 103 120 107
f 104 107 122
f 104 122 105
f 105 122 123
f 105 123 109
f 105 109 106
f 107 120 122
f 109 123 124
f 109 124 125
f 109 125 126
f 109 126 127
f 109 127 128
f 109 128 129
f 109 129 110
f 112 113 131
f 112 131 130
f 114 130 132
f 114 132 115
f 115 132 116
f 116 132 117
f 117 132 133
f 117 133 118
f 118 134 124
f 118 124 123
f 118 123 119
f 118 133 134
f 119 123 122
f 119 122 120
f 124 134 135
f 124 135 125
f 125 133 132
f 125 132 130
f 125 130 131
f 125 135 136
f 125 136 134
f 125 134 137
f 125 137 133
f 133 137 134
f 134 136 135

