# https://github.com/mikedh/trimesh
v 0.67586257 0.22280827 -0.46461999
v 0.67586257 0.22250162 -0.46471682
v 0.67586257 0.23297324 -0.46616985
v 0.66822883 0.23158415 -0.45377079
v 0.61897296 0.22506612 -0.38925701
v 0.66792587 0.22158176 -0.45425519
v 0.66707770 0.21344235 -0.45541757
v 0.67586257 0.21573271 -0.46936650
v 0.67586257 0.23349358 -0.46684792
v 0.17906285 0.24605116 0.17906511
v 0.13023108 0.24598611 0.24416012
v 0.56977766 0.23024153 -0.32474318
v 0.56977766 0.22690584 -0.32474318
v 0.61788244 0.21421820 -0.39071001
v 0.55499482 0.22158176 -0.30653209
v 0.55396491 0.21273617 -0.30788823
v 0.60297843 0.21267578 -0.37269265
v 0.65181021 0.21269901 -0.43769081
v 0.66937996 0.21258287 -0.46355444
v 0.67586257 0.21148646 -0.47982818
v 0.67586257 0.23936120 -0.48040937
v 0.16409828 0.24711040 0.19708249
v 0.11526650 0.24726835 0.26208062
v 0.06625296 0.24733338 0.32688507
v 0.24413149 0.22975371 0.09769633
v 0.24413149 0.22969332 0.09769633
v 0.56868709 0.21606258 -0.32600247
v 0.50446665 0.21331690 -0.24376189
v 0.53869738 0.21213687 -0.29025833
v 0.54451360 0.21116590 -0.30178558
v 0.58771094 0.21210899 -0.35496589
v 0.64223772 0.21150969 -0.43178188
v 0.65792934 0.21226697 -0.44892745
v 0.59340594 0.21125418 -0.36668686
v 0.67543849 0.21145395 -0.47953763
v 0.67586257 0.21022281 -0.49610196
v 0.54499825 0.20895450 -0.31709065
v 0.67586257 0.24274800 -0.49678003
v 0.65889869 0.24090362 -0.46355444
v 0.05698341 0.25452507 0.31729517
v 0.09024476 0.25091993 0.28523196
v 0.14901253 0.24789088 0.21509985
v 0.05692282 0.25039961 0.33260024
v 0.10030192 0.24828112 0.28009798
v 0.05692282 0.25035779 0.33269712
v 0.05692282 0.23673169 0.33521565
v 0.06625296 0.24221372 0.32688507
v 0.17972929 0.22885244 0.17993692
v 0.43957978 0.21324257 -0.16229625
v 0.52870081 0.21073384 -0.28473687
v 0.57777493 0.21067344 -0.34954131
v 0.37432938 0.21338658 -0.08121809
v 0.59383003 0.20946556 -0.38218567
v 0.64260124 0.21006486 -0.44728071
v 0.67513553 0.21020422 -0.49610196
v 0.67586257 0.21019027 -0.51237570
v 0.57753258 0.20888017 -0.36591193
v 0.56123514 0.20847599 -0.34963817
v 0.35857719 0.21315430 -0.06416940
v 0.52870081 0.20855498 -0.30081689
v 0.67586257 0.24325903 -0.51305377
v 0.05698341 0.25547745 0.30102139
v 0.07328086 0.25487351 0.28474765
v 0.05692282 0.25452507 0.31729517
v 0.05692282 0.25399545 0.31932939
v 0.05692282 0.23574677 0.33453758
v 0.06401131 0.23137046 0.32446337
v 0.11484239 0.22899645 0.26149943
v 0.06873696 0.22725892 0.31361417
v 0.05692282 0.22402081 0.31826384
v 0.67586257 0.21029249 -0.52864948
v 0.54499825 0.20825764 -0.33336441
v 0.05698341 0.22127979 0.30102139
v 0.34258266 0.21317289 -0.04750817
v 0.51246392 0.20861072 -0.28454316
v 0.52870081 0.20812292 -0.31709065
v 0.67586257 0.24363533 -0.56177814
v 0.05692282 0.25135664 0.18710512
v 0.05692282 0.25547282 0.30102139
v 0.67586257 0.24400700 -0.60992138
v 0.67586257 0.24400700 -0.61059945
v 0.67586257 0.24373754 -0.62687318
v 0.05692282 0.22891283 0.32824121
v 0.05692282 0.22523801 0.32087925
v 0.05692282 0.22127979 0.30102139
v 0.47992964 0.20802070 -0.34963817
v 0.67586257 0.21053409 -0.56119695
v 0.52870081 0.20816471 -0.33336441
v 0.25224993 0.21426928 0.04064133
v 0.30992718 0.21337730 -0.01476693
v 0.32634580 0.21327508 -0.03104069
v 0.39862409 0.21113802 -0.13827309
v 0.44745587 0.20999052 -0.20327125
v 0.49616647 0.20886160 -0.26836625
v 0.51246392 0.20832732 -0.30081689
v 0.51246392 0.20811826 -0.31709065
v 0.47992964 0.20802999 -0.33336441
v 0.49616647 0.20804393 -0.33336441
v 0.51246392 0.20808575 -0.33336441
v 0.05698341 0.25062725 0.17083136
v 0.05692282 0.25062262 0.17083136
v 0.67586257 0.23840883 -0.64527802
v 0.67513553 0.24371897 -0.62619511
v 0.05692282 0.22173508 0.17083136
v 0.07328086 0.22059222 0.15455762
v 0.08951772 0.21966307 0.13828386
v 0.15458638 0.21597893 0.05701194
v 0.18712070 0.21424142 0.00819069
v 0.18712070 0.21441795 0.02446445
v 0.21965504 0.21448765 0.04073820
v 0.23595249 0.21435755 0.04073820
v 0.24025403 0.21432970 0.04073820
v 0.47992964 0.20816471 -0.36591193
v 0.49616647 0.20835520 -0.38218567
v 0.67586257 0.21091039 -0.60992138
v 0.46363214 0.20805321 -0.33336441
v 0.33361604 0.21255034 -0.05700120
v 0.28478427 0.21372109 0.00809382
v 0.20341816 0.21402308 0.00819069
v 0.43115842 0.20865254 -0.30081689
v 0.47992964 0.20822048 -0.31709065
v 0.49616647 0.20816008 -0.31709065
v 0.05692282 0.24841122 0.15533255
v 0.65889869 0.24278517 -0.60992138
v 0.67586257 0.23669452 -0.64895902
v 0.09709090 0.24639029 0.09692140
v 0.05692282 0.22481523 0.15455762
v 0.22843989 0.21349808 -0.06397566
v 0.21147599 0.21343306 -0.03259056
v 0.17088383 0.21524027 0.02446445
v 0.21147599 0.21343306 -0.03171876
v 0.20341816 0.21381401 -0.00808306
v 0.20341816 0.21428322 0.02446445
v 0.46363214 0.20822511 -0.34963817
v 0.67586257 0.21117519 -0.62619511
v 0.21965504 0.21340981 -0.03016887
v 0.41486098 0.20908458 -0.28454316
v 0.06286017 0.24733338 0.14332096
v 0.05692282 0.24838334 0.15523569
v 0.67586257 0.22176296 -0.65438360
v 0.66356378 0.23397210 -0.63888482
v 0.08218691 0.24447623 0.11474505
v 0.64859916 0.23294536 -0.62086741
v 0.63363463 0.23126824 -0.60294689
v 0.05692282 0.22508469 0.15339519
v 0.27636289 0.21329368 -0.13052369
v 0.24340447 0.21316358 -0.08247737
v 0.06164848 0.22677112 0.14186796
v 0.46345041 0.21043650 -0.36591193
v 0.49616647 0.20932152 -0.39845943
v 0.66604779 0.21291272 -0.63578501
v 0.67580196 0.21225766 -0.64169389
v 0.44745587 0.20884766 -0.33336441
v 0.67586257 0.21226231 -0.64179078
v 0.05692282 0.23784204 0.14554892
v 0.67586257 0.21730763 -0.64992764
v 0.65047734 0.21325651 -0.61844567
v 0.64890212 0.22158176 -0.62047989
v 0.63363463 0.22639945 -0.60294689
v 0.08067228 0.23363294 0.11300142
v 0.12986755 0.23101273 0.04848760
v 0.05692282 0.23254584 0.14661447
v 0.32513408 0.21321469 -0.19552183
v 0.44781939 0.21096149 -0.34876636
v 0.39892703 0.21123095 -0.28386508
v 0.08067228 0.22877811 0.11300142
v 0.55190500 0.21260145 -0.48961183
v 0.53663751 0.21326117 -0.47198195
v 0.12986755 0.22909401 0.04848760
v 0.37402644 0.21330296 -0.26042312
v 0.38923337 0.21255499 -0.27805303
v 0.45351440 0.21195569 -0.36058419
v 0.50264913 0.21228088 -0.42509799
v 0.48744221 0.21291738 -0.40737122
v 0.43824691 0.21261076 -0.34276057
f 1 2 8
f 1 8 20
f 1 20 36
f 1 36 56
f 1 56 71
f 1 71 87
f 1 87 115
f 1 115 135
f 1 135 154
f 1 154 156
f 1 156 140
f 1 140 125
f 1 125 102
f 1 102 82
f 1 82 81
f 1 81 80
f 1 80 77
f 1 77 61
f 1 61 38
f 1 38 21
f 1 21 9
f 1 9 3
f 1 3 4
f 1 4 5
f 1 5 6
f 1 6 7
f 1 7 2
f 2 7 8
f 3 9 4
f 4 9 10
f 4 10 11
f 4 11 12
f 4 12 13
f 4 13 5
f 5 14 6
f 5 13 15
f 5 15 14
f 6 14 7
f 7 14 16
f 7 16 17
f 7 17 18
f 7 18 19
f 7 19 20
f 7 20 8
f 9 21 22
f 9 22 10
f 10 22 23
f 10 23 11
f 11 23 24
f 11 24 25
f 11 25 12
f 12 25 26
f 12 26 13
f 13 26 15
f 14 15 27
f 14 27 16
f 15 16 27
f 15 26 16
f 16 26 28
f 16 28 29
f 16 29 30
f 16 30 17
f 17 31 18
f 17 30 31
f 18 32 33
f 18 33 19
f 18 31 30
f 18 30 34
f 18 34 32
f 19 33 20
f 20 35 36
f 20 33 32
f 20 32 37
f 20 37 35
f 21 38 39
f 21 39 40
f 21 40 41
f 21 41 42
f 21 42 22
f 22 42 43
f 22 43 44
f 22 44 23
f 23 44 24
f 24 45 46
f 24 46 47
f 24 47 26
f 24 26 25
f 24 44 45
f 26 47 48
f 26 48 28
f 28 49 29
f 28 48 49
f 29 49 30
f 30 50 37
f 30 37 51
f 30 51 34
f 30 49 52
f 30 52 50
f 32 34 37
f 34 51 37
f 35 53 54
f 35 54 36
f 35 37 53
f 36 55 56
f 36 54 57
f 36 57 58
f 36 58 55
f 37 50 52
f 37 52 59
f 37 59 60
f 37 60 58
f 37 58 57
f 37 57 53
f 38 61 62
f 38 62 63
f 38 63 40
f 38 40 39
f 40 63 62
f 40 62 64
f 40 64 65
f 40 65 43
f 40 43 41
f 41 43 42
f 43 65 64
f 43 64 79
f 43 79 78
f 43 78 101
f 43 101 123
f 43 123 139
f 43 139 155
f 43 155 162
f 43 162 145
f 43 145 127
f 43 127 104
f 43 104 85
f 43 85 70
f 43 70 84
f 43 84 83
f 43 83 66
f 43 66 46
f 43 46 45
f 43 45 44
f 46 66 67
f 46 67 47
f 47 67 68
f 47 68 48
f 48 68 49
f 49 68 52
f 52 68 69
f 52 69 70
f 52 70 59
f 53 57 54
f 55 58 56
f 56 58 72
f 56 72 71
f 58 60 72
f 59 70 73
f 59 73 74
f 59 74 60
f 60 75 76
f 60 76 72
f 60 74 75
f 61 77 62
f 62 78 79
f 62 79 64
f 62 77 80
f 62 80 81
f 62 81 82
f 62 82 78
f 66 83 67
f 67 83 69
f 67 69 68
f 69 83 84
f 69 84 70
f 70 85 73
f 71 86 87
f 71 72 88
f 71 88 86
f 72 76 88
f 73 85 89
f 73 89 90
f 73 90 91
f 73 91 74
f 74 91 75
f 75 92 93
f 75 93 94
f 75 94 95
f 75 95 76
f 75 91 90
f 75 90 92
f 76 96 97
f 76 97 98
f 76 98 99
f 76 99 88
f 76 95 96
f 78 100 101
f 78 82 100
f 82 102 103
f 82 103 101
f 82 101 100
f 85 104 105
f 85 105 106
f 85 106 107
f 85 107 108
f 85 108 109
f 85 109 110
f 85 110 111
f 85 111 112
f 85 112 89
f 86 113 114
f 86 114 115
f 86 115 87
f 86 88 99
f 86 99 98
f 86 98 97
f 86 97 116
f 86 116 113
f 89 117 118
f 89 118 90
f 89 112 119
f 89 119 120
f 89 120 116
f 89 116 121
f 89 121 95
f 89 95 93
f 89 93 117
f 90 118 117
f 90 117 92
f 92 117 93
f 93 95 94
f 95 121 116
f 95 116 122
f 95 122 96
f 96 122 116
f 96 116 97
f 101 103 123
f 102 124 103
f 102 125 126
f 102 126 124
f 103 124 126
f 103 126 123
f 104 127 128
f 104 128 129
f 104 129 130
f 104 130 105
f 105 130 108
f 105 108 107
f 105 107 106
f 108 130 129
f 108 129 131
f 108 131 109
f 109 131 132
f 109 132 119
f 109 119 133
f 109 133 110
f 110 133 111
f 111 133 112
f 112 133 119
f 113 116 134
f 113 134 135
f 113 135 115
f 113 115 114
f 116 120 134
f 119 132 131
f 119 131 136
f 119 136 120
f 120 137 134
f 120 136 131
f 120 131 129
f 120 129 137
f 123 126 138
f 123 138 139
f 125 140 141
f 125 141 126
f 126 142 138
f 126 141 143
f 126 143 144
f 126 144 142
f 127 145 128
f 128 146 147
f 128 147 129
f 128 145 148
f 128 148 146
f 129 147 134
f 129 134 137
f 134 149 150
f 134 150 151
f 134 151 152
f 134 152 135
f 134 147 153
f 134 153 149
f 135 152 154
f 138 155 139
f 138 142 155
f 140 144 141
f 140 156 151
f 140 151 157
f 140 157 158
f 140 158 159
f 140 159 144
f 141 144 143
f 142 160 155
f 142 144 160
f 144 161 160
f 144 159 169
f 144 169 161
f 145 162 148
f 146 163 164
f 146 164 165
f 146 165 153
f 146 153 147
f 146 148 166
f 146 166 163
f 148 162 166
f 149 153 164
f 149 164 157
f 149 157 151
f 149 151 150
f 151 156 154
f 151 154 152
f 153 165 164
f 155 160 166
f 155 166 162
f 157 164 167
f 157 167 168
f 157 168 158
f 158 168 159
f 159 168 169
f 160 161 169
f 160 169 166
f 163 170 171
f 163 171 164
f 163 166 170
f 164 172 173
f 164 173 167
f 164 171 172
f 166 169 170
f 167 173 168
f 168 173 174
f 168 174 170
f 168 170 169
f 170 174 175
f 170 175 171
f 171 175 172
f 172 174 173
f 172 175 174

