# https://github.com/mikedh/trimesh
v 0.78315084 0.01325318 0.05361685
v 0.78734554 -0.08754885 0.05636271
v 0.78315084 0.01325318 0.04405431
v 0.77274187 0.01325318 0.06087120
v 0.78734554 -0.08754885 0.04090677
v 0.77274187 -0.08754885 0.06390483
v 0.77336330 -0.15198969 0.06395878
v 0.78734554 -0.13636474 0.05650660
v 0.77615977 0.01325318 0.02450356
v 0.75969179 0.01325318 0.06293958
v 0.78734554 -0.10382080 0.04097271
v 0.76963473 -0.15198969 0.01054045
v 0.76963473 0.01005055 0.01016275
v 0.76963473 0.01325318 0.01015675
v 0.77491689 0.01325318 0.02168576
v 0.75642929 0.01325318 0.06344319
v 0.75642929 0.01005055 0.06346117
v 0.77274187 -0.15198969 0.06426455
v 0.78734554 -0.15198969 0.05654857
v 0.78734554 -0.12009277 0.04105665
v 0.76916865 -0.15198969 0.01028865
v 0.78734554 -0.15198969 0.04123051
v 0.75642929 0.01325318 0.00351393
v 0.74337921 0.01325318 0.06346717
v 0.75642929 -0.12009277 0.06416263
v 0.75720609 -0.15198969 0.06433050
v 0.75642929 -0.15198969 0.00432930
v 0.75580785 -0.15198969 0.00431131
v 0.75332210 0.01325318 0.00343000
v 0.72706659 0.01325318 0.06347916
v 0.72395945 -0.15198969 0.06433649
v 0.70764687 0.01325318 0.06349115
v 0.74027202 -0.15198969 0.00395159
v 0.74027202 0.01325318 0.00308827
v 0.21951190 0.01005055 0.06350314
v 0.21951190 -0.00622141 0.06357508
v -0.77275990 -0.02249337 0.06338923
v -0.77275990 -0.15198969 0.06391682
v 0.21951190 0.01325318 0.06348515
v -0.75644733 -0.15198969 0.00395159
v -0.75644733 0.01325318 0.00308827
v -0.77275990 0.01005055 0.06322736
v -0.77275990 -0.00622141 0.06331129
v -0.78845109 -0.15198969 0.06193836
v -0.77275990 0.01325318 0.06320937
v -0.77275990 -0.15198969 0.00609192
v -0.75970982 0.01325318 0.00352593
v -0.78907253 -0.15198969 0.06185443
v -0.78907253 0.01325318 0.05765170
v -0.78907253 -0.08754885 0.06147073
v -0.78907253 -0.10382080 0.06157864
v -0.77322598 -0.15198969 0.00633773
v -0.77275990 0.01325318 0.00530054
v -0.79963686 -0.08754885 0.05407250
v -0.79979222 -0.15198969 0.05428833
v -0.79777255 0.01325318 0.05042734
v -0.78347959 -0.15198969 0.01229708
v -0.77493493 0.01325318 0.00661351
v -0.79963686 -0.08754885 0.04398237
v -0.79979222 -0.15198969 0.04418021
v -0.79777255 0.01325318 0.04719586
v -0.78379031 -0.15198969 0.01278870
v -0.78347959 0.01005055 0.01194935
v -0.78347959 0.01325318 0.01194336
v -0.78891717 0.01325318 0.02450356
v -0.78456711 0.01325318 0.01441343
v -0.78984927 -0.08754885 0.02450356
f 1 2 5
f 1 5 3
f 1 3 9
f 1 9 15
f 1 15 14
f 1 14 23
f 1 23 29
f 1 29 34
f 1 34 41
f 1 41 47
f 1 47 53
f 1 53 58
f 1 58 64
f 1 64 66
f 1 66 65
f 1 65 61
f 1 61 56
f 1 56 49
f 1 49 45
f 1 45 39
f 1 39 32
f 1 32 30
f 1 30 24
f 1 24 16
f 1 16 10
f 1 10 4
f 1 4 2
f 2 4 6
f 2 6 7
f 2 7 8
f 2 8 19
f 2 19 22
f 2 22 20
f 2 20 11
f 2 11 5
f 3 5 9
f 4 10 6
f 5 11 12
f 5 12 13
f 5 13 14
f 5 14 15
f 5 15 9
f 6 10 16
f 6 16 17
f 6 17 18
f 6 18 7
f 7 19 8
f 7 18 26
f 7 26 31
f 7 31 38
f 7 38 44
f 7 44 48
f 7 48 55
f 7 55 60
f 7 60 62
f 7 62 57
f 7 57 52
f 7 52 46
f 7 46 40
f 7 40 33
f 7 33 28
f 7 28 27
f 7 27 21
f 7 21 12
f 7 12 22
f 7 22 19
f 11 20 12
f 12 21 13
f 12 20 22
f 13 21 23
f 13 23 14
f 16 24 17
f 17 24 25
f 17 25 18
f 18 25 26
f 21 27 23
f 23 27 28
f 23 28 29
f 24 30 25
f 25 30 26
f 26 30 32
f 26 32 31
f 28 33 34
f 28 34 29
f 31 32 35
f 31 35 36
f 31 36 37
f 31 37 38
f 32 39 35
f 33 40 41
f 33 41 34
f 35 39 45
f 35 45 42
f 35 42 43
f 35 43 37
f 35 37 36
f 37 43 44
f 37 44 38
f 40 46 41
f 41 46 47
f 42 45 48
f 42 48 43
f 43 48 44
f 45 49 50
f 45 50 51
f 45 51 48
f 46 52 53
f 46 53 47
f 48 51 54
f 48 54 55
f 49 56 54
f 49 54 50
f 50 54 51
f 52 57 53
f 53 57 58
f 54 56 61
f 54 61 59
f 54 59 60
f 54 60 55
f 57 62 63
f 57 63 58
f 58 63 64
f 59 61 65
f 59 65 66
f 59 66 64
f 59 64 60
f 60 64 67
f 60 67 62
f 62 64 63
f 62 67 64

