# https://github.com/mikedh/trimesh
v -0.69814547 0.18482823 0.69193956
v -0.69814547 0.18326083 0.68747250
v -0.69814547 0.18398009 0.70374051
v -0.19293116 0.18225886 0.70210866
v -0.19293116 0.18225886 0.69492291
v -0.69814547 0.17985996 0.68453328
v -0.31731826 0.17761487 0.68602335
v -0.33354050 0.17774376 0.68596352
v -0.69814547 0.17314966 0.70837772
v -0.19293116 0.17276301 0.70803748
v -0.19293116 0.17560262 0.68678890
v -0.20341629 0.17578972 0.68672901
v -0.23595969 0.17635098 0.68654000
v -0.25223141 0.17662122 0.68643919
v -0.28477481 0.17714923 0.68623127
v -0.30104653 0.17740284 0.68612101
v -0.69814547 0.17245536 0.68026468
v -0.19293116 0.16746630 0.68293925
v -0.20341629 0.16765338 0.68290458
v -0.21968799 0.16793610 0.68284789
v -0.23595969 0.16821466 0.68279116
v -0.25223141 0.16848906 0.68273448
v -0.26850311 0.16875514 0.68267779
v -0.30104653 0.16927068 0.68256438
v -0.69814547 0.15649453 0.70979850
v -0.19293116 0.15649453 0.71161937
v -0.19293116 0.17035579 0.68429699
v -0.69814547 0.16431071 0.67951174
v -0.19293116 0.15649453 0.68247302
v -0.21968799 0.15649453 0.68228712
v -0.30104653 0.15649453 0.68172324
v -0.69814547 0.14235469 0.70986149
v -0.19293116 0.14235469 0.71169496
v -0.19293116 0.15072384 0.71165084
v -0.69814547 0.14688642 0.67983623
v -0.31731826 0.15649453 0.68162873
v -0.31731826 0.14235469 0.68170117
v -0.19293116 0.14235469 0.68254862
v -0.20554298 0.14235469 0.68246042
v -0.25435810 0.14235469 0.68212017
v -0.28477481 0.14235469 0.68190910
v -0.30104653 0.14235469 0.68179883
v -0.69814547 0.14235469 0.68001264
f 1 2 6
f 1 6 17
f 1 17 28
f 1 28 35
f 1 35 43
f 1 43 32
f 1 32 25
f 1 25 9
f 1 9 3
f 1 3 4
f 1 4 5
f 1 5 2
f 2 5 7
f 2 7 8
f 2 8 6
f 3 9 10
f 3 10 4
f 4 10 26
f 4 26 34
f 4 34 33
f 4 33 38
f 4 38 29
f 4 29 18
f 4 18 27
f 4 27 11
f 4 11 5
f 5 11 12
f 5 12 13
f 5 13 14
f 5 14 15
f 5 15 16
f 5 16 7
f 6 8 17
f 7 16 18
f 7 18 19
f 7 19 20
f 7 20 21
f 7 21 22
f 7 22 23
f 7 23 24
f 7 24 17
f 7 17 8
f 9 25 26
f 9 26 10
f 11 27 12
f 12 27 16
f 12 16 14
f 12 14 13
f 14 16 15
f 16 27 18
f 17 24 23
f 17 23 22
f 17 22 21
f 17 21 20
f 17 20 18
f 17 18 28
f 18 20 19
f 18 29 30
f 18 30 31
f 18 31 28
f 25 32 33
f 25 33 34
f 25 34 26
f 28 31 36
f 28 36 37
f 28 37 35
f 29 38 39
f 29 39 40
f 29 40 30
f 30 40 41
f 30 41 31
f 31 41 42
f 31 42 37
f 31 37 36
f 32 43 37
f 32 37 42
f 32 42 41
f 32 41 40
f 32 40 39
f 32 39 38
f 32 38 33
f 35 37 43

