# https://github.com/mikedh/trimesh
v -0.05456555 0.18244008 0.70614063
v -0.05456555 0.18397733 0.70523868
v -0.07199868 0.18244008 0.70240095
v -0.05456555 0.18244008 0.68404441
v -0.05456555 0.18523348 0.70450116
v -0.05456555 0.18626040 0.70070092
v -0.07247737 0.18244008 0.70181481
v -0.07247737 0.18244008 0.69532827
v -0.05456555 0.18433631 0.68549574
v -0.05456555 0.18734884 0.69155402
v -0.05456555 0.18612489 0.68740340
f 1 2 3
f 1 3 7
f 1 7 8
f 1 8 4
f 1 4 9
f 1 9 11
f 1 11 10
f 1 10 6
f 1 6 5
f 1 5 2
f 2 5 3
f 3 5 6
f 3 6 7
f 4 8 9
f 6 10 7
f 7 10 8
f 8 10 11
f 8 11 9

