# https://github.com/mikedh/trimesh
v -0.69149451 -0.16892765 0.71227708
v -0.69149451 -0.18485830 0.70601063
v -0.69149451 -0.15199902 0.71219004
v -0.72492152 -0.20145117 0.73676245
v -0.72490033 -0.21771758 0.73682049
v -0.72644719 -0.23398400 0.73568905
v -0.69149451 -0.18525004 0.69156309
v -0.72039748 -0.23398400 0.72411362
v -0.72002664 -0.23398400 0.70783838
v -0.69149451 -0.15198969 0.71181289
v -0.70711141 -0.15198969 0.71250915
v -0.72338524 -0.15198969 0.71288629
v -0.74030539 -0.15198969 0.71326344
v -0.74030539 -0.17634268 0.73316509
v -0.73099241 -0.17658518 0.73287498
v -0.72766562 -0.18518475 0.73496379
v -0.74030539 -0.20145117 0.74131723
v -0.74030539 -0.21771758 0.74137522
v -0.74030539 -0.23398400 0.73917037
v -0.72939261 -0.24327377 0.73380335
v -0.69149451 -0.17745260 0.68329492
v -0.71981474 -0.23398400 0.65904161
v -0.71961346 -0.23398400 0.61021589
v -0.71948632 -0.23398400 0.57769441
v -0.71930619 -0.23398400 0.52889764
v -0.71918967 -0.23398400 0.49634717
v -0.71902015 -0.23398400 0.44755045
v -0.71902015 -0.23398400 0.44502649
v -0.71684818 -0.21771758 0.44502649
v -0.72786690 -0.24391734 0.72411362
v -0.72769738 -0.24401061 0.70783838
v -0.72754905 -0.24409457 0.67528785
v -0.72741134 -0.24417850 0.64276637
v -0.72734777 -0.24422515 0.62649113
v -0.72709350 -0.24439302 0.56144817
v -0.72696636 -0.24447698 0.52889764
v -0.72684979 -0.24456091 0.49634717
v -0.72679684 -0.24460753 0.48007193
v -0.72668027 -0.24470083 0.44502649
v -0.69149451 -0.15198969 0.68306285
v -0.75655803 -0.15198969 0.71358255
v -0.77283186 -0.17633335 0.73316509
v -0.74030539 -0.18518475 0.73769082
v -0.77218555 -0.15198969 0.71387266
v -0.77283186 -0.20145117 0.74131723
v -0.77283186 -0.21771758 0.74137522
v -0.77283186 -0.23398400 0.73917037
v -0.74030539 -0.24384271 0.73455760
v -0.74030539 -0.24570814 0.72411362
v -0.69149451 -0.16891833 0.68314988
v -0.71684818 -0.20145117 0.44502649
v -0.69149451 -0.15264258 0.68306285
v -0.74030539 -0.24589468 0.70783838
v -0.74030539 -0.24640767 0.61021589
v -0.74030539 -0.24727509 0.44502649
v -0.72877811 -0.24510188 0.44502649
v -0.72691336 -0.24452360 0.51262241
v -0.73883267 -0.15198969 0.65173080
v -0.71802423 -0.19896084 0.44502649
v -0.72576911 -0.18384165 0.44502649
v -0.73212609 -0.17704221 0.45332366
v -0.74030539 -0.17707019 0.44502649
v -0.78191170 -0.17657586 0.73287498
v -0.77283186 -0.18518475 0.73769082
v -0.77283186 -0.15198969 0.71387266
v -0.78476174 -0.18518475 0.73496379
v -0.78715619 -0.20145117 0.73676245
v -0.78717738 -0.21771758 0.73682049
v -0.78575766 -0.23398400 0.73568905
v -0.78321489 -0.24327377 0.73380335
v -0.77283186 -0.24384271 0.73455760
v -0.77283186 -0.24570814 0.72411362
v -0.77283186 -0.24589468 0.70783838
v -0.77283186 -0.24640767 0.61021589
v -0.77283186 -0.24727509 0.44502649
v -0.74695902 -0.15198969 0.65077343
v -0.73632166 -0.17888897 0.44502649
v -0.77375359 -0.17707019 0.44502649
v -0.75655803 -0.15198969 0.65068640
v -0.78910569 -0.15198969 0.71158077
v -0.79929802 -0.15198969 0.70470516
v -0.79972181 -0.15198969 0.70441504
v -0.79394758 -0.20145117 0.72411362
v -0.79394758 -0.21771758 0.72411362
v -0.79094920 -0.23398400 0.72411362
v -0.78445452 -0.24391734 0.72411362
v -0.78460285 -0.24401061 0.70783838
v -0.78501602 -0.24430908 0.59394066
v -0.78528092 -0.24452360 0.51262241
v -0.78548220 -0.24470083 0.44502649
v -0.78489950 -0.24422515 0.62649113
v -0.78417905 -0.18251721 0.44502649
v -0.78100054 -0.17704221 0.45332366
v -0.78364931 -0.15198969 0.66081132
v -0.77410325 -0.15198969 0.65300733
v -0.77371121 -0.15198969 0.65268817
v -0.76589214 -0.15198969 0.65086047
v -0.76557430 -0.15198969 0.65080248
v -0.75691825 -0.15198969 0.65068640
v -0.79972181 -0.15198969 0.69429017
v -0.79972181 -0.16891833 0.70453108
v -0.79889541 -0.18120209 0.70296449
v -0.79451970 -0.21771758 0.70783838
v -0.79138362 -0.23398400 0.70783838
v -0.78472998 -0.24409457 0.67528785
v -0.78484650 -0.24417850 0.64276637
v -0.79189217 -0.23398400 0.56144817
v -0.79215702 -0.23398400 0.48007193
v -0.79121405 -0.23564422 0.44502649
v -0.79156371 -0.23398400 0.65904161
v -0.79168027 -0.23398400 0.62649113
v -0.78659468 -0.18385098 0.44502649
v -0.79972181 -0.16891833 0.69423213
v -0.79448789 -0.20145117 0.44502649
v -0.79451970 -0.20395083 0.44502649
v -0.79889541 -0.18120209 0.69600179
v -0.79451970 -0.21771758 0.44502649
v -0.79418067 -0.22021725 0.44502649
v -0.79225240 -0.23398400 0.44755045
v -0.79225240 -0.23398400 0.44502649
f 1 2 7
f 1 7 21
f 1 21 50
f 1 50 52
f 1 52 40
f 1 40 10
f 1 10 3
f 1 3 4
f 1 4 5
f 1 5 6
f 1 6 2
f 2 6 8
f 2 8 9
f 2 9 7
f 3 10 11
f 3 11 12
f 3 12 13
f 3 13 14
f 3 14 15
f 3 15 16
f 3 16 4
f 4 16 17
f 4 17 5
f 5 17 18
f 5 18 6
f 6 18 19
f 6 19 20
f 6 20 8
f 7 9 22
f 7 22 23
f 7 23 24
f 7 24 25
f 7 25 26
f 7 26 27
f 7 27 28
f 7 28 29
f 7 29 21
f 8 20 30
f 8 30 9
f 9 30 31
f 9 31 32
f 9 32 33
f 9 33 34
f 9 34 35
f 9 35 36
f 9 36 37
f 9 37 38
f 9 38 39
f 9 39 22
f 10 40 58
f 10 58 76
f 10 76 79
f 10 79 99
f 10 99 98
f 10 98 97
f 10 97 96
f 10 96 95
f 10 95 94
f 10 94 100
f 10 100 82
f 10 82 81
f 10 81 80
f 10 80 65
f 10 65 44
f 10 44 41
f 10 41 13
f 10 13 12
f 10 12 11
f 13 41 14
f 14 42 43
f 14 43 15
f 14 41 44
f 14 44 42
f 15 43 16
f 16 43 17
f 17 45 46
f 17 46 18
f 17 43 64
f 17 64 45
f 18 46 47
f 18 47 19
f 19 47 71
f 19 71 48
f 19 48 20
f 20 48 49
f 20 49 30
f 21 29 50
f 22 39 23
f 23 39 24
f 24 39 25
f 25 39 26
f 26 39 27
f 27 39 28
f 28 39 56
f 28 56 55
f 28 55 75
f 28 75 90
f 28 90 109
f 28 109 120
f 28 120 118
f 28 118 117
f 28 117 115
f 28 115 114
f 28 114 112
f 28 112 92
f 28 92 78
f 28 78 62
f 28 62 77
f 28 77 60
f 28 60 59
f 28 59 51
f 28 51 29
f 29 51 40
f 29 40 52
f 29 52 50
f 30 49 53
f 30 53 31
f 31 34 32
f 31 53 54
f 31 54 55
f 31 55 34
f 32 34 33
f 34 55 56
f 34 56 57
f 34 57 35
f 35 57 36
f 36 57 38
f 36 38 37
f 38 57 39
f 39 57 56
f 40 51 59
f 40 59 60
f 40 60 61
f 40 61 62
f 40 62 58
f 42 63 64
f 42 64 43
f 42 44 65
f 42 65 63
f 45 64 66
f 45 66 67
f 45 67 68
f 45 68 46
f 46 68 69
f 46 69 47
f 47 69 70
f 47 70 71
f 48 71 72
f 48 72 49
f 49 72 73
f 49 73 53
f 53 73 74
f 53 74 54
f 54 74 75
f 54 75 55
f 58 62 76
f 60 77 61
f 61 77 62
f 62 78 99
f 62 99 79
f 62 79 76
f 63 66 64
f 63 65 80
f 63 80 81
f 63 81 82
f 63 82 66
f 66 82 67
f 67 83 68
f 67 82 83
f 68 83 84
f 68 84 69
f 69 84 85
f 69 85 70
f 70 85 86
f 70 86 72
f 70 72 71
f 72 86 73
f 73 86 87
f 73 87 74
f 74 87 75
f 75 88 89
f 75 89 90
f 75 87 91
f 75 91 88
f 78 92 93
f 78 93 94
f 78 94 95
f 78 95 96
f 78 96 97
f 78 97 98
f 78 98 99
f 82 100 113
f 82 113 101
f 82 101 83
f 83 101 84
f 84 101 102
f 84 102 103
f 84 103 85
f 85 103 104
f 85 104 86
f 86 104 87
f 87 104 105
f 87 105 91
f 88 91 106
f 88 106 104
f 88 104 89
f 89 104 90
f 90 107 108
f 90 108 109
f 90 104 110
f 90 110 111
f 90 111 107
f 91 105 106
f 92 112 93
f 93 112 100
f 93 100 94
f 100 112 114
f 100 114 115
f 100 115 113
f 101 113 116
f 101 116 102
f 102 116 117
f 102 117 103
f 103 111 110
f 103 110 104
f 103 117 118
f 103 118 119
f 103 119 108
f 103 108 107
f 103 107 111
f 104 106 105
f 108 119 109
f 109 119 120
f 113 115 117
f 113 117 116
f 118 120 119

