# https://github.com/mikedh/trimesh
v 0.67525782 0.15969031 0.25907083
v 0.59378964 0.15995094 0.25952020
v 0.57756866 0.16007743 0.25960445
v 0.54500557 0.16044154 0.25977298
v 0.52872403 0.16069833 0.25985723
v 0.43115590 0.16407500 0.26037681
v 0.67525782 0.16807258 0.25907083
v 0.67525782 0.15155334 0.26506712
v 0.65885525 0.15157250 0.26456157
v 0.64263422 0.15160700 0.26414030
v 0.62635272 0.15165299 0.26374710
v 0.61007118 0.15172198 0.26342411
v 0.59378964 0.15181781 0.26314324
v 0.57756866 0.15194045 0.26290453
v 0.56128712 0.15210143 0.26270793
v 0.54500557 0.15230457 0.26253940
v 0.52872403 0.15256136 0.26239898
v 0.51250305 0.15287948 0.26228663
v 0.49622151 0.15327042 0.26220238
v 0.05692282 0.15649762 0.26315730
v 0.47987945 0.16188650 0.26012404
v 0.46365842 0.16246524 0.26020829
v 0.44743745 0.16318197 0.26029256
v 0.42280331 0.16459243 0.26043299
v 0.42280331 0.16463076 0.26043299
v 0.67519730 0.16809558 0.25908487
v 0.67525782 0.17574197 0.26853569
v 0.67525782 0.14770907 0.27322600
v 0.67519730 0.14770907 0.27321196
v 0.65885525 0.14757492 0.27269238
v 0.64263422 0.14743695 0.27225704
v 0.61007118 0.14716098 0.27155489
v 0.59378964 0.14702684 0.27127404
v 0.56128712 0.14675087 0.27083871
v 0.54500557 0.14661290 0.27067021
v 0.52872403 0.14647875 0.27052978
v 0.51250305 0.14634078 0.27041744
v 0.49622151 0.14620279 0.27034722
v 0.46365842 0.14593067 0.27020680
v 0.43115590 0.14565470 0.27015062
v 0.38237184 0.14524461 0.27015062
v 0.34986932 0.14497630 0.27016466
v 0.31736677 0.14470034 0.27020680
v 0.26852219 0.14429024 0.27027701
v 0.25224067 0.14418675 0.27029105
v 0.24025648 0.14419058 0.27029105
v 0.23595913 0.14419058 0.27030509
v 0.20339607 0.14434006 0.27031915
v 0.12204894 0.14471567 0.27037530
v 0.05692282 0.14501846 0.27043147
v 0.05692282 0.16963253 0.26943444
v 0.67519730 0.17575729 0.26857783
v 0.67525782 0.17998484 0.28478324
v 0.67525782 0.14235852 0.36444823
v 0.39326655 0.14235852 0.28483942
v 0.38237184 0.14235852 0.28396877
v 0.36609032 0.14235852 0.28273300
v 0.34986932 0.14235852 0.28162362
v 0.33358777 0.14235852 0.28061252
v 0.31736677 0.14235852 0.27967166
v 0.30108525 0.14235852 0.27881505
v 0.28474319 0.14235852 0.27800056
v 0.26852219 0.14235852 0.27725630
v 0.25224067 0.14235852 0.27673671
v 0.24025648 0.14235852 0.27673671
v 0.23595913 0.14235469 0.27675075
v 0.08518853 0.14235469 0.28099168
v 0.06951226 0.14235469 0.28153937
v 0.05698334 0.14235469 0.28204489
v 0.05692282 0.14236235 0.28203085
v 0.22706178 0.14235469 0.27690524
v 0.21120394 0.14235469 0.27729843
v 0.19540662 0.14235469 0.27769163
v 0.17960929 0.14235469 0.27811291
v 0.16381197 0.14235469 0.27854824
v 0.13227785 0.14235469 0.27947506
v 0.10086479 0.14235469 0.28045806
v 0.05692282 0.17466879 0.28483942
v 0.67519730 0.17998867 0.28483942
v 0.67519730 0.18144513 0.38736612
v 0.67525782 0.18144130 0.38733805
v 0.67525782 0.14235852 0.36516442
v 0.24025648 0.14235469 0.27675075
v 0.05692282 0.14235469 0.33973285
v 0.05692282 0.18151029 0.38764699
v 0.67525782 0.18144896 0.39139642
v 0.67525782 0.14239302 0.40074896
v 0.67519730 0.14235852 0.40074896
v 0.24025648 0.14235469 0.40249025
v 0.05692282 0.14235469 0.40121237
v 0.05692282 0.18150646 0.39150877
v 0.67519730 0.18144513 0.39143856
v 0.67525782 0.17276007 0.39628333
v 0.67525782 0.15649762 0.40051022
v 0.65885525 0.15649762 0.40077703
v 0.65885525 0.14235852 0.40084725
v 0.26852219 0.14235852 0.40247621
v 0.25224067 0.14235852 0.40253239
v 0.23595913 0.14235469 0.40247621
v 0.44955584 0.14235852 0.40173195
v 0.33570619 0.14235852 0.40220940
v 0.07326488 0.14235469 0.40133873
v 0.05692282 0.15647845 0.40115619
v 0.05692282 0.17273707 0.39677484
v 0.05698334 0.17276007 0.39677484
v 0.15461201 0.17276007 0.39718207
v 0.23595913 0.17276007 0.39750506
v 0.24025648 0.17276007 0.39751910
v 0.25224067 0.17276007 0.39753313
v 0.23595913 0.18144513 0.39163515
v 0.26852219 0.18144513 0.39163515
v 0.47987945 0.18144513 0.39155091
v 0.59378964 0.18143747 0.39149473
v 0.26852219 0.17276007 0.39751910
v 0.44743745 0.17276007 0.39706972
v 0.62635272 0.17276007 0.39660631
v 0.65885525 0.17276007 0.39652206
v 0.52872403 0.15649762 0.40132472
v 0.28474319 0.15649762 0.40234983
v 0.26852219 0.15649762 0.40240600
v 0.25224067 0.15649762 0.40243410
v 0.24025648 0.15649762 0.40242004
v 0.12204894 0.14235469 0.40168982
v 0.23595913 0.15649762 0.40239196
v 0.21967759 0.15649762 0.40227962
v 0.05698334 0.15649762 0.40115619
f 1 2 3
f 1 3 4
f 1 4 5
f 1 5 6
f 1 6 7
f 1 7 27
f 1 27 53
f 1 53 81
f 1 81 86
f 1 86 93
f 1 93 94
f 1 94 87
f 1 87 82
f 1 82 54
f 1 54 28
f 1 28 8
f 1 8 9
f 1 9 10
f 1 10 11
f 1 11 12
f 1 12 13
f 1 13 14
f 1 14 15
f 1 15 16
f 1 16 17
f 1 17 18
f 1 18 19
f 1 19 20
f 1 20 2
f 2 20 3
f 3 20 4
f 4 20 5
f 5 21 22
f 5 22 23
f 5 23 6
f 5 20 21
f 6 24 25
f 6 25 7
f 6 23 20
f 6 20 24
f 7 26 27
f 7 25 26
f 8 28 29
f 8 29 30
f 8 30 31
f 8 31 32
f 8 32 33
f 8 33 34
f 8 34 9
f 9 34 35
f 9 35 36
f 9 36 10
f 10 36 37
f 10 37 11
f 11 37 38
f 11 38 39
f 11 39 40
f 11 40 12
f 12 40 41
f 12 41 42
f 12 42 43
f 12 43 44
f 12 44 13
f 13 44 45
f 13 45 14
f 14 45 15
f 15 45 46
f 15 46 16
f 16 46 47
f 16 47 17
f 17 47 48
f 17 48 49
f 17 49 50
f 17 50 18
f 18 50 20
f 18 20 19
f 20 50 70
f 20 70 84
f 20 84 90
f 20 90 103
f 20 103 104
f 20 104 91
f 20 91 85
f 20 85 78
f 20 78 51
f 20 51 25
f 20 25 24
f 20 23 22
f 20 22 21
f 25 51 26
f 26 51 27
f 27 52 53
f 27 51 52
f 28 54 55
f 28 55 29
f 29 55 30
f 30 55 31
f 31 55 56
f 31 56 57
f 31 57 32
f 32 57 58
f 32 58 33
f 33 58 59
f 33 59 60
f 33 60 34
f 34 60 61
f 34 61 35
f 35 61 62
f 35 62 36
f 36 62 63
f 36 63 37
f 37 63 38
f 38 63 39
f 39 63 40
f 40 63 64
f 40 64 41
f 41 64 42
f 42 64 43
f 43 64 44
f 44 64 45
f 45 64 65
f 45 65 66
f 45 66 46
f 46 66 47
f 47 66 48
f 48 66 49
f 49 66 50
f 50 67 68
f 50 68 69
f 50 69 70
f 50 66 71
f 50 71 72
f 50 72 73
f 50 73 74
f 50 74 75
f 50 75 76
f 50 76 77
f 50 77 67
f 51 78 52
f 52 78 53
f 53 79 80
f 53 80 81
f 53 78 79
f 54 82 89
f 54 89 83
f 54 83 55
f 55 83 56
f 56 83 57
f 57 83 58
f 58 83 59
f 59 83 60
f 60 83 61
f 61 83 62
f 62 83 63
f 63 83 64
f 64 83 66
f 64 66 65
f 66 83 89
f 66 89 99
f 66 99 123
f 66 123 102
f 66 102 90
f 66 90 84
f 66 84 69
f 66 69 68
f 66 68 67
f 66 67 77
f 66 77 76
f 66 76 75
f 66 75 74
f 66 74 73
f 66 73 72
f 66 72 71
f 69 84 70
f 78 85 79
f 79 85 80
f 80 86 81
f 80 85 86
f 82 87 88
f 82 88 89
f 85 91 86
f 86 92 93
f 86 91 92
f 87 94 95
f 87 95 96
f 87 96 88
f 88 96 89
f 89 97 98
f 89 98 99
f 89 96 100
f 89 100 101
f 89 101 97
f 90 102 103
f 91 104 105
f 91 105 106
f 91 106 107
f 91 107 108
f 91 108 109
f 91 109 110
f 91 110 111
f 91 111 112
f 91 112 92
f 92 112 113
f 92 113 109
f 92 109 114
f 92 114 115
f 92 115 116
f 92 116 117
f 92 117 93
f 93 117 95
f 93 95 94
f 95 117 118
f 95 118 100
f 95 100 96
f 97 119 120
f 97 120 98
f 97 101 119
f 98 121 122
f 98 122 99
f 98 120 121
f 99 122 124
f 99 124 125
f 99 125 103
f 99 103 123
f 100 118 119
f 100 119 101
f 102 123 103
f 103 125 126
f 103 126 105
f 103 105 104
f 105 126 125
f 105 125 124
f 105 124 122
f 105 122 106
f 106 122 107
f 107 122 108
f 108 122 121
f 108 121 109
f 109 121 114
f 109 113 112
f 109 112 111
f 109 111 110
f 114 121 120
f 114 120 115
f 115 120 116
f 116 120 117
f 117 120 119
f 117 119 118

