# https://github.com/mikedh/trimesh
v 0.74044353 0.14235468 0.32779024
v 0.75206856 0.14235468 0.32802941
v 0.75653451 0.13107260 0.33671879
v 0.74930720 0.13107260 0.33666807
v 0.74027309 0.13107260 0.33661732
v 0.71756848 0.14235468 0.32789895
v 0.75653451 0.14235468 0.32950782
v 0.76781862 0.13107260 0.33858133
v 0.76181862 0.13107260 0.33725508
v 0.72619349 0.13107260 0.33795080
v 0.44262451 0.14235468 0.35627897
v 0.77075046 0.14235468 0.33489974
v 0.77098908 0.13107260 0.34417615
v 0.44262451 0.13107260 0.36869341
v 0.44262451 0.14235468 0.40175511
v 0.77085273 0.14235468 0.33508092
v 0.78476184 0.13107260 0.37050521
v 0.44262451 0.13107260 0.40182033
v 0.44262451 0.14172404 0.40176236
v 0.72673894 0.14235468 0.40114635
v 0.77661411 0.14235468 0.34797368
v 0.79072775 0.13107260 0.38244134
v 0.78813688 0.13107260 0.37710742
v 0.74739814 0.13107260 0.40055932
v 0.75653451 0.14235468 0.40102314
v 0.79014821 0.14235468 0.38030341
v 0.79089824 0.14235468 0.38244134
v 0.78861411 0.13107260 0.38979000
v 0.77283002 0.13107260 0.40044338
v 0.77286411 0.14235468 0.40080574
v 0.78748916 0.14235468 0.39376145
v 0.78690957 0.13107260 0.39549353
v 0.77900046 0.13107260 0.39828372
v 0.78690957 0.14235468 0.39555878
f 1 2 3
f 1 3 4
f 1 4 5
f 1 5 6
f 1 6 11
f 1 11 15
f 1 15 20
f 1 20 25
f 1 25 30
f 1 30 34
f 1 34 31
f 1 31 27
f 1 27 26
f 1 26 21
f 1 21 16
f 1 16 12
f 1 12 7
f 1 7 2
f 2 7 8
f 2 8 9
f 2 9 3
f 3 9 8
f 3 8 13
f 3 13 17
f 3 17 23
f 3 23 22
f 3 22 28
f 3 28 32
f 3 32 33
f 3 33 29
f 3 29 24
f 3 24 18
f 3 18 14
f 3 14 10
f 3 10 5
f 3 5 4
f 5 10 6
f 6 10 11
f 7 12 8
f 8 12 13
f 10 14 11
f 11 14 18
f 11 18 19
f 11 19 15
f 12 16 13
f 13 16 17
f 15 19 20
f 16 21 22
f 16 22 23
f 16 23 17
f 18 24 25
f 18 25 20
f 18 20 19
f 21 26 22
f 22 27 28
f 22 26 27
f 24 29 25
f 25 29 30
f 27 31 32
f 27 32 28
f 29 33 30
f 30 33 32
f 30 32 34
f 31 34 32

