# https://github.com/mikedh/trimesh
v 0.05650393 -0.16934639 0.39941987
v 0.05650393 -0.15308749 0.39928912
v 0.03315852 -0.20144779 0.44581066
v 0.03315852 -0.21771615 0.44581066
v 0.03287999 -0.22768159 0.44581066
v 0.03284202 -0.22886458 0.44581066
v 0.05650393 -0.18519836 0.39578495
v 0.05650393 -0.15200861 0.39926296
v 0.03284202 -0.19226786 0.44581066
v 0.03266477 -0.22972580 0.44581066
v 0.05650393 -0.19396189 0.39136553
v 0.05650393 -0.18557691 0.39568036
v 0.04132435 -0.15198969 0.39918450
v 0.04066602 -0.15198969 0.39918450
v -0.02600259 -0.17706891 0.44581066
v 0.00812930 -0.17706891 0.44581066
v 0.01528232 -0.17983235 0.44581066
v 0.02299238 -0.18289864 0.44581066
v 0.05650393 -0.15198969 0.37941482
v 0.03114555 -0.23699403 0.44581066
v 0.05650393 -0.19399028 0.39094714
v 0.00812930 -0.15198969 0.39907991
v -0.03744742 -0.18376931 0.44581066
v -0.00813905 -0.15198969 0.39900146
v -0.02439475 -0.15198969 0.39889687
v -0.07283268 -0.15198969 0.39853075
v 0.05650393 -0.15198969 0.37005297
v 0.03137343 -0.23727794 0.38242212
v 0.02301770 -0.24469760 0.44581066
v 0.03191782 -0.23836630 0.18720943
v 0.05650393 -0.19399028 0.38686768
v 0.03180388 -0.23806344 0.23603223
v 0.03193048 -0.23842308 0.17865826
v -0.04448649 -0.20144779 0.44581066
v -0.07283268 -0.15198969 0.38655388
v -0.07283268 -0.16853250 0.39863536
v -0.04452447 -0.20317021 0.44581066
v 0.05650393 -0.15264269 0.37005297
v 0.03315852 -0.20144779 0.17865826
v 0.03299394 -0.19673479 0.17865826
v 0.03284202 -0.19245713 0.17865826
v 0.02884139 -0.18892711 0.17865826
v 0.02439766 -0.18502800 0.17865826
v 0.01667494 -0.18190494 0.17865826
v 0.00812930 -0.17846955 0.17865826
v 0.01335797 -0.15198969 0.34191515
v 0.02318228 -0.24482064 0.39871380
v 0.02143518 -0.24497207 0.44581066
v 0.00812930 -0.24867243 0.17865826
v 0.05650393 -0.19163378 0.37878720
v 0.02339750 -0.24499099 0.33362547
v 0.02806912 -0.24174488 0.17865826
v 0.03237359 -0.23456182 0.17865826
v 0.05650393 -0.19147289 0.37852570
v -0.05758979 -0.15198969 0.36916385
v -0.07283268 -0.15200861 0.36937306
v -0.07283268 -0.16892052 0.39863536
v -0.04452447 -0.21771615 0.44581066
v 0.05650393 -0.16892052 0.37007913
v 0.03315852 -0.21771615 0.17865826
v -0.00813905 -0.17846955 0.17865826
v -0.00813905 -0.15198969 0.34141828
v 0.00463509 -0.15198969 0.34157520
v 0.00812930 -0.24726231 0.44581066
v 0.00812930 -0.24751783 0.39871380
v -0.02439475 -0.24867243 0.17865826
v 0.01556084 -0.24712036 0.17865826
v 0.02366337 -0.24524652 0.23603223
v 0.02348613 -0.24507616 0.30112055
v 0.02353677 -0.24511403 0.28482885
v 0.02380263 -0.24539793 0.17865826
v 0.02362539 -0.24519920 0.25229777
v 0.03284202 -0.23028415 0.17865826
v 0.05650393 -0.18356111 0.37206656
v -0.02549619 -0.15198969 0.34463479
v -0.07283268 -0.15303071 0.36937306
v -0.02439475 -0.17862097 0.17865826
v -0.03852353 -0.18605010 0.17865826
v -0.04167592 -0.19413223 0.17865826
v -0.04452447 -0.20144779 0.17865826
v -0.07283268 -0.18518889 0.39513120
v -0.04241021 -0.23398453 0.44581066
v -0.01584911 -0.17853580 0.17865826
v -0.01736834 -0.15198969 0.34160136
v -0.00850620 -0.15198969 0.34141828
v -0.02439475 -0.24726231 0.44581066
v -0.02439475 -0.24751783 0.39871380
v -0.03671312 -0.24499099 0.33362547
v -0.03708027 -0.24539793 0.17865826
v -0.03642194 -0.24469760 0.44581066
v -0.03654854 -0.24482064 0.39871380
v -0.01768484 -0.15198969 0.34170595
v -0.07283268 -0.16892052 0.36945151
v -0.04452447 -0.21771615 0.17865826
v -0.07283268 -0.19371583 0.39107789
v -0.04177721 -0.23512019 0.44581066
v -0.07283268 -0.19375367 0.38658002
v -0.03991616 -0.23999408 0.17865826
v -0.07283268 -0.16936533 0.36947767
v -0.04376486 -0.22626203 0.17865826
v -0.07283268 -0.18419519 0.37185735
v -0.07283268 -0.19240034 0.37865645
v -0.04306854 -0.23398453 0.17865826
v -0.07283268 -0.19228678 0.37849956
f 1 2 3
f 1 3 4
f 1 4 5
f 1 5 6
f 1 6 7
f 1 7 12
f 1 12 11
f 1 11 21
f 1 21 31
f 1 31 50
f 1 50 54
f 1 54 74
f 1 74 59
f 1 59 38
f 1 38 27
f 1 27 19
f 1 19 8
f 1 8 2
f 2 8 3
f 3 9 18
f 3 18 17
f 3 17 16
f 3 16 15
f 3 15 23
f 3 23 34
f 3 34 37
f 3 37 58
f 3 58 82
f 3 82 96
f 3 96 90
f 3 90 86
f 3 86 64
f 3 64 48
f 3 48 29
f 3 29 20
f 3 20 10
f 3 10 6
f 3 6 5
f 3 5 4
f 3 8 9
f 6 10 11
f 6 11 12
f 6 12 7
f 8 13 14
f 8 14 15
f 8 15 16
f 8 16 17
f 8 17 18
f 8 18 9
f 8 19 13
f 10 20 11
f 11 20 21
f 13 19 27
f 13 27 46
f 13 46 63
f 13 63 62
f 13 62 85
f 13 85 84
f 13 84 92
f 13 92 75
f 13 75 55
f 13 55 35
f 13 35 26
f 13 26 25
f 13 25 24
f 13 24 22
f 13 22 14
f 14 22 15
f 15 22 24
f 15 24 25
f 15 25 26
f 15 26 23
f 20 28 21
f 20 29 30
f 20 30 28
f 21 28 32
f 21 32 30
f 21 30 33
f 21 33 31
f 23 26 34
f 26 35 56
f 26 56 76
f 26 76 93
f 26 93 99
f 26 99 101
f 26 101 104
f 26 104 102
f 26 102 97
f 26 97 95
f 26 95 81
f 26 81 57
f 26 57 36
f 26 36 37
f 26 37 34
f 27 38 60
f 27 60 39
f 27 39 40
f 27 40 41
f 27 41 42
f 27 42 43
f 27 43 44
f 27 44 45
f 27 45 46
f 28 30 32
f 29 47 33
f 29 33 30
f 29 48 49
f 29 49 47
f 31 33 50
f 33 47 51
f 33 51 52
f 33 52 71
f 33 71 67
f 33 67 49
f 33 49 66
f 33 66 89
f 33 89 98
f 33 98 103
f 33 103 100
f 33 100 94
f 33 94 80
f 33 80 79
f 33 79 78
f 33 78 77
f 33 77 83
f 33 83 61
f 33 61 45
f 33 45 44
f 33 44 43
f 33 43 42
f 33 42 41
f 33 41 40
f 33 40 39
f 33 39 60
f 33 60 73
f 33 73 53
f 33 53 54
f 33 54 50
f 35 55 56
f 36 57 58
f 36 58 37
f 38 59 60
f 45 61 85
f 45 85 62
f 45 62 63
f 45 63 46
f 47 49 51
f 48 64 65
f 48 65 49
f 49 67 68
f 49 68 69
f 49 69 51
f 49 65 87
f 49 87 66
f 51 69 70
f 51 70 52
f 52 70 72
f 52 72 68
f 52 68 71
f 53 73 54
f 54 73 74
f 55 75 56
f 56 75 77
f 56 77 78
f 56 78 79
f 56 79 80
f 56 80 94
f 56 94 76
f 57 81 58
f 58 81 82
f 59 74 60
f 60 74 73
f 61 83 84
f 61 84 85
f 64 86 87
f 64 87 65
f 66 88 89
f 66 87 90
f 66 90 91
f 66 91 88
f 67 71 68
f 68 72 69
f 69 72 70
f 75 92 77
f 76 94 93
f 77 92 84
f 77 84 83
f 81 95 82
f 82 95 96
f 86 90 87
f 88 91 97
f 88 97 89
f 89 97 98
f 90 96 95
f 90 95 97
f 90 97 91
f 93 94 99
f 94 100 101
f 94 101 99
f 97 102 103
f 97 103 98
f 100 103 101
f 101 103 104
f 102 104 103

