# https://github.com/mikedh/trimesh
v -0.07289324 -0.15199388 0.06104347
v -0.07289324 -0.15225835 0.06104669
v -0.07289324 -0.15199388 0.04905839
v -0.69143390 -0.15199388 0.06251017
v -0.07289324 -0.15264456 0.06104991
v -0.07289324 -0.15200648 0.03188343
v -0.07325659 -0.15199388 0.03189955
v -0.69143390 -0.15199388 0.03347585
v -0.69143390 -0.16891561 0.06260043
v -0.07289324 -0.16891142 0.06113695
v -0.07392273 -0.15199388 0.03189310
v -0.07289324 -0.15302657 0.03187376
v -0.46367481 -0.15199388 0.02970110
v -0.37138422 -0.15199388 0.03022009
v -0.69143390 -0.15264456 0.03347908
v -0.65073884 -0.15199388 0.03264419
v -0.69143390 -0.16892821 0.06260043
v -0.07289324 -0.18517409 0.05770067
v -0.07289324 -0.16929343 0.03193178
v -0.46367481 -0.15264456 0.02970110
v -0.47996494 -0.15199388 0.02966887
v -0.69143390 -0.16891561 0.03356611
v -0.64989101 -0.15777020 0.03266030
v -0.64371412 -0.15199388 0.03251524
v -0.64014120 -0.16891561 0.03254103
v -0.69143390 -0.18518668 0.05885146
v -0.07289324 -0.19484605 0.05156307
v -0.07289324 -0.17896958 0.03227348
v -0.46367481 -0.16891561 0.02979136
v -0.47996494 -0.16891561 0.02976235
v -0.49625506 -0.16891561 0.02992675
v -0.49625506 -0.15264456 0.02984294
v -0.49625506 -0.15199388 0.02983972
v -0.69143390 -0.18517828 0.03750526
v -0.64825595 -0.16891561 0.03269899
v -0.63747662 -0.17737019 0.03258938
v -0.61077049 -0.15199388 0.03191567
v -0.61010435 -0.16891561 0.03199303
v -0.69143390 -0.19483765 0.05198213
v -0.07289324 -0.19487124 0.04415863
v -0.69143390 -0.19484185 0.05197890
v -0.30101569 -0.18210962 0.03169324
v -0.31730582 -0.18231531 0.03164812
v -0.33353541 -0.18251682 0.03160299
v -0.34982553 -0.18271832 0.03155785
v -0.37138422 -0.18297439 0.03149661
v -0.41486495 -0.18347394 0.03137412
v -0.07289324 -0.18705475 0.03607079
v -0.46367481 -0.19213840 0.03380465
v -0.43115508 -0.18365445 0.03132898
v -0.44738469 -0.18383076 0.03128386
v -0.46367481 -0.18400287 0.03123873
v -0.47996494 -0.18405744 0.03122261
v -0.49625506 -0.18373841 0.03130642
v -0.51248467 -0.18315069 0.03145471
v -0.52877480 -0.18252101 0.03160299
v -0.54500436 -0.18186194 0.03174804
v -0.56129449 -0.18116089 0.03189633
v -0.57758466 -0.18041787 0.03204461
v -0.61010435 -0.17882266 0.03233795
v -0.62633391 -0.17797049 0.03248623
v -0.52877480 -0.16891561 0.03051666
v -0.49692121 -0.15199388 0.02984939
v -0.69143390 -0.19484185 0.04515792
v -0.49625506 -0.19187393 0.03399484
v -0.37138422 -0.19110991 0.03449449
v -0.34982553 -0.19085384 0.03464277
v -0.07289324 -0.18723525 0.03622552
v -0.47996494 -0.19473270 0.04189893
v -0.46367481 -0.19473270 0.04193761
v -0.47996494 -0.19219298 0.03376275
v -0.41486495 -0.19160947 0.03418503
v -0.59381422 -0.17964126 0.03219289
v -0.49625506 -0.19473690 0.04212780
f 1 2 5
f 1 5 10
f 1 10 18
f 1 18 27
f 1 27 40
f 1 40 68
f 1 68 48
f 1 48 28
f 1 28 19
f 1 19 12
f 1 12 6
f 1 6 3
f 1 3 7
f 1 7 11
f 1 11 14
f 1 14 13
f 1 13 21
f 1 21 33
f 1 33 63
f 1 63 37
f 1 37 24
f 1 24 16
f 1 16 8
f 1 8 4
f 1 4 2
f 2 4 5
f 3 6 7
f 4 8 15
f 4 15 22
f 4 22 34
f 4 34 64
f 4 64 41
f 4 41 39
f 4 39 26
f 4 26 17
f 4 17 9
f 4 9 10
f 4 10 5
f 6 11 7
f 6 12 13
f 6 13 14
f 6 14 11
f 8 16 15
f 9 17 10
f 10 17 18
f 12 19 20
f 12 20 13
f 13 20 21
f 15 16 22
f 16 23 22
f 16 24 25
f 16 25 23
f 17 26 18
f 18 26 27
f 19 28 29
f 19 29 20
f 20 29 30
f 20 30 21
f 21 30 31
f 21 31 32
f 21 32 33
f 22 23 35
f 22 35 36
f 22 36 34
f 23 25 35
f 24 37 38
f 24 38 25
f 25 36 35
f 25 38 36
f 26 39 27
f 27 39 41
f 27 41 40
f 28 42 43
f 28 43 44
f 28 44 45
f 28 45 46
f 28 46 47
f 28 47 29
f 28 48 49
f 28 49 42
f 29 47 50
f 29 50 51
f 29 51 52
f 29 52 30
f 30 52 53
f 30 53 54
f 30 54 31
f 31 54 55
f 31 55 56
f 31 56 57
f 31 57 58
f 31 58 59
f 31 59 60
f 31 60 61
f 31 61 36
f 31 36 62
f 31 62 63
f 31 63 32
f 32 63 33
f 34 36 65
f 34 65 64
f 36 38 62
f 36 61 65
f 37 63 62
f 37 62 38
f 40 66 67
f 40 67 68
f 40 41 64
f 40 64 69
f 40 69 70
f 40 70 71
f 40 71 49
f 40 49 72
f 40 72 66
f 42 49 43
f 43 49 44
f 44 49 45
f 45 49 46
f 46 49 47
f 47 49 50
f 48 68 49
f 49 71 52
f 49 52 51
f 49 51 50
f 49 68 66
f 49 66 72
f 52 71 53
f 53 71 54
f 54 71 65
f 54 65 55
f 55 65 56
f 56 65 57
f 57 65 58
f 58 65 59
f 59 73 60
f 59 65 73
f 60 73 65
f 60 65 61
f 64 65 71
f 64 71 74
f 64 74 69
f 66 68 67
f 69 74 71
f 69 71 70

