# https://github.com/mikedh/trimesh
v 0.67512534 0.18229505 0.70244357
v 0.67512534 0.17276346 0.70901487
v 0.67512534 0.18229505 0.69578776
v 0.24023408 0.18225594 0.70305332
v 0.25219614 0.18225594 0.70306840
v 0.26850030 0.18225594 0.70305032
v 0.25219614 0.17276346 0.71048492
v 0.26850030 0.17276346 0.71045170
v 0.33354670 0.17276346 0.71022531
v 0.51250940 0.15649567 0.71358493
v 0.61012156 0.15649567 0.71317442
v 0.65890630 0.15649567 0.71296916
v 0.67512534 0.15649567 0.71289973
v 0.33354670 0.15649567 0.71432448
v 0.34985084 0.15649567 0.71426411
v 0.38237404 0.15649567 0.71413130
v 0.67512534 0.17276346 0.68780984
v 0.24023408 0.18225594 0.69658162
v 0.24023408 0.17276346 0.71045170
v 0.24023408 0.16081185 0.71346719
v 0.25219614 0.15649567 0.71458705
v 0.26850030 0.15649567 0.71455388
v 0.57968424 0.14235859 0.71337666
v 0.62638313 0.14235859 0.71318043
v 0.39863563 0.14235859 0.71413731
v 0.67512534 0.14235859 0.71297517
v 0.27062878 0.14235859 0.71461120
v 0.34985084 0.14235859 0.71433049
v 0.36611246 0.14235859 0.71427013
v 0.67512534 0.15649567 0.68381632
v 0.24023408 0.17276346 0.68943379
v 0.24023408 0.15649567 0.71455388
v 0.25219614 0.14235859 0.71465348
v 0.26850030 0.14235859 0.71461726
v 0.67512534 0.14235859 0.71174059
v 0.67512534 0.14243678 0.68390084
v 0.24023408 0.14235859 0.68553991
v 0.24023408 0.15649567 0.68546442
v 0.24023408 0.16844727 0.68838031
v 0.24023408 0.14235859 0.71462027
v 0.67308201 0.14235859 0.68391291
f 1 2 13
f 1 13 26
f 1 26 35
f 1 35 36
f 1 36 30
f 1 30 17
f 1 17 3
f 1 3 18
f 1 18 4
f 1 4 5
f 1 5 6
f 1 6 7
f 1 7 8
f 1 8 9
f 1 9 2
f 2 10 11
f 2 11 12
f 2 12 13
f 2 9 14
f 2 14 15
f 2 15 16
f 2 16 10
f 3 17 18
f 4 18 31
f 4 31 39
f 4 39 38
f 4 38 37
f 4 37 40
f 4 40 32
f 4 32 20
f 4 20 19
f 4 19 7
f 4 7 5
f 5 7 6
f 7 19 20
f 7 20 21
f 7 21 22
f 7 22 8
f 8 22 9
f 9 22 14
f 10 23 24
f 10 24 11
f 10 16 25
f 10 25 23
f 11 24 12
f 12 26 13
f 12 24 26
f 14 22 27
f 14 27 28
f 14 28 15
f 15 28 29
f 15 29 25
f 15 25 16
f 17 30 31
f 17 31 18
f 20 32 21
f 21 32 40
f 21 40 33
f 21 33 22
f 22 34 27
f 22 33 34
f 23 25 29
f 23 29 28
f 23 28 27
f 23 27 34
f 23 34 33
f 23 33 40
f 23 40 37
f 23 37 41
f 23 41 35
f 23 35 26
f 23 26 24
f 30 36 37
f 30 37 38
f 30 38 39
f 30 39 31
f 35 41 36
f 36 41 37

