# https://github.com/mikedh/trimesh
v 0.78307670 0.01325318 0.70387774
v 0.78727431 -0.08754885 0.70662305
v 0.78851801 -0.08754885 0.69158035
v 0.78307670 0.01325318 0.69394793
v 0.77483698 0.01325318 0.70929916
v 0.78727431 -0.15198969 0.70678679
v 0.77281591 0.01325318 0.71061516
v 0.77281591 -0.08754885 0.71362493
v 0.77281591 -0.15198969 0.71407830
v 0.78836255 -0.12009277 0.69158035
v 0.77001750 -0.07127690 0.65904559
v 0.77032846 0.01005055 0.65904559
v 0.77032846 0.01325318 0.65904559
v 0.77545886 0.01325318 0.67212374
v 0.77670256 0.01325318 0.67531612
v 0.78820709 -0.15198969 0.69158035
v 0.75975671 0.01325318 0.71268676
v 0.75649194 0.01325318 0.71319047
v 0.75711381 -0.15198969 0.71429238
v 0.76986205 -0.10382080 0.65904559
v 0.76535352 0.01325318 0.65051363
v 0.76955113 -0.15198969 0.65902668
v 0.75649194 -0.15198969 0.71429869
v 0.21951081 0.01325318 0.71319047
v 0.76473165 -0.13240187 0.65089141
v 0.76519807 -0.02249337 0.65060178
v 0.76348795 0.01325318 0.65041287
v 0.76924017 -0.15198969 0.65852927
v 0.74016797 -0.15198969 0.71429869
v -0.77283157 0.01325318 0.71291970
v -0.77283157 -0.15198969 0.71389569
v 0.76379887 -0.14325524 0.65092288
v 0.75649194 0.01325318 0.65004134
v 0.76473165 -0.12009277 0.65085364
v 0.76286608 -0.15198969 0.65095440
v -0.78589077 0.01325318 0.70864427
v -0.78900008 -0.08754885 0.71113147
v -0.78900008 -0.15198969 0.71159115
v 0.75493728 -0.15198969 0.65080325
v 0.75415995 -0.15198969 0.65079695
v 0.74016797 -0.15198969 0.65071510
v 0.74016797 0.01325318 0.64997210
v -0.78900008 0.01325318 0.70760534
v -0.79957179 -0.08754885 0.70424296
v -0.79972724 -0.15198969 0.70442552
v -0.00809208 -0.15198969 0.65070249
v -0.75650760 -0.15198969 0.65069624
v -0.75650760 0.01325318 0.64997210
v -0.79770621 0.01325318 0.70094351
v -0.79957179 -0.08754885 0.69408642
v -0.79972724 -0.15198969 0.69430050
v -0.76552464 -0.15198969 0.65080325
v -0.76941129 0.01325318 0.65044434
v -0.79770621 0.01325318 0.69785184
v -0.79584059 -0.08754885 0.68595115
v -0.79506327 0.01325318 0.68971658
v -0.78355878 0.01325318 0.65997750
v -0.79584059 -0.10382080 0.68599523
v -0.79584059 -0.13636474 0.68611490
v -0.78386969 -0.15198969 0.66141942
v -0.77360890 -0.15198969 0.65269855
v -0.77749555 0.01005055 0.65186109
v -0.77096595 0.01325318 0.65070880
v -0.77749555 0.01325318 0.65184223
v -0.78355878 -0.15198969 0.66083382
v -0.77407532 -0.15198969 0.65302600
f 1 2 3
f 1 3 4
f 1 4 15
f 1 15 14
f 1 14 13
f 1 13 21
f 1 21 27
f 1 27 33
f 1 33 42
f 1 42 48
f 1 48 53
f 1 53 63
f 1 63 64
f 1 64 57
f 1 57 56
f 1 56 54
f 1 54 49
f 1 49 43
f 1 43 36
f 1 36 30
f 1 30 24
f 1 24 18
f 1 18 17
f 1 17 7
f 1 7 5
f 1 5 2
f 2 6 3
f 2 5 7
f 2 7 8
f 2 8 9
f 2 9 6
f 3 6 10
f 3 10 20
f 3 20 11
f 3 11 12
f 3 12 13
f 3 13 14
f 3 14 15
f 3 15 4
f 6 16 10
f 6 9 19
f 6 19 23
f 6 23 29
f 6 29 31
f 6 31 38
f 6 38 45
f 6 45 51
f 6 51 60
f 6 60 65
f 6 65 66
f 6 66 61
f 6 61 52
f 6 52 47
f 6 47 46
f 6 46 41
f 6 41 40
f 6 40 39
f 6 39 35
f 6 35 28
f 6 28 22
f 6 22 16
f 7 17 8
f 8 17 18
f 8 18 9
f 9 18 19
f 10 16 20
f 11 20 21
f 11 21 12
f 12 21 13
f 16 22 20
f 18 23 19
f 18 24 29
f 18 29 23
f 20 22 25
f 20 25 21
f 21 25 26
f 21 26 27
f 22 28 25
f 24 30 31
f 24 31 29
f 25 32 33
f 25 33 34
f 25 34 26
f 25 28 32
f 26 34 33
f 26 33 27
f 28 35 32
f 30 36 37
f 30 37 38
f 30 38 31
f 32 35 39
f 32 39 33
f 33 39 40
f 33 40 41
f 33 41 42
f 36 43 37
f 37 43 44
f 37 44 38
f 38 44 45
f 41 46 42
f 42 46 47
f 42 47 48
f 43 49 44
f 44 49 54
f 44 54 50
f 44 50 51
f 44 51 45
f 47 52 48
f 48 52 53
f 50 55 51
f 50 54 56
f 50 56 57
f 50 57 55
f 51 55 58
f 51 58 59
f 51 59 60
f 52 61 62
f 52 62 63
f 52 63 53
f 55 57 58
f 57 64 65
f 57 65 60
f 57 60 59
f 57 59 58
f 61 66 62
f 62 66 65
f 62 65 64
f 62 64 63

