# https://github.com/mikedh/trimesh
v 0.78403567 0.01325318 -0.28463836
v 0.79057909 -0.08754885 -0.28463836
v 0.78387982 0.01325318 -0.28683019
v 0.78263346 0.01325318 -0.27700782
v 0.79073483 -0.15198969 -0.28463836
v 0.78606096 -0.08754885 -0.29724293
v 0.78278930 0.01325318 -0.29580474
v 0.78216612 0.01325318 -0.27515512
v 0.78543778 -0.08754885 -0.27358504
v 0.78559362 -0.10382080 -0.27354109
v 0.78590522 -0.15198969 -0.27384882
v 0.78606096 -0.10382080 -0.29721153
v 0.78590522 -0.15198969 -0.29713618
v 0.76939078 0.01325318 -0.32980628
v 0.77453208 0.01325318 -0.31717032
v 0.77281828 0.01325318 -0.27250485
v 0.77281828 -0.08754885 -0.27067099
v 0.77281828 -0.15198969 -0.27028162
v 0.78559362 -0.15198969 -0.27340292
v 0.76923503 -0.10382080 -0.32944828
v 0.76939078 0.01005055 -0.32979372
v 0.76907919 -0.15198969 -0.32932897
v 0.76689805 0.01325318 -0.33070434
v 0.75973145 0.01325318 -0.27145603
v 0.75645969 0.01325318 -0.27119853
v 0.75645969 0.01005055 -0.27117969
v 0.75708287 -0.15198969 -0.27026278
v 0.76861185 -0.15198969 -0.32949226
v 0.75645969 0.01325318 -0.33435948
v 0.21958621 0.01325318 -0.27119853
v 0.21958621 0.01005055 -0.27117969
v 0.72389835 -0.15198969 -0.27026278
v 0.75645969 -0.15198969 -0.33346139
v 0.74025694 0.01325318 -0.33441600
v 0.75583651 -0.15198969 -0.33346769
v 0.74025694 -0.15198969 -0.33357444
v -0.77283526 0.01325318 -0.27146859
v 0.21958621 -0.05502111 -0.27084056
v -0.77283526 -0.05502111 -0.27111062
v -0.77283526 -0.15198969 -0.27062704
v -0.75647666 0.01325318 -0.33441600
v -0.75647666 -0.15198969 -0.33357444
v -0.78779173 0.01325318 -0.27392418
v -0.78903810 -0.08754885 -0.27222851
v -0.78841492 -0.15198969 -0.27185170
v -0.77283526 -0.15198969 -0.33207974
v -0.77283526 0.01005055 -0.33280196
v -0.77283526 0.01325318 -0.33281454
v -0.79433515 0.01325318 -0.27921849
v -0.79807425 -0.07520740 -0.27553193
v -0.79854159 -0.08754885 -0.27502951
v -0.78903810 -0.15198969 -0.27190194
v -0.78311777 -0.15198969 -0.32794102
v -0.78327361 -0.08754885 -0.32806663
v -0.78327361 0.01325318 -0.32826132
v -0.79589311 0.01325318 -0.28051223
v -0.80072273 -0.08754885 -0.28463836
v -0.79869743 -0.13636474 -0.27493532
v -0.79869743 -0.15198969 -0.27490392
v -0.79932061 -0.15198969 -0.29530232
v -0.79932061 -0.12009277 -0.29535883
v -0.79932061 -0.08754885 -0.29541537
v -0.79760681 0.01325318 -0.29349988
v -0.79729522 0.01325318 -0.28705000
v -0.80087857 -0.15198969 -0.28463836
v -0.79760681 0.01325318 -0.28864519
f 1 2 3
f 1 3 7
f 1 7 15
f 1 15 14
f 1 14 23
f 1 23 29
f 1 29 34
f 1 34 41
f 1 41 48
f 1 48 55
f 1 55 63
f 1 63 66
f 1 66 64
f 1 64 56
f 1 56 49
f 1 49 43
f 1 43 37
f 1 37 30
f 1 30 25
f 1 25 24
f 1 24 16
f 1 16 8
f 1 8 4
f 1 4 2
f 2 5 6
f 2 6 7
f 2 7 3
f 2 4 8
f 2 8 9
f 2 9 10
f 2 10 11
f 2 11 5
f 5 12 6
f 5 11 19
f 5 19 18
f 5 18 27
f 5 27 32
f 5 32 40
f 5 40 45
f 5 45 52
f 5 52 59
f 5 59 65
f 5 65 60
f 5 60 53
f 5 53 46
f 5 46 42
f 5 42 36
f 5 36 35
f 5 35 33
f 5 33 28
f 5 28 22
f 5 22 13
f 5 13 12
f 6 12 14
f 6 14 15
f 6 15 7
f 8 16 9
f 9 16 17
f 9 17 18
f 9 18 10
f 10 18 19
f 10 19 11
f 12 13 20
f 12 20 21
f 12 21 14
f 13 22 20
f 14 21 20
f 14 20 23
f 16 24 17
f 17 24 25
f 17 25 18
f 18 25 26
f 18 26 27
f 20 22 23
f 22 28 29
f 22 29 23
f 25 30 31
f 25 31 26
f 26 31 32
f 26 32 27
f 28 33 29
f 29 33 35
f 29 35 36
f 29 36 34
f 30 37 31
f 31 38 32
f 31 37 39
f 31 39 38
f 32 38 40
f 34 36 42
f 34 42 41
f 37 43 44
f 37 44 39
f 38 39 40
f 39 44 45
f 39 45 40
f 41 42 46
f 41 46 47
f 41 47 48
f 43 49 50
f 43 50 51
f 43 51 44
f 44 51 52
f 44 52 45
f 46 53 47
f 47 53 48
f 48 53 54
f 48 54 55
f 49 56 50
f 50 56 51
f 51 56 57
f 51 57 58
f 51 58 52
f 52 58 59
f 53 60 54
f 54 60 55
f 55 60 61
f 55 61 62
f 55 62 63
f 56 64 57
f 57 62 65
f 57 65 58
f 57 64 66
f 57 66 63
f 57 63 62
f 58 65 59
f 60 65 61
f 61 65 62

