# https://github.com/mikedh/trimesh
v 0.79249712 0.15649462 -0.38229719
v 0.78634205 0.18236954 -0.28467606
v 0.78878130 0.17276144 -0.28467606
v 0.79244015 0.15649462 -0.34975680
v 0.79052521 0.14235469 -0.28467606
v 0.79232615 0.15649462 -0.39856736
v 0.78270600 0.18236954 -0.72391981
v 0.78261479 0.18236954 -0.21620783
v 0.79095837 0.15649462 -0.28467606
v 0.78251219 0.18094771 -0.21620783
v 0.78205629 0.17538966 -0.21620783
v 0.77949165 0.16892681 -0.21620783
v 0.77879637 0.16725429 -0.21620783
v 0.78496283 0.14235469 -0.27379505
v 0.78217024 0.14235469 -0.39856736
v 0.78670679 0.14384701 -0.39856736
v 0.78107604 0.16449290 -0.73218319
v 0.78222726 0.17276144 -0.72391981
v 0.78154337 0.17276144 -0.73285045
v 0.78178272 0.18236954 -0.73320970
v 0.70674769 0.18236954 -0.21620783
v 0.77712082 0.16641217 -0.21620783
v 0.77294901 0.14235469 -0.27076683
v 0.77065800 0.16319249 -0.21620783
v 0.75944207 0.16205268 -0.21620783
v 0.75655827 0.16176284 -0.21620783
v 0.77283506 0.14235469 -0.40867849
v 0.75655827 0.15927952 -0.72391981
v 0.77283506 0.16170408 -0.72391981
v 0.77283506 0.16322383 -0.73372301
v 0.77283506 0.17276144 -0.73669986
v 0.77283506 0.18236954 -0.73746977
v 0.77640270 0.18236954 -0.73587864
v 0.70793311 0.17610645 -0.21620783
v 0.69744670 0.18236954 -0.28580523
v 0.67605207 0.17530349 -0.28472737
v 0.67605207 0.16960443 -0.27461626
v 0.67605207 0.16922449 -0.27400035
v 0.67605207 0.15716442 -0.27158804
v 0.67605207 0.15649462 -0.27148539
v 0.67605207 0.14308323 -0.27143406
v 0.67605207 0.14235469 -0.27143406
v 0.75655827 0.14235469 -0.27061285
v 0.74029288 0.16176284 -0.21620783
v 0.72651235 0.14235469 -0.27045890
v 0.74029288 0.14235469 -0.27051022
v 0.75655827 0.14235469 -0.40893514
v 0.74029288 0.15927952 -0.72391981
v 0.75655827 0.16202526 -0.73516008
v 0.72402753 0.14235469 -0.40929440
v 0.67605207 0.14235469 -0.40960236
v 0.75655827 0.17276144 -0.73967675
v 0.75655827 0.18236954 -0.74054926
v 0.76322631 0.18236954 -0.73931749
v 0.70857142 0.17276144 -0.21620783
v 0.70643993 0.18236954 -0.72391981
v 0.67605207 0.17172737 -0.39856736
v 0.67735148 0.14235469 -0.27138274
v 0.72402753 0.16180592 -0.21620783
v 0.71378046 0.16323557 -0.21620783
v 0.71270900 0.16518618 -0.21620783
v 0.72402753 0.14235469 -0.27045890
v 0.72402753 0.15933828 -0.72391981
v 0.72402753 0.16205268 -0.73510873
v 0.74029288 0.16202526 -0.73516008
v 0.67605207 0.14328690 -0.41247660
v 0.70740879 0.17276144 -0.72391981
v 0.71246965 0.16201351 -0.72391981
v 0.74029288 0.17276144 -0.73967675
v 0.74029288 0.18236954 -0.74054926
v 0.67605207 0.15649462 -0.41899495
v 0.67605207 0.16752064 -0.41278455
v 0.67605207 0.16814734 -0.41242525
v 0.70822947 0.18236954 -0.72879574
v 0.71176297 0.17276144 -0.73582734
v 0.67605207 0.14352975 -0.41319516
v 0.69360543 0.14235469 -0.27086948
v 0.71021277 0.14235469 -0.27056155
v 0.71366646 0.16292614 -0.73408227
v 0.72402753 0.17276144 -0.73962540
v 0.72402753 0.18236954 -0.74049791
v 0.71130703 0.18236954 -0.73628925
f 1 2 3
f 1 3 4
f 1 4 5
f 1 5 6
f 1 6 7
f 1 7 2
f 2 8 3
f 2 7 20
f 2 20 33
f 2 33 32
f 2 32 54
f 2 54 53
f 2 53 70
f 2 70 81
f 2 81 82
f 2 82 74
f 2 74 56
f 2 56 35
f 2 35 21
f 2 21 8
f 3 8 9
f 3 9 4
f 4 9 5
f 5 9 8
f 5 8 10
f 5 10 11
f 5 11 12
f 5 12 13
f 5 13 14
f 5 14 23
f 5 23 43
f 5 43 46
f 5 46 45
f 5 45 62
f 5 62 78
f 5 78 77
f 5 77 58
f 5 58 42
f 5 42 51
f 5 51 50
f 5 50 47
f 5 47 27
f 5 27 15
f 5 15 16
f 5 16 6
f 6 16 17
f 6 17 18
f 6 18 7
f 7 18 19
f 7 19 20
f 8 21 34
f 8 34 55
f 8 55 61
f 8 61 60
f 8 60 59
f 8 59 44
f 8 44 26
f 8 26 25
f 8 25 24
f 8 24 22
f 8 22 13
f 8 13 12
f 8 12 11
f 8 11 10
f 13 22 14
f 14 22 24
f 14 24 25
f 14 25 26
f 14 26 23
f 15 27 28
f 15 28 29
f 15 29 17
f 15 17 16
f 17 29 30
f 17 30 31
f 17 31 19
f 17 19 18
f 19 31 32
f 19 32 33
f 19 33 20
f 21 35 36
f 21 36 37
f 21 37 38
f 21 38 39
f 21 39 40
f 21 40 41
f 21 41 42
f 21 42 34
f 23 26 43
f 26 44 62
f 26 62 45
f 26 45 46
f 26 46 43
f 27 47 28
f 28 48 65
f 28 65 49
f 28 49 30
f 28 30 29
f 28 47 50
f 28 50 51
f 28 51 48
f 30 49 52
f 30 52 31
f 31 52 53
f 31 53 54
f 31 54 32
f 34 42 55
f 35 56 36
f 36 57 73
f 36 73 72
f 36 72 71
f 36 71 76
f 36 76 66
f 36 66 51
f 36 51 42
f 36 42 41
f 36 41 40
f 36 40 39
f 36 39 38
f 36 38 37
f 36 56 57
f 42 58 59
f 42 59 60
f 42 60 61
f 42 61 55
f 44 59 62
f 48 63 64
f 48 64 65
f 48 51 63
f 49 65 69
f 49 69 52
f 51 66 67
f 51 67 68
f 51 68 63
f 52 69 70
f 52 70 53
f 56 71 72
f 56 72 73
f 56 73 57
f 56 74 75
f 56 75 67
f 56 67 76
f 56 76 71
f 58 77 59
f 59 77 78
f 59 78 62
f 63 68 79
f 63 79 64
f 64 79 80
f 64 80 65
f 65 80 69
f 66 76 67
f 67 75 79
f 67 79 68
f 69 80 81
f 69 81 70
f 74 82 75
f 75 82 81
f 75 81 80
f 75 80 79

