# https://github.com/mikedh/trimesh
v 0.03298199 0.18244005 -0.70763216
v 0.03284682 0.17763457 -0.70763216
v 0.03280177 0.17808302 -0.72392180
v 0.03290690 0.18244005 -0.72392180
v 0.03296697 0.18244005 -0.47989252
v 0.03135247 0.16950098 -0.70763216
v 0.03285433 0.17874546 -0.44757135
v 0.03284682 0.17859522 -0.44757135
v 0.03126236 0.16994943 -0.72392180
v 0.03268162 0.17934642 -0.73226737
v 0.03270415 0.18244005 -0.73229607
v 0.03295946 0.18244005 -0.44757135
v 0.02292703 0.16212087 -0.62629864
v 0.02298711 0.16207762 -0.64255962
v 0.02310725 0.16199339 -0.67511024
v 0.02321989 0.16190688 -0.70763216
v 0.02312227 0.16195470 -0.72392180
v 0.03129991 0.16957610 -0.69137118
v 0.03035373 0.17041381 -0.46363159
v 0.02225870 0.16264444 -0.44757135
v 0.02213856 0.16252835 -0.44757135
v 0.02273179 0.16224835 -0.57751574
v 0.02279938 0.16220737 -0.59377667
v 0.03027113 0.17046162 -0.44757135
v 0.03072920 0.17015431 -0.54496511
v 0.03099953 0.16991528 -0.61003765
v 0.02075684 0.16289257 -0.73413153
v 0.02546518 0.17345964 -0.73522132
v 0.02485692 0.18244005 -0.73622510
v 0.03003834 0.18244005 -0.73375870
v -0.04343267 0.18244005 -0.44757135
v 0.00813371 0.15918658 -0.70763216
v 0.00813371 0.15927991 -0.72392180
v 0.00813371 0.16042723 -0.44757135
v 0.00813371 0.16202526 -0.73516396
v 0.00813371 0.17276306 -0.73966657
v 0.00813371 0.18244005 -0.74055562
v -0.04341015 0.18229893 -0.44757135
v -0.04344769 0.18244005 -0.45393807
v -0.04256910 0.17276306 -0.70763216
v -0.04248650 0.17276306 -0.67511024
v -0.02440410 0.15918658 -0.70763216
v -0.02440410 0.16042495 -0.44757135
v -0.02440410 0.15927991 -0.72392180
v -0.02440410 0.16202526 -0.73516396
v -0.02440410 0.17276306 -0.73966657
v -0.02440410 0.18244005 -0.74055562
v -0.04212606 0.17276306 -0.54496511
v -0.04198338 0.17276306 -0.49615351
v -0.04183319 0.17276306 -0.44757135
v -0.04244145 0.17276306 -0.65882055
v -0.04349275 0.18244005 -0.48648870
v -0.04373305 0.18244005 -0.69796735
v -0.04373305 0.18244005 -0.70763216
v -0.04223119 0.17276306 -0.72392180
v -0.03650159 0.16195470 -0.72392180
v -0.03657668 0.16190688 -0.70763216
v -0.04355282 0.18244005 -0.53530030
v -0.04362792 0.18244005 -0.60034419
v -0.03584077 0.16252835 -0.44757135
v -0.03511988 0.16289257 -0.73413153
v -0.03720746 0.17276306 -0.73585227
v -0.03768806 0.18244005 -0.73628246
v -0.03649408 0.16199339 -0.67511024
v -0.04359037 0.18244005 -0.71422833
v -0.04329000 0.18244005 -0.72392180
v -0.04124747 0.18244005 -0.72876858
f 1 2 3
f 1 3 4
f 1 4 11
f 1 11 30
f 1 30 29
f 1 29 37
f 1 37 47
f 1 47 63
f 1 63 67
f 1 67 66
f 1 66 65
f 1 65 54
f 1 54 53
f 1 53 59
f 1 59 58
f 1 58 52
f 1 52 39
f 1 39 31
f 1 31 12
f 1 12 5
f 1 5 2
f 2 6 3
f 2 5 7
f 2 7 8
f 2 8 6
f 3 9 10
f 3 10 4
f 3 6 9
f 4 10 11
f 5 12 7
f 6 13 14
f 6 14 15
f 6 15 16
f 6 16 17
f 6 17 9
f 6 8 18
f 6 18 19
f 6 19 20
f 6 20 21
f 6 21 22
f 6 22 23
f 6 23 13
f 7 12 31
f 7 31 38
f 7 38 50
f 7 50 60
f 7 60 43
f 7 43 34
f 7 34 21
f 7 21 20
f 7 20 24
f 7 24 8
f 8 24 19
f 8 19 25
f 8 25 26
f 8 26 18
f 9 17 27
f 9 27 10
f 10 27 28
f 10 28 29
f 10 29 30
f 10 30 11
f 13 23 21
f 13 21 14
f 14 21 15
f 15 21 16
f 16 32 17
f 16 21 32
f 17 33 27
f 17 32 33
f 18 26 25
f 18 25 19
f 19 24 20
f 21 23 22
f 21 34 32
f 27 33 35
f 27 35 36
f 27 36 28
f 28 36 29
f 29 36 37
f 31 39 40
f 31 40 41
f 31 41 38
f 32 42 44
f 32 44 33
f 32 34 43
f 32 43 42
f 33 44 45
f 33 45 35
f 35 45 46
f 35 46 36
f 36 46 47
f 36 47 37
f 38 48 49
f 38 49 50
f 38 41 51
f 38 51 48
f 39 52 40
f 40 53 54
f 40 54 55
f 40 55 56
f 40 56 57
f 40 57 41
f 40 52 58
f 40 58 59
f 40 59 53
f 41 57 51
f 42 57 56
f 42 56 44
f 42 43 60
f 42 60 57
f 44 56 61
f 44 61 45
f 45 61 46
f 46 61 62
f 46 62 47
f 47 62 63
f 48 51 57
f 48 57 49
f 49 57 50
f 50 57 64
f 50 64 60
f 54 65 55
f 55 61 56
f 55 65 66
f 55 66 62
f 55 62 61
f 57 60 64
f 62 66 67
f 62 67 63

