# https://github.com/mikedh/trimesh
v -0.04839674 0.17236772 0.67457821
v -0.04631934 0.18244007 0.67457821
v -0.04271570 0.14237430 0.67457821
v -0.19283934 0.14235469 0.68255235
v -0.19283934 0.14599988 0.68252767
v -0.19283934 0.15649600 0.68247831
v -0.19283934 0.16746691 0.68294119
v -0.19283934 0.17035481 0.68429903
v -0.19283934 0.17560483 0.68679249
v -0.19283934 0.18225958 0.69492708
v -0.07247757 0.18244007 0.69533438
v 0.03681888 0.18244007 0.67457821
v -0.02906424 0.14235469 0.67457821
v -0.19283934 0.14235469 0.71169002
v -0.19283934 0.18225958 0.70211118
v -0.07247757 0.18244007 0.70182112
v 0.05670252 0.18244007 0.69597013
v 0.24019170 0.18225565 0.69658114
v 0.24019170 0.17276402 0.68943403
v 0.24019170 0.15649600 0.68546548
v 0.03783638 0.17467882 0.67457821
v 0.03105305 0.14235469 0.67457821
v -0.19283934 0.15147749 0.71164681
v -0.03724663 0.14235469 0.71311570
v -0.00812070 0.16689012 0.73062547
v -0.02440070 0.16689012 0.73042792
v -0.02440070 0.17502411 0.73578515
v -0.02440070 0.18244007 0.73762439
v -0.03059049 0.18244007 0.73671711
v -0.19283934 0.17276402 0.70803621
v -0.03644111 0.18244007 0.73513094
v -0.07196882 0.18244007 0.70240745
v 0.05670252 0.18244007 0.70265431
v 0.24019170 0.18225565 0.70305546
v 0.24019170 0.15274487 0.68548401
v 0.03783638 0.17430999 0.67457821
v 0.24019170 0.14235469 0.68553958
v -0.19283934 0.15649600 0.71161593
v -0.02440070 0.14235469 0.71321447
v 0.00815930 0.16689012 0.73060695
v 0.00815930 0.17502411 0.73578515
v -0.00812070 0.14235469 0.71332556
v 0.00815930 0.14235469 0.71342428
v 0.23590972 0.14235469 0.71460315
v 0.23802947 0.14235469 0.71460931
v 0.24019170 0.14235469 0.71461547
v 0.00815930 0.18244007 0.73762439
v 0.02982357 0.18244007 0.73015638
v 0.24019170 0.17276402 0.71044942
v 0.02638951 0.18244007 0.73296459
v 0.02274347 0.18244007 0.73513094
v 0.24019170 0.14454024 0.71460931
v 0.24019170 0.14610582 0.71460315
v 0.24019170 0.15649600 0.71455379
v 0.24019170 0.16081217 0.71346749
f 1 2 12
f 1 12 21
f 1 21 36
f 1 36 22
f 1 22 13
f 1 13 3
f 1 3 4
f 1 4 5
f 1 5 6
f 1 6 2
f 2 6 7
f 2 7 8
f 2 8 9
f 2 9 10
f 2 10 11
f 2 11 16
f 2 16 32
f 2 32 31
f 2 31 29
f 2 29 28
f 2 28 47
f 2 47 51
f 2 51 50
f 2 50 48
f 2 48 33
f 2 33 17
f 2 17 12
f 3 13 4
f 4 14 23
f 4 23 38
f 4 38 30
f 4 30 15
f 4 15 10
f 4 10 9
f 4 9 8
f 4 8 7
f 4 7 6
f 4 6 5
f 4 13 22
f 4 22 37
f 4 37 46
f 4 46 45
f 4 45 44
f 4 44 43
f 4 43 42
f 4 42 39
f 4 39 24
f 4 24 14
f 10 15 16
f 10 16 11
f 12 17 18
f 12 18 19
f 12 19 20
f 12 20 21
f 14 24 25
f 14 25 26
f 14 26 27
f 14 27 28
f 14 28 29
f 14 29 23
f 15 30 29
f 15 29 31
f 15 31 32
f 15 32 16
f 17 33 34
f 17 34 18
f 18 34 49
f 18 49 55
f 18 55 54
f 18 54 53
f 18 53 52
f 18 52 46
f 18 46 37
f 18 37 35
f 18 35 20
f 18 20 19
f 20 35 36
f 20 36 21
f 22 36 37
f 23 29 38
f 24 39 25
f 25 40 41
f 25 41 27
f 25 27 26
f 25 39 42
f 25 42 43
f 25 43 44
f 25 44 45
f 25 45 46
f 25 46 40
f 27 41 47
f 27 47 28
f 29 30 38
f 33 48 34
f 34 48 50
f 34 50 51
f 34 51 47
f 34 47 49
f 35 37 36
f 40 46 41
f 41 46 47
f 46 52 47
f 47 52 53
f 47 53 54
f 47 54 55
f 47 55 49

