# https://github.com/mikedh/trimesh
v 0.03700442 0.17384260 0.07421143
v 0.02369624 0.15858289 0.07421143
v 0.03577646 0.18234517 0.07421143
v 0.03294579 0.18244007 0.17573267
v 0.03285010 0.17970076 0.17573267
v 0.02797814 0.17396495 0.17573267
v 0.02589699 0.17156526 0.17573267
v 0.00870559 0.15696978 0.07421143
v 0.01776377 0.16422382 0.17573267
v 0.03576051 0.18244007 0.07421143
v -0.04242208 0.18244007 0.17573267
v 0.00813148 0.15692982 0.07421143
v 0.01093824 0.16392916 0.17573267
v -0.04445538 0.18244007 0.07421143
v -0.04087517 0.17756076 0.17573267
v -0.04444741 0.18244007 0.08289679
v -0.04435970 0.17387756 0.07421143
v -0.04379356 0.17194980 0.07421143
v -0.00813496 0.15693981 0.07421143
v 0.00813148 0.16381929 0.17573267
v -0.02440141 0.16381929 0.17573267
v -0.03932826 0.17276385 0.17573267
v -0.03956748 0.16186906 0.07421143
v -0.02440141 0.15711211 0.07421143
v -0.03333201 0.16422382 0.17573267
v -0.03510218 0.16673339 0.17573267
v -0.03885781 0.16082529 0.07421143
f 1 2 8
f 1 8 12
f 1 12 19
f 1 19 24
f 1 24 27
f 1 27 23
f 1 23 18
f 1 18 17
f 1 17 14
f 1 14 10
f 1 10 3
f 1 3 4
f 1 4 5
f 1 5 6
f 1 6 7
f 1 7 2
f 2 7 9
f 2 9 8
f 3 10 4
f 4 11 15
f 4 15 22
f 4 22 26
f 4 26 25
f 4 25 21
f 4 21 20
f 4 20 13
f 4 13 9
f 4 9 7
f 4 7 6
f 4 6 5
f 4 10 14
f 4 14 16
f 4 16 11
f 8 9 12
f 9 13 12
f 11 16 17
f 11 17 18
f 11 18 15
f 12 13 20
f 12 20 21
f 12 21 19
f 14 17 16
f 15 18 22
f 18 23 22
f 19 21 24
f 21 25 24
f 22 23 27
f 22 27 26
f 24 25 27
f 25 26 27

