# https://github.com/mikedh/trimesh
v -0.69808249 0.16675190 0.25835479
v -0.69808249 0.16262620 0.25932838
v -0.69808249 0.16776570 0.25835479
v -0.20941384 0.16455682 0.26042714
v -0.25225187 0.16392649 0.26034369
v -0.30107463 0.16335349 0.26024633
v -0.05815777 0.15621283 0.26222131
v -0.69808249 0.15782169 0.26231868
v -0.20941384 0.16464937 0.26042714
v -0.69808249 0.17521048 0.26857742
v -0.05815777 0.17043683 0.26713096
v -0.05462992 0.18243929 0.37067856
v -0.05815777 0.14555475 0.27062196
v -0.31732791 0.15510206 0.26361215
v -0.69808249 0.15448938 0.26529504
v -0.69808249 0.17993125 0.28483627
v -0.31732791 0.17805352 0.28483627
v -0.05815777 0.17607882 0.28485018
v -0.05462992 0.18602724 0.37802216
v -0.05462992 0.18243929 0.39563013
v -0.05815777 0.14235469 0.35354348
v -0.05815777 0.14279107 0.28485018
v -0.05815777 0.14298501 0.28380706
v -0.69808249 0.14740162 0.27343142
v -0.69146779 0.14738841 0.27338970
v -0.07327708 0.14562087 0.27064977
v -0.69808249 0.14975981 0.27010735
v -0.69808249 0.18369110 0.38019186
v -0.05462992 0.18738484 0.38265363
v -0.05815777 0.17157405 0.39837006
v -0.05815777 0.15649934 0.40037288
v -0.05815777 0.14235469 0.40044241
v -0.05462992 0.18478865 0.39455917
v -0.69808249 0.18238199 0.39308491
v -0.69808249 0.17331953 0.39653416
v -0.19290859 0.14235469 0.35578274
v -0.69808249 0.14235910 0.35682586
v -0.69808249 0.14648040 0.28483627
v -0.69808249 0.14684624 0.28019089
v -0.69808249 0.18379689 0.38464253
v -0.05462992 0.18587738 0.39080393
v -0.69808249 0.15649934 0.39788327
v -0.69808249 0.14235910 0.39766073
v -0.16871769 0.14235469 0.39964964
v -0.19290859 0.14235469 0.39946882
f 1 2 8
f 1 8 15
f 1 15 27
f 1 27 24
f 1 24 39
f 1 39 38
f 1 38 37
f 1 37 43
f 1 43 42
f 1 42 35
f 1 35 34
f 1 34 40
f 1 40 28
f 1 28 16
f 1 16 10
f 1 10 3
f 1 3 9
f 1 9 4
f 1 4 5
f 1 5 6
f 1 6 7
f 1 7 2
f 2 7 8
f 3 10 11
f 3 11 9
f 4 9 7
f 4 7 5
f 5 7 6
f 7 11 12
f 7 12 13
f 7 13 14
f 7 14 8
f 7 9 11
f 8 14 13
f 8 13 15
f 10 16 17
f 10 17 11
f 11 18 19
f 11 19 12
f 11 17 18
f 12 19 29
f 12 29 41
f 12 41 33
f 12 33 20
f 12 20 32
f 12 32 21
f 12 21 22
f 12 22 23
f 12 23 13
f 13 23 24
f 13 24 25
f 13 25 26
f 13 26 27
f 13 27 15
f 16 28 29
f 16 29 17
f 17 29 18
f 18 29 19
f 20 30 31
f 20 31 32
f 20 33 34
f 20 34 35
f 20 35 30
f 21 32 44
f 21 44 45
f 21 45 36
f 21 36 37
f 21 37 22
f 22 37 38
f 22 38 39
f 22 39 24
f 22 24 23
f 24 27 25
f 25 27 26
f 28 40 29
f 29 40 34
f 29 34 41
f 30 35 31
f 31 35 42
f 31 42 32
f 32 42 43
f 32 43 44
f 33 41 34
f 36 45 43
f 36 43 37
f 43 45 44

