# https://github.com/mikedh/trimesh
v -0.69814547 0.17687381 0.04077378
v -0.69814547 0.16921304 0.02981460
v -0.69814547 0.17324449 0.05600605
v -0.19293116 0.17267001 0.05539241
v -0.25223141 0.17322422 0.04077378
v -0.69814547 0.16313713 0.02934798
v -0.19293116 0.17212595 0.04028159
v -0.20994475 0.16466455 0.03262710
v -0.69814547 0.15649689 0.06014810
v -0.19293116 0.15649689 0.06192189
v -0.19293116 0.17267001 0.04600248
v -0.21968799 0.17282884 0.04077378
v -0.69814547 0.14688628 0.02970913
v -0.20994475 0.16249507 0.03262710
v -0.30104653 0.15649689 0.03202625
v -0.30104653 0.14235470 0.03209976
v -0.30317324 0.14235470 0.03208697
v -0.31731826 0.14235470 0.03200388
v -0.19293116 0.16147115 0.03500814
v -0.19293116 0.15661517 0.03280928
v -0.69814547 0.14235470 0.06016408
v -0.19293116 0.14235470 0.06199860
v -0.19293116 0.15147869 0.06195066
v -0.69814547 0.14235470 0.03011502
v -0.19293116 0.14729855 0.03286681
v -0.20346575 0.14235470 0.03280928
v -0.21825370 0.14235470 0.03268463
v -0.22488108 0.14448025 0.03261751
v -0.23516837 0.14235470 0.03255679
v -0.27062980 0.14235470 0.03231070
v -0.19293116 0.14235470 0.03289877
v -0.22260602 0.14235470 0.03264947
v -0.22923339 0.14235470 0.03259834
f 1 2 6
f 1 6 13
f 1 13 24
f 1 24 21
f 1 21 9
f 1 9 3
f 1 3 4
f 1 4 5
f 1 5 2
f 2 5 7
f 2 7 8
f 2 8 6
f 3 9 10
f 3 10 4
f 4 10 23
f 4 23 22
f 4 22 31
f 4 31 25
f 4 25 20
f 4 20 19
f 4 19 7
f 4 7 11
f 4 11 5
f 5 11 12
f 5 12 7
f 6 8 14
f 6 14 15
f 6 15 16
f 6 16 17
f 6 17 18
f 6 18 13
f 7 12 11
f 7 19 8
f 8 19 20
f 8 20 14
f 9 21 22
f 9 22 23
f 9 23 10
f 13 18 24
f 14 20 25
f 14 25 26
f 14 26 27
f 14 27 28
f 14 28 29
f 14 29 30
f 14 30 15
f 15 30 16
f 16 30 29
f 16 29 33
f 16 33 32
f 16 32 27
f 16 27 26
f 16 26 31
f 16 31 22
f 16 22 21
f 16 21 24
f 16 24 18
f 16 18 17
f 25 31 26
f 27 32 28
f 28 32 33
f 28 33 29

