# https://github.com/mikedh/trimesh
v 0.68524144 -0.15198969 -0.27033050
v 0.68524144 -0.16891543 -0.27021199
v 0.68524144 -0.15198969 -0.29960549
v 0.52873407 -0.15198969 -0.27033050
v 0.68524144 -0.18517928 -0.27094488
v 0.52873407 -0.16891543 -0.27024317
v 0.68524144 -0.15239493 -0.29960549
v 0.05650395 -0.15198969 -0.30206612
v 0.51248632 -0.15198969 -0.27036168
v 0.68524144 -0.19562560 -0.27412592
v 0.51248632 -0.16891543 -0.27027435
v 0.51248632 -0.18517928 -0.27159044
v 0.05650395 -0.19432431 -0.27551685
v 0.68524144 -0.16267015 -0.29955872
v 0.05650395 -0.15220132 -0.30206612
v 0.05650395 -0.15198969 -0.29270075
v 0.49685405 -0.15198969 -0.27043652
v 0.49623858 -0.16891543 -0.27034922
v 0.68524144 -0.19798953 -0.28463274
v 0.05650395 -0.19666123 -0.28463274
v 0.05650395 -0.18521079 -0.27363004
v 0.49623858 -0.18517928 -0.27165905
v 0.05650395 -0.18556200 -0.27368306
v 0.68524144 -0.16891543 -0.29952441
v 0.05650395 -0.16846966 -0.30198192
v 0.05650395 -0.15200770 -0.27291587
v 0.05699628 -0.15198969 -0.27291587
v 0.49623858 -0.15198969 -0.27043965
v 0.05650395 -0.16935220 -0.27266637
v 0.68524144 -0.19735014 -0.28846872
v 0.05650395 -0.19575167 -0.29566662
v 0.68524144 -0.17893399 -0.29912523
v 0.05650395 -0.16891543 -0.30197881
v 0.05761173 -0.15198969 -0.27290964
v 0.05650395 -0.15308384 -0.27288156
v 0.47992935 -0.15198969 -0.27053008
v 0.46429708 -0.15198969 -0.27061741
v 0.68524144 -0.19567513 -0.29519879
v 0.05650395 -0.18519729 -0.30021987
v 0.68524144 -0.18517928 -0.29856074
v 0.68524144 -0.19189284 -0.29646186
f 1 2 5
f 1 5 10
f 1 10 19
f 1 19 30
f 1 30 38
f 1 38 41
f 1 41 40
f 1 40 32
f 1 32 24
f 1 24 14
f 1 14 7
f 1 7 3
f 1 3 8
f 1 8 16
f 1 16 27
f 1 27 34
f 1 34 37
f 1 37 36
f 1 36 28
f 1 28 17
f 1 17 9
f 1 9 4
f 1 4 2
f 2 4 6
f 2 6 5
f 3 7 15
f 3 15 8
f 4 9 11
f 4 11 6
f 5 6 11
f 5 11 12
f 5 12 13
f 5 13 10
f 7 14 15
f 8 15 25
f 8 25 33
f 8 33 39
f 8 39 31
f 8 31 20
f 8 20 13
f 8 13 23
f 8 23 21
f 8 21 29
f 8 29 35
f 8 35 26
f 8 26 16
f 9 17 18
f 9 18 11
f 10 13 20
f 10 20 19
f 11 18 21
f 11 21 22
f 11 22 12
f 12 22 13
f 13 22 23
f 14 24 25
f 14 25 15
f 16 26 27
f 17 28 18
f 18 28 29
f 18 29 21
f 19 20 31
f 19 31 30
f 21 23 22
f 24 32 33
f 24 33 25
f 26 34 27
f 26 35 34
f 28 36 29
f 29 36 37
f 29 37 35
f 30 31 38
f 31 39 38
f 32 40 33
f 33 40 39
f 34 35 37
f 38 39 41
f 39 40 41

