# https://github.com/mikedh/trimesh
v 0.78914274 0.15649462 0.04075779
v 0.78790292 0.17276144 0.04075779
v 0.78254506 0.18236954 0.17572420
v 0.78871104 0.14235469 0.04075779
v 0.78262255 0.18236954 -0.21620780
v 0.78602101 0.18236954 0.04075779
v 0.70734682 0.18236954 0.17572420
v 0.78205799 0.17712091 0.17572420
v 0.78757082 0.14235469 0.05380173
v 0.78788076 0.14235469 0.03922321
v 0.77065591 0.16319249 -0.21620780
v 0.77712078 0.16641217 -0.21620780
v 0.77879234 0.16725429 -0.21620780
v 0.77948976 0.16892681 -0.21620780
v 0.78205799 0.17538966 -0.21620780
v 0.78251185 0.18094771 -0.21620780
v 0.70674905 0.18236954 -0.21620780
v 0.70869734 0.17755178 0.17572420
v 0.69507024 0.18236954 0.05103949
v 0.67606312 0.17233449 0.05595015
v 0.67606312 0.15730934 0.06274066
v 0.67606312 0.15656513 0.06304758
v 0.67606312 0.14309106 0.06327777
v 0.67606312 0.14235469 0.06327777
v 0.77698796 0.17138268 0.17572420
v 0.78720550 0.14235469 0.05606524
v 0.77708756 0.14235469 0.02069314
v 0.75944207 0.16205268 -0.21620780
v 0.77009135 0.14235469 0.00937561
v 0.67606312 0.15647505 0.03415909
v 0.67606312 0.17235799 0.04152508
v 0.69501487 0.18236954 0.04670430
v 0.70793354 0.17610645 -0.21620780
v 0.67606312 0.14235469 0.03415909
v 0.70925085 0.17558942 0.17572420
v 0.69501487 0.18236954 0.05031056
v 0.67606312 0.17235799 0.05499103
v 0.67734721 0.14235469 0.06335450
v 0.72402927 0.16385052 0.17572420
v 0.71526185 0.16425788 0.17572420
v 0.71373420 0.16675294 0.17572420
v 0.71005897 0.17276144 0.17572420
v 0.77480716 0.16898556 0.17572420
v 0.77449722 0.14235469 0.06231866
v 0.77241607 0.16758332 0.17572420
v 0.76667073 0.16422263 0.17572420
v 0.75656385 0.16176284 -0.21620780
v 0.75656385 0.14235469 0.00231654
v 0.70857559 0.17276144 -0.21620780
v 0.71377847 0.16323557 -0.21620780
v 0.72402927 0.16180592 -0.21620780
v 0.72402927 0.14235469 0.00630645
v 0.71153129 0.14235469 0.06350796
v 0.74029103 0.16381527 0.17572420
v 0.72882252 0.16383878 0.17572420
v 0.77283671 0.14235469 0.06308595
v 0.75949739 0.16392494 0.17572420
v 0.74029103 0.14235469 0.00189453
v 0.74029103 0.16176284 -0.21620780
v 0.73715825 0.14235469 0.00239327
v 0.72402927 0.14235469 0.06354632
v 0.75656385 0.16381527 0.17572420
v 0.75656385 0.14235469 0.06339286
v 0.74402159 0.14235469 0.06346959
f 1 2 3
f 1 3 4
f 1 4 5
f 1 5 2
f 2 6 3
f 2 5 6
f 3 7 18
f 3 18 35
f 3 35 42
f 3 42 41
f 3 41 40
f 3 40 39
f 3 39 55
f 3 55 54
f 3 54 62
f 3 62 57
f 3 57 46
f 3 46 45
f 3 45 43
f 3 43 25
f 3 25 8
f 3 8 4
f 3 6 5
f 3 5 17
f 3 17 32
f 3 32 36
f 3 36 19
f 3 19 7
f 4 8 9
f 4 9 26
f 4 26 44
f 4 44 56
f 4 56 63
f 4 63 64
f 4 64 61
f 4 61 53
f 4 53 38
f 4 38 24
f 4 24 34
f 4 34 52
f 4 52 60
f 4 60 58
f 4 58 48
f 4 48 29
f 4 29 27
f 4 27 10
f 4 10 11
f 4 11 12
f 4 12 13
f 4 13 14
f 4 14 15
f 4 15 16
f 4 16 5
f 5 16 15
f 5 15 14
f 5 14 13
f 5 13 12
f 5 12 11
f 5 11 28
f 5 28 47
f 5 47 59
f 5 59 51
f 5 51 50
f 5 50 49
f 5 49 33
f 5 33 17
f 7 19 20
f 7 20 21
f 7 21 22
f 7 22 23
f 7 23 24
f 7 24 18
f 8 25 26
f 8 26 9
f 10 27 11
f 11 27 29
f 11 29 28
f 17 30 31
f 17 31 32
f 17 33 34
f 17 34 30
f 18 24 35
f 19 36 20
f 20 36 37
f 20 37 31
f 20 31 30
f 20 30 34
f 20 34 24
f 20 24 23
f 20 23 22
f 20 22 21
f 24 38 39
f 24 39 40
f 24 40 41
f 24 41 42
f 24 42 35
f 25 43 26
f 26 43 45
f 26 45 46
f 26 46 44
f 28 29 47
f 29 48 47
f 31 37 36
f 31 36 32
f 33 49 34
f 34 49 50
f 34 50 51
f 34 51 52
f 38 53 54
f 38 54 55
f 38 55 39
f 44 46 56
f 46 57 56
f 47 48 58
f 47 58 59
f 51 59 58
f 51 58 60
f 51 60 52
f 53 61 54
f 54 61 62
f 56 57 62
f 56 62 63
f 61 64 62
f 62 64 63

