# https://github.com/mikedh/trimesh
v -0.04339403 0.18229880 -0.44757135
v -0.04339403 0.18244007 -0.44757135
v -0.04182538 0.17276402 -0.44757135
v -0.19283934 0.15649600 -0.41894098
v -0.19283934 0.16093773 -0.41681948
v -0.19283934 0.16896186 -0.41292056
v -0.19283934 0.17053530 -0.40779846
v -0.19283934 0.17334081 -0.39850983
v -0.19283934 0.17469059 -0.28463817
v -0.04551382 0.18244007 -0.41538609
v 0.03296086 0.18244007 -0.44757135
v -0.04174059 0.17261491 -0.44757135
v -0.19283934 0.14866413 -0.41490828
v -0.03580517 0.16252294 -0.44757135
v -0.19283934 0.16834583 -0.27466150
v -0.04318205 0.18244007 -0.25233824
v -0.05335705 0.18244007 -0.28331943
v -0.05335705 0.18244007 -0.28681698
v -0.05280590 0.18244007 -0.29585715
v 0.03681888 0.18244007 -0.42471293
v 0.24019170 0.17541257 -0.28463817
v 0.24019170 0.16935032 -0.39850983
v 0.24019170 0.16872644 -0.40168248
v 0.24019170 0.16696858 -0.41047419
v 0.24019170 0.15649600 -0.41657102
v 0.03283367 0.17859475 -0.44757135
v -0.19283934 0.14438328 -0.41267211
v -0.02457028 0.16045511 -0.44757135
v -0.19283934 0.15649600 -0.27276938
v -0.19283934 0.14235469 -0.27271204
v -0.04318205 0.18232235 -0.25233824
v 0.03308805 0.18244007 -0.25233824
v 0.03855711 0.18244007 -0.40644147
v 0.24019170 0.17013900 -0.27317075
v 0.03889628 0.18244007 -0.39850983
v 0.04368701 0.18244007 -0.28463817
v 0.24019170 0.15274879 -0.41555808
v 0.02214992 0.16252687 -0.44757135
v 0.02227711 0.16264065 -0.44757135
v 0.03024753 0.17045683 -0.44757135
v -0.09986528 0.14235469 -0.40760732
v -0.11576371 0.14235469 -0.40726329
v -0.13161975 0.14235469 -0.40691926
v -0.14747580 0.14235469 -0.40655615
v -0.17918787 0.14235469 -0.40579164
v -0.19283934 0.14309237 -0.40806602
v -0.02440070 0.16042764 -0.44757135
v -0.02440070 0.14360245 -0.41292056
v 0.01172055 0.14235469 -0.40978613
v -0.00426268 0.14235469 -0.40951857
v -0.02020351 0.14235469 -0.40923185
v -0.03618674 0.14235469 -0.40890697
v -0.08396684 0.14235469 -0.40793224
v -0.19283934 0.14235469 -0.40542851
v -0.02440070 0.14235469 -0.27038032
v -0.02440070 0.16082787 -0.25233824
v -0.03521164 0.16279368 -0.25233824
v -0.04114705 0.17251682 -0.25233824
v 0.03300326 0.17848489 -0.25233824
v 0.24019170 0.14235469 -0.26971139
v 0.24019170 0.14610582 -0.26973049
v 0.24019170 0.15649600 -0.26978786
v 0.24019170 0.16012159 -0.27068612
v 0.24019170 0.14238607 -0.41274857
v 0.02198034 0.16249547 -0.44757135
v -0.00812070 0.14352790 -0.41293967
v 0.00815930 0.16042764 -0.44757135
v 0.23590972 0.14239786 -0.41274857
v 0.02766138 0.14235469 -0.41001548
v -0.02189934 0.14235469 -0.27036122
v -0.00812070 0.16061205 -0.25233824
v 0.02965399 0.17036658 -0.25233824
v 0.23802947 0.14235469 -0.26971139
v 0.24019170 0.14235469 -0.38130867
v 0.02159878 0.16264457 -0.25233824
v 0.02130201 0.16259749 -0.25233824
v 0.00815930 0.16067091 -0.25233824
v 0.23599448 0.14235469 -0.41265300
v 0.23590972 0.14235469 -0.41265300
v 0.21992648 0.14235469 -0.41248101
v 0.18783283 0.14235469 -0.41211783
v 0.17176481 0.14235469 -0.41192673
v 0.15573918 0.14235469 -0.41173559
v 0.09163669 0.14235469 -0.41089464
v -0.00812070 0.14235469 -0.27026567
v 0.00815930 0.14235469 -0.27017010
f 1 2 11
f 1 11 26
f 1 26 40
f 1 40 39
f 1 39 38
f 1 38 65
f 1 65 67
f 1 67 47
f 1 47 28
f 1 28 14
f 1 14 12
f 1 12 3
f 1 3 4
f 1 4 2
f 2 4 5
f 2 5 6
f 2 6 7
f 2 7 8
f 2 8 9
f 2 9 10
f 2 10 19
f 2 19 18
f 2 18 17
f 2 17 16
f 2 16 32
f 2 32 36
f 2 36 35
f 2 35 33
f 2 33 20
f 2 20 11
f 3 12 4
f 4 13 27
f 4 27 46
f 4 46 54
f 4 54 30
f 4 30 29
f 4 29 15
f 4 15 9
f 4 9 8
f 4 8 7
f 4 7 6
f 4 6 5
f 4 12 14
f 4 14 13
f 9 15 16
f 9 16 17
f 9 17 18
f 9 18 19
f 9 19 10
f 11 20 21
f 11 21 22
f 11 22 23
f 11 23 24
f 11 24 25
f 11 25 26
f 13 14 27
f 14 28 27
f 15 29 16
f 16 29 30
f 16 30 31
f 16 31 58
f 16 58 57
f 16 57 56
f 16 56 71
f 16 71 77
f 16 77 76
f 16 76 75
f 16 75 72
f 16 72 59
f 16 59 32
f 20 33 21
f 21 34 63
f 21 63 62
f 21 62 61
f 21 61 60
f 21 60 74
f 21 74 64
f 21 64 37
f 21 37 25
f 21 25 24
f 21 24 23
f 21 23 22
f 21 33 35
f 21 35 36
f 21 36 32
f 21 32 34
f 25 37 38
f 25 38 39
f 25 39 40
f 25 40 26
f 27 41 42
f 27 42 43
f 27 43 44
f 27 44 45
f 27 45 46
f 27 28 47
f 27 47 48
f 27 48 49
f 27 49 50
f 27 50 51
f 27 51 52
f 27 52 53
f 27 53 41
f 30 54 45
f 30 45 44
f 30 44 43
f 30 43 42
f 30 42 41
f 30 41 53
f 30 53 52
f 30 52 51
f 30 51 50
f 30 50 49
f 30 49 69
f 30 69 84
f 30 84 83
f 30 83 82
f 30 82 81
f 30 81 80
f 30 80 79
f 30 79 78
f 30 78 74
f 30 74 60
f 30 60 73
f 30 73 86
f 30 86 85
f 30 85 70
f 30 70 55
f 30 55 56
f 30 56 57
f 30 57 58
f 30 58 31
f 32 59 60
f 32 60 61
f 32 61 62
f 32 62 63
f 32 63 34
f 37 64 38
f 38 64 65
f 45 54 46
f 47 66 48
f 47 67 64
f 47 64 68
f 47 68 66
f 48 66 49
f 49 66 69
f 55 70 71
f 55 71 56
f 59 72 60
f 60 72 75
f 60 75 76
f 60 76 77
f 60 77 71
f 60 71 73
f 64 74 78
f 64 78 79
f 64 79 68
f 64 67 65
f 66 68 79
f 66 79 80
f 66 80 81
f 66 81 82
f 66 82 83
f 66 83 84
f 66 84 69
f 70 85 71
f 71 85 86
f 71 86 73

