# https://github.com/mikedh/trimesh
v 0.03684399 0.18244007 0.67457434
v 0.03786589 0.17467882 0.67457434
v 0.03292527 0.18244007 0.63483786
v -0.04633580 0.18244007 0.67457434
v 0.03784900 0.17430999 0.67457434
v 0.03284926 0.18005441 0.63483786
v -0.04194414 0.18244007 0.63483786
v -0.04841340 0.17236772 0.67457434
v 0.03106726 0.14235469 0.67457434
v 0.01728419 0.14235469 0.64990000
v 0.02447976 0.17155156 0.63483786
v -0.03823656 0.17255213 0.63483786
v -0.04272113 0.14237430 0.67457434
v -0.02909853 0.14235469 0.67457434
v 0.01587379 0.14235469 0.64934368
v 0.01717440 0.16856165 0.63483786
v -0.02440282 0.16550109 0.63483786
v -0.02184384 0.14235469 0.64944876
v -0.02974039 0.14235469 0.65251017
v -0.03458810 0.14235469 0.66040692
v -0.04270424 0.14235469 0.67456658
v 0.00812926 0.14235469 0.64859680
v 0.00812926 0.16523820 0.63483786
v -0.00889687 0.16519112 0.63483786
v -0.00812833 0.14235469 0.64830509
v 0.00600100 0.14235469 0.64853847
v -0.00812833 0.16517935 0.63483786
f 1 2 3
f 1 3 7
f 1 7 4
f 1 4 8
f 1 8 13
f 1 13 14
f 1 14 9
f 1 9 5
f 1 5 2
f 2 5 6
f 2 6 3
f 3 6 11
f 3 11 16
f 3 16 23
f 3 23 27
f 3 27 24
f 3 24 17
f 3 17 12
f 3 12 7
f 4 7 8
f 5 9 6
f 6 9 10
f 6 10 11
f 7 12 13
f 7 13 8
f 9 14 21
f 9 21 20
f 9 20 19
f 9 19 18
f 9 18 25
f 9 25 26
f 9 26 22
f 9 22 15
f 9 15 10
f 10 15 11
f 11 15 16
f 12 17 18
f 12 18 19
f 12 19 20
f 12 20 13
f 13 21 14
f 13 20 21
f 15 22 23
f 15 23 16
f 17 24 25
f 17 25 18
f 22 26 23
f 23 26 25
f 23 25 27
f 24 27 25

