# https://github.com/mikedh/trimesh
v -0.69149446 -0.15199914 0.39994513
v -0.69149446 -0.15265216 0.39994513
v -0.69149446 -0.15198969 0.39958010
v -0.70710564 -0.15198969 0.40017979
v -0.75590915 -0.15198969 0.40119666
v -0.74029797 -0.17706891 0.44502644
v -0.73631570 -0.17888596 0.44502644
v -0.72576703 -0.18384502 0.44502644
v -0.71802501 -0.19895880 0.44502644
v -0.71683882 -0.20144779 0.44502644
v -0.69149446 -0.16892052 0.39986692
v -0.71683882 -0.21771615 0.44502644
v -0.69149446 -0.15198969 0.37084696
v -0.77217697 -0.15198969 0.40148347
v -0.77374443 -0.17706891 0.44502644
v -0.69149446 -0.18518889 0.39598194
v -0.71902054 -0.23398453 0.44502644
v -0.69149446 -0.15264269 0.37084696
v -0.71683882 -0.21771615 0.17865826
v -0.71684939 -0.20917030 0.17865826
v -0.71686001 -0.20144779 0.17865826
v -0.72451732 -0.18589867 0.17865826
v -0.73201578 -0.18235919 0.17865826
v -0.74029797 -0.17846955 0.17865826
v -0.73739599 -0.15198969 0.34237456
v -0.77283361 -0.15198969 0.40148347
v -0.78417663 -0.18252008 0.44502644
v -0.78910143 -0.15198969 0.39950189
v -0.79912055 -0.15198969 0.39418287
v -0.79954420 -0.15198969 0.39394821
v -0.69149446 -0.19386725 0.39136691
v -0.71896759 -0.23398453 0.43123351
v -0.72667790 -0.24469760 0.44502644
v -0.72652962 -0.24482064 0.39869360
v -0.72647667 -0.24485849 0.38242365
v -0.72638134 -0.24494366 0.34988376
v -0.72624363 -0.24507616 0.30110001
v -0.72615892 -0.24516133 0.26856013
v -0.72593650 -0.24539793 0.17865826
v -0.69149446 -0.16892052 0.37089911
v -0.71827919 -0.23398453 0.17865826
v -0.69149446 -0.18263364 0.37261996
v -0.75656579 -0.17846955 0.17865826
v -0.75656579 -0.15198969 0.34140985
v -0.74554052 -0.15198969 0.34159236
v -0.78659139 -0.18384502 0.44502644
v -0.79961834 -0.15198969 0.38289297
v -0.79969248 -0.16892052 0.38242365
v -0.79954420 -0.16892052 0.39400036
v -0.79452407 -0.20394625 0.44502644
v -0.79449226 -0.20144779 0.44502644
v -0.69149446 -0.19386725 0.38732551
v -0.71891464 -0.23398453 0.41496355
v -0.72663552 -0.24473547 0.43123351
v -0.74029797 -0.24727177 0.44502644
v -0.74029797 -0.24751783 0.39869360
v -0.74029797 -0.24867243 0.17865826
v -0.69149446 -0.19076310 0.37919053
v -0.77283361 -0.17852633 0.17865826
v -0.76636249 -0.15198969 0.34159236
v -0.79961834 -0.15198969 0.38242365
v -0.79878166 -0.18227402 0.39285311
v -0.79452407 -0.20144779 0.17865826
v -0.79452407 -0.21771615 0.17865826
v -0.79452407 -0.21771615 0.44502644
v -0.77283361 -0.24727177 0.44502644
v -0.77283361 -0.24751783 0.39869360
v -0.77283361 -0.24867243 0.17865826
v -0.78774577 -0.18595547 0.17865826
v -0.79730948 -0.15198969 0.37421046
v -0.78372122 -0.15198969 0.35147426
v -0.77449640 -0.15198969 0.34333930
v -0.76669081 -0.15198969 0.34164451
v -0.79740481 -0.15198969 0.37452336
v -0.79130439 -0.19408491 0.17865826
v -0.79369796 -0.22626203 0.17865826
v -0.79294599 -0.23398453 0.17865826
v -0.79243763 -0.23398453 0.38242365
v -0.79229992 -0.23398453 0.43123351
v -0.79225759 -0.23398453 0.44502644
v -0.79289304 -0.23398453 0.20348034
v -0.79273419 -0.23398453 0.26856013
v -0.79264943 -0.23398453 0.30110001
v -0.78547929 -0.24469760 0.44502644
v -0.78587118 -0.24507616 0.30110001
v -0.78595589 -0.24516133 0.26856013
v -0.78611479 -0.24533169 0.20348034
v -0.78616774 -0.24539793 0.17865826
v -0.78552167 -0.24473547 0.43123351
v -0.78561700 -0.24482064 0.39869360
v -0.78938742 -0.23999408 0.17865826
f 1 2 11
f 1 11 16
f 1 16 31
f 1 31 52
f 1 52 58
f 1 58 42
f 1 42 40
f 1 40 18
f 1 18 13
f 1 13 3
f 1 3 4
f 1 4 5
f 1 5 6
f 1 6 7
f 1 7 8
f 1 8 9
f 1 9 10
f 1 10 12
f 1 12 2
f 2 12 11
f 3 13 25
f 3 25 45
f 3 45 44
f 3 44 60
f 3 60 73
f 3 73 72
f 3 72 71
f 3 71 70
f 3 70 74
f 3 74 61
f 3 61 47
f 3 47 30
f 3 30 29
f 3 29 28
f 3 28 26
f 3 26 14
f 3 14 5
f 3 5 4
f 5 14 6
f 6 15 27
f 6 27 46
f 6 46 51
f 6 51 50
f 6 50 65
f 6 65 80
f 6 80 84
f 6 84 66
f 6 66 55
f 6 55 33
f 6 33 17
f 6 17 12
f 6 12 10
f 6 10 9
f 6 9 8
f 6 8 7
f 6 14 26
f 6 26 15
f 11 12 16
f 12 17 16
f 13 18 19
f 13 19 20
f 13 20 21
f 13 21 22
f 13 22 23
f 13 23 24
f 13 24 25
f 15 26 28
f 15 28 29
f 15 29 30
f 15 30 27
f 16 17 31
f 17 32 31
f 17 33 34
f 17 34 35
f 17 35 36
f 17 36 37
f 17 37 38
f 17 38 39
f 17 39 32
f 18 40 19
f 19 41 39
f 19 39 57
f 19 57 68
f 19 68 88
f 19 88 91
f 19 91 77
f 19 77 76
f 19 76 64
f 19 64 63
f 19 63 75
f 19 75 69
f 19 69 59
f 19 59 43
f 19 43 24
f 19 24 23
f 19 23 22
f 19 22 21
f 19 21 20
f 19 40 42
f 19 42 41
f 24 43 44
f 24 44 45
f 24 45 25
f 27 30 46
f 30 47 48
f 30 48 49
f 30 49 50
f 30 50 51
f 30 51 46
f 31 32 53
f 31 53 39
f 31 39 41
f 31 41 52
f 32 39 53
f 33 54 34
f 33 55 56
f 33 56 57
f 33 57 54
f 34 54 57
f 34 57 37
f 34 37 35
f 35 37 36
f 37 57 38
f 38 57 39
f 41 42 58
f 41 58 52
f 43 59 60
f 43 60 44
f 47 61 48
f 48 62 49
f 48 61 63
f 48 63 64
f 48 64 62
f 49 62 65
f 49 65 50
f 55 66 67
f 55 67 56
f 56 67 68
f 56 68 57
f 59 69 70
f 59 70 71
f 59 71 72
f 59 72 73
f 59 73 60
f 61 74 69
f 61 69 75
f 61 75 63
f 62 64 76
f 62 76 77
f 62 77 65
f 65 78 79
f 65 79 80
f 65 77 81
f 65 81 82
f 65 82 83
f 65 83 78
f 66 84 67
f 67 84 68
f 68 85 86
f 68 86 87
f 68 87 88
f 68 84 89
f 68 89 90
f 68 90 85
f 69 74 70
f 77 91 81
f 78 83 88
f 78 88 79
f 79 88 80
f 80 90 89
f 80 89 84
f 80 88 87
f 80 87 86
f 80 86 85
f 80 85 90
f 81 91 82
f 82 91 88
f 82 88 83

