# https://github.com/mikedh/trimesh
v -0.04305486 0.18244007 -0.00735663
v -0.04097747 0.17276402 -0.00735663
v -0.19283934 0.14235469 0.03289638
v -0.19283934 0.15661372 0.03280855
v -0.19283934 0.16147137 0.03500446
v -0.19283934 0.17212836 0.04027464
v -0.19283934 0.17266984 0.04599998
v -0.05433215 0.18244007 0.04490601
v 0.03291846 0.18244007 -0.00735663
v -0.03499965 0.16181666 -0.00735663
v -0.19283934 0.14235469 0.06199419
v -0.03427892 0.16134973 -0.00735663
v -0.02440070 0.15753581 -0.00735663
v -0.01138518 0.14235469 0.00228940
v -0.19283934 0.17266984 0.05539048
v -0.05433215 0.18244007 0.05011232
v 0.04216076 0.18244007 0.04020278
v 0.24019170 0.17235595 0.04231085
v 0.24019170 0.15649600 0.03576305
v 0.03291846 0.18231450 -0.00735663
v -0.19283934 0.15072412 0.06195426
v -0.02440070 0.14235469 0.06363912
v -0.02440070 0.15711204 0.07421143
v -0.03885767 0.16082394 0.07421143
v -0.03953601 0.16187158 0.07421143
v -0.04377559 0.17194787 0.07421143
v -0.04411476 0.17309754 0.07421143
v -0.04432674 0.17387837 0.07421143
v -0.04445392 0.18244007 0.07421143
v -0.02317122 0.15733962 -0.00735663
v -0.00812070 0.14235469 0.00189014
v -0.19283934 0.15649600 0.06192232
v -0.05416257 0.18244007 0.05282726
v 0.04220315 0.18244007 0.04861111
v 0.24019170 0.17235595 0.05685177
v 0.24019170 0.14235469 0.03583491
v 0.03283367 0.17947761 -0.00735663
v 0.00815930 0.14235469 0.06384673
v -0.00812070 0.15693939 0.07421143
v 0.03575899 0.18244007 0.07421143
v -0.00812070 0.15596630 -0.00735663
v 0.00815930 0.15644499 -0.00735663
v 0.00815930 0.14235469 0.00273656
v 0.04220315 0.18244007 0.05761834
v 0.24019170 0.15649600 0.06485286
v 0.02092045 0.16078470 -0.00735663
v 0.02867888 0.17065695 -0.00735663
v 0.02901805 0.17134360 -0.00735663
v 0.24019170 0.14235469 0.06494070
v 0.23590972 0.14235469 0.06492473
v 0.23802947 0.14235469 0.06493271
v 0.00815930 0.15693155 0.07421143
v 0.03698847 0.17383913 0.07421143
v 0.24019170 0.14610582 0.06492473
v 0.24019170 0.14454024 0.06493271
v 0.02367617 0.15858346 0.07421143
v 0.00871045 0.15697079 0.07421143
f 1 2 3
f 1 3 4
f 1 4 5
f 1 5 6
f 1 6 7
f 1 7 8
f 1 8 16
f 1 16 33
f 1 33 29
f 1 29 40
f 1 40 44
f 1 44 34
f 1 34 17
f 1 17 9
f 1 9 20
f 1 20 37
f 1 37 48
f 1 48 47
f 1 47 46
f 1 46 42
f 1 42 41
f 1 41 30
f 1 30 13
f 1 13 12
f 1 12 10
f 1 10 2
f 2 10 3
f 3 11 21
f 3 21 32
f 3 32 15
f 3 15 7
f 3 7 6
f 3 6 5
f 3 5 4
f 3 10 12
f 3 12 13
f 3 13 14
f 3 14 31
f 3 31 43
f 3 43 36
f 3 36 49
f 3 49 51
f 3 51 50
f 3 50 38
f 3 38 22
f 3 22 11
f 7 15 16
f 7 16 8
f 9 17 18
f 9 18 19
f 9 19 20
f 11 22 23
f 11 23 24
f 11 24 25
f 11 25 26
f 11 26 27
f 11 27 28
f 11 28 29
f 11 29 21
f 13 30 31
f 13 31 14
f 15 32 29
f 15 29 33
f 15 33 16
f 17 34 18
f 18 35 45
f 18 45 54
f 18 54 55
f 18 55 49
f 18 49 36
f 18 36 19
f 18 34 44
f 18 44 35
f 19 36 20
f 20 36 37
f 21 29 32
f 22 38 39
f 22 39 23
f 23 39 52
f 23 52 57
f 23 57 56
f 23 56 53
f 23 53 40
f 23 40 29
f 23 29 28
f 23 28 27
f 23 27 26
f 23 26 25
f 23 25 24
f 30 41 31
f 31 41 42
f 31 42 43
f 35 44 40
f 35 40 45
f 36 46 47
f 36 47 48
f 36 48 37
f 36 43 42
f 36 42 46
f 38 50 39
f 39 50 51
f 39 51 49
f 39 49 52
f 40 53 54
f 40 54 45
f 49 55 53
f 49 53 56
f 49 56 57
f 49 57 52
f 53 55 54

