# https://github.com/mikedh/trimesh
v 0.68524144 -0.15198969 0.40186581
v 0.65890044 -0.16891241 0.40195326
v 0.68524144 -0.15264281 0.40186894
v 0.68524144 -0.15198969 0.37256617
v 0.52873407 -0.15198969 0.40186581
v 0.68524144 -0.18517783 0.39767213
v 0.68524144 -0.16891241 0.40159102
v 0.68524144 -0.15888940 0.40181586
v 0.52873407 -0.16891241 0.40195326
v 0.68524144 -0.16267002 0.37225079
v 0.05650395 -0.15198969 0.37005557
v 0.51248632 -0.15198969 0.40183458
v 0.68524144 -0.19476124 0.39232930
v 0.51248632 -0.16891241 0.40192203
v 0.51248632 -0.18517783 0.39728492
v 0.05650395 -0.19395321 0.39138626
v 0.68524144 -0.16891241 0.37227889
v 0.05650395 -0.16891241 0.37009305
v 0.05650395 -0.15198969 0.37943284
v 0.49685405 -0.15198969 0.40175964
v 0.49623858 -0.16891241 0.40184709
v 0.68524144 -0.19476124 0.39104279
v 0.05650395 -0.19397832 0.39096472
v 0.49623858 -0.18517783 0.39723808
v 0.05650395 -0.18519039 0.39579543
v 0.05650395 -0.18556720 0.39569239
v 0.68524144 -0.17812321 0.37278475
v 0.05650395 -0.18355339 0.37208530
v 0.68524144 -0.18270348 0.37310638
v 0.05650395 -0.15201062 0.39928027
v 0.05699628 -0.15198969 0.39928340
v 0.49623858 -0.15198969 0.40175651
v 0.05650395 -0.16934365 0.39943017
v 0.68524144 -0.19470263 0.38526591
v 0.05650395 -0.19397832 0.38687408
v 0.05650395 -0.19146629 0.37853663
v 0.68524144 -0.18946504 0.37854289
v 0.05650395 -0.15308661 0.39930214
v 0.13897343 -0.15198969 0.39974555
v 0.47992935 -0.15198969 0.40166596
v 0.46368160 -0.15198969 0.40157541
v 0.68524144 -0.19227013 0.38188098
v 0.05650395 -0.19162539 0.37879583
v 0.31794449 -0.15198969 0.40075417
f 1 2 3
f 1 3 8
f 1 8 7
f 1 7 6
f 1 6 13
f 1 13 22
f 1 22 34
f 1 34 42
f 1 42 37
f 1 37 29
f 1 29 27
f 1 27 17
f 1 17 10
f 1 10 4
f 1 4 11
f 1 11 19
f 1 19 31
f 1 31 39
f 1 39 44
f 1 44 41
f 1 41 40
f 1 40 32
f 1 32 20
f 1 20 12
f 1 12 5
f 1 5 9
f 1 9 2
f 2 6 7
f 2 7 8
f 2 8 3
f 2 9 6
f 4 10 11
f 5 12 14
f 5 14 9
f 6 9 14
f 6 14 15
f 6 15 16
f 6 16 13
f 10 17 18
f 10 18 11
f 11 18 28
f 11 28 36
f 11 36 43
f 11 43 35
f 11 35 23
f 11 23 16
f 11 16 26
f 11 26 25
f 11 25 33
f 11 33 38
f 11 38 30
f 11 30 19
f 12 20 21
f 12 21 14
f 13 16 23
f 13 23 35
f 13 35 22
f 14 24 15
f 14 21 25
f 14 25 26
f 14 26 24
f 15 24 16
f 16 24 26
f 17 27 18
f 18 27 29
f 18 29 28
f 19 30 31
f 20 32 21
f 21 32 33
f 21 33 25
f 22 35 34
f 28 29 37
f 28 37 36
f 30 38 31
f 31 38 39
f 32 40 33
f 33 40 41
f 33 41 38
f 34 35 43
f 34 43 36
f 34 36 42
f 36 37 42
f 38 44 39
f 38 41 44

