# https://github.com/mikedh/trimesh
v 0.79074337 0.13107149 0.38244588
v 0.79058786 0.09141045 0.38244588
v 0.78810022 0.13107149 0.37710924
v 0.78856664 0.13107149 0.38979460
v 0.78685638 0.09141045 0.39559097
v 0.78670092 0.07513778 0.39537110
v 0.79027690 0.07513778 0.38244588
v 0.78452420 0.07513778 0.37080652
v 0.78467970 0.13107149 0.37050671
v 0.78685638 0.13107149 0.39549104
v 0.78685638 0.10768313 0.39555099
v 0.77270787 0.09141045 0.40063448
v 0.77270787 0.07513778 0.40036798
v 0.78312490 0.01326471 0.39371214
v 0.77270787 0.01326471 0.39891556
v 0.78328040 0.01326471 0.39150688
v 0.78343586 0.01326471 0.38244588
v 0.78312490 0.01326471 0.38069365
v 0.78125918 0.01326471 0.37357811
v 0.78063726 0.01326471 0.37197911
v 0.77783866 0.01326471 0.36544987
v 0.77643936 0.01326471 0.36241178
v 0.77053115 0.01326471 0.34991295
v 0.76959831 0.01326471 0.34820735
v 0.76773255 0.13107149 0.33858004
v 0.77084211 0.13107149 0.34417654
v 0.77892700 0.13107149 0.39828261
v 0.77270787 0.13107149 0.40044127
v 0.75653810 0.09141045 0.40070777
v 0.75653810 0.01326471 0.40099424
v 0.76540036 0.01326471 0.34125172
v 0.76166888 0.13107149 0.33725423
v 0.75653810 0.13107149 0.40051456
v 0.74021287 0.13107149 0.40058783
v 0.70771791 0.09141045 0.40091431
v 0.33348156 0.09141045 0.40248664
v 0.26833611 0.09141045 0.40275980
v 0.25216639 0.09141045 0.40279978
v 0.25216639 0.07513778 0.40261322
v 0.21951593 0.01326471 0.40099424
v 0.76369010 0.01326471 0.34113179
v 0.75653810 0.13107149 0.33671457
v 0.29181335 0.13107149 0.40245333
v 0.28466135 0.10768313 0.40260658
v 0.27548812 0.13107149 0.40251995
v 0.26833611 0.10768313 0.40267320
v 0.25916291 0.13107149 0.40257327
v 0.25216639 0.10768313 0.40271318
v -0.77274686 0.01326471 0.40072774
v 0.75653810 0.01326471 0.34066542
v 0.74923064 0.13107149 0.33666792
v 0.26833611 0.13107149 0.40254660
v 0.26833611 0.12394427 0.40258658
v 0.25216639 0.13107149 0.40258658
v 0.25216639 0.12394427 0.40262656
v -0.77274686 0.02634282 0.40065445
v -0.78907204 0.02634282 0.39631719
v -0.78907204 0.01326471 0.39635715
v 0.74021287 0.13107149 0.33662128
v 0.74021287 0.01326471 0.34059879
v 0.23584116 0.13107149 0.40253995
v -0.75642163 0.13107149 0.39763634
v -0.77274686 0.04260396 0.40014810
v -0.78907204 0.04260396 0.39573756
v -0.79731243 0.04260396 0.39095388
v -0.79746789 0.02634282 0.39121371
v -0.79762340 0.01326471 0.39122038
v -0.00810436 0.13107149 0.33473580
v -0.75642163 0.01326471 0.34059879
v -0.76466197 0.13107149 0.39565760
v -0.77088109 0.13107149 0.39409857
v -0.79715693 0.05080373 0.39065407
v -0.79731243 0.04260396 0.38892849
v -0.79762340 0.01326471 0.38787582
v -0.75642163 0.13107149 0.33646138
v -0.75937568 0.01326471 0.34071871
v -0.77554546 0.13107149 0.39084728
v -0.78596248 0.13107149 0.36618274
v -0.79715693 0.05080373 0.39022766
v -0.77912144 0.13107149 0.38827556
v -0.78347484 0.13107149 0.38014066
v -0.79746789 0.02634282 0.38783584
v -0.79622405 0.04260396 0.38079359
v -0.79637955 0.02634282 0.37970093
v -0.79637955 0.01326471 0.37974091
v -0.77057013 0.01326471 0.34118508
v -0.77243590 0.13107149 0.33822028
v -0.78363030 0.13107149 0.34991295
v -0.78098720 0.13107149 0.34156484
v -0.79093781 0.02634282 0.36618274
v -0.79093781 0.01326471 0.36618274
v -0.77212494 0.01326471 0.34141828
v -0.77865502 0.01326471 0.34243098
v -0.77943240 0.04260396 0.34224442
v -0.78052074 0.09141045 0.34191130
v -0.78083170 0.11409532 0.34176472
v -0.78098720 0.12394427 0.34174474
v -0.78363030 0.01326471 0.35056588
f 1 2 3
f 1 3 9
f 1 9 26
f 1 26 25
f 1 25 32
f 1 32 42
f 1 42 51
f 1 51 59
f 1 59 68
f 1 68 75
f 1 75 87
f 1 87 89
f 1 89 88
f 1 88 78
f 1 78 81
f 1 81 80
f 1 80 77
f 1 77 71
f 1 71 70
f 1 70 62
f 1 62 61
f 1 61 54
f 1 54 47
f 1 47 52
f 1 52 45
f 1 45 43
f 1 43 34
f 1 34 33
f 1 33 28
f 1 28 27
f 1 27 10
f 1 10 4
f 1 4 5
f 1 5 2
f 2 5 6
f 2 6 7
f 2 7 8
f 2 8 3
f 3 8 9
f 4 10 11
f 4 11 5
f 5 11 12
f 5 12 13
f 5 13 6
f 6 14 7
f 6 13 15
f 6 15 14
f 7 14 16
f 7 16 17
f 7 17 18
f 7 18 19
f 7 19 20
f 7 20 21
f 7 21 22
f 7 22 23
f 7 23 8
f 8 23 24
f 8 24 25
f 8 25 26
f 8 26 9
f 10 27 12
f 10 12 11
f 12 27 28
f 12 28 33
f 12 33 29
f 12 29 30
f 12 30 13
f 13 30 15
f 14 15 30
f 14 30 40
f 14 40 49
f 14 49 58
f 14 58 67
f 14 67 74
f 14 74 85
f 14 85 91
f 14 91 98
f 14 98 93
f 14 93 92
f 14 92 86
f 14 86 76
f 14 76 69
f 14 69 60
f 14 60 50
f 14 50 41
f 14 41 31
f 14 31 24
f 14 24 23
f 14 23 22
f 14 22 21
f 14 21 20
f 14 20 19
f 14 19 18
f 14 18 17
f 14 17 16
f 24 31 25
f 25 31 32
f 29 33 34
f 29 34 35
f 29 35 30
f 30 35 36
f 30 36 37
f 30 37 38
f 30 38 39
f 30 39 40
f 31 41 42
f 31 42 32
f 34 43 44
f 34 44 37
f 34 37 36
f 34 36 35
f 37 44 43
f 37 43 45
f 37 45 46
f 37 46 47
f 37 47 38
f 38 47 48
f 38 48 49
f 38 49 39
f 39 49 40
f 41 50 42
f 42 50 51
f 45 52 53
f 45 53 46
f 46 53 47
f 47 54 55
f 47 55 48
f 47 53 52
f 48 55 49
f 49 55 56
f 49 56 57
f 49 57 58
f 50 59 51
f 50 60 59
f 54 61 56
f 54 56 55
f 56 62 63
f 56 63 57
f 56 61 62
f 57 64 65
f 57 65 66
f 57 66 67
f 57 67 58
f 57 63 64
f 59 60 68
f 60 69 68
f 62 70 63
f 63 70 71
f 63 71 64
f 64 72 65
f 64 71 72
f 65 72 79
f 65 79 73
f 65 73 74
f 65 74 67
f 65 67 66
f 68 69 75
f 69 76 75
f 71 77 72
f 72 78 79
f 72 77 80
f 72 80 81
f 72 81 78
f 73 82 74
f 73 79 83
f 73 83 84
f 73 84 82
f 74 82 84
f 74 84 85
f 75 76 86
f 75 86 87
f 78 88 79
f 79 88 83
f 83 88 89
f 83 89 84
f 84 90 91
f 84 91 85
f 84 89 90
f 86 92 87
f 87 92 93
f 87 93 94
f 87 94 95
f 87 95 89
f 89 95 96
f 89 96 97
f 89 97 91
f 89 91 90
f 91 97 98
f 93 98 94
f 94 98 95
f 95 98 96
f 96 98 97

