# https://github.com/mikedh/trimesh
v 0.78351470 0.01325318 0.38244806
v 0.78989645 -0.08754885 0.38244806
v 0.78117985 0.01325318 0.37357542
v 0.78320340 0.01325318 0.39370831
v 0.78709465 -0.10382080 0.39609594
v 0.79036341 -0.10382080 0.38244806
v 0.78413730 -0.08754885 0.37104981
v 0.77043979 0.01325318 0.34990910
v 0.77635460 0.01325318 0.36241115
v 0.77775555 0.01325318 0.36544670
v 0.78055725 0.01325318 0.37197969
v 0.78662770 -0.08754885 0.39562799
v 0.77277464 0.01325318 0.39891549
v 0.78709465 -0.15198969 0.39622191
v 0.78725030 -0.15198969 0.39567600
v 0.77277464 -0.10382080 0.40160908
v 0.77339724 -0.15198969 0.40164506
v 0.79020776 -0.15198969 0.38244806
v 0.78413730 -0.12009277 0.37106783
v 0.78413730 -0.10382080 0.37104382
v 0.76545889 0.01325318 0.34125245
v 0.76950589 0.01325318 0.34820536
v 0.75969974 0.01325318 0.40059522
v 0.77277464 -0.12009277 0.40169905
v 0.75643099 0.01325318 0.40099717
v 0.75643099 0.01005055 0.40101516
v 0.77277464 -0.15198969 0.40187303
v 0.78382600 -0.15198969 0.37079786
v 0.76545889 -0.00622141 0.34130644
v 0.76374674 0.01325318 0.34113247
v 0.21958320 0.01325318 0.40099717
v 0.21958320 0.01005055 0.40101516
v 0.70771161 -0.15198969 0.40187303
v 0.76483629 -0.15198969 0.34167838
v 0.76499194 -0.12009277 0.34160039
v 0.75643099 0.01325318 0.34066454
v -0.77270579 0.01325318 0.40072721
v 0.21958320 -0.03874915 0.40127313
v 0.52871041 -0.15198969 0.40186705
v 0.76436934 -0.15198969 0.34166638
v 0.75643099 -0.15198969 0.34150440
v 0.74024308 0.01325318 0.34059254
v -0.78904935 0.01325318 0.39635989
v -0.78904935 -0.08754885 0.39908348
v -0.78904935 -0.10382080 0.39928745
v -0.77270579 -0.00622141 0.40082921
v -0.77270579 -0.03874915 0.40099717
v -0.77270579 -0.15198969 0.40150709
v 0.74024308 -0.15198969 0.34143242
v -0.75651788 0.01325318 0.34059254
v -0.79761030 0.01325318 0.39122469
v -0.79947811 -0.08754885 0.39385829
v -0.78904935 -0.15198969 0.39950339
v -0.78842675 -0.15198969 0.39958139
v -0.75651788 -0.15198969 0.34143242
v -0.76632403 -0.15198969 0.34160640
v -0.77052669 0.01005055 0.34119245
v -0.77052669 0.01325318 0.34118646
v -0.79761030 0.01325318 0.38787121
v -0.79978950 -0.08754885 0.38244806
v -0.79947811 -0.13636474 0.39394227
v -0.79947811 -0.15198969 0.39396627
v -0.76850314 -0.07127690 0.34140842
v -0.76663534 -0.15198969 0.34167239
v -0.77862059 0.01005055 0.34245227
v -0.77862059 0.01325318 0.34242827
v -0.77208319 0.01325318 0.34142042
v -0.79636510 0.01325318 0.37973647
v -0.79963376 -0.13636474 0.38244806
v -0.79729900 -0.07849090 0.37407335
v -0.79745465 -0.08754885 0.37397737
v -0.79745465 -0.10382080 0.37403735
v -0.79947811 -0.15198969 0.38244806
v -0.77441794 -0.15198969 0.34334612
v -0.77488499 -0.13636474 0.34326812
v -0.77535194 -0.12009277 0.34318414
v -0.77784234 -0.02249337 0.34264424
v -0.78360150 -0.15198969 0.35148085
v -0.78360150 0.01325318 0.35056300
v -0.79200680 0.01325318 0.36883616
v -0.79729900 -0.15198969 0.37421133
v -0.79091725 0.01325318 0.36617857
f 1 2 3
f 1 3 11
f 1 11 10
f 1 10 9
f 1 9 8
f 1 8 22
f 1 22 21
f 1 21 30
f 1 30 36
f 1 36 42
f 1 42 50
f 1 50 58
f 1 58 67
f 1 67 66
f 1 66 79
f 1 79 82
f 1 82 80
f 1 80 68
f 1 68 59
f 1 59 51
f 1 51 43
f 1 43 37
f 1 37 31
f 1 31 25
f 1 25 23
f 1 23 13
f 1 13 4
f 1 4 2
f 2 5 6
f 2 6 7
f 2 7 8
f 2 8 9
f 2 9 10
f 2 10 11
f 2 11 3
f 2 4 12
f 2 12 5
f 4 5 12
f 4 13 5
f 5 14 15
f 5 15 6
f 5 13 16
f 5 16 17
f 5 17 14
f 6 15 18
f 6 18 19
f 6 19 20
f 6 20 7
f 7 20 21
f 7 21 22
f 7 22 8
f 13 23 16
f 14 17 27
f 14 27 33
f 14 33 39
f 14 39 48
f 14 48 54
f 14 54 53
f 14 53 62
f 14 62 73
f 14 73 81
f 14 81 78
f 14 78 74
f 14 74 64
f 14 64 56
f 14 56 55
f 14 55 49
f 14 49 41
f 14 41 40
f 14 40 34
f 14 34 28
f 14 28 18
f 14 18 15
f 16 24 17
f 16 23 25
f 16 25 26
f 16 26 24
f 17 24 27
f 18 28 19
f 19 28 29
f 19 29 21
f 19 21 20
f 21 29 30
f 24 26 27
f 25 31 32
f 25 32 26
f 26 32 33
f 26 33 27
f 28 34 35
f 28 35 29
f 29 35 34
f 29 34 30
f 30 34 36
f 31 37 32
f 32 38 33
f 32 37 38
f 33 38 39
f 34 40 36
f 36 40 41
f 36 41 49
f 36 49 42
f 37 43 44
f 37 44 45
f 37 45 46
f 37 46 38
f 38 46 47
f 38 47 48
f 38 48 39
f 42 49 55
f 42 55 50
f 43 51 52
f 43 52 44
f 44 52 45
f 45 52 53
f 45 53 54
f 45 54 47
f 45 47 46
f 47 54 48
f 50 55 56
f 50 56 57
f 50 57 58
f 51 59 60
f 51 60 52
f 52 60 61
f 52 61 53
f 53 61 62
f 56 63 57
f 56 64 65
f 56 65 66
f 56 66 63
f 57 63 66
f 57 66 67
f 57 67 58
f 59 68 60
f 60 69 62
f 60 62 61
f 60 68 70
f 60 70 71
f 60 71 72
f 60 72 69
f 62 69 73
f 64 74 75
f 64 75 76
f 64 76 65
f 65 77 78
f 65 78 66
f 65 76 77
f 66 78 79
f 68 80 70
f 69 72 81
f 69 81 73
f 70 80 82
f 70 82 79
f 70 79 71
f 71 79 72
f 72 79 78
f 72 78 81
f 74 78 75
f 75 78 76
f 76 78 77

