# https://github.com/mikedh/trimesh
v 0.25218297 0.14235468 0.27671787
v 0.26844167 0.14235468 0.27724771
v 0.25218297 0.14005077 0.28483758
v 0.23586293 0.14235468 0.27674253
v 0.28470038 0.14235468 0.27799930
v 0.26844167 0.14025620 0.28483758
v 0.23586293 0.14005851 0.28483758
v 0.44262451 0.13107260 0.36868359
v 0.00817979 0.13107260 0.33535464
v -0.00807891 0.13107260 0.33473859
v 0.22702801 0.14235468 0.27690271
v 0.30095908 0.14235468 0.27880017
v 0.31721779 0.14235468 0.27967498
v 0.33353783 0.14235468 0.28061141
v 0.34979653 0.14235468 0.28163407
v 0.36605524 0.14235468 0.28274297
v 0.38231394 0.14235468 0.28395047
v 0.28470038 0.14052900 0.28483758
v 0.14800461 0.14235468 0.27899732
v 0.16377248 0.14235468 0.27854143
v 0.17954035 0.14235468 0.27811019
v 0.19536956 0.14235468 0.27769127
v 0.21113744 0.14235468 0.27728466
v 0.02272059 0.14235468 0.28333439
v 0.03830439 0.14235468 0.28270599
v 0.05388821 0.14235468 0.28210225
v 0.06953337 0.14235468 0.28153549
v 0.08517853 0.14235468 0.28098104
v 0.11659156 0.14235468 0.27994604
v 0.13223673 0.14235468 0.27946551
v 0.33353783 0.14134962 0.28483758
v 0.36605524 0.14189633 0.28483758
v 0.39329623 0.14235468 0.28483758
v 0.44262451 0.14235468 0.35626380
v 0.44262451 0.13107260 0.40181538
v -0.02446032 0.13107260 0.33687015
v -0.01206689 0.14235468 0.28483758
v -0.00807891 0.14235468 0.28465276
v 0.00719813 0.14235468 0.28398742
v 0.44262451 0.14235468 0.40175380
v 0.44262451 0.14022307 0.40176612
v 0.41483130 0.14235468 0.40187701
v 0.43115139 0.13107260 0.40186467
v -0.18416370 0.13107260 0.36726664
v -0.18416370 0.14235468 0.35573398
v 0.38231394 0.14022307 0.40202485
v 0.34979653 0.13107260 0.40220967
v 0.37317226 0.13107260 0.40211112
v 0.33562386 0.14235468 0.40220967
v -0.18416370 0.13107260 0.39962222
v -0.18416370 0.14235468 0.39956061
v 0.28470038 0.13107260 0.40248075
v 0.27058907 0.14235468 0.40248075
v -0.18416370 0.14060852 0.39957293
v -0.03354065 0.13107260 0.40068185
v -0.00807891 0.14235468 0.40134719
v -0.02157670 0.14235468 0.40124861
v -0.03801946 0.14235468 0.40110075
v 0.27555872 0.13107260 0.40251770
v 0.25218297 0.14235468 0.40253001
v 0.25218297 0.14022307 0.40254233
v 0.26844167 0.13107260 0.40254233
v 0.17794516 0.13107260 0.40213575
v 0.00817979 0.14235468 0.40143343
v 0.22672124 0.13107260 0.40246843
v 0.23586293 0.13107260 0.40253001
v 0.23586293 0.14235468 0.40248075
v 0.25218297 0.13107260 0.40257930
v 0.25930001 0.13107260 0.40256699
v 0.24297995 0.13107260 0.40255467
f 1 2 3
f 1 3 4
f 1 4 11
f 1 11 23
f 1 23 22
f 1 22 21
f 1 21 20
f 1 20 19
f 1 19 30
f 1 30 29
f 1 29 28
f 1 28 27
f 1 27 26
f 1 26 25
f 1 25 24
f 1 24 39
f 1 39 38
f 1 38 37
f 1 37 45
f 1 45 51
f 1 51 58
f 1 58 57
f 1 57 56
f 1 56 64
f 1 64 67
f 1 67 60
f 1 60 53
f 1 53 49
f 1 49 42
f 1 42 40
f 1 40 34
f 1 34 33
f 1 33 17
f 1 17 16
f 1 16 15
f 1 15 14
f 1 14 13
f 1 13 12
f 1 12 5
f 1 5 2
f 2 5 6
f 2 6 3
f 3 7 4
f 3 6 8
f 3 8 9
f 3 9 10
f 3 10 7
f 4 7 11
f 5 12 6
f 6 12 13
f 6 13 14
f 6 14 15
f 6 15 16
f 6 16 17
f 6 17 18
f 6 18 8
f 7 19 20
f 7 20 21
f 7 21 22
f 7 22 23
f 7 23 11
f 7 10 24
f 7 24 25
f 7 25 26
f 7 26 27
f 7 27 28
f 7 28 29
f 7 29 30
f 7 30 19
f 8 18 31
f 8 31 32
f 8 32 33
f 8 33 34
f 8 34 40
f 8 40 41
f 8 41 35
f 8 35 43
f 8 43 48
f 8 48 47
f 8 47 52
f 8 52 59
f 8 59 62
f 8 62 69
f 8 69 68
f 8 68 70
f 8 70 66
f 8 66 65
f 8 65 63
f 8 63 55
f 8 55 50
f 8 50 44
f 8 44 36
f 8 36 10
f 8 10 9
f 10 36 37
f 10 37 38
f 10 38 39
f 10 39 24
f 17 33 32
f 17 32 31
f 17 31 18
f 35 41 42
f 35 42 43
f 36 44 37
f 37 44 45
f 40 42 41
f 42 46 47
f 42 47 48
f 42 48 43
f 42 49 46
f 44 50 54
f 44 54 51
f 44 51 45
f 46 49 47
f 47 49 53
f 47 53 52
f 50 55 56
f 50 56 57
f 50 57 58
f 50 58 54
f 51 54 58
f 52 53 59
f 53 60 61
f 53 61 62
f 53 62 59
f 55 63 56
f 56 63 65
f 56 65 66
f 56 66 64
f 60 67 61
f 61 68 69
f 61 69 62
f 61 67 70
f 61 70 68
f 64 66 67
f 66 70 67

