# https://github.com/mikedh/trimesh
v -0.07289324 -0.15199337 0.71074041
v -0.07289324 -0.15226171 0.71074366
v -0.07289324 -0.15199337 0.69875500
v -0.69143390 -0.15199337 0.71221040
v -0.07289324 -0.16891771 0.71083069
v -0.07289324 -0.15200808 0.68158286
v -0.07325659 -0.15199337 0.68159571
v -0.69143390 -0.15199337 0.68307216
v -0.69143390 -0.16891404 0.71229744
v -0.07289324 -0.18485321 0.70531185
v -0.69143390 -0.16892874 0.71229744
v -0.07289324 -0.15302632 0.68156671
v -0.46367481 -0.15199337 0.67939721
v -0.37138422 -0.15199337 0.67991624
v -0.69143390 -0.15264402 0.68307536
v -0.49692121 -0.15199337 0.67954549
v -0.33353541 -0.18895932 0.69158569
v -0.31730582 -0.18887844 0.69158569
v -0.28472554 -0.18870567 0.69158569
v -0.25220586 -0.18852555 0.69158569
v -0.21968612 -0.18833808 0.69158569
v -0.07289324 -0.18746319 0.69158569
v -0.69143390 -0.18484954 0.70602750
v -0.47996494 -0.18954381 0.69158569
v -0.46367481 -0.18952175 0.69158569
v -0.44738469 -0.18946293 0.69158569
v -0.41486495 -0.18933059 0.69158569
v -0.38234524 -0.18919090 0.69158569
v -0.37138422 -0.18913944 0.69158569
v -0.07289324 -0.16891771 0.68163120
v -0.46367481 -0.15264402 0.67940046
v -0.47996494 -0.15199337 0.67936822
v -0.69143390 -0.16891404 0.68315919
v -0.49625506 -0.15199337 0.67953584
v -0.49625506 -0.15264402 0.67953904
v -0.49625506 -0.16891404 0.67962288
v -0.46367481 -0.18198225 0.68148937
v -0.07289324 -0.17971416 0.68253378
v -0.44738469 -0.18190506 0.68153772
v -0.41486495 -0.18173964 0.68162796
v -0.39863539 -0.18165508 0.68167310
v -0.37138422 -0.18150804 0.68175044
v -0.33353541 -0.18129483 0.68185682
v -0.31730582 -0.18120293 0.68190197
v -0.69143390 -0.18485321 0.70601461
v -0.47996494 -0.18200799 0.68147648
v -0.49625506 -0.18942617 0.69158569
v -0.07289324 -0.16927061 0.68165055
v -0.46367481 -0.16891404 0.67948750
v -0.47996494 -0.16891404 0.67945845
v -0.69143390 -0.17744238 0.68332357
v -0.49625506 -0.18186094 0.68156026
v -0.51248467 -0.18158892 0.68170534
v -0.52877480 -0.18130219 0.68185362
v -0.54500436 -0.18099340 0.68200190
v -0.56129449 -0.18067359 0.68215018
v -0.57758466 -0.18033172 0.68229846
v -0.59381422 -0.17997148 0.68244354
v -0.61010435 -0.17959652 0.68259182
v -0.62633391 -0.17920319 0.68274010
v -0.64262403 -0.17879147 0.68288838
v -0.69143390 -0.18524655 0.69157924
v -0.67514377 -0.18570605 0.69158569
v -0.65891421 -0.18614717 0.69158569
v -0.64262403 -0.18656991 0.69158569
v -0.62633391 -0.18697427 0.69158569
v -0.61010435 -0.18736026 0.69158569
v -0.59381422 -0.18772785 0.69158569
v -0.57758466 -0.18807340 0.69158569
v -0.56129449 -0.18839321 0.69158569
v -0.54500436 -0.18869097 0.69158569
v -0.52877480 -0.18896299 0.69158569
v -0.51248467 -0.18920928 0.69158569
v -0.65891421 -0.17835770 0.68303666
v -0.67514377 -0.17790924 0.68318174
f 1 2 5
f 1 5 10
f 1 10 22
f 1 22 38
f 1 38 48
f 1 48 30
f 1 30 12
f 1 12 6
f 1 6 3
f 1 3 7
f 1 7 14
f 1 14 13
f 1 13 32
f 1 32 34
f 1 34 16
f 1 16 8
f 1 8 4
f 1 4 2
f 2 4 5
f 3 6 7
f 4 8 15
f 4 15 33
f 4 33 51
f 4 51 62
f 4 62 45
f 4 45 23
f 4 23 11
f 4 11 9
f 4 9 5
f 5 9 11
f 5 11 10
f 6 12 13
f 6 13 14
f 6 14 7
f 8 16 15
f 10 17 18
f 10 18 19
f 10 19 20
f 10 20 21
f 10 21 22
f 10 11 23
f 10 23 24
f 10 24 25
f 10 25 26
f 10 26 27
f 10 27 28
f 10 28 29
f 10 29 17
f 12 30 13
f 13 31 32
f 13 30 31
f 15 16 33
f 16 34 35
f 16 35 36
f 16 36 33
f 17 29 37
f 17 37 18
f 18 37 19
f 19 37 20
f 20 37 21
f 21 37 22
f 22 37 39
f 22 39 40
f 22 40 41
f 22 41 42
f 22 42 43
f 22 43 44
f 22 44 38
f 23 45 24
f 24 46 25
f 24 45 47
f 24 47 46
f 25 46 37
f 25 37 26
f 26 37 27
f 27 37 28
f 28 37 29
f 30 48 49
f 30 49 31
f 31 49 50
f 31 50 32
f 32 50 36
f 32 36 35
f 32 35 34
f 33 36 51
f 36 52 53
f 36 53 54
f 36 54 55
f 36 55 56
f 36 56 57
f 36 57 58
f 36 58 59
f 36 59 60
f 36 60 61
f 36 61 51
f 36 50 52
f 37 49 38
f 37 38 41
f 37 41 40
f 37 40 39
f 37 46 50
f 37 50 49
f 38 44 42
f 38 42 41
f 38 49 48
f 42 44 43
f 45 62 63
f 45 63 64
f 45 64 65
f 45 65 66
f 45 66 67
f 45 67 68
f 45 68 69
f 45 69 70
f 45 70 71
f 45 71 72
f 45 72 73
f 45 73 47
f 46 47 52
f 46 52 50
f 47 73 52
f 51 61 74
f 51 74 75
f 51 75 62
f 52 73 72
f 52 72 71
f 52 71 70
f 52 70 69
f 52 69 68
f 52 68 67
f 52 67 66
f 52 66 53
f 53 66 65
f 53 65 54
f 54 65 64
f 54 64 55
f 55 64 63
f 55 63 56
f 56 63 62
f 56 62 57
f 57 62 58
f 58 62 59
f 59 62 60
f 60 62 61
f 61 62 74
f 62 75 74

