# https://github.com/mikedh/trimesh
v -0.75654057 0.14235468 0.32623546
v -0.77239570 0.13107260 0.33821887
v -0.76019491 0.14235468 0.32691079
v -0.74027280 0.14235468 0.32632167
v -0.75654057 0.13107260 0.33645872
v -0.78106003 0.13107260 0.34155956
v -0.77104004 0.14235468 0.33204036
v -0.74027280 0.13107260 0.33684665
v -0.18416370 0.14235468 0.35574137
v -0.78359451 0.13107260 0.34990772
v -0.78147263 0.14235468 0.34051784
v -0.18416370 0.13107260 0.36726499
v -0.18416370 0.14235468 0.39955840
v -0.78607003 0.13107260 0.36617297
v -0.78406602 0.14235468 0.34990772
v -0.18416370 0.13107260 0.39962309
v -0.18416370 0.14060852 0.39957278
v -0.75654057 0.14235468 0.39835146
v -0.78495017 0.13107260 0.37226527
v -0.78371234 0.14235468 0.38051283
v -0.78589319 0.14235468 0.36847196
v -0.78630578 0.14235468 0.36617297
v -0.75654057 0.13107260 0.39764022
v -0.77133476 0.14235468 0.39473776
v -0.76467443 0.13107260 0.39565735
v -0.78347659 0.13107260 0.38013925
v -0.77911499 0.13107260 0.38827908
v -0.77923287 0.14235468 0.38840120
v -0.77828980 0.14235468 0.38970155
v -0.77557848 0.13107260 0.39084386
v -0.77098113 0.13107260 0.39409836
f 1 2 3
f 1 3 7
f 1 7 11
f 1 11 15
f 1 15 22
f 1 22 21
f 1 21 20
f 1 20 28
f 1 28 29
f 1 29 24
f 1 24 18
f 1 18 13
f 1 13 9
f 1 9 4
f 1 4 5
f 1 5 2
f 2 5 8
f 2 8 12
f 2 12 16
f 2 16 23
f 2 23 25
f 2 25 31
f 2 31 30
f 2 30 27
f 2 27 26
f 2 26 19
f 2 19 14
f 2 14 10
f 2 10 6
f 2 6 3
f 3 6 7
f 4 8 5
f 4 9 8
f 6 10 11
f 6 11 7
f 8 9 12
f 9 13 17
f 9 17 16
f 9 16 12
f 10 14 15
f 10 15 11
f 13 18 17
f 14 19 20
f 14 20 21
f 14 21 22
f 14 22 15
f 16 18 23
f 16 17 18
f 18 24 25
f 18 25 23
f 19 26 20
f 20 26 27
f 20 27 28
f 24 29 30
f 24 30 31
f 24 31 25
f 27 30 29
f 27 29 28

