# https://github.com/mikedh/trimesh
v 0.05692279 0.14235469 0.40124066
v 0.05692279 0.15647246 0.40119571
v 0.03292263 0.18244007 0.63483781
v 0.03288884 0.18121978 0.63483781
v 0.03284379 0.18005441 0.63483781
v 0.02447583 0.17155156 0.63483781
v 0.01717780 0.16856165 0.63483781
v 0.00813409 0.16523820 0.63483781
v -0.00812881 0.16517935 0.63483781
v 0.00813409 0.14235469 0.40146536
v 0.05692279 0.14235469 0.33976299
v 0.05692279 0.17274048 0.39679161
v -0.04194978 0.18244007 0.63483781
v 0.05692279 0.18150620 0.39153367
v 0.05438876 0.18244007 0.39243246
v -0.00889465 0.16519112 0.63483781
v -0.05813385 0.14235469 0.40047669
v -0.05481144 0.14235469 0.40079126
v -0.03803047 0.14235469 0.40115079
v -0.02160990 0.14235469 0.40128559
v -0.00812881 0.14235469 0.40137549
v 0.05385942 0.14235469 0.28210521
v 0.05692279 0.14235862 0.28206026
v -0.03823319 0.17255213 0.63483781
v -0.05813385 0.18244007 0.39373571
v -0.05813385 0.17276402 0.39809488
v -0.05813385 0.17157511 0.39840945
v -0.05813385 0.15649600 0.40043174
v 0.05692279 0.18151013 0.38766884
v 0.05469284 0.18244007 0.38694979
v -0.02440297 0.16550109 0.63483781
v -0.05813385 0.14235469 0.35360446
v 0.03826100 0.14235469 0.28273436
v -0.02440297 0.16381778 0.17573267
v 0.00813409 0.16381778 0.17573267
v 0.01093843 0.16392766 0.17573267
v 0.01776344 0.16422194 0.17573267
v 0.05692279 0.14501894 0.27042085
v -0.05813385 0.18244007 0.37719785
v 0.05692279 0.17467098 0.28484655
v 0.03294515 0.18244007 0.17573267
v -0.05813385 0.14278237 0.28484655
v -0.05357257 0.14235469 0.32075344
v 0.02269637 0.14235469 0.28336351
v -0.05813385 0.14555257 0.27060063
v -0.03333405 0.16422194 0.17573267
v 0.00716553 0.14235469 0.28399268
v -0.00832027 0.14235469 0.28466677
v 0.02589489 0.17156333 0.17573267
v 0.02797844 0.17396469 0.17573267
v 0.03284379 0.17969734 0.17573267
v 0.05692279 0.15649600 0.26314062
v -0.04242280 0.18244007 0.17573267
v -0.05813385 0.17608354 0.28484655
v 0.05692279 0.16963283 0.26943218
v -0.05813385 0.14297857 0.28381290
v -0.05694003 0.14277060 0.28484655
v -0.01205938 0.14235469 0.28484655
v -0.05813385 0.15620957 0.26224182
v -0.04086859 0.17755888 0.17573267
v -0.04024916 0.17561661 0.17573267
v -0.03932564 0.17276402 0.17573267
v -0.03510225 0.16673316 0.17573267
v -0.05813385 0.17043721 0.26714025
v -0.05813385 0.17048822 0.26727507
f 1 2 3
f 1 3 4
f 1 4 5
f 1 5 6
f 1 6 7
f 1 7 8
f 1 8 9
f 1 9 10
f 1 10 21
f 1 21 20
f 1 20 19
f 1 19 18
f 1 18 17
f 1 17 32
f 1 32 43
f 1 43 58
f 1 58 48
f 1 48 47
f 1 47 44
f 1 44 33
f 1 33 22
f 1 22 11
f 1 11 23
f 1 23 38
f 1 38 52
f 1 52 55
f 1 55 40
f 1 40 29
f 1 29 14
f 1 14 12
f 1 12 2
f 2 12 3
f 3 13 24
f 3 24 31
f 3 31 16
f 3 16 9
f 3 9 8
f 3 8 7
f 3 7 6
f 3 6 5
f 3 5 4
f 3 12 14
f 3 14 15
f 3 15 30
f 3 30 41
f 3 41 53
f 3 53 39
f 3 39 25
f 3 25 13
f 9 16 17
f 9 17 18
f 9 18 19
f 9 19 20
f 9 20 21
f 9 21 10
f 11 22 23
f 13 25 26
f 13 26 27
f 13 27 28
f 13 28 17
f 13 17 24
f 14 29 30
f 14 30 15
f 16 31 17
f 17 31 24
f 17 28 27
f 17 27 26
f 17 26 25
f 17 25 39
f 17 39 54
f 17 54 65
f 17 65 64
f 17 64 59
f 17 59 45
f 17 45 56
f 17 56 42
f 17 42 32
f 22 33 34
f 22 34 23
f 23 34 35
f 23 35 36
f 23 36 37
f 23 37 38
f 29 40 41
f 29 41 30
f 32 42 43
f 33 44 34
f 34 45 46
f 34 46 63
f 34 63 62
f 34 62 61
f 34 61 60
f 34 60 53
f 34 53 41
f 34 41 51
f 34 51 50
f 34 50 49
f 34 49 37
f 34 37 36
f 34 36 35
f 34 44 47
f 34 47 48
f 34 48 45
f 37 49 38
f 38 49 50
f 38 50 51
f 38 51 52
f 39 53 54
f 40 55 41
f 41 55 52
f 41 52 51
f 42 56 57
f 42 57 43
f 43 57 58
f 45 59 53
f 45 53 60
f 45 60 61
f 45 61 62
f 45 62 63
f 45 63 46
f 45 48 56
f 48 58 56
f 53 59 64
f 53 64 65
f 53 65 54
f 56 58 57

