# https://github.com/mikedh/trimesh
v -0.05457908 0.22701948 0.33895060
v -0.05457908 0.22312905 0.33895060
v -0.05457908 0.23707593 0.33814767
v -0.06654831 0.23275664 0.32730855
v -0.06654831 0.22721203 0.32730855
v -0.05457908 0.22096721 0.33764585
v -0.05457908 0.24000361 0.33443427
v -0.06182362 0.24360519 0.32299292
v -0.08154135 0.23016157 0.30934361
v -0.07234395 0.23688338 0.31616826
v -0.66828542 0.23164510 -0.45371299
v -0.68327846 0.22971082 -0.47167788
v -0.08154135 0.22930385 0.30934361
v -0.34196651 0.21323888 -0.03229055
v -0.27733269 0.21291941 0.04960530
v -0.05457908 0.21596524 0.33152376
v -0.22731393 0.21386030 0.11343589
v -0.05457908 0.24569263 0.32680673
v -0.06736727 0.24737309 0.31215380
v -0.69808249 0.23545237 -0.49797287
v -0.69808249 0.23186827 -0.49566454
v -0.69808249 0.22160176 -0.49305510
v -0.68327846 0.22968895 -0.47167788
v -0.56919284 0.21482744 -0.32544962
v -0.45554818 0.21338329 -0.17881990
v -0.55419980 0.21251681 -0.30758508
v -0.69808249 0.21025433 -0.49716994
v -0.32678450 0.21240739 -0.01452638
v -0.05457908 0.20876641 0.31727226
v -0.21219489 0.21305509 0.13099934
v -0.05457908 0.24818705 0.32148752
v -0.05665795 0.24900979 0.31747301
v -0.69146793 0.24368835 -0.51232474
v -0.69808249 0.24110640 -0.51222436
v -0.69241289 0.23760546 -0.49526305
v -0.69808249 0.21906357 -0.49325579
v -0.61832961 0.21330451 -0.39008312
v -0.69808249 0.20907275 -0.50369357
v -0.31147648 0.21193040 0.00303707
v -0.05457908 0.20741417 0.30292044
v -0.54500237 0.20804434 -0.31711953
v -0.52874944 0.20755421 -0.30086077
v -0.05457908 0.24948678 0.31747301
v -0.69808249 0.24434041 -0.52858344
v -0.05457908 0.25161361 0.30101356
v -0.69808249 0.20886269 -0.51232474
v -0.57750829 0.20730478 -0.36589574
v -0.05457908 0.20737041 0.30101356
v -0.56125536 0.20707722 -0.34963698
v -0.69808249 0.24511498 -0.54494252
v -0.05457908 0.24545631 0.18710201
v -0.69808249 0.24647597 -0.67501244
v -0.69165690 0.24686546 -0.65825187
v -0.69808249 0.24719366 -0.65845262
v -0.69808249 0.24721555 -0.64249498
v -0.69808249 0.24571013 -0.57224113
v -0.69808249 0.24546946 -0.56110094
v -0.69808249 0.20879267 -0.51904902
v -0.05457908 0.20691529 0.18981181
v -0.56125536 0.20703346 -0.36589574
v -0.05457908 0.24380650 0.17084329
v -0.05697294 0.24434041 0.17084329
v -0.69808249 0.24635344 -0.67661826
v -0.69808249 0.20884082 -0.52858344
v -0.05457908 0.20692405 0.18710201
v -0.54500237 0.20700282 -0.36589574
v -0.51243347 0.20691968 -0.38215446
v -0.49618054 0.20691090 -0.38215446
v -0.52874944 0.20696781 -0.38215446
v -0.05457908 0.23715470 0.15448419
v -0.69808249 0.24467300 -0.68173672
v -0.69808249 0.20894146 -0.53520735
v -0.51243347 0.20700282 -0.39841319
v -0.05457908 0.20711660 0.17395452
v -0.47992760 0.20695905 -0.36589574
v -0.51243347 0.20742293 -0.41467194
v -0.49618054 0.20740106 -0.39841319
v -0.05457908 0.23459026 0.15368128
v -0.06213861 0.23397323 0.14244067
v -0.56906681 0.23031912 -0.52085553
v -0.68258550 0.23207396 -0.66788672
v -0.69808249 0.23784177 -0.68514905
v -0.09647138 0.23178950 0.09617353
v -0.69808249 0.20925654 -0.55156647
v -0.69808249 0.20958038 -0.56782523
v -0.69808249 0.20980357 -0.57746002
v -0.05457908 0.20720412 0.17084329
v -0.46361163 0.20709034 -0.34963698
v -0.69808249 0.21053440 -0.59452166
v -0.69808249 0.21416224 -0.65473922
v -0.64976464 0.21328265 -0.60335357
v -0.63338569 0.21310321 -0.58729556
v -0.61719574 0.21297193 -0.57073574
v -0.60138372 0.21310760 -0.55377443
v -0.49611755 0.21012304 -0.41447120
v -0.47992760 0.20808374 -0.38215446
v -0.05457908 0.21983377 0.15338021
v -0.06213861 0.22484013 0.14244067
v -0.40666333 0.22985524 -0.30909050
v -0.56906681 0.22808726 -0.52085553
v -0.68258550 0.22818792 -0.66788672
v -0.69808249 0.22738269 -0.68635342
v -0.09647138 0.22624050 0.09617353
v -0.05457908 0.21075757 0.16050593
v -0.48036856 0.21083634 -0.39730922
v -0.48616418 0.21189976 -0.40905166
v -0.69808249 0.21608340 -0.67009467
v -0.69808249 0.21823210 -0.67471137
v -0.58582374 0.21354083 -0.53661247
v -0.53586799 0.21267871 -0.47288220
v -0.55136497 0.21234176 -0.49024496
v -0.05457908 0.21513813 0.15448419
v -0.40666333 0.22848111 -0.30909050
v -0.47047818 0.22157987 -0.39199000
v -0.52055996 0.21342268 -0.45541913
v -0.69757854 0.22658623 -0.68575124
v -0.69808249 0.22621863 -0.68615268
v -0.30908264 0.21336142 -0.17902062
v -0.47117114 0.21282750 -0.39118710
v -0.21106097 0.21298068 -0.04945255
v -0.69808249 0.22268704 -0.68233891
f 1 2 6
f 1 6 16
f 1 16 29
f 1 29 40
f 1 40 48
f 1 48 59
f 1 59 65
f 1 65 74
f 1 74 87
f 1 87 104
f 1 104 112
f 1 112 97
f 1 97 78
f 1 78 70
f 1 70 61
f 1 61 51
f 1 51 45
f 1 45 43
f 1 43 31
f 1 31 18
f 1 18 7
f 1 7 3
f 1 3 4
f 1 4 5
f 1 5 2
f 2 5 6
f 3 7 8
f 3 8 4
f 4 9 13
f 4 13 5
f 4 8 10
f 4 10 11
f 4 11 12
f 4 12 9
f 5 13 14
f 5 14 15
f 5 15 6
f 6 15 17
f 6 17 16
f 7 18 8
f 8 18 19
f 8 19 10
f 9 12 23
f 9 23 13
f 10 19 11
f 11 20 12
f 11 19 20
f 12 20 21
f 12 21 22
f 12 22 23
f 13 23 24
f 13 24 25
f 13 25 14
f 14 25 26
f 14 26 27
f 14 27 28
f 14 28 15
f 15 28 29
f 15 29 30
f 15 30 17
f 16 17 30
f 16 30 29
f 18 31 19
f 19 31 32
f 19 32 33
f 19 33 34
f 19 34 35
f 19 35 20
f 20 34 44
f 20 44 50
f 20 50 57
f 20 57 56
f 20 56 55
f 20 55 54
f 20 54 52
f 20 52 63
f 20 63 71
f 20 71 82
f 20 82 102
f 20 102 117
f 20 117 121
f 20 121 108
f 20 108 107
f 20 107 90
f 20 90 89
f 20 89 86
f 20 86 85
f 20 85 84
f 20 84 72
f 20 72 64
f 20 64 58
f 20 58 46
f 20 46 38
f 20 38 27
f 20 27 36
f 20 36 22
f 20 22 21
f 20 35 34
f 22 36 23
f 23 36 24
f 24 36 37
f 24 37 25
f 25 37 26
f 26 37 27
f 27 37 36
f 27 38 29
f 27 29 39
f 27 39 28
f 28 39 29
f 29 38 41
f 29 41 42
f 29 42 40
f 31 43 32
f 32 43 33
f 33 44 34
f 33 43 45
f 33 45 44
f 38 46 47
f 38 47 42
f 38 42 41
f 40 42 47
f 40 47 49
f 40 49 48
f 44 45 50
f 45 51 52
f 45 52 53
f 45 53 54
f 45 54 55
f 45 55 56
f 45 56 57
f 45 57 50
f 46 58 47
f 47 58 49
f 48 49 59
f 49 58 60
f 49 60 59
f 51 61 62
f 51 62 63
f 51 63 52
f 52 54 53
f 58 64 60
f 59 60 66
f 59 66 67
f 59 67 68
f 59 68 65
f 60 64 69
f 60 69 67
f 60 67 66
f 61 70 71
f 61 71 63
f 61 63 62
f 64 72 73
f 64 73 69
f 65 68 75
f 65 75 74
f 67 69 73
f 67 73 68
f 68 73 76
f 68 76 77
f 68 77 75
f 70 78 79
f 70 79 71
f 71 80 81
f 71 81 82
f 71 79 83
f 71 83 80
f 72 84 73
f 73 84 85
f 73 85 86
f 73 86 76
f 74 75 87
f 75 77 88
f 75 88 87
f 76 86 89
f 76 89 90
f 76 90 91
f 76 91 92
f 76 92 93
f 76 93 77
f 77 93 94
f 77 94 95
f 77 95 96
f 77 96 87
f 77 87 88
f 78 97 79
f 79 97 98
f 79 98 103
f 79 103 83
f 80 99 113
f 80 113 100
f 80 100 101
f 80 101 81
f 80 83 99
f 81 101 102
f 81 102 82
f 83 103 113
f 83 113 99
f 87 96 95
f 87 95 105
f 87 105 106
f 87 106 104
f 90 107 92
f 90 92 91
f 92 107 93
f 93 107 94
f 94 107 108
f 94 108 109
f 94 109 110
f 94 110 111
f 94 111 95
f 95 111 110
f 95 110 106
f 95 106 105
f 97 112 103
f 97 103 98
f 100 113 114
f 100 114 115
f 100 115 101
f 101 116 102
f 101 115 116
f 102 116 117
f 103 112 118
f 103 118 119
f 103 119 114
f 103 114 113
f 104 106 119
f 104 119 120
f 104 120 112
f 106 110 115
f 106 115 119
f 108 121 109
f 109 121 117
f 109 117 115
f 109 115 110
f 112 120 118
f 114 119 115
f 115 117 116
f 118 120 119

