# https://github.com/mikedh/trimesh
v -0.75656176 0.14235469 -0.35179890
v -0.75855195 0.14235469 -0.35170643
v -0.74028822 0.14235469 -0.35101284
v -0.75656176 0.12293636 -0.33509133
v -0.77283530 0.12293636 -0.33338051
v -0.77283530 0.14235469 -0.34912477
v -0.72406060 0.14235469 -0.34633502
v -0.63188466 0.12293636 -0.30337930
v -0.74028822 0.12293636 -0.33408949
v -0.75553607 0.12293636 -0.33502967
v -0.78347513 0.12293636 -0.32848691
v -0.78093382 0.14235469 -0.34525613
v -0.63188466 0.14235469 -0.30347950
v -0.63188466 0.14022011 -0.30347179
v -0.63188466 0.12395708 -0.30338701
v -0.63188466 0.12293636 -0.27426438
v -0.78603172 0.12293636 -0.31716615
v -0.78604705 0.14235469 -0.33884436
v -0.63188466 0.14235469 -0.27436455
v -0.63188466 0.12395708 -0.27426438
v -0.74028822 0.14235469 -0.27306987
v -0.64370326 0.12293636 -0.27428748
v -0.78828215 0.14235469 -0.31716615
v -0.78719522 0.14235469 -0.33329573
v -0.78569492 0.12293636 -0.30090555
v -0.63188466 0.14163620 -0.27435684
v -0.63188466 0.14022011 -0.27434914
v -0.75656176 0.14235469 -0.27323941
v -0.75656176 0.12293636 -0.27458033
v -0.74028822 0.12293636 -0.27453410
v -0.65896643 0.12293636 -0.27432601
v -0.78615421 0.14235469 -0.30090555
v -0.78313833 0.12293636 -0.28922258
v -0.78575616 0.14235469 -0.29880939
v -0.76521140 0.14235469 -0.27424125
v -0.76680354 0.12293636 -0.27555135
v -0.78347513 0.14235469 -0.28869082
v -0.77493265 0.12293636 -0.28109228
v -0.77444277 0.14235469 -0.27947393
v -0.76746183 0.14235469 -0.27462657
f 1 2 6
f 1 6 12
f 1 12 18
f 1 18 24
f 1 24 23
f 1 23 32
f 1 32 34
f 1 34 37
f 1 37 39
f 1 39 40
f 1 40 35
f 1 35 28
f 1 28 21
f 1 21 19
f 1 19 13
f 1 13 7
f 1 7 3
f 1 3 4
f 1 4 2
f 2 4 5
f 2 5 6
f 3 7 8
f 3 8 9
f 3 9 10
f 3 10 4
f 4 10 9
f 4 9 8
f 4 8 16
f 4 16 22
f 4 22 31
f 4 31 30
f 4 30 29
f 4 29 36
f 4 36 38
f 4 38 33
f 4 33 25
f 4 25 17
f 4 17 11
f 4 11 5
f 5 11 6
f 6 11 12
f 7 13 14
f 7 14 15
f 7 15 8
f 8 15 14
f 8 14 13
f 8 13 19
f 8 19 26
f 8 26 27
f 8 27 20
f 8 20 16
f 11 17 18
f 11 18 12
f 16 20 21
f 16 21 22
f 17 23 24
f 17 24 18
f 17 25 23
f 19 21 26
f 20 27 21
f 21 28 29
f 21 29 30
f 21 30 31
f 21 31 22
f 21 27 26
f 23 25 32
f 25 33 34
f 25 34 32
f 28 35 36
f 28 36 29
f 33 37 34
f 33 38 39
f 33 39 37
f 35 40 36
f 36 40 38
f 38 40 39

