# https://github.com/mikedh/trimesh
v -0.69814547 0.14236507 0.70985223
v -0.69814547 0.15649678 0.70970730
v -0.72564081 0.20529841 0.73564798
v -0.72559475 0.18903812 0.73564798
v -0.72777089 0.17699346 0.73448860
v -0.74029806 0.17503101 0.73564798
v -0.74029806 0.14236507 0.71014205
v -0.69814547 0.14236507 -0.30386305
v -0.72613589 0.22156908 0.73535816
v -0.69814547 0.17316202 0.70825810
v -0.74029806 0.20529841 0.73912605
v -0.74029806 0.18903812 0.73927099
v -0.77283647 0.17503101 0.73564798
v -0.75656729 0.14236507 0.71014205
v -0.71368930 0.14236507 -0.33342672
v -0.69814547 0.14405754 -0.39849579
v -0.71905482 0.22156908 0.72405436
v -0.72846172 0.23167206 0.73405385
v -0.74029806 0.22156908 0.73854637
v -0.69814547 0.18399183 0.70362065
v -0.77283647 0.20529841 0.73912605
v -0.77283647 0.18903812 0.73927099
v -0.78464978 0.17699346 0.73448860
v -0.77201899 0.14236507 0.70506984
v -0.72407490 0.14236507 -0.34632459
v -0.69814547 0.14618613 -0.41110382
v -0.74029806 0.14236507 -0.35096205
v -0.75656729 0.14236507 -0.35168664
v -0.75855918 0.14236507 -0.35168664
v -0.75656729 0.14443135 -0.39849579
v -0.77283647 0.15928989 -0.72384116
v -0.74029806 0.15928989 -0.72384116
v -0.72658494 0.16195840 -0.72384116
v -0.72614743 0.23296999 0.72405436
v -0.71803005 0.22156908 0.70782335
v -0.74029806 0.23265848 0.73506829
v -0.74029806 0.23624073 0.72405436
v -0.77283647 0.22156908 0.73854637
v -0.69814547 0.18483287 0.69188215
v -0.78600845 0.22156908 0.73535816
v -0.78644597 0.20529841 0.73564798
v -0.78648054 0.18903812 0.73564798
v -0.79325074 0.18903812 0.72405436
v -0.78712530 0.17417959 0.72405436
v -0.78356751 0.14236507 0.68985327
v -0.77987152 0.14236507 0.69782387
v -0.77912309 0.14236507 0.69898324
v -0.71913541 0.17276745 -0.72384116
v -0.69814547 0.21607630 -0.67007586
v -0.77283647 0.14236507 -0.34907807
v -0.77283647 0.14454556 -0.39849579
v -0.78555939 0.16195840 -0.72384116
v -0.78395896 0.16289290 -0.73413046
v -0.77283647 0.16203109 -0.73514491
v -0.78094230 0.14236507 -0.34516524
v -0.78606601 0.14236507 -0.33878875
v -0.74029806 0.16203109 -0.73514491
v -0.72851927 0.16289290 -0.73413046
v -0.72569837 0.23326071 0.70782335
v -0.74029806 0.23681181 0.70782335
v -0.69814547 0.24433973 -0.52863392
v -0.69814547 0.24510809 -0.54486498
v -0.77283647 0.23265848 0.73506829
v -0.77283647 0.23624073 0.72405436
v -0.78405109 0.23167206 0.73405385
v -0.79213389 0.22156908 0.72405436
v -0.79321617 0.20529841 0.72405436
v -0.79451728 0.20529841 0.70782335
v -0.79451728 0.18903812 0.70782335
v -0.78621569 0.14236507 0.67521633
v -0.72581348 0.17276745 -0.73586948
v -0.71725864 0.18903812 -0.72384116
v -0.69814547 0.22621044 -0.68616194
v -0.69814547 0.22268011 -0.68239404
v -0.69814547 0.21821528 -0.67471326
v -0.79204176 0.17276745 -0.72384116
v -0.78719440 0.14236507 -0.33328181
v -0.78827667 0.14236507 -0.31705077
v -0.78629628 0.17276745 -0.73586948
v -0.77283647 0.17276745 -0.73963743
v -0.74029806 0.17276745 -0.73963743
v -0.69814547 0.24547152 -0.56109600
v -0.69814547 0.24652022 -0.60993403
v -0.69814547 0.24721591 -0.64254105
v -0.77283647 0.23681181 0.70782335
v -0.70775961 0.24767278 -0.65877206
v -0.72402884 0.24821270 -0.67500313
v -0.74029806 0.24839961 -0.67500313
v -0.77283647 0.24843076 -0.65877206
v -0.78600845 0.23296999 0.72405436
v -0.79319314 0.22156908 0.70782335
v -0.81565690 0.23783976 -0.64746832
v -0.81577201 0.22630387 -0.64732339
v -0.79723456 0.16462692 -0.34154223
v -0.79480511 0.15811657 -0.33502085
v -0.74029806 0.18903812 -0.74108662
v -0.72491541 0.18903812 -0.73659410
v -0.71723560 0.20529841 -0.72384116
v -0.69814547 0.22737338 -0.68630687
v -0.81577201 0.22630387 -0.65543892
v -0.79393003 0.18903812 -0.72384116
v -0.79358464 0.15641371 -0.39849579
v -0.79724605 0.16457500 -0.40661130
v -0.78715982 0.18903812 -0.73659410
v -0.77283647 0.18903812 -0.74108662
v -0.69814547 0.24719514 -0.65848224
v -0.78641144 0.23326071 0.70782335
v -0.78910569 0.24818155 -0.64254105
v -0.80447680 0.24712245 -0.64355549
v -0.81411397 0.24642678 -0.64978702
v -0.70775961 0.24750663 -0.67500313
v -0.71492131 0.24654099 -0.70021919
v -0.72450093 0.24727820 -0.69210365
v -0.75656729 0.24799465 -0.67500313
v -0.78910569 0.24829577 -0.65877206
v -0.81565690 0.23783976 -0.65558385
v -0.79725759 0.16454385 -0.39849579
v -0.79724605 0.16460615 -0.34965776
v -0.74029806 0.20529841 -0.74123156
v -0.72489238 0.20529841 -0.73659410
v -0.69814547 0.23800588 -0.68514750
v -0.79395306 0.20529841 -0.72384116
v -0.78718286 0.20529841 -0.73659410
v -0.77283647 0.20529841 -0.74123156
v -0.69814547 0.24647868 -0.67500313
v -0.81411397 0.24642678 -0.65239560
v -0.70880741 0.24679018 -0.68978495
v -0.71937722 0.24654099 -0.70021919
v -0.69959622 0.24600107 -0.68326355
v -0.72731029 0.21853715 -0.73499997
v -0.74029806 0.22109146 -0.73659410
v -0.74029806 0.24727820 -0.68746625
v -0.78910569 0.24706017 -0.66906141
v -0.80493740 0.24708092 -0.65819238
v -0.79922645 0.24652022 -0.66761217
v -0.78511038 0.21853715 -0.73499997
v -0.69814547 0.24467198 -0.68181435
v -0.77283647 0.22109146 -0.73659410
v -0.69814547 0.24635409 -0.67659721
v -0.76521426 0.24614644 -0.68340848
v -0.75656729 0.24677980 -0.68456781
v -0.77283647 0.22903471 -0.72384116
f 1 2 3
f 1 3 4
f 1 4 5
f 1 5 6
f 1 6 7
f 1 7 14
f 1 14 24
f 1 24 47
f 1 47 46
f 1 46 45
f 1 45 70
f 1 70 78
f 1 78 77
f 1 77 56
f 1 56 55
f 1 55 50
f 1 50 29
f 1 29 28
f 1 28 27
f 1 27 25
f 1 25 15
f 1 15 8
f 1 8 16
f 1 16 26
f 1 26 49
f 1 49 75
f 1 75 74
f 1 74 73
f 1 73 99
f 1 99 121
f 1 121 137
f 1 137 139
f 1 139 125
f 1 125 106
f 1 106 84
f 1 84 83
f 1 83 82
f 1 82 62
f 1 62 61
f 1 61 39
f 1 39 20
f 1 20 10
f 1 10 2
f 2 9 3
f 2 10 9
f 3 9 11
f 3 11 12
f 3 12 4
f 4 12 5
f 5 12 6
f 6 12 22
f 6 22 13
f 6 13 14
f 6 14 7
f 8 15 16
f 9 17 18
f 9 18 19
f 9 19 11
f 9 10 17
f 10 20 17
f 11 19 38
f 11 38 21
f 11 21 22
f 11 22 12
f 13 22 23
f 13 23 14
f 14 23 24
f 15 25 16
f 16 25 27
f 16 27 28
f 16 28 29
f 16 29 30
f 16 30 31
f 16 31 32
f 16 32 33
f 16 33 26
f 17 34 18
f 17 20 35
f 17 35 34
f 18 36 19
f 18 34 37
f 18 37 36
f 19 36 63
f 19 63 38
f 20 39 35
f 21 38 40
f 21 40 41
f 21 41 22
f 22 41 42
f 22 42 23
f 23 42 43
f 23 43 44
f 23 44 45
f 23 45 46
f 23 46 47
f 23 47 24
f 26 33 48
f 26 48 49
f 29 50 51
f 29 51 30
f 30 51 31
f 31 52 53
f 31 53 54
f 31 54 57
f 31 57 32
f 31 51 55
f 31 55 56
f 31 56 52
f 32 57 58
f 32 58 33
f 33 58 48
f 34 35 59
f 34 59 60
f 34 60 37
f 35 39 61
f 35 61 62
f 35 62 59
f 36 37 64
f 36 64 63
f 37 60 85
f 37 85 64
f 38 63 65
f 38 65 40
f 40 65 66
f 40 66 67
f 40 67 41
f 41 67 43
f 41 43 42
f 43 45 44
f 43 67 68
f 43 68 69
f 43 69 70
f 43 70 45
f 48 58 71
f 48 71 72
f 48 72 73
f 48 73 74
f 48 74 75
f 48 75 49
f 50 55 51
f 52 76 53
f 52 56 77
f 52 77 78
f 52 78 76
f 53 76 79
f 53 79 80
f 53 80 54
f 54 80 81
f 54 81 57
f 57 81 58
f 58 81 71
f 59 62 82
f 59 82 83
f 59 83 84
f 59 84 60
f 60 84 86
f 60 86 87
f 60 87 88
f 60 88 89
f 60 89 85
f 63 64 65
f 64 90 65
f 64 85 90
f 65 90 66
f 66 90 91
f 66 91 68
f 66 68 67
f 68 91 92
f 68 92 93
f 68 93 69
f 69 93 70
f 70 93 94
f 70 94 95
f 70 95 78
f 71 81 96
f 71 96 97
f 71 97 72
f 72 97 120
f 72 120 98
f 72 98 99
f 72 99 73
f 76 100 101
f 76 101 79
f 76 78 102
f 76 102 103
f 76 103 100
f 78 95 103
f 78 103 102
f 79 104 105
f 79 105 80
f 79 101 104
f 80 105 96
f 80 96 81
f 84 106 86
f 85 107 90
f 85 89 108
f 85 108 109
f 85 109 110
f 85 110 107
f 86 106 111
f 86 111 87
f 87 111 112
f 87 112 113
f 87 113 88
f 88 113 114
f 88 114 115
f 88 115 89
f 89 115 108
f 90 107 91
f 91 107 110
f 91 110 92
f 92 110 126
f 92 126 116
f 92 116 100
f 92 100 93
f 93 100 117
f 93 117 118
f 93 118 94
f 94 118 95
f 95 118 117
f 95 117 103
f 96 105 124
f 96 124 119
f 96 119 97
f 97 119 120
f 98 120 121
f 98 121 99
f 100 116 122
f 100 122 101
f 100 103 117
f 101 122 123
f 101 123 104
f 104 123 124
f 104 124 105
f 106 125 111
f 108 115 109
f 109 115 110
f 110 115 126
f 111 125 127
f 111 127 112
f 112 128 113
f 112 127 129
f 112 129 130
f 112 130 131
f 112 131 138
f 112 138 128
f 113 128 132
f 113 132 114
f 114 133 115
f 114 132 133
f 115 134 126
f 115 133 135
f 115 135 134
f 116 126 136
f 116 136 122
f 119 124 138
f 119 138 131
f 119 131 130
f 119 130 120
f 120 130 121
f 121 129 137
f 121 130 129
f 122 136 123
f 123 136 124
f 124 136 138
f 125 139 127
f 126 134 135
f 126 135 136
f 127 139 129
f 128 140 141
f 128 141 132
f 128 138 142
f 128 142 140
f 129 139 137
f 132 141 133
f 133 141 135
f 135 141 140
f 135 140 142
f 135 142 136
f 136 142 138

