# https://github.com/mikedh/trimesh
v 0.68524144 -0.15198969 0.71405687
v 0.68524144 -0.16945667 0.71445438
v 0.68524144 -0.15198969 0.68475391
v 0.52873407 -0.15198969 0.71405687
v 0.68524144 -0.18511101 0.70782587
v 0.51316333 -0.15198969 0.71402846
v 0.51248632 -0.16891221 0.71411365
v 0.68524144 -0.16237519 0.68460247
v 0.05650395 -0.15198969 0.68222364
v 0.68524144 -0.18516513 0.69153385
v 0.05650395 -0.18489458 0.70576571
v 0.05650395 -0.18506368 0.70501170
v 0.05650395 -0.18653814 0.69158433
v 0.49685405 -0.15198969 0.71395276
v 0.49623858 -0.16891221 0.71403791
v 0.68524144 -0.16898660 0.68468132
v 0.05650395 -0.16891221 0.68225521
v 0.05650395 -0.15198969 0.69160324
v 0.68524144 -0.17932814 0.68883635
v 0.05650395 -0.18634537 0.69117416
v 0.05650395 -0.17876338 0.68273472
v 0.22938213 -0.17707586 0.68344145
v 0.05650395 -0.16953784 0.71145722
v 0.49623858 -0.15198969 0.71394961
v 0.05650395 -0.15308538 0.71152661
v 0.05650395 -0.16892235 0.71160865
v 0.05650395 -0.15200998 0.71147298
v 0.05699628 -0.15198969 0.71147298
v 0.47992935 -0.15198969 0.71385811
v 0.12204870 -0.15198969 0.71184213
v 0.07392101 -0.15198969 0.71157078
v 0.44737237 -0.15198969 0.71367512
v 0.39856765 -0.15198969 0.71340062
f 1 2 5
f 1 5 10
f 1 10 19
f 1 19 16
f 1 16 8
f 1 8 3
f 1 3 9
f 1 9 18
f 1 18 28
f 1 28 31
f 1 31 30
f 1 30 33
f 1 33 32
f 1 32 29
f 1 29 24
f 1 24 14
f 1 14 6
f 1 6 4
f 1 4 2
f 2 4 6
f 2 6 7
f 2 7 5
f 3 8 9
f 5 7 11
f 5 11 12
f 5 12 13
f 5 13 10
f 6 14 7
f 7 14 15
f 7 15 11
f 8 16 17
f 8 17 9
f 9 17 21
f 9 21 20
f 9 20 13
f 9 13 12
f 9 12 11
f 9 11 23
f 9 23 26
f 9 26 25
f 9 25 27
f 9 27 18
f 10 13 20
f 10 20 21
f 10 21 22
f 10 22 19
f 11 15 23
f 14 24 15
f 15 24 25
f 15 25 26
f 15 26 23
f 16 19 22
f 16 22 21
f 16 21 17
f 18 27 28
f 24 29 25
f 25 30 31
f 25 31 27
f 25 29 32
f 25 32 33
f 25 33 30
f 27 31 28

