# https://github.com/mikedh/trimesh
v 0.05692279 0.23673217 0.33523407
v 0.05692279 0.23575041 0.33450948
v 0.05692279 0.25036114 0.33277044
v 0.05673727 0.18244008 0.69593992
v 0.05692279 0.22890706 0.32827792
v 0.05692279 0.25399938 0.31929288
v 0.05672636 0.18244008 0.70260621
v 0.05469652 0.18244008 0.38682559
v 0.05692279 0.22172441 0.17089482
v 0.05692279 0.22126963 0.30103295
v 0.05692279 0.22401276 0.31827844
v 0.05692279 0.22522550 0.32088698
v 0.05692279 0.25452636 0.31726399
v 0.03216094 0.22682807 0.70782335
v 0.03171351 0.22207814 0.72463405
v 0.03223733 0.20530902 0.72985119
v 0.03228099 0.18903800 0.73086564
v 0.02981463 0.18244008 0.73014101
v 0.04369610 0.18244008 -0.28458869
v 0.05692279 0.22480682 0.15451886
v 0.04067317 0.25580407 0.33349504
v 0.00813027 0.23624129 0.72405436
v 0.02352867 0.23297121 0.72405436
v 0.05692279 0.25547199 0.30103295
v 0.02076765 0.23167904 0.73405385
v 0.02355050 0.22157284 0.73535816
v 0.02410707 0.20530902 0.73564798
v 0.02415072 0.18903800 0.73564798
v 0.02272110 0.18244008 0.73506829
v 0.02639882 0.18244008 0.73289452
v 0.03270660 0.18244008 -0.73224651
v 0.05692279 0.22508112 0.15350441
v 0.04067317 0.25598452 0.31726399
v 0.02440172 0.25617942 0.33349504
v -0.02440171 0.23624129 0.72405436
v 0.00813027 0.23266080 0.73506829
v 0.05692279 0.25135732 0.18712585
v 0.00813027 0.22905144 -0.72384116
v 0.00813027 0.22157284 0.73854637
v 0.00813027 0.20530902 0.73912605
v 0.00813027 0.18903800 0.73927099
v 0.00813027 0.18244008 0.73753192
v 0.03003289 0.18244008 -0.73369571
v 0.03275025 0.18903800 -0.73239140
v 0.03306673 0.18903800 -0.72384116
v 0.05692279 0.23254530 0.14669318
v 0.02440172 0.25581129 0.31726399
v -0.00813026 0.22905144 -0.72384116
v -0.02440171 0.22902256 -0.72384116
v -0.00813026 0.25545757 0.31726399
v -0.03694088 0.23297121 0.72405436
v -0.03521661 0.23167904 0.73405385
v -0.02440171 0.23266080 0.73506829
v -0.02440171 0.25467073 0.31726399
v -0.04067316 0.25425925 0.30103295
v -0.05456555 0.25161720 0.30103295
v 0.05692279 0.25062102 0.17089482
v 0.01634785 0.22973000 -0.63877310
v 0.02440172 0.22211424 -0.72384116
v 0.02440172 0.21763862 -0.73442028
v 0.00813027 0.22109638 -0.73659410
v -0.02440171 0.22157284 0.73854637
v -0.02440171 0.20530902 0.73912605
v -0.02440171 0.18903800 0.73927099
v -0.02440171 0.18244008 0.73753192
v 0.02484916 0.18244008 -0.73615935
v 0.02440172 0.18903800 -0.73688392
v 0.03276116 0.20530902 -0.73239140
v 0.03307765 0.20530902 -0.72384116
v 0.05692279 0.23784386 0.14553382
v -0.02440171 0.22109638 -0.73659410
v -0.03620970 0.21854818 -0.73499997
v -0.03828319 0.22121188 -0.72384116
v -0.03258655 0.22973000 -0.63877310
v -0.04232104 0.22157284 0.72405436
v -0.05456555 0.24948768 0.31740890
v -0.03692997 0.22157284 0.73535816
v -0.05456555 0.24545961 0.18712585
v 0.05692279 0.24841209 0.15538837
v 0.03268477 0.21393541 -0.73224651
v 0.02440172 0.20530902 -0.73688392
v 0.00813027 0.20530902 -0.74123156
v -0.03731192 0.20530902 0.73564798
v -0.03735558 0.18903800 0.73564798
v -0.03648253 0.18244008 0.73506829
v -0.03061128 0.18244008 0.73666242
v 0.01547480 0.18244008 -0.73862298
v 0.00813027 0.18903800 -0.74108662
v 0.05692279 0.24838319 0.15524345
v -0.02440171 0.20530902 -0.74123156
v -0.03803219 0.20530902 -0.73659410
v -0.04402349 0.20530902 -0.72384116
v -0.04451458 0.20530902 -0.70761010
v -0.04330322 0.22157284 0.70782335
v -0.05456555 0.18626599 0.70057732
v -0.05456555 0.18523372 0.70449020
v -0.05456555 0.18397766 0.70521478
v -0.05456555 0.18244008 0.70608428
v -0.05456555 0.24380652 0.17089482
v 0.00813027 0.18244008 -0.74050693
v -0.02440171 0.18903800 -0.74108662
v -0.03801036 0.18903800 -0.73659410
v -0.04400166 0.18903800 -0.72384116
v -0.04451458 0.18903800 -0.70761010
v -0.05338694 0.18244008 -0.28676248
v -0.05456555 0.18244008 0.37059455
v -0.05456555 0.23715807 0.15451886
v -0.02440171 0.18244008 -0.74050693
v -0.03768297 0.18244008 -0.73630428
v -0.04125156 0.18244008 -0.72876844
v -0.04328140 0.18244008 -0.72384116
v -0.04358696 0.18244008 -0.71413150
v -0.05435821 0.18244008 0.04481443
v -0.05456555 0.20720034 0.17089482
v -0.05456555 0.23459542 0.15364934
v -0.05456555 0.21982589 0.15335949
v -0.05456555 0.21075195 0.16046057
v -0.05456555 0.21513372 0.15437393
f 1 2 5
f 1 5 12
f 1 12 11
f 1 11 10
f 1 10 9
f 1 9 20
f 1 20 32
f 1 32 46
f 1 46 70
f 1 70 89
f 1 89 79
f 1 79 57
f 1 57 37
f 1 37 24
f 1 24 13
f 1 13 6
f 1 6 3
f 1 3 4
f 1 4 2
f 2 4 5
f 3 6 7
f 3 7 4
f 4 7 18
f 4 18 30
f 4 30 29
f 4 29 42
f 4 42 65
f 4 65 86
f 4 86 85
f 4 85 98
f 4 98 106
f 4 106 113
f 4 113 105
f 4 105 112
f 4 112 111
f 4 111 110
f 4 110 109
f 4 109 108
f 4 108 100
f 4 100 87
f 4 87 66
f 4 66 43
f 4 43 31
f 4 31 19
f 4 19 8
f 4 8 9
f 4 9 10
f 4 10 11
f 4 11 12
f 4 12 5
f 6 13 7
f 7 13 14
f 7 14 15
f 7 15 16
f 7 16 17
f 7 17 18
f 8 19 9
f 9 19 20
f 13 21 22
f 13 22 23
f 13 23 14
f 13 24 21
f 14 23 15
f 15 23 25
f 15 25 26
f 15 26 16
f 16 26 17
f 17 26 27
f 17 27 28
f 17 28 29
f 17 29 30
f 17 30 18
f 19 31 32
f 19 32 20
f 21 24 33
f 21 33 34
f 21 34 22
f 22 35 53
f 22 53 36
f 22 36 25
f 22 25 23
f 22 34 35
f 24 37 38
f 24 38 33
f 25 36 39
f 25 39 26
f 26 39 40
f 26 40 27
f 27 40 41
f 27 41 28
f 28 41 29
f 29 41 42
f 31 43 44
f 31 44 45
f 31 45 46
f 31 46 32
f 33 47 34
f 33 38 48
f 33 48 49
f 33 49 47
f 34 47 50
f 34 50 35
f 35 51 52
f 35 52 53
f 35 50 54
f 35 54 55
f 35 55 56
f 35 56 51
f 36 53 62
f 36 62 39
f 37 57 58
f 37 58 38
f 38 58 59
f 38 59 60
f 38 60 61
f 38 61 71
f 38 71 48
f 39 62 63
f 39 63 40
f 40 63 64
f 40 64 41
f 41 64 65
f 41 65 42
f 43 66 67
f 43 67 44
f 44 67 68
f 44 68 69
f 44 69 45
f 45 69 70
f 45 70 46
f 47 49 50
f 48 71 49
f 49 71 72
f 49 72 73
f 49 73 74
f 49 74 56
f 49 56 55
f 49 55 50
f 50 55 54
f 51 75 52
f 51 56 76
f 51 76 75
f 52 75 77
f 52 77 62
f 52 62 53
f 56 74 73
f 56 73 78
f 56 78 99
f 56 99 107
f 56 107 115
f 56 115 116
f 56 116 118
f 56 118 117
f 56 117 114
f 56 114 106
f 56 106 98
f 56 98 97
f 56 97 96
f 56 96 95
f 56 95 76
f 57 79 80
f 57 80 59
f 57 59 58
f 59 80 60
f 60 81 82
f 60 82 61
f 60 80 81
f 61 82 90
f 61 90 71
f 62 77 63
f 63 77 83
f 63 83 64
f 64 83 84
f 64 84 85
f 64 85 86
f 64 86 65
f 66 87 67
f 67 87 88
f 67 88 82
f 67 82 81
f 67 81 68
f 68 81 80
f 68 80 69
f 69 80 70
f 70 80 89
f 71 90 72
f 72 90 91
f 72 91 92
f 72 92 73
f 73 92 93
f 73 93 78
f 75 76 94
f 75 94 95
f 75 95 96
f 75 96 97
f 75 97 98
f 75 98 77
f 76 95 94
f 77 98 83
f 78 93 99
f 79 89 80
f 82 88 101
f 82 101 90
f 83 98 84
f 84 98 85
f 87 100 88
f 88 100 108
f 88 108 101
f 90 101 102
f 90 102 91
f 91 102 103
f 91 103 92
f 92 103 104
f 92 104 93
f 93 104 105
f 93 105 99
f 99 105 107
f 101 108 109
f 101 109 102
f 102 109 110
f 102 110 103
f 103 110 111
f 103 111 104
f 104 111 112
f 104 112 105
f 105 113 107
f 106 114 113
f 107 113 115
f 113 116 115
f 113 114 117
f 113 117 118
f 113 118 116

