# https://github.com/mikedh/trimesh
v 0.05650393 -0.16892692 0.71160182
v 0.05650393 -0.15309023 0.71151502
v 0.03275339 -0.20144903 0.73257924
v 0.03275339 -0.21771475 0.73260819
v 0.03269009 -0.22689219 0.73249245
v 0.05650393 -0.16954248 0.71145712
v 0.05650393 -0.15200834 0.71145712
v 0.03267743 -0.19270993 0.73246350
v 0.02439766 -0.20144903 0.73712195
v 0.02439766 -0.21771475 0.73717980
v 0.02976559 -0.23582714 0.72410145
v 0.05650393 -0.18490352 0.70575708
v 0.02485343 -0.23298250 0.73515440
v 0.01972605 -0.24326981 0.73379448
v -0.02439475 -0.17636961 0.73318686
v 0.00812930 -0.17636961 0.73318686
v 0.01775106 -0.17659345 0.73286858
v 0.02366337 -0.18644242 0.73454679
v 0.05650393 -0.15198969 0.69157924
v 0.04132435 -0.15198969 0.71137033
v 0.04066602 -0.15198969 0.71137033
v 0.00812930 -0.20144903 0.74131742
v 0.00812930 -0.21771475 0.74140422
v 0.02162508 -0.24391336 0.72410145
v 0.02996815 -0.23612559 0.70784037
v 0.05650393 -0.18654501 0.69157924
v 0.05650393 -0.18507139 0.70500477
v 0.00812930 -0.23398979 0.73914734
v 0.00812930 -0.24384807 0.73457569
v 0.00812930 -0.24571343 0.72410145
v -0.00813905 -0.15198969 0.71110994
v -0.02439475 -0.15198969 0.71102315
v -0.04001744 -0.15198969 0.71093635
v -0.07283268 -0.15198969 0.71073376
v -0.03333285 -0.17659345 0.73286858
v -0.02439475 -0.18518331 0.73767172
v 0.00812930 -0.18518331 0.73767172
v 0.05650393 -0.15198969 0.68220449
v -0.02439475 -0.20144903 0.74131742
v -0.02439475 -0.21771475 0.74140422
v 0.00812930 -0.24589063 0.70784037
v 0.02182764 -0.24400663 0.70784037
v 0.03005677 -0.23617224 0.69157924
v 0.05650393 -0.18634915 0.69114521
v 0.03022135 -0.23626551 0.65902803
v 0.03053786 -0.23646136 0.59395467
v 0.03075308 -0.23661991 0.54517128
v 0.03089234 -0.23673183 0.51262013
v 0.03101894 -0.23686241 0.48009787
v 0.03114555 -0.23699297 0.44754671
v 0.03114555 -0.23700230 0.44581066
v 0.03266477 -0.22972750 0.44581066
v 0.03284202 -0.22886012 0.44581066
v -0.02439475 -0.23398979 0.73914734
v -0.02439475 -0.24384807 0.73457569
v -0.02439475 -0.24571343 0.72410145
v -0.07283268 -0.15198969 0.69875495
v -0.07283268 -0.16853520 0.71082061
v -0.03800446 -0.20144903 0.73677472
v -0.03586489 -0.18518331 0.73495187
v 0.01054740 -0.15198969 0.65127365
v 0.05650393 -0.15264256 0.68220449
v 0.03315852 -0.20144903 0.44581066
v 0.03284202 -0.19227159 0.44581066
v 0.02299238 -0.18289827 0.44581066
v 0.01630779 -0.17704112 0.45330465
v 0.00812930 -0.17706911 0.44581066
v -0.03802979 -0.21771475 0.73680367
v -0.03672578 -0.23398979 0.73570413
v -0.02439475 -0.24589063 0.70784037
v 0.00812930 -0.24615177 0.65902803
v 0.02191626 -0.24405328 0.69157924
v 0.00812930 -0.24727097 0.44581066
v 0.05650393 -0.17876656 0.68272531
v 0.02200488 -0.24409057 0.67528916
v 0.02216947 -0.24417452 0.64276695
v 0.02232139 -0.24426777 0.61021575
v 0.02247331 -0.24435173 0.57769354
v 0.02254927 -0.24438904 0.56143241
v 0.02268854 -0.24447298 0.52888125
v 0.02281514 -0.24456624 0.49635900
v 0.02301770 -0.24469680 0.44581066
v 0.03287999 -0.22767563 0.44581066
v -0.03444695 -0.24326981 0.73379448
v -0.03551040 -0.24391336 0.72410145
v -0.05758979 -0.15198969 0.68104710
v -0.07283268 -0.15200834 0.68156793
v -0.07283268 -0.16891759 0.71082061
v 0.01021824 -0.15198969 0.65124470
v 0.05650393 -0.16891759 0.68223344
v 0.03315852 -0.21771475 0.44581066
v 0.01528232 -0.17982981 0.44581066
v -0.02600259 -0.17706911 0.44581066
v -0.00813905 -0.15198969 0.65069498
v 0.00240689 -0.15198969 0.65078177
v -0.07283268 -0.18486620 0.70529415
v -0.03563701 -0.24400663 0.70784037
v -0.02439475 -0.24615177 0.65902803
v -0.02439475 -0.24727097 0.44581066
v 0.02261257 -0.24443566 0.54517128
v -0.07283268 -0.18746835 0.69157924
v -0.02496446 -0.15198969 0.65402240
v -0.07283268 -0.15302495 0.68153903
v -0.03256058 -0.17704112 0.45330465
v -0.03744742 -0.18376566 0.44581066
v -0.04448649 -0.20144903 0.44581066
v -0.04452447 -0.20316514 0.44581066
v -0.01682395 -0.15198969 0.65078177
v -0.00848088 -0.15198969 0.65069498
v -0.03570031 -0.24405328 0.69157924
v -0.03595351 -0.24426777 0.61021575
v -0.03605479 -0.24435173 0.57769354
v -0.03628268 -0.24456624 0.49635900
v -0.03642194 -0.24469680 0.44581066
v -0.07283268 -0.17971788 0.68252277
v -0.04452447 -0.21771475 0.44581066
v -0.04241021 -0.23398979 0.44581066
v -0.03642194 -0.24468749 0.44754671
v -0.03633332 -0.24460353 0.48009787
v -0.03624470 -0.24451960 0.51262013
v -0.03610544 -0.24438904 0.56143241
v -0.07283268 -0.16927201 0.68162582
f 1 2 3
f 1 3 4
f 1 4 5
f 1 5 6
f 1 6 12
f 1 12 27
f 1 27 26
f 1 26 44
f 1 44 74
f 1 74 90
f 1 90 62
f 1 62 38
f 1 38 19
f 1 19 7
f 1 7 2
f 2 7 8
f 2 8 3
f 3 9 10
f 3 10 4
f 3 8 9
f 4 10 5
f 5 11 12
f 5 12 6
f 5 10 13
f 5 13 14
f 5 14 11
f 7 15 16
f 7 16 17
f 7 17 18
f 7 18 8
f 7 19 20
f 7 20 21
f 7 21 15
f 8 18 9
f 9 22 23
f 9 23 10
f 9 18 22
f 10 23 13
f 11 14 24
f 11 24 25
f 11 25 26
f 11 26 27
f 11 27 12
f 13 23 28
f 13 28 14
f 14 28 29
f 14 29 30
f 14 30 24
f 15 21 31
f 15 31 32
f 15 32 33
f 15 33 34
f 15 34 35
f 15 35 36
f 15 36 37
f 15 37 16
f 16 37 17
f 17 37 18
f 18 37 22
f 19 38 61
f 19 61 89
f 19 89 95
f 19 95 94
f 19 94 109
f 19 109 108
f 19 108 102
f 19 102 86
f 19 86 57
f 19 57 34
f 19 34 33
f 19 33 32
f 19 32 31
f 19 31 21
f 19 21 20
f 22 39 40
f 22 40 23
f 22 37 36
f 22 36 39
f 23 40 54
f 23 54 28
f 24 30 41
f 24 41 42
f 24 42 25
f 25 42 72
f 25 72 43
f 25 43 26
f 26 43 45
f 26 45 46
f 26 46 47
f 26 47 48
f 26 48 49
f 26 49 50
f 26 50 51
f 26 51 52
f 26 52 53
f 26 53 44
f 28 54 55
f 28 55 29
f 29 55 56
f 29 56 30
f 30 56 70
f 30 70 41
f 34 57 87
f 34 87 103
f 34 103 122
f 34 122 115
f 34 115 101
f 34 101 96
f 34 96 88
f 34 88 58
f 34 58 59
f 34 59 60
f 34 60 35
f 35 60 36
f 36 60 39
f 38 62 91
f 38 91 63
f 38 63 64
f 38 64 65
f 38 65 66
f 38 66 67
f 38 67 61
f 39 60 59
f 39 59 40
f 40 59 68
f 40 68 69
f 40 69 54
f 41 70 98
f 41 98 71
f 41 71 42
f 42 71 73
f 42 73 72
f 43 72 45
f 44 53 74
f 45 72 46
f 46 50 49
f 46 49 47
f 46 72 50
f 47 49 48
f 50 72 75
f 50 75 76
f 50 76 77
f 50 77 78
f 50 78 79
f 50 79 80
f 50 80 81
f 50 81 82
f 50 82 51
f 51 82 73
f 51 73 99
f 51 99 114
f 51 114 117
f 51 117 116
f 51 116 107
f 51 107 106
f 51 106 105
f 51 105 93
f 51 93 67
f 51 67 92
f 51 92 65
f 51 65 64
f 51 64 63
f 51 63 91
f 51 91 83
f 51 83 53
f 51 53 52
f 53 83 74
f 54 69 84
f 54 84 55
f 55 84 56
f 56 84 85
f 56 85 70
f 57 86 87
f 58 68 59
f 58 88 68
f 61 67 89
f 62 90 91
f 65 92 66
f 66 92 67
f 67 93 109
f 67 109 94
f 67 94 95
f 67 95 89
f 68 88 69
f 69 88 96
f 69 96 84
f 70 85 97
f 70 97 98
f 71 98 99
f 71 99 73
f 72 76 75
f 72 73 77
f 72 77 76
f 73 82 81
f 73 81 78
f 73 78 77
f 74 83 91
f 74 91 90
f 78 100 79
f 78 81 100
f 79 100 81
f 79 81 80
f 84 96 85
f 85 96 101
f 85 101 97
f 86 102 87
f 87 102 93
f 87 93 104
f 87 104 105
f 87 105 106
f 87 106 107
f 87 107 103
f 93 105 104
f 93 102 108
f 93 108 109
f 97 101 110
f 97 110 99
f 97 99 98
f 99 111 112
f 99 112 113
f 99 113 114
f 99 110 111
f 101 115 116
f 101 116 117
f 101 117 114
f 101 114 118
f 101 118 119
f 101 119 120
f 101 120 121
f 101 121 112
f 101 112 111
f 101 111 110
f 103 107 116
f 103 116 122
f 112 121 120
f 112 120 113
f 113 120 114
f 114 120 119
f 114 119 118
f 115 122 116

