# https://github.com/mikedh/trimesh
v 0.25214059 0.14235469 -0.41272966
v 0.26845865 0.14235469 -0.41268753
v 0.25214059 0.13640575 -0.39851623
v 0.23582254 0.14235469 -0.41265140
v 0.30085653 0.14235469 -0.41248887
v 0.36600961 0.14235469 -0.41207952
v 0.39852658 0.14235469 -0.41186277
v 0.44724252 0.14235469 -0.41151962
v 0.47987863 0.14235469 -0.41127882
v 0.51239560 0.14235469 -0.41102600
v 0.26833953 0.13645873 -0.39851623
v 0.26833953 0.13662877 -0.36598968
v 0.26833953 0.13670622 -0.35124047
v 0.25214059 0.13665440 -0.35124047
v 0.23582254 0.13672253 -0.35124047
v 0.23582254 0.13647446 -0.39851623
v 0.21986182 0.14235469 -0.41247684
v 0.56123063 0.14235469 -0.41062868
v 0.28465756 0.13654958 -0.39851623
v 0.75645164 0.13894057 -0.35124047
v 0.72393467 0.14235469 -0.40925003
v 0.74025273 0.14235469 -0.40907547
v 0.75645164 0.14235469 -0.40889485
v 0.77276970 0.14235469 -0.40863000
v -0.38724102 0.14229703 -0.35123446
v -0.38783657 0.14230054 -0.35123446
v -0.39617428 0.14235469 -0.35123446
v -0.00954373 0.13880255 -0.35124047
v -0.43464673 0.14235469 -0.39852224
v -0.41547005 0.14235469 -0.39908212
v -0.24216526 0.14235469 -0.40410890
v -0.22656186 0.14235469 -0.40455439
v -0.21072026 0.14235469 -0.40498182
v -0.19487863 0.14235469 -0.40539721
v -0.17915615 0.14235469 -0.40579453
v -0.16319543 0.14235469 -0.40617980
v -0.14747292 0.14235469 -0.40655307
v -0.13151221 0.14235469 -0.40691426
v -0.11555150 0.14235469 -0.40726945
v -0.09982898 0.14235469 -0.40760659
v -0.02014450 0.14235469 -0.40924402
v 0.01177692 0.14235469 -0.40978584
v 0.02773765 0.14235469 -0.41001461
v 0.10777946 0.14235469 -0.41111027
v 0.13982000 0.14235469 -0.41153169
v 0.15578073 0.14235469 -0.41173035
v 0.18782127 0.14235469 -0.41211560
v 0.20378199 0.14235469 -0.41229622
v 0.74025273 0.13910187 -0.39851623
v 0.77276970 0.13928472 -0.39851623
v 0.77276970 0.13928123 -0.35124047
v 0.78217936 0.14235469 -0.39851623
v -0.39081433 0.14235469 -0.35123446
v 0.78182204 0.14235469 -0.35124047
v -0.42142558 0.14235469 -0.38224994
f 1 2 3
f 1 3 4
f 1 4 17
f 1 17 48
f 1 48 47
f 1 47 46
f 1 46 45
f 1 45 44
f 1 44 43
f 1 43 42
f 1 42 41
f 1 41 40
f 1 40 39
f 1 39 38
f 1 38 37
f 1 37 36
f 1 36 35
f 1 35 34
f 1 34 33
f 1 33 32
f 1 32 31
f 1 31 30
f 1 30 29
f 1 29 55
f 1 55 27
f 1 27 53
f 1 53 54
f 1 54 52
f 1 52 24
f 1 24 23
f 1 23 22
f 1 22 21
f 1 21 18
f 1 18 10
f 1 10 9
f 1 9 8
f 1 8 7
f 1 7 6
f 1 6 5
f 1 5 2
f 2 5 3
f 3 5 6
f 3 6 7
f 3 7 8
f 3 8 9
f 3 9 10
f 3 10 11
f 3 11 12
f 3 12 13
f 3 13 14
f 3 14 15
f 3 15 16
f 3 16 4
f 4 16 17
f 10 18 11
f 11 19 20
f 11 20 12
f 11 18 21
f 11 21 22
f 11 22 23
f 11 23 24
f 11 24 19
f 12 20 13
f 13 20 25
f 13 25 14
f 14 25 15
f 15 25 26
f 15 26 27
f 15 27 28
f 15 28 16
f 16 28 29
f 16 29 30
f 16 30 31
f 16 31 32
f 16 32 33
f 16 33 34
f 16 34 35
f 16 35 36
f 16 36 37
f 16 37 38
f 16 38 39
f 16 39 40
f 16 40 41
f 16 41 42
f 16 42 43
f 16 43 44
f 16 44 45
f 16 45 46
f 16 46 47
f 16 47 48
f 16 48 17
f 19 24 49
f 19 49 20
f 20 49 50
f 20 50 51
f 20 51 25
f 24 52 50
f 24 50 49
f 25 53 27
f 25 27 26
f 25 51 54
f 25 54 53
f 27 55 28
f 28 55 29
f 50 52 51
f 51 52 54

