# https://github.com/mikedh/trimesh
v 0.78871836 0.14235469 0.04076782
v 0.78747597 0.14235469 0.05383218
v 0.78732061 0.14021900 0.05579618
v 0.78732061 0.07515013 0.05593913
v 0.78856310 0.12394230 0.04076782
v 0.77707059 0.14235469 0.02071137
v 0.78716535 0.14235469 0.05608830
v 0.78809712 0.07515013 0.04076782
v 0.78825248 0.09140155 0.04076782
v 0.77272208 0.07515013 0.06310526
v 0.77272208 0.01325319 0.06087400
v 0.78312747 0.01325319 0.05361465
v 0.76961596 0.01325319 0.01015174
v 0.77008194 0.14235469 0.00941213
v 0.77443045 0.14235469 0.06232214
v 0.78312747 0.01325319 0.04404945
v 0.77613872 0.01325319 0.02450264
v 0.77489634 0.01325319 0.02168094
v 0.75967656 0.01325319 0.06293745
v 0.77272208 0.14235469 0.06311769
v 0.75641518 0.01325319 0.06344088
v 0.76713109 0.01325319 0.00884655
v 0.75641518 0.14235469 0.00235166
v 0.75641518 0.14235469 0.06341602
v 0.74336966 0.01325319 0.06346574
v 0.74399080 0.14235469 0.06347195
v 0.72768390 0.14235469 0.06354032
v 0.31177997 0.06919802 0.06518735
v 0.31177997 0.06694859 0.06518735
v 0.30090870 0.06680959 0.06521221
v 0.26845018 0.06644311 0.06528058
v 0.75641518 0.01325319 0.00351390
v 0.74026354 0.14235469 0.00189795
v 0.72721802 0.01325319 0.06347817
v 0.25214326 0.06634201 0.06529923
v 0.26845018 0.14235469 0.06494496
v 0.26845018 0.11098919 0.06514384
v 0.26845018 0.10286348 0.06519357
v 0.26845018 0.07515013 0.06533651
v 0.25214326 0.07515013 0.06537381
v 0.74026354 0.01325319 0.00309127
v -0.00799084 0.14235469 0.00189174
v 0.70764973 0.01325319 0.06349060
v 0.23583636 0.06648102 0.06527436
v -0.77270744 0.01325319 0.06321092
v 0.21952943 0.01325319 0.06348439
v 0.25214326 0.14235469 0.06498846
v 0.25214326 0.11474243 0.06516870
v 0.25214326 0.10661673 0.06521221
v 0.25214326 0.09140155 0.06529301
v 0.24018486 0.10458214 0.06519978
v -0.75655580 0.01325319 0.00309127
v -0.75655580 0.14235469 0.00189174
v -0.77270744 0.02633268 0.06314255
v -0.78590832 0.01325319 0.05874219
v 0.23801061 0.14235469 0.06493874
v -0.77270744 0.01325319 0.00530388
v -0.75981718 0.14235469 0.00217764
v -0.75655580 0.14235469 0.06053217
v -0.77270744 0.04260938 0.06230971
v -0.78901434 0.02633268 0.05759859
v -0.78901434 0.01325319 0.05765452
v -0.77488169 0.01325319 0.00660908
v -0.77441581 0.14235469 0.00498069
v -0.77270744 0.14235469 0.00404220
v -0.77270744 0.14235469 0.05634933
v -0.79740073 0.04260938 0.04966178
v -0.79771135 0.02633268 0.05040760
v -0.79786671 0.01325319 0.05043246
v -0.78901434 0.04260938 0.05633069
v -0.78357871 0.01325319 0.01194172
v -0.78373397 0.14235469 0.01112753
v -0.78202570 0.14235469 0.05072458
v -0.79724547 0.05074772 0.04892217
v -0.79771135 0.02633268 0.04718813
v -0.79786671 0.01325319 0.04719434
v -0.78466583 0.01325319 0.01441537
v -0.78901434 0.01325319 0.02450264
v -0.78901434 0.02633268 0.02450264
v -0.79740073 0.04260938 0.04803340
v -0.79724547 0.05074772 0.04888488
v -0.78637420 0.14235469 0.02450264
v -0.78435521 0.14235469 0.04263238
v -0.78466583 0.14235469 0.04076782
v -0.78621884 0.14235469 0.02663445
f 1 2 3
f 1 3 4
f 1 4 5
f 1 5 6
f 1 6 14
f 1 14 23
f 1 23 33
f 1 33 42
f 1 42 53
f 1 53 58
f 1 58 65
f 1 65 64
f 1 64 72
f 1 72 82
f 1 82 85
f 1 85 84
f 1 84 83
f 1 83 73
f 1 73 66
f 1 66 59
f 1 59 56
f 1 56 47
f 1 47 36
f 1 36 27
f 1 27 26
f 1 26 24
f 1 24 20
f 1 20 15
f 1 15 7
f 1 7 2
f 2 7 3
f 3 7 4
f 4 8 9
f 4 9 5
f 4 7 10
f 4 10 11
f 4 11 12
f 4 12 8
f 5 9 6
f 6 13 14
f 6 9 8
f 6 8 13
f 7 15 10
f 8 12 16
f 8 16 17
f 8 17 18
f 8 18 13
f 10 19 11
f 10 15 20
f 10 20 21
f 10 21 19
f 11 19 21
f 11 21 25
f 11 25 34
f 11 34 43
f 11 43 46
f 11 46 45
f 11 45 55
f 11 55 62
f 11 62 69
f 11 69 76
f 11 76 78
f 11 78 77
f 11 77 71
f 11 71 63
f 11 63 57
f 11 57 52
f 11 52 41
f 11 41 32
f 11 32 22
f 11 22 13
f 11 13 18
f 11 18 17
f 11 17 16
f 11 16 12
f 13 22 14
f 14 22 23
f 20 24 21
f 21 24 26
f 21 26 27
f 21 27 28
f 21 28 29
f 21 29 30
f 21 30 31
f 21 31 25
f 22 32 23
f 23 32 33
f 25 31 35
f 25 35 34
f 27 36 37
f 27 37 38
f 27 38 39
f 27 39 28
f 28 39 29
f 29 39 30
f 30 39 40
f 30 40 31
f 31 40 35
f 32 41 33
f 33 41 42
f 34 35 43
f 35 40 44
f 35 44 45
f 35 45 46
f 35 46 43
f 36 47 48
f 36 48 37
f 37 48 38
f 38 48 49
f 38 49 50
f 38 50 39
f 39 50 40
f 40 50 51
f 40 51 45
f 40 45 44
f 41 52 53
f 41 53 42
f 45 51 54
f 45 54 55
f 47 56 54
f 47 54 48
f 48 54 51
f 48 51 49
f 49 51 50
f 52 57 58
f 52 58 53
f 54 59 60
f 54 60 61
f 54 61 55
f 54 56 59
f 55 61 62
f 57 63 64
f 57 64 65
f 57 65 58
f 59 66 60
f 60 66 61
f 61 67 68
f 61 68 69
f 61 69 62
f 61 66 70
f 61 70 67
f 63 71 64
f 64 71 72
f 66 73 70
f 67 74 81
f 67 81 80
f 67 80 75
f 67 75 68
f 67 70 74
f 68 75 76
f 68 76 69
f 70 73 74
f 71 77 72
f 72 77 78
f 72 78 79
f 72 79 76
f 72 76 75
f 72 75 80
f 72 80 81
f 72 81 82
f 73 83 74
f 74 83 84
f 74 84 85
f 74 85 82
f 74 82 81
f 76 79 78

