# https://github.com/mikedh/trimesh
v -0.69149451 -0.16892137 -0.27207633
v -0.69149451 -0.15199959 -0.27221646
v -0.71633516 -0.20145563 -0.26179961
v -0.71634588 -0.20392547 -0.26179961
v -0.71663497 -0.21719705 -0.26179961
v -0.71688120 -0.22427921 -0.26179961
v -0.71740585 -0.23398989 -0.26179961
v -0.69149451 -0.18519843 -0.27315070
v -0.70710554 -0.15199959 -0.27188947
v -0.74029782 -0.17883044 -0.26179961
v -0.72432273 -0.18387920 -0.26179961
v -0.72269524 -0.18453385 -0.26179961
v -0.72191360 -0.18601179 -0.26179961
v -0.69149451 -0.15199959 -0.30131827
v -0.72507223 -0.24654732 -0.26179961
v -0.69149451 -0.19659533 -0.28464195
v -0.69149451 -0.19446275 -0.27539291
v -0.73965539 -0.15199959 -0.27123550
v -0.75656205 -0.17879076 -0.26179961
v -0.77283695 -0.15199959 -0.27062825
v -0.72904456 -0.15199959 -0.32864499
v -0.69149451 -0.15264433 -0.30131827
v -0.71683838 -0.21771285 -0.70762227
v -0.71812325 -0.20145563 -0.72392490
v -0.72524354 -0.18871966 -0.72392490
v -0.74029782 -0.18412717 -0.72392490
v -0.72506151 -0.24656717 -0.26838606
v -0.73416263 -0.24920561 -0.26179961
v -0.74029782 -0.25332200 -0.70762227
v -0.69149451 -0.19546458 -0.29529238
v -0.72498655 -0.24669611 -0.31720045
v -0.72496516 -0.24673579 -0.33345635
v -0.72489020 -0.24690442 -0.39852666
v -0.72482595 -0.24708295 -0.46364366
v -0.72478313 -0.24721189 -0.51241139
v -0.72470817 -0.24750946 -0.62629607
v -0.72468674 -0.24758882 -0.65880785
v -0.72466535 -0.24771777 -0.70762227
v -0.71700969 -0.23398989 -0.70762227
v -0.75710809 -0.17879076 -0.26179961
v -0.78910118 -0.15199959 -0.27193619
v -0.77283695 -0.17882052 -0.26179961
v -0.72949429 -0.15199959 -0.32883184
v -0.69149451 -0.16891145 -0.30127155
v -0.71808043 -0.23398989 -0.72392490
v -0.71796265 -0.21771285 -0.72392490
v -0.69149451 -0.18518851 -0.29949648
v -0.72565041 -0.20145563 -0.73550954
v -0.72785609 -0.19058443 -0.73434173
v -0.74029782 -0.18920569 -0.73546285
v -0.77283695 -0.18412717 -0.72392490
v -0.75656205 -0.15199959 -0.33359648
v -0.74029782 -0.15199959 -0.33280237
v -0.72501869 -0.24665644 -0.30094456
v -0.74029782 -0.25098112 -0.26179961
v -0.74029782 -0.25135802 -0.33345635
v -0.77283695 -0.25332200 -0.70762227
v -0.74029782 -0.25222098 -0.72392490
v -0.72517929 -0.24717222 -0.72392490
v -0.72468674 -0.24763842 -0.67511048
v -0.72495445 -0.24678537 -0.34975898
v -0.78941166 -0.18504964 -0.26179961
v -0.79872691 -0.15199959 -0.27492579
v -0.72784537 -0.24510908 -0.73429504
v -0.72567180 -0.23398989 -0.73546285
v -0.72562898 -0.21771285 -0.73550954
v -0.74029782 -0.21771285 -0.73901298
v -0.74029782 -0.20145563 -0.73896624
v -0.77283695 -0.18920569 -0.73546285
v -0.78458272 -0.19058443 -0.73434173
v -0.78686336 -0.18871966 -0.72392490
v -0.79938006 -0.15199959 -0.29533907
v -0.78322294 -0.15199959 -0.32799101
v -0.77283695 -0.15199959 -0.33210170
v -0.75721520 -0.15199959 -0.33354979
v -0.77283695 -0.25098112 -0.26179961
v -0.77283695 -0.25135802 -0.33345635
v -0.78730238 -0.24708295 -0.46364366
v -0.78734520 -0.24721189 -0.51241139
v -0.78745226 -0.24750946 -0.62629607
v -0.78748441 -0.24763842 -0.67511048
v -0.78750579 -0.24771777 -0.70762227
v -0.78695976 -0.24717222 -0.72392490
v -0.77283695 -0.25222098 -0.72392490
v -0.78703467 -0.24654732 -0.26179961
v -0.78704539 -0.24656717 -0.26838606
v -0.78709892 -0.24665644 -0.30094456
v -0.78716317 -0.24678537 -0.34975898
v -0.74029782 -0.24660684 -0.73546285
v -0.79508649 -0.20104896 -0.26179961
v -0.80086839 -0.15199959 -0.28464195
v -0.79874834 -0.16891145 -0.27473894
v -0.74029782 -0.23398989 -0.73891959
v -0.77283695 -0.21771285 -0.73901298
v -0.77283695 -0.20145563 -0.73896624
v -0.79300931 -0.20145563 -0.72392490
v -0.78642439 -0.20145563 -0.73550954
v -0.78736663 -0.24725157 -0.52866728
v -0.78722742 -0.24690442 -0.39852666
v -0.79381234 -0.23398989 -0.26179961
v -0.78744155 -0.24745988 -0.60999348
v -0.79428346 -0.23398989 -0.70762227
v -0.79382306 -0.23398989 -0.26838606
v -0.79389797 -0.23398989 -0.31720045
v -0.79391941 -0.23398989 -0.33345635
v -0.79398365 -0.23398989 -0.38227077
v -0.79405862 -0.23398989 -0.44734108
v -0.79411215 -0.23398989 -0.49615549
v -0.79414425 -0.23398989 -0.52866728
v -0.79417640 -0.23398989 -0.56122576
v -0.79421921 -0.23398989 -0.60999348
v -0.79307356 -0.23398989 -0.72392490
v -0.78458272 -0.24510908 -0.73429504
v -0.77283695 -0.24660684 -0.73546285
v -0.79451902 -0.21771285 -0.26179961
v -0.79829866 -0.18518851 -0.27441195
v -0.80086839 -0.16891145 -0.28464195
v -0.79413353 -0.20145563 -0.70762227
v -0.79451902 -0.21771285 -0.70762227
v -0.77283695 -0.23398989 -0.73891959
v -0.78641367 -0.23398989 -0.73546285
v -0.78645649 -0.21771285 -0.73550954
v -0.79322344 -0.21771285 -0.72392490
v -0.79410143 -0.22742353 -0.26179961
v -0.79987261 -0.18518851 -0.28464195
f 1 2 3
f 1 3 4
f 1 4 5
f 1 5 6
f 1 6 7
f 1 7 8
f 1 8 17
f 1 17 16
f 1 16 30
f 1 30 47
f 1 47 44
f 1 44 22
f 1 22 14
f 1 14 2
f 2 9 10
f 2 10 11
f 2 11 12
f 2 12 13
f 2 13 3
f 2 14 21
f 2 21 43
f 2 43 53
f 2 53 52
f 2 52 75
f 2 75 74
f 2 74 73
f 2 73 72
f 2 72 91
f 2 91 63
f 2 63 41
f 2 41 20
f 2 20 18
f 2 18 9
f 3 13 12
f 3 12 11
f 3 11 10
f 3 10 19
f 3 19 40
f 3 40 42
f 3 42 62
f 3 62 90
f 3 90 115
f 3 115 124
f 3 124 100
f 3 100 85
f 3 85 76
f 3 76 55
f 3 55 28
f 3 28 15
f 3 15 7
f 3 7 6
f 3 6 5
f 3 5 4
f 7 15 16
f 7 16 17
f 7 17 8
f 9 18 10
f 10 18 20
f 10 20 19
f 14 22 23
f 14 23 24
f 14 24 25
f 14 25 26
f 14 26 21
f 15 27 16
f 15 28 29
f 15 29 27
f 16 27 31
f 16 31 32
f 16 32 33
f 16 33 34
f 16 34 35
f 16 35 36
f 16 36 37
f 16 37 38
f 16 38 39
f 16 39 30
f 19 20 40
f 20 41 42
f 20 42 40
f 21 26 43
f 22 44 23
f 23 39 45
f 23 45 46
f 23 46 24
f 23 44 47
f 23 47 39
f 24 46 48
f 24 48 49
f 24 49 25
f 25 49 26
f 26 49 50
f 26 50 69
f 26 69 51
f 26 51 52
f 26 52 53
f 26 53 43
f 27 54 31
f 27 29 54
f 28 55 56
f 28 56 29
f 29 57 84
f 29 84 58
f 29 58 59
f 29 59 38
f 29 38 60
f 29 60 36
f 29 36 35
f 29 35 34
f 29 34 61
f 29 61 31
f 29 31 54
f 29 56 77
f 29 77 57
f 30 39 47
f 31 61 34
f 31 34 33
f 31 33 32
f 36 60 38
f 36 38 37
f 38 59 39
f 39 59 45
f 41 62 42
f 41 63 62
f 45 59 64
f 45 64 65
f 45 65 46
f 46 65 66
f 46 66 48
f 48 66 67
f 48 67 68
f 48 68 49
f 49 68 50
f 50 68 95
f 50 95 69
f 51 69 70
f 51 70 71
f 51 71 72
f 51 72 73
f 51 73 74
f 51 74 75
f 51 75 52
f 55 76 77
f 55 77 56
f 57 78 79
f 57 79 80
f 57 80 81
f 57 81 82
f 57 82 83
f 57 83 84
f 57 77 85
f 57 85 86
f 57 86 87
f 57 87 88
f 57 88 78
f 58 84 114
f 58 114 89
f 58 89 64
f 58 64 59
f 62 63 90
f 63 91 92
f 63 92 90
f 64 89 93
f 64 93 65
f 65 93 67
f 65 67 66
f 67 94 95
f 67 95 68
f 67 93 120
f 67 120 94
f 69 95 70
f 70 96 71
f 70 95 97
f 70 97 96
f 71 96 91
f 71 91 72
f 76 85 77
f 78 98 79
f 78 88 99
f 78 99 100
f 78 100 98
f 79 98 80
f 80 98 101
f 80 101 100
f 80 100 81
f 81 100 82
f 82 102 83
f 82 100 103
f 82 103 104
f 82 104 105
f 82 105 106
f 82 106 107
f 82 107 108
f 82 108 109
f 82 109 110
f 82 110 111
f 82 111 102
f 83 112 113
f 83 113 84
f 83 102 112
f 84 113 114
f 85 100 86
f 86 100 87
f 87 100 88
f 88 100 99
f 89 114 120
f 89 120 93
f 90 92 116
f 90 116 115
f 91 117 92
f 91 96 118
f 91 118 119
f 91 119 117
f 92 117 116
f 94 120 121
f 94 121 122
f 94 122 97
f 94 97 95
f 96 97 123
f 96 123 119
f 96 119 118
f 97 122 123
f 98 100 101
f 100 124 116
f 100 116 117
f 100 117 125
f 100 125 103
f 102 119 112
f 102 111 125
f 102 125 117
f 102 117 119
f 103 125 104
f 104 125 105
f 105 125 106
f 106 125 107
f 107 125 108
f 108 125 109
f 109 125 110
f 110 125 111
f 112 123 121
f 112 121 113
f 112 119 123
f 113 121 120
f 113 120 114
f 115 116 124
f 121 123 122

