# https://github.com/mikedh/trimesh
v 0.79040472 0.12293636 -0.28463754
v 0.79040472 0.07513786 -0.28463754
v 0.78667338 0.12293636 -0.29673755
v 0.79009381 0.12293636 -0.28397428
v 0.78636247 0.07513786 -0.29747810
v 0.78496317 0.07513786 -0.27400578
v 0.78216476 0.01325319 -0.27515202
v 0.78263113 0.01325319 -0.27700663
v 0.78403033 0.01325319 -0.28463754
v 0.78387488 0.01325319 -0.28682702
v 0.78278659 0.01325319 -0.29580382
v 0.78636247 0.12293636 -0.29754894
v 0.78636247 0.09140352 -0.29750387
v 0.78480771 0.12293636 -0.27412812
v 0.78496317 0.10767991 -0.27408948
v 0.78496317 0.09140352 -0.27404441
v 0.77454653 0.01325319 -0.31717039
v 0.76941599 0.01325319 -0.32980489
v 0.76941599 0.02634087 -0.32985641
v 0.77283642 0.07513786 -0.27147501
v 0.77283642 0.01325319 -0.27250534
v 0.76941599 0.09140352 -0.32995943
v 0.76941599 0.12293636 -0.32998520
v 0.78418589 0.12293636 -0.27397359
v 0.75651177 0.01325319 -0.33435769
v 0.75651177 0.02634087 -0.33444783
v 0.75651177 0.12293636 -0.33492436
v 0.77283642 0.10767991 -0.27164245
v 0.75651177 0.07513786 -0.27140417
v 0.75651177 0.01325319 -0.27119812
v 0.75728915 0.12293636 -0.33462814
v 0.77283642 0.12293636 -0.27172616
v 0.74018722 0.01325319 -0.33441563
v 0.74018722 0.09140352 -0.33482134
v 0.74018722 0.05888293 -0.33465391
v 0.74018722 0.07513786 -0.33473762
v -0.75654358 0.12293636 -0.33509824
v 0.77174803 0.12293636 -0.27171971
v 0.75542348 0.12293636 -0.27164887
v 0.75651177 0.09140352 -0.27148789
v 0.65887527 0.07513786 -0.27099204
v 0.31714738 0.07513786 -0.26955601
v 0.28465368 0.07513786 -0.26942077
v 0.26832911 0.07513786 -0.26935638
v 0.25216001 0.07513786 -0.26931131
v 0.21951083 0.01325319 -0.27119812
v -0.75654358 0.01325319 -0.33441563
v -0.77271267 0.01325319 -0.33281862
v -0.77177984 0.12293636 -0.33348835
v 0.74018722 0.12293636 -0.27158448
v 0.72401812 0.10767991 -0.27143637
v 0.62638162 0.09140352 -0.27094052
v 0.28465368 0.09140352 -0.26950449
v 0.26832911 0.10767991 -0.26952381
v 0.26739627 0.12293636 -0.26960108
v 0.25216001 0.12293636 -0.26956246
v -0.77271267 0.01325319 -0.27146856
v -0.77488935 0.01325319 -0.33191708
v -0.77271267 0.12293636 -0.33338531
v 0.62529324 0.12293636 -0.27110153
v 0.41385105 0.12293636 -0.27021284
v 0.31714738 0.12293636 -0.26980716
v 0.28465368 0.12293636 -0.26967192
v 0.23583541 0.12293636 -0.26961398
v -0.77271267 0.02634087 -0.27153941
v -0.78779348 0.02634087 -0.27395426
v -0.78779348 0.01325319 -0.27392207
v -0.78328486 0.01325319 -0.32826583
v -0.78281840 0.12293636 -0.32878742
v -0.75654358 0.12293636 -0.27457245
v -0.76680476 0.12293636 -0.27554483
v -0.78623882 0.04260654 -0.27457890
v -0.79587808 0.02634087 -0.28054198
v -0.79432332 0.01325319 -0.27922186
v -0.79758829 0.01325319 -0.29350487
v -0.78344032 0.10767991 -0.32844613
v -0.78344032 0.12293636 -0.32849120
v -0.77488935 0.12293636 -0.28108932
v -0.78312931 0.12293636 -0.28922255
v -0.79478979 0.04268169 -0.28463111
v -0.79743283 0.03730275 -0.29005324
v -0.79758829 0.02634087 -0.28867518
v -0.79727728 0.01325319 -0.28705240
v -0.79587808 0.01325319 -0.28050978
v -0.79758829 0.01325319 -0.28864941
v -0.79758829 0.02634087 -0.29351775
v -0.79743283 0.03730275 -0.29327949
v -0.78592781 0.12293636 -0.31717039
v -0.78561690 0.12293636 -0.30090398
f 1 2 3
f 1 3 12
f 1 12 23
f 1 23 31
f 1 31 27
f 1 27 37
f 1 37 49
f 1 49 59
f 1 59 69
f 1 69 77
f 1 77 88
f 1 88 89
f 1 89 79
f 1 79 78
f 1 78 71
f 1 71 70
f 1 70 64
f 1 64 56
f 1 56 55
f 1 55 63
f 1 63 62
f 1 62 61
f 1 61 60
f 1 60 50
f 1 50 39
f 1 39 38
f 1 38 32
f 1 32 24
f 1 24 14
f 1 14 4
f 1 4 2
f 2 5 3
f 2 4 6
f 2 6 7
f 2 7 8
f 2 8 9
f 2 9 10
f 2 10 11
f 2 11 5
f 3 5 13
f 3 13 12
f 4 14 15
f 4 15 16
f 4 16 6
f 5 11 17
f 5 17 18
f 5 18 19
f 5 19 22
f 5 22 13
f 6 16 20
f 6 20 21
f 6 21 7
f 7 21 30
f 7 30 46
f 7 46 57
f 7 57 67
f 7 67 74
f 7 74 84
f 7 84 83
f 7 83 85
f 7 85 75
f 7 75 68
f 7 68 58
f 7 58 48
f 7 48 47
f 7 47 33
f 7 33 25
f 7 25 18
f 7 18 17
f 7 17 11
f 7 11 10
f 7 10 9
f 7 9 8
f 12 13 22
f 12 22 23
f 14 24 15
f 15 24 20
f 15 20 16
f 18 25 26
f 18 26 27
f 18 27 19
f 19 27 22
f 20 24 28
f 20 28 29
f 20 29 30
f 20 30 21
f 22 27 31
f 22 31 23
f 24 32 28
f 25 33 26
f 26 34 27
f 26 33 35
f 26 35 36
f 26 36 34
f 27 34 37
f 28 32 38
f 28 38 39
f 28 39 40
f 28 40 29
f 29 40 41
f 29 41 30
f 30 41 42
f 30 42 43
f 30 43 44
f 30 44 45
f 30 45 46
f 33 47 37
f 33 37 35
f 34 36 37
f 35 37 36
f 37 47 48
f 37 48 49
f 39 50 40
f 40 50 51
f 40 51 41
f 41 51 52
f 41 52 53
f 41 53 42
f 42 53 43
f 43 53 54
f 43 54 44
f 44 54 45
f 45 54 55
f 45 55 56
f 45 56 57
f 45 57 46
f 48 58 59
f 48 59 49
f 50 60 51
f 51 60 52
f 52 60 61
f 52 61 53
f 53 62 63
f 53 63 54
f 53 61 62
f 54 63 55
f 56 64 65
f 56 65 57
f 57 65 66
f 57 66 67
f 58 68 59
f 59 68 69
f 64 70 65
f 65 70 71
f 65 71 66
f 66 71 72
f 66 72 73
f 66 73 74
f 66 74 67
f 68 75 76
f 68 76 77
f 68 77 69
f 71 78 72
f 72 78 79
f 72 79 73
f 73 79 80
f 73 80 81
f 73 81 82
f 73 82 83
f 73 83 84
f 73 84 74
f 75 85 82
f 75 82 86
f 75 86 77
f 75 77 76
f 77 86 87
f 77 87 88
f 79 89 81
f 79 81 80
f 81 88 87
f 81 87 86
f 81 86 82
f 81 89 88
f 82 85 83

