# https://github.com/mikedh/trimesh
v -0.69149451 -0.16892787 0.06259399
v -0.69149451 -0.18519742 0.05884303
v -0.69149451 -0.15199938 0.06250775
v -0.71685278 -0.20145730 0.17865825
v -0.71684221 -0.21771717 0.17865825
v -0.69149451 -0.19484870 0.05194471
v -0.71828399 -0.23398674 0.17865825
v -0.69149451 -0.15198969 0.06194727
v -0.70711020 -0.15198969 0.06276644
v -0.74030286 -0.17846285 0.17865825
v -0.73201267 -0.18235825 0.17865825
v -0.72451756 -0.18589511 0.17865825
v -0.69149451 -0.19484870 0.04513261
v -0.72591691 -0.24541129 0.17089763
v -0.72584272 -0.24549850 0.13838929
v -0.72576848 -0.24558570 0.10583784
v -0.72563068 -0.24576012 0.04073494
v -0.72552468 -0.24588609 -0.00807069
v -0.72546106 -0.24597330 -0.04057903
v -0.72530202 -0.24618649 -0.12189298
v -0.72527021 -0.24622525 -0.13819028
v -0.72518540 -0.24635123 -0.18699590
v -0.72507940 -0.24652564 -0.25205571
v -0.72506878 -0.24655471 -0.26179956
v -0.72593810 -0.24539192 0.17865825
v -0.69149451 -0.15198969 0.03344858
v -0.72338320 -0.15198969 0.06306825
v -0.75656525 -0.17846285 0.17865825
v -0.75590798 -0.15198969 0.06362874
v -0.77218099 -0.15198969 0.06388743
v -0.69149451 -0.18518774 0.03750135
v -0.71740406 -0.23398674 -0.26179956
v -0.72588510 -0.24545973 0.15464346
v -0.72581091 -0.24554694 0.12209201
v -0.74030286 -0.25098306 -0.26179956
v -0.72524902 -0.24627369 -0.15444444
v -0.72521721 -0.24631246 -0.17069861
v -0.72511121 -0.24648688 -0.23580152
v -0.73416472 -0.24920009 -0.26179956
v -0.73349683 -0.24712642 0.17865825
v -0.72860966 -0.15198969 0.01146018
v -0.69149451 -0.15264861 0.03344858
v -0.71633332 -0.20145730 -0.26179956
v -0.72190962 -0.18601139 -0.26179956
v -0.72269412 -0.18452882 -0.26179956
v -0.72431614 -0.18387958 -0.26179956
v -0.74030286 -0.17883108 -0.26179956
v -0.76428303 -0.17849193 0.17865825
v -0.77282769 -0.15198969 0.06388743
v -0.69149451 -0.16891817 0.03353481
v -0.71688459 -0.22427732 -0.26179956
v -0.71663017 -0.21719392 -0.26179956
v -0.71634394 -0.20392826 -0.26179956
v -0.77282769 -0.25098306 -0.26179956
v -0.74030286 -0.24948110 0.02448076
v -0.74030286 -0.24866714 0.17865825
v -0.74030286 -0.24896753 0.12209201
v -0.74030286 -0.15198969 0.00525169
v -0.75656525 -0.17879232 -0.26179956
v -0.75656525 -0.15198969 0.00391514
v -0.77282769 -0.17853068 0.17865825
v -0.78845400 -0.15198969 0.06190416
v -0.78665175 -0.24597330 -0.04057903
v -0.78686380 -0.24627369 -0.15444444
v -0.78700160 -0.24648688 -0.23580152
v -0.78703341 -0.24655471 -0.26179956
v -0.77282769 -0.24948110 0.02448076
v -0.78617472 -0.24539192 0.17865825
v -0.78622772 -0.24545973 0.15464346
v -0.78630191 -0.24554694 0.12209201
v -0.78648214 -0.24576012 0.04073494
v -0.77282769 -0.24866714 0.17865825
v -0.77282769 -0.24896753 0.12209201
v -0.75710596 -0.17879232 -0.26179956
v -0.77282769 -0.15198969 0.00607087
v -0.77282769 -0.17882139 -0.26179956
v -0.78774368 -0.18595325 0.17865825
v -0.78910065 -0.15198969 0.06181792
v -0.79936275 -0.15198969 0.05457469
v -0.79978679 -0.15198969 0.05427289
v -0.78674718 -0.24609928 -0.08938465
v -0.79294894 -0.23398674 0.17865825
v -0.78689561 -0.24631246 -0.17069861
v -0.79297013 -0.23398674 0.17089763
v -0.78976854 -0.24149652 -0.26179956
v -0.79304437 -0.23398674 0.13838929
v -0.79311856 -0.23398674 0.10583784
v -0.79322456 -0.23398674 0.05703222
v -0.79336241 -0.23398674 -0.00807069
v -0.79348960 -0.23398674 -0.07308736
v -0.79358502 -0.23398674 -0.12189298
v -0.78938693 -0.23999457 0.17865825
v -0.78645033 -0.24571168 0.05703222
v -0.78361978 -0.15198969 0.01227935
v -0.78941869 -0.18505208 -0.26179956
v -0.79978679 -0.15198969 0.04414098
v -0.78386363 -0.15198969 0.01275361
v -0.79130574 -0.19408319 0.17865825
v -0.79978679 -0.16891817 0.05444535
v -0.79451796 -0.20145730 0.17865825
v -0.79370164 -0.22626380 0.17865825
v -0.79892809 -0.18518774 0.05323814
v -0.79778312 -0.19518785 0.05086684
v -0.79377583 -0.23398674 -0.23580152
v -0.79379707 -0.23398674 -0.25205571
v -0.79380764 -0.23398674 -0.26179956
v -0.79366983 -0.23398674 -0.17069861
v -0.79507980 -0.20105032 -0.26179956
v -0.79978679 -0.15264861 0.04414098
v -0.79978679 -0.16891817 0.04418410
v -0.79451796 -0.21771717 0.17865825
v -0.79892809 -0.18518774 0.04504638
v -0.79410449 -0.22742659 -0.26179956
v -0.79451796 -0.21771717 -0.26179956
f 1 2 6
f 1 6 13
f 1 13 31
f 1 31 50
f 1 50 42
f 1 42 26
f 1 26 8
f 1 8 3
f 1 3 4
f 1 4 5
f 1 5 2
f 2 5 7
f 2 7 6
f 3 8 9
f 3 9 10
f 3 10 11
f 3 11 12
f 3 12 4
f 4 12 11
f 4 11 10
f 4 10 28
f 4 28 48
f 4 48 61
f 4 61 77
f 4 77 98
f 4 98 100
f 4 100 111
f 4 111 101
f 4 101 82
f 4 82 92
f 4 92 68
f 4 68 72
f 4 72 56
f 4 56 40
f 4 40 25
f 4 25 7
f 4 7 5
f 6 7 14
f 6 14 15
f 6 15 16
f 6 16 17
f 6 17 18
f 6 18 19
f 6 19 20
f 6 20 21
f 6 21 22
f 6 22 23
f 6 23 24
f 6 24 13
f 7 25 14
f 8 26 41
f 8 41 58
f 8 58 60
f 8 60 75
f 8 75 94
f 8 94 97
f 8 97 96
f 8 96 80
f 8 80 79
f 8 79 78
f 8 78 62
f 8 62 49
f 8 49 30
f 8 30 29
f 8 29 27
f 8 27 9
f 9 27 10
f 10 27 29
f 10 29 30
f 10 30 49
f 10 49 28
f 13 24 32
f 13 32 31
f 14 33 15
f 14 25 33
f 15 33 34
f 15 34 16
f 16 34 17
f 17 34 35
f 17 35 19
f 17 19 18
f 19 35 20
f 20 35 36
f 20 36 38
f 20 38 23
f 20 23 37
f 20 37 22
f 20 22 21
f 22 37 23
f 23 38 24
f 24 38 39
f 24 39 35
f 24 35 54
f 24 54 66
f 24 66 85
f 24 85 106
f 24 106 113
f 24 113 114
f 24 114 108
f 24 108 95
f 24 95 76
f 24 76 74
f 24 74 59
f 24 59 47
f 24 47 46
f 24 46 45
f 24 45 44
f 24 44 43
f 24 43 53
f 24 53 52
f 24 52 51
f 24 51 32
f 25 40 35
f 25 35 33
f 26 42 43
f 26 43 44
f 26 44 45
f 26 45 46
f 26 46 47
f 26 47 41
f 28 49 48
f 31 32 51
f 31 51 52
f 31 52 53
f 31 53 50
f 33 35 34
f 35 39 36
f 35 40 55
f 35 55 67
f 35 67 54
f 36 39 38
f 40 56 57
f 40 57 55
f 41 47 58
f 42 50 43
f 43 50 53
f 47 59 60
f 47 60 58
f 48 49 61
f 49 62 61
f 54 63 64
f 54 64 65
f 54 65 66
f 54 67 68
f 54 68 69
f 54 69 70
f 54 70 71
f 54 71 63
f 55 57 73
f 55 73 67
f 56 72 73
f 56 73 57
f 59 74 60
f 60 74 76
f 60 76 75
f 61 62 78
f 61 78 79
f 61 79 80
f 61 80 77
f 63 81 64
f 63 71 82
f 63 82 81
f 64 83 65
f 64 81 82
f 64 82 83
f 65 83 82
f 65 82 84
f 65 84 66
f 66 84 86
f 66 86 87
f 66 87 88
f 66 88 89
f 66 89 90
f 66 90 91
f 66 91 85
f 67 73 68
f 68 73 72
f 68 92 69
f 69 92 70
f 70 92 93
f 70 93 71
f 71 93 82
f 75 76 94
f 76 95 96
f 76 96 97
f 76 97 94
f 77 80 98
f 80 96 109
f 80 109 110
f 80 110 99
f 80 99 100
f 80 100 98
f 82 93 92
f 82 101 102
f 82 102 103
f 82 103 84
f 84 103 86
f 85 104 105
f 85 105 106
f 85 91 107
f 85 107 104
f 86 103 87
f 87 103 88
f 88 103 89
f 89 103 90
f 90 103 91
f 91 103 107
f 95 108 96
f 96 108 109
f 99 110 112
f 99 112 102
f 99 102 111
f 99 111 100
f 101 111 102
f 102 112 106
f 102 106 105
f 102 105 104
f 102 104 103
f 103 104 107
f 106 112 110
f 106 110 113
f 108 114 110
f 108 110 109
f 110 114 113

