# https://github.com/mikedh/trimesh
v -0.37138422 -0.15198969 -0.27533211
v -0.07289324 -0.15199405 -0.27364553
v -0.37138422 -0.15198969 -0.30446839
v -0.69143390 -0.15198969 -0.27217823
v -0.07289324 -0.16891724 -0.27354235
v -0.07289324 -0.15199405 -0.28563220
v -0.07325659 -0.15199405 -0.30279149
v -0.38234524 -0.15198969 -0.30453288
v -0.69143390 -0.15198969 -0.30131129
v -0.69143390 -0.16892598 -0.27207504
v -0.07289324 -0.18517678 -0.27446464
v -0.07289324 -0.15200715 -0.30279149
v -0.12206645 -0.15199405 -0.30306882
v -0.41553110 -0.15198969 -0.30471993
v -0.69143390 -0.15264460 -0.30130806
v -0.52944094 -0.15198969 -0.30425232
v -0.69143390 -0.18518114 -0.27314246
v -0.07289324 -0.19361217 -0.27592549
v -0.07289324 -0.15264460 -0.30278827
v -0.07289324 -0.16891724 -0.30270440
v -0.28539169 -0.15199405 -0.30398789
v -0.46367481 -0.15198969 -0.30499081
v -0.69143390 -0.16891287 -0.30122100
v -0.59381422 -0.16891287 -0.30299464
v -0.67514377 -0.16891287 -0.30151768
v -0.49692121 -0.15198969 -0.30484246
v -0.69143390 -0.19444611 -0.27538050
v -0.07289324 -0.19386978 -0.27597064
v -0.07289324 -0.16930147 -0.30267861
v -0.44738469 -0.16891287 -0.30481022
v -0.46367481 -0.15264460 -0.30498759
v -0.47996494 -0.15198969 -0.30501983
v -0.69143390 -0.18518114 -0.29946669
v -0.49625506 -0.16891287 -0.30476507
v -0.49625506 -0.15198969 -0.30485213
v -0.49625506 -0.15264460 -0.30484891
v -0.69143390 -0.19445047 -0.27538695
v -0.07289324 -0.19622749 -0.28463572
v -0.07289324 -0.18517678 -0.30076629
v -0.46367481 -0.16891287 -0.30490050
v -0.47996494 -0.16891287 -0.30492955
v -0.69143390 -0.19545468 -0.29526151
v -0.64262403 -0.18518114 -0.30023420
v -0.49625506 -0.18518114 -0.30241095
v -0.57758466 -0.18518114 -0.30122422
v -0.59381422 -0.18518114 -0.30098236
v -0.61010435 -0.18518114 -0.30073727
v -0.62633391 -0.18518114 -0.30048896
v -0.69143390 -0.19659425 -0.28464217
v -0.07289324 -0.19573412 -0.29552917
v -0.07289324 -0.18545184 -0.30064699
v -0.46367481 -0.18518114 -0.30252383
v -0.47996494 -0.18518114 -0.30254640
v -0.62633391 -0.19556821 -0.29569042
v -0.61010435 -0.19559877 -0.29579361
v -0.59381422 -0.19562060 -0.29589037
v -0.57758466 -0.19563807 -0.29598388
v -0.56129449 -0.19564680 -0.29607094
v -0.49625506 -0.19564680 -0.29643214
v -0.47996494 -0.19564680 -0.29648696
v -0.07289324 -0.19567299 -0.29581940
v -0.46367481 -0.19564680 -0.29647728
f 1 2 6
f 1 6 3
f 1 3 8
f 1 8 14
f 1 14 22
f 1 22 32
f 1 32 35
f 1 35 26
f 1 26 16
f 1 16 9
f 1 9 4
f 1 4 2
f 2 5 11
f 2 11 18
f 2 18 28
f 2 28 38
f 2 38 50
f 2 50 61
f 2 61 51
f 2 51 39
f 2 39 29
f 2 29 20
f 2 20 19
f 2 19 12
f 2 12 6
f 2 4 5
f 3 6 7
f 3 7 8
f 4 9 15
f 4 15 23
f 4 23 33
f 4 33 42
f 4 42 49
f 4 49 37
f 4 37 27
f 4 27 17
f 4 17 10
f 4 10 5
f 5 10 11
f 6 12 7
f 7 13 8
f 7 12 13
f 8 13 14
f 9 16 15
f 10 17 11
f 11 17 18
f 12 19 13
f 13 19 20
f 13 20 21
f 13 21 14
f 14 21 22
f 15 16 24
f 15 24 25
f 15 25 23
f 16 26 34
f 16 34 24
f 17 27 28
f 17 28 18
f 20 29 30
f 20 30 31
f 20 31 21
f 21 31 22
f 22 31 32
f 23 25 33
f 24 33 25
f 24 34 33
f 26 35 36
f 26 36 34
f 27 37 28
f 28 37 38
f 29 39 30
f 30 40 31
f 30 39 40
f 31 40 41
f 31 41 32
f 32 41 34
f 32 34 36
f 32 36 35
f 33 34 43
f 33 43 42
f 34 41 44
f 34 44 45
f 34 45 46
f 34 46 47
f 34 47 48
f 34 48 43
f 37 49 38
f 38 49 50
f 39 51 52
f 39 52 40
f 40 52 41
f 41 52 53
f 41 53 44
f 42 43 48
f 42 48 47
f 42 47 46
f 42 46 45
f 42 45 44
f 42 44 53
f 42 53 54
f 42 54 55
f 42 55 49
f 49 55 56
f 49 56 57
f 49 57 58
f 49 58 59
f 49 59 60
f 49 60 50
f 50 60 62
f 50 62 61
f 51 61 52
f 52 62 53
f 52 61 62
f 53 62 60
f 53 60 59
f 53 59 58
f 53 58 57
f 53 57 56
f 53 56 55
f 53 55 54

