# https://github.com/mikedh/trimesh
v -0.33354050 0.15649451 -0.41936366
v -0.31731826 0.15649451 -0.41936366
v -0.19293116 0.14438121 -0.41267269
v -0.69814547 0.15618436 -0.41893293
v -0.34981220 0.15649451 -0.41934931
v -0.69814547 0.16574249 -0.41709504
v -0.30104653 0.15649451 -0.41933495
v -0.19293116 0.14866333 -0.41491260
v -0.19293116 0.14235469 -0.40543607
v -0.59383837 0.14585088 -0.41166761
v -0.52875152 0.14563942 -0.41191170
v -0.44739298 0.14537861 -0.41218450
v -0.39862734 0.14522001 -0.41232808
v -0.28477481 0.14480766 -0.41258652
v -0.69814547 0.15038676 -0.41492695
v -0.69814547 0.17226965 -0.41499871
v -0.26850311 0.15649451 -0.41923443
v -0.20341629 0.15649451 -0.41899034
v -0.19293116 0.15649451 -0.41894728
v -0.23595969 0.15649451 -0.41911956
v -0.19293116 0.14235469 -0.27269309
v -0.19505787 0.14235469 -0.40539299
v -0.69814547 0.14618570 -0.41122247
v -0.65892521 0.14605881 -0.41139476
v -0.64265352 0.14600947 -0.41146657
v -0.51247983 0.14559007 -0.41196911
v -0.31731826 0.14495216 -0.41254346
v -0.69814547 0.17813422 -0.39851533
v -0.19293116 0.16896378 -0.41293114
v -0.19293116 0.16093524 -0.41680789
v -0.69814547 0.15649451 -0.27351149
v -0.69814547 0.14235469 -0.27450222
v -0.19293116 0.15649451 -0.27277923
v -0.22661212 0.14235469 -0.40456021
v -0.69814547 0.14491692 -0.40369870
v -0.24238925 0.14235469 -0.40411508
v -0.39986377 0.14235469 -0.39953477
v -0.43131912 0.14235469 -0.39861583
v -0.43468228 0.14235469 -0.39851533
v -0.69814547 0.17828577 -0.36597931
v -0.19293116 0.17469089 -0.28463921
v -0.19293116 0.17334105 -0.39851533
v -0.19293116 0.17053565 -0.40779085
v -0.69814547 0.16891091 -0.27362636
v -0.69814547 0.14235469 -0.30392250
v -0.19293116 0.16834701 -0.27466017
v -0.69146861 0.14401115 -0.39851533
v -0.69814547 0.14405696 -0.39851533
v -0.69814547 0.17835978 -0.34971129
v -0.69814547 0.17572001 -0.28463921
v -0.69814547 0.17281240 -0.27898203
f 1 2 3
f 1 3 4
f 1 4 5
f 1 5 6
f 1 6 2
f 2 7 3
f 2 6 7
f 3 7 8
f 3 8 19
f 3 19 30
f 3 30 29
f 3 29 43
f 3 43 42
f 3 42 41
f 3 41 46
f 3 46 33
f 3 33 21
f 3 21 9
f 3 9 10
f 3 10 11
f 3 11 12
f 3 12 13
f 3 13 14
f 3 14 15
f 3 15 4
f 4 15 23
f 4 23 35
f 4 35 48
f 4 48 45
f 4 45 32
f 4 32 31
f 4 31 44
f 4 44 51
f 4 51 50
f 4 50 49
f 4 49 40
f 4 40 28
f 4 28 16
f 4 16 6
f 4 6 5
f 6 16 7
f 7 17 8
f 7 16 17
f 8 18 19
f 8 17 20
f 8 20 18
f 9 21 32
f 9 32 45
f 9 45 39
f 9 39 38
f 9 38 37
f 9 37 36
f 9 36 34
f 9 34 22
f 9 22 23
f 9 23 24
f 9 24 10
f 10 24 25
f 10 25 15
f 10 15 11
f 11 15 26
f 11 26 12
f 12 26 15
f 12 15 13
f 13 27 14
f 13 15 27
f 14 27 15
f 15 25 24
f 15 24 23
f 16 28 29
f 16 29 30
f 16 30 19
f 16 19 18
f 16 18 20
f 16 20 17
f 21 31 32
f 21 33 31
f 22 34 23
f 23 34 36
f 23 36 37
f 23 37 38
f 23 38 39
f 23 39 35
f 28 40 41
f 28 41 42
f 28 42 43
f 28 43 29
f 31 33 44
f 33 46 44
f 35 47 48
f 35 39 47
f 39 45 47
f 40 49 41
f 41 49 50
f 41 50 51
f 41 51 46
f 44 46 51
f 45 48 47

