# https://github.com/mikedh/trimesh
v 0.02933497 0.13864437 -0.35123443
v 0.02933497 0.14235469 -0.35123443
v 0.04073617 0.13852842 -0.35123443
v 0.74023415 0.12293636 -0.33487761
v 0.02933497 0.12293636 -0.30516191
v 0.02933497 0.14235469 -0.27068146
v 0.78181506 0.14235469 -0.35123443
v 0.05549070 0.13839157 -0.35123443
v 0.75655357 0.12293636 -0.33492557
v 0.10429981 0.13793918 -0.35123443
v 0.23440777 0.13673409 -0.35123443
v 0.23597266 0.13672078 -0.35123443
v 0.25072716 0.13665806 -0.35123443
v 0.25221752 0.13665236 -0.35123443
v 0.02933497 0.12293636 -0.27104921
v 0.15355603 0.12293636 -0.27018578
v 0.17084414 0.12293636 -0.27006587
v 0.21965325 0.12293636 -0.26973011
v 0.23597266 0.12293636 -0.26961817
v 0.23597266 0.14022201 -0.26970610
v 0.23597266 0.14235469 -0.26972211
v 0.79053365 0.14235469 -0.28463992
v 0.79045912 0.12293636 -0.28463992
v 0.78650968 0.12293636 -0.29754310
v 0.76944514 0.12293636 -0.32998494
v 0.77279840 0.13927923 -0.35123443
v 0.75498868 0.13893139 -0.35123443
v 0.75655357 0.13893899 -0.35123443
v 0.26697202 0.13669988 -0.35123443
v 0.26846238 0.13670558 -0.35123443
v 0.25221752 0.12293636 -0.26956221
v 0.25221752 0.14235469 -0.26966615
v 0.23805915 0.14235469 -0.26971411
v 0.78494484 0.14235469 -0.27375936
v 0.78494484 0.12293636 -0.27412710
v 0.26846238 0.12293636 -0.26960219
v 0.72644840 0.14235469 -0.27045761
v 0.77294746 0.14235469 -0.27076140
v 0.77279840 0.12293636 -0.27172873
v 0.28373850 0.12293636 -0.26966615
v 0.75655357 0.14235469 -0.27057753
v 0.74269323 0.14235469 -0.27052155
v 0.77175521 0.12293636 -0.27172073
v 0.60908297 0.12293636 -0.27103320
v 0.75551027 0.12293636 -0.27164880
f 1 2 7
f 1 7 26
f 1 26 28
f 1 28 27
f 1 27 30
f 1 30 29
f 1 29 14
f 1 14 13
f 1 13 12
f 1 12 11
f 1 11 10
f 1 10 8
f 1 8 3
f 1 3 4
f 1 4 5
f 1 5 15
f 1 15 6
f 1 6 2
f 2 6 21
f 2 21 33
f 2 33 32
f 2 32 37
f 2 37 42
f 2 42 41
f 2 41 38
f 2 38 34
f 2 34 22
f 2 22 7
f 3 8 4
f 4 9 25
f 4 25 24
f 4 24 23
f 4 23 35
f 4 35 39
f 4 39 43
f 4 43 45
f 4 45 44
f 4 44 40
f 4 40 36
f 4 36 31
f 4 31 19
f 4 19 18
f 4 18 17
f 4 17 16
f 4 16 15
f 4 15 5
f 4 8 10
f 4 10 11
f 4 11 12
f 4 12 13
f 4 13 14
f 4 14 9
f 6 15 16
f 6 16 17
f 6 17 18
f 6 18 19
f 6 19 20
f 6 20 21
f 7 22 23
f 7 23 24
f 7 24 25
f 7 25 26
f 9 27 28
f 9 28 26
f 9 26 25
f 9 14 29
f 9 29 30
f 9 30 27
f 19 31 20
f 20 31 32
f 20 32 33
f 20 33 21
f 22 34 23
f 23 34 35
f 31 36 37
f 31 37 32
f 34 38 35
f 35 38 39
f 36 40 41
f 36 41 42
f 36 42 37
f 38 41 39
f 39 41 43
f 40 44 41
f 41 44 45
f 41 45 43

