# https://github.com/mikedh/trimesh
v 0.70777144 0.18236954 0.63482191
v 0.70802965 0.18161358 0.63482191
v 0.67512534 0.14243694 0.68390326
v 0.67512534 0.15649462 0.68382277
v 0.67512534 0.15658472 0.68384289
v 0.67512534 0.17276144 0.68780722
v 0.67512534 0.18229120 0.69577612
v 0.67661847 0.18236954 0.69544412
v 0.78248246 0.18236954 0.63482191
v 0.71113931 0.17276144 0.63482191
v 0.67522640 0.14235469 0.68390326
v 0.67512534 0.14235469 0.71173409
v 0.67512534 0.18229120 0.70243703
v 0.67624801 0.18236954 0.70247727
v 0.78715260 0.18236954 0.69158040
v 0.78915089 0.17276144 0.69158040
v 0.78980200 0.15649462 0.69158040
v 0.78958869 0.14235469 0.69158040
v 0.78226916 0.18025443 0.63482191
v 0.72402714 0.16571104 0.63482191
v 0.72800121 0.14235469 0.64967307
v 0.67512534 0.14235469 0.71297173
v 0.67512534 0.17276144 0.70900736
v 0.71246403 0.18236954 0.73506737
v 0.78552477 0.18236954 0.70827284
v 0.78733220 0.15649462 0.70624037
v 0.78144964 0.18236954 0.73286383
v 0.78734345 0.14235469 0.70612972
v 0.78765776 0.14235469 0.70420790
v 0.78205586 0.17821764 0.63482191
v 0.77049274 0.14235469 0.65746091
v 0.73945207 0.16520577 0.63482191
v 0.74029404 0.14235469 0.64831474
v 0.67512534 0.15649462 0.71290128
v 0.69360383 0.14235469 0.71309247
v 0.74029404 0.16689003 0.73051947
v 0.72402714 0.16692920 0.73041881
v 0.72402714 0.17506456 0.73575155
v 0.71308149 0.17703475 0.73456429
v 0.71794248 0.18236954 0.73662692
v 0.77282784 0.18236954 0.73534909
v 0.78139349 0.17989015 0.73279342
v 0.77292889 0.14235469 0.71277050
v 0.76611451 0.14235469 0.64971332
v 0.77305234 0.16989427 0.63482191
v 0.74029404 0.16518227 0.63482191
v 0.75656094 0.16521360 0.63482191
v 0.75442795 0.14235469 0.64837511
v 0.71116180 0.14235469 0.71317296
v 0.74029404 0.17502538 0.73578176
v 0.72745115 0.14235469 0.71312263
v 0.74361700 0.14235469 0.71305222
v 0.75656094 0.14235469 0.71299185
v 0.75656094 0.16689003 0.73029807
v 0.75656094 0.17502538 0.73578176
v 0.74029404 0.18236954 0.73761300
v 0.72402714 0.18236954 0.73755263
v 0.75656094 0.18236954 0.73761300
v 0.77282784 0.17720709 0.73442343
v 0.76463264 0.14235469 0.64914987
v 0.76577771 0.16774783 0.63482191
v 0.75656094 0.14235469 0.64840532
f 1 2 3
f 1 3 4
f 1 4 5
f 1 5 6
f 1 6 7
f 1 7 8
f 1 8 14
f 1 14 24
f 1 24 40
f 1 40 57
f 1 57 56
f 1 56 58
f 1 58 41
f 1 41 27
f 1 27 25
f 1 25 15
f 1 15 9
f 1 9 19
f 1 19 30
f 1 30 45
f 1 45 61
f 1 61 47
f 1 47 46
f 1 46 32
f 1 32 20
f 1 20 10
f 1 10 2
f 2 10 3
f 3 11 12
f 3 12 22
f 3 22 34
f 3 34 23
f 3 23 13
f 3 13 7
f 3 7 6
f 3 6 5
f 3 5 4
f 3 10 11
f 7 13 14
f 7 14 8
f 9 15 16
f 9 16 17
f 9 17 18
f 9 18 19
f 10 20 21
f 10 21 11
f 11 21 33
f 11 33 48
f 11 48 62
f 11 62 60
f 11 60 44
f 11 44 31
f 11 31 18
f 11 18 29
f 11 29 28
f 11 28 43
f 11 43 53
f 11 53 52
f 11 52 51
f 11 51 49
f 11 49 35
f 11 35 22
f 11 22 12
f 13 23 24
f 13 24 14
f 15 25 16
f 16 26 17
f 16 25 27
f 16 27 26
f 17 26 28
f 17 28 29
f 17 29 18
f 18 30 19
f 18 31 30
f 20 32 33
f 20 33 21
f 22 35 36
f 22 36 37
f 22 37 38
f 22 38 39
f 22 39 24
f 22 24 34
f 23 34 24
f 24 39 40
f 26 27 28
f 27 41 42
f 27 42 28
f 28 42 43
f 30 31 44
f 30 44 45
f 32 46 33
f 33 46 47
f 33 47 48
f 35 49 36
f 36 50 38
f 36 38 37
f 36 49 51
f 36 51 52
f 36 52 53
f 36 53 43
f 36 43 54
f 36 54 55
f 36 55 50
f 38 50 56
f 38 56 57
f 38 57 40
f 38 40 39
f 41 58 59
f 41 59 42
f 42 59 43
f 43 59 55
f 43 55 54
f 44 60 45
f 45 60 61
f 47 61 60
f 47 60 62
f 47 62 48
f 50 55 58
f 50 58 56
f 55 59 58

