# https://github.com/mikedh/trimesh
v 0.68524144 -0.15199394 0.06426088
v 0.68524144 -0.16862732 0.06455778
v 0.68524144 -0.15199394 0.03506410
v 0.52873407 -0.15199394 0.06426088
v 0.68524144 -0.18586617 0.06220129
v 0.52873407 -0.16891301 0.06435151
v 0.68524144 -0.16267069 0.03501097
v 0.05650395 -0.15199394 0.03262947
v 0.51248632 -0.15199394 0.06423275
v 0.68524144 -0.18935402 0.05939162
v 0.51248632 -0.16891301 0.06432026
v 0.49623858 -0.16891301 0.06424213
v 0.34982451 -0.16891301 0.06350767
v 0.33357679 -0.16891301 0.06342329
v 0.05650395 -0.16944172 0.06186688
v 0.05650395 -0.18517969 0.05836339
v 0.05650395 -0.18560608 0.05820400
v 0.05650395 -0.19501645 0.05187834
v 0.68524144 -0.16891301 0.03504222
v 0.05650395 -0.16759547 0.03272948
v 0.05650395 -0.15199394 0.05876968
v 0.49685405 -0.15199394 0.06415774
v 0.49623858 -0.15264206 0.06416087
v 0.68524144 -0.19554943 0.05396918
v 0.34982451 -0.15199394 0.06342642
v 0.34982451 -0.15264206 0.06342954
v 0.05650395 -0.16894285 0.06190438
v 0.05650395 -0.19502924 0.05141579
v 0.68524144 -0.17893311 0.03711118
v 0.07324401 -0.16891301 0.03285137
v 0.05650395 -0.18517969 0.03658613
v 0.05650395 -0.15201100 0.06177625
v 0.05699628 -0.15199394 0.06177625
v 0.36674921 -0.15199394 0.06351080
v 0.68524144 -0.19554943 0.04554956
v 0.31732907 -0.15199394 0.06324515
v 0.05650395 -0.15308549 0.06181375
v 0.05650395 -0.19502924 0.04462447
v 0.68524144 -0.18517969 0.03858009
v 0.68524144 -0.19185692 0.04294616
v 0.07324401 -0.15199394 0.06187001
v 0.26846282 -0.15199394 0.06297012
f 1 2 5
f 1 5 10
f 1 10 24
f 1 24 35
f 1 35 40
f 1 40 39
f 1 39 29
f 1 29 19
f 1 19 7
f 1 7 3
f 1 3 8
f 1 8 21
f 1 21 33
f 1 33 41
f 1 41 42
f 1 42 36
f 1 36 25
f 1 25 34
f 1 34 22
f 1 22 9
f 1 9 4
f 1 4 2
f 2 4 6
f 2 6 5
f 3 7 8
f 4 9 6
f 5 6 11
f 5 11 12
f 5 12 13
f 5 13 14
f 5 14 15
f 5 15 16
f 5 16 17
f 5 17 18
f 5 18 10
f 6 9 11
f 7 19 8
f 8 20 31
f 8 31 38
f 8 38 28
f 8 28 18
f 8 18 17
f 8 17 16
f 8 16 15
f 8 15 27
f 8 27 37
f 8 37 32
f 8 32 21
f 8 19 20
f 9 22 23
f 9 23 11
f 10 18 24
f 11 23 12
f 12 23 25
f 12 25 26
f 12 26 13
f 13 26 14
f 14 26 25
f 14 25 27
f 14 27 15
f 18 28 24
f 19 29 30
f 19 30 20
f 20 30 31
f 21 32 33
f 22 34 23
f 23 34 25
f 24 28 38
f 24 38 35
f 25 36 37
f 25 37 27
f 29 39 31
f 29 31 30
f 31 39 40
f 31 40 35
f 31 35 38
f 32 37 41
f 32 41 33
f 36 42 37
f 37 42 41

