# https://github.com/mikedh/trimesh
v 0.67605207 0.14235762 0.03416462
v 0.65894529 0.15649518 0.03416764
v 0.67605207 0.15647460 0.03418575
v 0.67605207 0.14235762 0.06329416
v 0.64264905 0.14235762 0.03428231
v 0.61009921 0.15649518 0.03433663
v 0.64264905 0.15649518 0.03422196
v 0.59384559 0.17239405 0.04163335
v 0.61009921 0.17239110 0.04160317
v 0.65894529 0.17238815 0.04151868
v 0.67605207 0.17235876 0.04152773
v 0.24023408 0.17235581 0.04231836
v 0.26847523 0.14235762 0.06494482
v 0.67605207 0.14309273 0.06328511
v 0.65894529 0.15649518 0.06327304
v 0.62639544 0.15649518 0.06340883
v 0.62639544 0.14235762 0.03434266
v 0.24023408 0.15274613 0.03578813
v 0.24023408 0.15649518 0.03577002
v 0.47994249 0.17238228 0.04187175
v 0.59384559 0.17239405 0.05620265
v 0.65894529 0.17238815 0.05606685
v 0.67605207 0.17235876 0.05502274
v 0.24023408 0.17235581 0.05685748
v 0.26847523 0.15649518 0.06485731
v 0.25435465 0.14235762 0.06498708
v 0.67605207 0.15656281 0.06307991
v 0.67605207 0.15730673 0.06276607
v 0.67605207 0.17233523 0.05595520
v 0.24023408 0.14235762 0.03584245
v 0.47994249 0.17238228 0.05640483
v 0.62639544 0.17239110 0.05613625
v 0.34982849 0.17236757 0.05667039
v 0.30102505 0.17236169 0.05677902
v 0.25222164 0.17235581 0.05687860
v 0.26847523 0.17235581 0.05685748
v 0.25222164 0.15649518 0.06490258
v 0.64264905 0.17238815 0.05610306
v 0.24023408 0.15649518 0.06486033
v 0.25222164 0.14235762 0.06499009
v 0.24023408 0.14235762 0.06494784
f 1 2 3
f 1 3 11
f 1 11 23
f 1 23 29
f 1 29 28
f 1 28 27
f 1 27 14
f 1 14 4
f 1 4 13
f 1 13 26
f 1 26 40
f 1 40 41
f 1 41 30
f 1 30 17
f 1 17 5
f 1 5 6
f 1 6 7
f 1 7 2
f 2 8 9
f 2 9 10
f 2 10 11
f 2 11 3
f 2 7 12
f 2 12 8
f 4 14 15
f 4 15 16
f 4 16 13
f 5 17 6
f 6 17 18
f 6 18 19
f 6 19 12
f 6 12 7
f 8 20 31
f 8 31 21
f 8 21 32
f 8 32 22
f 8 22 10
f 8 10 9
f 8 12 20
f 10 22 23
f 10 23 11
f 12 19 18
f 12 18 30
f 12 30 41
f 12 41 39
f 12 39 24
f 12 24 31
f 12 31 20
f 13 25 26
f 13 16 25
f 14 27 15
f 15 27 28
f 15 28 29
f 15 29 22
f 15 22 16
f 16 22 25
f 17 30 18
f 21 31 33
f 21 33 34
f 21 34 35
f 21 35 36
f 21 36 37
f 21 37 32
f 22 29 23
f 22 32 38
f 22 38 37
f 22 37 25
f 24 39 37
f 24 37 35
f 24 35 34
f 24 34 33
f 24 33 31
f 25 37 26
f 26 37 40
f 32 37 38
f 35 37 36
f 37 39 41
f 37 41 40

